<?xml version="1.0" encoding="utf-8"?>
<!-- Generator: Adobe Illustrator 18.0.0, SVG Export Plug-In . SVG Version: 6.00 Build 0)  -->
<!DOCTYPE svg PUBLIC "-//W3C//DTD SVG 1.1//EN" "http://www.w3.org/Graphics/SVG/1.1/DTD/svg11.dtd">
<svg version="1.1" id="Layer_1" xmlns="http://www.w3.org/2000/svg" xmlns:xlink="http://www.w3.org/1999/xlink" x="0px" y="0px"
	 viewBox="0 0 48 48" enable-background="new 0 0 48 48" xml:space="preserve">
<g>
	<path fill="#010101" d="M24,48C10.8,48,0,37.2,0,24S10.8,0,24,0v2C11.9,2,2,11.9,2,24s9.9,22,22,22s22-9.9,22-22h2
		C48,37.2,37.2,48,24,48z"/>
	<path fill="#010101" d="M15.5,24.6v-2.3l2.3-2.2c4.7-4.3,6.8-6.7,6.9-9.3c0-1.8-0.9-3.3-3.5-3.3c-1.7,0-3.2,0.9-4.2,1.6l-1.1-2.6
		c1.4-1.2,3.6-2,6.1-2c4.4,0,6.5,2.8,6.5,6c0,3.5-2.5,6.3-5.9,9.5l-1.7,1.5v0.1H29v3.1H15.5V24.6z"/>
	<path fill="#010101" d="M40.1,24.6v-5h-8.9v-2.4l8.1-12.3h4.4v11.9h2.6v2.8h-2.6v5C43.7,24.6,40.1,24.6,40.1,24.6z M40.1,16.8v-5.4
		c0-1.1,0-2.3,0.1-3.4h-0.1c-0.6,1.2-1.1,2.3-1.7,3.3l-3.6,5.4v0.1H40.1z"/>
</g>
</svg>
