<?xml version="1.0" encoding="utf-8"?>
<!-- Generator: Adobe Illustrator 18.0.0, SVG Export Plug-In . SVG Version: 6.00 Build 0)  -->
<!DOCTYPE svg PUBLIC "-//W3C//DTD SVG 1.1//EN" "http://www.w3.org/Graphics/SVG/1.1/DTD/svg11.dtd">
<svg version="1.1" id="Layer_1" xmlns="http://www.w3.org/2000/svg" xmlns:xlink="http://www.w3.org/1999/xlink" x="0px" y="0px"
	 viewBox="0 0 48 48" enable-background="new 0 0 48 48" xml:space="preserve">
<g>
	<path d="M48,36.3H0V5h48V36.3z M2,34.3h44V7H2V34.3z"/>
	<rect x="23" y="35.3" width="2" height="6.7"/>
	<rect x="13.9" y="41" width="20.2" height="2"/>
	<g>
		<path d="M14.5,24.9c0.5,0.3,1.5,0.7,2.6,0.7c2,0,2.7-1.3,2.7-2.3c0-1.6-1.5-2.3-3-2.3h-0.9v-1.2h0.9c1.2,0,2.6-0.6,2.6-2
			c0-0.9-0.6-1.8-2.1-1.8c-0.9,0-1.8,0.4-2.3,0.8l-0.4-1.2c0.6-0.5,1.8-0.9,3.1-0.9c2.3,0,3.4,1.4,3.4,2.8c0,1.2-0.7,2.2-2.2,2.8
			l0,0c1.4,0.3,2.6,1.4,2.6,3c0,1.9-1.5,3.5-4.3,3.5c-1.3,0-2.5-0.4-3.1-0.8L14.5,24.9z"/>
		<path d="M23.9,14.7c1-0.1,2.1-0.3,3.3-0.3c2.3,0,3.9,0.5,4.9,1.5c1.1,1,1.7,2.4,1.7,4.4S33.2,23.9,32,25c-1.1,1.1-3,1.8-5.4,1.8
			c-1.1,0-2.1-0.1-2.9-0.1v-12H23.9z M25.5,25.5c0.4,0.1,1,0.1,1.6,0.1c3.4,0,5.2-1.9,5.2-5.2c0-2.9-1.6-4.7-4.9-4.7
			c-0.8,0-1.4,0.1-1.8,0.2v9.6H25.5z"/>
	</g>
</g>
</svg>
