<?xml version="1.0" encoding="utf-8"?>
<!-- Generator: Adobe Illustrator 16.0.0, SVG Export Plug-In . SVG Version: 6.00 Build 0)  -->
<!DOCTYPE svg PUBLIC "-//W3C//DTD SVG 1.1//EN" "http://www.w3.org/Graphics/SVG/1.1/DTD/svg11.dtd">
<svg version="1.1" id="Layer_1" xmlns="http://www.w3.org/2000/svg" xmlns:xlink="http://www.w3.org/1999/xlink" x="0px" y="0px"
	 width="48px" height="48px" viewBox="0 0 48 48" enable-background="new 0 0 48 48" xml:space="preserve">
<g>
	<path d="M7.495,48H1c-0.552,0-1-0.447-1-1s0.448-1,1-1h5.495V1c0-0.552,0.448-1,1-1h32.83c0.553,0,1,0.448,1,1v44.309H47
		c0.553,0,1,0.447,1,1s-0.447,1-1,1h-6.675c-0.553,0-1-0.447-1-1V2H8.495v45C8.495,47.553,8.047,48,7.495,48z"/>
	<path d="M7.494,48c-0.47,0-0.89-0.333-0.981-0.813c-0.104-0.542,0.252-1.065,0.794-1.17l23.296-4.458V7.188L7.318,3.012
		C6.775,2.915,6.413,2.395,6.511,1.851c0.098-0.543,0.613-0.905,1.161-0.808L31.78,5.368c0.477,0.085,0.823,0.5,0.823,0.984v36.035
		c0,0.479-0.341,0.892-0.813,0.982L7.683,47.982C7.62,47.994,7.556,48,7.494,48z"/>
	<path d="M25.965,27.291c-0.553,0-1-0.447-1-1v-6.005c0-0.552,0.447-1,1-1s1,0.448,1,1v6.005
		C26.965,26.844,26.518,27.291,25.965,27.291z"/>
</g>
</svg>
