<?xml version="1.0" encoding="utf-8"?>
<!-- Generator: Adobe Illustrator 18.0.0, SVG Export Plug-In . SVG Version: 6.00 Build 0)  -->
<!DOCTYPE svg PUBLIC "-//W3C//DTD SVG 1.1//EN" "http://www.w3.org/Graphics/SVG/1.1/DTD/svg11.dtd">
<svg version="1.1" id="Layer_1" xmlns="http://www.w3.org/2000/svg" xmlns:xlink="http://www.w3.org/1999/xlink" x="0px" y="0px"
	 viewBox="0 0 48 48" enable-background="new 0 0 48 48" xml:space="preserve">
<g>
	<path fill="#010101" d="M12.7,48C5.7,48,0,42.3,0,35.2c0-4.9,2.8-9.4,7.3-11.5V6.8c0-3,2.4-5.4,5.4-5.4c3,0,5.4,2.4,5.4,5.4v16.9
		c4.5,2.1,7.3,6.6,7.3,11.5C25.4,42.3,19.7,48,12.7,48z M12.7,3.4c-1.8,0-3.4,1.6-3.4,3.4V25l-0.6,0.3C4.6,26.9,2,30.8,2,35.2
		C2,41.2,6.8,46,12.7,46s10.7-4.8,10.7-10.8c0-4.4-2.6-8.3-6.7-10L16.1,25V6.8C16.1,4.9,14.6,3.4,12.7,3.4z"/>
	<path fill="#010101" d="M34.5,18.3c-2.6,0-4.8-2.2-4.8-4.8s2.2-4.8,4.8-4.8s4.8,2.2,4.8,4.8S37.1,18.3,34.5,18.3z M34.5,10.7
		c-1.5,0-2.8,1.3-2.8,2.8s1.3,2.8,2.8,2.8s2.8-1.3,2.8-2.8S36,10.7,34.5,10.7z"/>
	<rect x="33.5" y="1" fill="#010101" width="2" height="7.6"/>
	<polygon fill="#010101" points="34.5,10 28.4,4 29.8,2.6 34.5,7.2 39.1,2.6 40.5,4 	"/>
	<rect x="33.5" y="18.4" fill="#010101" width="2" height="7.7"/>
	<polygon fill="#010101" points="29.8,24.5 28.4,23.1 34.5,17 40.5,23.1 39.1,24.5 34.5,19.8 	"/>
	<rect x="39.4" y="12.5" fill="#010101" width="7.6" height="2"/>
	<polygon fill="#010101" points="44,19.6 38,13.5 44,7.5 45.4,8.9 40.8,13.5 45.4,18.2 	"/>
	<rect x="21.9" y="12.5" fill="#010101" width="7.7" height="2"/>
	<polygon fill="#010101" points="24.9,19.6 23.5,18.2 28.2,13.5 23.5,8.9 24.9,7.5 31,13.5 	"/>
</g>
</svg>
