<?xml version="1.0" encoding="utf-8"?>
<!-- Generator: Adobe Illustrator 18.0.0, SVG Export Plug-In . SVG Version: 6.00 Build 0)  -->
<!DOCTYPE svg PUBLIC "-//W3C//DTD SVG 1.1//EN" "http://www.w3.org/Graphics/SVG/1.1/DTD/svg11.dtd">
<svg version="1.1" id="Layer_1" xmlns="http://www.w3.org/2000/svg" xmlns:xlink="http://www.w3.org/1999/xlink" x="0px" y="0px"
	 viewBox="0 0 48 48" enable-background="new 0 0 48 48" xml:space="preserve">
<g>
	<g>
		<path fill="#010101" d="M39,8.3c3.3,0,6,2.7,6,6v17.3c0,3.3-2.7,6-6,6H9c-3.3,0-6-2.7-6-6V14.3c0-3.3,2.7-6,6-6H39 M39,6.3H9
			c-4.4,0-8,3.6-8,8v17.3c0,4.4,3.6,8,8,8h30c4.4,0,8-3.6,8-8V14.3C47,9.9,43.4,6.3,39,6.3L39,6.3z"/>
	</g>
	<path fill="#010101" d="M16.5,35.8C9.4,35.8,3.7,30.1,3.7,23s5.7-12.8,12.8-12.8S29.3,15.9,29.3,23S23.6,35.8,16.5,35.8z
		 M16.5,12.2c-6,0-10.8,4.8-10.8,10.8s4.8,10.8,10.8,10.8S27.3,29,27.3,23S22.5,12.2,16.5,12.2z"/>
	<rect x="32.6" y="12.2" fill="#010101" width="8.9" height="2"/>
	<rect x="32.6" y="17.1" fill="#010101" width="8.9" height="2"/>
	<rect x="32.6" y="22" fill="#010101" width="8.9" height="2"/>
	<rect x="32.6" y="26.9" fill="#010101" width="8.9" height="2"/>
	<rect x="32.6" y="31.8" fill="#010101" width="8.9" height="2"/>
	<path fill="#010101" d="M18.6,24.2c-0.8,0-1.6-0.1-2.3-0.2c-0.3-0.1-0.6-0.3-0.7-0.6c-0.1-0.3-0.1-0.6,0-0.9
		c1.5-2.6,2.9-6.1,2.5-7.1c-0.1-0.4,0-0.8,0.3-1c0.3-0.3,0.7-0.3,1.1-0.2c0.5,0.2,4.6,1.9,5.4,4.6c0.2,0.8,0.3,1.9-0.7,3.2
		C23.1,23.4,21.1,24.2,18.6,24.2z M18,22.2c2.1,0.1,3.8-0.4,4.5-1.4c0.5-0.7,0.5-1.2,0.4-1.5c-0.3-1-1.7-2-2.9-2.7
		C19.7,18.5,18.7,20.7,18,22.2z"/>
	<path fill="#010101" d="M16,32.4c-2.1,0-3.5-1.1-3.9-3c-0.4-2.5,1.6-5.4,3.7-7.2c0.3-0.2,0.6-0.3,0.9-0.2c0.3,0.1,0.6,0.3,0.7,0.6
		c0.9,2.8,2.6,6.1,3.6,6.5c0.4,0.1,0.6,0.5,0.6,0.9s-0.2,0.8-0.5,0.9C21,31,18.3,32.4,16,32.4z M16,24.8c-1.3,1.5-2.2,3.2-2,4.3
		c0.1,0.6,0.5,1.4,2,1.4c0.9,0,2-0.3,2.8-0.6C17.5,28.4,16.6,26.3,16,24.8z"/>
	<path fill="#010101" d="M8.1,24c-0.2,0-0.3,0-0.5-0.1c-0.3-0.2-0.6-0.5-0.5-0.9c0.1-2.7,1.3-7.2,4.6-7.2c0.4,0,0.9,0.1,1.3,0.2
		c2.6,0.9,4.1,4.2,4.4,6.9c0,0.3-0.1,0.6-0.3,0.9C16.8,24,16.5,24,16.2,24c0,0-2.8-0.6-5.1-0.6c-1.7,0-2.2,0.3-2.3,0.4
		C8.5,23.9,8.3,24,8.1,24z M11.1,21.4c1.4,0,3,0.2,4.1,0.4c-0.5-1.9-1.6-3.5-2.8-3.9c-0.2-0.1-0.5-0.1-0.7-0.1
		c-1.4,0-2.1,2.1-2.4,3.8C9.8,21.4,10.4,21.4,11.1,21.4z"/>
	<g>
		<rect x="6" y="40.7" fill="#010101" width="4.4" height="2"/>
		<rect x="37.6" y="40.7" fill="#010101" width="4.4" height="2"/>
	</g>
</g>
</svg>
