<?xml version="1.0" encoding="utf-8"?>
<!-- Generator: Adobe Illustrator 18.0.0, SVG Export Plug-In . SVG Version: 6.00 Build 0)  -->
<!DOCTYPE svg PUBLIC "-//W3C//DTD SVG 1.1//EN" "http://www.w3.org/Graphics/SVG/1.1/DTD/svg11.dtd">
<svg version="1.1" id="Layer_1" xmlns="http://www.w3.org/2000/svg" xmlns:xlink="http://www.w3.org/1999/xlink" x="0px" y="0px"
	 viewBox="0 0 48 48" enable-background="new 0 0 48 48" xml:space="preserve">
<g>
	<path fill="#010101" d="M18.2,48h-5.1c-0.3,0-0.6-0.1-0.8-0.4c-0.2-0.3-0.2-0.6-0.2-0.9L17,30.5H9.6l-3,5.5
		c-0.2,0.3-0.5,0.5-0.9,0.5H1c-0.3,0-0.6-0.2-0.8-0.4C0,35.8,0,35.5,0,35.2L3.6,24L0,12.8c-0.1-0.3,0-0.6,0.1-0.9s0.5-0.4,0.8-0.4
		h4.8c0.4,0,0.7,0.2,0.9,0.5l3,5.5h7.4L12.2,1.3c-0.1-0.3,0-0.6,0.2-0.9C12.6,0.1,12.9,0,13.2,0h5.1c0.3,0,0.6,0.2,0.8,0.4l11,15.9
		c10,1,17.2,6.6,17.5,6.9c0.2,0.2,0.4,0.5,0.4,0.8c0,0.3-0.1,0.6-0.4,0.8c-0.3,0.2-7.4,5.8-17.5,6.9L19,47.6
		C18.8,47.8,18.5,48,18.2,48z M14.4,46h3.2l11.1-15.9c0.2-0.2,0.4-0.4,0.7-0.4C37,29,42.9,25.6,45.3,24c-2.4-1.6-8.3-5-15.8-5.7
		c-0.3,0-0.6-0.2-0.7-0.4L17.8,2h-3.2l4.8,16.2c0.1,0.3,0,0.6-0.2,0.9c-0.2,0.3-0.5,0.4-0.8,0.4H9.1c-0.4,0-0.7-0.2-0.9-0.5l-3-5.5
		H2.4l3.2,10.2c0.1,0.2,0.1,0.4,0,0.6L2.4,34.5h2.7l3-5.5c0.2-0.3,0.5-0.5,0.9-0.5h9.3c0.3,0,0.6,0.1,0.8,0.4
		c0.2,0.3,0.2,0.6,0.2,0.9L14.4,46z"/>
</g>
</svg>
