<?xml version="1.0" encoding="utf-8"?>
<!-- Generator: Adobe Illustrator 18.0.0, SVG Export Plug-In . SVG Version: 6.00 Build 0)  -->
<!DOCTYPE svg PUBLIC "-//W3C//DTD SVG 1.1//EN" "http://www.w3.org/Graphics/SVG/1.1/DTD/svg11.dtd">
<svg version="1.1" id="Layer_1" xmlns="http://www.w3.org/2000/svg" xmlns:xlink="http://www.w3.org/1999/xlink" x="0px" y="0px"
	 viewBox="0 0 48 48" enable-background="new 0 0 48 48" xml:space="preserve">
<g>
	<path fill="#010101" d="M24,45.1c-11,0-20-9-20-20c0-11,9-20,20-20c11,0,20,9,20,20C44,36.1,35,45.1,24,45.1z M24,7.1
		c-9.9,0-18,8.1-18,18s8.1,18,18,18c9.9,0,18-8.1,18-18S33.9,7.1,24,7.1z"/>
	<path fill="#010101" d="M24,28.5c-1.9,0-3.4-1.5-3.4-3.4c0-1.9,1.5-3.4,3.4-3.4c1.9,0,3.4,1.5,3.4,3.4C27.4,27,25.9,28.5,24,28.5z
		 M24,23.7c-0.8,0-1.4,0.6-1.4,1.4c0,0.8,0.6,1.4,1.4,1.4c0.8,0,1.4-0.6,1.4-1.4C25.4,24.3,24.8,23.7,24,23.7z"/>
	<g>
		<path fill="#010101" d="M4.6,12.5L4,11.6C1.9,8.1,2.9,3.5,6.3,1.3C7.6,0.4,9.1,0,10.6,0c2.4,0,4.7,1.1,6.2,3l0.7,0.8L4.6,12.5z
			 M10.6,2c-1.1,0-2.2,0.3-3.1,1C5.2,4.4,4.4,7.2,5.3,9.6l9.2-6.2C13.4,2.5,12,2,10.6,2z"/>
		<path fill="#010101" d="M43.4,12.5L30.5,3.8L31.2,3c1.5-1.9,3.8-3,6.2-3c1.5,0,3,0.5,4.3,1.3c3.4,2.3,4.4,6.8,2.3,10.3L43.4,12.5z
			 M33.5,3.4l9.2,6.2c0.9-2.4,0.1-5.2-2.2-6.7C38.4,1.5,35.4,1.7,33.5,3.4z"/>
	</g>
	<rect x="23" y="9.3" fill="#010101" width="2" height="11.7"/>
	<rect x="28.1" y="24.1" fill="#010101" width="7.6" height="2"/>
	<g>
		<rect x="9" y="39" transform="matrix(0.7702 0.6378 -0.6378 0.7702 30.0437 3.6189)" fill="#010101" width="2" height="9.1"/>
		<rect x="33.5" y="42.5" transform="matrix(0.6381 0.77 -0.77 0.6381 47.2475 -13.5152)" fill="#010101" width="9.1" height="2"/>
	</g>
</g>
</svg>
