<?xml version="1.0" encoding="utf-8"?>
<!-- Generator: Adobe Illustrator 16.0.0, SVG Export Plug-In . SVG Version: 6.00 Build 0)  -->
<!DOCTYPE svg PUBLIC "-//W3C//DTD SVG 1.1//EN" "http://www.w3.org/Graphics/SVG/1.1/DTD/svg11.dtd">
<svg version="1.1" id="Layer_1" xmlns="http://www.w3.org/2000/svg" xmlns:xlink="http://www.w3.org/1999/xlink" x="0px" y="0px"
	 width="48px" height="48px" viewBox="0 0 48 48" enable-background="new 0 0 48 48" xml:space="preserve">
<g>
	<path d="M24,42.617c-8.668,0-14.539-21.078-14.539-28.078C9.461,6.522,15.983,0,24,0c8.018,0,14.54,6.522,14.54,14.539
		C38.54,21.539,32.668,42.617,24,42.617z M24,2c-6.914,0-12.539,5.625-12.539,12.539c0,7.304,5.962,26.078,12.539,26.078
		c6.578,0,12.54-18.774,12.54-26.078C36.54,7.625,30.915,2,24,2z"/>
	<g>
		<path d="M31.896,22.308H16.103c-1.103,0-2-0.897-2-2v-8.374c0-1.103,0.897-2,2-2h15.793c1.103,0,2,0.897,2,2v8.374
			C33.896,21.411,32.999,22.308,31.896,22.308z M31.896,20.308v1V20.308L31.896,20.308L31.896,20.308z M16.103,11.934v8.374h15.791
			l0.003-8.374H16.103z"/>
	</g>
	<g>
		<path d="M2.775,48c-0.218,0-0.438-0.071-0.622-0.218c-0.432-0.344-0.504-0.973-0.16-1.404l11.914-14.979
			c0.344-0.434,0.973-0.504,1.405-0.16s0.504,0.973,0.16,1.404L3.559,47.622C3.361,47.871,3.069,48,2.775,48z"/>
		<path d="M45.226,48c-0.295,0-0.586-0.129-0.783-0.378L32.53,32.644c-0.344-0.432-0.272-1.061,0.16-1.404
			c0.432-0.345,1.061-0.272,1.404,0.16l11.912,14.979c0.344,0.432,0.272,1.061-0.16,1.404C45.663,47.929,45.443,48,45.226,48z"/>
	</g>
	<path d="M41.688,44.867H6.313c-0.552,0-1-0.447-1-1s0.448-1,1-1h35.375c0.553,0,1,0.447,1,1S42.24,44.867,41.688,44.867z"/>
</g>
</svg>
