<?xml version="1.0" encoding="utf-8"?>
<!-- Generator: Adobe Illustrator 16.0.0, SVG Export Plug-In . SVG Version: 6.00 Build 0)  -->
<!DOCTYPE svg PUBLIC "-//W3C//DTD SVG 1.1//EN" "http://www.w3.org/Graphics/SVG/1.1/DTD/svg11.dtd">
<svg version="1.1" id="Layer_1" xmlns="http://www.w3.org/2000/svg" xmlns:xlink="http://www.w3.org/1999/xlink" x="0px" y="0px"
	 width="48px" height="48px" viewBox="0 0 48 48" enable-background="new 0 0 48 48" xml:space="preserve">
<g>
	<path d="M19.749,48c-1.662,0-3.21-0.487-4.602-1.448C12.51,44.729,4.908,36.984,3.734,28.149
		c-0.598-4.501,0.574-8.527,3.483-11.967c0.221-0.23,4.5-4.515,9.619-3.98c2.273,0.237,3.036,0.553,3.648,0.806
		c0.58,0.239,1.038,0.429,3.52,0.437c2.475-0.008,2.933-0.198,3.512-0.437c0.613-0.253,1.375-0.568,3.648-0.806
		c5.109-0.537,9.401,3.754,9.569,3.926c2.959,3.495,4.131,7.521,3.532,12.023c-1.176,8.837-8.778,16.58-11.415,18.4
		C31.46,47.513,29.912,48,28.251,48l0,0c-1.838,0-3.375-0.598-4.251-1.032C23.125,47.403,21.59,48,19.749,48z M15.941,14.156
		c-3.898,0-7.212,3.338-7.246,3.372c-2.48,2.937-3.499,6.44-2.979,10.358c1.072,8.066,8.223,15.4,10.566,17.021
		C17.334,45.632,18.5,46,19.749,46c1.838,0,3.332-0.789,3.747-1.03c0.31-0.182,0.695-0.183,1.007-0.001
		C24.918,45.21,26.418,46,28.251,46l0,0c1.247,0,2.412-0.368,3.463-1.094c2.344-1.619,9.495-8.95,10.569-17.019
		c0.521-3.918-0.497-7.422-3.027-10.414c0,0,0,0,0,0c-0.004,0-3.724-3.724-7.884-3.283c-1.985,0.208-2.573,0.45-3.093,0.665
		c-0.871,0.36-1.595,0.58-4.276,0.588c-2.688-0.009-3.411-0.229-4.283-0.588c-0.519-0.215-1.107-0.458-3.092-0.665
		C16.397,14.167,16.167,14.156,15.941,14.156z"/>
	<path d="M24.001,14.866c-0.048,0-0.097-0.003-0.146-0.011c-0.546-0.08-0.924-0.588-0.844-1.134
		c1.052-7.18-3.934-11.942-3.984-11.99c-0.403-0.377-0.425-1.009-0.049-1.413s1.006-0.429,1.411-0.052
		c0.238,0.221,5.81,5.498,4.601,13.744C24.917,14.508,24.489,14.866,24.001,14.866z"/>
	<path d="M29.512,11.587c-1.809,0-3.75-0.474-5.77-1.408c-0.333-0.154-0.555-0.478-0.578-0.844
		c-0.007-0.119-0.161-2.937,2.062-5.307c2.666-2.841,7.491-3.761,14.214-2.683c0.485,0.078,0.842,0.496,0.842,0.987
		C40.281,2.966,37.283,11.587,29.512,11.587z M25.192,8.632c1.529,0.634,2.979,0.956,4.319,0.956c4.875,0,7.428-4.347,8.374-6.444
		c-5.365-0.676-9.181,0.099-11.201,2.254C25.592,6.563,25.279,7.892,25.192,8.632z"/>
</g>
</svg>
