<?xml version="1.0" encoding="utf-8"?>
<!-- Generator: Adobe Illustrator 18.0.0, SVG Export Plug-In . SVG Version: 6.00 Build 0)  -->
<!DOCTYPE svg PUBLIC "-//W3C//DTD SVG 1.1//EN" "http://www.w3.org/Graphics/SVG/1.1/DTD/svg11.dtd">
<svg version="1.1" id="Layer_1" xmlns="http://www.w3.org/2000/svg" xmlns:xlink="http://www.w3.org/1999/xlink" x="0px" y="0px"
	 viewBox="0 0 48 48" enable-background="new 0 0 48 48" xml:space="preserve">
<g>
	<path fill="#010101" d="M35.4,48H12.6c-3,0-5.5-2.5-5.5-5.5v-37c0-3,2.5-5.5,5.5-5.5h22.7c3,0,5.5,2.5,5.5,5.5v36.9
		c0.1,1.5-0.5,2.9-1.5,4C38.3,47.4,36.9,48,35.4,48z M12.6,2c-2,0-3.5,1.5-3.5,3.5v37c0,2,1.5,3.5,3.5,3.5h22.8c1,0,1.8-0.4,2.5-1
		c0.6-0.7,1-1.6,0.9-2.5l0-36.9c0-2-1.5-3.5-3.5-3.5H12.6z"/>
	<path fill="#010101" d="M31,21H17c-2.7,0-4.9-2.2-4.9-4.9V9.6c0-2.7,2.2-4.9,4.9-4.9h14c2.7,0,4.9,2.2,4.9,4.9v6.5
		C35.9,18.8,33.7,21,31,21z M17,6.7c-1.6,0-2.9,1.3-2.9,2.9v6.5c0,1.6,1.3,2.9,2.9,2.9h14c1.6,0,2.9-1.3,2.9-2.9V9.6
		c0-1.6-1.3-2.9-2.9-2.9H17z"/>
	<g>
		<path fill="#010101" d="M17.4,14l-0.6,2H16l2-6.3h1l2.1,6.2h-0.9l-0.7-2h-2.1V14z M19.4,13.4l-0.6-1.8c-0.1-0.4-0.2-0.8-0.3-1.1
			l0,0c-0.1,0.4-0.2,0.7-0.3,1.1l-0.6,1.8H19.4z"/>
		<path fill="#010101" d="M22.5,10.4h-1.9V9.7h4.6v0.7h-1.9V16h-0.8C22.5,16,22.5,10.4,22.5,10.4z"/>
		<path fill="#010101" d="M31.2,13.2c0-0.9-0.1-1.9-0.1-2.7l0,0c-0.2,0.7-0.5,1.5-0.8,2.4l-1.1,3h-0.6l-1-3
			c-0.3-0.9-0.5-1.7-0.7-2.4l0,0c0,0.8-0.1,1.8-0.1,2.8L26.6,16h-0.8l0.4-6.2h1l1.1,3c0.3,0.8,0.5,1.5,0.6,2.1l0,0
			c0.2-0.6,0.4-1.3,0.7-2.1l1.1-3h1l0.4,6.2h-0.8L31.2,13.2z"/>
	</g>
	<rect x="16.6" y="26.8" fill="#010101" width="14.6" height="2"/>
	<rect x="28.9" y="39.5" fill="#010101" width="4.7" height="2"/>
</g>
</svg>
