<?xml version="1.0" encoding="utf-8"?>
<!-- Generator: Adobe Illustrator 18.0.0, SVG Export Plug-In . SVG Version: 6.00 Build 0)  -->
<!DOCTYPE svg PUBLIC "-//W3C//DTD SVG 1.1//EN" "http://www.w3.org/Graphics/SVG/1.1/DTD/svg11.dtd">
<svg version="1.1" id="Layer_1" xmlns="http://www.w3.org/2000/svg" xmlns:xlink="http://www.w3.org/1999/xlink" x="0px" y="0px"
	 viewBox="0 0 48 48" enable-background="new 0 0 48 48" xml:space="preserve">
<g>
	<path d="M20.6,36.5H0V0h20.6V36.5z M2,34.5h16.6V2H2V34.5z"/>
	<path d="M10.3,14.2c-2.3,0-4.2-1.9-4.2-4.2S8,5.8,10.3,5.8s4.2,1.9,4.2,4.2S12.6,14.2,10.3,14.2z M10.3,7.8c-1.2,0-2.2,1-2.2,2.2
		s1,2.2,2.2,2.2c1.2,0,2.2-1,2.2-2.2S11.5,7.8,10.3,7.8z"/>
	<path d="M10.3,31.9c-3.8,0-6.9-3.1-6.9-6.9s3.1-6.9,6.9-6.9s6.9,3.1,6.9,6.9S14.1,31.9,10.3,31.9z M10.3,20.1
		c-2.7,0-4.9,2.2-4.9,4.9c0,2.7,2.2,4.9,4.9,4.9c2.7,0,4.9-2.2,4.9-4.9C15.2,22.3,13,20.1,10.3,20.1z"/>
	<rect x="9.3" y="36.5" width="2" height="10.5"/>
	<rect x="3.3" y="46" width="14" height="2"/>
	<path d="M48,36.5H27.4V0H48V36.5z M29.4,34.5H46V2H29.4V34.5z"/>
	<path d="M37.7,14.2c-2.3,0-4.2-1.9-4.2-4.2s1.9-4.2,4.2-4.2s4.2,1.9,4.2,4.2S40,14.2,37.7,14.2z M37.7,7.8c-1.2,0-2.2,1-2.2,2.2
		s1,2.2,2.2,2.2s2.2-1,2.2-2.2S38.9,7.8,37.7,7.8z"/>
	<path d="M37.7,31.9c-3.8,0-6.9-3.1-6.9-6.9s3.1-6.9,6.9-6.9s6.9,3.1,6.9,6.9S41.5,31.9,37.7,31.9z M37.7,20.1
		c-2.7,0-4.9,2.2-4.9,4.9c0,2.7,2.2,4.9,4.9,4.9c2.7,0,4.9-2.2,4.9-4.9C42.6,22.3,40.4,20.1,37.7,20.1z"/>
	<rect x="36.7" y="36.5" width="2" height="10.5"/>
	<rect x="30.7" y="46" width="14" height="2"/>
</g>
</svg>
