<?xml version="1.0" encoding="utf-8"?>
<!-- Generator: Adobe Illustrator 16.0.0, SVG Export Plug-In . SVG Version: 6.00 Build 0)  -->
<!DOCTYPE svg PUBLIC "-//W3C//DTD SVG 1.1//EN" "http://www.w3.org/Graphics/SVG/1.1/DTD/svg11.dtd">
<svg version="1.1" id="Layer_1" xmlns="http://www.w3.org/2000/svg" xmlns:xlink="http://www.w3.org/1999/xlink" x="0px" y="0px"
	 width="48px" height="48px" viewBox="0 0 48 48" enable-background="new 0 0 48 48" xml:space="preserve">
<g>
	<path d="M42.674,48H5.326C2.389,48,0,45.647,0,42.755V11.876c0-2.892,2.389-5.245,5.326-5.245h37.348
		C45.61,6.631,48,8.984,48,11.876v30.879C48,45.647,45.61,48,42.674,48z M5.326,8.631C3.492,8.631,2,10.086,2,11.876v30.879
		C2,44.544,3.492,46,5.326,46h37.348C44.508,46,46,44.544,46,42.755V11.876c0-1.79-1.492-3.245-3.326-3.245H5.326z"/>
	<g>
		<path d="M8.678,47.789c-0.552,0-1-0.447-1-1V7.84c0-0.552,0.448-1,1-1s1,0.448,1,1v38.949C9.678,47.342,9.23,47.789,8.678,47.789z
			"/>
		<path d="M39.32,47.789c-0.553,0-1-0.447-1-1V7.84c0-0.552,0.447-1,1-1s1,0.448,1,1v38.949
			C40.32,47.342,39.873,47.789,39.32,47.789z"/>
	</g>
	<g>
		<path d="M22.793,8.499c-0.055,0-0.111-0.004-0.167-0.014c-0.989-0.167-5.987-1.124-7.296-3.577
			c-0.417-0.78-0.437-1.636-0.059-2.476c0.73-1.624,2.089-2.539,3.623-2.424c2.474,0.17,4.678,2.753,5.896,6.908
			c0.155,0.53-0.148,1.085-0.679,1.241c-0.191,0.057-0.387,0.051-0.565,0C23.359,8.37,23.086,8.499,22.793,8.499z M18.654,2
			c-0.864,0-1.346,0.777-1.56,1.252c-0.153,0.341-0.091,0.544-0.001,0.713c0.584,1.096,3.388,2.058,5.432,2.466
			c-1.08-2.945-2.624-4.35-3.77-4.429C18.721,2.001,18.687,2,18.654,2z"/>
		<path d="M25.207,8.499c-0.294,0-0.566-0.129-0.752-0.342c-0.178,0.054-0.375,0.059-0.566,0.001
			c-0.53-0.155-0.834-0.711-0.678-1.241c1.218-4.155,3.422-6.738,5.895-6.908c1.532-0.11,2.892,0.8,3.623,2.423
			c0.378,0.84,0.358,1.696-0.059,2.477c-1.309,2.452-6.307,3.409-7.295,3.576C25.318,8.495,25.262,8.499,25.207,8.499z M29.345,2
			c-0.033,0-0.067,0.001-0.102,0.003c-1.146,0.079-2.689,1.484-3.77,4.429c2.044-0.409,4.848-1.37,5.433-2.467
			c0.09-0.169,0.152-0.372-0.002-0.713C30.69,2.777,30.208,2,29.345,2z"/>
	</g>
</g>
</svg>
