<?xml version="1.0" encoding="utf-8"?>
<!-- Generator: Adobe Illustrator 16.0.0, SVG Export Plug-In . SVG Version: 6.00 Build 0)  -->
<!DOCTYPE svg PUBLIC "-//W3C//DTD SVG 1.1//EN" "http://www.w3.org/Graphics/SVG/1.1/DTD/svg11.dtd">
<svg version="1.1" id="Layer_1" xmlns="http://www.w3.org/2000/svg" xmlns:xlink="http://www.w3.org/1999/xlink" x="0px" y="0px"
	 width="48px" height="48px" viewBox="0 0 48 48" enable-background="new 0 0 48 48" xml:space="preserve">
<g>
	<path d="M32.71,33.992H20.232c-7.535,0-13.665-5.689-13.665-12.682c0-0.552,0.448-1,1-1h37.808c0.553,0,1,0.448,1,1
		C46.375,28.303,40.245,33.992,32.71,33.992z M8.618,22.31c0.552,5.423,5.55,9.682,11.614,9.682H32.71
		c6.063,0,11.062-4.259,11.614-9.682H8.618z"/>
	<path d="M45.28,22.135c-0.034,0-0.068-0.001-0.104-0.005c-0.55-0.057-0.949-0.548-0.893-1.097c0.061-0.581,0.091-1.175,0.091-1.764
		C44.375,9.747,36.629,2,27.107,2c-0.553,0-1-0.448-1-1s0.447-1,1-1c10.624,0,19.268,8.644,19.268,19.268
		c0,0.658-0.034,1.32-0.101,1.969C46.221,21.752,45.786,22.135,45.28,22.135z"/>
	<path d="M27.107,22.311c-0.113,0-0.228-0.019-0.339-0.059c-0.396-0.143-0.661-0.519-0.661-0.941V1c0-0.552,0.447-1,1-1s1,0.448,1,1
		v17.53L38.943,5.414c0.351-0.426,0.98-0.487,1.407-0.134c0.426,0.352,0.486,0.982,0.134,1.408l-12.606,15.26
		C27.685,22.183,27.399,22.311,27.107,22.311z"/>
	<path d="M7.567,21.292c-0.388,0-0.757-0.228-0.92-0.607L1.706,9.138C1.488,8.63,1.724,8.042,2.231,7.825
		C2.74,7.608,3.327,7.843,3.544,8.351l4.942,11.548c0.217,0.508-0.018,1.096-0.526,1.313C7.832,21.266,7.699,21.292,7.567,21.292z"
		/>
	<path d="M18.263,47.999c-3.337,0-6.052-2.715-6.052-6.052c0-3.338,2.715-6.053,6.052-6.053c3.337,0,6.052,2.715,6.052,6.053
		C24.315,45.284,21.6,47.999,18.263,47.999z M18.263,37.895c-2.234,0-4.052,1.818-4.052,4.053s1.818,4.052,4.052,4.052
		s4.052-1.817,4.052-4.052S20.498,37.895,18.263,37.895z"/>
	<path d="M33.411,48c-3.338,0-6.054-2.715-6.054-6.053s2.716-6.053,6.054-6.053s6.053,2.715,6.053,6.053S36.749,48,33.411,48z
		 M33.411,37.895c-2.235,0-4.054,1.818-4.054,4.053S31.176,46,33.411,46c2.234,0,4.053-1.818,4.053-4.053
		S35.646,37.895,33.411,37.895z"/>
</g>
</svg>
