<?xml version="1.0" encoding="utf-8"?>
<!-- Generator: Adobe Illustrator 18.0.0, SVG Export Plug-In . SVG Version: 6.00 Build 0)  -->
<!DOCTYPE svg PUBLIC "-//W3C//DTD SVG 1.1//EN" "http://www.w3.org/Graphics/SVG/1.1/DTD/svg11.dtd">
<svg version="1.1" id="Layer_1" xmlns="http://www.w3.org/2000/svg" xmlns:xlink="http://www.w3.org/1999/xlink" x="0px" y="0px"
	 viewBox="0 0 48 48" enable-background="new 0 0 48 48" xml:space="preserve">
<g>
	<path d="M13.2,39.3h-2V9.8C11.2,4,8,2,5.1,2C3,2,2,3.6,2,5c0,1.2,0.4,3.2,1.9,3.2c2.2,0,2.4-1.7,2.4-2.4h2c0,2.2-1.4,4.4-4.4,4.4
		C1.6,10.2,0,8.1,0,5c0-2.5,1.8-5,5.1-5c3.7,0,8.1,2.6,8.1,9.8V39.3z"/>
	<path d="M36.8,39.4h-2V9.9c0-7.2,4.4-9.8,8.1-9.8c3.3,0,5.1,2.6,5.1,5c0,3-1.6,5.1-3.9,5.1c-3,0-4.4-2.2-4.4-4.4h2
		c0,0.7,0.2,2.4,2.4,2.4c1.5,0,1.9-2,1.9-3.1c0-1.5-1.1-3-3.1-3c-2.9,0-6.1,2-6.1,7.8V39.4z"/>
	<rect x="5.5" y="0.1" width="37" height="2"/>
	<path d="M21,47h-2V11.4c0-1.8-1.2-3.1-2.9-3.1c-1.5,0-2.9,1.4-2.9,3.1V47h-2V11.4c0-2.8,2.2-5.1,4.9-5.1c2.7,0,4.9,2.2,4.9,5.1V47z
		"/>
	<path d="M28.9,47h-2V11.4c0-1.8-1.2-3.1-2.9-3.1c-1.5,0-2.9,1.4-2.9,3.1V47h-2V11.4c0-2.8,2.2-5.1,4.9-5.1c2.7,0,4.9,2.2,4.9,5.1
		V47z"/>
	<path d="M36.7,47h-2V11.4c0-1.8-1.2-3.1-2.9-3.1c-1.5,0-2.9,1.4-2.9,3.1V47h-2V11.4c0-2.8,2.2-5.1,4.9-5.1c2.7,0,4.9,2.2,4.9,5.1
		V47z"/>
</g>
</svg>
