<?xml version="1.0" encoding="utf-8"?>
<!-- Generator: Adobe Illustrator 16.0.0, SVG Export Plug-In . SVG Version: 6.00 Build 0)  -->
<!DOCTYPE svg PUBLIC "-//W3C//DTD SVG 1.1//EN" "http://www.w3.org/Graphics/SVG/1.1/DTD/svg11.dtd">
<svg version="1.1" id="Layer_1" xmlns="http://www.w3.org/2000/svg" xmlns:xlink="http://www.w3.org/1999/xlink" x="0px" y="0px"
	 width="48px" height="48px" viewBox="0 0 48 48" enable-background="new 0 0 48 48" xml:space="preserve">
<g>
	<path d="M20.565,45.527c0,0-0.001,0-0.001,0c-10.745-0.001-18.054-6.406-18.36-6.68c-3.673-3.762-1.661-6.745-1.573-6.87
		c0.847-1.029,2.398-1.519,4.659-1.519c1.068,0,1.909,0.111,1.944,0.116c1.98,0.287,3.898,0.433,5.709,0.433
		c15.226-0.001,20.792-10.182,22.888-14.014c0.457-0.836,0.732-1.34,1.032-1.638c0.69-0.686,1.38-0.959,1.884-1.158
		c0.674-0.268,0.834-0.331,0.981-1.24c0.273-1.676-1.018-4.544-1.538-5.508c-0.07-0.13-0.11-0.274-0.119-0.422l-0.146-2.719
		c-0.022-0.435,0.238-0.834,0.646-0.989l2.071-0.783c0.161-0.061,0.334-0.079,0.506-0.053l2.8,0.431
		c0.081,0.013,0.161,0.035,0.237,0.067l1.772,0.75c0.405,0.171,0.65,0.587,0.605,1.024l-0.176,1.689
		c-0.024,0.16-0.431,2.621-1.554,4.764c-0.358,0.683-0.424,1.05-0.432,1.203l3.063,2.236c0.22,0.16,0.364,0.403,0.401,0.673
		c0.025,0.186,2.329,18.697-14.756,27.164C29.039,44.504,24.818,45.527,20.565,45.527z M2.221,33.188
		c0.008,0-1.056,1.735,1.364,4.216c0.019,0.013,7.019,6.123,16.979,6.124c0,0,0.001,0,0.001,0c3.942,0,7.864-0.954,11.658-2.834
		C46.665,33.537,46.143,18.658,45.926,16l-2.782-2.03c-0.188-0.12-0.474-0.368-0.632-0.827c-0.254-0.736-0.074-1.672,0.551-2.863
		c0.969-1.848,1.339-4.076,1.343-4.099l0.093-0.896l-0.978-0.414L41.104,4.5l-1.141,0.431l0.095,1.771
		c0.467,0.908,2.034,4.188,1.646,6.576c-0.305,1.876-1.186,2.368-2.22,2.778c-0.436,0.172-0.812,0.321-1.21,0.718
		c-0.11,0.124-0.417,0.684-0.688,1.179c-2.251,4.117-8.23,15.054-24.643,15.055c-1.907,0-3.921-0.152-5.986-0.452l0,0
		c0,0-0.742-0.097-1.667-0.097C3.745,32.459,2.598,32.731,2.221,33.188L2.221,33.188z"/>
</g>
</svg>
