<?xml version="1.0" encoding="utf-8"?>
<!-- Generator: Adobe Illustrator 18.0.0, SVG Export Plug-In . SVG Version: 6.00 Build 0)  -->
<!DOCTYPE svg PUBLIC "-//W3C//DTD SVG 1.1//EN" "http://www.w3.org/Graphics/SVG/1.1/DTD/svg11.dtd">
<svg version="1.1" id="Layer_1" xmlns="http://www.w3.org/2000/svg" xmlns:xlink="http://www.w3.org/1999/xlink" x="0px" y="0px"
	 viewBox="0 0 48 48" enable-background="new 0 0 48 48" xml:space="preserve">
<g>
	<path fill="#010101" d="M12.5,48.1c-0.6,0-1.1-0.3-1.5-0.7L0.6,36.9C0.2,36.5,0,36.1,0,35.6c0-0.5,0.2-1,0.5-1.4l0.1-0.1l5.3-4
		c0.7-0.6,2-0.5,2.6,0.3l9,9c0.8,0.6,1,1.6,0.5,2.5l-0.1,0.2l-4,5.3C13.6,47.8,13.1,48.1,12.5,48.1z M2,35.5L12.5,46l3.7-4.9
		l-0.1-0.1L7,31.8L2,35.5z"/>
	<path fill="#010101" d="M40.9,18.2c-0.6,0-1.1-0.3-1.5-0.7l-9-9c-0.7-0.6-0.9-1.5-0.4-2.4l0.1-0.2l4-5.3c0.7-0.9,2.1-0.9,2.8,0
		L47.3,11c0.4,0.4,0.6,0.8,0.6,1.3c0,0.5-0.2,1-0.5,1.4l-0.1,0.1l-5.3,4C41.7,18,41.4,18.2,40.9,18.2z M31.8,7l9.1,9.1l4.9-3.7
		L35.5,2L31.8,7z"/>
	<g>
		<rect x="18.3" y="2.8" transform="matrix(0.7071 0.7071 -0.7071 0.7071 19.3 -7.9943)" fill="#010101" width="2" height="33.1"/>
		<rect x="23" y="7.5" transform="matrix(0.7071 0.7071 -0.7071 0.7071 24 -9.9411)" fill="#010101" width="2" height="33.1"/>
		
			<rect x="27.7" y="12.2" transform="matrix(0.7071 0.7071 -0.7071 0.7071 28.7002 -11.888)" fill="#010101" width="2" height="33.1"/>
	</g>
</g>
</svg>
