<?xml version="1.0" encoding="utf-8"?>
<!-- Generator: Adobe Illustrator 18.0.0, SVG Export Plug-In . SVG Version: 6.00 Build 0)  -->
<!DOCTYPE svg PUBLIC "-//W3C//DTD SVG 1.1//EN" "http://www.w3.org/Graphics/SVG/1.1/DTD/svg11.dtd">
<svg version="1.1" id="Layer_1" xmlns="http://www.w3.org/2000/svg" xmlns:xlink="http://www.w3.org/1999/xlink" x="0px" y="0px"
	 viewBox="0 0 48 48" enable-background="new 0 0 48 48" xml:space="preserve">
<g>
	<path fill="#010101" d="M24,42.2c-13.1,0-23.9-9-24-20.1l2,0c0.1,10,10,18.1,22,18.1c12,0,21.9-8.1,22-18.1l2,0
		C47.9,33.2,37.1,42.2,24,42.2z"/>
	<path fill="#010101" d="M24,31.1c-11.6,0-24-3.2-24-9.2c0-6,12.4-9.2,24-9.2s24,3.2,24,9.2C48,27.9,35.6,31.1,24,31.1z M24,14.7
		c-13,0-22,3.8-22,7.2c0,3.4,9,7.2,22,7.2s22-3.8,22-7.2C46,18.5,37,14.7,24,14.7z"/>
	<g>
		
			<rect x="8.5" y="34.9" transform="matrix(0.8733 0.4872 -0.4872 0.8733 21.3547 0.5863)" fill="#010101" width="2" height="12.9"/>
		
			<rect x="32" y="40.4" transform="matrix(0.4869 0.8734 -0.8734 0.4869 55.843 -12.3685)" fill="#010101" width="12.9" height="2"/>
	</g>
	<rect x="23" y="41.2" fill="#010101" width="2" height="2.6"/>
	
		<rect x="25.1" y="14.9" transform="matrix(0.1524 0.9883 -0.9883 0.1524 38.1346 -12.0635)" fill="#010101" width="2" height="2.6"/>
	
		<rect x="15.6" y="12.7" transform="matrix(0.1612 0.9869 -0.9869 0.1612 31.3936 -1.5355)" fill="#010101" width="2" height="9.9"/>
	<rect x="7" y="18.2" transform="matrix(0.1172 0.9931 -0.9931 0.1172 26.0752 8.8673)" fill="#010101" width="2" height="1.7"/>
	<rect x="31.3" y="15.7" transform="matrix(0.1465 0.9892 -0.9892 0.1465 45.77 -16.2467)" fill="#010101" width="2" height="5.5"/>
	<rect x="19" y="16.1" transform="matrix(0.1646 0.9864 -0.9864 0.1646 36.8311 -2.6844)" fill="#010101" width="2" height="8.5"/>
	<rect x="7.4" y="19.7" transform="matrix(0.1548 0.9879 -0.9879 0.1548 29.0884 10.5986)" fill="#010101" width="2" height="5.2"/>
	<rect x="11.7" y="21.6" transform="matrix(0.1568 0.9876 -0.9876 0.1568 35.1594 8.4178)" fill="#010101" width="2" height="6.4"/>
	
		<rect x="27.3" y="12.6" transform="matrix(0.1601 0.9871 -0.9871 0.1601 48.9322 -6.6095)" fill="#010101" width="2" height="25.6"/>
	<g>
		<path fill="#010101" d="M22.7,26.3c-8.8,0-14-4.6-14-4.7c-1-1-1.1-2.6-0.1-3.5c0.9-0.9,2.5-1,3.6-0.2l0.1,0.1
			c0,0,3.8,3.2,10.4,3.2c1.2,0,2.4-0.1,3.7-0.3c0.2,0,0.3,0,0.4,0c1.3,0,2.4,0.8,2.6,2c0.2,0.6,0,1.3-0.4,1.9
			c-0.4,0.6-1.1,1-1.8,1.1C25.9,26.1,24.3,26.3,22.7,26.3z M10.5,19.3c-0.1,0-0.3,0-0.5,0.2c-0.2,0.2,0,0.5,0.1,0.7
			c0,0,4.6,4.1,12.6,4.1c1.4,0,2.9-0.2,4.2-0.5c0.2,0,0.4-0.1,0.5-0.2c0.1-0.1,0.1-0.2,0.1-0.3c-0.1-0.3-0.4-0.5-0.8-0.4
			c-1.3,0.2-2.6,0.3-3.9,0.3c-6.8,0-10.9-3.1-11.7-3.7C10.9,19.4,10.7,19.3,10.5,19.3z"/>
	</g>
	<g>
		<path fill="#010101" d="M35.4,23.7c-8.8,0-14-4.6-14-4.7c-0.5-0.5-0.7-1.1-0.8-1.7c0-0.7,0.2-1.3,0.7-1.8c0.9-0.9,2.5-1,3.6-0.2
			l0.1,0.1c0,0,3.8,3.2,10.4,3.2c1.2,0,2.4-0.1,3.7-0.3c0.2,0,0.3,0,0.4,0c1.3,0,2.4,0.8,2.6,2c0.2,0.6,0,1.3-0.4,1.9
			c-0.4,0.6-1,1-1.7,1.1C38.6,23.5,37.1,23.7,35.4,23.7z M23.2,16.7c-0.1,0-0.3,0-0.5,0.2c-0.1,0.1-0.1,0.2-0.1,0.3
			c0,0.1,0.1,0.3,0.2,0.4c0,0,4.6,4.1,12.6,4.1c1.5,0,2.9-0.2,4.2-0.5l0.1,0c0.2,0,0.3-0.1,0.4-0.2c0.1-0.1,0.1-0.2,0.1-0.3
			c-0.1-0.3-0.4-0.5-0.8-0.4c-1.3,0.2-2.6,0.3-3.9,0.3c-6.8,0-10.9-3.1-11.7-3.7C23.6,16.8,23.4,16.7,23.2,16.7z"/>
	</g>
	<path fill="#010101" d="M23.2,11.5c-2.1-1.9-2.5-4.4-1.8-5.6c0.3-0.4,0.6-0.7,0.9-1c0.4-0.4,0.7-0.7,0.9-1.1c0.2-0.3,0.1-0.7,0-0.9
		C23,2.5,22.6,2.1,22,2L22.6,0c1.1,0.4,2,1.1,2.4,2.1C25.4,3,25.4,4,25,4.7c-0.3,0.6-0.8,1.1-1.2,1.6c-0.2,0.3-0.5,0.5-0.7,0.8
		c-0.1,0.2,0,1.6,1.5,3L23.2,11.5z"/>
	<path fill="#010101" d="M28.1,9.1c-0.7-0.5-0.8-1.2-1-1.7c-0.1-0.5-0.3-1.3,0.1-2.1c0.2-0.3,0.4-0.5,0.6-0.6c0,0,0.1-0.1,0.1-0.1
		c0.2-0.2,0.2-0.4,0.1-0.6l1.8-0.9c0.5,1,0.3,2.2-0.5,3c-0.1,0.1-0.2,0.2-0.3,0.3c0,0,0,0,0,0c0,0.1,0,0.2,0.1,0.6
		c0.1,0.3,0.1,0.6,0.2,0.6L28.1,9.1z"/>
</g>
</svg>
