<?xml version="1.0" encoding="utf-8"?>
<!-- Generator: Adobe Illustrator 18.0.0, SVG Export Plug-In . SVG Version: 6.00 Build 0)  -->
<!DOCTYPE svg PUBLIC "-//W3C//DTD SVG 1.1//EN" "http://www.w3.org/Graphics/SVG/1.1/DTD/svg11.dtd">
<svg version="1.1" id="Layer_1" xmlns="http://www.w3.org/2000/svg" xmlns:xlink="http://www.w3.org/1999/xlink" x="0px" y="0px"
	 viewBox="0 0 48 48" enable-background="new 0 0 48 48" xml:space="preserve">
<g>
	<path fill="#010101" d="M48,31.3H0V0h48V31.3z M2,29.3h44V2H2V29.3z"/>
	<path fill="#010101" d="M33.8,31.3H14.3V16.6h19.5V31.3z M16.3,29.3h15.5V18.6H16.3V29.3z"/>
	<path fill="#010101" d="M32.7,41.6c-0.2,0-0.3,0-0.5-0.1l-17.4-9.4c-0.5-0.3-0.7-0.9-0.4-1.4c0.3-0.5,0.9-0.7,1.4-0.4l17.4,9.4
		c0.5,0.3,0.7,0.9,0.4,1.4C33.4,41.4,33.1,41.6,32.7,41.6z"/>
	<path fill="#010101" d="M32.7,47.4c-0.2,0-0.3,0-0.5-0.1l-17.4-9.4c-0.5-0.3-0.7-0.9-0.4-1.4c0.3-0.5,0.9-0.7,1.4-0.4l17.4,9.4
		c0.5,0.3,0.7,0.9,0.4,1.4C33.4,47.2,33.1,47.4,32.7,47.4z"/>
	<path fill="#010101" d="M22.9,47.9c-0.2,0-0.3,0-0.5-0.1l-7.6-4.1c-0.5-0.3-0.7-0.9-0.4-1.4s0.9-0.7,1.4-0.4l7.6,4.1
		c0.5,0.3,0.7,0.9,0.4,1.4C23.6,47.7,23.3,47.9,22.9,47.9z"/>
	<path fill="#010101" d="M32.7,35.8c-0.2,0-0.3,0-0.5-0.1l-8.3-4.5c-0.5-0.3-0.7-0.9-0.4-1.4c0.3-0.5,0.9-0.7,1.4-0.4l8.3,4.5
		c0.5,0.3,0.7,0.9,0.4,1.4C33.4,35.6,33.1,35.8,32.7,35.8z"/>
	<path fill="#010101" d="M15.3,41.6c-0.4,0-0.7-0.2-0.9-0.5c-0.3-0.5-0.1-1.1,0.4-1.4l17.4-9.4c0.5-0.3,1.1-0.1,1.4,0.4
		c0.3,0.5,0.1,1.1-0.4,1.4l-17.4,9.4C15.6,41.6,15.5,41.6,15.3,41.6z"/>
	<path fill="#010101" d="M15.3,47.4c-0.4,0-0.7-0.2-0.9-0.5c-0.3-0.5-0.1-1.1,0.4-1.4l17.4-9.4c0.5-0.3,1.1-0.1,1.4,0.4
		c0.3,0.5,0.1,1.1-0.4,1.4l-17.4,9.4C15.6,47.4,15.5,47.4,15.3,47.4z"/>
	<path fill="#010101" d="M24.9,48c-0.4,0-0.7-0.2-0.9-0.5c-0.3-0.5-0.1-1.1,0.4-1.4l7.8-4.2c0.5-0.3,1.1-0.1,1.4,0.4
		c0.3,0.5,0.1,1.1-0.4,1.4l-7.8,4.2C25.2,48,25.1,48,24.9,48z"/>
	<path fill="#010101" d="M15.3,35.8c-0.4,0-0.7-0.2-0.9-0.5c-0.3-0.5-0.1-1.1,0.4-1.4l8.2-4.5c0.5-0.3,1.1-0.1,1.4,0.4
		c0.3,0.5,0.1,1.1-0.4,1.4l-8.2,4.5C15.6,35.8,15.5,35.8,15.3,35.8z"/>
</g>
</svg>
