<?xml version="1.0" encoding="utf-8"?>
<!-- Generator: Adobe Illustrator 18.0.0, SVG Export Plug-In . SVG Version: 6.00 Build 0)  -->
<!DOCTYPE svg PUBLIC "-//W3C//DTD SVG 1.1//EN" "http://www.w3.org/Graphics/SVG/1.1/DTD/svg11.dtd">
<svg version="1.1" id="Layer_1" xmlns="http://www.w3.org/2000/svg" xmlns:xlink="http://www.w3.org/1999/xlink" x="0px" y="0px"
	 viewBox="0 0 48 48" enable-background="new 0 0 48 48" xml:space="preserve">
<g>
	<path fill="#010101" d="M24,48C10.8,48,0,37.2,0,24S10.8,0,24,0s24,10.8,24,24S37.2,48,24,48z M24,2C11.9,2,2,11.9,2,24
		s9.9,22,22,22s22-9.9,22-22S36.1,2,24,2z"/>
	<rect x="1" y="23" fill="#010101" width="46" height="2"/>
	<rect x="23" y="1" fill="#010101" width="2" height="46"/>
	<g>
		<path fill="#010101" d="M23.7,19.1c-6.4,0-12.4-3.1-18-9.3l1.5-1.3c5.3,5.8,11,8.8,16.9,8.6c9.7-0.2,16.9-8.5,16.9-8.6l1.5,1.3
			c-0.3,0.4-7.8,9.1-18.4,9.3C23.9,19.1,23.8,19.1,23.7,19.1z"/>
		<path fill="#010101" d="M40.9,39.6c-5.3-5.8-10.9-8.8-16.9-8.6c-9.7,0.2-16.9,8.5-16.9,8.6l-1.5-1.3c0.3-0.4,7.8-9.1,18.4-9.3
			c6.5-0.1,12.7,3,18.4,9.3L40.9,39.6z"/>
	</g>
</g>
</svg>
