<?xml version="1.0" encoding="utf-8"?>
<!-- Generator: Adobe Illustrator 18.0.0, SVG Export Plug-In . SVG Version: 6.00 Build 0)  -->
<!DOCTYPE svg PUBLIC "-//W3C//DTD SVG 1.1//EN" "http://www.w3.org/Graphics/SVG/1.1/DTD/svg11.dtd">
<svg version="1.1" id="Layer_1" xmlns="http://www.w3.org/2000/svg" xmlns:xlink="http://www.w3.org/1999/xlink" x="0px" y="0px"
	 viewBox="0 0 48 48" enable-background="new 0 0 48 48" xml:space="preserve">
<g>
	<path fill="#010101" d="M24,48C10.8,48,0,37.2,0,24S10.8,0,24,0s24,10.8,24,24S37.2,48,24,48z M24,2C11.9,2,2,11.9,2,24
		s9.9,22,22,22s22-9.9,22-22S36.1,2,24,2z"/>
	<path fill="#010101" d="M2.1,21l-1.5-1.3C13.6,4.4,32,7.7,32.2,7.7c0.2,0,6.9,0.6,12.5,4.2l-1.1,1.7C38.4,10.3,32,9.7,31.9,9.7
		C31.6,9.6,14.3,6.6,2.1,21z"/>
	<path fill="#010101" d="M37.4,43.7l-1.9-0.7C36,41.8,46.3,15,21.2,2l0.9-1.8C48.9,14.1,37.5,43.4,37.4,43.7z"/>
	<path fill="#010101" d="M45.8,27.2C45.6,26.3,39,5.7,13.5,4.5l0.1-2c27,1.2,34.1,23.9,34.2,24.1L45.8,27.2z"/>
	<path fill="#010101" d="M10.3,42.1l-1.9-0.7c10.1-29,27.6-36.9,28.3-37.2l0.8,1.8C37.4,6.2,20.2,14,10.3,42.1z"/>
	<path fill="#010101" d="M22.6,47.4l-1.8-1c0.1-0.2,13.2-24.7,9.4-44l2-0.4C36.1,22,23.1,46.4,22.6,47.4z"/>
</g>
</svg>
