<?xml version="1.0" encoding="utf-8"?>
<!-- Generator: Adobe Illustrator 16.0.0, SVG Export Plug-In . SVG Version: 6.00 Build 0)  -->
<!DOCTYPE svg PUBLIC "-//W3C//DTD SVG 1.1//EN" "http://www.w3.org/Graphics/SVG/1.1/DTD/svg11.dtd">
<svg version="1.1" id="Layer_1" xmlns="http://www.w3.org/2000/svg" xmlns:xlink="http://www.w3.org/1999/xlink" x="0px" y="0px"
	 width="48px" height="48px" viewBox="0 0 48 48" enable-background="new 0 0 48 48" xml:space="preserve">
<g>
	<path d="M33.273,48H21.301c-0.266,0-0.52-0.105-0.708-0.294c-0.188-0.188-0.293-0.442-0.292-0.708l0.05-27.973
		c-0.051-0.571-0.374-5.016,1.511-8.254c1.753-3.013,3.861-9.989,3.881-10.059c0.099-0.326,0.355-0.58,0.683-0.673
		s0.679-0.014,0.936,0.21l2.94,2.583l4.901,2.155c0.229,0.101,0.412,0.284,0.514,0.513l7.949,18.098
		c0.121,0.277,0.111,0.595-0.029,0.864c-0.14,0.269-0.394,0.459-0.69,0.519l-6.418,1.284c-0.418,0.09-0.841-0.106-1.058-0.473
		l-2.59-4.39l1.359,5.143c0.022,0.084,0.033,0.17,0.033,0.256V47C34.273,47.553,33.826,48,33.273,48z M22.303,46h9.971V26.931
		l-3.176-12.015c-0.128-0.482,0.12-0.986,0.581-1.178c0.464-0.192,0.993-0.016,1.247,0.415l5.906,10.012l4.502-0.9L34.042,6.661
		L29.355,4.6c-0.094-0.042-0.181-0.097-0.258-0.164l-1.902-1.67c-0.738,2.289-2.234,6.657-3.605,9.012
		c-1.652,2.838-1.249,7.06-1.244,7.102c0.003,0.034,0.005,0.068,0.005,0.102L22.303,46z"/>
	<path d="M21.311,19.289c-0.249,0-0.497-0.092-0.691-0.277c-0.399-0.381-0.414-1.015-0.032-1.414
		C28.165,9.666,28.756,3.66,28.762,3.6c0.047-0.55,0.52-0.961,1.081-0.912c0.55,0.047,0.958,0.531,0.911,1.082
		c-0.022,0.272-0.661,6.772-8.72,15.21C21.838,19.186,21.575,19.289,21.311,19.289z"/>
	<path d="M26.699,48h-11.97c-0.552,0-1-0.447-1-1V26.801c0-0.086,0.011-0.172,0.033-0.256l1.36-5.146l-2.592,4.393
		c-0.216,0.366-0.636,0.561-1.058,0.473L5.054,24.98c-0.297-0.06-0.551-0.25-0.691-0.519c-0.14-0.269-0.15-0.586-0.028-0.864
		L12.284,5.5c0.101-0.229,0.284-0.412,0.513-0.513l4.901-2.156l2.942-2.582c0.255-0.225,0.607-0.304,0.936-0.21
		c0.327,0.094,0.584,0.348,0.682,0.674c0.013,0.042,1.276,4.233,2.665,7.528c0.214,0.509-0.024,1.095-0.534,1.31
		c-0.51,0.217-1.096-0.024-1.31-0.533c-0.923-2.192-1.773-4.701-2.273-6.252l-1.903,1.671c-0.077,0.067-0.164,0.123-0.257,0.164
		l-4.687,2.061L6.666,23.263l4.503,0.901l5.907-10.012c0.253-0.43,0.787-0.607,1.247-0.415c0.461,0.192,0.709,0.695,0.582,1.178
		l-3.175,12.015V46h10.97c0.553,0,1,0.447,1,1S27.252,48,26.699,48z"/>
	<path d="M21.903,13.315c-0.327,0-0.647-0.16-0.839-0.454c-3.46-5.312-3.805-8.938-3.818-9.09c-0.047-0.55,0.361-1.035,0.911-1.082
		c0.563-0.041,1.033,0.359,1.082,0.908c0.007,0.073,0.365,3.357,3.501,8.172c0.301,0.463,0.171,1.083-0.292,1.384
		C22.279,13.263,22.09,13.315,21.903,13.315z"/>
	<path d="M31.189,21.263H16.941c-0.552,0-1-0.448-1-1s0.448-1,1-1h14.249c0.553,0,1,0.448,1,1S31.742,21.263,31.189,21.263z"/>
	<path d="M24.419,28.895c-0.552,0-1-0.447-1-1v-7.631c0-0.552,0.448-1,1-1c0.553,0,1,0.448,1,1v7.631
		C25.419,28.447,24.972,28.895,24.419,28.895z"/>
	<path d="M28.076,37.955c-0.553,0-1-0.447-1-1V20.509c0-0.552,0.447-1,1-1s1,0.448,1,1v16.446
		C29.076,37.508,28.629,37.955,28.076,37.955z"/>
</g>
</svg>
