<?xml version="1.0" encoding="utf-8"?>
<!-- Generator: Adobe Illustrator 16.0.0, SVG Export Plug-In . SVG Version: 6.00 Build 0)  -->
<!DOCTYPE svg PUBLIC "-//W3C//DTD SVG 1.1//EN" "http://www.w3.org/Graphics/SVG/1.1/DTD/svg11.dtd">
<svg version="1.1" id="Layer_1" xmlns="http://www.w3.org/2000/svg" xmlns:xlink="http://www.w3.org/1999/xlink" x="0px" y="0px"
	 width="48px" height="48px" viewBox="0 0 48 48" enable-background="new 0 0 48 48" xml:space="preserve">
<g>
	<path d="M24.004,28.92c-9.291,0-19.166-2.507-19.166-7.154s9.875-7.154,19.166-7.154s19.166,2.507,19.166,7.154
		S33.295,28.92,24.004,28.92z M24.004,16.612c-10.635,0-17.166,3.002-17.166,5.154c0,2.152,6.531,5.154,17.166,5.154
		c10.636,0,17.166-3.002,17.166-5.154C41.17,19.614,34.64,16.612,24.004,16.612z"/>
	<path d="M24.004,40.471c-10.569,0-19.167-8.391-19.167-18.704c0-0.552,0.448-1,1-1s1,0.448,1,1c0,9.21,7.701,16.704,17.167,16.704
		S41.17,30.978,41.17,21.767c0-0.552,0.447-1,1-1s1,0.448,1,1C43.17,32.08,34.572,40.471,24.004,40.471z"/>
	<g>
		<path d="M15.167,44.113c-0.134,0-0.271-0.027-0.402-0.085c-0.505-0.222-0.735-0.813-0.513-1.317l1.602-3.643
			c0.16-0.363,0.519-0.598,0.916-0.598h8.301c0.553,0,1,0.447,1,1s-0.447,1-1,1h-7.648l-1.339,3.045
			C15.917,43.891,15.551,44.113,15.167,44.113z"/>
		<path d="M32.842,44.113c-0.385,0-0.752-0.223-0.916-0.598l-1.34-3.045h-7.649c-0.552,0-1-0.447-1-1s0.448-1,1-1h8.301
			c0.396,0,0.756,0.234,0.915,0.598l1.603,3.643c0.223,0.505-0.007,1.096-0.513,1.317C33.112,44.086,32.976,44.113,32.842,44.113z"
			/>
	</g>
	<g>
		<path d="M24.004,25.407c-0.552,0-1-0.447-1-1v-5.281c0-0.552,0.448-1,1-1c0.553,0,1,0.448,1,1v5.281
			C25.004,24.96,24.557,25.407,24.004,25.407z"/>
		<path d="M20.104,25.407c-0.552,0-1-0.447-1-1v-5.281c0-0.552,0.448-1,1-1s1,0.448,1,1v5.281
			C21.104,24.96,20.656,25.407,20.104,25.407z"/>
		<path d="M16.204,24.927c-0.552,0-1-0.448-1-1v-4.321c0-0.552,0.448-1,1-1s1,0.448,1,1v4.321
			C17.204,24.479,16.756,24.927,16.204,24.927z"/>
		<path d="M12.304,24.36c-0.552,0-1-0.448-1-1v-3.187c0-0.552,0.448-1,1-1s1,0.448,1,1v3.187
			C13.304,23.912,12.856,24.36,12.304,24.36z"/>
		<path d="M27.902,25.407c-0.553,0-1-0.447-1-1v-5.281c0-0.552,0.447-1,1-1s1,0.448,1,1v5.281
			C28.902,24.96,28.455,25.407,27.902,25.407z"/>
		<path d="M31.805,24.927c-0.553,0-1-0.448-1-1v-4.321c0-0.552,0.447-1,1-1s1,0.448,1,1v4.321
			C32.805,24.479,32.357,24.927,31.805,24.927z"/>
		<path d="M35.704,24.36c-0.553,0-1-0.448-1-1v-3.187c0-0.552,0.447-1,1-1s1,0.448,1,1v3.187
			C36.704,23.912,36.257,24.36,35.704,24.36z"/>
	</g>
	<g>
		<path d="M27.889,12.825c-0.553,0-1-0.448-1-1V7.41c0-0.552,0.447-1,1-1s1,0.448,1,1v4.415
			C28.889,12.377,28.441,12.825,27.889,12.825z"/>
		<path d="M24.004,12.825c-0.552,0-1-0.448-1-1V4.887c0-0.552,0.448-1,1-1c0.553,0,1,0.448,1,1v6.938
			C25.004,12.377,24.557,12.825,24.004,12.825z"/>
		<path d="M20.119,12.825c-0.552,0-1-0.448-1-1V7.41c0-0.552,0.448-1,1-1s1,0.448,1,1v4.415
			C21.119,12.377,20.671,12.825,20.119,12.825z"/>
	</g>
	<g>
		<path d="M4.824,33.316c-1.818,0-3.646-1.907-4.448-4.637c-0.409-1.392-0.487-2.807-0.22-3.983
			c0.313-1.383,1.065-2.314,2.115-2.623c0.232-0.068,0.474-0.103,0.718-0.103c1.817,0,3.646,1.906,4.448,4.636
			c0.932,3.175,0.117,6.015-1.896,6.606C5.311,33.281,5.069,33.316,4.824,33.316z M2.99,23.971c-0.055,0-0.105,0.007-0.155,0.021
			c-0.314,0.092-0.586,0.521-0.729,1.146c-0.19,0.838-0.121,1.923,0.188,2.978c0.664,2.26,2.026,3.372,2.684,3.178
			c0.657-0.192,1.194-1.895,0.54-4.124C4.906,25.083,3.657,23.971,2.99,23.971z"/>
		<path d="M43.176,33.315c-0.244,0-0.485-0.034-0.717-0.102c-2.013-0.593-2.827-3.434-1.896-6.607
			c0.802-2.729,2.63-4.636,4.448-4.636c0.245,0,0.486,0.035,0.719,0.103c1.05,0.308,1.801,1.239,2.115,2.622
			c0.267,1.177,0.189,2.592-0.219,3.984C46.823,31.409,44.994,33.315,43.176,33.315z M45.011,23.971
			c-0.667,0-1.916,1.111-2.528,3.198c-0.654,2.229-0.117,3.933,0.54,4.126c0.646,0.183,2.021-0.92,2.685-3.179
			c0.309-1.055,0.377-2.141,0.188-2.978c-0.143-0.626-0.415-1.054-0.729-1.146C45.116,23.978,45.065,23.971,45.011,23.971z"/>
	</g>
</g>
</svg>
