<?xml version="1.0" encoding="utf-8"?>
<!-- Generator: Adobe Illustrator 18.0.0, SVG Export Plug-In . SVG Version: 6.00 Build 0)  -->
<!DOCTYPE svg PUBLIC "-//W3C//DTD SVG 1.1//EN" "http://www.w3.org/Graphics/SVG/1.1/DTD/svg11.dtd">
<svg version="1.1" id="Layer_1" xmlns="http://www.w3.org/2000/svg" xmlns:xlink="http://www.w3.org/1999/xlink" x="0px" y="0px"
	 viewBox="0 0 48 48" enable-background="new 0 0 48 48" xml:space="preserve">
<g>
	<path fill="#010101" d="M23.3,19.9c-8.1,0-15.7-1.4-21.5-4L1,15.6l0.3-0.8C4,5.9,12.8,0,23.3,0c10.4,0,19.5,6.1,22.1,14.7l0.2,0.8
		l-0.8,0.4C39,18.5,31.4,19.9,23.3,19.9z M3.4,14.4c5.4,2.2,12.5,3.5,19.9,3.5c7.3,0,14.5-1.3,19.9-3.5C40.5,7.1,32.5,2,23.3,2
		C14.2,2,6.2,7.1,3.4,14.4z"/>
	<path fill="#010101" d="M31.9,18.4C30.9,9.1,27.2,2,23.3,2c-3.9,0-7.6,7.1-8.6,16.4l-2-0.2C13.9,7.3,18.2,0,23.3,0
		c5.1,0,9.4,7.3,10.6,18.2L31.9,18.4z"/>
	<rect x="22.3" y="18.9" fill="#010101" width="2" height="28.1"/>
	<polygon fill="#010101" points="1.7,47.7 0.3,46.3 6.2,39.9 37.3,39.9 42.9,46.3 41.3,47.7 36.3,41.9 7,41.9 	"/>
	
		<rect x="40.9" y="28.6" transform="matrix(0.7071 0.7071 -0.7071 0.7071 37.5868 -19.142)" fill="#010101" width="2" height="14.4"/>
</g>
</svg>
