<?xml version="1.0" encoding="utf-8"?>
<!-- Generator: Adobe Illustrator 18.0.0, SVG Export Plug-In . SVG Version: 6.00 Build 0)  -->
<!DOCTYPE svg PUBLIC "-//W3C//DTD SVG 1.1//EN" "http://www.w3.org/Graphics/SVG/1.1/DTD/svg11.dtd">
<svg version="1.1" id="Layer_1" xmlns="http://www.w3.org/2000/svg" xmlns:xlink="http://www.w3.org/1999/xlink" x="0px" y="0px"
	 viewBox="0 0 48 48" enable-background="new 0 0 48 48" xml:space="preserve">
<g>
	<g>
		<path d="M41.4,37.1c-1,0-2-0.7-3.1-1.5c-0.8-0.5-1.8-1.2-2.4-1.2c-0.3,0-1.3,0.7-1.9,1.1c-1.1,0.8-2.2,1.6-3.3,1.6
			c-1.1,0-2.2-0.8-3.1-1.6c-0.6-0.5-1.4-1.1-1.9-1.1c-0.4,0-1.3,0.7-2,1.1c-1,0.8-2.1,1.5-3.1,1.5c-1.2,0-2.3-0.9-3.2-1.6
			c-0.6-0.5-1.3-1.1-1.7-1.1c-0.7,0-1.4,0.6-2.1,1.2c-0.8,0.7-1.7,1.5-2.8,1.5c-1.5,0-2.3-0.8-2.9-1.5c-0.6-0.7-1.1-1.2-2.3-1.2v-2
			c2.1,0,3.1,1.1,3.8,1.8c0.6,0.6,0.8,0.9,1.4,0.9c0.4,0,1-0.5,1.5-1c0.9-0.8,2-1.7,3.4-1.7c1.1,0,2.1,0.8,3,1.5
			c0.6,0.5,1.4,1.1,1.9,1.1c0.4,0,1.3-0.7,2-1.1c1-0.8,2.1-1.5,3.1-1.5c1.1,0,2.2,0.8,3.1,1.6c0.6,0.5,1.4,1.1,1.9,1.1
			c0.4,0,1.5-0.8,2.1-1.2c1.1-0.8,2.1-1.5,3.1-1.5c1.1,0,2.3,0.8,3.5,1.6c0.7,0.4,1.6,1.1,2,1.1c0.5,0,1.7-0.8,2.5-1.3
			c1.3-0.9,2.2-1.4,3-1.4v2c-0.3,0-1.3,0.7-1.9,1.1C43.7,36.3,42.4,37.1,41.4,37.1z"/>
		<path d="M41.4,42.6c-1,0-2-0.7-3.1-1.5c-0.8-0.5-1.8-1.2-2.4-1.2c-0.3,0-1.3,0.7-1.9,1.1c-1.1,0.8-2.2,1.6-3.3,1.6
			c-1.1,0-2.2-0.8-3.1-1.6c-0.6-0.5-1.4-1.1-1.9-1.1c-0.4,0-1.3,0.7-2,1.1c-1,0.8-2.1,1.5-3.1,1.5c-1.2,0-2.3-0.9-3.2-1.6
			c-0.6-0.5-1.3-1.1-1.7-1.1c-0.7,0-1.4,0.6-2.1,1.2c-0.8,0.7-1.7,1.5-2.8,1.5c-1.5,0-2.3-0.8-2.9-1.5c-0.6-0.7-1.1-1.2-2.3-1.2v-2
			c2.1,0,3.1,1.1,3.8,1.8c0.6,0.6,0.8,0.9,1.4,0.9c0.4,0,1-0.5,1.5-1c0.9-0.8,2-1.7,3.4-1.7c1.1,0,2.1,0.8,3,1.5
			c0.6,0.5,1.4,1.1,1.9,1.1c0.4,0,1.3-0.7,2-1.1c1-0.8,2.1-1.5,3.1-1.5c1.1,0,2.2,0.8,3.1,1.6c0.6,0.5,1.4,1.1,1.9,1.1
			c0.4,0,1.5-0.8,2.1-1.2c1.1-0.8,2.1-1.5,3.1-1.5c1.1,0,2.3,0.8,3.5,1.6c0.7,0.4,1.6,1.1,2,1.1c0.5,0,1.7-0.8,2.5-1.3
			c1.3-0.9,2.2-1.4,3-1.4v2c-0.3,0-1.3,0.7-1.9,1.1C43.7,41.8,42.4,42.6,41.4,42.6z"/>
		<path d="M41.4,48c-1,0-2-0.7-3.1-1.5c-0.8-0.5-1.8-1.2-2.4-1.2c-0.3,0-1.3,0.7-1.9,1.1c-1.1,0.8-2.2,1.6-3.3,1.6
			c-1.1,0-2.2-0.8-3.1-1.6c-0.6-0.5-1.4-1.1-1.9-1.1c-0.4,0-1.3,0.7-2,1.2c-1,0.8-2.1,1.5-3.1,1.5c-1.2,0-2.3-0.9-3.2-1.6
			c-0.6-0.5-1.3-1.1-1.7-1.1c-0.7,0-1.4,0.6-2.1,1.2c-0.8,0.7-1.7,1.5-2.8,1.5c-1.5,0-2.3-0.8-2.9-1.5c-0.6-0.7-1.1-1.2-2.3-1.2v-2
			c2.1,0,3.1,1.1,3.8,1.8c0.6,0.6,0.8,0.9,1.4,0.9c0.4,0,1-0.5,1.5-1c0.9-0.8,2-1.7,3.4-1.7c1.1,0,2.1,0.8,3,1.5
			c0.6,0.5,1.4,1.2,1.9,1.2c0.4,0,1.3-0.7,2-1.2c1-0.8,2.1-1.5,3.1-1.5c1.1,0,2.2,0.8,3.1,1.6c0.6,0.5,1.4,1.1,1.9,1.1
			c0.4,0,1.5-0.8,2.1-1.2c1.1-0.8,2.1-1.5,3.1-1.5c1.1,0,2.3,0.8,3.5,1.6c0.7,0.4,1.6,1.1,2,1.1c0.5,0,1.7-0.8,2.5-1.3
			c1.3-0.9,2.2-1.4,3-1.4v2c-0.3,0-1.3,0.7-1.9,1.1C43.7,47.2,42.4,48,41.4,48z"/>
	</g>
	<path d="M1,24H0l0-1C-0.1,14.4,5.2,6.7,13.2,3.8c2.1-0.7,4.2-1.1,6.4-1.1c6,0,11.8,3,15.5,8l0.6,0.8L34.8,12
		c-0.3,0.2-6.5,5.3-16.2,8.5C7.8,24,1.3,24,1,24z M19.5,4.6c-1.9,0-3.8,0.3-5.7,1C7,8.1,2.3,14.6,2,22c2.2-0.2,7.9-0.8,16-3.4
		c7.5-2.5,12.9-6.1,14.8-7.5C29.5,7,24.6,4.6,19.5,4.6z"/>
	<path d="M6,22.4C4.8,13.3,7.7,5.8,13.2,3.8C18.6,1.8,25.4,5.9,30,14l-1.7,1c-4-7.1-9.9-10.9-14.4-9.4C9.3,7.3,6.9,14,8,22.2L6,22.4
		z"/>
	<path d="M12.6,21c-1.2-4.7-3.4-15.8,0.5-17.3c4-1.3,8.8,8.9,10.7,13.4L22,17.9c-3.9-9.2-7.2-12.5-8.2-12.2
		C13,5.9,12,10.1,14.6,20.6L12.6,21z"/>
	<rect x="11" y="1.9" transform="matrix(0.3085 0.9512 -0.9512 0.3085 11.6309 -10.2998)" width="3.9" height="2"/>
	<rect x="11.2" y="28.4" transform="matrix(0.3148 0.9492 -0.9492 0.3148 42.8214 -0.4176)" width="21" height="2"/>
	<path d="M40.2,30.5c-2.9,0-5.3-2.4-5.3-5.4c0-3,2.4-5.4,5.3-5.4s5.3,2.4,5.3,5.4C45.5,28.1,43.1,30.5,40.2,30.5z M40.2,21.7
		c-1.8,0-3.3,1.5-3.3,3.4c0,1.9,1.5,3.4,3.3,3.4s3.3-1.5,3.3-3.4C43.5,23.2,42,21.7,40.2,21.7z"/>
</g>
</svg>
