<?xml version="1.0" encoding="utf-8"?>
<!-- Generator: Adobe Illustrator 16.0.0, SVG Export Plug-In . SVG Version: 6.00 Build 0)  -->
<!DOCTYPE svg PUBLIC "-//W3C//DTD SVG 1.1//EN" "http://www.w3.org/Graphics/SVG/1.1/DTD/svg11.dtd">
<svg version="1.1" id="Layer_1" xmlns="http://www.w3.org/2000/svg" xmlns:xlink="http://www.w3.org/1999/xlink" x="0px" y="0px"
	 width="48px" height="48px" viewBox="0 0 48 48" enable-background="new 0 0 48 48" xml:space="preserve">
<g>
	<path d="M42.089,45.883c-0.132,0-0.266-0.026-0.395-0.081c-0.507-0.219-0.741-0.807-0.523-1.314
		c1.179-2.736,2.186-5.732,2.995-8.904c2.311-9.065,2.439-17.892,0.313-21.464c-0.45-0.756-0.973-1.214-1.552-1.36
		c-3.137-0.795-8.851,7.012-12.03,19.48c-0.848,3.333-1.41,6.586-1.67,9.669c-0.046,0.551-0.528,0.973-1.08,0.912
		c-0.551-0.046-0.959-0.529-0.912-1.08c0.269-3.192,0.849-6.555,1.725-9.995c2.854-11.192,8.9-22.334,14.456-20.926
		c1.114,0.281,2.05,1.047,2.782,2.276c2.452,4.119,2.416,13.14-0.094,22.982c-0.834,3.272-1.876,6.368-3.095,9.201
		C42.846,45.656,42.477,45.883,42.089,45.883z"/>
	<path d="M35.29,43.711c-0.082,0-0.165-0.01-0.248-0.031c-0.535-0.136-0.858-0.681-0.722-1.216l7.883-30.921
		c0.136-0.535,0.68-0.859,1.216-0.722c0.535,0.137,0.858,0.681,0.722,1.216l-7.883,30.921C36.143,43.41,35.736,43.711,35.29,43.711z
		"/>
	<path d="M45.769,48c-0.165,0-0.332-0.041-0.486-0.127C25.835,37.035,6.452,47.76,6.259,47.87c-0.481,0.271-1.091,0.104-1.363-0.377
		c-0.272-0.479-0.104-1.09,0.375-1.362c0.202-0.116,20.53-11.407,40.986-0.004c0.482,0.269,0.655,0.878,0.386,1.36
		C46.46,47.815,46.119,48,45.769,48z"/>
	<path d="M13.474,20.219c-3.773,0-6.842-3.055-6.842-6.811c0-3.756,3.069-6.811,6.842-6.811c3.772,0,6.842,3.055,6.842,6.811
		C20.316,17.164,17.247,20.219,13.474,20.219z M13.474,8.597c-2.67,0-4.842,2.158-4.842,4.811c0,2.652,2.172,4.811,4.842,4.811
		s4.842-2.158,4.842-4.811C18.316,10.755,16.144,8.597,13.474,8.597z"/>
	<g>
		<g>
			<path d="M13.474,8.339c-0.552,0-1-0.448-1-1V1c0-0.552,0.448-1,1-1s1,0.448,1,1v6.339C14.474,7.891,14.026,8.339,13.474,8.339z"
				/>
			<path d="M13.474,26.814c-0.552,0-1-0.447-1-1v-6.338c0-0.552,0.448-1,1-1s1,0.448,1,1v6.338
				C14.474,26.367,14.026,26.814,13.474,26.814z"/>
		</g>
		<g>
			<path d="M25.947,14.408h-6.372c-0.552,0-1-0.448-1-1s0.448-1,1-1h6.372c0.553,0,1,0.448,1,1S26.5,14.408,25.947,14.408z"/>
			<path d="M7.372,14.408H1c-0.552,0-1-0.448-1-1s0.448-1,1-1h6.372c0.552,0,1,0.448,1,1S7.924,14.408,7.372,14.408z"/>
		</g>
	</g>
	<g>
		<g>
			<path d="M17.787,10.116c-0.257,0-0.514-0.098-0.709-0.295c-0.39-0.392-0.388-1.024,0.004-1.414l4.507-4.482
				c0.39-0.39,1.024-0.389,1.414,0.004c0.39,0.392,0.388,1.024-0.004,1.414l-4.507,4.482C18.297,10.019,18.042,10.116,17.787,10.116
				z"/>
			<path d="M4.653,23.181c-0.257,0-0.514-0.098-0.709-0.295c-0.39-0.392-0.388-1.024,0.004-1.414l4.506-4.482
				c0.391-0.39,1.025-0.389,1.414,0.004c0.39,0.392,0.388,1.024-0.004,1.414L5.358,22.89C5.163,23.084,4.908,23.181,4.653,23.181z"
				/>
		</g>
		<g>
			<path d="M22.294,23.181c-0.255,0-0.51-0.097-0.705-0.291l-4.506-4.482c-0.392-0.39-0.394-1.022-0.004-1.414
				c0.39-0.392,1.023-0.393,1.414-0.004l4.506,4.482c0.392,0.39,0.394,1.022,0.004,1.414C22.808,23.083,22.551,23.181,22.294,23.181
				z"/>
			<path d="M9.159,10.116c-0.255,0-0.51-0.097-0.705-0.291L3.948,5.343C3.556,4.953,3.554,4.32,3.944,3.929
				c0.39-0.392,1.023-0.393,1.414-0.004l4.506,4.482c0.392,0.39,0.394,1.022,0.004,1.414C9.673,10.018,9.416,10.116,9.159,10.116z"
				/>
		</g>
	</g>
</g>
</svg>
