<?xml version="1.0" encoding="utf-8"?>
<!-- Generator: Adobe Illustrator 16.0.0, SVG Export Plug-In . SVG Version: 6.00 Build 0)  -->
<!DOCTYPE svg PUBLIC "-//W3C//DTD SVG 1.1//EN" "http://www.w3.org/Graphics/SVG/1.1/DTD/svg11.dtd">
<svg version="1.1" id="Layer_1" xmlns="http://www.w3.org/2000/svg" xmlns:xlink="http://www.w3.org/1999/xlink" x="0px" y="0px"
	 width="48px" height="48px" viewBox="0 0 48 48" enable-background="new 0 0 48 48" xml:space="preserve">
<g>
	<path d="M30.87,48.001H8.509c-2.854,0-5.176-2.047-5.176-4.563V18.164c0-2.515,2.322-4.561,5.176-4.561H30.87
		c2.854,0,5.175,2.046,5.175,4.561v25.273C36.045,45.954,33.724,48.001,30.87,48.001z M8.509,15.603
		c-1.722,0-3.176,1.173-3.176,2.561v25.273c0,1.39,1.454,2.563,3.176,2.563H30.87c1.721,0,3.175-1.174,3.175-2.563V18.164
		c0-1.388-1.454-2.561-3.175-2.561H8.509z"/>
	<path d="M38.861,37.484h-3.848c-0.553,0-1-0.447-1-1s0.447-1,1-1h3.848c1.721,0,3.175-1.174,3.175-2.563
		c0-0.075,0.009-0.15,0.025-0.225l1.972-8.57c-0.068-1.344-1.493-2.461-3.172-2.461h-5.848c-0.553,0-1-0.448-1-1s0.447-1,1-1h5.848
		c2.854,0,5.175,2.047,5.175,4.563c0,0.076-0.009,0.151-0.025,0.224l-1.977,8.59C43.961,35.503,41.669,37.484,38.861,37.484z"/>
	<path d="M31.078,15.604c-0.553,0-1-0.448-1-1s0.447-1,1-1c2.391,0,4.336-1.594,4.336-3.553c0-1.958-1.945-3.551-4.336-3.551
		c-0.974,0-1.899,0.266-2.678,0.77c-0.233,0.152-0.518,0.202-0.793,0.129c-0.271-0.07-0.499-0.25-0.632-0.496
		c-0.763-1.425-2.47-2.345-4.349-2.345c-0.878,0-1.741,0.204-2.494,0.59c-0.492,0.252-1.09,0.059-1.344-0.429
		C17.931,3.067,15.978,2,13.814,2c-2.663,0-4.907,1.578-5.336,3.751C8.395,6.172,8.052,6.494,7.625,6.549
		c-2.087,0.271-3.661,1.776-3.661,3.502c0,1.959,1.945,3.553,4.336,3.553c0.552,0,1,0.448,1,1s-0.448,1-1,1
		c-3.494,0-6.336-2.491-6.336-5.553c0-2.569,1.951-4.738,4.728-5.366C7.589,1.933,10.468,0,13.814,0c2.552,0,4.91,1.153,6.256,3
		c0.81-0.292,1.679-0.443,2.557-0.443c2.231,0,4.312,0.979,5.559,2.558C29.078,4.711,30.062,4.5,31.078,4.5
		c3.493,0,6.336,2.49,6.336,5.551C37.414,13.113,34.571,15.604,31.078,15.604z"/>
	<path d="M12.479,42.078c-0.552,0-1-0.447-1-1V20.666c0-0.552,0.448-1,1-1s1,0.448,1,1v20.412
		C13.479,41.631,13.031,42.078,12.479,42.078z"/>
	<path d="M19.689,42.078c-0.552,0-1-0.447-1-1V20.666c0-0.552,0.448-1,1-1s1,0.448,1,1v20.412
		C20.689,41.631,20.241,42.078,19.689,42.078z"/>
	<path d="M26.898,42.078c-0.553,0-1-0.447-1-1V20.666c0-0.552,0.447-1,1-1s1,0.448,1,1v20.412
		C27.898,41.631,27.451,42.078,26.898,42.078z"/>
</g>
</svg>
