<?xml version="1.0" encoding="utf-8"?>
<!-- Generator: Adobe Illustrator 18.0.0, SVG Export Plug-In . SVG Version: 6.00 Build 0)  -->
<!DOCTYPE svg PUBLIC "-//W3C//DTD SVG 1.1//EN" "http://www.w3.org/Graphics/SVG/1.1/DTD/svg11.dtd">
<svg version="1.1" id="Layer_1" xmlns="http://www.w3.org/2000/svg" xmlns:xlink="http://www.w3.org/1999/xlink" x="0px" y="0px"
	 viewBox="0 0 48 48" enable-background="new 0 0 48 48" xml:space="preserve">
<g>
	<rect x="3.1" y="37.1" fill="#010101" width="41.8" height="2"/>
	<path fill="#010101" d="M41.1,39.1H6.8v-23c0-6.5,5.3-11.8,11.8-11.8h10.7c6.5,0,11.8,5.3,11.8,11.8V39.1z M8.8,37.1h30.3v-21
		c0-5.4-4.4-9.8-9.8-9.8H18.6c-5.4,0-9.8,4.4-9.8,9.8V37.1z"/>
	<g>
		<path fill="#010101" d="M13.6,48c-2.3,0-4.1-1.8-4.1-4.1s1.8-4.1,4.1-4.1s4.1,1.8,4.1,4.1S15.9,48,13.6,48z M13.6,41.8
			c-1.2,0-2.1,0.9-2.1,2.1s0.9,2.1,2.1,2.1s2.1-0.9,2.1-2.1S14.8,41.8,13.6,41.8z"/>
		<path fill="#010101" d="M34.4,48c-2.3,0-4.1-1.8-4.1-4.1s1.8-4.1,4.1-4.1s4.1,1.8,4.1,4.1S36.7,48,34.4,48z M34.4,41.8
			c-1.2,0-2.1,0.9-2.1,2.1s0.9,2.1,2.1,2.1s2.1-0.9,2.1-2.1S35.6,41.8,34.4,41.8z"/>
	</g>
	<path fill="#010101" d="M32.5,36h-17c-2.1,0-3.8-1.7-3.8-3.8v-10c0-2.1,1.7-3.8,3.8-3.8h17c2.1,0,3.8,1.7,3.8,3.8v10.1
		C36.3,34.3,34.6,36,32.5,36z M15.5,20.4c-1,0-1.8,0.8-1.8,1.8v10c0,1,0.8,1.8,1.8,1.8h17c1,0,1.8-0.8,1.8-1.7V22.2
		c0-1-0.8-1.8-1.8-1.8H15.5z"/>
	<path fill="#010101" d="M29.3,20.4H18.7v-3.9c0-1.7,1.4-3.1,3.1-3.1h4.4c1.7,0,3.1,1.4,3.1,3.1V20.4z M20.7,18.4h6.6v-1.9
		c0-0.6-0.5-1.1-1.1-1.1h-4.4c-0.6,0-1.1,0.5-1.1,1.1V18.4z"/>
	<rect x="23" y="1" fill="#010101" width="2" height="9.4"/>
</g>
</svg>
