<?xml version="1.0" encoding="utf-8"?>
<!-- Generator: Adobe Illustrator 18.0.0, SVG Export Plug-In . SVG Version: 6.00 Build 0)  -->
<!DOCTYPE svg PUBLIC "-//W3C//DTD SVG 1.1//EN" "http://www.w3.org/Graphics/SVG/1.1/DTD/svg11.dtd">
<svg version="1.1" id="Layer_1" xmlns="http://www.w3.org/2000/svg" xmlns:xlink="http://www.w3.org/1999/xlink" x="0px" y="0px"
	 viewBox="0 0 48 48" enable-background="new 0 0 48 48" xml:space="preserve">
<g>
	<path fill="#010101" d="M37.9,39.1c-5.6,0-10.1-4.5-10.1-10.1s4.5-10.1,10.1-10.1S48,23.4,48,29S43.5,39.1,37.9,39.1z M37.9,20.9
		c-4.5,0-8.1,3.6-8.1,8.1c0,4.5,3.6,8.1,8.1,8.1c4.5,0,8.1-3.6,8.1-8.1C46,24.5,42.4,20.9,37.9,20.9z"/>
	<path fill="#010101" d="M10.1,39.1C4.5,39.1,0,34.6,0,29s4.5-10.1,10.1-10.1S20.2,23.4,20.2,29S15.7,39.1,10.1,39.1z M10.1,20.9
		C5.6,20.9,2,24.5,2,29c0,4.5,3.6,8.1,8.1,8.1s8.1-3.6,8.1-8.1C18.2,24.5,14.6,20.9,10.1,20.9z"/>
	<path fill="#010101" d="M11.1,29.6L9.1,29l4.3-16.5c-0.9-0.1-2,0-2.7,0.5c-0.4,0.3-0.6,0.7-0.6,1.4l-2-0.1c0.1-1.2,0.6-2.2,1.4-2.9
		c1.9-1.5,5-0.8,5.4-0.8l1,0.2L11.1,29.6z"/>
	<path fill="#010101" d="M38.3,30H25.2c-0.3,0-0.6-0.1-0.8-0.4L13.1,15.3c-0.2-0.3-0.3-0.7-0.1-1.1c0.2-0.3,0.5-0.6,0.9-0.6h16.7
		c0.4,0,0.7,0.2,0.9,0.5l7.7,14.3c0.2,0.3,0.2,0.7,0,1C39,29.8,38.7,30,38.3,30z M25.7,28h10.9L30,15.7H16L25.7,28z"/>
	<rect x="27.9" y="9.7" transform="matrix(0.9258 0.3779 -0.3779 0.9258 9.4606 -9.5062)" fill="#010101" width="2" height="19.3"/>
	
		<rect x="31.5" y="7.4" transform="matrix(0.1807 0.9835 -0.9835 0.1807 36.9055 -23.4033)" fill="#010101" width="2" height="6.1"/>
</g>
</svg>
