<?xml version="1.0" encoding="utf-8"?>
<!-- Generator: Adobe Illustrator 16.0.0, SVG Export Plug-In . SVG Version: 6.00 Build 0)  -->
<!DOCTYPE svg PUBLIC "-//W3C//DTD SVG 1.1//EN" "http://www.w3.org/Graphics/SVG/1.1/DTD/svg11.dtd">
<svg version="1.1" id="Layer_1" xmlns="http://www.w3.org/2000/svg" xmlns:xlink="http://www.w3.org/1999/xlink" x="0px" y="0px"
	 width="48px" height="48px" viewBox="0 0 48 48" enable-background="new 0 0 48 48" xml:space="preserve">
<g>
	<g>
		<path d="M38.279,44.616c-5.36,0-9.721-4.361-9.721-9.722s4.36-9.721,9.721-9.721S48,29.534,48,34.895S43.64,44.616,38.279,44.616z
			 M38.279,27.174c-4.257,0-7.721,3.464-7.721,7.721c0,4.258,3.464,7.722,7.721,7.722S46,39.152,46,34.895
			C46,30.638,42.536,27.174,38.279,27.174z"/>
		<path d="M9.726,44.616L9.726,44.616C4.363,44.615,0,40.254,0,34.895c0-5.361,4.364-9.723,9.727-9.723
			c5.359,0,9.72,4.361,9.72,9.723C19.447,40.255,15.086,44.616,9.726,44.616z M9.727,27.172C5.466,27.172,2,30.637,2,34.895
			c0,4.257,3.466,7.721,7.726,7.722c4.257,0,7.721-3.464,7.721-7.722S13.984,27.172,9.727,27.172z"/>
		<path d="M23.239,39.508c-0.136,0-0.273-0.027-0.406-0.086c-0.503-0.224-0.731-0.813-0.509-1.316
			c0.146-0.338,3.375-8.17-7.023-15.771c-0.356-0.26-0.5-0.722-0.354-1.138c0.122-0.348,3.055-8.522,9.302-8.998
			c0.518-0.047,0.991,0.334,1.066,0.855c0.014,0.092,0.394,2.396,2.626,3.856c2.145,1.402,5.273,1.572,9.291,0.506
			c0.534-0.138,1.082,0.177,1.224,0.71s-0.177,1.082-0.71,1.223c-4.618,1.224-8.296,0.958-10.938-0.79
			c-1.98-1.311-2.854-3.13-3.224-4.24c-3.567,0.84-5.755,5.181-6.481,6.868c10.992,8.467,7.091,17.633,7.05,17.727
			C23.987,39.286,23.622,39.508,23.239,39.508z"/>
		<path d="M32.541,8.14c0,2.075-1.684,3.755-3.755,3.755c-2.079,0-3.763-1.68-3.763-3.755c0-2.075,1.684-3.756,3.763-3.756
			C30.857,4.384,32.541,6.065,32.541,8.14z"/>
	</g>
	<path d="M37.487,27.211c-0.478,0-0.899-0.343-0.984-0.828l-0.652-3.744c-0.095-0.544,0.27-1.062,0.813-1.157
		c0.551-0.09,1.063,0.27,1.157,0.813l0.652,3.744c0.095,0.544-0.27,1.063-0.813,1.157C37.602,27.206,37.544,27.211,37.487,27.211z"
		/>
</g>
</svg>
