<?xml version="1.0" encoding="utf-8"?>
<!-- Generator: Adobe Illustrator 18.0.0, SVG Export Plug-In . SVG Version: 6.00 Build 0)  -->
<!DOCTYPE svg PUBLIC "-//W3C//DTD SVG 1.1//EN" "http://www.w3.org/Graphics/SVG/1.1/DTD/svg11.dtd">
<svg version="1.1" id="Layer_1" xmlns="http://www.w3.org/2000/svg" xmlns:xlink="http://www.w3.org/1999/xlink" x="0px" y="0px"
	 viewBox="0 0 48 48" enable-background="new 0 0 48 48" xml:space="preserve">
<g>
	<path fill="#010101" d="M38.5,41c-5.2,0-9.5-4.3-9.5-9.5s4.3-9.5,9.5-9.5s9.5,4.3,9.5,9.5S43.7,41,38.5,41z M38.5,24
		c-4.1,0-7.5,3.4-7.5,7.5s3.4,7.5,7.5,7.5s7.5-3.4,7.5-7.5S42.6,24,38.5,24z"/>
	<path fill="#010101" d="M9.5,41C4.3,41,0,36.7,0,31.5S4.3,22,9.5,22s9.5,4.3,9.5,9.5S14.7,41,9.5,41z M9.5,24C5.4,24,2,27.4,2,31.5
		S5.4,39,9.5,39s7.5-3.4,7.5-7.5S13.6,24,9.5,24z"/>
	<path fill="#010101" d="M9.6,32.5c-0.2,0-0.5-0.1-0.7-0.2c-0.4-0.4-0.5-1-0.1-1.4c0,0,4.5-5.4,5.1-20.3c0-0.6,0.5-1,1-1
		c0.6,0,1,0.5,1,1c-0.6,15.7-5.3,21.3-5.5,21.5C10.2,32.4,9.9,32.5,9.6,32.5z"/>
	<path fill="#010101" d="M38.5,32.5C38.5,32.5,38.5,32.5,38.5,32.5h-14c-0.3,0-0.6-0.2-0.8-0.4L14,18c-0.2-0.3-0.2-0.7-0.1-1
		s0.5-0.5,0.9-0.5h15.5c0.4,0,0.7,0.2,0.9,0.5l8.1,13.9c0.2,0.2,0.2,0.4,0.2,0.7C39.5,32.1,39.1,32.5,38.5,32.5z M25,30.5h11.7
		l-7-12.1h-13L25,30.5z"/>
	<path fill="#010101" d="M24.1,32.5c-0.1,0-0.3,0-0.4-0.1c-0.5-0.2-0.7-0.8-0.5-1.3l7.5-17.2c0.2-0.5,0.8-0.7,1.3-0.5
		c0.5,0.2,0.7,0.8,0.5,1.3L25,31.9C24.9,32.3,24.5,32.5,24.1,32.5z"/>
	<path fill="#010101" d="M34.4,14.9h-5.6c-0.6,0-1-0.4-1-1s0.4-1,1-1h5.6c0.6,0,1,0.4,1,1S35,14.9,34.4,14.9z"/>
	<path fill="#010101" d="M18.4,13.4c-1.6,0-3.8-0.6-4.4-2.8c-0.4-1.2,0-2,0.3-2.5C15.1,7,16.8,7,17,7c0.6,0,1,0.4,1,1
		c0,0.6-0.4,1-1,1c-0.3,0-0.9,0.1-1.1,0.4c-0.1,0.2-0.1,0.5,0,0.7c0.5,1.6,3,1.3,3,1.3c0.5-0.1,1,0.3,1.1,0.9s-0.3,1-0.9,1.1
		C18.9,13.4,18.7,13.4,18.4,13.4z"/>
</g>
</svg>
