<?xml version="1.0" encoding="utf-8"?>
<!-- Generator: Adobe Illustrator 18.0.0, SVG Export Plug-In . SVG Version: 6.00 Build 0)  -->
<!DOCTYPE svg PUBLIC "-//W3C//DTD SVG 1.1//EN" "http://www.w3.org/Graphics/SVG/1.1/DTD/svg11.dtd">
<svg version="1.1" id="Layer_1" xmlns="http://www.w3.org/2000/svg" xmlns:xlink="http://www.w3.org/1999/xlink" x="0px" y="0px"
	 viewBox="0 0 48 48" enable-background="new 0 0 48 48" xml:space="preserve">
<g>
	<path fill="#010101" d="M48,43.2H0V20c0-3.5,2.8-6.4,6.2-6.4c3.4,0,6.2,2.9,6.2,6.4v11h23.2V20.1c0-3.5,2.8-6.4,6.2-6.4
		S48,16.5,48,20V43.2z M2,41.2h44V20c0-2.4-1.9-4.3-4.2-4.3c-2.4,0-4.2,1.9-4.2,4.4V33H10.4V20c0-2.5-1.8-4.4-4.2-4.4
		c-2.3,0-4.2,2-4.2,4.4V41.2z"/>
	<path fill="#010101" d="M41.9,15.2h-2C39.9,7.9,33.1,2,24.8,2h-1.5C15,2,8.2,7.9,8.2,15.2h-2C6.2,6.8,13.9,0,23.3,0h1.5
		C34.2,0,41.9,6.8,41.9,15.2z"/>
	<g>
		<rect x="6.3" y="42.3" fill="#010101" width="2" height="4.7"/>
		<rect x="39.7" y="42.3" fill="#010101" width="2" height="4.7"/>
	</g>
</g>
</svg>
