<?xml version="1.0" encoding="utf-8"?>
<!-- Generator: Adobe Illustrator 16.0.0, SVG Export Plug-In . SVG Version: 6.00 Build 0)  -->
<!DOCTYPE svg PUBLIC "-//W3C//DTD SVG 1.1//EN" "http://www.w3.org/Graphics/SVG/1.1/DTD/svg11.dtd">
<svg version="1.1" id="Layer_1" xmlns="http://www.w3.org/2000/svg" xmlns:xlink="http://www.w3.org/1999/xlink" x="0px" y="0px"
	 width="48px" height="48px" viewBox="0 0 48 48" enable-background="new 0 0 48 48" xml:space="preserve">
<g>
	<path d="M16.896,20.132c-0.987,0-1.938-0.199-2.827-0.591c-0.224-0.099-0.404-0.277-0.506-0.5
		c-0.119-0.259-2.853-6.407,2.278-11.144c0.336-0.311,0.841-0.353,1.223-0.104c0.21,0.136,5.156,3.403,6.563,8.772
		c0.096,0.365-0.022,0.753-0.306,1.003C23.204,17.674,20.379,20.132,16.896,20.132z M15.24,17.854
		c0.527,0.184,1.083,0.277,1.657,0.277c1.994,0,3.781-1.085,4.612-1.681c-1.076-3.217-3.668-5.546-4.884-6.501
		C13.829,13.065,14.824,16.712,15.24,17.854z"/>
	<path d="M25.34,17.735h-2.679c-0.552,0-1-0.448-1-1s0.448-1,1-1h2.679c0.553,0,1,0.448,1,1S25.893,17.735,25.34,17.735z"/>
	<path d="M16.536,9.247c-0.552,0-1-0.448-1-1V1c0-0.552,0.448-1,1-1s1,0.448,1,1v7.247C17.536,8.799,17.088,9.247,16.536,9.247z"/>
	<path d="M24,48c-0.28,0-0.558-0.116-0.755-0.344L12.452,35.232c-0.183-0.211-0.27-0.489-0.239-0.767
		c0.031-0.278,0.176-0.53,0.401-0.695c5.471-4.021,1.835-14.194,1.798-14.296c-0.189-0.519,0.078-1.093,0.596-1.283
		c0.519-0.188,1.093,0.078,1.283,0.596c0.166,0.454,3.824,10.714-1.662,15.902l10.125,11.654c0.362,0.417,0.317,1.049-0.099,1.411
		C24.466,47.919,24.233,48,24,48z"/>
	<path d="M24,35.428H13.729c-0.552,0-1-0.447-1-1s0.448-1,1-1H24c0.553,0,1,0.447,1,1S24.553,35.428,24,35.428z"/>
	<path d="M10.617,43.045c-0.198,0-0.398-0.059-0.573-0.181c-0.452-0.317-0.562-0.94-0.245-1.393c0.519-0.741,0.371-1.701,0.2-2.813
		c-0.119-0.773-0.242-1.574-0.154-2.398c0.149-1.379,0.573-2.099,1.628-2.665c-0.066-0.034-0.132-0.065-0.187-0.092l-0.184-0.09
		c-0.46-0.231-0.96-0.445-1.198-0.292c-0.461,0.301-1.082,0.169-1.383-0.294s-0.17-1.082,0.293-1.384
		c1.229-0.8,2.599-0.112,3.184,0.182l0.155,0.075c0.455,0.22,1.079,0.521,1.433,1.193c0.179,0.34,0.397,0.857,0.203,1.397
		c-0.201,0.559-0.687,0.761-0.978,0.882l-0.143,0.062c-0.655,0.294-0.743,0.382-0.836,1.239c-0.06,0.564,0.038,1.203,0.142,1.881
		c0.207,1.343,0.441,2.864-0.539,4.263C11.243,42.896,10.933,43.045,10.617,43.045z"/>
	<path d="M31.104,20.132L31.104,20.132c-3.482,0-6.308-2.458-6.426-2.562c-0.284-0.25-0.402-0.638-0.306-1.003
		c1.407-5.369,6.354-8.636,6.564-8.772c0.384-0.25,0.887-0.207,1.224,0.104c5.131,4.736,2.396,10.884,2.277,11.144
		c-0.102,0.222-0.282,0.401-0.506,0.5C33.042,19.933,32.091,20.132,31.104,20.132z M26.492,16.449
		c0.835,0.595,2.631,1.683,4.611,1.683l0,0c0.574,0,1.13-0.093,1.657-0.277c0.416-1.142,1.411-4.789-1.384-7.905
		C30.161,10.904,27.569,13.233,26.492,16.449z"/>
	<path d="M31.465,9.247c-0.553,0-1-0.448-1-1V1c0-0.552,0.447-1,1-1s1,0.448,1,1v7.247C32.465,8.799,32.018,9.247,31.465,9.247z"/>
	<path d="M24,48c-0.232,0-0.466-0.081-0.655-0.245c-0.417-0.362-0.461-0.994-0.099-1.411L33.37,34.689
		c-5.483-5.188-1.827-15.448-1.661-15.901c0.189-0.518,0.765-0.786,1.281-0.597c0.519,0.189,0.786,0.763,0.598,1.282
		c-0.037,0.103-3.659,10.286,1.798,14.297c0.225,0.165,0.37,0.418,0.401,0.695c0.03,0.277-0.056,0.556-0.239,0.767L24.755,47.656
		C24.558,47.884,24.279,48,24,48z"/>
	<path d="M34.273,35.428H24c-0.552,0-1-0.447-1-1s0.448-1,1-1h10.273c0.553,0,1,0.447,1,1S34.826,35.428,34.273,35.428z"/>
	<path d="M37.383,43.045c-0.315,0-0.625-0.148-0.82-0.426c-0.98-1.399-0.745-2.923-0.538-4.266c0.104-0.677,0.202-1.315,0.143-1.881
		c-0.094-0.855-0.182-0.943-0.834-1.236l-0.146-0.063c-0.29-0.121-0.775-0.323-0.976-0.882c-0.194-0.541,0.024-1.058,0.205-1.399
		c0.351-0.671,0.976-0.972,1.432-1.19l0.156-0.076c0.581-0.294,1.949-0.98,3.18-0.18c0.463,0.301,0.595,0.92,0.293,1.383
		c-0.3,0.463-0.921,0.597-1.383,0.293c-0.238-0.153-0.763,0.074-1.193,0.292l-0.186,0.09c-0.055,0.026-0.121,0.059-0.188,0.092
		c1.053,0.566,1.478,1.286,1.628,2.664c0.088,0.826-0.035,1.626-0.154,2.398c-0.172,1.112-0.319,2.072,0.2,2.813
		c0.316,0.453,0.207,1.076-0.245,1.394C37.781,42.986,37.581,43.045,37.383,43.045z"/>
</g>
</svg>
