<?xml version="1.0" encoding="utf-8"?>
<!-- Generator: Adobe Illustrator 16.0.0, SVG Export Plug-In . SVG Version: 6.00 Build 0)  -->
<!DOCTYPE svg PUBLIC "-//W3C//DTD SVG 1.1//EN" "http://www.w3.org/Graphics/SVG/1.1/DTD/svg11.dtd">
<svg version="1.1" id="Layer_1" xmlns="http://www.w3.org/2000/svg" xmlns:xlink="http://www.w3.org/1999/xlink" x="0px" y="0px"
	 width="48px" height="48px" viewBox="0 0 48 48" enable-background="new 0 0 48 48" xml:space="preserve">
<g>
	<path d="M24,48C8.177,48,0.878,44.661,0.575,44.519C0.234,44.358,0.012,44.021,0,43.645c-0.012-0.376,0.188-0.727,0.518-0.908
		c2.963-1.627,13.162-13.23,15.151-20.392c0.416-1.497,0.417-2.666,0.001-3.38c-3.385-5.826-1.61-10.451-1.533-10.645
		c0.138-0.348,0.458-0.589,0.831-0.625c0.242-0.023,5.895-0.514,9.855,5.25c0.313,0.456,0.197,1.078-0.258,1.391
		c-0.456,0.313-1.079,0.197-1.391-0.258c-2.576-3.75-5.95-4.328-7.358-4.396c-0.296,1.289-0.648,4.438,1.583,8.279
		c0.702,1.208,0.768,2.863,0.196,4.92C15.806,29.324,7.554,39.563,3.095,43.324C6.027,44.277,12.868,46,24,46c0.553,0,1,0.447,1,1
		S24.553,48,24,48z"/>
	<path d="M16.781,9.675c-0.552,0-1-0.448-1-1V1c0-0.552,0.448-1,1-1s1,0.448,1,1v7.675C17.781,9.227,17.333,9.675,16.781,9.675z"/>
	<path d="M24,48c-0.552,0-1-0.447-1-1s0.448-1,1-1c11.173,0,17.988-1.72,20.909-2.673c-4.459-3.759-12.715-14-14.507-20.447
		c-0.571-2.058-0.506-3.713,0.196-4.92c2.231-3.838,1.881-6.987,1.583-8.279c-1.404,0.068-4.78,0.645-7.357,4.397
		c-0.312,0.456-0.934,0.571-1.391,0.258c-0.455-0.313-0.571-0.935-0.258-1.391c3.961-5.766,9.618-5.275,9.854-5.25
		c0.372,0.037,0.692,0.278,0.83,0.625c0.077,0.194,1.854,4.819-1.533,10.646c-0.414,0.714-0.414,1.883,0.002,3.38
		c1.991,7.162,12.189,18.765,15.152,20.392c0.33,0.182,0.53,0.532,0.518,0.908c-0.012,0.377-0.233,0.714-0.574,0.874
		C47.122,44.661,39.823,48,24,48z"/>
	<path d="M31.218,9.675c-0.553,0-1-0.448-1-1V1c0-0.552,0.447-1,1-1s1,0.448,1,1v7.675C32.218,9.227,31.771,9.675,31.218,9.675z"/>
</g>
</svg>
