<?xml version="1.0" encoding="utf-8"?>
<!-- Generator: Adobe Illustrator 16.0.0, SVG Export Plug-In . SVG Version: 6.00 Build 0)  -->
<!DOCTYPE svg PUBLIC "-//W3C//DTD SVG 1.1//EN" "http://www.w3.org/Graphics/SVG/1.1/DTD/svg11.dtd">
<svg version="1.1" id="Layer_1" xmlns="http://www.w3.org/2000/svg" xmlns:xlink="http://www.w3.org/1999/xlink" x="0px" y="0px"
	 width="48px" height="48px" viewBox="0 0 48 48" enable-background="new 0 0 48 48" xml:space="preserve">
<g>
	<path d="M26.311,48h-4.623c-0.273,0-0.535-0.112-0.724-0.31c-0.188-0.198-0.288-0.465-0.275-0.737
		c0.002-0.04,0.152-4.215-2.369-6.847c-1.397-1.459-3.392-2.198-5.928-2.198c-0.552,0-1-0.447-1-1v-2.711c0-0.553,0.448-1,1-1
		h23.213c0.553,0,1,0.447,1,1v2.711c0,0.553-0.447,1-1,1c-2.542,0-4.539,0.743-5.937,2.208c-2.526,2.648-2.361,6.795-2.359,6.837
		c0.013,0.272-0.087,0.539-0.275,0.737C26.846,47.888,26.584,48,26.311,48z M22.667,46h2.666c0.105-1.645,0.613-4.878,2.89-7.265
		c1.594-1.67,3.737-2.607,6.384-2.793v-0.745H13.392v0.745c2.646,0.186,4.791,1.123,6.384,2.794
		C22.053,41.122,22.561,44.355,22.667,46z"/>
	<g>
		<path d="M11.375,11.29c-0.552,0-1-0.448-1-1V1c0-0.552,0.448-1,1-1s1,0.448,1,1v9.29C12.375,10.842,11.927,11.29,11.375,11.29z"/>
		<path d="M33.203,25.191C33.203,25.191,33.203,25.191,33.203,25.191c-3.682,0-7.802-1.951-9.203-2.675
			c-1.401,0.724-5.521,2.675-9.202,2.675c-2.312,0-4.071-0.757-5.229-2.251c-1.839-2.373-2.001-6.366-0.496-12.208
			c0.1-0.386,0.418-0.676,0.813-0.738c0.057-0.009,0.583-0.088,1.452-0.088c2.286,0,7.917,0.597,12.662,5.902
			c4.743-5.305,10.375-5.902,12.661-5.902c0.869,0,1.396,0.079,1.452,0.088c0.395,0.062,0.714,0.352,0.813,0.738
			c1.506,5.842,1.344,9.835-0.495,12.208C37.274,24.434,35.515,25.191,33.203,25.191z M24,20.383c0.169,0,0.338,0.043,0.49,0.128
			c0.048,0.027,4.819,2.68,8.713,2.68l0,0c1.685,0,2.878-0.483,3.647-1.476c1.331-1.717,1.436-5.097,0.31-9.798
			c-0.145-0.006-0.313-0.011-0.499-0.011c-2.123,0-7.53,0.592-11.878,6.076c-0.378,0.479-1.186,0.479-1.567,0
			c-4.349-5.484-9.755-6.076-11.878-6.076c-0.187,0-0.354,0.004-0.499,0.011c-1.125,4.701-1.021,8.08,0.311,9.798
			c0.77,0.994,1.963,1.477,3.647,1.477c3.905,0,8.664-2.653,8.711-2.68C23.662,20.426,23.831,20.383,24,20.383z"/>
		<path d="M36.626,11.29c-0.553,0-1-0.448-1-1V1c0-0.552,0.447-1,1-1s1,0.448,1,1v9.29C37.626,10.842,37.179,11.29,36.626,11.29z"/>
	</g>
</g>
</svg>
