<?xml version="1.0" encoding="utf-8"?>
<!-- Generator: Adobe Illustrator 16.0.0, SVG Export Plug-In . SVG Version: 6.00 Build 0)  -->
<!DOCTYPE svg PUBLIC "-//W3C//DTD SVG 1.1//EN" "http://www.w3.org/Graphics/SVG/1.1/DTD/svg11.dtd">
<svg version="1.1" id="Layer_1" xmlns="http://www.w3.org/2000/svg" xmlns:xlink="http://www.w3.org/1999/xlink" x="0px" y="0px"
	 width="48px" height="48px" viewBox="0 0 48 48" enable-background="new 0 0 48 48" xml:space="preserve">
<g>
	<g>
		<path d="M9.292,41.5C4.168,41.5,0,37.429,0,32.424c0-5.004,4.168-9.076,9.292-9.076s9.292,4.072,9.292,9.076
			C18.584,37.429,14.416,41.5,9.292,41.5z M9.292,25.349C5.271,25.349,2,28.522,2,32.424S5.271,39.5,9.292,39.5
			s7.292-3.175,7.292-7.076S13.313,25.349,9.292,25.349z"/>
		<path d="M17.586,33.939c-0.058,0-0.117-0.005-0.177-0.016c-0.543-0.097-0.906-0.616-0.809-1.16l3.762-21.084
			c-0.45-1.38-1.195-2.289-2.271-2.772c-1.959-0.879-4.676-0.119-5.904,0.381L2.509,29.827c-0.236,0.499-0.832,0.715-1.331,0.478
			c-0.5-0.235-0.714-0.831-0.479-1.331l9.839-20.877c0.099-0.21,0.268-0.379,0.478-0.478c0.181-0.086,4.473-2.074,7.895-0.536
			c1.674,0.752,2.831,2.183,3.438,4.251c0.043,0.148,0.052,0.305,0.025,0.458l-3.804,21.323
			C18.483,33.6,18.062,33.939,17.586,33.939z"/>
		<path d="M38.707,41.5c-5.124,0-9.293-4.071-9.293-9.076c0-5.004,4.169-9.076,9.293-9.076S48,27.42,48,32.424
			C48,37.429,43.831,41.5,38.707,41.5z M38.707,25.349c-4.021,0-7.293,3.174-7.293,7.075s3.271,7.076,7.293,7.076
			S46,36.325,46,32.424S42.729,25.349,38.707,25.349z"/>
		<path d="M30.414,33.941c-0.476,0-0.897-0.34-0.983-0.824l-3.804-21.325c-0.027-0.152-0.019-0.309,0.024-0.458
			c0.607-2.069,1.764-3.499,3.438-4.251c3.422-1.541,7.716,0.449,7.896,0.535c0.21,0.099,0.379,0.268,0.478,0.478l9.838,20.878
			c0.235,0.499,0.021,1.095-0.479,1.33c-0.501,0.238-1.096,0.021-1.33-0.479L35.816,9.294c-0.94-0.374-3.78-1.345-5.913-0.384
			c-1.073,0.484-1.815,1.392-2.265,2.77l3.761,21.086c0.097,0.544-0.265,1.063-0.809,1.16
			C30.531,33.937,30.472,33.941,30.414,33.941z"/>
	</g>
	<path d="M27.009,17.255h-6.018c-0.552,0-1-0.448-1-1s0.448-1,1-1h6.018c0.553,0,1,0.448,1,1S27.562,17.255,27.009,17.255z"/>
	<path d="M29.18,26.533H18.819c-0.552,0-1-0.447-1-1s0.448-1,1-1H29.18c0.553,0,1,0.447,1,1S29.732,26.533,29.18,26.533z"/>
</g>
</svg>
