<?xml version="1.0" encoding="utf-8"?>
<!-- Generator: Adobe Illustrator 16.0.0, SVG Export Plug-In . SVG Version: 6.00 Build 0)  -->
<!DOCTYPE svg PUBLIC "-//W3C//DTD SVG 1.1//EN" "http://www.w3.org/Graphics/SVG/1.1/DTD/svg11.dtd">
<svg version="1.1" id="Layer_1" xmlns="http://www.w3.org/2000/svg" xmlns:xlink="http://www.w3.org/1999/xlink" x="0px" y="0px"
	 width="48px" height="48px" viewBox="0 0 48 48" enable-background="new 0 0 48 48" xml:space="preserve">
<g>
	<path d="M47,48H1c-0.552,0-1-0.447-1-1V32.623c0-0.553,0.448-1,1-1h46c0.553,0,1,0.447,1,1V47C48,47.553,47.553,48,47,48z M2,46h44
		V33.623H2V46z"/>
	<path d="M36.995,33.666h-25.99c-0.552,0-1-0.447-1-1V21.478c0-0.552,0.448-1,1-1h25.99c0.553,0,1,0.448,1,1v11.188
		C37.995,33.219,37.548,33.666,36.995,33.666z M12.005,31.666h23.99v-9.188h-23.99V31.666z"/>
	<path d="M27.396,22.478h-6.793c-0.552,0-1-0.448-1-1v-8.793c0-0.552,0.448-1,1-1h6.793c0.553,0,1,0.448,1,1v8.793
		C28.396,22.03,27.949,22.478,27.396,22.478z M21.603,20.478h4.793v-6.793h-4.793V20.478z"/>
	<path d="M24,13.197c-0.552,0-1-0.448-1-1V9.429c0-0.552,0.448-1,1-1c0.553,0,1,0.448,1,1v2.768C25,12.749,24.553,13.197,24,13.197z
		"/>
	<path d="M27.368,11.011c-0.296,0-0.589-0.13-0.786-0.38c-0.342-0.434-0.268-1.062,0.165-1.404c1.036-0.817,1.343-1.846,0.938-3.143
		C27.349,5,26.353,4.283,25.199,3.452c-0.225-0.162-0.451-0.325-0.677-0.494c-0.096,0.235-0.212,0.481-0.347,0.736
		c-0.443,0.836-1.271,1.688-1.936,2.373l-0.18,0.186c-0.6,0.622-0.64,0.74-0.619,1.189c0.044,0.914,0.24,1.11,0.299,1.148
		c0.464,0.299,0.598,0.918,0.298,1.382c-0.3,0.464-0.918,0.598-1.382,0.298c-1.116-0.72-1.187-2.183-1.213-2.733
		c-0.06-1.285,0.45-1.918,1.178-2.673l0.184-0.19c0.576-0.593,1.293-1.332,1.604-1.917c0.404-0.761,0.48-1.253,0.454-1.372
		c-0.2-0.445-0.044-0.958,0.362-1.228c0.406-0.271,0.954-0.197,1.287,0.158c0.523,0.556,1.171,1.021,1.856,1.515
		c1.323,0.953,2.691,1.938,3.228,3.66c0.65,2.089,0.079,3.974-1.608,5.307C27.804,10.94,27.585,11.011,27.368,11.011z"/>
	<g>
		<path d="M8.009,44.494c-0.552,0-1-0.447-1-1V37.59c0-0.553,0.448-1,1-1s1,0.447,1,1v5.904C9.009,44.047,8.561,44.494,8.009,44.494
			z"/>
		<path d="M16.004,44.494c-0.552,0-1-0.447-1-1V37.59c0-0.553,0.448-1,1-1s1,0.447,1,1v5.904
			C17.004,44.047,16.556,44.494,16.004,44.494z"/>
		<path d="M24,44.494c-0.552,0-1-0.447-1-1V37.59c0-0.553,0.448-1,1-1c0.553,0,1,0.447,1,1v5.904C25,44.047,24.553,44.494,24,44.494
			z"/>
		<path d="M31.996,44.494c-0.553,0-1-0.447-1-1V37.59c0-0.553,0.447-1,1-1s1,0.447,1,1v5.904
			C32.996,44.047,32.549,44.494,31.996,44.494z"/>
		<path d="M39.991,44.494c-0.553,0-1-0.447-1-1V37.59c0-0.553,0.447-1,1-1s1,0.447,1,1v5.904
			C40.991,44.047,40.544,44.494,39.991,44.494z"/>
	</g>
	<g>
		<path d="M17.001,28.266c-0.497,0-1.009-0.106-1.391-0.44c-0.416-0.363-0.458-0.995-0.095-1.411
			c0.342-0.389,0.919-0.452,1.333-0.157c0.184,0.033,0.648-0.032,1-0.141c0.527-0.157,1.087,0.135,1.25,0.662
			c0.162,0.526-0.131,1.085-0.658,1.249C18.13,28.123,17.576,28.266,17.001,28.266z"/>
		<path d="M23.796,28.266c-0.497,0-1.009-0.106-1.391-0.44c-0.416-0.364-0.458-0.996-0.094-1.411
			c0.341-0.391,0.919-0.451,1.332-0.157c0.198,0.038,0.693-0.045,0.998-0.14c0.531-0.161,1.089,0.132,1.252,0.658
			c0.164,0.527-0.131,1.088-0.658,1.252C24.925,28.123,24.371,28.266,23.796,28.266z"/>
		<path d="M30.591,28.266c-0.497,0-1.009-0.106-1.391-0.44c-0.416-0.363-0.459-0.994-0.096-1.41
			c0.341-0.391,0.919-0.452,1.332-0.158c0.199,0.038,0.694-0.045,0.999-0.14c0.53-0.161,1.088,0.132,1.252,0.658
			c0.164,0.527-0.131,1.088-0.658,1.252C31.72,28.123,31.166,28.266,30.591,28.266z"/>
	</g>
</g>
</svg>
