<?xml version="1.0" encoding="utf-8"?>
<!-- Generator: Adobe Illustrator 18.0.0, SVG Export Plug-In . SVG Version: 6.00 Build 0)  -->
<!DOCTYPE svg PUBLIC "-//W3C//DTD SVG 1.1//EN" "http://www.w3.org/Graphics/SVG/1.1/DTD/svg11.dtd">
<svg version="1.1" id="Layer_1" xmlns="http://www.w3.org/2000/svg" xmlns:xlink="http://www.w3.org/1999/xlink" x="0px" y="0px"
	 viewBox="0 0 48 48" enable-background="new 0 0 48 48" xml:space="preserve">
<g>
	<path fill="#010101" d="M46.9,48H1c-0.6,0-1-0.4-1-1V31.3c0-3.1,2.6-5.7,5.7-5.7h36.5c3.1,0,5.7,2.6,5.7,5.7V47
		C47.9,47.6,47.5,48,46.9,48z M2,46h43.9V31.3c0-2-1.7-3.7-3.7-3.7H5.7c-2,0-3.7,1.7-3.7,3.7V46z"/>
	<path fill="#010101" d="M40.4,27.6H7.6c-0.6,0-1-0.4-1-1v-9.9c0-3.1,2.6-5.7,5.7-5.7h23.4c3.1,0,5.7,2.6,5.7,5.7v9.9
		C41.4,27.2,41,27.6,40.4,27.6z M8.6,25.6h30.8v-8.9c0-2-1.7-3.7-3.7-3.7H12.3c-2,0-3.7,1.7-3.7,3.7V25.6z"/>
	<g>
		<rect x="27" y="1" fill="#010101" width="2" height="11"/>
		<rect x="18.9" y="1" fill="#010101" width="2" height="11"/>
	</g>
	<g>
		<path fill="#010101" d="M4.9,39.9c-2.7,0-4.9-2-4.9-4.3h2c0,1.2,1.4,2.3,2.9,2.3c1.5,0,2.8-1.1,2.8-2.3h2
			C9.7,38,7.5,39.9,4.9,39.9z"/>
		<path fill="#010101" d="M12.5,39.9c-2.6,0-4.8-1.9-4.8-4.3h2c0,1.2,1.3,2.3,2.8,2.3s2.8-1.1,2.8-2.3h2
			C17.3,38,15.1,39.9,12.5,39.9z"/>
		<path fill="#010101" d="M20.2,39.9c-2.6,0-4.8-1.9-4.8-4.3h2c0,1.2,1.3,2.3,2.8,2.3c1.5,0,2.8-1.1,2.8-2.3h2
			C25,38,22.8,39.9,20.2,39.9z"/>
		<path fill="#010101" d="M27.9,39.9c-2.7,0-4.9-2-4.9-4.3h2c0,1.2,1.4,2.3,2.9,2.3c1.5,0,2.8-1.1,2.8-2.3h2
			C32.7,38,30.5,39.9,27.9,39.9z"/>
		<path fill="#010101" d="M35.5,39.9c-2.6,0-4.8-1.9-4.8-4.3h2c0,1.2,1.3,2.3,2.8,2.3s2.8-1.1,2.8-2.3h2
			C40.3,38,38.1,39.9,35.5,39.9z"/>
		<path fill="#010101" d="M43.2,39.9c-2.6,0-4.8-1.9-4.8-4.3h2c0,1.2,1.3,2.3,2.8,2.3s2.8-1.1,2.8-2.3h2C48,38,45.8,39.9,43.2,39.9z
			"/>
	</g>
	<rect x="7.7" y="29.2" fill="#010101" width="2" height="3.3"/>
	<rect x="15.3" y="29.2" fill="#010101" width="2" height="3.3"/>
	<rect x="23" y="29.2" fill="#010101" width="2" height="3.3"/>
	<rect x="30.7" y="29.2" fill="#010101" width="2" height="3.3"/>
	<rect x="38.3" y="29.2" fill="#010101" width="2" height="3.3"/>
	<g>
		<path fill="#010101" d="M10.5,22.6c-2,0-3.7-1.5-3.7-3.4h2c0,0.8,0.8,1.4,1.7,1.4s1.7-0.6,1.7-1.4h2
			C14.2,21.1,12.5,22.6,10.5,22.6z"/>
		<path fill="#010101" d="M15.9,22.6c-2,0-3.7-1.5-3.7-3.4h2c0,0.8,0.8,1.4,1.7,1.4s1.7-0.6,1.7-1.4h2
			C19.6,21.1,17.9,22.6,15.9,22.6z"/>
		<path fill="#010101" d="M21.3,22.6c-2,0-3.7-1.5-3.7-3.4h2c0,0.8,0.8,1.4,1.7,1.4S23,20,23,19.2h2C25,21.1,23.3,22.6,21.3,22.6z"
			/>
		<path fill="#010101" d="M26.7,22.6c-2,0-3.7-1.5-3.7-3.4h2c0,0.8,0.8,1.4,1.7,1.4s1.7-0.6,1.7-1.4h2
			C30.4,21.1,28.7,22.6,26.7,22.6z"/>
		<path fill="#010101" d="M32.1,22.6c-2,0-3.7-1.5-3.7-3.4h2c0,0.8,0.8,1.4,1.7,1.4c0.9,0,1.7-0.6,1.7-1.4h2
			C35.8,21.1,34.1,22.6,32.1,22.6z"/>
		<path fill="#010101" d="M37.5,22.6c-2,0-3.7-1.5-3.7-3.4h2c0,0.8,0.8,1.4,1.7,1.4s1.7-0.6,1.7-1.4h2
			C41.2,21.1,39.5,22.6,37.5,22.6z"/>
	</g>
	<rect x="12.2" y="14.8" fill="#010101" width="2" height="2.3"/>
	<rect x="17.6" y="14.8" fill="#010101" width="2" height="2.3"/>
	<rect x="23" y="14.8" fill="#010101" width="2" height="2.3"/>
	<rect x="28.4" y="14.8" fill="#010101" width="2" height="2.3"/>
	<rect x="33.8" y="14.8" fill="#010101" width="2" height="2.3"/>
</g>
</svg>
