<?xml version="1.0" encoding="utf-8"?>
<!-- Generator: Adobe Illustrator 16.0.0, SVG Export Plug-In . SVG Version: 6.00 Build 0)  -->
<!DOCTYPE svg PUBLIC "-//W3C//DTD SVG 1.1//EN" "http://www.w3.org/Graphics/SVG/1.1/DTD/svg11.dtd">
<svg version="1.1" id="Layer_1" xmlns="http://www.w3.org/2000/svg" xmlns:xlink="http://www.w3.org/1999/xlink" x="0px" y="0px"
	 width="48px" height="48px" viewBox="0 0 48 48" enable-background="new 0 0 48 48" xml:space="preserve">
<g>
	<path d="M25.198,35.58c-6.878,0-12.473-6.415-12.473-14.301V1c0-0.552,0.448-1,1-1h27.783c0.378,0,0.724,0.213,0.894,0.551
		c0.17,0.338,0.135,0.743-0.091,1.046l-4.639,6.236v13.446C37.672,29.165,32.076,35.58,25.198,35.58z M14.725,2v19.279
		c0,6.783,4.698,12.301,10.473,12.301c5.775,0,10.474-5.519,10.474-12.301V7.502c0-0.215,0.069-0.424,0.197-0.597L39.518,2H14.725z"
		/>
	<path d="M37.178,48H13.353c-0.552,0-1-0.447-1-1v-8.307c0-0.293,0.128-0.571,0.352-0.762l4.833-4.113
		c0.181-0.153,0.411-0.238,0.648-0.238h14.16c0.237,0,0.468,0.085,0.648,0.238l4.832,4.113c0.223,0.19,0.352,0.469,0.352,0.762V47
		C38.178,47.553,37.73,48,37.178,48z M14.353,46h21.825v-6.845l-4.2-3.575H18.554l-4.201,3.575V46z"/>
	<path d="M6.492,23.635c-0.552,0-1-0.448-1-1V4.043c0-0.552,0.448-1,1-1h6.861c0.552,0,1,0.448,1,1s-0.448,1-1,1H7.492v17.592
		C7.492,23.187,7.044,23.635,6.492,23.635z"/>
	<path d="M26.643,41.789h-3.122c-0.552,0-1-0.447-1-1s0.448-1,1-1h3.122c0.553,0,1,0.447,1,1S27.195,41.789,26.643,41.789z"/>
	<path d="M28.848,9.375h-7.532c-0.552,0-1-0.448-1-1s0.448-1,1-1h7.532c0.553,0,1,0.448,1,1S29.4,9.375,28.848,9.375z"/>
	<path d="M28.848,15.619h-7.532c-0.552,0-1-0.448-1-1s0.448-1,1-1h7.532c0.553,0,1,0.448,1,1S29.4,15.619,28.848,15.619z"/>
	<path d="M28.848,21.865h-7.532c-0.552,0-1-0.448-1-1s0.448-1,1-1h7.532c0.553,0,1,0.448,1,1S29.4,21.865,28.848,21.865z"/>
	<path d="M28.848,28.109h-7.532c-0.552,0-1-0.447-1-1s0.448-1,1-1h7.532c0.553,0,1,0.447,1,1S29.4,28.109,28.848,28.109z"/>
</g>
</svg>
