<?xml version="1.0" encoding="utf-8"?>
<!-- Generator: Adobe Illustrator 16.0.0, SVG Export Plug-In . SVG Version: 6.00 Build 0)  -->
<!DOCTYPE svg PUBLIC "-//W3C//DTD SVG 1.1//EN" "http://www.w3.org/Graphics/SVG/1.1/DTD/svg11.dtd">
<svg version="1.1" id="Layer_1" xmlns="http://www.w3.org/2000/svg" xmlns:xlink="http://www.w3.org/1999/xlink" x="0px" y="0px"
	 width="48px" height="48px" viewBox="0 0 48 48" enable-background="new 0 0 48 48" xml:space="preserve">
<g>
	<g>
		<path d="M24,42.117h-7.957c-0.509,0-0.937-0.383-0.994-0.889c-0.009-0.079-0.945-8.005-5.272-12.984
			c-0.223-0.258-0.3-0.61-0.205-0.938c0.096-0.326,0.351-0.582,0.678-0.679c0.11-0.032,11.034-3.306,12.792-9.157
			c0.143-0.475,0.61-0.772,1.103-0.702C24.637,16.841,25,17.263,25,17.759v23.358C25,41.67,24.553,42.117,24,42.117z M16.91,40.117
			H23V21.476c-3.025,3.517-8.285,5.712-10.793,6.61C15.396,32.443,16.561,37.978,16.91,40.117z"/>
		<path d="M31.957,42.117H24c-0.552,0-1-0.447-1-1V17.759c0-0.496,0.364-0.917,0.854-0.989c0.496-0.07,0.961,0.227,1.104,0.702
			c1.758,5.851,12.682,9.125,12.792,9.157c0.326,0.097,0.582,0.353,0.678,0.679c0.096,0.327,0.019,0.68-0.205,0.938
			c-4.326,4.979-5.263,12.905-5.271,12.984C32.894,41.734,32.466,42.117,31.957,42.117z M25,40.117h6.09
			c0.35-2.14,1.514-7.674,4.704-12.031c-2.509-0.897-7.769-3.093-10.794-6.61V40.117z"/>
	</g>
	<path d="M10.623,48.002c-0.84,0-1.701-0.113-2.587-0.397c-0.526-0.168-0.815-0.731-0.647-1.257
		c0.168-0.526,0.731-0.814,1.257-0.647c2.081,0.666,4.113,0.095,6.264-0.513c2.089-0.589,4.25-1.198,6.656-0.771
		c0.621,0.108,1.14,0.333,1.597,0.531c0.438,0.19,0.815,0.354,1.234,0.406c0.985,0.117,1.654-0.139,2.625-0.691
		c2.286-1.294,3.783-0.662,5.369,0.007c0.392,0.165,0.809,0.342,1.273,0.502c2.096,0.723,3.835,0.399,5.312-0.985
		c0.402-0.376,1.034-0.356,1.413,0.046c0.378,0.402,0.357,1.035-0.046,1.413c-2.038,1.911-4.505,2.392-7.33,1.417
		c-0.511-0.176-0.97-0.368-1.398-0.55c-1.451-0.611-2.178-0.919-3.605-0.109c-1.258,0.714-2.344,1.118-3.856,0.937
		c-0.707-0.089-1.28-0.337-1.785-0.557c-0.407-0.177-0.758-0.329-1.147-0.396c-1.955-0.345-3.809,0.176-5.768,0.728
		C13.893,47.553,12.298,48.002,10.623,48.002z"/>
	<path d="M33.771,27.195c-0.553,0-1-0.447-1-1V14.668H15.229v11.527c0,0.553-0.448,1-1,1s-1-0.447-1-1V13.668c0-0.552,0.448-1,1-1
		h19.542c0.553,0,1,0.448,1,1v12.527C34.771,26.748,34.324,27.195,33.771,27.195z"/>
	<path d="M24,13.806c-0.552,0-1-0.448-1-1V1c0-0.552,0.448-1,1-1c0.553,0,1,0.448,1,1v11.806C25,13.358,24.553,13.806,24,13.806z"/>
</g>
</svg>
