<?xml version="1.0" encoding="utf-8"?>
<!-- Generator: Adobe Illustrator 16.0.0, SVG Export Plug-In . SVG Version: 6.00 Build 0)  -->
<!DOCTYPE svg PUBLIC "-//W3C//DTD SVG 1.1//EN" "http://www.w3.org/Graphics/SVG/1.1/DTD/svg11.dtd">
<svg version="1.1" id="Layer_1" xmlns="http://www.w3.org/2000/svg" xmlns:xlink="http://www.w3.org/1999/xlink" x="0px" y="0px"
	 width="48px" height="48px" viewBox="0 0 48 48" enable-background="new 0 0 48 48" xml:space="preserve">
<g>
	<path d="M47,17.333H1c-0.552,0-1-0.448-1-1V1c0-0.552,0.448-1,1-1h46c0.553,0,1,0.448,1,1v15.333
		C48,16.885,47.553,17.333,47,17.333z M2,15.333h44V2H2V15.333z"/>
	<path d="M47,32.666H1c-0.552,0-1-0.447-1-1V16.333c0-0.552,0.448-1,1-1h46c0.553,0,1,0.448,1,1v15.333
		C48,32.219,47.553,32.666,47,32.666z M2,30.666h44V17.333H2V30.666z"/>
	<path d="M47,48H1c-0.552,0-1-0.447-1-1V31.667c0-0.553,0.448-1,1-1h46c0.553,0,1,0.447,1,1V47C48,47.553,47.553,48,47,48z M2,46h44
		V32.667H2V46z"/>
	<rect x="0.151" y="8.541" transform="matrix(0.3512 0.9363 -0.9363 0.3512 13.1473 0.1088)" width="12.688" height="2"/>
	<rect x="41.133" y="18.885" transform="matrix(0.9362 0.3514 -0.3514 0.9362 11.5544 -13.1983)" width="2.001" height="12.689"/>
	<rect x="35.38" y="18.885" transform="matrix(0.9362 0.3514 -0.3514 0.9362 11.1874 -11.1761)" width="2.001" height="12.689"/>
	<rect x="29.628" y="18.885" transform="matrix(0.9362 0.3514 -0.3514 0.9362 10.8205 -9.1546)" width="2.001" height="12.689"/>
	<rect x="23.875" y="18.884" transform="matrix(0.9362 0.3514 -0.3514 0.9362 10.4535 -7.1329)" width="2.001" height="12.69"/>
	<rect x="15.773" y="19.547" transform="matrix(0.5635 0.8261 -0.8261 0.5635 28.7122 -2.5544)" width="2" height="12.689"/>
	<rect x="5.974" y="8.541" transform="matrix(0.3511 0.9363 -0.9363 0.3511 16.9259 -5.3422)" width="12.688" height="2"/>
	<rect x="11.796" y="8.541" transform="matrix(0.3512 0.9363 -0.9363 0.3512 20.7026 -10.7944)" width="12.688" height="2"/>
	<rect x="24" y="10.806" width="10.152" height="2"/>
</g>
</svg>
