<?xml version="1.0" encoding="utf-8"?>
<!-- Generator: Adobe Illustrator 18.0.0, SVG Export Plug-In . SVG Version: 6.00 Build 0)  -->
<!DOCTYPE svg PUBLIC "-//W3C//DTD SVG 1.1//EN" "http://www.w3.org/Graphics/SVG/1.1/DTD/svg11.dtd">
<svg version="1.1" id="Layer_1" xmlns="http://www.w3.org/2000/svg" xmlns:xlink="http://www.w3.org/1999/xlink" x="0px" y="0px"
	 viewBox="0 0 48 48" enable-background="new 0 0 48 48" xml:space="preserve">
<g>
	<path fill="#010101" d="M43.2,48H26.3L26,47.4c-0.1-0.1-0.2-0.4-0.6-1.5c-0.2-0.6-0.4-1.1-0.5-1.3l1.8-0.9c0.1,0.1,0.2,0.4,0.5,1.4
		c0.1,0.2,0.2,0.5,0.3,0.7h14.2c1.3-3.5,2-7.6,2-11.8c0-8.2-3.9-13.6-6.7-17.6C36.7,16,36.3,15.5,36,15c-0.8-1.1-0.7-3.5,0.1-4.5
		c0.5-0.7,1.2-1.3,1.9-1.8c1.2-0.9,1.8-1.5,1.8-2.5c0-2.4-2.2-4.2-5.1-4.2c-2.9,0-5.1,1.8-5.1,4.2c0,0.9,0.6,1.4,1.7,2.4
		c0.7,0.5,1.4,1.2,2,1.9c0.7,1,1,3.5-0.1,4.6c-1.5,1.8-2.8,3.6-3.8,5.3l-0.9,1.8l-1.8-0.9l0.9-1.9c1.1-1.9,2.5-3.8,4.1-5.7
		c0.3-0.4,0.2-1.7-0.1-2.1c-0.4-0.6-1-1.1-1.6-1.6c-1.2-1-2.5-2-2.5-3.9c0-3.5,3.1-6.2,7.1-6.2s7.1,2.7,7.1,6.2c0,2-1.4,3.1-2.6,4
		c-0.6,0.5-1.1,0.9-1.6,1.5c-0.2,0.4-0.2,1.8,0,2.1c0.3,0.5,0.7,1,1.1,1.6c2.8,4,7.1,10,7.1,18.8c0,4.7-0.8,9.3-2.4,13.2L43.2,48z"
		/>
	<path fill="#010101" d="M17.5,48C9,48,2.1,41.1,2.1,32.7S9,17.4,17.5,17.4c8.5,0,15.4,6.9,15.4,15.3S26,48,17.5,48z M17.5,19.4
		c-7.4,0-13.4,6-13.4,13.3S10.1,46,17.5,46s13.4-6,13.4-13.3S24.9,19.4,17.5,19.4z"/>
	<path fill="#010101" d="M12.5,28.4c-1.7,0-3-1.3-3-3s1.3-3,3-3s3,1.3,3,3S14.2,28.4,12.5,28.4z M12.5,24.4c-0.6,0-1,0.4-1,1
		s0.4,1,1,1s1-0.4,1-1S13.1,24.4,12.5,24.4z"/>
	<path fill="#010101" d="M18.8,26.9c-1.7,0-3-1.3-3-3c0-1.7,1.3-3,3-3s3,1.3,3,3C21.8,25.6,20.5,26.9,18.8,26.9z M18.8,22.9
		c-0.6,0-1,0.4-1,1s0.4,1,1,1s1-0.4,1-1S19.4,22.9,18.8,22.9z"/>
	<path fill="#010101" d="M17.1,32.7c-1.5,0-2.8-1.3-2.8-2.8s1.3-2.8,2.8-2.8s2.8,1.3,2.8,2.8S18.6,32.7,17.1,32.7z M17.1,29.1
		c-0.4,0-0.8,0.4-0.8,0.8s0.4,0.8,0.8,0.8c0.4,0,0.8-0.4,0.8-0.8S17.5,29.1,17.1,29.1z"/>
</g>
</svg>
