<?xml version="1.0" encoding="utf-8"?>
<!-- Generator: Adobe Illustrator 16.0.0, SVG Export Plug-In . SVG Version: 6.00 Build 0)  -->
<!DOCTYPE svg PUBLIC "-//W3C//DTD SVG 1.1//EN" "http://www.w3.org/Graphics/SVG/1.1/DTD/svg11.dtd">
<svg version="1.1" id="Layer_1" xmlns="http://www.w3.org/2000/svg" xmlns:xlink="http://www.w3.org/1999/xlink" x="0px" y="0px"
	 width="48px" height="48px" viewBox="0 0 48 48" enable-background="new 0 0 48 48" xml:space="preserve">
<g>
	<g>
		<path d="M4.001,39.737c-0.793,0-1.512-0.115-2.065-0.407c-0.627-0.331-1.034-0.858-1.177-1.525
			c-0.144-0.671-0.011-1.607,0.144-2.692c0.101-0.708,0.205-1.44,0.188-1.896c-0.039-1.001-0.278-1.849-0.532-2.746
			c-0.153-0.54-0.306-1.086-0.426-1.677c-0.337-1.646,0.039-3.13,0.37-4.439l0.15-0.602c0.174-0.728,0.105-1.436,0.026-2.256
			c-0.059-0.608-0.12-1.237-0.09-1.942c0.063-1.458,0.57-2.575,1.017-3.562c0.258-0.569,0.501-1.106,0.663-1.69
			c0.218-0.788,0.138-1.636,0.054-2.534c-0.079-0.836-0.16-1.7-0.019-2.609C2.37,8.727,2.71,8.389,3.144,8.324
			c3.537-0.525,8.92,2.201,11.483,4.043c2.736,1.967,6.117,4.398,7.377,7.87c0.188,0.519-0.08,1.093-0.599,1.281
			c-0.521,0.19-1.093-0.08-1.281-0.599c-1.05-2.891-4.023-5.029-6.646-6.915c-2.209-1.588-6.429-3.695-9.251-3.749
			c0.002,0.426,0.044,0.868,0.087,1.326c0.098,1.038,0.198,2.111-0.117,3.253c-0.203,0.736-0.491,1.371-0.77,1.984
			C3,17.759,2.632,18.571,2.586,19.64c-0.024,0.565,0.028,1.099,0.083,1.664c0.089,0.915,0.181,1.862-0.072,2.916l-0.156,0.626
			c-0.306,1.208-0.595,2.349-0.35,3.55c0.11,0.54,0.251,1.038,0.391,1.531c0.274,0.971,0.559,1.974,0.606,3.213
			c0.025,0.635-0.092,1.458-0.206,2.255c-0.1,0.704-0.237,1.668-0.168,1.991c0.011,0.053,0.023,0.105,0.155,0.176
			c1.176,0.62,5.224-0.426,7.572-1.388c3.347-1.366,6.801-3.462,9.989-6.063c0.429-0.348,1.058-0.284,1.407,0.144
			s0.285,1.058-0.143,1.407c-3.387,2.762-6.918,4.902-10.496,6.363C10.986,38.112,6.973,39.737,4.001,39.737z"/>
		<path d="M43.998,39.737c-2.972,0-6.986-1.625-7.199-1.712c-3.577-1.461-7.108-3.602-10.495-6.363
			c-0.428-0.35-0.492-0.979-0.144-1.407s0.978-0.494,1.407-0.144c3.188,2.6,6.642,4.696,9.988,6.063
			c2.35,0.962,6.397,2.01,7.573,1.388c0.133-0.07,0.144-0.123,0.155-0.175c0.069-0.324-0.067-1.289-0.168-1.993
			c-0.113-0.796-0.229-1.619-0.205-2.255c0.047-1.238,0.331-2.242,0.605-3.213c0.14-0.492,0.281-0.99,0.39-1.528
			c0.247-1.207-0.042-2.352-0.349-3.563l-0.153-0.613c-0.253-1.054-0.161-2.001-0.072-2.917c0.056-0.565,0.107-1.099,0.083-1.664
			c-0.046-1.07-0.414-1.881-0.841-2.821c-0.279-0.614-0.567-1.249-0.771-1.984c-0.315-1.142-0.214-2.215-0.116-3.253
			c0.043-0.458,0.084-0.9,0.087-1.327c-2.821,0.053-7.04,2.159-9.233,3.735c-2.641,1.898-5.615,4.037-6.666,6.928
			c-0.188,0.52-0.761,0.787-1.281,0.599c-0.519-0.188-0.787-0.762-0.598-1.281c1.261-3.472,4.644-5.904,7.361-7.858
			c2.58-1.854,7.955-4.583,11.499-4.055c0.433,0.065,0.773,0.403,0.841,0.835c0.142,0.91,0.06,1.774-0.019,2.611
			c-0.085,0.897-0.165,1.745,0.053,2.533c0.161,0.584,0.405,1.121,0.664,1.69c0.447,0.986,0.955,2.104,1.018,3.562
			c0.03,0.706-0.031,1.335-0.09,1.944c-0.08,0.819-0.149,1.527,0.026,2.255l0.146,0.591c0.332,1.313,0.708,2.8,0.37,4.452
			c-0.119,0.588-0.272,1.135-0.425,1.674c-0.254,0.897-0.494,1.746-0.532,2.746c-0.018,0.456,0.087,1.188,0.188,1.896
			c0.154,1.086,0.287,2.022,0.143,2.695c-0.143,0.665-0.549,1.192-1.177,1.523C45.511,39.622,44.791,39.737,43.998,39.737z"/>
	</g>
	<path d="M24.989,32.402h-1.977c-3.159,0-5.729-2.306-5.729-5.139v-2.951c0-2.834,2.57-5.139,5.729-5.139h1.977
		c3.159,0,5.729,2.305,5.729,5.139v2.951C30.719,30.097,28.148,32.402,24.989,32.402z M23.012,21.174
		c-2.056,0-3.729,1.408-3.729,3.139v2.951c0,1.73,1.673,3.139,3.729,3.139h1.977c2.057,0,3.729-1.408,3.729-3.139v-2.951
		c0-1.731-1.673-3.139-3.729-3.139H23.012z"/>
</g>
</svg>
