<?xml version="1.0" encoding="utf-8"?>
<!-- Generator: Adobe Illustrator 16.0.0, SVG Export Plug-In . SVG Version: 6.00 Build 0)  -->
<!DOCTYPE svg PUBLIC "-//W3C//DTD SVG 1.1//EN" "http://www.w3.org/Graphics/SVG/1.1/DTD/svg11.dtd">
<svg version="1.1" id="Layer_1" xmlns="http://www.w3.org/2000/svg" xmlns:xlink="http://www.w3.org/1999/xlink" x="0px" y="0px"
	 width="48px" height="48px" viewBox="0 0 48 48" enable-background="new 0 0 48 48" xml:space="preserve">
<g>
	<path d="M15.667,11.04c-0.505,0-0.939-0.382-0.993-0.896c-0.028-0.269-0.62-6.629,5.378-10.015
		c0.482-0.269,1.091-0.101,1.363,0.379c0.271,0.481,0.102,1.091-0.379,1.363c-4.869,2.748-4.377,8.012-4.372,8.065
		c0.058,0.549-0.341,1.041-0.891,1.099C15.738,11.038,15.703,11.04,15.667,11.04z"/>
	<g>
		<path d="M17.962,22.508c-1.556,0-3.17-0.515-4.546-1.45c-1.574-1.069-2.717-2.584-3.221-4.266
			c-0.525-1.755-0.298-3.481,0.64-4.861c1.041-1.532,2.823-2.41,4.889-2.41c1.556,0,3.171,0.515,4.547,1.45
			c1.574,1.07,2.717,2.584,3.22,4.265c0.525,1.755,0.298,3.482-0.64,4.862C21.81,21.63,20.028,22.508,17.962,22.508z M15.724,11.521
			c-1.393,0-2.572,0.559-3.235,1.534c-0.593,0.873-0.727,1.997-0.378,3.164c0.372,1.242,1.234,2.373,2.429,3.185
			c1.048,0.712,2.263,1.104,3.422,1.104c1.393,0,2.572-0.559,3.235-1.534c0.593-0.873,0.728-1.996,0.378-3.164
			c-0.372-1.242-1.234-2.373-2.428-3.185C18.099,11.914,16.883,11.521,15.724,11.521z"/>
		<path d="M30.035,22.51c-2.066,0-3.849-0.878-4.89-2.41c-1.89-2.781-0.731-6.875,2.582-9.128c1.377-0.935,2.992-1.45,4.548-1.45
			c2.067,0,3.85,0.878,4.89,2.41c0.938,1.379,1.165,3.106,0.64,4.862c-0.504,1.681-1.647,3.196-3.221,4.266
			C33.207,21.995,31.592,22.51,30.035,22.51z M32.275,11.521c-1.159,0-2.375,0.392-3.424,1.104c-2.401,1.632-3.322,4.48-2.052,6.35
			c0.663,0.975,1.842,1.534,3.235,1.534c1.159,0,2.376-0.393,3.425-1.105c1.194-0.812,2.057-1.943,2.429-3.185
			c0.35-1.168,0.215-2.292-0.378-3.164C34.849,12.081,33.669,11.521,32.275,11.521z"/>
	</g>
	<path d="M25.234,48h-2.468c-0.542,0-0.984-0.431-1-0.972c-0.012-0.342-0.427-8.652-9.591-8.158c-0.269,0.02-0.542-0.085-0.74-0.274
		c-0.199-0.188-0.311-0.45-0.311-0.725v-2.215c0-0.535,0.421-0.975,0.955-0.999c0.077-0.004,7.725-0.377,11.333-3.001
		c0.351-0.256,0.827-0.256,1.176,0c3.613,2.629,11.256,2.998,11.333,3.001c0.534,0.023,0.955,0.464,0.955,0.999v2.215
		c0,0.274-0.112,0.536-0.312,0.725c-0.197,0.189-0.468,0.29-0.739,0.274c-9.227-0.479-9.582,7.814-9.591,8.158
		C26.219,47.569,25.775,48,25.234,48z M23.659,46h0.683c0.396-2.516,2.226-9.051,10.534-9.149V36.59
		c-2.169-0.183-7.5-0.829-10.876-2.922c-3.376,2.093-8.707,2.739-10.876,2.922v0.261C21.432,36.949,23.262,43.484,23.659,46z"/>
	<path d="M32.332,11.04c-0.034,0-0.069-0.002-0.104-0.005c-0.549-0.057-0.947-0.548-0.892-1.096
		c0.022-0.232,0.454-5.343-4.371-8.068c-0.481-0.271-0.651-0.881-0.38-1.362s0.88-0.651,1.362-0.379
		c5.998,3.385,5.406,9.746,5.378,10.015C33.271,10.658,32.838,11.04,32.332,11.04z"/>
	<path d="M25.872,20.708h-3.744c-0.552,0-1-0.448-1-1s0.448-1,1-1h3.744c0.553,0,1,0.448,1,1S26.425,20.708,25.872,20.708z"/>
	<path d="M24,33.227c-0.552,0-1-0.447-1-1V19.995c0-0.552,0.448-1,1-1c0.553,0,1,0.448,1,1v12.231
		C25,32.779,24.553,33.227,24,33.227z"/>
</g>
</svg>
