<?xml version="1.0" encoding="utf-8"?>
<!-- Generator: Adobe Illustrator 16.0.0, SVG Export Plug-In . SVG Version: 6.00 Build 0)  -->
<!DOCTYPE svg PUBLIC "-//W3C//DTD SVG 1.1//EN" "http://www.w3.org/Graphics/SVG/1.1/DTD/svg11.dtd">
<svg version="1.1" id="Layer_1" xmlns="http://www.w3.org/2000/svg" xmlns:xlink="http://www.w3.org/1999/xlink" x="0px" y="0px"
	 width="48px" height="48px" viewBox="0 0 48 48" enable-background="new 0 0 48 48" xml:space="preserve">
<g>
	<path d="M13.69,47.765c-0.522-0.026-5.271-1.335-5.307-1.348c-4.35-1.568-4.493-6.125-4.498-6.318L3.376,17.022
		c-1.368-0.674-3.65-2.505-3.351-6.089c0.326-3.938,3.462-5.708,3.972-5.969c11.425-7.29,22.52-4.996,28.117-2.977l-0.678,1.882
		c-5.26-1.897-15.685-4.054-26.405,2.807L4.923,6.737C4.819,6.788,2.27,8.069,2.019,11.099c-0.274,3.292,2.525,4.255,2.554,4.262
		l0.763,0.172l0.027,0.784l0.523,23.74c0.004,0.135,0.136,3.384,3.172,4.479c0.383,0.119,4.39,1.173,4.8,1.239L13.69,47.765z"/>
	<path d="M16.896,48c-0.95,0-1.721-0.014-2.244-0.043c-4.24-0.238-4.598-5.833-4.611-6.07L9.529,18.774
		c-1.367-0.676-3.649-2.507-3.351-6.088C6.504,8.75,9.642,6.979,10.15,6.717c5.391-3.439,11.081-5.183,16.915-5.183
		c9.935,0,16.569,5.017,16.629,5.067c0.06,0.044,0.178,0.11,0.324,0.197c1.17,0.691,3.91,2.31,3.982,5.771
		c0.064,3.222-2.608,5.143-3.846,5.858c0.09,3.454,0.502,19.689,0.455,23.68c-0.046,4.131-3.188,5.233-5.039,5.233l0,0
		C39.397,47.346,23.549,48,16.896,48z M27.064,3.534c-5.461,0-10.804,1.647-15.88,4.895l-0.108,0.06
		c-0.104,0.051-2.654,1.335-2.905,4.362c-0.274,3.291,2.526,4.255,2.554,4.262l0.762,0.172l0.026,0.783l0.526,23.74
		c0.001,0.006,0.268,4.014,2.726,4.152c4.133,0.229,24.528-0.612,24.709-0.62c0.801,0,3.102-0.235,3.135-3.256
		c0.051-4.34-0.465-24.027-0.471-24.226l-0.018-0.667l0.609-0.272c0.03-0.014,3.325-1.543,3.27-4.311
		c-0.049-2.346-1.968-3.48-3-4.089c-0.285-0.168-0.498-0.305-0.611-0.402C42.341,8.079,36.152,3.534,27.064,3.534z"/>
	<ellipse cx="24.46" cy="16.415" rx="2.001" ry="2.254"/>
	<ellipse cx="34.602" cy="29.813" rx="3.301" ry="3.718"/>
	<ellipse cx="20.342" cy="34.949" rx="3.261" ry="3.673"/>
</g>
</svg>
