<?xml version="1.0" encoding="utf-8"?>
<!-- Generator: Adobe Illustrator 16.0.0, SVG Export Plug-In . SVG Version: 6.00 Build 0)  -->
<!DOCTYPE svg PUBLIC "-//W3C//DTD SVG 1.1//EN" "http://www.w3.org/Graphics/SVG/1.1/DTD/svg11.dtd">
<svg version="1.1" id="Layer_1" xmlns="http://www.w3.org/2000/svg" xmlns:xlink="http://www.w3.org/1999/xlink" x="0px" y="0px"
	 width="48px" height="48px" viewBox="0 0 48 48" enable-background="new 0 0 48 48" xml:space="preserve">
<g>
	<path d="M28.668,47.999L28.668,47.999h-0.004c-10.841,0-19.334-4.184-19.334-9.524c0-5.342,8.493-9.525,19.334-9.525
		C39.507,28.949,48,33.133,48,38.475c0,2.688-2.112,5.151-5.948,6.935C38.461,47.079,33.707,47.999,28.668,47.999z M28.664,30.949
		c-10.369,0-17.334,3.892-17.334,7.525s6.965,7.524,17.334,7.524h0.004c4.754,0,9.208-0.854,12.541-2.403
		C44.254,42.18,46,40.313,46,38.475C46,34.841,39.034,30.949,28.664,30.949z M25.897,42.681c-0.97,0-1.792-0.06-2.445-0.177
		c-1.476-0.269-2.788-1.388-3.284-1.856c-0.613-0.579-1.347-1.4-1.576-2.614l-0.038-0.188c-0.158-0.784-0.487-2.416,1.012-3.24
		c0.386-0.212,0.929-0.334,1.492-0.334c0.532,0,1.505,0.109,2.057,0.845c0.319,0.426,0.411,0.869,0.472,1.162
		c0.005,0.024,0.009,0.049,0.014,0.073c0.035,0.002,0.077,0.005,0.128,0.005c0.281,0,0.489-0.163,0.931-0.563
		c0.366-0.331,0.781-0.705,1.368-0.947c0.882-0.365,1.695-0.396,2.521-0.396l0.512,0.001c1.393,0,2.34,0.309,3.38,1.101
		c0.538,0.408,1.037,0.786,1.491,0.805c0.114-0.053,0.254-0.344,0.337-0.518c0.263-0.549,0.752-1.568,1.98-1.568
		c0.282,0,0.575,0.056,0.895,0.171c0.285,0.102,0.513,0.268,0.688,0.405c1.32,0.418,1.104,2.464,1.046,2.881
		c-0.209,1.527-1.017,2.217-2.251,2.833c-2.154,1.078-4.908,1.755-8.183,2.013C27.516,42.645,26.66,42.681,25.897,42.681z
		 M21.058,36.271c-0.275,0-0.478,0.06-0.528,0.086c-0.163,0.09-0.166,0.345-0.015,1.093l0.042,0.212
		c0.097,0.514,0.392,0.973,0.985,1.533c0.588,0.557,1.493,1.201,2.266,1.341c0.979,0.177,2.557,0.191,4.48,0.044
		c3.015-0.237,5.521-0.846,7.444-1.808c0.917-0.457,1.079-0.705,1.163-1.319c0.035-0.247,0.035-0.588,0.008-0.804
		c-0.032-0.019-0.063-0.037-0.091-0.059l-0.158-0.123c-0.064-0.052-0.161-0.13-0.2-0.149c-0.127-0.045-0.193-0.047-0.205-0.047
		c0.021,0.022-0.099,0.27-0.177,0.433c-0.277,0.578-0.793,1.653-2.127,1.653c-1.176-0.044-2.032-0.694-2.657-1.169
		c-0.747-0.568-1.273-0.736-2.228-0.736l-0.512-0.001c-0.662,0-1.211,0.018-1.756,0.243c-0.269,0.11-0.511,0.33-0.792,0.584
		c-0.504,0.455-1.194,1.078-2.269,1.078c-1.76-0.016-2.001-1.177-2.104-1.673c-0.033-0.16-0.062-0.298-0.113-0.366
		C21.515,36.332,21.337,36.271,21.058,36.271z"/>
	<path d="M10.6,38.018c-0.082,0-0.166-0.01-0.249-0.031C4.256,36.424,0,31.448,0,25.887V11.719c0-0.552,0.448-1,1-1h27.665
		c0.553,0,1,0.448,1,1v14.168c0,1.535-0.315,3.039-0.938,4.471c-0.22,0.506-0.808,0.739-1.315,0.519
		c-0.507-0.22-0.739-0.809-0.519-1.315c0.512-1.179,0.771-2.414,0.771-3.674V12.719H2v13.168c0,4.647,3.638,8.827,8.848,10.162
		c0.535,0.138,0.857,0.682,0.72,1.217C11.452,37.718,11.045,38.018,10.6,38.018z"/>
	<path d="M33.049,27.76h-0.431c-2.731,0-4.954-2.189-4.954-4.88v-5.84c0-2.691,2.223-4.881,4.954-4.881h0.431
		c2.732,0,4.955,2.189,4.955,4.881v5.84C38.004,25.57,35.781,27.76,33.049,27.76z M32.618,14.159c-1.629,0-2.954,1.292-2.954,2.881
		v5.84c0,1.588,1.325,2.88,2.954,2.88h0.431c1.63,0,2.955-1.292,2.955-2.88v-5.84c0-1.588-1.325-2.881-2.955-2.881H32.618z"/>
	<g>
		<path d="M20.17,8.76c-0.552,0-1-0.448-1-1V3.772c0-0.552,0.448-1,1-1s1,0.448,1,1V7.76C21.17,8.312,20.722,8.76,20.17,8.76z"/>
		<path d="M14.833,8.76c-0.552,0-1-0.448-1-1V1c0-0.552,0.448-1,1-1s1,0.448,1,1v6.76C15.833,8.312,15.385,8.76,14.833,8.76z"/>
		<path d="M9.494,8.76c-0.552,0-1-0.448-1-1V3.772c0-0.552,0.448-1,1-1s1,0.448,1,1V7.76C10.494,8.312,10.046,8.76,9.494,8.76z"/>
	</g>
</g>
</svg>
