<?xml version="1.0" encoding="utf-8"?>
<!-- Generator: Adobe Illustrator 16.0.0, SVG Export Plug-In . SVG Version: 6.00 Build 0)  -->
<!DOCTYPE svg PUBLIC "-//W3C//DTD SVG 1.1//EN" "http://www.w3.org/Graphics/SVG/1.1/DTD/svg11.dtd">
<svg version="1.1" id="Layer_1" xmlns="http://www.w3.org/2000/svg" xmlns:xlink="http://www.w3.org/1999/xlink" x="0px" y="0px"
	 width="48px" height="48px" viewBox="0 0 48 48" enable-background="new 0 0 48 48" xml:space="preserve">
<g>
	<path d="M4.081,37.089c-2.04,0-3.337-0.547-3.857-1.623c-0.899-1.865,0.835-4.464,5.303-7.944
		c3.925-3.059,9.486-6.382,15.657-9.358c9.135-4.405,18.059-7.252,22.734-7.252c2.039,0,3.337,0.546,3.855,1.623
		C50,17.15,35.037,25.87,26.814,29.836C17.68,34.242,8.756,37.089,4.081,37.089z M43.918,12.911c-4.397,0-12.98,2.769-21.865,7.054
		c-6.048,2.917-11.48,6.16-15.297,9.134c-4.38,3.413-4.896,5.156-4.73,5.498c0.088,0.183,0.62,0.492,2.055,0.492
		c4.397,0,12.98-2.77,21.864-7.054c14.217-6.857,20.688-13.264,20.027-14.633C45.885,13.22,45.353,12.911,43.918,12.911z"/>
	<path d="M24.389,27.493c-0.244,0-0.485-0.089-0.673-0.261l-6.244-5.68c-0.409-0.372-0.438-1.004-0.067-1.413
		c0.372-0.407,1.005-0.439,1.413-0.067l4.463,4.06l-0.28-6.137c-0.025-0.552,0.402-1.019,0.954-1.044
		c0.545-0.022,1.019,0.402,1.044,0.954l0.389,8.542c0.019,0.404-0.208,0.779-0.573,0.951C24.679,27.462,24.533,27.493,24.389,27.493
		z"/>
	<path d="M14.653,31.764c-0.181,0-0.362-0.049-0.523-0.147l-6.463-3.964c-0.471-0.289-0.618-0.904-0.33-1.375
		c0.29-0.47,0.905-0.617,1.375-0.33l4.595,2.818l-0.856-5.173c-0.09-0.545,0.278-1.06,0.823-1.15c0.551-0.092,1.06,0.278,1.15,0.823
		l1.215,7.335c0.064,0.386-0.103,0.774-0.428,0.993C15.042,31.707,14.848,31.764,14.653,31.764z"/>
	<path d="M34.125,22.076c-0.234,0-0.466-0.083-0.65-0.24l-5.818-4.98c-0.42-0.359-0.469-0.99-0.109-1.41
		c0.361-0.42,0.992-0.466,1.41-0.109l4.341,3.716l0.472-5.385c0.049-0.55,0.543-0.962,1.083-0.909
		c0.551,0.048,0.957,0.533,0.909,1.083l-0.641,7.321c-0.032,0.373-0.271,0.697-0.618,0.838
		C34.381,22.052,34.253,22.076,34.125,22.076z"/>
</g>
</svg>
