<?xml version="1.0" encoding="utf-8"?>
<!-- Generator: Adobe Illustrator 16.0.0, SVG Export Plug-In . SVG Version: 6.00 Build 0)  -->
<!DOCTYPE svg PUBLIC "-//W3C//DTD SVG 1.1//EN" "http://www.w3.org/Graphics/SVG/1.1/DTD/svg11.dtd">
<svg version="1.1" id="Layer_1" xmlns="http://www.w3.org/2000/svg" xmlns:xlink="http://www.w3.org/1999/xlink" x="0px" y="0px"
	 width="48px" height="48px" viewBox="0 0 48 48" enable-background="new 0 0 48 48" xml:space="preserve">
<g>
	<path d="M29.464,37.749C29.463,37.749,29.463,37.749,29.464,37.749c-1.845,0-3.645-0.195-5.35-0.58
		c-3.159-0.714-6.356-0.855-9.448-0.992C7.612,35.863,0.95,35.568,0.007,27.492c-0.023-0.199,0.014-0.4,0.106-0.577
		c0.106-0.205,2.666-5.075,7.284-9.533c0.358-0.345,0.915-0.375,1.308-0.071c0.992,0.77,2.748,2.299,4.154,4.411
		c-0.583-1.776-1.545-3.562-3.09-4.898c-0.225-0.195-0.352-0.48-0.346-0.778c0.007-0.298,0.146-0.578,0.38-0.763
		c3.056-2.415,6.259-3.981,9.521-4.655c0.528-0.111,1.052,0.224,1.176,0.751c0.042,0.182,0.083,0.338,0.113,0.453
		c0.545,0.639,2.259,2.789,3.294,5.662c-0.155-1.956-0.694-3.995-1.933-5.639c-0.226-0.3-0.265-0.702-0.1-1.04
		c0.165-0.338,0.505-0.555,0.881-0.562l0.448-0.004c0.458,0,0.921,0.014,1.392,0.056c3.115,0.26,6.195,1.097,9.149,2.485
		c0.275,0.129,0.478,0.378,0.548,0.675c0.242,1.027,0.72,3.551,0.396,6.367c0.54-1.344,0.911-2.824,0.907-4.329
		c-0.001-0.367,0.199-0.705,0.521-0.88c0.322-0.177,0.714-0.161,1.022,0.039c7.24,4.69,11.249,11.774,10.828,14.59
		C47.404,32.998,38.58,37.749,29.464,37.749z M2.033,27.57c0.823,5.795,5.18,6.273,12.722,6.608c3.031,0.134,6.467,0.286,9.8,1.039
		c1.561,0.353,3.212,0.531,4.908,0.531c8.958,0,16.222-4.768,16.526-6.794c0.228-1.521-2.508-7.205-8.529-11.642
		c-0.61,4.08-3.14,7.602-4.718,9.185c-0.9,0.904-1.346,1.029-1.693,1.029c0,0,0,0-0.001,0c-0.376,0-0.788-0.247-0.959-0.582
		c-0.329-0.646,0.019-1.325,0.823-2.43c2.535-3.484,1.88-8.37,1.534-10.121c-2.546-1.141-5.185-1.84-7.853-2.083
		c2.481,4.991,0.958,11.312,0.193,12.846c-0.115,0.229-0.464,0.931-1.201,0.932h0c-0.294,0-0.627-0.157-0.817-0.381
		c-0.351-0.415-0.393-1.013-0.165-2.37c0.894-5.307-3.59-10.299-3.636-10.349c-0.054-0.059-0.1-0.124-0.138-0.194
		c-2.331,0.614-4.636,1.742-6.876,3.364c4.086,4.432,4.021,11.588,3.471,13.065c-0.282,0.76-0.853,0.842-1.084,0.843
		c-0.001,0-0.001,0-0.002,0c-1.165,0-1.28-1.421-1.365-2.459c-0.307-3.745-3.093-6.685-4.818-8.166
		C4.743,22.917,2.594,26.567,2.033,27.57z"/>
</g>
</svg>
