<?xml version="1.0" encoding="utf-8"?>
<!-- Generator: Adobe Illustrator 16.0.0, SVG Export Plug-In . SVG Version: 6.00 Build 0)  -->
<!DOCTYPE svg PUBLIC "-//W3C//DTD SVG 1.1//EN" "http://www.w3.org/Graphics/SVG/1.1/DTD/svg11.dtd">
<svg version="1.1" id="Layer_1" xmlns="http://www.w3.org/2000/svg" xmlns:xlink="http://www.w3.org/1999/xlink" x="0px" y="0px"
	 width="48px" height="48px" viewBox="0 0 48 48" enable-background="new 0 0 48 48" xml:space="preserve">
<g>
	<path d="M12.19,17.964c0,0.899-0.746,1.629-1.667,1.629c-0.92,0-1.666-0.73-1.666-1.629c0-0.898,0.746-1.628,1.666-1.628
		C11.445,16.336,12.19,17.066,12.19,17.964"/>
	<path d="M20.003,26.451c0,0.898-0.746,1.629-1.667,1.629c-0.92,0-1.666-0.729-1.666-1.629c0-0.898,0.746-1.628,1.666-1.628
		C19.258,24.823,20.003,25.553,20.003,26.451"/>
	<path d="M11.651,32.514c0,0.898-0.746,1.629-1.667,1.629c-0.92,0-1.666-0.729-1.666-1.629c0-0.898,0.746-1.629,1.666-1.629
		C10.906,30.885,11.651,31.615,11.651,32.514"/>
	<path d="M23.879,42.466L23.879,42.466c-0.281,0-0.493-0.027-0.594-0.044c-0.955-0.081-12.669-1.086-16.641-1.842
		c-1.687-0.321-2.898-1.028-3.602-2.104c-0.747-1.142-0.65-2.302-0.586-2.701V18.346c-1.942-1.83-2.739-3.673-2.371-5.482
		c0.53-2.606,3.349-4.072,4.019-4.295c0.193-0.064,0.422-0.146,0.684-0.239c2.085-0.741,6.423-2.283,11.996-2.283
		c2.916,0,5.827,0.423,8.651,1.257c3.057,0.903,4.864,2.422,5.373,4.516c0.869,3.581-2.562,7.529-3.672,8.691
		c0.119,2.357,0.654,13.154,0.654,17.159c0,1.781-0.49,3.105-1.458,3.934C25.498,42.316,24.538,42.466,23.879,42.466z M16.783,8.046
		c-5.228,0-9.195,1.41-11.326,2.167c-0.275,0.098-0.515,0.183-0.719,0.251c-0.357,0.131-2.397,1.221-2.7,2.832
		c-0.216,1.15,0.484,2.449,2.08,3.858l0.338,0.298L4.431,36.087c-0.002,0.015-0.128,0.685,0.3,1.318
		c0.399,0.59,1.168,0.997,2.287,1.21c3.952,0.752,16.355,1.808,16.48,1.818l0.111,0.016c0.017,0.003,0.121,0.017,0.269,0.017
		c0,0,0,0,0,0c0.321,0,0.782-0.066,1.151-0.382c0.627-0.537,0.759-1.61,0.759-2.415c0-4.36-0.668-17.366-0.675-17.497l-0.023-0.456
		l0.33-0.317c1.166-1.121,4.058-4.582,3.441-7.111c-0.329-1.349-1.673-2.381-3.995-3.067C22.227,8.441,19.507,8.046,16.783,8.046z"
		/>
	<path d="M24.706,42.467v-2c4.529,0,13.78-1.39,16.962-1.926c0.601-0.102,2.561-0.61,2.561-2.896c0-4.358-0.668-17.245-0.675-17.375
		l-0.022-0.431l0.3-0.313c0.027-0.029,2.728-2.888,2.066-5.372c-0.394-1.481-1.962-2.636-4.661-3.434
		c-5.489-1.621-13.502-1.217-19.938-0.892c-2.145,0.108-4.171,0.21-5.819,0.218l-0.01-2c1.603-0.008,3.606-0.108,5.728-0.215
		c6.589-0.333,14.79-0.747,20.605,0.971c3.419,1.01,5.447,2.64,6.03,4.845c0.788,2.986-1.426,5.947-2.261,6.929
		c0.117,2.281,0.656,13.05,0.656,17.068c0,3.066-2.277,4.539-4.228,4.869C38.772,41.057,29.373,42.467,24.706,42.467z"/>
</g>
</svg>
