<?xml version="1.0" encoding="utf-8"?>
<!-- Generator: Adobe Illustrator 18.0.0, SVG Export Plug-In . SVG Version: 6.00 Build 0)  -->
<!DOCTYPE svg PUBLIC "-//W3C//DTD SVG 1.1//EN" "http://www.w3.org/Graphics/SVG/1.1/DTD/svg11.dtd">
<svg version="1.1" id="Layer_1" xmlns="http://www.w3.org/2000/svg" xmlns:xlink="http://www.w3.org/1999/xlink" x="0px" y="0px"
	 viewBox="0 0 48 48" enable-background="new 0 0 48 48" xml:space="preserve">
<g>
	<rect x="46" y="1" fill="#010101" width="2" height="46"/>
	<rect x="1" y="36" fill="#010101" width="46" height="2"/>
	<rect y="10.8" fill="#010101" width="2" height="36.2"/>
	<path fill="#010101" d="M39.4,34.4c-2.7,0-4.9-2.2-4.9-4.9s2.2-4.9,4.9-4.9c2.7,0,4.9,2.2,4.9,4.9S42.1,34.4,39.4,34.4z M39.4,26.6
		c-1.6,0-2.9,1.3-2.9,2.9s1.3,2.9,2.9,2.9c1.6,0,2.9-1.3,2.9-2.9S41,26.6,39.4,26.6z"/>
	<path fill="#010101" d="M33.1,34.5H3.5v-1c0-8.5,16.2-9.7,25.9-9.7c1.7,0,2.8,0,2.8,0l1,0V34.5z M5.6,32.5h25.5v-6.7
		c-0.4,0-1,0-1.7,0C18.5,25.8,7,27.5,5.6,32.5z"/>
	<rect x="1" y="17.2" fill="#010101" width="46" height="2"/>
	<path fill="#010101" d="M39.4,15.7c-2.7,0-4.9-2.2-4.9-4.9c0-2.7,2.2-4.9,4.9-4.9c2.7,0,4.9,2.2,4.9,4.9
		C44.3,13.5,42.1,15.7,39.4,15.7z M39.4,7.9c-1.6,0-2.9,1.3-2.9,2.9s1.3,2.9,2.9,2.9c1.6,0,2.9-1.3,2.9-2.9S41,7.9,39.4,7.9z"/>
	<path fill="#010101" d="M33.1,15.8H3.5v-1c0-8.5,16.2-9.7,25.9-9.7c1.7,0,2.8,0,2.8,0l1,0V15.8z M5.6,13.8h25.5V7.1
		c-0.4,0-1,0-1.7,0c-3.3,0-9.5,0.2-14.8,1.4C9.2,9.6,6.3,11.4,5.6,13.8z"/>
</g>
</svg>
