<?xml version="1.0" encoding="utf-8"?>
<!-- Generator: Adobe Illustrator 16.0.0, SVG Export Plug-In . SVG Version: 6.00 Build 0)  -->
<!DOCTYPE svg PUBLIC "-//W3C//DTD SVG 1.1//EN" "http://www.w3.org/Graphics/SVG/1.1/DTD/svg11.dtd">
<svg version="1.1" id="Layer_1" xmlns="http://www.w3.org/2000/svg" xmlns:xlink="http://www.w3.org/1999/xlink" x="0px" y="0px"
	 width="48px" height="48px" viewBox="0 0 48 48" enable-background="new 0 0 48 48" xml:space="preserve">
<g>
	<path d="M28.124,36.729c-0.065,0-0.131-0.007-0.194-0.02l-5.161-1.024c-0.542-0.107-0.894-0.634-0.786-1.175
		c0.107-0.542,0.63-0.897,1.176-0.786l5.018,0.996l17.682-1.634l-3.22-22.111L27.754,9.933L2,17.292v12.224l1.476,0.294
		c0.542,0.107,0.894,0.634,0.786,1.176c-0.108,0.541-0.633,0.898-1.176,0.785l-2.281-0.453C0.337,31.225,0,30.814,0,30.337v-13.8
		c0-0.446,0.296-0.839,0.725-0.961l26.649-7.614c0.11-0.033,0.231-0.044,0.344-0.036l15.863,1.11c0.47,0.033,0.853,0.388,0.92,0.854
		l3.488,23.951c0.04,0.271-0.034,0.548-0.203,0.763c-0.17,0.216-0.421,0.353-0.694,0.378l-18.876,1.744
		C28.186,36.728,28.154,36.729,28.124,36.729z"/>
	<path d="M16.74,34.466c-0.064,0-0.13-0.006-0.196-0.02l-8.559-1.7c-0.542-0.107-0.894-0.634-0.786-1.176
		c0.108-0.541,0.631-0.899,1.176-0.785l8.559,1.7c0.542,0.107,0.894,0.634,0.786,1.176C17.625,34.137,17.208,34.466,16.74,34.466z"
		/>
	<path d="M28.771,36.034c-0.526,0-0.967-0.411-0.997-0.943l-1.438-25.16c-0.032-0.551,0.39-1.024,0.941-1.056
		c0.522-0.032,1.023,0.39,1.055,0.941l1.438,25.161c0.032,0.551-0.39,1.023-0.941,1.055C28.81,36.033,28.79,36.034,28.771,36.034z"
		/>
	<path d="M28.771,25.521c-0.531,0-0.973-0.418-0.998-0.954c-0.025-0.551,0.401-1.019,0.953-1.045l16.738-0.775
		c0.552-0.025,1.019,0.401,1.045,0.953c0.025,0.552-0.401,1.02-0.953,1.045l-16.738,0.775
		C28.802,25.521,28.786,25.521,28.771,25.521z"/>
	<path d="M32.814,31.9h-1.256c-0.553,0-1-0.447-1-1s0.447-1,1-1h1.256c0.553,0,1,0.447,1,1S33.367,31.9,32.814,31.9z"/>
	<path d="M43.329,31.184H42.07c-0.553,0-1-0.447-1-1s0.447-1,1-1h1.259c0.553,0,1,0.447,1,1S43.882,31.184,43.329,31.184z"/>
	<path d="M28.054,35.675c-0.312,0-0.619-0.146-0.814-0.418l-7.533-10.531L1.594,23.992c-0.552-0.022-0.981-0.488-0.958-1.04
		c0.022-0.552,0.483-0.975,1.04-0.958l18.6,0.753c0.308,0.012,0.593,0.167,0.773,0.417l7.818,10.929
		c0.321,0.449,0.218,1.074-0.231,1.396C28.458,35.614,28.255,35.675,28.054,35.675z"/>
	<path d="M4.42,23.326c-0.552,0-1-0.448-1-1v-6.072c0-0.552,0.448-1,1-1s1,0.448,1,1v6.072C5.42,22.878,4.972,23.326,4.42,23.326z"
		/>
	<path d="M10.98,23.993c-0.552,0-1-0.448-1-1v-8.717c0-0.552,0.448-1,1-1s1,0.448,1,1v8.717
		C11.98,23.545,11.532,23.993,10.98,23.993z"/>
	<path d="M19.697,23.993c-0.552,0-1-0.448-1-1V11.896c0-0.552,0.448-1,1-1s1,0.448,1,1v11.097
		C20.697,23.545,20.249,23.993,19.697,23.993z"/>
	<path d="M5.74,36.034c-1.946,0-3.471-2.116-3.471-4.818c0-2.701,1.525-4.817,3.471-4.817s3.471,2.116,3.471,4.817
		C9.211,33.918,7.687,36.034,5.74,36.034z M5.74,28.398c-0.694,0-1.471,1.205-1.471,2.817c0,1.613,0.777,2.818,1.471,2.818
		s1.471-1.205,1.471-2.818C7.211,29.604,6.435,28.398,5.74,28.398z"/>
	<path d="M19.842,40.078c-2.321,0-4.14-2.57-4.14-5.852c0-3.282,1.818-5.853,4.14-5.853c2.322,0,4.14,2.57,4.14,5.853
		C23.982,37.508,22.164,40.078,19.842,40.078z M19.842,30.374c-1.012,0-2.14,1.582-2.14,3.853c0,2.27,1.127,3.852,2.14,3.852
		s2.14-1.582,2.14-3.852C21.982,31.956,20.854,30.374,19.842,30.374z"/>
</g>
</svg>
