<?xml version="1.0" encoding="utf-8"?>
<!-- Generator: Adobe Illustrator 16.0.0, SVG Export Plug-In . SVG Version: 6.00 Build 0)  -->
<!DOCTYPE svg PUBLIC "-//W3C//DTD SVG 1.1//EN" "http://www.w3.org/Graphics/SVG/1.1/DTD/svg11.dtd">
<svg version="1.1" id="Layer_1" xmlns="http://www.w3.org/2000/svg" xmlns:xlink="http://www.w3.org/1999/xlink" x="0px" y="0px"
	 width="48px" height="48px" viewBox="0 0 48 48" enable-background="new 0 0 48 48" xml:space="preserve">
<g>
	<g>
		<ellipse cx="28.578" cy="23.184" rx="1.213" ry="1.205"/>
		<ellipse cx="34.462" cy="23.184" rx="1.213" ry="1.205"/>
		<ellipse cx="40.346" cy="23.184" rx="1.213" ry="1.205"/>
	</g>
	<g>
		<ellipse cx="28.578" cy="30.205" rx="1.213" ry="1.204"/>
		<ellipse cx="34.462" cy="30.205" rx="1.213" ry="1.204"/>
		<ellipse cx="40.346" cy="30.205" rx="1.213" ry="1.204"/>
	</g>
	<g>
		<ellipse cx="28.578" cy="37.227" rx="1.213" ry="1.205"/>
		<ellipse cx="34.462" cy="37.227" rx="1.213" ry="1.205"/>
		<ellipse cx="40.346" cy="37.227" rx="1.213" ry="1.205"/>
	</g>
	<path d="M46.126,43.133H22.799c-0.552,0-1-0.447-1-1V6.25c0-0.552,0.448-1,1-1h4.881c0.553,0,1,0.448,1,1s-0.447,1-1,1h-3.881
		v33.883h21.327V7.25h-3.925c-0.553,0-1-0.448-1-1s0.447-1,1-1h4.925c0.553,0,1,0.448,1,1v35.883
		C47.126,42.686,46.679,43.133,46.126,43.133z"/>
	<path d="M19.593,43.132h-9.154c-0.552,0-1-0.447-1-1V6.25c0-0.552,0.448-1,1-1h9.154c0.552,0,1,0.448,1,1v35.882
		C20.593,42.685,20.145,43.132,19.593,43.132z M11.439,41.132h7.154V7.25h-7.154V41.132z"/>
	<path d="M42.521,18.64H26.402c-0.553,0-1-0.448-1-1s0.447-1,1-1h16.119c0.553,0,1,0.448,1,1S43.074,18.64,42.521,18.64z"/>
	<path d="M41.08,18.576c-0.005,0-0.013,0.001-0.02,0H27.863c-0.273,0-0.535-0.112-0.724-0.31s-0.288-0.464-0.275-0.737l0.781-16.576
		C27.671,0.419,28.11,0,28.645,0h11.635c0.534,0,0.974,0.419,0.999,0.953L42.05,17.33c0.021,0.079,0.03,0.161,0.03,0.246
		C42.08,18.128,41.633,18.576,41.08,18.576z M28.911,16.576h11.102L39.325,2h-9.727L28.911,16.576z"/>
	<path d="M36.626,5.705h-4.437c-0.553,0-1-0.448-1-1s0.447-1,1-1h4.437c0.553,0,1,0.448,1,1S37.179,5.705,36.626,5.705z"/>
	<path d="M36.626,10.775h-4.437c-0.553,0-1-0.448-1-1s0.447-1,1-1h4.437c0.553,0,1,0.448,1,1S37.179,10.775,36.626,10.775z"/>
	<path d="M8.891,48c-0.455,0-0.908-0.041-1.352-0.125c-4.498-0.852-6.59-8.562-6.664-11.486c-0.014-0.552,0.422-1.011,0.974-1.025
		c0.542-0.014,1.011,0.422,1.025,0.975C2.951,39.38,5.08,45.374,7.91,45.91c1.592,0.303,3.413-0.172,4.536-1.174
		c0.557-0.498,1.202-1.36,1.107-2.646c-0.041-0.551,0.373-1.03,0.923-1.07c0.563-0.048,1.03,0.373,1.071,0.924
		c0.121,1.636-0.507,3.157-1.769,4.283C12.51,47.359,10.693,48,8.891,48z"/>
</g>
</svg>
