<?xml version="1.0" encoding="utf-8"?>
<!-- Generator: Adobe Illustrator 18.0.0, SVG Export Plug-In . SVG Version: 6.00 Build 0)  -->
<!DOCTYPE svg PUBLIC "-//W3C//DTD SVG 1.1//EN" "http://www.w3.org/Graphics/SVG/1.1/DTD/svg11.dtd">
<svg version="1.1" id="Layer_1" xmlns="http://www.w3.org/2000/svg" xmlns:xlink="http://www.w3.org/1999/xlink" x="0px" y="0px"
	 viewBox="0 0 48 48" enable-background="new 0 0 48 48" xml:space="preserve">
<g>
	<path d="M44.7,37.5H3.3c-1.9,0-3.3-1.4-3.3-3.3V8.5c0-1.9,1.4-3.3,3.3-3.3h41.5c1.9,0,3.3,1.4,3.3,3.3v25.7
		C48,36.1,46.5,37.5,44.7,37.5z M3.3,7.2C2.5,7.2,2,7.7,2,8.5v25.7c0,0.8,0.5,1.3,1.3,1.3h41.4c0.8,0,1.3-0.6,1.4-1.4l0-25.6
		c0-0.8-0.5-1.3-1.3-1.3H3.3z"/>
	<rect x="23" y="36.5" width="2" height="5.3"/>
	<rect x="11.1" y="40.8" width="25.8" height="2"/>
</g>
</svg>
