<?xml version="1.0" encoding="utf-8"?>
<!-- Generator: Adobe Illustrator 18.0.0, SVG Export Plug-In . SVG Version: 6.00 Build 0)  -->
<!DOCTYPE svg PUBLIC "-//W3C//DTD SVG 1.1//EN" "http://www.w3.org/Graphics/SVG/1.1/DTD/svg11.dtd">
<svg version="1.1" id="Layer_1" xmlns="http://www.w3.org/2000/svg" xmlns:xlink="http://www.w3.org/1999/xlink" x="0px" y="0px"
	 viewBox="0 0 48 48" enable-background="new 0 0 48 48" xml:space="preserve">
<g>
	<path fill="#010101" d="M47,48.5H1c-0.6,0-1-0.4-1-1V4.9c0-0.6,0.4-1,1-1h46c0.6,0,1,0.4,1,1v42.6C48,48.1,47.6,48.5,47,48.5z
		 M2,46.5h44V5.9H2V46.5z"/>
	<g>
		<rect x="7.9" y="0.5" fill="#010101" width="2" height="8.9"/>
		<rect x="38.1" y="0.5" fill="#010101" width="2" height="8.9"/>
	</g>
	<g>
		<rect x="6.5" y="19.6" fill="#010101" width="3.2" height="2"/>
		<rect x="17.1" y="19.6" fill="#010101" width="3.2" height="2"/>
		<rect x="27.7" y="19.6" fill="#010101" width="3.2" height="2"/>
		<rect x="38.3" y="19.6" fill="#010101" width="3.2" height="2"/>
	</g>
	<g>
		<rect x="6.5" y="26.1" fill="#010101" width="3.2" height="2"/>
		<rect x="17.1" y="26.1" fill="#010101" width="3.2" height="2"/>
		<rect x="27.7" y="26.1" fill="#010101" width="3.2" height="2"/>
		<rect x="38.3" y="26.1" fill="#010101" width="3.2" height="2"/>
	</g>
	<g>
		<rect x="6.5" y="32.6" fill="#010101" width="3.2" height="2"/>
		<rect x="17.1" y="32.6" fill="#010101" width="3.2" height="2"/>
		<rect x="27.7" y="32.6" fill="#010101" width="3.2" height="2"/>
		<rect x="38.3" y="32.6" fill="#010101" width="3.2" height="2"/>
	</g>
	<g>
		<rect x="6.5" y="39" fill="#010101" width="3.2" height="2"/>
		<rect x="17.1" y="39" fill="#010101" width="3.2" height="2"/>
		<rect x="27.7" y="39" fill="#010101" width="3.2" height="2"/>
		<rect x="38.3" y="39" fill="#010101" width="3.2" height="2"/>
	</g>
	<rect x="1" y="14.5" fill="#010101" width="46" height="2"/>
</g>
</svg>
