<?xml version="1.0" encoding="utf-8"?>
<!-- Generator: Adobe Illustrator 18.0.0, SVG Export Plug-In . SVG Version: 6.00 Build 0)  -->
<!DOCTYPE svg PUBLIC "-//W3C//DTD SVG 1.1//EN" "http://www.w3.org/Graphics/SVG/1.1/DTD/svg11.dtd">
<svg version="1.1" id="Layer_1" xmlns="http://www.w3.org/2000/svg" xmlns:xlink="http://www.w3.org/1999/xlink" x="0px" y="0px"
	 viewBox="0 0 48 48" enable-background="new 0 0 48 48" xml:space="preserve">
<g>
	<path d="M20.3,40.7c-0.1,0-0.3,0-0.4-0.1c-4.4-2.1-7.7-4.6-9.9-7.5c-2.8-3.9-3.8-8.4-2.8-12.3c0.3-1.3,0.9-2.5,1.4-3.7
		c0.8-1.9,1.6-3.7,1.5-5.5C10,11.3,10,11,10,10.6c0-0.5,0.4-0.9,0.9-0.9c0.5,0,1,0.3,1,0.8c0,0.2,0.1,0.4,0.1,0.6
		c0.2,0.5,1.1,0.9,1.9,1.2c0.5,0.3,1,0.5,1.5,0.8c1.6,1,2.4,2.7,2.9,4.5c0.1-0.3,0.3-0.7,0.4-1c0.8-2,1.7-4.1,2.5-6.2
		c1.1-2.9,2.4-6.3,0.9-8.9c-0.2-0.4-0.1-0.9,0.2-1.2c0.4-0.3,0.9-0.3,1.3-0.1c4.9,3.6,8.2,9.3,9,15.3c0.8-1.9,1.2-4,1-6.1
		c0-0.5,0.2-0.9,0.7-1c0.4-0.1,0.9,0,1.2,0.4c3.2,5.5,6.3,11.3,5.1,17.4c-1.2,5.9-6,10-11.2,14.1c-0.4,0.3-0.9,0.3-1.2,0
		c-0.4-0.3-0.5-0.8-0.3-1.2c0.9-2.2,1.7-4.4,0.6-5.9c-0.3-0.5-0.7-0.8-1.2-1.2c-0.3-0.3-0.6-0.5-0.9-0.8c-1-1-1.8-2.3-2.3-3.7
		c-2.1,3.7-3.1,7.9-2.8,12.1c0,0.4-0.1,0.7-0.4,0.9C20.7,40.6,20.5,40.7,20.3,40.7z M12,13.6c-0.3,1.5-0.9,2.9-1.5,4.3
		c-0.5,1.2-1,2.3-1.3,3.4c-0.9,3.4,0,7.3,2.4,10.7c1.7,2.3,4.3,4.4,7.6,6.1c0.1-4.9,1.7-9.8,4.6-13.9c0.3-0.4,0.7-0.5,1.1-0.4
		c0.4,0.1,0.7,0.5,0.7,1c0,1.8,0.8,3.7,2.1,5c0.2,0.2,0.5,0.4,0.7,0.6c0.5,0.4,1.1,0.9,1.6,1.6c1,1.4,1,3,0.7,4.5
		c3.8-3.2,6.9-6.5,7.8-10.8c0.8-4.4-0.8-8.6-3.2-13c-0.4,2.4-1.4,4.7-2.9,6.6c-0.3,0.3-0.7,0.5-1.1,0.3c-0.4-0.1-0.7-0.5-0.7-1
		c0.1-5.5-2.2-10.9-6-14.9c0.1,2.5-0.9,5-1.7,7.2c-0.8,2.1-1.7,4.2-2.5,6.3c-0.6,1.5-1.2,2.9-1.8,4.4c-0.2,0.4-0.6,0.7-1.1,0.6
		c-0.5-0.1-0.8-0.5-0.8-0.9c-0.2-2.6-0.6-5.4-2.5-6.6c-0.4-0.2-0.8-0.5-1.3-0.7C12.7,14,12.3,13.8,12,13.6z"/>
	<rect x="23" y="26" transform="matrix(0.1699 0.9855 -0.9855 0.1699 63.2324 12.8304)" width="2" height="35.9"/>
	<rect x="23" y="26" transform="matrix(0.1699 0.9855 -0.9855 0.1699 63.2324 12.8304)" width="2" height="35.9"/>
	<rect x="6" y="43" transform="matrix(0.9855 0.1698 -0.1698 0.9855 7.8113 -3.437)" width="35.9" height="2"/>
	<rect x="6" y="43" transform="matrix(0.9855 0.1698 -0.1698 0.9855 7.8113 -3.437)" width="35.9" height="2"/>
</g>
</svg>
