<?xml version="1.0" encoding="utf-8"?>
<!-- Generator: Adobe Illustrator 16.0.0, SVG Export Plug-In . SVG Version: 6.00 Build 0)  -->
<!DOCTYPE svg PUBLIC "-//W3C//DTD SVG 1.1//EN" "http://www.w3.org/Graphics/SVG/1.1/DTD/svg11.dtd">
<svg version="1.1" id="Layer_1" xmlns="http://www.w3.org/2000/svg" xmlns:xlink="http://www.w3.org/1999/xlink" x="0px" y="0px"
	 width="48px" height="48px" viewBox="0 0 48 48" enable-background="new 0 0 48 48" xml:space="preserve">
<g>
	<path d="M24,25.868c-4.712,0-12.687-0.828-12.687-3.931S19.288,18.006,24,18.006c4.712,0,12.688,0.828,12.688,3.931
		S28.712,25.868,24,25.868z M13.35,21.937c0.585,0.732,4.417,1.931,10.65,1.931s10.065-1.199,10.65-1.931
		c-0.585-0.732-4.418-1.931-10.65-1.931S13.935,21.205,13.35,21.937z"/>
	<path d="M23.999,48.001c-4.712,0-12.686-0.828-12.686-3.931V21.937c0-0.552,0.448-1,1-1s1,0.448,1,1V44.07
		c0.344,0.642,4.227,1.931,10.686,1.931c6.461,0,10.344-1.289,10.703-2.01l-0.015-22.054c0-0.552,0.447-1,1-1s1,0.448,1,1V44.07
		C36.688,47.173,28.712,48.001,23.999,48.001z"/>
	<path d="M28.293,17.322c-0.17,0-0.343-0.043-0.501-0.135c-0.478-0.277-0.641-0.889-0.363-1.367
		c3.455-5.958-1.558-11.656-3.41-13.46c-7.636,7.358-3.63,13.124-3.451,13.373c0.322,0.446,0.224,1.071-0.221,1.395
		c-0.444,0.322-1.066,0.231-1.392-0.212c-0.057-0.077-5.531-7.756,4.39-16.66c0.368-0.331,0.921-0.342,1.302-0.029
		c0.096,0.079,9.518,7.964,4.512,16.596C28.974,17.143,28.638,17.322,28.293,17.322z"/>
	<path d="M24.001,22.937c-0.552,0-1-0.448-1-1v-8.824c0-0.552,0.448-1,1-1c0.553,0,1,0.448,1,1v8.824
		C25.001,22.489,24.554,22.937,24.001,22.937z"/>
	<path d="M30.166,37.032c-13.31,0-18.297-9.655-18.352-9.766c-0.247-0.494-0.045-1.095,0.449-1.341
		c0.495-0.25,1.093-0.047,1.34,0.446l0,0c0.23,0.455,5.814,11.122,21.901,8.146c0.541-0.104,1.064,0.258,1.165,0.802
		c0.101,0.543-0.259,1.064-0.802,1.165C33.817,36.864,31.919,37.032,30.166,37.032z"/>
	<path d="M31.604,29.652c-6.424,0-10.027-3.316-10.207-3.485c-0.402-0.379-0.42-1.012-0.042-1.414
		c0.378-0.4,1.008-0.419,1.411-0.044l0,0c0.188,0.175,4.681,4.248,12.71,2.516c0.538-0.115,1.071,0.227,1.188,0.767
		c0.116,0.54-0.227,1.072-0.767,1.188C34.353,29.513,32.919,29.652,31.604,29.652z"/>
	<path d="M30.732,46.114c-14.752,0-19.138-9.242-19.33-9.663c-0.229-0.503-0.007-1.096,0.496-1.324
		c0.502-0.229,1.094-0.008,1.323,0.493c0.187,0.401,4.702,9.727,20.611,8.358c0.541-0.063,1.034,0.361,1.081,0.911
		c0.048,0.55-0.36,1.034-0.911,1.081C32.86,46.068,31.771,46.114,30.732,46.114z"/>
</g>
</svg>
