<?xml version="1.0" encoding="utf-8"?>
<!-- Generator: Adobe Illustrator 16.0.0, SVG Export Plug-In . SVG Version: 6.00 Build 0)  -->
<!DOCTYPE svg PUBLIC "-//W3C//DTD SVG 1.1//EN" "http://www.w3.org/Graphics/SVG/1.1/DTD/svg11.dtd">
<svg version="1.1" id="Layer_1" xmlns="http://www.w3.org/2000/svg" xmlns:xlink="http://www.w3.org/1999/xlink" x="0px" y="0px"
	 width="48px" height="48px" viewBox="0 0 48 48" enable-background="new 0 0 48 48" xml:space="preserve">
<g>
	<path d="M22.029,37.908c-1.724,0-3.45-0.738-4.736-2.024l-5.232-5.231c-2.5-2.5-2.713-6.356-0.477-8.595l10.474-10.473
		c0.998-0.998,2.368-1.547,3.858-1.547c1.724,0,3.45,0.738,4.736,2.024l5.231,5.232c2.501,2.5,2.715,6.356,0.478,8.596
		L25.889,36.361C24.891,37.359,23.52,37.908,22.029,37.908z M25.916,12.037c-0.956,0-1.824,0.342-2.444,0.961L12.999,23.471
		c-1.458,1.459-1.244,4.046,0.476,5.767l5.232,5.231c0.914,0.914,2.125,1.438,3.322,1.438c0.957,0,1.825-0.342,2.445-0.961
		l10.473-10.473c1.458-1.459,1.243-4.047-0.478-5.768l-5.231-5.232C28.324,12.561,27.113,12.037,25.916,12.037z"/>
	<path d="M14.153,48c-0.262,0-0.517-0.103-0.707-0.293L0.293,34.555c-0.257-0.257-0.354-0.633-0.254-0.981
		c0.1-0.35,0.381-0.617,0.734-0.699l12.237-2.853c0.537-0.125,1.076,0.209,1.201,0.747c0.125,0.537-0.209,1.075-0.747,1.2
		L2.979,34.413l10.625,10.625l2.667-10.856c0.132-0.537,0.669-0.87,1.21-0.732c0.536,0.131,0.864,0.673,0.732,1.209l-3.09,12.58
		c-0.086,0.351-0.354,0.628-0.702,0.725C14.333,47.988,14.243,48,14.153,48z"/>
	<path d="M34.763,18.006c-0.454,0-0.865-0.312-0.973-0.773c-0.126-0.538,0.209-1.076,0.746-1.201l10.484-2.444L34.396,2.962
		L31.728,13.82c-0.131,0.537-0.674,0.866-1.209,0.732c-0.537-0.132-0.864-0.673-0.732-1.21l3.091-12.581
		c0.086-0.351,0.354-0.627,0.702-0.725c0.348-0.096,0.72,0,0.976,0.256l13.152,13.153c0.257,0.257,0.354,0.632,0.255,0.981
		s-0.381,0.617-0.734,0.7L34.991,17.98C34.914,17.998,34.838,18.006,34.763,18.006z"/>
</g>
</svg>
