<?xml version="1.0" encoding="utf-8"?>
<!-- Generator: Adobe Illustrator 16.0.0, SVG Export Plug-In . SVG Version: 6.00 Build 0)  -->
<!DOCTYPE svg PUBLIC "-//W3C//DTD SVG 1.1//EN" "http://www.w3.org/Graphics/SVG/1.1/DTD/svg11.dtd">
<svg version="1.1" id="Layer_1" xmlns="http://www.w3.org/2000/svg" xmlns:xlink="http://www.w3.org/1999/xlink" x="0px" y="0px"
	 width="48px" height="48px" viewBox="0 0 48 48" enable-background="new 0 0 48 48" xml:space="preserve">
<g>
	<path d="M31.085,42.953H16.917c-0.552,0-1-0.447-1-1V15.48c0-0.552,0.448-1,1-1h14.168c0.553,0,1,0.448,1,1v26.473
		C32.085,42.506,31.638,42.953,31.085,42.953z M17.917,40.953h12.168V16.48H17.917V40.953z"/>
	<path d="M39.32,47.805H8.681c-0.283,0-0.553-0.12-0.742-0.33l-4.378-4.852c-0.265-0.293-0.332-0.715-0.171-1.076
		c0.16-0.361,0.519-0.594,0.914-0.594h39.394c0.396,0,0.753,0.232,0.914,0.594c0.16,0.361,0.093,0.783-0.172,1.076l-4.377,4.852
		C39.873,47.685,39.604,47.805,39.32,47.805z M9.125,45.805h29.75l2.572-2.852H6.553L9.125,45.805z"/>
	<path d="M24,14.881c-0.152,0-0.304-0.035-0.443-0.104c-0.187-0.092-4.563-2.302-4.963-6.274c-0.271-2.693,1.342-5.418,4.793-8.098
		c0.342-0.267,0.816-0.281,1.174-0.038c0.221,0.149,5.396,3.707,5.143,8.093c-0.143,2.453-1.906,4.575-5.242,6.308
		C24.316,14.843,24.158,14.881,24,14.881z M24.021,2.461c-2.461,2.053-3.618,4.013-3.438,5.834c0.223,2.259,2.467,3.857,3.429,4.444
		c2.357-1.32,3.6-2.796,3.694-4.391C27.855,5.821,25.224,3.42,24.021,2.461z"/>
</g>
</svg>
