<?xml version="1.0" encoding="utf-8"?>
<!-- Generator: Adobe Illustrator 16.0.0, SVG Export Plug-In . SVG Version: 6.00 Build 0)  -->
<!DOCTYPE svg PUBLIC "-//W3C//DTD SVG 1.1//EN" "http://www.w3.org/Graphics/SVG/1.1/DTD/svg11.dtd">
<svg version="1.1" id="Layer_1" xmlns="http://www.w3.org/2000/svg" xmlns:xlink="http://www.w3.org/1999/xlink" x="0px" y="0px"
	 width="48px" height="48px" viewBox="0 0 48 48" enable-background="new 0 0 48 48" xml:space="preserve">
<g>
	<path d="M20.15,35.9c-2.159,0-4-0.699-5.323-2.023c-3.594-3.598-2.212-10.832,3.08-16.127c3.202-3.201,7.242-5.111,10.806-5.111
		c2.159,0,4,0.7,5.325,2.023c3.596,3.597,2.213,10.833-3.082,16.129C27.754,33.99,23.714,35.9,20.15,35.9z M28.714,14.639
		c-3.046,0-6.557,1.692-9.392,4.525c-4.513,4.516-5.895,10.481-3.08,13.299c0.939,0.94,2.291,1.438,3.908,1.438
		c3.045,0,6.557-1.691,9.393-4.524c4.516-4.517,5.897-10.483,3.082-13.3C31.684,15.136,30.331,14.639,28.714,14.639z"/>
	<path d="M13.532,47.805c-0.01,0-0.02,0-0.03,0c-0.394-0.012-0.743-0.254-0.894-0.617l-2.25-5.431l-3.482,0.824
		c-0.299,0.07-0.614,0-0.854-0.192c-0.24-0.191-0.379-0.483-0.376-0.791l0.041-4.357l-4.864-1.97
		c-0.384-0.155-0.632-0.532-0.625-0.946c0.008-0.415,0.271-0.781,0.662-0.922l12.037-4.324c0.517-0.188,1.092,0.084,1.279,0.604
		c0.187,0.52-0.083,1.092-0.603,1.279L4,34.399l3.068,1.242c0.38,0.154,0.628,0.525,0.625,0.937l-0.035,3.763l3.068-0.726
		c0.475-0.115,0.966,0.137,1.154,0.59l1.725,4.162l4.83-9.944c0.241-0.498,0.841-0.705,1.336-0.463
		c0.497,0.241,0.704,0.84,0.462,1.336l-5.802,11.945C14.264,47.587,13.915,47.805,13.532,47.805z"/>
	<path d="M34.866,20.33c-0.371,0-0.728-0.207-0.9-0.563c-0.241-0.497-0.034-1.095,0.462-1.336l9.939-4.83l-4.16-1.726
		c-0.453-0.188-0.703-0.677-0.591-1.154l0.727-3.07L36.58,7.688c-0.408-0.022-0.783-0.245-0.937-0.625l-1.24-3.064l-3.435,9.572
		c-0.187,0.52-0.761,0.789-1.279,0.604c-0.52-0.187-0.79-0.759-0.604-1.279l4.32-12.038c0.141-0.39,0.507-0.654,0.922-0.662
		c0.006,0,0.013,0,0.02,0c0.407,0,0.774,0.247,0.927,0.625l1.968,4.862L41.6,5.639c0.334,0.009,0.6,0.136,0.791,0.376
		s0.263,0.555,0.192,0.854l-0.824,3.484l5.427,2.251c0.364,0.151,0.605,0.501,0.617,0.894c0.011,0.394-0.209,0.757-0.563,0.929
		l-11.938,5.801C35.161,20.298,35.013,20.33,34.866,20.33z"/>
</g>
</svg>
