<?xml version="1.0" encoding="utf-8"?>
<!-- Generator: Adobe Illustrator 16.0.0, SVG Export Plug-In . SVG Version: 6.00 Build 0)  -->
<!DOCTYPE svg PUBLIC "-//W3C//DTD SVG 1.1//EN" "http://www.w3.org/Graphics/SVG/1.1/DTD/svg11.dtd">
<svg version="1.1" id="Layer_1" xmlns="http://www.w3.org/2000/svg" xmlns:xlink="http://www.w3.org/1999/xlink" x="0px" y="0px"
	 width="48px" height="48px" viewBox="0 0 48 48" enable-background="new 0 0 48 48" xml:space="preserve">
<g>
	<path d="M45.445,46.445L45.445,46.445c-1.003,0-1.888-0.486-1.985-0.542c-0.331-0.22-26.743-18.027-31.714-21.703
		c-1.356-1.003-2.079-2.279-2.147-3.792c-0.169-3.719,3.889-7.533,4.382-7.983c0.44-0.483,4.109-4.387,7.749-4.387
		c1.592,0,2.984,0.745,4.026,2.153c3.677,4.97,21.482,31.384,21.662,31.65c0.528,0.924,1.039,2.694-0.145,3.879
		C46.798,46.195,46.166,46.445,45.445,46.445z M21.729,10.038c-2.415,0-5.362,2.714-6.294,3.76
		c-0.025,0.028-0.052,0.056-0.081,0.081c-1.083,0.969-3.871,4.014-3.758,6.44c0.042,0.894,0.479,1.637,1.339,2.272
		c4.937,3.65,31.312,21.434,31.577,21.613c0.073,0.036,0.531,0.24,0.933,0.24l0,0c0.244,0,0.35-0.074,0.415-0.14
		c0.338-0.339-0.033-1.217-0.144-1.416c-0.137-0.196-17.918-26.574-21.568-31.509C23.48,10.477,22.688,10.038,21.729,10.038z"/>
	<path d="M14.082,13.525c-0.29,0-0.576-0.125-0.773-0.365C8.35,7.121,0.732,4.277,0.656,4.249c-0.519-0.19-0.785-0.765-0.595-1.283
		c0.191-0.519,0.768-0.784,1.283-0.595c0.264,0.097,5.273,1.968,9.979,5.958c-0.442-1.978-0.482-4.279,0.723-6.288
		c0.284-0.475,0.897-0.628,1.372-0.343c0.474,0.284,0.627,0.898,0.343,1.372c-2.142,3.568,1.134,8.871,1.167,8.924
		c0.28,0.447,0.165,1.035-0.263,1.343C14.489,13.463,14.285,13.525,14.082,13.525z"/>
	<path d="M13.442,14.163c-0.192,0-0.386-0.055-0.558-0.171C6.938,9.985,2.879,13.056,2.839,13.088
		c-0.436,0.34-1.063,0.263-1.404-0.172c-0.34-0.436-0.263-1.064,0.172-1.404c0.211-0.165,5.257-3.988,12.395,0.822
		c0.458,0.309,0.579,0.93,0.27,1.388C14.079,14.008,13.763,14.163,13.442,14.163z"/>
	<path d="M20.304,21.62c-0.171,0-0.345-0.044-0.504-0.137c-0.476-0.279-0.637-0.89-0.359-1.366c0.105-0.18,2.62-4.424,6.92-5.979
		c0.52-0.187,1.092,0.081,1.28,0.6c0.188,0.52-0.081,1.093-0.601,1.281c-3.606,1.304-5.851,5.07-5.873,5.108
		C20.982,21.442,20.647,21.62,20.304,21.62z"/>
	<path d="M25.492,25.873c-0.172,0-0.346-0.044-0.504-0.137c-0.477-0.279-0.637-0.89-0.358-1.366c0.089-0.154,2.238-3.78,5.919-5.11
		c0.519-0.187,1.093,0.081,1.28,0.601c0.188,0.519-0.081,1.092-0.601,1.28c-2.987,1.08-4.854,4.207-4.872,4.239
		C26.17,25.696,25.835,25.873,25.492,25.873z"/>
	<path d="M31.22,30.664c-0.151,0-0.305-0.034-0.449-0.106c-0.491-0.249-0.69-0.847-0.444-1.339c0.067-0.135,1.685-3.299,4.99-4.146
		c0.534-0.137,1.079,0.186,1.217,0.721c0.137,0.535-0.186,1.08-0.721,1.217c-2.407,0.616-3.687,3.081-3.699,3.105
		C31.937,30.464,31.585,30.664,31.22,30.664z"/>
</g>
</svg>
