<?xml version="1.0" encoding="utf-8"?>
<!-- Generator: Adobe Illustrator 18.0.0, SVG Export Plug-In . SVG Version: 6.00 Build 0)  -->
<!DOCTYPE svg PUBLIC "-//W3C//DTD SVG 1.1//EN" "http://www.w3.org/Graphics/SVG/1.1/DTD/svg11.dtd">
<svg version="1.1" id="Layer_1" xmlns="http://www.w3.org/2000/svg" xmlns:xlink="http://www.w3.org/1999/xlink" x="0px" y="0px"
	 viewBox="0 0 48 48" enable-background="new 0 0 48 48" xml:space="preserve">
<g>
	<polygon fill="#010101" points="47.7,15.3 35.9,15.3 35.9,13.3 45.7,13.3 45.7,2 2,2 2,13.3 12.1,13.3 12.1,15.3 0,15.3 0,0 
		47.7,0 	"/>
	<path fill="#010101" d="M48.4,48H3l9.5-40.8h22.2L48.4,48z M5.6,46h40.1L33.3,9.2H14.1L5.6,46z"/>
	<rect x="5.6" y="7.3" fill="#010101" width="36.5" height="2"/>
	<g>
		<path fill="#010101" d="M14.9,23.7h2.3c0-1.5,0.5-3,1-3.8l2.2,0.6c-0.5,0.9-1,2.2-1,3.7s0.7,2.5,1.9,2.5c1.1,0,1.7-0.8,2.4-2.6
			c0.9-2.5,2-4.1,4.2-4.1c2,0,3.6,1.4,4,3.8H34v1.9h-2.2c0,1.5-0.4,2.5-0.8,3.3l-2.2-0.6c0.3-0.6,0.8-1.6,0.8-3.2
			c0-1.7-0.8-2.2-1.6-2.2c-1,0-1.5,0.9-2.3,2.9c-1,2.6-2.2,3.8-4.3,3.8c-2,0-3.8-1.4-4.2-4h-2.4v-2H14.9z"/>
	</g>
	<ellipse fill="#010101" cx="25.8" cy="39.5" rx="2.5" ry="2.6"/>
</g>
</svg>
