<?xml version="1.0" encoding="utf-8"?>
<!-- Generator: Adobe Illustrator 16.0.0, SVG Export Plug-In . SVG Version: 6.00 Build 0)  -->
<!DOCTYPE svg PUBLIC "-//W3C//DTD SVG 1.1//EN" "http://www.w3.org/Graphics/SVG/1.1/DTD/svg11.dtd">
<svg version="1.1" id="Layer_1" xmlns="http://www.w3.org/2000/svg" xmlns:xlink="http://www.w3.org/1999/xlink" x="0px" y="0px"
	 width="48px" height="48px" viewBox="0 0 48 48" enable-background="new 0 0 48 48" xml:space="preserve">
<g>
	<path d="M24,48C10.767,48,0,37.233,0,24S10.767,0,24,0s24,10.767,24,24S37.233,48,24,48z M24,2C11.869,2,2,11.869,2,24
		s9.869,22,22,22s22-9.869,22-22S36.131,2,24,2z"/>
	<path d="M24,43.465c-6.349,0-12.315-3.108-15.959-8.315c-0.316-0.452-0.207-1.076,0.246-1.393c0.454-0.316,1.076-0.206,1.393,0.246
		c3.27,4.672,8.624,7.462,14.321,7.462c0.553,0,1,0.447,1,1S24.553,43.465,24,43.465z"/>
	<path d="M39.313,14.675c-0.321,0-0.637-0.154-0.829-0.44C35.226,9.413,29.811,6.534,24,6.534c-0.552,0-1-0.448-1-1s0.448-1,1-1
		c6.476,0,12.51,3.208,16.141,8.581c0.31,0.458,0.189,1.08-0.269,1.389C39.701,14.619,39.506,14.675,39.313,14.675z"/>
	<path d="M24,31.865c-4.337,0-7.865-3.528-7.865-7.865s3.528-7.865,7.865-7.865s7.865,3.528,7.865,7.865S28.337,31.865,24,31.865z
		 M24,18.135c-3.234,0-5.865,2.631-5.865,5.865c0,3.234,2.631,5.865,5.865,5.865c3.234,0,5.865-2.631,5.865-5.865
		C29.865,20.766,27.234,18.135,24,18.135z"/>
</g>
</svg>
