<?xml version="1.0" encoding="utf-8"?>
<!-- Generator: Adobe Illustrator 16.0.0, SVG Export Plug-In . SVG Version: 6.00 Build 0)  -->
<!DOCTYPE svg PUBLIC "-//W3C//DTD SVG 1.1//EN" "http://www.w3.org/Graphics/SVG/1.1/DTD/svg11.dtd">
<svg version="1.1" id="Layer_1" xmlns="http://www.w3.org/2000/svg" xmlns:xlink="http://www.w3.org/1999/xlink" x="0px" y="0px"
	 width="48px" height="48px" viewBox="0 0 48 48" enable-background="new 0 0 48 48" xml:space="preserve">
<g>
	<path d="M18.723,26.061c-0.552,0-1-0.447-1-1V4.633c0-0.552,0.448-1,1-1s1,0.448,1,1v20.428
		C19.723,25.613,19.275,26.061,18.723,26.061z"/>
	<path d="M23.025,4.262h-8.604c-0.552,0-1-0.448-1-1s0.448-1,1-1h8.604c0.552,0,1,0.448,1,1S23.577,4.262,23.025,4.262z"/>
	<path d="M18.723,37.088c-5.355,0-9.55-2.778-9.55-6.326s4.195-6.326,9.55-6.326s9.55,2.778,9.55,6.326S24.079,37.088,18.723,37.088
		z M18.723,26.436c-4.093,0-7.55,1.981-7.55,4.326s3.458,4.326,7.55,4.326s7.55-1.981,7.55-4.326S22.816,26.436,18.723,26.436z"/>
	<path d="M12.008,45.738c-0.146,0-0.295-0.032-0.436-0.101c-0.497-0.241-0.704-0.839-0.463-1.336l4.258-8.775
		c0.242-0.498,0.839-0.704,1.336-0.463s0.704,0.839,0.463,1.336l-4.258,8.775C12.735,45.531,12.379,45.738,12.008,45.738z"/>
	<path d="M47.001,32.32c-0.011,0-0.021,0-0.032,0l-19.303-0.6c-0.552-0.018-0.985-0.479-0.969-1.031
		c0.018-0.552,0.488-0.964,1.031-0.969l19.303,0.6c0.552,0.018,0.985,0.479,0.969,1.031C47.982,31.893,47.538,32.32,47.001,32.32z"
		/>
	<path d="M13.848,26.998c-0.269,0-0.537-0.107-0.733-0.32L0.267,12.808c-0.375-0.405-0.352-1.038,0.054-1.413
		c0.405-0.375,1.038-0.351,1.413,0.054l12.848,13.87c0.375,0.405,0.352,1.038-0.054,1.413C14.335,26.91,14.091,26.998,13.848,26.998
		z"/>
</g>
</svg>
