<?xml version="1.0" encoding="utf-8"?>
<!-- Generator: Adobe Illustrator 18.0.0, SVG Export Plug-In . SVG Version: 6.00 Build 0)  -->
<!DOCTYPE svg PUBLIC "-//W3C//DTD SVG 1.1//EN" "http://www.w3.org/Graphics/SVG/1.1/DTD/svg11.dtd">
<svg version="1.1" id="Layer_1" xmlns="http://www.w3.org/2000/svg" xmlns:xlink="http://www.w3.org/1999/xlink" x="0px" y="0px"
	 viewBox="0 0 48 48" enable-background="new 0 0 48 48" xml:space="preserve">
<g>
	<path d="M35.4,47.4L24,22.4l-11.4,25l-1.8-0.8l12.3-27c0.2-0.4,0.5-0.6,0.9-0.6s0.7,0.2,0.9,0.6l12.3,27L35.4,47.4z"/>
	<g>
		<path d="M35.3,47l-19.4-8.9c-0.3-0.1-0.5-0.5-0.6-0.8c0-0.4,0.1-0.7,0.4-0.9L27.3,28l1.2,1.6L18.3,37l17.8,8.2L35.3,47z"/>
		<path d="M12.7,47l-0.8-1.8L29.7,37l-10.2-7.4l1.2-1.6l11.6,8.4c0.3,0.2,0.4,0.6,0.4,0.9c0,0.4-0.3,0.7-0.6,0.8L12.7,47z"/>
	</g>
	<path d="M24,20.7c-2,0-3.7-1.7-3.7-3.7s1.7-3.7,3.7-3.7c2,0,3.7,1.7,3.7,3.7S26,20.7,24,20.7z M24,15.3c-0.9,0-1.7,0.8-1.7,1.7
		s0.8,1.7,1.7,1.7s1.7-0.8,1.7-1.7S24.9,15.3,24,15.3z"/>
	<path d="M29.9,22.9l-1.4-1.4c2.4-2.4,2.4-6.5,0-8.9c-2.4-2.4-6.5-2.4-8.9,0c-2.4,2.4-2.4,6.5,0,8.9l-1.4,1.4
		c-3.2-3.2-3.2-8.5,0-11.7c3.2-3.2,8.5-3.2,11.7,0C33.1,14.4,33.1,19.7,29.9,22.9z"/>
	<path d="M32.9,25.9l-1.4-1.4c2-2,3.1-4.6,3.1-7.5s-1.1-5.5-3.1-7.5c-4.1-4.1-10.9-4.1-15,0c-2,2-3.1,4.6-3.1,7.5s1.1,5.5,3.1,7.5
		l-1.4,1.4c-4.9-4.9-4.9-12.9,0-17.8C20,3.2,28,3.2,32.9,8.1C37.8,13,37.8,21,32.9,25.9z"/>
	<path d="M12,29.1c-3.2-3.2-5-7.5-5-12.1C7,12.5,8.8,8.2,12,5S19.5,0,24,0s8.8,1.8,12.1,5c6.6,6.6,6.6,17.5,0,24.1l-1.4-1.4
		c5.9-5.9,5.9-15.4,0-21.3C31.8,3.5,28.1,2,24,2s-7.8,1.6-10.6,4.4C10.5,9.3,9,13,9,17.1c0,4,1.6,7.8,4.4,10.6L12,29.1z"/>
</g>
</svg>
