<?xml version="1.0" encoding="utf-8"?>
<!-- Generator: Adobe Illustrator 18.0.0, SVG Export Plug-In . SVG Version: 6.00 Build 0)  -->
<!DOCTYPE svg PUBLIC "-//W3C//DTD SVG 1.1//EN" "http://www.w3.org/Graphics/SVG/1.1/DTD/svg11.dtd">
<svg version="1.1" id="Layer_1" xmlns="http://www.w3.org/2000/svg" xmlns:xlink="http://www.w3.org/1999/xlink" x="0px" y="0px"
	 viewBox="0 0 48 48" enable-background="new 0 0 48 48" xml:space="preserve">
<g>
	<path fill="#010101" d="M48,48H0V0h48V48z M2,46h44V2H2V46z"/>
	<rect x="1.4" y="32.5" fill="#010101" width="45.2" height="2"/>
	<g>
		<polygon fill="#010101" points="8.2,33.5 6.2,33.5 6.2,18.5 13.5,6.4 26.3,6.4 26.3,8.4 14.7,8.4 8.2,19.1 		"/>
		<polygon fill="#010101" points="41.8,33.5 39.8,33.5 39.8,19.1 33.3,8.4 21.7,8.4 21.7,6.4 34.5,6.4 41.8,18.5 		"/>
	</g>
	<g>
		<path fill="#010101" d="M24,21.9c-2.9,0-5.2-2.3-5.2-5.2s2.3-5.2,5.2-5.2s5.2,2.3,5.2,5.2S26.9,21.9,24,21.9z M24,13.5
			c-1.8,0-3.2,1.4-3.2,3.2c0,1.8,1.4,3.2,3.2,3.2s3.2-1.4,3.2-3.2C27.2,14.9,25.8,13.5,24,13.5z"/>
		<path fill="#010101" d="M35.2,34.5H12.8l0-1C13,27.5,18,22.7,24,22.7c6.1,0,11,4.7,11.2,10.8L35.2,34.5z M14.9,32.5h18.2
			c-0.7-4.4-4.5-7.8-9.1-7.8C19.5,24.7,15.6,28.1,14.9,32.5z"/>
	</g>
</g>
</svg>
