<?xml version="1.0" encoding="utf-8"?>
<!-- Generator: Adobe Illustrator 18.0.0, SVG Export Plug-In . SVG Version: 6.00 Build 0)  -->
<!DOCTYPE svg PUBLIC "-//W3C//DTD SVG 1.1//EN" "http://www.w3.org/Graphics/SVG/1.1/DTD/svg11.dtd">
<svg version="1.1" id="Layer_1" xmlns="http://www.w3.org/2000/svg" xmlns:xlink="http://www.w3.org/1999/xlink" x="0px" y="0px"
	 viewBox="0 0 48 48" enable-background="new 0 0 48 48" xml:space="preserve">
<g>
	<path fill="#010101" d="M33.6,48H14.4V22.4h19.2V48z M16.4,46h15.2V24.4H16.4V46z"/>
	<path fill="#010101" d="M24,9.6c-2.6,0-4.8-2.2-4.8-4.8C19.2,2.2,21.4,0,24,0s4.8,2.2,4.8,4.8C28.8,7.4,26.6,9.6,24,9.6z M24,2
		c-1.5,0-2.8,1.3-2.8,2.8s1.3,2.8,2.8,2.8s2.8-1.3,2.8-2.8S25.5,2,24,2z"/>
	<path fill="#010101" d="M33.9,20.8H14.1l0.1-1.1c0.3-5.2,4.6-9.2,9.8-9.2c5.2,0,9.5,4.1,9.8,9.2L33.9,20.8z M16.3,18.8h15.3
		c-0.7-3.6-3.9-6.3-7.7-6.3C20.3,12.5,17.1,15.2,16.3,18.8z"/>
	<rect x="11" y="22.4" fill="#010101" width="26" height="2"/>
	<rect x="11" y="46" fill="#010101" width="26" height="2"/>
</g>
</svg>
