<?xml version="1.0" encoding="utf-8"?>
<!-- Generator: Adobe Illustrator 16.0.0, SVG Export Plug-In . SVG Version: 6.00 Build 0)  -->
<!DOCTYPE svg PUBLIC "-//W3C//DTD SVG 1.1//EN" "http://www.w3.org/Graphics/SVG/1.1/DTD/svg11.dtd">
<svg version="1.1" id="Layer_1" xmlns="http://www.w3.org/2000/svg" xmlns:xlink="http://www.w3.org/1999/xlink" x="0px" y="0px"
	 width="48px" height="48px" viewBox="0 0 48 48" enable-background="new 0 0 48 48" xml:space="preserve">
<g>
	<path d="M19.147,37.723C8.41,37.723,0,33.546,0,28.214c0-0.014,0.001-0.051,0.003-0.088C0.001,28.098,0,28.07,0,28.042V12.488h2
		V27.9c0.009,0.058,0.012,0.116,0.01,0.176c0,0.018-0.007,0.11-0.008,0.127c-0.002,4.081,7.851,7.52,17.145,7.52
		c1.428,0,2.846-0.081,4.226-0.241V20.638h2v15.723c0,0.498-0.366,0.92-0.86,0.99C22.772,37.598,20.967,37.723,19.147,37.723z"/>
	<path d="M19.011,21.997C8.351,21.997,0,17.821,0,12.489C0,7.157,8.351,2.98,19.011,2.98s19.011,4.177,19.011,9.509
		c0,2.12-1.3,4.106-3.759,5.746c-0.276,0.184-0.624,0.219-0.931,0.094l-13.004-5.282l4.9,6.985c0.199,0.284,0.237,0.65,0.101,0.969
		c-0.137,0.318-0.43,0.543-0.772,0.594C22.763,21.862,20.897,21.997,19.011,21.997z M19.011,4.98C9.79,4.98,2,8.419,2,12.489
		c0,4.07,7.79,7.508,17.011,7.508c1.224,0,2.438-0.06,3.625-0.178l-5.894-8.401c-0.254-0.363-0.24-0.85,0.037-1.197
		c0.276-0.346,0.747-0.471,1.159-0.303l15.643,6.354c1.198-0.881,2.441-2.181,2.441-3.782C36.021,8.419,28.231,4.98,19.011,4.98z"/>
	<rect x="24.268" y="28.131" transform="matrix(0.9619 0.2736 -0.2736 0.9619 9.0001 -6.2792)" width="5.494" height="2"/>
	<rect x="36.021" y="12.824" width="2" height="9.924"/>
	<g>
		<path d="M35.068,45.02c-0.209,0-0.419-0.003-0.635-0.009c-0.387-0.012-0.733-0.245-0.888-0.6l-4.749-10.88
			c-0.056-0.127-0.084-0.263-0.084-0.4V19.665c0-0.332,0.164-0.642,0.439-0.828c0.274-0.187,0.622-0.225,0.932-0.101l17.287,6.899
			c0.38,0.151,0.629,0.52,0.629,0.929v10.549c0,0.099-0.015,0.197-0.043,0.291C47.862,37.716,45.518,45.02,35.068,45.02z
			 M30.713,32.922L35.12,43.02c8.232-0.022,10.551-5.208,10.88-6.075v-9.702l-15.287-6.102V32.922z"/>
		<path d="M35.859,44.029l-2-0.02l0.131-13.632l-4.802-9.604l1.789-0.895l4.909,9.819c0.07,0.142,0.107,0.299,0.105,0.457
			L35.859,44.029z"/>
	</g>
</g>
</svg>
