<?xml version="1.0" encoding="utf-8"?>
<!-- Generator: Adobe Illustrator 18.0.0, SVG Export Plug-In . SVG Version: 6.00 Build 0)  -->
<!DOCTYPE svg PUBLIC "-//W3C//DTD SVG 1.1//EN" "http://www.w3.org/Graphics/SVG/1.1/DTD/svg11.dtd">
<svg version="1.1" id="Layer_1" xmlns="http://www.w3.org/2000/svg" xmlns:xlink="http://www.w3.org/1999/xlink" x="0px" y="0px"
	 viewBox="0 0 48 48" enable-background="new 0 0 48 48" xml:space="preserve">
<g>
	<path fill="#010101" d="M38,48H10V32C4.4,31.5,0,26.5,0,20.3C0,13.9,4.8,8.7,10.6,8.7l0.2,0c0,0,0,0,0,0c0.9,0,1.7,0.1,2.5,0.3
		c1.1-5.2,5.4-9,10.5-9c5.1,0,9.5,3.8,10.6,9c0.9-0.3,1.9-0.4,2.8-0.4c6,0,10.8,5.2,10.8,11.7c0,6.2-4.4,11.2-10,11.7V48z M12,46h24
		V30h1.2c4.9,0,8.8-4.4,8.8-9.7s-3.9-9.7-8.8-9.7c-1.1,0-2.1,0.2-3.2,0.7l-1.3,0.6l-0.2-1.4C32.1,5.7,28.3,2,23.8,2
		c-4.4,0-8.2,3.6-8.7,8.4l-0.1,1.3l-1.2-0.5c-0.9-0.4-1.9-0.5-2.9-0.5l-0.2,0C5.9,10.7,2,15,2,20.3c0,5.3,3.9,9.7,8.8,9.7H12V46z"/>
	<path fill="#010101" d="M7.1,21.7l-2,0c0-2.7,1.5-7.7,7.2-7.8l0,2C7.2,16,7.1,21.5,7.1,21.7z"/>
	<rect x="15.1" y="32.7" fill="#010101" width="2" height="9.8"/>
</g>
</svg>
