<?xml version="1.0" encoding="utf-8"?>
<!-- Generator: Adobe Illustrator 16.0.0, SVG Export Plug-In . SVG Version: 6.00 Build 0)  -->
<!DOCTYPE svg PUBLIC "-//W3C//DTD SVG 1.1//EN" "http://www.w3.org/Graphics/SVG/1.1/DTD/svg11.dtd">
<svg version="1.1" id="Layer_1" xmlns="http://www.w3.org/2000/svg" xmlns:xlink="http://www.w3.org/1999/xlink" x="0px" y="0px"
	 width="48px" height="48px" viewBox="0 0 48 48" enable-background="new 0 0 48 48" xml:space="preserve">
<g>
	<path d="M30.698,19.592c-5.087,0-8.473-2.645-9.79-7.649l-0.662-1.844c-0.159-0.446,0.017-0.943,0.421-1.19
		c0.117-0.071,2.919-1.752,6.928-1.752c3.615,0,8.955,1.418,13.868,8.171c0.17,0.234,0.23,0.531,0.166,0.813
		c-0.065,0.282-0.249,0.522-0.505,0.658C40.912,16.913,35.822,19.592,30.698,19.592z M22.426,10.254l0.392,1.098
		c1.116,4.225,3.685,6.24,7.88,6.24c3.313,0,6.731-1.304,8.417-2.05c-3.378-4.238-7.248-6.385-11.519-6.385
		C25.252,9.156,23.389,9.822,22.426,10.254z"/>
	<path d="M14.214,32.555c-0.476,0-0.898-0.341-0.984-0.825c-0.128-0.726-3.009-17.914,8.968-31.393
		c0.367-0.414,0.999-0.45,1.412-0.083c0.413,0.367,0.45,0.999,0.083,1.412C12.353,14.428,15.17,31.212,15.2,31.38
		c0.096,0.544-0.267,1.063-0.811,1.159C14.331,32.55,14.271,32.555,14.214,32.555z"/>
	<path d="M30.411,35.17c-0.18,0-0.362-0.049-0.526-0.15c-10.172-6.316-13.705-23.703-13.851-24.44
		c-0.107-0.542,0.246-1.067,0.787-1.174c0.543-0.105,1.068,0.246,1.175,0.787c0.034,0.172,3.513,17.273,12.943,23.128
		c0.47,0.291,0.613,0.908,0.322,1.377C31.072,35.002,30.745,35.17,30.411,35.17z"/>
	<path d="M13.084,47.997c-5.566,0-10.095-4.528-10.095-10.095s4.528-10.096,10.095-10.096s10.095,4.529,10.095,10.096
		S18.65,47.997,13.084,47.997z M13.084,29.807c-4.463,0-8.095,3.632-8.095,8.096s3.631,8.095,8.095,8.095
		c4.464,0,8.095-3.631,8.095-8.095S17.548,29.807,13.084,29.807z"/>
	<path d="M34.916,46.953c-5.565,0-10.094-4.528-10.094-10.094s4.528-10.094,10.094-10.094S45.01,31.294,45.01,36.859
		S40.481,46.953,34.916,46.953z M34.916,28.766c-4.463,0-8.094,3.631-8.094,8.094s3.631,8.094,8.094,8.094s8.094-3.631,8.094-8.094
		S39.379,28.766,34.916,28.766z"/>
</g>
</svg>
