<?xml version="1.0" encoding="utf-8"?>
<!-- Generator: Adobe Illustrator 16.0.0, SVG Export Plug-In . SVG Version: 6.00 Build 0)  -->
<!DOCTYPE svg PUBLIC "-//W3C//DTD SVG 1.1//EN" "http://www.w3.org/Graphics/SVG/1.1/DTD/svg11.dtd">
<svg version="1.1" id="Layer_1" xmlns="http://www.w3.org/2000/svg" xmlns:xlink="http://www.w3.org/1999/xlink" x="0px" y="0px"
	 width="48px" height="48px" viewBox="0 0 48 48" enable-background="new 0 0 48 48" xml:space="preserve">
<g>
	<path d="M22.874,39.525c-2.714,0-5.458-0.313-7.754-1.674c-4.807-2.85-7.654-5.865-8.704-9.217
		c-0.459-1.463-0.771-2.939-1.072-4.368c-0.314-1.491-0.611-2.899-1.063-4.306c-1.005-3.125-2.189-5.757-3.726-8.285
		c-0.182-0.299-0.194-0.672-0.032-0.982c0.162-0.311,0.475-0.514,0.824-0.536c3.604-0.227,7.404-0.359,10.757,0.72
		c3.252,1.047,7.443,3.119,9.454,5.794c0.261,0.347,0.484,0.702,0.701,1.048c0.552,0.883,0.898,1.395,1.591,1.639
		c0.84,0.297,2.408,0.397,3.49,0.225c2.672-0.426,4.267-2.213,4.375-4.904c0.012-0.305,0.005-0.613-0.001-0.921
		c-0.008-0.356-0.014-0.713,0.001-1.069c0.027-0.662,0.181-1.185,0.315-1.646c0.019-0.063,0.037-0.125,0.054-0.186
		c-1.15-0.557-2.374-1.529-2.953-2.741c-0.412-0.863-0.467-1.774-0.156-2.633c0.42-1.163,1.783-2.192,3.103-3.187
		c0.508-0.383,0.987-0.744,1.271-1.019c1.563-1.513,3.679-1.7,5.52-0.492c2.114,1.388,1.895,3.044,1.462,4.482
		c0.423,0.262,0.77,0.577,1.072,0.851c0.375,0.34,0.699,0.634,1.036,0.736c0.767,0.231,2.109,0.168,3.188,0.118
		c0.341-0.016,0.661-0.031,0.944-0.037c0.006,0,0.013,0,0.02,0c0.38,0,0.728,0.215,0.896,0.556c0.172,0.347,0.128,0.762-0.113,1.065
		c-0.581,0.732-1.241,1.468-1.881,2.179c-1.282,1.427-2.607,2.903-3.373,4.431c-0.822,1.641-0.718,3.924-0.616,6.132
		c0.046,1.004,0.094,2.042,0.049,2.999c-0.374,7.947-6.793,14.705-14.311,15.065l-0.824,0.041
		C25.27,39.464,24.074,39.525,22.874,39.525z M3.089,12.063c1.229,2.235,2.228,4.587,3.096,7.286
		c0.483,1.505,0.805,3.03,1.116,4.505c0.291,1.382,0.593,2.811,1.023,4.182c0.896,2.86,3.453,5.508,7.816,8.095
		c2.791,1.656,6.713,1.455,10.174,1.277l0.831-0.042c6.516-0.312,12.082-6.216,12.408-13.161c0.041-0.864-0.003-1.811-0.049-2.814
		c-0.113-2.464-0.229-5.012,0.825-7.119c0.887-1.769,2.304-3.347,3.675-4.873c0.115-0.128,0.229-0.255,0.343-0.382
		c-0.884,0.01-1.776-0.034-2.487-0.249c-0.77-0.232-1.318-0.73-1.803-1.169c-0.42-0.381-0.782-0.71-1.222-0.833
		c-0.263-0.073-0.483-0.251-0.612-0.491c-0.129-0.241-0.153-0.523-0.068-0.782l0.078-0.239c0.536-1.625,0.632-2.079-0.464-2.798
		c-1.047-0.688-2.151-0.595-3.032,0.258c-0.372,0.36-0.899,0.757-1.457,1.177c-0.879,0.664-2.208,1.666-2.426,2.269
		c-0.128,0.355-0.102,0.712,0.08,1.092c0.405,0.849,1.465,1.603,2.357,1.951c0.022,0.001,0.045,0.003,0.068,0.006
		c0.548,0.064,0.941,0.561,0.877,1.109c-0.058,0.498-0.181,0.916-0.288,1.286c-0.118,0.402-0.22,0.75-0.237,1.167
		c-0.013,0.314-0.006,0.63,0,0.946c0.007,0.347,0.014,0.694,0,1.04c-0.146,3.623-2.467,6.229-6.059,6.801
		c-1.406,0.225-3.328,0.089-4.469-0.313c-1.386-0.488-2.043-1.538-2.623-2.464c-0.187-0.299-0.378-0.606-0.604-0.906
		c-1.621-2.156-5.421-4.111-8.468-5.092C8.945,11.962,5.999,11.926,3.089,12.063z"/>
	<path d="M20.891,48c-0.552,0-1-0.447-1-1v-7.705c0-0.553,0.448-1,1-1s1,0.447,1,1V47C21.891,47.553,21.443,48,20.891,48z"/>
	<path d="M28.329,48c-0.553,0-1-0.447-1-1v-7.705c0-0.553,0.447-1,1-1s1,0.447,1,1V47C29.329,47.553,28.882,48,28.329,48z"/>
	<path d="M39.163,11.245h-2.25c-0.553,0-1-0.448-1-1s0.447-1,1-1h2.25c0.553,0,1,0.448,1,1S39.716,11.245,39.163,11.245z"/>
	<path d="M20.017,30.511c-1.058,0-2.125-0.149-3.165-0.456c-2.756-0.81-4.734-2.915-5.567-5.926
		c-1.06-3.828-0.024-8.428,2.518-11.186c0.374-0.406,1.006-0.433,1.413-0.058c0.406,0.375,0.432,1.007,0.058,1.413
		c-2.099,2.276-2.946,6.1-2.061,9.297c0.455,1.642,1.553,3.762,4.205,4.542c2.603,0.764,5.414,0.346,7.52-1.124
		c1.24-0.865,2.282-2.011,3.187-3.502c0.276-0.456,0.449-1,0.633-1.575c0.205-0.647,0.418-1.316,0.801-1.955
		c0.284-0.473,0.897-0.627,1.372-0.343c0.474,0.284,0.627,0.898,0.343,1.372c-0.263,0.438-0.432,0.969-0.61,1.531
		c-0.21,0.663-0.428,1.348-0.828,2.007c-1.052,1.734-2.279,3.077-3.752,4.104C24.332,29.874,22.197,30.511,20.017,30.511z"/>
</g>
</svg>
