<?xml version="1.0" encoding="utf-8"?>
<!-- Generator: Adobe Illustrator 16.0.0, SVG Export Plug-In . SVG Version: 6.00 Build 0)  -->
<!DOCTYPE svg PUBLIC "-//W3C//DTD SVG 1.1//EN" "http://www.w3.org/Graphics/SVG/1.1/DTD/svg11.dtd">
<svg version="1.1" id="Layer_1" xmlns="http://www.w3.org/2000/svg" xmlns:xlink="http://www.w3.org/1999/xlink" x="0px" y="0px"
	 width="48px" height="48px" viewBox="0 0 48 48" enable-background="new 0 0 48 48" xml:space="preserve">
<g>
	<path d="M11.014,48.002c-2.788,0-5.113-2.027-5.583-4.688c-3.015-0.127-5.429-2.626-5.429-5.679c0-3.135,2.543-5.685,5.67-5.685
		c0.845,0,1.672,0.197,2.463,0.587c2.591-0.265,3.855-5.153,3.868-5.204c0.576-1.935,1.103-3.825,1.628-5.708
		c0.922-3.308,1.875-6.728,3.003-10.013c1.411-4.111,3.55-8.576,8.72-10.516c1.937-0.727,4.006-1.095,6.151-1.095
		c7.482,0,13.849,4.305,15.843,10.713c2.007,6.448-0.699,13.49-6.733,17.521c-2.861,1.908-7.178,3.474-11.549,4.188
		c-3.081,0.505-7.124,1.938-9.611,3.407c-2.551,1.507-2.832,5.487-2.834,5.527c-0.002,0.032-0.005,0.064-0.011,0.096
		c0.05,0.301,0.075,0.586,0.075,0.865C16.684,45.452,14.141,48.002,11.014,48.002z M7.344,42.362c0.023,2.011,1.661,3.64,3.67,3.64
		c2.023,0,3.67-1.652,3.67-3.684c0-0.264-0.036-0.537-0.114-0.862c-0.062-0.256-0.019-0.518,0.107-0.735
		c0.177-1.343,0.908-4.929,3.761-6.613c2.717-1.604,6.955-3.109,10.305-3.659c3.169-0.517,7.659-1.807,10.762-3.876
		c5.208-3.479,7.648-9.757,5.934-15.264c-2-6.429-8.438-9.307-13.933-9.307c-1.904,0-3.737,0.326-5.448,0.967
		c-4.38,1.644-6.208,5.438-7.532,9.292c-1.109,3.229-2.054,6.621-2.968,9.901c-0.528,1.895-1.059,3.797-1.625,5.695
		c-0.054,0.226-1.68,6.691-6.006,6.691c-0.169,0-0.351-0.043-0.499-0.125c-0.569-0.313-1.16-0.473-1.756-0.473
		c-2.023,0-3.67,1.653-3.67,3.685s1.646,3.684,3.67,3.684c0.17,0,0.333-0.028,0.497-0.053c0.288-0.04,0.597,0.039,0.817,0.229
		c0.22,0.189,0.364,0.464,0.364,0.755C7.35,42.279,7.348,42.322,7.344,42.362z"/>
</g>
</svg>
