<?xml version="1.0" encoding="utf-8"?>
<!-- Generator: Adobe Illustrator 16.0.0, SVG Export Plug-In . SVG Version: 6.00 Build 0)  -->
<!DOCTYPE svg PUBLIC "-//W3C//DTD SVG 1.1//EN" "http://www.w3.org/Graphics/SVG/1.1/DTD/svg11.dtd">
<svg version="1.1" id="Layer_1" xmlns="http://www.w3.org/2000/svg" xmlns:xlink="http://www.w3.org/1999/xlink" x="0px" y="0px"
	 width="48px" height="48px" viewBox="0 0 48 48" enable-background="new 0 0 48 48" xml:space="preserve">
<g>
	<path d="M38.764,43.579H9.236c-0.23,0-0.454-0.08-0.633-0.226l-8.236-6.729c-0.327-0.268-0.451-0.712-0.309-1.11
		S0.577,34.85,1,34.85h46c0.423,0,0.8,0.266,0.942,0.664c0.142,0.398,0.018,0.843-0.31,1.11l-8.236,6.729
		C39.218,43.499,38.994,43.579,38.764,43.579z M9.592,41.579h28.815l5.788-4.729H3.804L9.592,41.579z"/>
	<path d="M30.973,29.545C30.973,29.545,30.973,29.545,30.973,29.545c-2.144,0-3.955-1.027-5.101-2.892
		c-1.251-2.038-1.591-4.121-1.009-6.19c1.161-4.124,5.612-6.92,8.163-8.221c3.877-1.977,3.918-2.467,3.966-3.034
		c0.013-0.147,0.026-0.301,0.052-0.465C37.081,8.497,37.08,8.208,37.08,7.9c-0.001-0.997-0.003-2.504,1.647-3.283
		c0.275-0.13,0.561-0.196,0.85-0.196c1.556,0,2.405,1.8,2.913,2.875c0.013,0.027,0.025,0.053,0.037,0.078
		c0.615,0.097,1.597,0.324,2.345,0.839c0.751,0.519,1.123,1.462,0.948,2.404c-0.167,0.906-0.78,1.593-1.601,1.793
		c-0.275,0.067-0.577,0.076-0.837,0.076l-0.79-0.009c-0.858,0-1.735,0.09-2.337,0.744c-0.445,0.484-0.448,2.133-0.452,3.729
		c-0.003,1.945-0.008,4.366-0.716,6.619C38.052,26.864,34.411,29.545,30.973,29.545z M39.553,6.419
		c-0.399,0.209-0.475,0.429-0.473,1.479c0,0.368,0.001,0.749-0.06,1.144c-0.018,0.118-0.026,0.228-0.035,0.333
		c-0.13,1.539-0.623,2.39-5.051,4.648c-3.845,1.96-6.449,4.505-7.146,6.981c-0.431,1.531-0.174,3.037,0.788,4.602
		c0.983,1.603,2.39,1.938,3.395,1.938c0.001,0,0.001,0,0.001,0c2.585,0,5.428-2.095,6.207-4.575c0.617-1.962,0.621-4.12,0.624-6.023
		c0.005-2.247,0.008-4.022,0.979-5.079c1.134-1.232,2.632-1.39,3.81-1.39l0.79,0.009c0.263,0,0.344-0.015,0.362-0.02
		c0.018-0.004,0.084-0.076,0.108-0.213c0.006-0.028,0.047-0.281-0.117-0.394c-0.557-0.384-1.57-0.532-1.914-0.557
		c-0.269-0.02-0.52-0.146-0.693-0.353c-0.157-0.185-0.272-0.43-0.447-0.8C40.175,7.077,39.795,6.495,39.553,6.419z"/>
	<path d="M12.532,35.783c-0.022,0-0.045-0.001-0.067-0.002c-0.551-0.037-0.968-0.514-0.931-1.064
		c0.255-3.844-7.53-4.562-7.609-4.567c-0.505-0.04-0.901-0.451-0.921-0.958L2.882,26.1c-0.013-0.318,0.127-0.624,0.377-0.822
		c0.249-0.197,0.578-0.264,0.886-0.182c0,0,0,0,0,0c0.035,0.001,3.832,0.423,14.05-8.853c0.286-0.25,6.705-5.74,12.986-2.333
		c0.485,0.263,0.666,0.87,0.402,1.355c-0.263,0.485-0.87,0.667-1.355,0.402c-5.053-2.74-10.649,2.022-10.705,2.071
		c-8.124,7.375-12.588,9.003-14.603,9.293l0.048,1.228c2.424,0.345,8.885,1.725,8.561,6.591
		C13.494,35.378,13.054,35.783,12.532,35.783z"/>
	<path d="M41.081,35.782c-0.146,0-0.295-0.032-0.436-0.101c-0.497-0.241-0.704-0.839-0.463-1.336
		c3.858-7.949-2.091-14.795-2.151-14.863c-0.366-0.413-0.329-1.045,0.084-1.412c0.412-0.366,1.045-0.33,1.412,0.084
		c0.069,0.078,6.89,7.927,2.454,17.063C41.809,35.575,41.452,35.782,41.081,35.782z"/>
</g>
</svg>
