<?xml version="1.0" encoding="utf-8"?>
<!-- Generator: Adobe Illustrator 16.0.0, SVG Export Plug-In . SVG Version: 6.00 Build 0)  -->
<!DOCTYPE svg PUBLIC "-//W3C//DTD SVG 1.1//EN" "http://www.w3.org/Graphics/SVG/1.1/DTD/svg11.dtd">
<svg version="1.1" id="Layer_1" xmlns="http://www.w3.org/2000/svg" xmlns:xlink="http://www.w3.org/1999/xlink" x="0px" y="0px"
	 width="48px" height="48px" viewBox="0 0 48 48" enable-background="new 0 0 48 48" xml:space="preserve">
<g>
	<g>
		<path d="M5.491,39.992c-0.279,0-0.557-0.116-0.754-0.343l-4.49-5.15c-0.344-0.395-0.325-0.988,0.043-1.36l11.76-11.887
			c0.145-0.146,0.331-0.245,0.534-0.281l2.715-0.489l0.665-1.068c0.291-0.469,0.907-0.613,1.377-0.321
			c0.469,0.292,0.612,0.908,0.321,1.377l-0.899,1.445c-0.149,0.24-0.394,0.406-0.672,0.456l-2.841,0.512L2.364,33.885l3.224,3.698
			l8.977-7.784c0.418-0.361,1.048-0.315,1.411,0.101c0.362,0.417,0.317,1.049-0.1,1.411l-9.73,8.438
			C5.956,39.912,5.723,39.992,5.491,39.992z"/>
		<path d="M42.509,39.992c-0.232,0-0.466-0.08-0.655-0.244l-9.729-8.438c-0.417-0.362-0.462-0.994-0.101-1.411
			c0.363-0.416,0.994-0.462,1.411-0.101l8.976,7.784l3.226-3.698L34.733,22.867l-2.963-0.662c-0.284-0.063-0.526-0.248-0.664-0.504
			l-0.869-1.624c-0.261-0.487-0.077-1.093,0.41-1.354c0.487-0.259,1.093-0.077,1.354,0.41l0.652,1.22l2.803,0.626
			c0.188,0.042,0.358,0.137,0.493,0.273l11.762,11.887c0.368,0.372,0.387,0.966,0.043,1.36l-4.491,5.15
			C43.064,39.876,42.787,39.992,42.509,39.992z"/>
	</g>
	<path d="M33.99,48H14.009c-0.552,0-1-0.447-1-1V31.643c0-0.553,0.448-1,1-1s1,0.447,1,1V46H32.99V31.701c0-0.553,0.447-1,1-1
		s1,0.447,1,1V47C34.99,47.553,34.543,48,33.99,48z"/>
	<path d="M24,23.37c-6.053,0-10.977-5.242-10.977-11.686S17.947-0.002,24-0.002S34.977,5.24,34.977,11.684S30.053,23.37,24,23.37z
		 M24,1.998c-4.95,0-8.977,4.345-8.977,9.686S19.05,21.37,24,21.37c4.949,0,8.977-4.345,8.977-9.686S28.949,1.998,24,1.998z"/>
	<path d="M24,19.493c-3.444,0-6.246-2.969-6.246-6.619S20.556,6.255,24,6.255s6.246,2.969,6.246,6.619S27.444,19.493,24,19.493z
		 M24,8.255c-2.341,0-4.246,2.072-4.246,4.619s1.905,4.619,4.246,4.619c2.341,0,4.246-2.072,4.246-4.619S26.341,8.255,24,8.255z"/>
	<path d="M24,35.189c-0.552,0-1-0.447-1-1V18.796c0-0.552,0.448-1,1-1c0.553,0,1,0.448,1,1v15.394
		C25,34.742,24.553,35.189,24,35.189z"/>
	<path d="M24,48c-0.552,0-1-0.447-1-1v-6.641c0-0.553,0.448-1,1-1c0.553,0,1,0.447,1,1V47C25,47.553,24.553,48,24,48z"/>
	<path d="M27.609,41.1h-7.278c-0.552,0-1-0.447-1-1v-5.91c0-0.553,0.448-1,1-1h7.278c0.553,0,1,0.447,1,1v5.91
		C28.609,40.652,28.162,41.1,27.609,41.1z M21.331,39.1h5.278v-3.91h-5.278V39.1z"/>
	<path d="M19.967,38.145h-5.64c-0.552,0-1-0.447-1-1s0.448-1,1-1h5.64c0.552,0,1,0.447,1,1S20.519,38.145,19.967,38.145z"/>
	<path d="M33.675,38.145h-5.641c-0.553,0-1-0.447-1-1s0.447-1,1-1h5.641c0.553,0,1,0.447,1,1S34.228,38.145,33.675,38.145z"/>
</g>
</svg>
