<?xml version="1.0" encoding="utf-8"?>
<!-- Generator: Adobe Illustrator 18.0.0, SVG Export Plug-In . SVG Version: 6.00 Build 0)  -->
<!DOCTYPE svg PUBLIC "-//W3C//DTD SVG 1.1//EN" "http://www.w3.org/Graphics/SVG/1.1/DTD/svg11.dtd">
<svg version="1.1" id="Layer_1" xmlns="http://www.w3.org/2000/svg" xmlns:xlink="http://www.w3.org/1999/xlink" x="0px" y="0px"
	 viewBox="0 0 48 48" enable-background="new 0 0 48 48" xml:space="preserve">
<g>
	<path fill="#010101" d="M18.1,48c-0.5,0-0.9-0.3-1-0.8l-4.5-23.9c-0.1-0.3,0-0.6,0.2-0.8s0.4-0.4,0.7-0.4l33.4-3.8
		c0.4,0,0.7,0.1,0.9,0.4c0.2,0.3,0.3,0.6,0.1,1L38.8,44c-0.1,0.3-0.4,0.6-0.8,0.6L18.3,48C18.2,48,18.2,48,18.1,48z M14.8,24
		l4.1,21.9l18.3-3.1l8.3-22.2L14.8,24z"/>
	<path fill="#010101" d="M18.1,48c-0.2,0-0.4-0.1-0.6-0.2L4.6,38.7c-0.2-0.1-0.4-0.4-0.4-0.6L0,16.7c-0.1-0.4,0.1-0.8,0.4-1
		c0.3-0.2,0.7-0.3,1.1-0.1l12.6,6.6c0.3,0.1,0.5,0.4,0.5,0.7l4.5,23.9c0.1,0.4-0.1,0.8-0.4,1C18.5,47.9,18.3,48,18.1,48z M6.1,37.3
		l10.6,7.4l-4-21L2.4,18.4L6.1,37.3z"/>
	<path fill="#010101" d="M46.1,19.8l-3.5-6.4L31.9,9.7L5.1,12.3l-3.2,4.7l-1.6-1.1l3.5-5.1c0.2-0.2,0.4-0.4,0.7-0.4l27.5-2.7
		c0.1,0,0.3,0,0.4,0l11.3,3.9c0.2,0.1,0.4,0.2,0.5,0.5l3.7,6.7L46.1,19.8z"/>
	<path fill="#010101" d="M14.3,17.5c-0.2,0-0.3,0-0.5-0.1L4,12.3L5,10.5l9.5,5l28.7-3.9l0.3,2l-29,3.9
		C14.4,17.5,14.3,17.5,14.3,17.5z"/>
	<rect x="12.9" y="16.5" transform="matrix(0.9944 0.1054 -0.1054 0.9944 2.1656 -1.3606)" fill="#010101" width="2" height="6.6"/>
	<path fill="#010101" d="M31.2,25.7l-1.7-1l9.8-17.6l-14.5-5l-7.4,8.7l-1.5-1.3l7.8-9.2c0.3-0.3,0.7-0.4,1.1-0.3L41,5.7
		c0.3,0.1,0.5,0.3,0.6,0.6c0.1,0.3,0.1,0.6-0.1,0.8L31.2,25.7z"/>
</g>
</svg>
