<?xml version="1.0" encoding="utf-8"?>
<!-- Generator: Adobe Illustrator 16.0.0, SVG Export Plug-In . SVG Version: 6.00 Build 0)  -->
<!DOCTYPE svg PUBLIC "-//W3C//DTD SVG 1.1//EN" "http://www.w3.org/Graphics/SVG/1.1/DTD/svg11.dtd">
<svg version="1.1" id="Layer_1" xmlns="http://www.w3.org/2000/svg" xmlns:xlink="http://www.w3.org/1999/xlink" x="0px" y="0px"
	 width="48px" height="48px" viewBox="0 0 48 48" enable-background="new 0 0 48 48" xml:space="preserve">
<g>
	<path d="M22.354,23.891c-0.116,0-0.234-0.021-0.349-0.063c-0.518-0.193-0.781-0.769-0.588-1.286
		c4.796-12.876,7.369-19.715,7.647-20.328c0.906-1.978,3.412-2.78,5.597-1.784c1.036,0.472,1.852,1.277,2.296,2.266
		c0.464,1.034,0.474,2.144,0.026,3.125c-0.09,0.194-0.358,0.778-7.698,14.228c-0.265,0.484-0.872,0.663-1.357,0.399
		c-0.484-0.265-0.663-0.872-0.398-1.357c6.358-11.65,7.513-13.836,7.636-14.103c0.204-0.448,0.192-0.972-0.032-1.473
		c-0.245-0.545-0.707-0.995-1.302-1.266c-1.177-0.538-2.5-0.182-2.947,0.795c-0.116,0.256-1.092,2.741-7.593,20.195
		C23.141,23.642,22.76,23.891,22.354,23.891z"/>
	<path d="M13.394,48c-0.139,0-0.281-0.029-0.415-0.091c-0.477-0.217-0.704-0.766-0.522-1.257c0,0,3.53-9.519,7.333-19.741
		c0.192-0.518,0.769-0.783,1.286-0.589c0.518,0.192,0.781,0.769,0.588,1.286c-0.883,2.373-1.751,4.709-2.564,6.896
		c1.608-2.938,3.372-6.16,5.124-9.365c0.265-0.484,0.873-0.665,1.357-0.397c0.484,0.265,0.663,0.872,0.397,1.356
		C20.187,36.693,14.271,47.48,14.271,47.48C14.09,47.811,13.748,48,13.394,48z"/>
	<path d="M1,35.629c-0.38,0-0.742-0.218-0.909-0.583c-0.219-0.477-0.033-1.04,0.426-1.293c1.639-0.902,40.147-22.107,41.644-22.79
		c0.477-0.219,0.989-0.33,1.52-0.33c1.622,0,3.146,1.033,3.882,2.633c0.513,1.108,0.577,2.369,0.175,3.458
		c-0.355,0.965-1.045,1.724-1.94,2.136C44.299,19.544,3.103,34.912,1.35,35.565C1.234,35.608,1.117,35.629,1,35.629z M43.681,12.633
		c-0.241,0-0.473,0.05-0.688,0.148c-0.867,0.396-16.69,9.075-29.495,16.113c14.321-5.354,30.602-11.458,31.464-11.853
		c0.523-0.24,0.777-0.682,0.898-1.009c0.219-0.595,0.178-1.297-0.114-1.929C45.342,13.224,44.512,12.633,43.681,12.633z"/>
</g>
</svg>
