<?xml version="1.0" encoding="utf-8"?>
<!-- Generator: Adobe Illustrator 16.0.0, SVG Export Plug-In . SVG Version: 6.00 Build 0)  -->
<!DOCTYPE svg PUBLIC "-//W3C//DTD SVG 1.1//EN" "http://www.w3.org/Graphics/SVG/1.1/DTD/svg11.dtd">
<svg version="1.1" id="Layer_1" xmlns="http://www.w3.org/2000/svg" xmlns:xlink="http://www.w3.org/1999/xlink" x="0px" y="0px"
	 width="48px" height="48px" viewBox="0 0 48 48" enable-background="new 0 0 48 48" xml:space="preserve">
<g>
	<g>
		<g>
			<path d="M24.143,34.119c-2.688,0-4.874-2.185-4.874-4.869c0-2.684,2.187-4.867,4.874-4.867c2.687,0,4.873,2.184,4.873,4.867
				C29.016,31.935,26.83,34.119,24.143,34.119z M24.143,26.383c-1.585,0-2.874,1.286-2.874,2.867c0,1.582,1.289,2.869,2.874,2.869
				c1.583,0,2.873-1.287,2.873-2.869C27.016,27.669,25.727,26.383,24.143,26.383z"/>
			<g>
				<path d="M14.134,36.302c-2.688,0-4.793-3.098-4.793-7.053c0-3.953,2.105-7.05,4.793-7.05c1.607,0,5.53,1.276,8.02,3.276
					c0.43,0.346,0.499,0.975,0.153,1.405c-0.346,0.432-0.974,0.499-1.406,0.153c-2.155-1.73-5.655-2.835-6.767-2.835
					c-1.321,0-2.793,2.074-2.793,5.05c0,2.978,1.472,5.053,2.793,5.053c1.001,0,4.188-0.967,6.388-2.548
					c0.449-0.324,1.073-0.22,1.396,0.229c0.322,0.448,0.22,1.073-0.229,1.396C19.359,35.052,15.779,36.302,14.134,36.302z"/>
				<path d="M34.157,36.302c-1.651,0-5.234-1.25-7.558-2.924c-0.448-0.322-0.55-0.947-0.228-1.396s0.947-0.551,1.396-0.228
					c2.194,1.58,5.384,2.547,6.39,2.547c1.316,0,2.782-2.075,2.782-5.053c0-2.976-1.466-5.05-2.782-5.05
					c-1.116,0-4.62,1.104-6.769,2.834c-0.432,0.348-1.061,0.279-1.405-0.151c-0.347-0.43-0.279-1.06,0.151-1.405
					c2.482-2.001,6.41-3.277,8.022-3.277c2.682,0,4.782,3.097,4.782,7.05C38.939,33.204,36.839,36.302,34.157,36.302z"/>
			</g>
		</g>
		<path d="M19.238,47.805c-0.119,0-0.238-0.021-0.353-0.064c-0.389-0.146-0.647-0.52-0.647-0.936V33.922c0-0.553,0.448-1,1-1
			s1,0.447,1,1v10.233l2.907-3.303c0.184-0.209,0.447-0.332,0.726-0.339c0.262-0.006,0.547,0.103,0.741,0.303l3.434,3.527V33.887
			c0-0.553,0.447-1,1-1s1,0.447,1,1v12.918c0,0.407-0.246,0.773-0.624,0.927c-0.374,0.15-0.809,0.063-1.093-0.229l-4.396-4.517
			l-3.944,4.48C19.795,47.686,19.52,47.805,19.238,47.805z"/>
	</g>
	<path d="M37.97,28.469c-0.193,0-0.388-0.056-0.56-0.172c-0.458-0.31-0.577-0.932-0.268-1.389c1.772-2.616,2.709-5.682,2.709-8.867
		c0-8.738-7.11-15.846-15.851-15.846c-8.741,0-15.852,7.108-15.852,15.846c0,3.17,0.933,6.229,2.696,8.846
		c0.309,0.457,0.188,1.079-0.27,1.388c-0.458,0.308-1.08,0.188-1.388-0.271c-1.988-2.947-3.038-6.393-3.038-9.963
		c0-9.84,8.008-17.846,17.852-17.846c9.843,0,17.851,8.006,17.851,17.846c0,3.587-1.056,7.041-3.053,9.988
		C38.605,28.315,38.29,28.469,37.97,28.469z M18.621,25.459c-0.227,0-0.456-0.077-0.643-0.234c-2.125-1.787-3.345-4.405-3.345-7.184
		c0-5.165,4.203-9.367,9.368-9.367c5.165,0,9.367,4.202,9.367,9.367c0,2.769-1.211,5.378-3.321,7.157
		c-0.422,0.356-1.053,0.303-1.409-0.119c-0.355-0.423-0.302-1.054,0.12-1.41c1.659-1.398,2.61-3.45,2.61-5.628
		c0-4.063-3.305-7.367-7.367-7.367c-4.063,0-7.368,3.305-7.368,7.367c0,2.187,0.959,4.247,2.632,5.652
		c0.423,0.355,0.477,0.986,0.122,1.409C19.189,25.338,18.906,25.459,18.621,25.459z"/>
</g>
</svg>
