<?xml version="1.0" encoding="utf-8"?>
<!-- Generator: Adobe Illustrator 16.0.0, SVG Export Plug-In . SVG Version: 6.00 Build 0)  -->
<!DOCTYPE svg PUBLIC "-//W3C//DTD SVG 1.1//EN" "http://www.w3.org/Graphics/SVG/1.1/DTD/svg11.dtd">
<svg version="1.1" id="Layer_1" xmlns="http://www.w3.org/2000/svg" xmlns:xlink="http://www.w3.org/1999/xlink" x="0px" y="0px"
	 width="48px" height="48px" viewBox="0 0 48 48" enable-background="new 0 0 48 48" xml:space="preserve">
<g>
	<path d="M43.043,39.117H4.957c-0.394,0-0.751-0.231-0.912-0.591c-0.162-0.359-0.097-0.779,0.165-1.074l10.125-11.384h-6.21
		c-0.386,0-0.737-0.222-0.903-0.569c-0.166-0.349-0.117-0.761,0.126-1.06L17.51,11.897h-3.905c-0.411,0-0.78-0.251-0.93-0.633
		c-0.151-0.382-0.052-0.817,0.248-1.098l10.398-9.703c0.384-0.358,0.98-0.358,1.365,0l10.279,9.601
		c0.27,0.179,0.447,0.485,0.447,0.833c0,0.552-0.447,1-1,1c-0.005,0.001-0.012,0-0.02,0H30.49l10.063,12.415
		c0.212,0.184,0.346,0.455,0.346,0.756c0,0.553-0.447,1-1,1c-0.005,0.001-0.013,0.001-0.02,0h-6.21L43.79,37.453
		c0.262,0.294,0.326,0.715,0.165,1.073C43.794,38.886,43.437,39.117,43.043,39.117z M7.185,37.117h33.631L30.694,25.732
		c-0.262-0.294-0.326-0.715-0.165-1.073c0.161-0.36,0.519-0.591,0.912-0.591h6.34L27.615,11.527c-0.242-0.3-0.291-0.712-0.125-1.06
		s0.517-0.57,0.902-0.57h3.464l-7.854-7.335l-7.86,7.335h3.466c0.386,0,0.737,0.222,0.903,0.57c0.166,0.348,0.117,0.76-0.126,1.06
		L10.222,24.068h6.34c0.394,0,0.751,0.231,0.912,0.591c0.162,0.359,0.097,0.779-0.165,1.074L7.185,37.117z"/>
	<path d="M28.749,47.807h-9.495c-0.552,0-1-0.447-1-1v-8.689c0-0.553,0.448-1,1-1h9.495c0.553,0,1,0.447,1,1v8.689
		C29.749,47.359,29.302,47.807,28.749,47.807z M20.254,45.807h7.495v-6.689h-7.495V45.807z"/>
</g>
</svg>
