<?xml version="1.0" encoding="utf-8"?>
<!-- Generator: Adobe Illustrator 16.0.0, SVG Export Plug-In . SVG Version: 6.00 Build 0)  -->
<!DOCTYPE svg PUBLIC "-//W3C//DTD SVG 1.1//EN" "http://www.w3.org/Graphics/SVG/1.1/DTD/svg11.dtd">
<svg version="1.1" id="Layer_1" xmlns="http://www.w3.org/2000/svg" xmlns:xlink="http://www.w3.org/1999/xlink" x="0px" y="0px"
	 width="48px" height="48px" viewBox="0 0 48 48" enable-background="new 0 0 48 48" xml:space="preserve">
<g>
	<g>
		<path d="M37.749,41.535H10.251c-0.394,0-0.751-0.231-0.912-0.59c-0.162-0.359-0.097-0.78,0.165-1.074l6.897-7.762h-3.867
			c-0.386,0-0.737-0.222-0.903-0.569c-0.166-0.349-0.117-0.761,0.126-1.061l6.976-8.603h-2.235c-0.411,0-0.779-0.251-0.93-0.633
			c-0.151-0.382-0.053-0.817,0.248-1.098l7.503-7.011c0.384-0.359,0.98-0.359,1.365,0l7.396,6.908
			c0.27,0.179,0.447,0.485,0.447,0.833c0,0.552-0.447,1-1,1c-0.005,0-0.013,0.001-0.02,0h-2.235l6.867,8.477
			c0.212,0.183,0.346,0.454,0.346,0.756c0,0.553-0.447,1-1,1c-0.005,0.001-0.013,0.001-0.02,0h-3.867l6.899,7.762
			c0.262,0.294,0.326,0.715,0.165,1.073C38.5,41.304,38.143,41.535,37.749,41.535z M12.478,39.535h23.045l-6.899-7.762
			c-0.262-0.294-0.326-0.715-0.165-1.073c0.161-0.359,0.519-0.591,0.912-0.591h3.996l-6.971-8.603
			c-0.242-0.299-0.291-0.712-0.125-1.06c0.166-0.348,0.517-0.57,0.902-0.57h1.798L24,15.235l-4.968,4.642h1.798
			c0.386,0,0.737,0.222,0.903,0.57s0.117,0.76-0.126,1.06l-6.976,8.603h3.996c0.394,0,0.751,0.231,0.912,0.59
			c0.162,0.359,0.097,0.78-0.165,1.074L12.478,39.535z"/>
		<path d="M27.427,47.805h-6.855c-0.552,0-1-0.447-1-1v-6.27c0-0.553,0.448-1,1-1h6.855c0.553,0,1,0.447,1,1v6.27
			C28.427,47.357,27.979,47.805,27.427,47.805z M21.572,45.805h4.855v-4.27h-4.855V45.805z"/>
	</g>
	<polygon points="24,10.521 20.232,12.794 21.226,8.505 17.903,5.625 22.286,5.244 24,1.195 25.714,5.244 30.1,5.625 26.773,8.505 
		27.773,12.794 	"/>
</g>
</svg>
