<?xml version="1.0" encoding="utf-8"?>
<!-- Generator: Adobe Illustrator 16.0.0, SVG Export Plug-In . SVG Version: 6.00 Build 0)  -->
<!DOCTYPE svg PUBLIC "-//W3C//DTD SVG 1.1//EN" "http://www.w3.org/Graphics/SVG/1.1/DTD/svg11.dtd">
<svg version="1.1" id="Layer_1" xmlns="http://www.w3.org/2000/svg" xmlns:xlink="http://www.w3.org/1999/xlink" x="0px" y="0px"
	 width="48px" height="48px" viewBox="0 0 48 48" enable-background="new 0 0 48 48" xml:space="preserve">
<g>
	<path d="M5.209,11.945c-0.345,0-0.681-0.178-0.866-0.499c-0.277-0.478-0.114-1.089,0.364-1.367l15.297-8.871
		c0.477-0.275,1.09-0.115,1.367,0.364c0.277,0.478,0.114,1.089-0.364,1.367L5.709,11.81C5.552,11.901,5.379,11.945,5.209,11.945z"/>
	<path d="M20.506,10.234c-0.345,0-0.681-0.179-0.866-0.499c-0.277-0.478-0.114-1.09,0.364-1.367l5.526-3.199
		c0.479-0.276,1.089-0.114,1.366,0.365c0.277,0.478,0.113,1.09-0.364,1.367L21.006,10.1C20.848,10.19,20.676,10.234,20.506,10.234z"
		/>
	<path d="M22.665,16.334c-0.345,0-0.681-0.179-0.866-0.499c-0.277-0.478-0.114-1.089,0.364-1.367l5.523-3.202
		c0.479-0.275,1.091-0.113,1.367,0.364c0.277,0.478,0.114,1.089-0.363,1.367l-5.524,3.202
		C23.008,16.291,22.835,16.334,22.665,16.334z"/>
	<path d="M22.665,24.215c-0.345,0-0.68-0.178-0.866-0.498c-0.277-0.478-0.115-1.09,0.362-1.367l5.524-3.208
		c0.477-0.278,1.089-0.115,1.366,0.362c0.278,0.478,0.115,1.09-0.362,1.367l-5.523,3.208C23.008,24.171,22.835,24.215,22.665,24.215
		z"/>
	<path d="M22.483,42.92c-0.345,0-0.681-0.179-0.866-0.499c-0.277-0.478-0.114-1.089,0.364-1.366l5.524-3.201
		c0.478-0.276,1.09-0.113,1.366,0.364c0.277,0.478,0.114,1.089-0.364,1.366l-5.523,3.201C22.826,42.877,22.653,42.92,22.483,42.92z"
		/>
	<path d="M25.245,36.398c-3.259,0-5.91-2.651-5.91-5.91s2.651-5.91,5.91-5.91s5.909,2.651,5.909,5.91S28.504,36.398,25.245,36.398z
		 M25.245,26.578c-2.156,0-3.91,1.754-3.91,3.91s1.754,3.91,3.91,3.91c2.155,0,3.909-1.754,3.909-3.91S27.4,26.578,25.245,26.578z"
		/>
	<g>
		<path d="M29.704,27.011h-2V13.529c0-6.25-4.992-11.334-11.129-11.334c-6.139,0-11.133,5.084-11.133,11.334
			c0,1.305,1.062,2.366,2.367,2.366c1.304,0,2.365-1.062,2.365-2.366c0-3.643,2.871-6.607,6.4-6.607
			c3.528,0,6.398,2.964,6.398,6.607V26.83h-2V13.529c0-2.54-1.973-4.607-4.398-4.607c-2.426,0-4.4,2.067-4.4,4.607
			c0,2.408-1.958,4.366-4.365,4.366c-2.408,0-4.367-1.958-4.367-4.366c0-7.353,5.892-13.334,13.133-13.334
			c7.239,0,13.129,5.981,13.129,13.334V27.011z"/>
		<path d="M25.335,47.805c-2.406,0-4.363-1.959-4.363-4.367v-9.305h2v9.305c0,1.306,1.06,2.367,2.363,2.367
			c1.306,0,2.368-1.062,2.368-2.367v-9.469h2v9.469C29.703,45.846,27.743,47.805,25.335,47.805z"/>
	</g>
	<path d="M9.788,37.543c-0.76,0-1.446-0.158-2.022-0.477c-0.633-0.349-1.454-1.072-1.767-2.537
		c-0.304-1.414-0.147-2.689,0.004-3.923c0.087-0.704,0.168-1.369,0.168-2.06c0-0.262-0.012-0.537-0.023-0.818
		c-0.041-0.979-0.086-2.091,0.288-3.071c0.632-1.666,2.056-1.562,2.999-1.491l0.38,0.025c1.191,0.061,2.287,0.429,3.347,0.785
		c0.29,0.097,0.579,0.194,0.866,0.284c0.582,0.181,1.105,0.427,1.611,0.664c0.358,0.168,0.718,0.338,1.097,0.479
		c2.739,1.009,4.229,1.594,4.694,1.844l-0.947,1.762c-0.208-0.112-1.061-0.485-4.433-1.728c-0.44-0.162-0.852-0.354-1.26-0.546
		c-0.465-0.219-0.905-0.425-1.354-0.564c-0.301-0.094-0.605-0.195-0.91-0.298c-0.975-0.327-1.896-0.637-2.814-0.684L9.289,25.16
		c-0.879-0.064-0.885-0.049-0.982,0.208c-0.228,0.598-0.193,1.452-0.159,2.278c0.013,0.31,0.025,0.612,0.025,0.9
		c0,0.813-0.093,1.57-0.183,2.304c-0.137,1.118-0.267,2.174-0.034,3.26c0.126,0.593,0.38,0.986,0.776,1.205
		c0.625,0.344,1.696,0.294,2.863-0.137c0.553-0.206,1.11-0.402,1.668-0.599c1.026-0.36,2.086-0.733,3.114-1.173
		c0.438-0.187,0.882-0.312,1.313-0.434c0.615-0.174,1.196-0.338,1.605-0.639l1.185,1.611c-0.702,0.516-1.522,0.748-2.247,0.952
		c-0.388,0.109-0.754,0.213-1.072,0.349c-1.086,0.465-2.178,0.849-3.235,1.22c-0.546,0.192-1.092,0.385-1.637,0.588
		C11.404,37.38,10.558,37.543,9.788,37.543z"/>
	<path d="M40.598,37.543c-0.77,0-1.614-0.162-2.498-0.487c-0.545-0.203-1.088-0.394-1.631-0.585
		c-1.061-0.372-2.156-0.758-3.249-1.226c-0.315-0.134-0.683-0.237-1.07-0.347c-0.724-0.205-1.544-0.437-2.246-0.952l1.184-1.611
		c0.41,0.301,0.991,0.465,1.606,0.639c0.431,0.121,0.876,0.247,1.312,0.433c1.033,0.442,2.098,0.816,3.127,1.178
		c0.555,0.195,1.108,0.39,1.662,0.596c1.184,0.436,2.226,0.485,2.86,0.136c0.396-0.218,0.65-0.612,0.778-1.205
		c0.23-1.083,0.1-2.137-0.038-3.253c-0.091-0.735-0.185-1.496-0.185-2.311c0-0.289,0.013-0.594,0.025-0.905
		c0.034-0.825,0.069-1.678-0.156-2.272c-0.097-0.254-0.106-0.276-0.988-0.208l-0.42,0.027c-0.915,0.047-1.834,0.355-2.808,0.682
		c-0.308,0.104-0.614,0.206-0.92,0.3c-0.446,0.14-0.888,0.347-1.354,0.565c-0.407,0.191-0.817,0.383-1.246,0.542
		c-2.375,0.871-4.079,1.535-4.45,1.732l-0.939-1.766c0.599-0.318,2.884-1.178,4.696-1.843c0.373-0.139,0.732-0.309,1.09-0.477
		c0.507-0.237,1.031-0.483,1.611-0.665c0.293-0.091,0.585-0.188,0.877-0.287c1.058-0.354,2.152-0.722,3.34-0.782l0.377-0.025
		c0.943-0.069,2.367-0.173,3.004,1.49c0.372,0.98,0.326,2.09,0.285,3.068c-0.012,0.283-0.023,0.56-0.023,0.822
		c0,0.691,0.082,1.358,0.17,2.065c0.152,1.23,0.31,2.504,0.009,3.916c-0.315,1.467-1.137,2.19-1.77,2.539
		C42.043,37.385,41.357,37.543,40.598,37.543z"/>
</g>
</svg>
