<?xml version="1.0" encoding="utf-8"?>
<!-- Generator: Adobe Illustrator 16.0.0, SVG Export Plug-In . SVG Version: 6.00 Build 0)  -->
<!DOCTYPE svg PUBLIC "-//W3C//DTD SVG 1.1//EN" "http://www.w3.org/Graphics/SVG/1.1/DTD/svg11.dtd">
<svg version="1.1" id="Layer_1" xmlns="http://www.w3.org/2000/svg" xmlns:xlink="http://www.w3.org/1999/xlink" x="0px" y="0px"
	 width="48px" height="48px" viewBox="0 0 48 48" enable-background="new 0 0 48 48" xml:space="preserve">
<g>
	<path d="M23.996,47.573c-9.744,0-17.672-7.932-17.672-17.681c0-9.748,7.928-17.678,17.672-17.678c4.723,0,9.162,1.839,12.502,5.179
		c3.339,3.339,5.178,7.778,5.178,12.499C41.676,39.642,33.745,47.573,23.996,47.573z M23.998,14.215
		c-8.643,0-15.674,7.033-15.674,15.678c0,8.646,7.03,15.681,15.672,15.681c8.646,0,15.68-7.034,15.68-15.681
		C39.676,21.248,32.643,14.215,23.998,14.215z"/>
	<path d="M33.328,17.012c-0.553,0-1-0.448-1-1V8.929H15.674v7.083c0,0.552-0.448,1-1,1s-1-0.448-1-1V7.929c0-0.552,0.448-1,1-1
		h18.654c0.553,0,1,0.448,1,1v8.083C34.328,16.564,33.881,17.012,33.328,17.012z"/>
	<path d="M30.438,8.437c-0.553,0-1-0.448-1-1c0-2.762-2.441-5.009-5.441-5.009c-2.999,0-5.438,2.247-5.438,5.009
		c0,0.552-0.448,1-1,1s-1-0.448-1-1c0-3.865,3.337-7.009,7.438-7.009c4.104,0,7.441,3.144,7.441,7.009
		C31.438,7.989,30.99,8.437,30.438,8.437z"/>
</g>
</svg>
