<?xml version="1.0" encoding="utf-8"?>
<!-- Generator: Adobe Illustrator 16.0.0, SVG Export Plug-In . SVG Version: 6.00 Build 0)  -->
<!DOCTYPE svg PUBLIC "-//W3C//DTD SVG 1.1//EN" "http://www.w3.org/Graphics/SVG/1.1/DTD/svg11.dtd">
<svg version="1.1" id="Layer_1" xmlns="http://www.w3.org/2000/svg" xmlns:xlink="http://www.w3.org/1999/xlink" x="0px" y="0px"
	 width="48px" height="48px" viewBox="0 0 48 48" enable-background="new 0 0 48 48" xml:space="preserve">
<g>
	<g>
		<path d="M24,18.484c-4.079,0-7.398-3.319-7.398-7.398S19.921,3.688,24,3.688c4.078,0,7.396,3.319,7.396,7.398
			S28.078,18.484,24,18.484z M24,5.688c-2.977,0-5.398,2.421-5.398,5.398s2.421,5.398,5.398,5.398c2.976,0,5.396-2.421,5.396-5.398
			S26.976,5.688,24,5.688z"/>
		<g>
			<path d="M7.459,22.09c-4.073,0-7.264-4.834-7.264-11.005c0-6.169,3.191-11.001,7.264-11.001c2.495,0,8.891,2.104,12.847,5.274
				c0.431,0.345,0.5,0.975,0.155,1.406c-0.345,0.431-0.974,0.5-1.406,0.155C15.313,3.919,9.42,2.084,7.459,2.084
				c-2.854,0-5.264,4.122-5.264,9.001c0,4.881,2.411,9.005,5.264,9.005c1.961,0,7.321-1.729,10.933-4.336
				c0.449-0.323,1.073-0.221,1.396,0.225c0.324,0.448,0.223,1.073-0.225,1.396C15.516,20.296,9.786,22.09,7.459,22.09z"/>
			<path d="M40.548,22.09c-2.327,0-8.059-1.794-12.105-4.715c-0.448-0.323-0.549-0.949-0.226-1.396
				c0.323-0.448,0.947-0.549,1.396-0.226c3.612,2.607,8.974,4.337,10.936,4.337c2.85,0,5.257-4.124,5.257-9.005
				c0-4.879-2.407-9.002-5.257-9.002c-1.966,0-7.862,1.835-11.597,4.834c-0.431,0.345-1.061,0.277-1.405-0.154
				c-0.347-0.431-0.277-1.06,0.153-1.406c3.948-3.171,10.349-5.274,12.849-5.274c4.069,0,7.257,4.833,7.257,11.002
				C47.805,17.256,44.617,22.09,40.548,22.09z"/>
		</g>
	</g>
	<path d="M15.896,47.916c-0.119,0-0.238-0.021-0.353-0.064c-0.389-0.146-0.647-0.52-0.647-0.936V18.809c0-0.552,0.448-1,1-1
		s1,0.448,1,1v25.457l5.938-6.746c0.184-0.21,0.447-0.332,0.725-0.34c0.273-0.003,0.547,0.103,0.741,0.302l6.802,6.977V18.756
		c0-0.552,0.447-1,1-1s1,0.448,1,1v28.16c0,0.407-0.246,0.773-0.623,0.927c-0.377,0.15-0.81,0.063-1.093-0.229l-7.764-7.964
		l-6.975,7.926C16.453,47.797,16.178,47.916,15.896,47.916z"/>
</g>
</svg>
