<?xml version="1.0" encoding="utf-8"?>
<!-- Generator: Adobe Illustrator 16.0.0, SVG Export Plug-In . SVG Version: 6.00 Build 0)  -->
<!DOCTYPE svg PUBLIC "-//W3C//DTD SVG 1.1//EN" "http://www.w3.org/Graphics/SVG/1.1/DTD/svg11.dtd">
<svg version="1.1" id="Layer_1" xmlns="http://www.w3.org/2000/svg" xmlns:xlink="http://www.w3.org/1999/xlink" x="0px" y="0px"
	 width="48px" height="48px" viewBox="0 0 48 48" enable-background="new 0 0 48 48" xml:space="preserve">
<g>
	<g>
		<path d="M24,34.65c-2.289,0-4.151-1.862-4.151-4.15s1.862-4.15,4.151-4.15c2.288,0,4.15,1.862,4.15,4.15S26.288,34.65,24,34.65z
			 M24,28.35c-1.186,0-2.151,0.965-2.151,2.15s0.965,2.15,2.151,2.15c1.186,0,2.15-0.965,2.15-2.15S25.186,28.35,24,28.35z"/>
		<g>
			<g>
				<path d="M24,27.591c-0.552,0-1-0.447-1-1v-6.658c0-0.552,0.448-1,1-1c0.553,0,1,0.448,1,1v6.658
					C25,27.144,24.553,27.591,24,27.591z"/>
				<g>
					<path d="M24,24.393c-0.239,0-0.479-0.085-0.671-0.259l-3.08-2.79c-0.409-0.371-0.44-1.003-0.07-1.413
						c0.371-0.409,1.003-0.44,1.413-0.07l3.08,2.79c0.41,0.371,0.441,1.003,0.07,1.413C24.544,24.282,24.272,24.393,24,24.393z"/>
					<path d="M24,24.393c-0.273,0-0.544-0.111-0.742-0.329c-0.371-0.41-0.339-1.042,0.07-1.413l3.082-2.79
						c0.409-0.371,1.042-0.339,1.412,0.07c0.371,0.41,0.34,1.042-0.07,1.413l-3.081,2.79C24.48,24.308,24.24,24.393,24,24.393z"/>
				</g>
			</g>
			<g>
				<path d="M24,42.068c-0.552,0-1-0.447-1-1v-6.662c0-0.553,0.448-1,1-1c0.553,0,1,0.447,1,1v6.662
					C25,41.621,24.553,42.068,24,42.068z"/>
				<g>
					<path d="M27.081,41.396c-0.239,0-0.479-0.085-0.671-0.259l-3.081-2.787c-0.41-0.37-0.441-1.003-0.071-1.412
						c0.37-0.408,1.002-0.442,1.413-0.07l3.081,2.787c0.409,0.37,0.441,1.003,0.07,1.412C27.625,41.285,27.354,41.396,27.081,41.396
						z"/>
					<path d="M20.92,41.396c-0.273,0-0.544-0.111-0.742-0.329c-0.37-0.409-0.339-1.042,0.071-1.412l3.08-2.787
						c0.41-0.372,1.042-0.338,1.412,0.07c0.371,0.409,0.339,1.042-0.07,1.412l-3.08,2.787C21.399,41.312,21.16,41.396,20.92,41.396z
						"/>
				</g>
			</g>
		</g>
		<g>
			<g>
				<path d="M34.566,31.5H27.91c-0.553,0-1-0.447-1-1s0.447-1,1-1h6.656c0.553,0,1,0.447,1,1S35.119,31.5,34.566,31.5z"/>
				<g>
					<path d="M31.107,31.5c-0.239,0-0.479-0.085-0.671-0.259c-0.409-0.37-0.441-1.003-0.07-1.412l2.789-3.082
						c0.37-0.408,1.003-0.442,1.412-0.07c0.409,0.37,0.441,1.003,0.07,1.412l-2.789,3.082C31.651,31.389,31.38,31.5,31.107,31.5z"/>
					<path d="M33.896,34.581c-0.272,0-0.544-0.11-0.741-0.329l-2.789-3.081c-0.371-0.409-0.339-1.042,0.07-1.412
						c0.41-0.371,1.041-0.341,1.412,0.07l2.789,3.081c0.371,0.409,0.339,1.042-0.07,1.412
						C34.376,34.496,34.136,34.581,33.896,34.581z"/>
				</g>
			</g>
			<g>
				<path d="M20.092,31.5h-6.659c-0.552,0-1-0.447-1-1s0.448-1,1-1h6.659c0.552,0,1,0.447,1,1S20.644,31.5,20.092,31.5z"/>
				<g>
					<path d="M14.104,34.581c-0.239,0-0.479-0.085-0.67-0.259c-0.41-0.37-0.441-1.003-0.071-1.412l2.788-3.081
						c0.372-0.408,1.003-0.442,1.413-0.07c0.41,0.37,0.441,1.003,0.071,1.412l-2.788,3.081
						C14.648,34.47,14.376,34.581,14.104,34.581z"/>
					<path d="M16.893,31.5c-0.273,0-0.544-0.111-0.742-0.329l-2.788-3.082c-0.371-0.409-0.339-1.042,0.071-1.412
						c0.41-0.373,1.041-0.339,1.413,0.07l2.788,3.082c0.371,0.409,0.339,1.042-0.071,1.412C17.372,31.415,17.131,31.5,16.893,31.5z"
						/>
				</g>
			</g>
		</g>
	</g>
	<path d="M23.996,47.875c-9.868,0-17.896-8.031-17.896-17.902c0-9.868,8.028-17.896,17.896-17.896c4.783,0,9.279,1.861,12.661,5.242
		c3.381,3.38,5.243,7.875,5.243,12.655C41.9,39.844,33.868,47.875,23.996,47.875z M23.998,14.076
		c-8.766,0-15.898,7.131-15.898,15.896c0,8.769,7.131,15.902,15.896,15.902c8.77,0,15.904-7.134,15.904-15.902
		C39.9,21.208,32.767,14.076,23.998,14.076z"/>
	<path d="M33.455,16.902c-0.553,0-1-0.448-1-1V8.714H15.548v7.188c0,0.552-0.448,1-1,1s-1-0.448-1-1V7.714c0-0.552,0.448-1,1-1
		h18.907c0.553,0,1,0.448,1,1v8.188C34.455,16.454,34.008,16.902,33.455,16.902z"/>
	<path d="M30.525,8.216c-0.553,0-1-0.448-1-1c0-2.807-2.48-5.091-5.529-5.091c-3.046,0-5.524,2.284-5.524,5.091c0,0.552-0.448,1-1,1
		s-1-0.448-1-1c0-3.91,3.375-7.091,7.524-7.091c4.151,0,7.529,3.181,7.529,7.091C31.525,7.768,31.078,8.216,30.525,8.216z"/>
</g>
</svg>
