<?xml version="1.0" encoding="utf-8"?>
<!-- Generator: Adobe Illustrator 16.0.0, SVG Export Plug-In . SVG Version: 6.00 Build 0)  -->
<!DOCTYPE svg PUBLIC "-//W3C//DTD SVG 1.1//EN" "http://www.w3.org/Graphics/SVG/1.1/DTD/svg11.dtd">
<svg version="1.1" id="Layer_1" xmlns="http://www.w3.org/2000/svg" xmlns:xlink="http://www.w3.org/1999/xlink" x="0px" y="0px"
	 width="48px" height="48px" viewBox="0 0 48 48" enable-background="new 0 0 48 48" xml:space="preserve">
<g>
	<g>
		<path d="M42.887,38.927H5.114c-0.394,0-0.751-0.231-0.913-0.591c-0.161-0.359-0.096-0.78,0.166-1.074l8.311-9.332H8.102
			c-0.407,0-0.773-0.247-0.926-0.624c-0.153-0.377-0.063-0.809,0.229-1.093l8.969-8.728l-4.471-0.713
			c-0.352-0.056-0.648-0.296-0.776-0.629s-0.068-0.709,0.156-0.987L23.222,0.372c0.379-0.47,1.175-0.47,1.556,0l11.939,14.785
			c0.224,0.278,0.283,0.654,0.155,0.987s-0.424,0.573-0.776,0.629l-4.471,0.713l8.86,8.621c0.261,0.181,0.432,0.481,0.432,0.823
			c0,0.553-0.447,1-1,1c-0.005,0-0.013,0-0.02,0h-4.577l8.313,9.332c0.262,0.294,0.326,0.715,0.165,1.074
			S43.28,38.927,42.887,38.927z M7.344,36.927h33.313l-8.313-9.332c-0.262-0.294-0.326-0.715-0.165-1.074s0.519-0.591,0.912-0.591
			h4.345l-8.634-8.401c-0.271-0.264-0.37-0.658-0.256-1.019c0.114-0.36,0.422-0.625,0.796-0.685l4.733-0.755L24,2.592L13.924,15.07
			l4.733,0.755c0.374,0.06,0.681,0.325,0.795,0.685c0.114,0.361,0.016,0.755-0.256,1.019l-8.634,8.401h4.345
			c0.394,0,0.751,0.231,0.913,0.591c0.161,0.359,0.096,0.78-0.166,1.074L7.344,36.927z"/>
		<path d="M29.463,48H18.538c-0.552,0-1-0.447-1-1v-9.073c0-0.553,0.448-1,1-1h10.925c0.553,0,1,0.447,1,1V47
			C30.463,47.553,30.016,48,29.463,48z M19.538,46h8.925v-7.073h-8.925V46z"/>
	</g>
	<circle cx="22.732" cy="31.628" r="2.586"/>
	<circle cx="23.997" cy="23.372" r="1.264"/>
	<circle cx="21.411" cy="12.554" r="1.264"/>
	<circle cx="26.583" cy="11.29" r="1.264"/>
	<circle cx="32.244" cy="32.892" r="1.264"/>
</g>
</svg>
