<?xml version="1.0" encoding="utf-8"?>
<!-- Generator: Adobe Illustrator 18.0.0, SVG Export Plug-In . SVG Version: 6.00 Build 0)  -->
<!DOCTYPE svg PUBLIC "-//W3C//DTD SVG 1.1//EN" "http://www.w3.org/Graphics/SVG/1.1/DTD/svg11.dtd">
<svg version="1.1" id="Layer_1" xmlns="http://www.w3.org/2000/svg" xmlns:xlink="http://www.w3.org/1999/xlink" x="0px" y="0px"
	 viewBox="0 0 48 48" enable-background="new 0 0 48 48" xml:space="preserve">
<g>
	<path fill="#010101" d="M10.7,18.4L-0.4,5.3l6.8-5.7l11.1,13.1L10.7,18.4z M2.4,5.5l8.5,10.1l3.8-3.1L6.2,2.4L2.4,5.5z"/>
	<path fill="#010101" d="M35.9,48.4l-24.4-29l6.8-5.7l24.4,29L35.9,48.4z M14.3,19.6l21.8,26l3.8-3.1l-21.8-26L14.3,19.6z"/>
	<path fill="#010101" d="M42.1,32.8l-2-0.2c0.2-1.5-0.4-2.2-1.3-3.2c-0.5-0.6-1.1-1.3-1.5-2.2c-0.8-1.5-0.8-3.8-0.6-5.3
		c0.1-0.6,0.3-1.3,0.5-1.9c0.8-3,1.7-6.1-2.9-8.8l1-1.7c5.8,3.4,4.6,8,3.8,11c-0.2,0.6-0.3,1.2-0.4,1.7c-0.2,1.5,0,3.2,0.4,4.1
		c0.3,0.7,0.8,1.2,1.3,1.8C41.3,29.2,42.3,30.4,42.1,32.8z"/>
	<path fill="#010101" d="M48,32l-2-0.2c0.2-1.5-0.4-2.2-1.3-3.2c-0.5-0.6-1.1-1.3-1.5-2.2c-0.7-1.5-0.8-3.8-0.6-5.3
		c0.1-0.6,0.3-1.3,0.5-1.9c0.8-3,1.7-6.1-2.9-8.8l1-1.7c5.8,3.4,4.6,8,3.8,11c-0.2,0.6-0.3,1.2-0.4,1.7c-0.2,1.5,0,3.2,0.4,4.1
		c0.3,0.7,0.8,1.2,1.3,1.8C47.2,28.4,48.2,29.6,48,32z"/>
</g>
</svg>
