<?xml version="1.0" encoding="utf-8"?>
<!-- Generator: Adobe Illustrator 18.0.0, SVG Export Plug-In . SVG Version: 6.00 Build 0)  -->
<!DOCTYPE svg PUBLIC "-//W3C//DTD SVG 1.1//EN" "http://www.w3.org/Graphics/SVG/1.1/DTD/svg11.dtd">
<svg version="1.1" id="Layer_1" xmlns="http://www.w3.org/2000/svg" xmlns:xlink="http://www.w3.org/1999/xlink" x="0px" y="0px"
	 viewBox="0 0 48 48" enable-background="new 0 0 48 48" xml:space="preserve">
<g>
	<g>
		<path fill="#010101" d="M24,3c11.6,0,21,9.4,21,21s-9.4,21-21,21S3,35.6,3,24S12.4,3,24,3 M24,1C11.3,1,1,11.3,1,24s10.3,23,23,23
			s23-10.3,23-23S36.7,1,24,1L24,1z"/>
	</g>
	<polygon fill="#010101" points="34.8,25.5 22.6,24.9 28.6,8.3 30.4,8.9 25.4,23.1 34.8,23.5 	"/>
	<g>
		<rect x="4.1" y="23" fill="#010101" width="4.5" height="2"/>
		<rect x="39.4" y="23" fill="#010101" width="4.5" height="2"/>
	</g>
	<g>
		<rect x="23" y="4.1" fill="#010101" width="2" height="4.5"/>
		<rect x="23" y="39.4" fill="#010101" width="2" height="4.5"/>
	</g>
</g>
</svg>
