<?xml version="1.0" encoding="utf-8"?>
<!-- Generator: Adobe Illustrator 18.0.0, SVG Export Plug-In . SVG Version: 6.00 Build 0)  -->
<!DOCTYPE svg PUBLIC "-//W3C//DTD SVG 1.1//EN" "http://www.w3.org/Graphics/SVG/1.1/DTD/svg11.dtd">
<svg version="1.1" id="Layer_1" xmlns="http://www.w3.org/2000/svg" xmlns:xlink="http://www.w3.org/1999/xlink" x="0px" y="0px"
	 viewBox="0 0 48 48" enable-background="new 0 0 48 48" xml:space="preserve">
<g>
	<path fill="#010101" d="M45.9,37.4H2.3c-1,0-1.9-0.7-2.2-1.7c-0.3-1,0.2-2,1.1-2.5l19.7-10.4c1.9-0.9,4.3-0.9,6.1,0L47,33.2
		c0.9,0.5,1.4,1.5,1.1,2.5C47.8,36.7,46.9,37.4,45.9,37.4z M24,24.1c-0.8,0-1.5,0.2-2.2,0.5L2.2,35c-0.1,0-0.1,0.1-0.1,0.3
		c0,0.2,0.2,0.2,0.2,0.2h43.6c0.1,0,0.2,0,0.2-0.2c0-0.1,0-0.2-0.1-0.3L26.1,24.6C25.5,24.3,24.8,24.1,24,24.1z"/>
	<path fill="#010101" d="M25,23.1h-2v-4.5h1c1.7,0,3-1.3,3-3s-1.3-3-3-3s-3,1.3-3,3h-2c0-2.8,2.2-5,5-5s5,2.2,5,5
		c0,2.4-1.7,4.4-4,4.9V23.1z"/>
</g>
</svg>
