<?xml version="1.0" encoding="utf-8"?>
<!-- Generator: Adobe Illustrator 18.0.0, SVG Export Plug-In . SVG Version: 6.00 Build 0)  -->
<!DOCTYPE svg PUBLIC "-//W3C//DTD SVG 1.1//EN" "http://www.w3.org/Graphics/SVG/1.1/DTD/svg11.dtd">
<svg version="1.1" id="Layer_1" xmlns="http://www.w3.org/2000/svg" xmlns:xlink="http://www.w3.org/1999/xlink" x="0px" y="0px"
	 viewBox="0 0 48 48" enable-background="new 0 0 48 48" xml:space="preserve">
<g>
	<g>
		<path fill="#010101" d="M25,48H11.1V31.7l-5.4,9L0.2,38L8,14.5l8.4-4.5l8.6,11V48z M13.1,46H23V21.7l-7.2-9.2l-6.2,3.3L2.6,37
			l2.3,1.1l8.2-13.6V46z"/>
		<path fill="#010101" d="M36.9,48H23V21.1l8.6-11l8.4,4.5L47.8,38l-5.5,2.7l-5.4-9V48z M25,46h9.9V24.5l8.2,13.6l2.3-1.1l-7-21.1
			l-6.2-3.3L25,21.7V46z"/>
	</g>
	<path fill="#010101" d="M30.8,13c-8-2.5-13.5-0.1-13.6,0l-0.8-1.8c0.3-0.1,6.2-2.7,15,0L30.8,13z"/>
	<path fill="#010101" d="M24.6,11.1h-2V5.2h1c0.9,0,1.6-0.7,1.6-1.6S24.5,2,23.6,2C22.7,2,22,2.7,22,3.6h-2c0-2,1.6-3.6,3.6-3.6
		s3.6,1.6,3.6,3.6c0,1.6-1.1,3-2.6,3.5V11.1z"/>
</g>
</svg>
