<?xml version="1.0" encoding="utf-8"?>
<!-- Generator: Adobe Illustrator 18.0.0, SVG Export Plug-In . SVG Version: 6.00 Build 0)  -->
<!DOCTYPE svg PUBLIC "-//W3C//DTD SVG 1.1//EN" "http://www.w3.org/Graphics/SVG/1.1/DTD/svg11.dtd">
<svg version="1.1" id="Layer_1" xmlns="http://www.w3.org/2000/svg" xmlns:xlink="http://www.w3.org/1999/xlink" x="0px" y="0px"
	 viewBox="0 0 48 48" enable-background="new 0 0 48 48" xml:space="preserve">
<g>
	<g>
		<path fill="#010101" d="M42,40.3H6c-3.3,0-6-2.7-6-6V13.7c0-3.3,2.7-6,6-6h36c3.3,0,6,2.7,6,6v20.6C48,37.6,45.3,40.3,42,40.3z
			 M6,9.7c-2.2,0-4,1.8-4,4v20.6c0,2.2,1.8,4,4,4h36c2.2,0,4-1.8,4-4V13.7c0-2.2-1.8-4-4-4H6z"/>
	</g>
	<g>
		<path fill="#010101" d="M26.9,26.1l-3.2-9.9H25l1.5,4.9c0.4,1.3,0.8,2.5,1.1,3.7l0,0c0.3-1.1,0.7-2.4,1.1-3.7l1.7-4.9h1.4
			l-3.5,9.9H26.9z"/>
		<path fill="#010101" d="M34.2,16.2v9.9h-1.3v-9.9H34.2z"/>
		<path fill="#010101" d="M36.4,16.3c0.6-0.1,1.4-0.2,2.4-0.2c1.3,0,2.2,0.3,2.8,0.8c0.5,0.5,0.9,1.2,0.9,2.1s-0.3,1.6-0.8,2.1
			c-0.7,0.7-1.8,1.1-3,1.1c-0.4,0-0.7,0-1-0.1v4h-1.3C36.4,26.1,36.4,16.3,36.4,16.3z M37.7,21.1c0.3,0.1,0.6,0.1,1.1,0.1
			c1.5,0,2.5-0.7,2.5-2.1c0-1.3-0.9-1.9-2.3-1.9c-0.6,0-1,0-1.2,0.1L37.7,21.1L37.7,21.1z"/>
	</g>
	<path fill="#010101" d="M20.4,31.5H3.2V11.6h17.2V31.5z M5.2,29.5h13.2V13.6H5.2V29.5z"/>
	<path fill="#010101" d="M11.8,21.2c-1.9,0-3.5-1.6-3.5-3.5s1.6-3.5,3.5-3.5s3.5,1.6,3.5,3.5S13.7,21.2,11.8,21.2z M11.8,16.2
		c-0.8,0-1.5,0.7-1.5,1.5s0.7,1.5,1.5,1.5s1.5-0.7,1.5-1.5S12.6,16.2,11.8,16.2z"/>
	<path fill="#010101" d="M17.2,30.4c-0.1-3.9-2.5-7-5.4-7s-5.3,3.2-5.4,7l-2,0c0.1-5,3.4-9,7.4-9c4,0,7.3,3.9,7.4,9L17.2,30.4z"/>
	<g>
		<rect x="7.4" y="33.9" fill="#010101" width="8.1" height="2"/>
		<rect x="28" y="33.9" fill="#010101" width="8.1" height="2"/>
	</g>
</g>
</svg>
