<?xml version="1.0" encoding="utf-8"?>
<!-- Generator: Adobe Illustrator 18.0.0, SVG Export Plug-In . SVG Version: 6.00 Build 0)  -->
<!DOCTYPE svg PUBLIC "-//W3C//DTD SVG 1.1//EN" "http://www.w3.org/Graphics/SVG/1.1/DTD/svg11.dtd">
<svg version="1.1" id="Layer_1" xmlns="http://www.w3.org/2000/svg" xmlns:xlink="http://www.w3.org/1999/xlink" x="0px" y="0px"
	 viewBox="0 0 48 48" enable-background="new 0 0 48 48" xml:space="preserve">
<g>
	<path fill="#010101" d="M18.5,48H3l-3-42.1h21.6L18.5,48z M4.8,46h11.8l2.8-38.1H2.1L4.8,46z"/>
	<g>
		<path fill="#010101" d="M34.7,27.9c-6.2,0-11.2-6.5-11.2-14.5v-1h22.4v1C45.9,21.4,40.9,27.9,34.7,27.9z M25.5,14.4
			c0.4,6.4,4.3,11.5,9.2,11.5s8.8-5.1,9.2-11.5H25.5z"/>
		<rect x="33.8" y="26.9" fill="#010101" width="2" height="20.1"/>
		<rect x="30.1" y="46" fill="#010101" width="9.4" height="2"/>
	</g>
	<rect x="1.8" y="16.9" fill="#010101" width="17.9" height="2"/>
	<rect x="25.1" y="16.9" fill="#010101" width="19.2" height="2"/>
	<path fill="#010101" d="M33.3,18.4l-1.7-1l9.6-16.9C41.3,0.2,41.6,0,41.9,0c0.3,0,0.6,0.1,0.9,0.3l5,5.9l-1.5,1.3l-4.1-4.8
		L33.3,18.4z"/>
</g>
</svg>
