<?xml version="1.0" encoding="utf-8"?>
<!-- Generator: Adobe Illustrator 16.0.0, SVG Export Plug-In . SVG Version: 6.00 Build 0)  -->
<!DOCTYPE svg PUBLIC "-//W3C//DTD SVG 1.1//EN" "http://www.w3.org/Graphics/SVG/1.1/DTD/svg11.dtd">
<svg version="1.1" id="Layer_1" xmlns="http://www.w3.org/2000/svg" xmlns:xlink="http://www.w3.org/1999/xlink" x="0px" y="0px"
	 width="48px" height="48px" viewBox="0 0 48 48" enable-background="new 0 0 48 48" xml:space="preserve">
<g>
	<path d="M24,28.863c-1.803,0-3.487-0.793-4.74-2.232L1.505,6.235C-0.369,4.082-0.093,2.54,0.238,1.812C0.546,1.135,1.433,0,3.91,0
		h40.18c2.478,0,3.364,1.135,3.672,1.812c0.331,0.729,0.607,2.271-1.268,4.423L28.74,26.631C27.487,28.07,25.804,28.863,24,28.863z
		 M3.91,2C2.948,2,2.238,2.245,2.059,2.64C1.896,2.999,2.047,3.812,3.014,4.921l17.755,20.397c0.868,0.996,2.015,1.545,3.231,1.545
		c1.217,0,2.364-0.549,3.232-1.545L44.986,4.921c0.966-1.109,1.118-1.922,0.955-2.281C45.762,2.245,45.052,2,44.09,2H3.91z"/>
	<path d="M24,48c-0.552,0-1-0.447-1-1V27.863c0-0.553,0.448-1,1-1c0.553,0,1,0.447,1,1V47C25,47.553,24.553,48,24,48z"/>
	<path d="M29.984,48H18.016c-0.552,0-1-0.447-1-1s0.448-1,1-1h11.968c0.553,0,1,0.447,1,1S30.537,48,29.984,48z"/>
	<path d="M18.856,13.348c-0.478,0-0.982-0.054-1.52-0.177c-0.917-0.21-1.784-0.753-2.622-1.279
		c-0.657-0.413-1.337-0.839-1.793-0.918c-0.22-0.032-0.926,0.21-1.304,0.338c-0.484,0.163-0.941,0.318-1.354,0.369
		c-1.088,0.136-2.14,0.134-2.939,0.119c-0.552-0.011-0.991-0.468-0.979-1.021c0.011-0.545,0.457-0.979,1-0.979
		c0.007,0,0.014,0,0.021,0c0.729,0.015,1.69,0.016,2.65-0.103c0.213-0.027,0.612-0.161,0.963-0.28
		c0.781-0.263,1.585-0.536,2.285-0.414c0.844,0.146,1.656,0.655,2.515,1.194c0.697,0.437,1.417,0.889,2.005,1.024
		c1.729,0.395,2.967-0.207,4.533-0.969c1.042-0.508,2.224-1.084,3.648-1.352c1.162-0.219,3.347-0.53,4.919-0.153
		c0.745,0.178,1.486,0.692,2.271,1.238c0.672,0.466,1.692,1.163,2.121,1.096c0.312-0.055,0.714-0.458,1.104-0.848
		c0.591-0.591,1.326-1.328,2.375-1.524c0.842-0.16,1.665,0.047,2.325,0.213c0.158,0.04,0.313,0.079,0.463,0.111
		c0.54,0.116,0.885,0.647,0.769,1.188c-0.116,0.54-0.646,0.885-1.187,0.769c-0.172-0.037-0.35-0.081-0.531-0.127
		c-0.52-0.13-1.058-0.265-1.471-0.187c-0.44,0.082-0.871,0.514-1.328,0.972c-0.581,0.582-1.239,1.241-2.175,1.404
		c-1.238,0.218-2.443-0.616-3.605-1.423c-0.57-0.396-1.216-0.845-1.595-0.935c-0.872-0.208-2.398-0.142-4.086,0.174
		c-1.159,0.218-2.167,0.709-3.141,1.184C21.878,12.691,20.529,13.348,18.856,13.348z"/>
</g>
</svg>
