<?xml version="1.0" encoding="utf-8"?>
<!-- Generator: Adobe Illustrator 16.0.0, SVG Export Plug-In . SVG Version: 6.00 Build 0)  -->
<!DOCTYPE svg PUBLIC "-//W3C//DTD SVG 1.1//EN" "http://www.w3.org/Graphics/SVG/1.1/DTD/svg11.dtd">
<svg version="1.1" id="Layer_1" xmlns="http://www.w3.org/2000/svg" xmlns:xlink="http://www.w3.org/1999/xlink" x="0px" y="0px"
	 width="48px" height="48px" viewBox="0 0 48 48" enable-background="new 0 0 48 48" xml:space="preserve">
<g>
	<path d="M28.38,48H16.599c-2.229,0-4.042-1.813-4.042-4.043l-0.381-29.414c-0.003-0.268,0.101-0.525,0.288-0.716
		c0.188-0.19,0.444-0.297,0.712-0.297h18.627c0.268,0,0.523,0.107,0.712,0.297c0.188,0.19,0.291,0.448,0.288,0.716L32.422,43.97
		C32.422,46.187,30.608,48,28.38,48z M14.189,15.53l0.368,28.415c0,1.14,0.916,2.056,2.042,2.056H28.38
		c1.126,0,2.042-0.916,2.042-2.043L30.79,15.53H14.189z"/>
	<path d="M22.696,24.645c-0.349,0-0.688-0.183-0.872-0.509L12.25,7.171l-3.092,1.09C8.64,8.445,8.066,8.171,7.883,7.65
		s0.09-1.092,0.611-1.276l3.883-1.369c0.458-0.16,0.965,0.03,1.204,0.452l9.986,17.695c0.271,0.481,0.102,1.091-0.379,1.362
		C23.031,24.603,22.862,24.645,22.696,24.645z"/>
	<path d="M31.686,24.645h-17.98c-0.552,0-1-0.448-1-1s0.448-1,1-1h17.98c0.553,0,1,0.448,1,1S32.238,24.645,31.686,24.645z"/>
	<g>
		<path d="M39.158,13.756c-0.114,0-0.229-0.02-0.338-0.059L21.225,7.372c-0.472-0.169-0.741-0.659-0.641-1.142
			c0.037-0.191,0.133-0.387,0.266-0.526c3.699-4.243,7.76-5.526,12.308-3.892c4.568,1.642,6.863,5.201,7.017,10.88
			c0.004,0.166-0.039,0.347-0.115,0.5c-0.096,0.198-0.255,0.359-0.453,0.459C39.465,13.72,39.312,13.756,39.158,13.756z M23.318,6
			l14.759,5.305C37.638,7.325,35.836,4.9,32.48,3.694C29.12,2.486,26.19,3.205,23.318,6z"/>
		<path d="M25.402,24.38c-0.112,0-0.227-0.019-0.338-0.06c-0.521-0.187-0.79-0.76-0.603-1.279l4.957-13.786
			c0.188-0.52,0.761-0.791,1.279-0.603c0.521,0.187,0.79,0.76,0.604,1.279l-4.957,13.786C26.196,24.126,25.813,24.38,25.402,24.38z"
			/>
		<path d="M32.818,3.753c-0.112,0-0.227-0.02-0.339-0.06c-0.52-0.187-0.789-0.76-0.603-1.28l0.631-1.753
			c0.188-0.52,0.758-0.788,1.28-0.602c0.52,0.187,0.789,0.76,0.603,1.28L33.76,3.092C33.612,3.5,33.229,3.753,32.818,3.753z"/>
		<path d="M26.703,8.808c-0.258,0-0.515-0.099-0.71-0.296c-0.389-0.392-0.387-1.025,0.006-1.414l5.1-5.055
			c0.393-0.389,1.025-0.386,1.414,0.006s0.387,1.025-0.006,1.414l-5.1,5.055C27.212,8.711,26.958,8.808,26.703,8.808z"/>
		<path d="M34.071,11.38c-0.514,0-0.951-0.394-0.995-0.915l-0.623-7.293c-0.047-0.55,0.36-1.034,0.911-1.082
			c0.543-0.048,1.034,0.361,1.081,0.912l0.623,7.293c0.047,0.55-0.36,1.034-0.911,1.082C34.129,11.379,34.1,11.38,34.071,11.38z"/>
	</g>
	<path d="M20.393,34.611c-0.392,0-0.763-0.231-0.923-0.615l-1.676-4.018c-0.102-0.244-0.103-0.52-0.002-0.766
		c0.101-0.245,0.295-0.44,0.54-0.542l4.019-1.676c0.51-0.214,1.096,0.028,1.308,0.538l1.675,4.018
		c0.213,0.51-0.028,1.095-0.538,1.308l-4.019,1.676C20.652,34.587,20.521,34.611,20.393,34.611z M20.025,30.132l0.906,2.172
		l2.173-0.906l-0.906-2.172L20.025,30.132z"/>
	<path d="M25.212,43.535c-0.126,0-0.253-0.023-0.372-0.071l-4.041-1.619c-0.512-0.206-0.762-0.788-0.556-1.301l1.617-4.039
		c0.099-0.246,0.291-0.443,0.535-0.547c0.245-0.104,0.52-0.108,0.766-0.01l4.041,1.619c0.513,0.206,0.762,0.788,0.557,1.301
		l-1.617,4.039c-0.099,0.246-0.291,0.443-0.535,0.547C25.479,43.508,25.346,43.535,25.212,43.535z M22.471,40.359l2.185,0.876
		l0.874-2.183l-2.185-0.876L22.471,40.359z"/>
</g>
</svg>
