<?xml version="1.0" encoding="utf-8"?>
<!-- Generator: Adobe Illustrator 16.0.0, SVG Export Plug-In . SVG Version: 6.00 Build 0)  -->
<!DOCTYPE svg PUBLIC "-//W3C//DTD SVG 1.1//EN" "http://www.w3.org/Graphics/SVG/1.1/DTD/svg11.dtd">
<svg version="1.1" id="Layer_1" xmlns="http://www.w3.org/2000/svg" xmlns:xlink="http://www.w3.org/1999/xlink" x="0px" y="0px"
	 width="48px" height="48px" viewBox="0 0 48 48" enable-background="new 0 0 48 48" xml:space="preserve">
<g>
	<path d="M19.376,31.012c-9.235,0-16.748-8.372-16.748-18.663c0-0.631,0.03-1.276,0.088-1.919c0.047-0.515,0.479-0.909,0.996-0.909
		h31.329c0.518,0,0.949,0.394,0.996,0.909c0.059,0.642,0.088,1.287,0.088,1.919C36.125,22.64,28.611,31.012,19.376,31.012z
		 M4.646,11.521c-0.012,0.278-0.019,0.555-0.019,0.828c0,9.188,6.616,16.663,14.748,16.663c8.133,0,14.749-7.475,14.749-16.663
		c0-0.273-0.006-0.55-0.019-0.828H4.646z"/>
	<path d="M19.376,48c-0.552,0-1-0.447-1-1V30.802c0-0.553,0.448-1,1-1s1,0.447,1,1V47C20.376,47.553,19.928,48,19.376,48z"/>
	<path d="M26.91,48H11.842c-0.552,0-1-0.447-1-1s0.448-1,1-1H26.91c0.553,0,1,0.447,1,1S27.463,48,26.91,48z"/>
	<path d="M24.055,20.007c-0.667,0-1.355-0.127-2.063-0.457c-0.424-0.198-0.852-0.422-1.283-0.65
		c-0.961-0.506-1.954-1.03-2.912-1.208c-1.218-0.227-2.57-0.093-4.39,0.432l-0.409,0.119c-1.535,0.449-3.121,0.912-4.808,0.845
		c-1.083-0.042-2.088-0.356-2.985-0.933c-0.178-0.115-0.349-0.248-0.518-0.383c-0.204-0.162-0.415-0.329-0.553-0.361
		c-0.538-0.125-0.873-0.662-0.749-1.2c0.125-0.539,0.662-0.872,1.2-0.749c0.578,0.134,1.003,0.472,1.345,0.744
		c0.117,0.093,0.233,0.187,0.356,0.266c0.602,0.387,1.25,0.588,1.982,0.617c1.366,0.049,2.789-0.364,4.169-0.767l0.414-0.121
		c1.326-0.383,3.319-0.849,5.312-0.477c1.255,0.233,2.385,0.829,3.478,1.405c0.402,0.212,0.8,0.422,1.195,0.606
		c1.227,0.572,2.461,0.124,3.89-0.394c0.793-0.288,1.613-0.585,2.487-0.721c2.207-0.342,3.777,0.005,5.242,1.165
		c0.434,0.343,0.507,0.972,0.164,1.405c-0.342,0.433-0.97,0.508-1.404,0.164c-1.011-0.8-2.045-1.013-3.695-0.757
		c-0.682,0.105-1.376,0.358-2.112,0.625C26.374,19.599,25.25,20.007,24.055,20.007z"/>
	<path d="M17.979,17.709c-0.271,0-0.542-0.109-0.739-0.326L2.89,1.674c-0.373-0.408-0.344-1.04,0.064-1.413
		C3.362-0.11,3.995-0.082,4.366,0.326l14.351,15.709c0.373,0.408,0.344,1.04-0.064,1.413C18.462,17.623,18.22,17.709,17.979,17.709z
		"/>
	<path d="M35.125,20.496c-0.553,0-1-0.448-1-1s0.447-1,1-1c4.548,0,8.248-3.7,8.248-8.248S39.673,2,35.125,2
		c-4.549,0-8.25,3.7-8.25,8.248c0,0.552-0.447,1-1,1s-1-0.448-1-1C24.875,4.597,29.473,0,35.125,0
		c5.65,0,10.248,4.597,10.248,10.248S40.775,20.496,35.125,20.496z"/>
	<path d="M35.125,11.096c-0.553,0-1-0.448-1-1V1.515c0-0.552,0.447-1,1-1s1,0.448,1,1v8.581
		C36.125,10.648,35.678,11.096,35.125,11.096z"/>
	<path d="M43.807,11.096H35.41c-0.553,0-1-0.448-1-1s0.447-1,1-1h8.396c0.553,0,1,0.448,1,1S44.359,11.096,43.807,11.096z"/>
	<path d="M41.738,17.025c-0.242,0-0.485-0.087-0.678-0.265L28.289,4.986c-0.406-0.375-0.432-1.007-0.058-1.413
		c0.375-0.406,1.008-0.432,1.413-0.058L42.416,15.29c0.406,0.375,0.432,1.007,0.058,1.413
		C42.276,16.917,42.008,17.025,41.738,17.025z"/>
	<path d="M35.41,10.806c-0.267,0-0.533-0.106-0.729-0.316c-0.378-0.403-0.357-1.036,0.046-1.414l5.93-5.555
		c0.401-0.377,1.037-0.356,1.413,0.046c0.378,0.403,0.357,1.036-0.046,1.414l-5.93,5.555C35.901,10.717,35.655,10.806,35.41,10.806z
		"/>
</g>
</svg>
