<?xml version="1.0" encoding="utf-8"?>
<!-- Generator: Adobe Illustrator 16.0.0, SVG Export Plug-In . SVG Version: 6.00 Build 0)  -->
<!DOCTYPE svg PUBLIC "-//W3C//DTD SVG 1.1//EN" "http://www.w3.org/Graphics/SVG/1.1/DTD/svg11.dtd">
<svg version="1.1" id="Layer_1" xmlns="http://www.w3.org/2000/svg" xmlns:xlink="http://www.w3.org/1999/xlink" x="0px" y="0px"
	 width="48px" height="48px" viewBox="0 0 48 48" enable-background="new 0 0 48 48" xml:space="preserve">
<g>
	<path d="M26.016,40.707h-4.353c-7.823,0-14.188-6.555-14.188-14.611V12.192c0-0.552,0.448-1,1-1h30.729c0.553,0,1,0.448,1,1v13.904
		C40.204,34.152,33.839,40.707,26.016,40.707z M9.475,13.192v12.904c0,6.954,5.467,12.611,12.188,12.611h4.353
		c6.721,0,12.188-5.657,12.188-12.611V13.192H9.475z"/>
	<path d="M43.102,27.859c-2.7,0-4.897-2.313-4.897-5.154v-4.322c0-2.842,2.197-5.155,4.897-5.155c2.701,0,4.898,2.313,4.898,5.155
		v4.322C48,25.547,45.803,27.859,43.102,27.859z M43.102,15.228c-1.598,0-2.897,1.415-2.897,3.155v4.322
		c0,1.739,1.3,3.154,2.897,3.154c1.599,0,2.898-1.415,2.898-3.154v-4.322C46,16.643,44.7,15.228,43.102,15.228z"/>
	<path d="M23.838,48C12.282,48,0,45.051,0,39.584c0-2.983,3.696-5.479,10.408-7.024c0.54-0.126,1.075,0.212,1.199,0.75
		s-0.212,1.075-0.75,1.199C5.477,35.748,2,37.74,2,39.584C2,42.619,10.968,46,23.838,46c12.87,0,21.839-3.381,21.839-6.416
		c0-1.844-3.478-3.836-8.86-5.076c-0.538-0.124-0.874-0.661-0.75-1.199s0.664-0.875,1.199-0.75
		c6.714,1.547,10.411,4.042,10.411,7.025C47.677,45.051,35.395,48,23.838,48z"/>
	<g>
		<path d="M28.712,10.499c-0.553,0-1-0.448-1-1V4.216c0-0.552,0.447-1,1-1s1,0.448,1,1v5.283
			C29.712,10.051,29.265,10.499,28.712,10.499z"/>
		<path d="M23.838,10.499c-0.552,0-1-0.448-1-1V1c0-0.552,0.448-1,1-1s1,0.448,1,1v8.499C24.838,10.051,24.39,10.499,23.838,10.499z
			"/>
		<path d="M18.965,10.499c-0.552,0-1-0.448-1-1V4.216c0-0.552,0.448-1,1-1s1,0.448,1,1v5.283
			C19.965,10.051,19.517,10.499,18.965,10.499z"/>
	</g>
</g>
</svg>
