<?xml version="1.0" encoding="utf-8"?>
<!-- Generator: Adobe Illustrator 18.0.0, SVG Export Plug-In . SVG Version: 6.00 Build 0)  -->
<!DOCTYPE svg PUBLIC "-//W3C//DTD SVG 1.1//EN" "http://www.w3.org/Graphics/SVG/1.1/DTD/svg11.dtd">
<svg version="1.1" id="Layer_1" xmlns="http://www.w3.org/2000/svg" xmlns:xlink="http://www.w3.org/1999/xlink" x="0px" y="0px"
	 viewBox="0 0 48 48" enable-background="new 0 0 48 48" xml:space="preserve">
<g>
	<g>
		<path fill="#010101" d="M38.1,19.6v0.1c0,11.6-7.9,21-17.6,21s-17.6-9.4-17.6-21v-0.1H38.1 M40.1,17.6h-39C1,18.3,1,19,1,19.7
			c0,12.7,8.8,23,19.6,23s19.6-10.3,19.6-23C40.1,19,40.1,18.3,40.1,17.6L40.1,17.6z"/>
	</g>
	<rect x="11.4" y="44.2" fill="#010101" width="17" height="2"/>
	<path fill="#010101" d="M27.4,41.4l-0.5-1.9c6.6-1.7,17.8-5.7,19.1-13.2c0.5-3-0.8-4.4-2.2-4.7c-1.5-0.3-3.4,0.7-4.1,3.2l-1.9-0.5
		c1-3.8,4-5.2,6.5-4.7c2.4,0.5,4.4,2.9,3.7,7C46.4,35.1,34.4,39.5,27.4,41.4z"/>
	<path fill="#010101" d="M17.1,37.8C7.7,32.4,6.8,23.3,6.8,22.9l2-0.2c0,0.1,0.8,8.5,9.3,13.3L17.1,37.8z"/>
	<path fill="#010101" d="M20.9,16.7l-0.9-1.8c0.4-0.2,2.4-1.4,1.7-3c-0.2-0.3-0.7-0.7-1.2-1.1C20,10.4,19.4,10,19,9.4
		c-0.9-1-1.3-2.5-1-3.8c0.1-0.7,0.7-1.3,1.1-1.8c0.2-0.3,0.6-0.7,0.7-0.9l2-0.2c0.1,1-0.6,1.7-1.2,2.4C20.4,5.4,20,5.8,20,6
		c-0.3,1,0.3,1.9,0.6,2.2c0.3,0.4,0.7,0.7,1.1,1c0.7,0.5,1.4,1.1,1.8,1.9C24.6,13.6,22.8,15.7,20.9,16.7z"/>
</g>
</svg>
