<?xml version="1.0" encoding="utf-8"?>
<!-- Generator: Adobe Illustrator 18.0.0, SVG Export Plug-In . SVG Version: 6.00 Build 0)  -->
<!DOCTYPE svg PUBLIC "-//W3C//DTD SVG 1.1//EN" "http://www.w3.org/Graphics/SVG/1.1/DTD/svg11.dtd">
<svg version="1.1" id="Layer_1" xmlns="http://www.w3.org/2000/svg" xmlns:xlink="http://www.w3.org/1999/xlink" x="0px" y="0px"
	 viewBox="0 0 48 48" enable-background="new 0 0 48 48" xml:space="preserve">
<g>
	<g>
		<path d="M12.2,32.2C5.5,32.2,0,25,0,16.1S5.5,0,12.2,0s12.2,7.2,12.2,16.1S18.9,32.2,12.2,32.2z M12.2,2C6.6,2,2,8.3,2,16.1
			s4.6,14.1,10.2,14.1c5.6,0,10.2-6.3,10.2-14.1S17.8,2,12.2,2z"/>
		<path d="M10.9,31.5c-1.8-4.1-1.1-8.3,0.3-16.5l0.1-0.3c1-6.3-1-10.2-2.9-12.4L9.9,1c2.1,2.5,4.4,7,3.3,14l-0.1,0.4
			c-1.4,8.1-2,11.8-0.4,15.4L10.9,31.5z"/>
	</g>
	<g>
		<path d="M30,48c-2.9,0-5.5-1-7.4-2.8c-1.9-1.9-3-4.4-3-7.4c-0.1-4.3,2-9,5.5-12.6c3.6-3.6,8.3-5.8,12.6-5.8c2.9,0,5.5,1,7.4,2.8
			c1.9,1.8,3,4.4,3,7.4c0.1,4.3-1.9,8.9-5.5,12.7C38.9,45.9,34.4,48,30,48z M37.6,21.4c-3.8,0-8,1.9-11.2,5.2
			c-3.2,3.2-5,7.4-4.9,11.2c0,2.5,0.9,4.5,2.4,6c1.5,1.5,3.6,2.3,6.1,2.3c3.8,0,8-2,11.1-5.2c3.2-3.3,5-7.5,5-11.2
			c0-2.4-0.9-4.5-2.4-6C42.1,22.2,40,21.4,37.6,21.4z"/>
		<path d="M23.9,44.4l-1.8-0.8c1.7-4.1,5.2-6.6,12-11.7c5.3-4,6.4-8.5,6.6-10.9l2,0.2c-0.2,2.7-1.4,7.9-7.4,12.3
			C28.3,38.7,25.4,40.9,23.9,44.4z"/>
	</g>
</g>
</svg>
