<?xml version="1.0" encoding="utf-8"?>
<!-- Generator: Adobe Illustrator 18.0.0, SVG Export Plug-In . SVG Version: 6.00 Build 0)  -->
<!DOCTYPE svg PUBLIC "-//W3C//DTD SVG 1.1//EN" "http://www.w3.org/Graphics/SVG/1.1/DTD/svg11.dtd">
<svg version="1.1" id="Layer_1" xmlns="http://www.w3.org/2000/svg" xmlns:xlink="http://www.w3.org/1999/xlink" x="0px" y="0px"
	 viewBox="0 0 48 48" enable-background="new 0 0 48 48" xml:space="preserve">
<g>
	<path fill="#010101" d="M34.9,41.2H13.3c-3,0-5.5-2.5-5.5-5.5v-6.2c0-8.5,6.9-15.4,15.4-15.4h1.9c8.5,0,15.4,6.9,15.4,15.4v6.2
		C40.5,38.7,37.9,41.2,34.9,41.2z M23.2,16.1c-7.4,0-13.4,6-13.4,13.4v6.2c0,2,1.5,3.5,3.5,3.5h21.6c1.9,0,3.6-1.6,3.6-3.5v-6.2
		c0-7.4-6-13.4-13.4-13.4H23.2z"/>
	<path fill="#010101" d="M34.5,17.5h-2c0-3.3-3.8-5.9-8.4-5.9c-4.6,0-8.4,2.6-8.4,5.9h-2c0-4.4,4.7-7.9,10.4-7.9
		S34.5,13.1,34.5,17.5z"/>
	<rect x="23.1" y="7.8" fill="#010101" width="2" height="2.8"/>
	<path fill="#010101" d="M8.3,36.2C0.3,31.9-0.3,23,0.1,18c0.1-1.8,1-3.4,2.6-4.4c1.5-1,3.4-1.2,5.2-0.6l7.2,2.7l-0.7,1.9l-7.2-2.7
		c-1.2-0.4-2.4-0.3-3.4,0.4c-1,0.6-1.6,1.7-1.6,2.9c-0.4,5.5,0.5,12.7,7.2,16.3L8.3,36.2z"/>
	<polygon fill="#010101" points="40.4,35 38.6,34.2 45.8,19.5 44.2,17.6 37.9,22.6 36.7,21 44.4,14.8 48.2,19.1 	"/>
</g>
</svg>
