<?xml version="1.0" encoding="utf-8"?>
<!-- Generator: Adobe Illustrator 16.0.0, SVG Export Plug-In . SVG Version: 6.00 Build 0)  -->
<!DOCTYPE svg PUBLIC "-//W3C//DTD SVG 1.1//EN" "http://www.w3.org/Graphics/SVG/1.1/DTD/svg11.dtd">
<svg version="1.1" id="Layer_1" xmlns="http://www.w3.org/2000/svg" xmlns:xlink="http://www.w3.org/1999/xlink" x="0px" y="0px"
	 width="48px" height="48px" viewBox="0 0 48 48" enable-background="new 0 0 48 48" xml:space="preserve">
<g>
	<g>
		<path d="M16.084,22.817c-8.851,0-16.051-5.118-16.051-11.409c0-6.291,7.2-11.409,16.051-11.409s16.051,5.118,16.051,11.409
			C32.135,17.699,24.935,22.817,16.084,22.817z M16.084,1.999c-7.748,0-14.051,4.221-14.051,9.409c0,5.188,6.303,9.409,14.051,9.409
			s14.051-4.221,14.051-9.409C30.135,6.22,23.832,1.999,16.084,1.999z"/>
		<path d="M25.474,15.197c-3.158,0-6.973-1.165-10.977-3.475C7.455,7.658,1.632,11.634,1.574,11.675
			c-0.453,0.317-1.076,0.207-1.393-0.245c-0.317-0.453-0.208-1.076,0.245-1.393c0.28-0.195,6.938-4.741,15.07-0.047
			c6.613,3.813,12.458,4.306,14.89,1.255c0.344-0.431,0.975-0.504,1.405-0.158c0.433,0.344,0.503,0.973,0.159,1.405
			C30.509,14.3,28.244,15.197,25.474,15.197z"/>
	</g>
	<g>
		<path d="M28.94,48.001c-2.8,0-5.131-0.973-6.742-2.811c-4.048-4.624-2.06-13.47,4.432-19.72c3.743-3.604,8.418-5.755,12.505-5.755
			c2.8,0,5.13,0.972,6.739,2.81c4.051,4.622,2.063,13.469-4.43,19.721C37.702,45.85,33.027,48.001,28.94,48.001z M39.136,21.715
			c-3.582,0-7.738,1.942-11.118,5.197c-5.734,5.52-7.669,13.128-4.314,16.96c1.219,1.393,3.031,2.129,5.237,2.129
			c3.582,0,7.738-1.942,11.118-5.196c5.734-5.521,7.669-13.131,4.313-16.961C43.152,22.451,41.342,21.715,39.136,21.715z"/>
		<path d="M22.573,45.146c-0.075,0-0.151-0.008-0.227-0.026c-0.538-0.124-0.873-0.662-0.748-1.2
			c0.079-0.34,2.038-8.362,11.035-10.668c7.355-1.887,11.992-5.698,11.812-9.71c-0.024-0.552,0.402-1.019,0.954-1.044
			c0.549-0.015,1.019,0.401,1.044,0.954c0.225,4.998-5.001,9.604-13.313,11.737c-7.832,2.008-9.566,9.111-9.583,9.184
			C23.438,44.835,23.027,45.146,22.573,45.146z"/>
	</g>
</g>
</svg>
