<?xml version="1.0" encoding="utf-8"?>
<!-- Generator: Adobe Illustrator 18.0.0, SVG Export Plug-In . SVG Version: 6.00 Build 0)  -->
<!DOCTYPE svg PUBLIC "-//W3C//DTD SVG 1.1//EN" "http://www.w3.org/Graphics/SVG/1.1/DTD/svg11.dtd">
<svg version="1.1" id="Layer_1" xmlns="http://www.w3.org/2000/svg" xmlns:xlink="http://www.w3.org/1999/xlink" x="0px" y="0px"
	 viewBox="0 0 48 48" enable-background="new 0 0 48 48" xml:space="preserve">
<g>
	<path fill="#010101" d="M31.3,32.4l-1.2-1.6c4.1-3.1,6.7-9.7,6.8-17.1h-23c0.1,4.4,1,8.5,2.8,11.9l-1.8,0.9c-2-3.8-3-8.5-3-13.5
		v-1.4h27v1.4C38.9,21.4,36,28.8,31.3,32.4z"/>
	<path fill="#010101" d="M37.2,27.9c-0.3,0-0.5,0-0.8-0.1c-0.7-0.1-1.4-0.7-1.9-1.4l1.7-1c0.2,0.3,0.5,0.5,0.6,0.5
		c1.4,0.4,3.8-2,4.7-5.1c0.7-2.6,0-4.7-1.8-5.1c-0.4-0.1-1.1-0.2-1.6,0.1l-0.8-1.8c0.9-0.4,1.9-0.4,2.9-0.2c2.4,0.7,4.4,3.3,3.2,7.6
		C42.5,24.6,39.8,27.9,37.2,27.9z"/>
	<g>
		<rect x="28.1" y="4.6" fill="#010101" width="2" height="5.4"/>
		<rect x="24.4" y="1" fill="#010101" width="2" height="9"/>
		<rect x="20.7" y="4.6" fill="#010101" width="2" height="5.4"/>
	</g>
	<path fill="#010101" d="M30.5,48c-0.6,0-1.1-0.2-1.6-0.5C28,47,27,46.3,26,45.6c-2.4-1.8-5.2-3.8-7.4-4.5c-2.9-1.1-5.9-1.3-8.6-1.4
		c-1.3-0.1-2.5-0.1-3.5-0.3c-0.9-0.1-1.7-0.6-2.1-1.4c-0.5-1-0.5-2.2,0-3.4c1.4-3.2,5.4-7.4,10.7-8.8c2.7-0.7,5.4-0.7,8.1,0
		c0.2,0.1,13.4,4.3,10.3,19.6C33.4,46.8,32,48,30.5,48z M19.3,27.1c-1.2,0-2.4,0.2-3.5,0.5c-4.5,1.2-8.1,4.8-9.4,7.7
		C6,35.9,6,36.5,6.2,36.9c0.1,0.2,0.4,0.4,0.7,0.4c0.9,0.2,2,0.2,3.3,0.3c2.7,0.2,6,0.4,9.1,1.6c2.4,0.8,5.3,2.9,7.8,4.8
		c1,0.7,1.9,1.4,2.8,1.9c0.2,0.1,0.3,0.2,0.5,0.2c0.5,0,1.1-0.5,1.3-1.2c2.7-13.6-8.4-17.1-8.9-17.3C21.7,27.3,20.5,27.1,19.3,27.1z
		"/>
	
		<rect x="7.2" y="32.4" transform="matrix(0.1241 0.9923 -0.9923 0.1241 44.0471 16.9022)" fill="#010101" width="10.5" height="2"/>
	<rect x="27.3" y="34" transform="matrix(0.6192 0.7852 -0.7852 0.6192 41.7348 -7.1604)" fill="#010101" width="2" height="10.8"/>
</g>
</svg>
