<?xml version="1.0" encoding="utf-8"?>
<!-- Generator: Adobe Illustrator 18.0.0, SVG Export Plug-In . SVG Version: 6.00 Build 0)  -->
<!DOCTYPE svg PUBLIC "-//W3C//DTD SVG 1.1//EN" "http://www.w3.org/Graphics/SVG/1.1/DTD/svg11.dtd">
<svg version="1.1" id="Layer_1" xmlns="http://www.w3.org/2000/svg" xmlns:xlink="http://www.w3.org/1999/xlink" x="0px" y="0px"
	 viewBox="0 0 48 48" enable-background="new 0 0 48 48" xml:space="preserve">
<g>
	<path fill="#010101" d="M29.9,44.6H18.1c-4.6,0-8.4-3.8-8.4-8.4V11.9h28.6v24.2C38.3,40.9,34.6,44.6,29.9,44.6z M11.7,13.9v22.3
		c0,3.5,2.9,6.4,6.4,6.4h11.8c3.6,0,6.4-2.9,6.4-6.5V13.9H11.7z"/>
	<path fill="#010101" d="M41.4,33.6h-5.1v-19h5.1c2.3,0,4.1,1.8,4.1,4.1v10.8C45.5,31.8,43.7,33.6,41.4,33.6z M38.3,31.6h3.1
		c1.1,0,2.1-1,2.1-2.1V18.7c0-1.1-1-2.1-2.1-2.1h-3.1V31.6z"/>
	<rect x="3" y="46" fill="#010101" width="42" height="2"/>
	<g>
		<rect x="17.5" y="5" fill="#010101" width="2" height="5.2"/>
		<rect x="23" y="1" fill="#010101" width="2" height="9.2"/>
		<rect x="28.5" y="5" fill="#010101" width="2" height="5.2"/>
	</g>
</g>
</svg>
