<?xml version="1.0" encoding="utf-8"?>
<!-- Generator: Adobe Illustrator 16.0.0, SVG Export Plug-In . SVG Version: 6.00 Build 0)  -->
<!DOCTYPE svg PUBLIC "-//W3C//DTD SVG 1.1//EN" "http://www.w3.org/Graphics/SVG/1.1/DTD/svg11.dtd">
<svg version="1.1" id="Layer_1" xmlns="http://www.w3.org/2000/svg" xmlns:xlink="http://www.w3.org/1999/xlink" x="0px" y="0px"
	 width="48px" height="48px" viewBox="0 0 48 48" enable-background="new 0 0 48 48" xml:space="preserve">
<g>
	<path d="M16,35.914c-0.021,0-0.043-0.001-0.065-0.002C7,35.339,0,27.867,0,18.902C0,9.503,7.646,1.857,17.045,1.857
		c7.085,0,13.322,4.265,15.89,10.867c0.2,0.515-0.055,1.094-0.569,1.294c-0.514,0.2-1.094-0.054-1.294-0.57
		c-2.267-5.827-7.772-9.591-14.026-9.591C8.749,3.857,2,10.606,2,18.902c0,7.914,6.177,14.508,14.063,15.014
		c0.551,0.035,0.969,0.511,0.934,1.063C16.963,35.508,16.523,35.914,16,35.914z"/>
	<path d="M30.954,46.145c-9.399,0-17.046-7.647-17.046-17.047c0-9.399,7.647-17.046,17.046-17.046
		C40.354,12.052,48,19.699,48,29.098C48,38.497,40.354,46.145,30.954,46.145z M30.954,14.052c-8.296,0-15.046,6.75-15.046,15.046
		c0,8.297,6.75,15.047,15.046,15.047C39.25,44.145,46,37.395,46,29.098C46,20.801,39.25,14.052,30.954,14.052z"/>
	<circle cx="36.568" cy="31.314" r="2.218"/>
	<circle cx="27.645" cy="21.104" r="2.218"/>
	<circle cx="26.229" cy="32.205" r="2.218"/>
	<circle cx="9.791" cy="18.885" r="2.218"/>
	<circle cx="14.227" cy="11.81" r="2.218"/>
</g>
</svg>
