<?xml version="1.0" encoding="utf-8"?>
<!-- Generator: Adobe Illustrator 16.0.0, SVG Export Plug-In . SVG Version: 6.00 Build 0)  -->
<!DOCTYPE svg PUBLIC "-//W3C//DTD SVG 1.1//EN" "http://www.w3.org/Graphics/SVG/1.1/DTD/svg11.dtd">
<svg version="1.1" id="Layer_1" xmlns="http://www.w3.org/2000/svg" xmlns:xlink="http://www.w3.org/1999/xlink" x="0px" y="0px"
	 width="48px" height="48px" viewBox="0 0 48 48" enable-background="new 0 0 48 48" xml:space="preserve">
<g>
	<g>
		<path d="M39.99,44.016c-0.024,0-0.049-0.001-0.073-0.003L1.949,41.237c-0.452-0.033-0.826-0.366-0.91-0.812l-1.022-5.402
			c-0.084-0.445,0.142-0.892,0.551-1.088c1.415-0.677,34.785-16.595,46.394-17.036c0.35-0.006,0.692,0.164,0.883,0.464
			s0.207,0.68,0.043,0.996c-2.596,4.995-8.856,18.958-7.027,24.128c0.095,0.153,0.149,0.334,0.149,0.527c0,0.553-0.447,1-1,1
			C40.002,44.015,39.996,44.016,39.99,44.016z M2.862,39.299l35.811,2.618c-0.995-6.393,4.49-18.465,6.628-22.855
			C33.745,20.678,6.799,33.208,2.126,35.411L2.862,39.299z"/>
		<path d="M5.603,33.691c-0.552,0-1-0.447-1-1v-10.85c0-0.396,0.234-0.755,0.596-0.915l21.828-9.638
			c0.128-0.056,0.266-0.085,0.404-0.085h11.684c0.553,0,1,0.448,1,1v6.424c0,0.552-0.447,1-1,1s-1-0.448-1-1v-5.424H27.643
			l-21.04,9.29v10.198C6.603,33.244,6.155,33.691,5.603,33.691z"/>
		<path d="M17.794,17.458c-0.552,0-1-0.448-1-1V5.779c0-0.552,0.448-1,1-1s1,0.448,1,1v10.679
			C18.794,17.01,18.346,17.458,17.794,17.458z"/>
		<path d="M8.959,7.125c-0.168,0-0.341-0.021-0.519-0.067c-0.63-0.164-1.149-0.609-1.587-1.36c-0.278-0.478-0.116-1.09,0.361-1.368
			c0.478-0.278,1.089-0.117,1.368,0.361c0.189,0.325,0.329,0.423,0.363,0.432c0.142,0.039,0.652-0.269,0.9-0.415
			c0.368-0.217,0.785-0.463,1.246-0.604c0.718-0.219,1.483-0.096,2.159,0.013c0.353,0.057,0.943,0.153,1.1,0.078
			c0.469-0.292,1.084-0.146,1.375,0.322c0.292,0.469,0.146,1.087-0.323,1.378c-0.759,0.473-1.669,0.326-2.472,0.196
			c-0.459-0.075-0.98-0.159-1.256-0.074c-0.233,0.071-0.515,0.237-0.813,0.413C10.327,6.747,9.686,7.125,8.959,7.125z"/>
	</g>
	<path d="M8.68,26.377c-0.401,0-0.78-0.243-0.933-0.641c-0.199-0.516,0.059-1.095,0.574-1.292l1.889-0.727
		c0.512-0.198,1.093,0.058,1.292,0.574c0.199,0.515-0.059,1.094-0.574,1.292l-1.889,0.727C8.921,26.355,8.8,26.377,8.68,26.377z"/>
	<path d="M15.277,23.812c-0.401,0-0.78-0.244-0.933-0.642c-0.199-0.515,0.059-1.094,0.574-1.292l1.89-0.727
		c0.513-0.198,1.093,0.059,1.292,0.574c0.199,0.515-0.059,1.094-0.574,1.292l-1.89,0.727C15.518,23.79,15.396,23.812,15.277,23.812z
		"/>
	<path d="M23.056,20.889c-0.402,0-0.781-0.244-0.934-0.642c-0.198-0.516,0.059-1.094,0.575-1.292l1.89-0.726
		c0.512-0.199,1.093,0.059,1.292,0.575c0.198,0.516-0.06,1.094-0.575,1.292l-1.889,0.726C23.297,20.867,23.176,20.889,23.056,20.889
		z"/>
</g>
</svg>
