<?xml version="1.0" encoding="utf-8"?>
<!-- Generator: Adobe Illustrator 16.0.0, SVG Export Plug-In . SVG Version: 6.00 Build 0)  -->
<!DOCTYPE svg PUBLIC "-//W3C//DTD SVG 1.1//EN" "http://www.w3.org/Graphics/SVG/1.1/DTD/svg11.dtd">
<svg version="1.1" id="Layer_1" xmlns="http://www.w3.org/2000/svg" xmlns:xlink="http://www.w3.org/1999/xlink" x="0px" y="0px"
	 width="48px" height="48px" viewBox="0 0 48 48" enable-background="new 0 0 48 48" xml:space="preserve">
<g>
	<path d="M38.627,48H9.373c-0.469,0-0.875-0.326-0.977-0.784L3.833,26.526c-0.119-0.54,0.222-1.073,0.761-1.192
		c0.535-0.116,1.073,0.221,1.192,0.761L10.176,46h27.647l4.39-19.905c0.118-0.538,0.646-0.877,1.192-0.761
		c0.539,0.119,0.88,0.652,0.761,1.192l-4.563,20.689C39.502,47.674,39.097,48,38.627,48z"/>
	<path d="M23.999,32.723c-3.107,0-6.026-1.332-7.956-3.597c-1.245,0.394-2.537,0.592-3.852,0.592C5.469,29.718,0,24.568,0,18.238
		c0-6.33,5.469-11.48,12.192-11.48c0.662,0,1.337,0.056,2.019,0.167C15.461,2.858,19.422,0,24,0s8.539,2.858,9.789,6.925
		c0.683-0.111,1.358-0.167,2.02-0.167c6.722,0,12.19,5.15,12.19,11.48c0,6.331-5.469,11.48-12.19,11.48
		c-1.312,0-2.604-0.199-3.853-0.592C30.026,31.391,27.105,32.723,23.999,32.723z M16.387,26.948c0.313,0,0.617,0.147,0.81,0.412
		c1.53,2.105,4.073,3.362,6.803,3.362s5.272-1.257,6.804-3.362c0.266-0.365,0.74-0.505,1.163-0.348
		c1.234,0.468,2.527,0.705,3.843,0.705c5.619,0,10.19-4.253,10.19-9.48s-4.571-9.48-10.19-9.48c-0.818,0-1.669,0.104-2.527,0.307
		c-0.265,0.063-0.544,0.015-0.773-0.134c-0.229-0.148-0.388-0.383-0.439-0.651C31.372,4.641,27.979,2,24,2
		c-3.979,0-7.373,2.641-8.068,6.28c-0.051,0.268-0.21,0.503-0.439,0.652c-0.229,0.148-0.509,0.197-0.774,0.133
		c-0.856-0.204-1.707-0.307-2.526-0.307C6.572,8.758,2,13.011,2,18.238s4.572,9.48,10.191,9.48c1.319,0,2.612-0.237,3.841-0.704
		C16.148,26.97,16.268,26.948,16.387,26.948z"/>
</g>
</svg>
