<?xml version="1.0" encoding="utf-8"?>
<!-- Generator: Adobe Illustrator 18.0.0, SVG Export Plug-In . SVG Version: 6.00 Build 0)  -->
<!DOCTYPE svg PUBLIC "-//W3C//DTD SVG 1.1//EN" "http://www.w3.org/Graphics/SVG/1.1/DTD/svg11.dtd">
<svg version="1.1" id="Layer_1" xmlns="http://www.w3.org/2000/svg" xmlns:xlink="http://www.w3.org/1999/xlink" x="0px" y="0px"
	 viewBox="0 0 48 48" enable-background="new 0 0 48 48" xml:space="preserve">
<g>
	<g>
		<path fill="#010101" d="M43.4,24.1H4.6L12.7,0h22.6L43.4,24.1z M7.4,22.1h33.2L33.9,2H14.1L7.4,22.1z"/>
	</g>
	<g>
		<path fill="#010101" d="M24,48c-7.7,0-13.9-7.1-13.9-15.8c0-3.6,1-6.9,2.9-9.7l0.3-0.4h21.5l0.3,0.4c1.9,2.7,2.9,6.2,2.9,9.7
			C37.9,40.9,31.7,48,24,48z M14.3,24.1c-1.5,2.3-2.2,5.1-2.2,8.1C12.1,39.8,17.4,46,24,46s11.9-6.2,11.9-13.8
			c0-2.9-0.8-5.8-2.2-8.1H14.3z"/>
	</g>
</g>
</svg>
