<?xml version="1.0" encoding="utf-8"?>
<!-- Generator: Adobe Illustrator 18.0.0, SVG Export Plug-In . SVG Version: 6.00 Build 0)  -->
<!DOCTYPE svg PUBLIC "-//W3C//DTD SVG 1.1//EN" "http://www.w3.org/Graphics/SVG/1.1/DTD/svg11.dtd">
<svg version="1.1" id="Layer_1" xmlns="http://www.w3.org/2000/svg" xmlns:xlink="http://www.w3.org/1999/xlink" x="0px" y="0px"
	 viewBox="0 0 48 48" enable-background="new 0 0 48 48" xml:space="preserve">
<g>
	<path fill="#010101" d="M14.1,30.3c-0.1,0-0.3,0-0.4-0.1L0.6,24.1C0.2,23.9,0,23.6,0,23.2s0.2-0.7,0.6-0.9l13.1-6.1
		c0.3-0.1,0.6-0.1,0.8,0l13.1,6.1c0.4,0.2,0.6,0.5,0.6,0.9s-0.2,0.7-0.6,0.9l-13.1,6.1C14.4,30.3,14.2,30.3,14.1,30.3z M3.4,23.2
		l10.7,5l10.7-5l-10.7-5L3.4,23.2z"/>
	<path fill="#010101" d="M14.1,48c-0.2,0-0.3,0-0.5-0.1L0.5,40.4C0.2,40.2,0,39.9,0,39.5V23.2c0-0.3,0.2-0.7,0.5-0.8s0.6-0.2,1-0.1
		l13.1,6.1c0.4,0.2,0.6,0.5,0.6,0.9V47c0,0.4-0.2,0.7-0.5,0.9C14.4,48,14.3,48,14.1,48z M2,38.9l11.1,6.4V29.9L2,24.8V38.9z"/>
	<path fill="#010101" d="M14.1,48c-0.2,0-0.4,0-0.5-0.1c-0.3-0.2-0.5-0.5-0.5-0.9V29.3c0-0.4,0.2-0.7,0.6-0.9l13.1-6.1
		c0.3-0.1,0.7-0.1,1,0.1s0.5,0.5,0.5,0.8v16.5c0,0.4-0.2,0.7-0.5,0.9l-13.1,7.3C14.4,48,14.3,48,14.1,48z M15.1,29.9v15.4l11.1-6.2
		V24.8L15.1,29.9z"/>
	<ellipse fill="#010101" cx="14.3" cy="23" rx="2.8" ry="1.6"/>
	<path fill="#010101" d="M5.7,30.1c0.3,1.2,0,2.3-0.6,2.4c-0.7,0.2-1.4-0.7-1.7-1.9c-0.3-1.2,0-2.3,0.6-2.4S5.4,29,5.7,30.1z"/>
	<path fill="#010101" d="M11.3,32.6c0.3,1.2,0,2.3-0.6,2.4C10,35.2,9.3,34.3,9,33.1s0-2.3,0.6-2.4C10.2,30.6,11,31.5,11.3,32.6z"/>
	<path fill="#010101" d="M22.3,29.8c-0.3,1.2,0,2.3,0.6,2.4c0.7,0.2,1.4-0.7,1.7-1.9c0.3-1.2,0-2.3-0.6-2.4
		C23.3,27.8,22.6,28.6,22.3,29.8z"/>
	<path fill="#010101" d="M19.5,35.1c-0.3,1.2,0,2.3,0.6,2.4c0.7,0.2,1.4-0.7,1.7-1.9c0.3-1.2,0-2.3-0.6-2.4
		C20.6,33.1,19.8,33.9,19.5,35.1z"/>
	<path fill="#010101" d="M16.3,40.3c-0.3,1.2,0,2.3,0.6,2.4c0.7,0.2,1.4-0.7,1.7-1.9c0.3-1.2,0-2.3-0.6-2.4
		C17.4,38.3,16.6,39.1,16.3,40.3z"/>
	<path fill="#010101" d="M5.7,37c0.3,1.2,0,2.3-0.6,2.4c-0.7,0.2-1.4-0.7-1.7-1.9s0-2.3,0.6-2.4C4.6,35,5.4,35.8,5.7,37z"/>
	<path fill="#010101" d="M11.3,39.5c0.3,1.2,0,2.3-0.6,2.4C10,42.1,9.2,41.2,8.9,40s0-2.3,0.6-2.4C10.2,37.4,11,38.3,11.3,39.5z"/>
	<path fill="#010101" d="M21.3,20.2l-2-0.4l3.8-17c0.4-1.9,2.3-3.1,4.2-2.7l14.1,3.2c0.9,0.2,1.7,0.8,2.2,1.6
		c0.5,0.8,0.7,1.8,0.5,2.6l-0.9,3.8l-1.9-0.5l0.9-3.8c0.1-0.4,0-0.8-0.2-1.1c-0.2-0.4-0.6-0.6-0.9-0.7L26.9,2.1
		c-0.8-0.2-1.6,0.3-1.8,1.2L21.3,20.2z"/>
	<path fill="#010101" d="M33.7,39.5c-0.5,0-1.1-0.1-1.6-0.3l-5.3-2.7l0.9-1.8l5.3,2.7c0.8,0.4,1.7,0.1,2.1-0.7l10.8-21.5
		c0.4-0.8,0.1-1.7-0.7-2.1L32.3,6.6c-0.4-0.2-0.7-0.3-1.1-0.2c-0.4,0.1-0.7,0.4-0.9,0.8l-7.1,14.1l-1.8-0.9l7.1-14.1
		c0.4-0.9,1.1-1.5,2.1-1.8c0.9-0.3,1.8-0.2,2.6,0.3L46,11.3c1.7,0.8,2.4,2.9,1.6,4.7L36.8,37.5C36.2,38.8,35,39.5,33.7,39.5z"/>
	<path fill="#010101" d="M36.4,18.9c-0.7-0.4-1.6-0.4-2.2,0c-0.1-0.8-0.6-1.4-1.4-1.8c-1.3-0.6-2.8-0.1-3.4,1.1
		c-1.1,2.3,0.1,4.1,1.3,7.7c3.6-1.2,5.8-1.4,6.9-3.5C38.2,21.1,37.7,19.5,36.4,18.9z"/>
	<g>
		<path fill="#010101" d="M31.4,10.3l-0.8,0.8l-0.4-0.2l2.5-2.5l0.5,0.2l-0.5,3.5L32.3,12l0.2-1.1L31.4,10.3z M32.5,10.5l0.1-1
			c0-0.2,0.1-0.4,0.1-0.6l0,0c-0.1,0.2-0.3,0.3-0.4,0.5L31.6,10L32.5,10.5z"/>
	</g>
</g>
</svg>
