<?xml version="1.0" encoding="utf-8"?>
<!-- Generator: Adobe Illustrator 16.0.0, SVG Export Plug-In . SVG Version: 6.00 Build 0)  -->
<!DOCTYPE svg PUBLIC "-//W3C//DTD SVG 1.1//EN" "http://www.w3.org/Graphics/SVG/1.1/DTD/svg11.dtd">
<svg version="1.1" id="Layer_1" xmlns="http://www.w3.org/2000/svg" xmlns:xlink="http://www.w3.org/1999/xlink" x="0px" y="0px"
	 width="48px" height="48px" viewBox="0 0 48 48" enable-background="new 0 0 48 48" xml:space="preserve">
<g>
	<path d="M26.294,28.055h-4.588c-0.552,0-1-0.447-1-1s0.448-1,1-1h4.588c0.553,0,1,0.447,1,1S26.847,28.055,26.294,28.055z"/>
	<path d="M8.802,28.055H1c-0.552,0-1-0.447-1-1s0.448-1,1-1h7.802c0.552,0,1,0.447,1,1S9.354,28.055,8.802,28.055z"/>
	<path d="M47,28.055h-7.802c-0.553,0-1-0.447-1-1s0.447-1,1-1H47c0.553,0,1,0.447,1,1S47.553,28.055,47,28.055z"/>
	<g>
		<path d="M3.322,47.309c-0.552,0-1-0.447-1-1V27.055c0-0.553,0.448-1,1-1s1,0.447,1,1v19.254
			C4.322,46.861,3.874,47.309,3.322,47.309z"/>
		<path d="M44.68,47.309c-0.553,0-1-0.447-1-1V27.055c0-0.553,0.447-1,1-1s1,0.447,1,1v19.254
			C45.68,46.861,45.232,47.309,44.68,47.309z"/>
	</g>
	<path d="M11.681,36.492c-0.401,0-0.779-0.242-0.933-0.639c-0.143-0.369-3.5-9.063-4.012-12.305
		c-0.299-1.884,0.252-3.761,1.552-5.283c1.372-1.606,3.379-2.564,5.372-2.564h2.754c1.991,0,3.999,0.958,5.37,2.563
		c1.3,1.522,1.852,3.398,1.554,5.284c-0.512,3.243-3.87,11.936-4.012,12.305c-0.199,0.516-0.778,0.771-1.293,0.571
		c-0.515-0.199-0.771-0.778-0.572-1.294c0.034-0.088,3.423-8.862,3.902-11.895c0.205-1.298-0.185-2.603-1.099-3.672
		c-0.981-1.149-2.457-1.863-3.849-1.863H13.66c-1.394,0-2.869,0.714-3.851,1.863c-0.914,1.07-1.304,2.374-1.098,3.671
		c0.479,3.034,3.868,11.808,3.902,11.896c0.199,0.516-0.057,1.095-0.572,1.294C11.923,36.471,11.801,36.492,11.681,36.492z"/>
	<path d="M29.609,36.492c-0.4,0-0.779-0.242-0.933-0.639c-0.143-0.369-3.499-9.063-4.012-12.305
		c-0.299-1.885,0.252-3.761,1.552-5.283c1.371-1.606,3.379-2.564,5.371-2.564h2.753c1.991,0,3.999,0.958,5.37,2.563
		c1.3,1.522,1.853,3.399,1.554,5.285c-0.515,3.243-3.869,11.936-4.012,12.304c-0.199,0.516-0.781,0.771-1.293,0.572
		c-0.516-0.199-0.771-0.778-0.572-1.293c0.034-0.089,3.421-8.863,3.902-11.896c0.205-1.298-0.186-2.603-1.1-3.672
		c-0.981-1.148-2.456-1.862-3.85-1.862h-2.753c-1.394,0-2.869,0.714-3.851,1.863c-0.913,1.07-1.303,2.374-1.098,3.671
		c0.48,3.034,3.868,11.808,3.902,11.896c0.199,0.516-0.057,1.095-0.571,1.294C29.852,36.471,29.729,36.492,29.609,36.492z"/>
	<path d="M20.971,48c-0.552,0-1-0.447-1-1V36.492H10.1V47c0,0.553-0.448,1-1,1s-1-0.447-1-1V35.492c0-0.553,0.448-1,1-1h11.871
		c0.552,0,1,0.447,1,1V47C21.971,47.553,21.523,48,20.971,48z"/>
	<path d="M38.9,48c-0.553,0-1-0.447-1-1V36.492h-9.873V47c0,0.553-0.447,1-1,1s-1-0.447-1-1V35.492c0-0.553,0.447-1,1-1H38.9
		c0.553,0,1,0.447,1,1V47C39.9,47.553,39.453,48,38.9,48z"/>
	<path d="M24,14.545c-4.097,0-7.43-3.263-7.43-7.273S19.903-0.001,24-0.001c4.097,0,7.43,3.263,7.43,7.273S28.097,14.545,24,14.545z
		 M24,1.999c-2.994,0-5.43,2.365-5.43,5.273s2.436,5.273,5.43,5.273s5.43-2.365,5.43-5.273S26.994,1.999,24,1.999z"/>
	<path d="M21.886,10.222c-0.294,0-0.586-0.129-0.783-0.377c-0.344-0.433-0.272-1.062,0.16-1.405L23,7.059V3.202c0-0.552,0.448-1,1-1
		c0.553,0,1,0.448,1,1v4.339c0,0.305-0.139,0.593-0.378,0.783l-2.114,1.681C22.324,10.151,22.104,10.222,21.886,10.222z"/>
</g>
</svg>
