<?xml version="1.0" encoding="utf-8"?>
<!-- Generator: Adobe Illustrator 16.0.0, SVG Export Plug-In . SVG Version: 6.00 Build 0)  -->
<!DOCTYPE svg PUBLIC "-//W3C//DTD SVG 1.1//EN" "http://www.w3.org/Graphics/SVG/1.1/DTD/svg11.dtd">
<svg version="1.1" id="Layer_1" xmlns="http://www.w3.org/2000/svg" xmlns:xlink="http://www.w3.org/1999/xlink" x="0px" y="0px"
	 width="48px" height="48px" viewBox="0 0 48 48" enable-background="new 0 0 48 48" xml:space="preserve">
<g>
	<path d="M44,48H4c-2.206,0-4-1.565-4-3.489V17.029c0-0.552,0.448-1,1-1h46c0.553,0,1,0.448,1,1v27.483C48,46.436,46.206,48,44,48z
		 M2,18.029v26.482C2,45.318,2.916,46,4,46h40c1.084,0,2-0.682,2-1.488V18.029H2z"/>
	<path d="M33.789,41.346h-7.5c-0.553,0-1-0.447-1-1s0.447-1,1-1h7.5c0.553,0,1,0.447,1,1S34.342,41.346,33.789,41.346z"/>
	<ellipse cx="39.779" cy="40.346" rx="1.656" ry="1.676"/>
	<path d="M46.999,18.014c-0.448,0-0.855-0.303-0.969-0.758L42.219,2H5.781L1.97,17.256c-0.134,0.536-0.68,0.863-1.212,0.728
		c-0.536-0.134-0.862-0.677-0.728-1.212l4-16.014C4.141,0.313,4.541,0,5,0h38c0.459,0,0.859,0.313,0.97,0.758l4,16.014
		c0.135,0.536-0.191,1.079-0.728,1.212C47.161,18.005,47.079,18.014,46.999,18.014z"/>
	<path d="M24,18.014c-0.552,0-1-0.448-1-1V1c0-0.552,0.448-1,1-1c0.553,0,1,0.448,1,1v16.014C25,17.566,24.553,18.014,24,18.014z"/>
</g>
</svg>
