<?xml version="1.0" encoding="utf-8"?>
<!-- Generator: Adobe Illustrator 16.0.0, SVG Export Plug-In . SVG Version: 6.00 Build 0)  -->
<!DOCTYPE svg PUBLIC "-//W3C//DTD SVG 1.1//EN" "http://www.w3.org/Graphics/SVG/1.1/DTD/svg11.dtd">
<svg version="1.1" id="Layer_1" xmlns="http://www.w3.org/2000/svg" xmlns:xlink="http://www.w3.org/1999/xlink" x="0px" y="0px"
	 width="48px" height="48px" viewBox="0 0 48 48" enable-background="new 0 0 48 48" xml:space="preserve">
<g>
	<path d="M41.32,35.395c-3.134,0-5.782-2.138-6.491-5.103H17.114c-0.71,2.965-3.357,5.103-6.491,5.103
		c-3.683,0-6.678-2.996-6.678-6.679c0-0.758,0.13-1.51,0.382-2.221C1.73,25.352,0,22.769,0,19.862c0-4,3.254-7.255,7.254-7.255
		c3.355,0,6.237,2.303,7.034,5.484h16.633c0.798-3.181,3.679-5.484,7.033-5.484c4,0,7.255,3.255,7.255,7.256
		c0,1.049-0.225,2.073-0.655,3.013c2.101,1.158,3.446,3.38,3.445,5.84C47.999,32.398,45.003,35.395,41.32,35.395z M15.367,28.292
		h21.209l0.091,0.9c0.241,2.396,2.241,4.202,4.653,4.202c2.58,0,4.679-2.099,4.679-4.679c0.001-2.003-1.273-3.78-3.172-4.423
		l-1.238-0.42l0.729-1.085c0.583-0.866,0.891-1.877,0.891-2.924c0-2.898-2.357-5.256-5.255-5.256c-2.647,0-4.888,1.98-5.212,4.606
		l-0.108,0.877H12.573l-0.108-0.878c-0.323-2.626-2.563-4.606-5.209-4.606c-1.405,0-2.725,0.546-3.717,1.539
		C2.546,17.139,2,18.458,2,19.862c0,2.393,1.62,4.483,3.939,5.083l1.267,0.327l-0.649,1.137c-0.4,0.701-0.612,1.499-0.612,2.307
		c0,2.58,2.099,4.679,4.678,4.679c2.411,0,4.411-1.807,4.653-4.203L15.367,28.292z"/>
</g>
</svg>
