<?xml version="1.0" encoding="utf-8"?>
<!-- Generator: Adobe Illustrator 16.0.0, SVG Export Plug-In . SVG Version: 6.00 Build 0)  -->
<!DOCTYPE svg PUBLIC "-//W3C//DTD SVG 1.1//EN" "http://www.w3.org/Graphics/SVG/1.1/DTD/svg11.dtd">
<svg version="1.1" id="Layer_1" xmlns="http://www.w3.org/2000/svg" xmlns:xlink="http://www.w3.org/1999/xlink" x="0px" y="0px"
	 width="48px" height="48px" viewBox="0 0 48 48" enable-background="new 0 0 48 48" xml:space="preserve">
<g>
	<path d="M24,48C10.767,48,0,37.233,0,24S10.767,0,24,0s24,10.767,24,24S37.233,48,24,48z M24,2C11.869,2,2,11.869,2,24
		s9.869,22,22,22s22-9.869,22-22S36.131,2,24,2z"/>
	<path d="M24,33.818c-5.414,0-9.818-4.404-9.818-9.818c0-5.414,4.404-9.818,9.818-9.818c5.414,0,9.818,4.404,9.818,9.818
		C33.818,29.414,29.414,33.818,24,33.818z M24,16.182c-4.311,0-7.818,3.507-7.818,7.818c0,4.312,3.507,7.818,7.818,7.818
		c4.312,0,7.818-3.507,7.818-7.818C31.818,19.689,28.312,16.182,24,16.182z"/>
	<path d="M3.878,36.283c-0.525,0-0.965-0.409-0.997-0.939c-0.033-0.552,0.386-1.025,0.938-1.059c1.291-0.078,2.64-1.036,3.282-2.331
		c1.389-2.795,1.317-6.033,1.101-8.542c-0.029-0.333-0.076-0.695-0.124-1.075c-0.197-1.55-0.421-3.307,0.181-4.75
		c0.509-1.221,1.566-2.062,2.499-2.804c0.568-0.452,1.104-0.878,1.474-1.339c0.265-0.33,0.522-0.687,0.784-1.049
		c0.837-1.16,1.787-2.475,3.16-3.189c2.878-1.494,6.126-1.685,8.635-1.685c0.771,0,1.575,0.037,2.391,0.075
		c1.571,0.074,3.194,0.15,4.606-0.062c3.374-0.499,4.661-1.389,5.147-2.048c0.328-0.445,0.953-0.54,1.398-0.211
		c0.444,0.328,0.539,0.954,0.211,1.398c-1.049,1.423-3.163,2.352-6.463,2.84c-1.604,0.238-3.327,0.158-4.993,0.082
		c-0.784-0.037-1.558-0.073-2.298-0.073c-2.281,0-5.22,0.166-7.712,1.459c-0.951,0.495-1.719,1.558-2.461,2.586
		c-0.281,0.39-0.56,0.774-0.845,1.129c-0.51,0.636-1.16,1.153-1.789,1.653c-0.816,0.649-1.587,1.262-1.898,2.008
		c-0.396,0.951-0.208,2.426-0.042,3.728c0.052,0.408,0.101,0.798,0.132,1.156c0.24,2.769,0.308,6.363-1.301,9.604
		c-0.959,1.935-2.95,3.316-4.952,3.438C3.918,36.282,3.898,36.283,3.878,36.283z"/>
</g>
</svg>
