<?xml version="1.0" encoding="utf-8"?>
<!-- Generator: Adobe Illustrator 18.0.0, SVG Export Plug-In . SVG Version: 6.00 Build 0)  -->
<!DOCTYPE svg PUBLIC "-//W3C//DTD SVG 1.1//EN" "http://www.w3.org/Graphics/SVG/1.1/DTD/svg11.dtd">
<svg version="1.1" id="Layer_1" xmlns="http://www.w3.org/2000/svg" xmlns:xlink="http://www.w3.org/1999/xlink" x="0px" y="0px"
	 viewBox="0 0 48 48" enable-background="new 0 0 48 48" xml:space="preserve">
<g>
	<path fill="#010101" d="M24,48C10.8,48,0,37.2,0,24S10.8,0,24,0s24,10.8,24,24S37.2,48,24,48z M24,2C11.9,2,2,11.9,2,24
		s9.9,22,22,22s22-9.9,22-22S36.1,2,24,2z"/>
	<path fill="#010101" d="M9.2,38.8l12-17.6l17.6-12l-12,17.6L9.2,38.8z M22.6,22.6l-5.8,8.6l8.6-5.8l5.8-8.6L22.6,22.6z"/>
	<g>
		<rect x="23" y="3.5" fill="#010101" width="2" height="4"/>
		<rect x="23" y="40.5" fill="#010101" width="2" height="4"/>
	</g>
	<g>
		<rect x="40.5" y="23" fill="#010101" width="4" height="2"/>
		<rect x="3.5" y="23" fill="#010101" width="4" height="2"/>
	</g>
</g>
</svg>
