<?xml version="1.0" encoding="utf-8"?>
<!-- Generator: Adobe Illustrator 18.0.0, SVG Export Plug-In . SVG Version: 6.00 Build 0)  -->
<!DOCTYPE svg PUBLIC "-//W3C//DTD SVG 1.1//EN" "http://www.w3.org/Graphics/SVG/1.1/DTD/svg11.dtd">
<svg version="1.1" id="Layer_1" xmlns="http://www.w3.org/2000/svg" xmlns:xlink="http://www.w3.org/1999/xlink" x="0px" y="0px"
	 viewBox="0 0 48 48" enable-background="new 0 0 48 48" xml:space="preserve">
<g>
	<path fill="#010101" d="M13.5,42.9c-2.9,0-5.1-2.2-5.1-5.1V10.2c0-2.9,2.2-5.1,5.1-5.1s5.1,2.2,5.1,5.1v27.5
		C18.6,40.5,16.3,42.9,13.5,42.9z M13.5,7.1c-1.7,0-3.1,1.4-3.1,3.1v27.6c0,1.7,1.4,3.1,3.1,3.1c1.7,0,3.1-1.5,3.1-3.2V10.2
		C16.6,8.5,15.2,7.1,13.5,7.1z"/>
	<rect x="1" y="23" fill="#010101" width="8.4" height="2"/>
	<rect x="17.6" y="23" fill="#010101" width="12.8" height="2"/>
	<rect x="4.6" y="14.9" fill="#010101" width="2" height="18.2"/>
	<g>
		<path fill="#010101" d="M34.5,42.8c-2.9,0-5.1-2.2-5.1-5.1V10.2c0-2.8,2.3-5.1,5.1-5.1c2.9,0,5.1,2.2,5.1,5.1v27.5
			C39.6,40.6,37.4,42.8,34.5,42.8z M34.5,7.1c-1.7,0-3.1,1.4-3.1,3.1v27.5c0,1.7,1.4,3.1,3.1,3.1s3.1-1.4,3.1-3.1V10.2
			C37.6,8.5,36.2,7.1,34.5,7.1z"/>
		<rect x="38.6" y="23" fill="#010101" width="8.4" height="2"/>
		<rect x="41.4" y="14.9" fill="#010101" width="2" height="18.2"/>
	</g>
</g>
</svg>
