<?xml version="1.0" encoding="utf-8"?>
<!-- Generator: Adobe Illustrator 16.0.0, SVG Export Plug-In . SVG Version: 6.00 Build 0)  -->
<!DOCTYPE svg PUBLIC "-//W3C//DTD SVG 1.1//EN" "http://www.w3.org/Graphics/SVG/1.1/DTD/svg11.dtd">
<svg version="1.1" id="Layer_1" xmlns="http://www.w3.org/2000/svg" xmlns:xlink="http://www.w3.org/1999/xlink" x="0px" y="0px"
	 width="48px" height="48px" viewBox="0 0 48 48" enable-background="new 0 0 48 48" xml:space="preserve">
<g>
	<g>
		<path d="M47,48.078H1c-0.552,0-1-0.447-1-1v-17.83c0-0.553,0.448-1,1-1h46c0.553,0,1,0.447,1,1v17.83
			C48,47.631,47.553,48.078,47,48.078z M2,46.078h44v-15.83H2V46.078z"/>
		<path d="M40.292,37.904H7.708c-0.552,0-1-0.447-1-1s0.448-1,1-1h32.584c0.553,0,1,0.447,1,1S40.845,37.904,40.292,37.904z"/>
		<path d="M40.292,43.422h-5.401c-0.553,0-1-0.447-1-1s0.447-1,1-1h5.401c0.553,0,1,0.447,1,1S40.845,43.422,40.292,43.422z"/>
		<path d="M9.893,43.652H8.335c-0.552,0-1-0.447-1-1s0.448-1,1-1h1.558c0.552,0,1,0.447,1,1S10.445,43.652,9.893,43.652z"/>
		<path d="M47,30.248H1c-0.382,0-0.731-0.218-0.898-0.562c-0.168-0.343-0.125-0.752,0.11-1.054l10-12.818
			c0.189-0.243,0.48-0.385,0.789-0.385h26c0.308,0,0.599,0.142,0.788,0.385l10,12.818c0.235,0.302,0.278,0.711,0.11,1.054
			C47.731,30.03,47.382,30.248,47,30.248z M3.048,28.248h41.903L36.512,17.43H11.488L3.048,28.248z"/>
	</g>
	<g>
		<path d="M37.002,17.442H10.998c-0.485,0-0.9-0.348-0.985-0.826c-0.155-0.875-0.23-1.686-0.23-2.479
			c0-7.839,6.377-14.216,14.216-14.216s14.217,6.377,14.217,14.215c0,0.791-0.075,1.602-0.229,2.479
			C37.902,17.092,37.487,17.442,37.002,17.442z M11.861,15.442h24.277c0.053-0.452,0.078-0.884,0.078-1.306
			c0-6.735-5.48-12.215-12.217-12.215c-6.736,0-12.216,5.48-12.216,12.216C11.783,14.561,11.809,14.992,11.861,15.442z"/>
		<path d="M27.01,17.441h-6.022c-0.311,0-0.604-0.145-0.793-0.392c-0.656-0.855-1.002-1.862-1.002-2.914
			c0-2.65,2.156-4.807,4.807-4.807c2.651,0,4.808,2.156,4.808,4.807c0,1.051-0.347,2.059-1.004,2.914
			C27.613,17.296,27.32,17.441,27.01,17.441z M21.527,15.441h4.944c0.221-0.406,0.336-0.85,0.336-1.305
			c0-1.547-1.26-2.807-2.808-2.807s-2.807,1.259-2.807,2.807C21.192,14.591,21.307,15.035,21.527,15.441z"/>
		<g>
			<path d="M21.322,12.229c-0.357,0-0.703-0.192-0.883-0.529l-4.404-8.245c-0.26-0.487-0.077-1.093,0.411-1.353
				c0.488-0.261,1.094-0.076,1.353,0.411l4.404,8.245c0.26,0.487,0.077,1.093-0.411,1.353C21.642,12.191,21.48,12.229,21.322,12.229
				z"/>
			<path d="M25.181,11.018c-0.036,0-0.072-0.002-0.109-0.006c-0.549-0.06-0.945-0.553-0.886-1.102l0.969-8.922
				c0.06-0.549,0.547-0.946,1.103-0.886c0.549,0.06,0.945,0.553,0.886,1.102l-0.969,8.922
				C26.118,10.638,25.685,11.018,25.181,11.018z"/>
		</g>
	</g>
</g>
</svg>
