<?xml version="1.0" encoding="utf-8"?>
<!-- Generator: Adobe Illustrator 16.0.0, SVG Export Plug-In . SVG Version: 6.00 Build 0)  -->
<!DOCTYPE svg PUBLIC "-//W3C//DTD SVG 1.1//EN" "http://www.w3.org/Graphics/SVG/1.1/DTD/svg11.dtd">
<svg version="1.1" id="Layer_1" xmlns="http://www.w3.org/2000/svg" xmlns:xlink="http://www.w3.org/1999/xlink" x="0px" y="0px"
	 width="48px" height="48px" viewBox="0 0 48 48" enable-background="new 0 0 48 48" xml:space="preserve">
<g>
	<path d="M14.136,20.98c-0.46,0-0.874-0.319-0.976-0.787c-0.32-1.466-0.482-2.994-0.482-4.542C12.678,7.021,17.757,0,24,0
		c6.243,0,11.322,7.021,11.322,15.652c0,1.545-0.162,3.073-0.481,4.541c-0.118,0.54-0.652,0.882-1.19,0.764
		c-0.54-0.118-0.882-0.65-0.765-1.19c0.29-1.328,0.437-2.713,0.437-4.115C33.322,8.124,29.141,2,24,2
		c-5.14,0-9.322,6.124-9.322,13.652c0,1.405,0.146,2.789,0.436,4.115c0.118,0.54-0.224,1.073-0.764,1.19
		C14.279,20.973,14.207,20.98,14.136,20.98z"/>
	<path d="M24,37.248c-9.103,0-16.508-7.405-16.508-16.508c0-0.552,0.448-1,1-1h31.016c0.553,0,1,0.448,1,1
		C40.508,29.843,33.103,37.248,24,37.248z M9.526,21.74c0.515,7.535,6.81,13.508,14.474,13.508c7.664,0,13.959-5.973,14.474-13.508
		H9.526z"/>
	<path d="M24,48c-0.552,0-1-0.447-1-1V36.248c0-0.553,0.448-1,1-1c0.553,0,1,0.447,1,1V47C25,47.553,24.553,48,24,48z"/>
	<path d="M29.264,48H18.736c-0.552,0-1-0.447-1-1s0.448-1,1-1h10.528c0.553,0,1,0.447,1,1S29.816,48,29.264,48z"/>
</g>
</svg>
