<?xml version="1.0" encoding="utf-8"?>
<!-- Generator: Adobe Illustrator 18.0.0, SVG Export Plug-In . SVG Version: 6.00 Build 0)  -->
<!DOCTYPE svg PUBLIC "-//W3C//DTD SVG 1.1//EN" "http://www.w3.org/Graphics/SVG/1.1/DTD/svg11.dtd">
<svg version="1.1" id="Layer_1" xmlns="http://www.w3.org/2000/svg" xmlns:xlink="http://www.w3.org/1999/xlink" x="0px" y="0px"
	 viewBox="0 0 48 48" enable-background="new 0 0 48 48" xml:space="preserve">
<g>
	<g>
		<path d="M37.4,48H10.7c-1.7,0-3-1.3-3-3V3c0-1.7,1.3-3,3-3h26.7c1.7,0,3,1.3,3,3v42C40.4,46.7,39.1,48,37.4,48z M10.7,2
			c-0.6,0-1,0.4-1,1v42c0,0.6,0.4,1,1,1h26.7c0.6,0,1-0.4,1-1V3c0-0.6-0.4-1-1-1H10.7z"/>
	</g>
	<g>
		<rect x="21.5" y="5.2" width="5" height="2"/>
	</g>
	<g>
		<rect x="25.7" y="18.9" width="2" height="12.4"/>
		<rect x="31.2" y="10.4" width="2" height="20.9"/>
		<rect x="20.3" y="15.1" width="2" height="16.2"/>
		<rect x="14.8" y="20.7" width="2" height="10.6"/>
	</g>
	<path d="M24,43.1c-2.3,0-4.1-1.8-4.1-4.1s1.8-4.1,4.1-4.1s4.1,1.8,4.1,4.1S26.3,43.1,24,43.1z M24,36.9c-1.2,0-2.1,0.9-2.1,2.1
		s0.9,2.1,2.1,2.1s2.1-0.9,2.1-2.1S25.2,36.9,24,36.9z"/>
</g>
</svg>
