<?xml version="1.0" encoding="utf-8"?>
<!-- Generator: Adobe Illustrator 16.0.0, SVG Export Plug-In . SVG Version: 6.00 Build 0)  -->
<!DOCTYPE svg PUBLIC "-//W3C//DTD SVG 1.1//EN" "http://www.w3.org/Graphics/SVG/1.1/DTD/svg11.dtd">
<svg version="1.1" id="Layer_1" xmlns="http://www.w3.org/2000/svg" xmlns:xlink="http://www.w3.org/1999/xlink" x="0px" y="0px"
	 width="48px" height="48px" viewBox="0 0 48 48" enable-background="new 0 0 48 48" xml:space="preserve">
<g>
	<g>
		<path d="M23.614,37.889c-0.552,0-1-0.447-1-1V3.311l-3.177,2.982c-0.401,0.377-1.036,0.359-1.414-0.044
			c-0.378-0.403-0.358-1.036,0.044-1.414l4.861-4.564c0.292-0.273,0.718-0.346,1.082-0.189C24.377,0.241,24.614,0.601,24.614,1
			v35.889C24.614,37.441,24.167,37.889,23.614,37.889z"/>
		<path d="M28.336,6.564c-0.245,0-0.491-0.09-0.685-0.271l-4.861-4.564c-0.402-0.378-0.422-1.011-0.044-1.414
			c0.379-0.402,1.012-0.421,1.414-0.044l4.861,4.564c0.402,0.378,0.423,1.011,0.045,1.414C28.868,6.458,28.603,6.564,28.336,6.564z"
			/>
	</g>
	<path d="M23.544,48c-3.318,0-6.017-2.699-6.017-6.018c0-3.317,2.699-6.017,6.017-6.017c3.317,0,6.017,2.699,6.017,6.017
		C29.561,45.301,26.861,48,23.544,48z M23.544,37.966c-2.215,0-4.017,1.802-4.017,4.017S21.329,46,23.544,46
		s4.017-1.803,4.017-4.018S25.759,37.966,23.544,37.966z"/>
	<path d="M12.656,20.824c-2.57,0-4.66-2.09-4.66-4.66s2.09-4.66,4.66-4.66c2.569,0,4.66,2.09,4.66,4.66S15.226,20.824,12.656,20.824
		z M12.656,13.504c-1.467,0-2.66,1.193-2.66,2.66s1.193,2.66,2.66,2.66c1.466,0,2.66-1.193,2.66-2.66S14.123,13.504,12.656,13.504z"
		/>
	<path d="M23.614,26.729c-0.536,0-0.979-0.425-0.998-0.965c-0.02-0.551,0.412-1.014,0.963-1.034
		c0.053-0.002,5.267-0.236,8.528-3.822c1.966-2.162,2.854-5.131,2.641-8.825c-0.032-0.551,0.389-1.024,0.94-1.056
		c0.543-0.026,1.024,0.39,1.056,0.941c0.246,4.26-0.82,7.726-3.171,10.301c-3.84,4.207-9.678,4.451-9.924,4.459
		C23.637,26.729,23.625,26.729,23.614,26.729z"/>
	<path d="M23.01,32.318c-0.011,0-0.021,0-0.032-0.001c-0.22-0.007-5.428-0.213-8.729-3.835c-1.908-2.095-2.771-4.87-2.563-8.249
		c0.034-0.551,0.519-0.972,1.059-0.937c0.551,0.034,0.971,0.508,0.937,1.059c-0.173,2.819,0.516,5.099,2.046,6.779
		c2.737,3.005,7.268,3.183,7.313,3.185c0.552,0.018,0.985,0.479,0.968,1.031C23.992,31.892,23.548,32.318,23.01,32.318z"/>
	<path fill="none" stroke="#000000" stroke-width="2" stroke-linecap="round" stroke-linejoin="round" stroke-miterlimit="10" d="
		M23.614,25.869"/>
	<path d="M39.004,13.025h-6.139c-0.553,0-1-0.448-1-1V4.628c0-0.552,0.447-1,1-1h6.139c0.553,0,1,0.448,1,1v7.397
		C40.004,12.577,39.557,13.025,39.004,13.025z M33.865,11.025h4.139V5.628h-4.139V11.025z"/>
</g>
</svg>
