<?xml version="1.0" encoding="utf-8"?>
<!-- Generator: Adobe Illustrator 18.0.0, SVG Export Plug-In . SVG Version: 6.00 Build 0)  -->
<!DOCTYPE svg PUBLIC "-//W3C//DTD SVG 1.1//EN" "http://www.w3.org/Graphics/SVG/1.1/DTD/svg11.dtd">
<svg version="1.1" id="Layer_1" xmlns="http://www.w3.org/2000/svg" xmlns:xlink="http://www.w3.org/1999/xlink" x="0px" y="0px"
	 viewBox="0 0 48 48" enable-background="new 0 0 48 48" xml:space="preserve">
<g>
	<path fill="#010101" d="M48,48h-8.8V9.6H8.8V48H0V0h48V48z M41.2,46H46V2H2v44h4.8V7.6h34.4V46z"/>
	<rect x="11.8" y="3.8" fill="#010101" width="2.9" height="2"/>
	<rect x="16.9" y="3.8" fill="#010101" width="2.9" height="2"/>
	<rect x="22" y="3.8" fill="#010101" width="2.9" height="2"/>
	<rect x="27.1" y="3.8" fill="#010101" width="2.9" height="2"/>
	<rect x="32.2" y="3.8" fill="#010101" width="2.9" height="2"/>
	<rect x="42.6" y="21" fill="#010101" width="2" height="3.7"/>
	<rect x="42.6" y="27.5" fill="#010101" width="2" height="3.8"/>
	<path fill="#010101" d="M24,18.9c-2.4,0-4.3-1.9-4.3-4.3s1.9-4.3,4.3-4.3s4.3,1.9,4.3,4.3S26.4,18.9,24,18.9z M24,12.3
		c-1.3,0-2.3,1-2.3,2.3c0,1.3,1,2.3,2.3,2.3c1.3,0,2.3-1,2.3-2.3C26.3,13.3,25.3,12.3,24,12.3z"/>
	<path fill="#010101" d="M27.5,48.1c-1.7,0-3-1.1-3-2.6v-9.4h-1v9.3c0,1.5-1.3,2.6-3,2.6s-3-1.1-3-2.6V30.1L16,31.6
		c-0.9,0.9-2.6,1.2-4,0.5c-0.8-0.4-1.2-1.1-1.4-1.8c-0.1-0.7,0.2-1.4,0.7-2l6.8-7c0.1-0.1,0.1-0.1,0.2-0.2c0.1-0.2,0.3-0.4,0.6-0.6
		c0.5-0.6,1.3-0.8,1.9-0.9c0.4-0.1,0.8-0.1,1.1-0.1h4.2c0.3,0,0.7,0,1.1,0.1c0.7,0,1.3,0.3,1.9,0.8c0.3,0.2,0.6,0.5,0.8,0.8l6.7,6.9
		c0.5,0.5,0.8,1.2,0.7,2c-0.1,0.7-0.6,1.4-1.3,1.8c-0.6,0.4-1.4,0.4-1.7,0.4c-0.9,0-1.7-0.3-2.3-0.9l-1.5-1.5v15.4
		C30.5,47,29.2,48.1,27.5,48.1z M21.5,34.1h5v11.4c0,0.3,0.4,0.6,1,0.6s1-0.3,1-0.6V25.1l4.9,5.1c0.2,0.2,0.5,0.3,0.9,0.3
		c0.3,0,0.6-0.1,0.6-0.1c0.2-0.1,0.4-0.3,0.4-0.4c0-0.1,0-0.2-0.1-0.3l-6.9-7.2c-0.1-0.2-0.2-0.3-0.4-0.4L27.7,22
		c-0.2-0.2-0.4-0.3-0.7-0.3h-0.2l-0.2-0.1c-0.1,0-0.3,0-0.6,0h-4.2c-0.2,0-0.4,0-0.6,0l-0.2,0.1H21c-0.3,0-0.5,0.1-0.6,0.2L20.3,22
		l-0.1,0.1c-0.1,0.1-0.2,0.2-0.3,0.3c-0.1,0.1-0.2,0.2-0.2,0.3l-6.8,7c-0.1,0.1-0.1,0.2-0.1,0.3c0,0.1,0.1,0.2,0.3,0.3
		c0.6,0.3,1.3,0.2,1.6-0.1l4.9-5.1v20.3c0,0.3,0.4,0.6,1,0.6s1-0.3,1-0.6V34.1z"/>
</g>
</svg>
