<?xml version="1.0" encoding="utf-8"?>
<!-- Generator: Adobe Illustrator 18.0.0, SVG Export Plug-In . SVG Version: 6.00 Build 0)  -->
<!DOCTYPE svg PUBLIC "-//W3C//DTD SVG 1.1//EN" "http://www.w3.org/Graphics/SVG/1.1/DTD/svg11.dtd">
<svg version="1.1" id="Layer_1" xmlns="http://www.w3.org/2000/svg" xmlns:xlink="http://www.w3.org/1999/xlink" x="0px" y="0px"
	 viewBox="0 0 48 48" enable-background="new 0 0 48 48" xml:space="preserve">
<g>
	<path fill="#010101" d="M43.6,45.1H0.5l-0.2-0.8C0.3,44-1,37.1,2.4,33c2.8-3.4,7.8-3.9,14.8-1.4l18.2,6.4l1.5-3.7l7.8,1.9
		L43.6,45.1z M2.2,43.1h39.6l0.6-5.4L38,36.6l-1.5,3.9l-20-7c-6-2.1-10.4-1.9-12.6,0.8C1.7,36.9,2,41.3,2.2,43.1z"/>
	<rect x="35.3" y="46" fill="#010101" width="8.3" height="2"/>
	<rect x="1" y="46" fill="#010101" width="8.2" height="2"/>
	<path fill="#010101" d="M40.3,35.9l-1.8-1c0.1-0.2,8.2-15.3-1-23.7l1.3-1.5C49.2,19.2,40.6,35.2,40.3,35.9z"/>
	<path fill="#010101" d="M35.3,11.5c-0.7,0-1.2-0.3-1.5-0.9c-0.9-1.8,2.1-6.6,4.8-10.2l1.6,1.2c-2.4,3.2-4.3,6.6-4.6,7.9
		c2.2-0.3,7.8-2.9,10.9-4.7l1,1.8C46.6,7.1,38.4,11.5,35.3,11.5z"/>
	<path fill="#010101" d="M14.7,32.8c-0.7-0.2-0.9-0.3-4.3-18.2l2-0.4c1.2,6.2,3.2,16.3,3.5,17.1L15,31.8L14.7,32.8z"/>
	<path fill="#010101" d="M17.5,16.1c-8.6,0-10.2-1.2-10.5-2.5c-0.4-1.6,1.5-2.7,1.9-2.9l1,1.8l-0.5-0.9l0.5,0.9
		c-0.3,0.2-0.7,0.5-0.8,0.7c0.4,0.3,2.2,1.1,9.7,1l0,2C18.4,16.1,18,16.1,17.5,16.1z"/>
</g>
</svg>
