<?xml version="1.0" encoding="utf-8"?>
<!-- Generator: Adobe Illustrator 18.0.0, SVG Export Plug-In . SVG Version: 6.00 Build 0)  -->
<!DOCTYPE svg PUBLIC "-//W3C//DTD SVG 1.1//EN" "http://www.w3.org/Graphics/SVG/1.1/DTD/svg11.dtd">
<svg version="1.1" id="Layer_1" xmlns="http://www.w3.org/2000/svg" xmlns:xlink="http://www.w3.org/1999/xlink" x="0px" y="0px"
	 viewBox="0 0 48 48" enable-background="new 0 0 48 48" xml:space="preserve">
<g>
	<path fill="#010101" d="M47,48H1c-0.6,0-1-0.4-1-1V19.9c0-0.3,0.1-0.6,0.4-0.8l6-4.9c0.4-0.4,1.1-0.3,1.4,0.1
		c0.3,0.4,0.3,1.1-0.1,1.4L2,20.4V46h44V20.4l-5.6-4.6c-0.4-0.3-0.5-1-0.1-1.4c0.3-0.4,1-0.5,1.4-0.1l6,4.9c0.2,0.2,0.4,0.5,0.4,0.8
		V47C48,47.6,47.6,48,47,48z"/>
	<path fill="#010101" d="M31.1,8c-0.2,0-0.4-0.1-0.6-0.2l-6.8-5.5l-6.6,5.5c-0.4,0.4-1.1,0.3-1.4-0.1c-0.4-0.4-0.3-1.1,0.1-1.4
		l7.2-6c0.4-0.3,0.9-0.3,1.3,0l7.4,6c0.4,0.3,0.5,1,0.1,1.4C31.7,7.9,31.4,8,31.1,8z"/>
	<path fill="#010101" d="M1,48c-0.3,0-0.7-0.2-0.9-0.5C-0.1,47,0,46.4,0.5,46.1l46-26.6c0.5-0.3,1.1-0.1,1.4,0.4
		c0.3,0.5,0.1,1.1-0.4,1.4l-46,26.6C1.3,48,1.2,48,1,48z"/>
	<path fill="#010101" d="M47,48c-0.2,0-0.3,0-0.5-0.1l-46-26.6C0,21-0.1,20.4,0.1,19.9c0.3-0.5,0.9-0.6,1.4-0.4l46,26.6
		c0.5,0.3,0.6,0.9,0.4,1.4C47.7,47.8,47.3,48,47,48z"/>
	<path fill="#010101" d="M40.7,24.4c-0.6,0-1-0.4-1-1V8.1H8.3v15.3c0,0.6-0.4,1-1,1s-1-0.4-1-1V7.1c0-0.6,0.4-1,1-1h33.4
		c0.6,0,1,0.4,1,1v16.3C41.7,24,41.3,24.4,40.7,24.4z"/>
	<path fill="#010101" d="M34.9,15H13.1c-0.6,0-1-0.4-1-1s0.4-1,1-1h21.8c0.6,0,1,0.4,1,1S35.5,15,34.9,15z"/>
	<path fill="#010101" d="M34.9,21.4H13.1c-0.6,0-1-0.4-1-1s0.4-1,1-1h21.8c0.6,0,1,0.4,1,1S35.5,21.4,34.9,21.4z"/>
</g>
</svg>
