<?xml version="1.0" encoding="utf-8"?>
<!-- Generator: Adobe Illustrator 18.0.0, SVG Export Plug-In . SVG Version: 6.00 Build 0)  -->
<!DOCTYPE svg PUBLIC "-//W3C//DTD SVG 1.1//EN" "http://www.w3.org/Graphics/SVG/1.1/DTD/svg11.dtd">
<svg version="1.1" id="Layer_1" xmlns="http://www.w3.org/2000/svg" xmlns:xlink="http://www.w3.org/1999/xlink" x="0px" y="0px"
	 viewBox="0 0 48 48" enable-background="new 0 0 48 48" xml:space="preserve">
<g>
	<g>
		<path fill="#010101" d="M18.3,48h-13C2.4,48,0,45.6,0,42.6c0-3,2.3-5.4,5.3-5.4h7.2L31.3,3.9h11.4c2.9,0,5.3,2.4,5.3,5.4
			c0,3-2.3,5.4-5.3,5.4h-5.6L18.3,48z M5.3,39.2c-1.9,0-3.3,1.5-3.3,3.4C2,44.5,3.5,46,5.3,46h11.8l18.8-33.3h6.8
			c1.9,0,3.3-1.5,3.3-3.4c0-1.9-1.5-3.4-3.3-3.4H32.5L13.7,39.2H5.3z"/>
	</g>
	<path fill="#010101" d="M9.7,10.4c-2.9,0-5.2-2.3-5.2-5.2S6.8,0,9.7,0s5.2,2.3,5.2,5.2S12.6,10.4,9.7,10.4z M9.7,2
		C7.9,2,6.5,3.4,6.5,5.2c0,1.8,1.4,3.2,3.2,3.2c1.8,0,3.2-1.4,3.2-3.2C12.9,3.4,11.5,2,9.7,2z"/>
	<path fill="#010101" d="M12.1,33H4.5V15.8c0-2.1,1.7-3.8,3.8-3.8h3c0.3,0,0.8,0,1.2,0.2l0.1,0L23,16.9l-3.1,4.6l-5.1-2.2v9L12.1,33
		z M6.5,31h4.4l1.9-3.3V16.2l6.3,2.8l0.9-1.2L11.8,14c-0.1,0-0.3,0-0.5,0h-3c-0.9,0-1.8,0.9-1.8,1.8V31z"/>
</g>
</svg>
