<?xml version="1.0" encoding="utf-8"?>
<!-- Generator: Adobe Illustrator 18.0.0, SVG Export Plug-In . SVG Version: 6.00 Build 0)  -->
<!DOCTYPE svg PUBLIC "-//W3C//DTD SVG 1.1//EN" "http://www.w3.org/Graphics/SVG/1.1/DTD/svg11.dtd">
<svg version="1.1" id="Layer_1" xmlns="http://www.w3.org/2000/svg" xmlns:xlink="http://www.w3.org/1999/xlink" x="0px" y="0px"
	 viewBox="0 0 48 48" enable-background="new 0 0 48 48" xml:space="preserve">
<g>
	<polygon fill="#010101" points="48,38.9 12.3,38.9 12.3,13.5 21.3,13.5 21.3,15.5 14.3,15.5 14.3,36.9 46,36.9 46,15.5 40.3,15.5 
		40.3,13.5 48,13.5 	"/>
	<g>
		<path fill="#010101" d="M6.8,38.1H5c-2.8,0-5-2.2-5-5V13.4c0-2.8,2.2-5,5-5h1.8c2.8,0,5,2.2,5,5v19.7C11.8,35.9,9.6,38.1,6.8,38.1
			z M5,10.4c-1.7,0-3,1.3-3,3v19.7c0,1.7,1.3,3,3,3h1.8c1.7,0,3-1.3,3-3V13.4c0-1.7-1.3-3-3-3H5z"/>
	</g>
	<path fill="#010101" d="M41,19.6H19.7l0.2-1.2c1.1-5.5-0.1-11.5-3.4-16.9L15.6,0h21.6l0.3,0.5c3.5,5.8,4.8,12.3,3.6,18.3L41,19.6z
		 M22.1,17.6h17.3C40.1,12.5,39,7,36.1,2h-17C21.7,7,22.8,12.5,22.1,17.6z"/>
	<rect x="19.6" y="23.5" fill="#010101" width="3.2" height="2"/>
	<rect x="24.9" y="23.5" fill="#010101" width="3.2" height="2"/>
	<rect x="30.3" y="23.5" fill="#010101" width="3.2" height="2"/>
	<rect x="35.6" y="23.5" fill="#010101" width="3.2" height="2"/>
	<rect x="19.6" y="27.7" fill="#010101" width="3.2" height="2"/>
	<rect x="24.9" y="27.7" fill="#010101" width="3.2" height="2"/>
	<rect x="30.3" y="27.7" fill="#010101" width="3.2" height="2"/>
	<rect x="35.6" y="27.7" fill="#010101" width="3.2" height="2"/>
	<rect x="19.6" y="31.8" fill="#010101" width="3.2" height="2"/>
	<rect x="24.9" y="31.8" fill="#010101" width="3.2" height="2"/>
	<rect x="30.3" y="31.8" fill="#010101" width="3.2" height="2"/>
	<rect x="35.6" y="31.8" fill="#010101" width="3.2" height="2"/>
	<rect x="41.8" y="25.3" fill="#010101" width="2" height="7.5"/>
	<rect x="22.1" y="3.9" fill="#010101" width="13.2" height="2"/>
	<rect x="24" y="8.5" fill="#010101" width="13.2" height="2"/>
	<rect x="24.4" y="13.1" fill="#010101" width="13.1" height="2"/>
	<path fill="#010101" d="M27.8,47.9c-1.2,0-2.2-0.6-3.1-1.1c-0.9-0.5-1.6-0.9-2.4-0.8c-0.4,0.1-0.8,0.2-1.3,0.4
		c-0.7,0.3-1.5,0.6-2.6,0.6c-1.5,0-2.6-0.3-3.8-1.6c-0.2-0.2-0.4-0.4-0.6-0.6c-0.6-0.7-1-1.1-1.5-1.2c-0.4-0.1-0.7,0.1-1.3,0.3
		c-0.5,0.2-1.1,0.4-1.8,0.4c-1.1,0-1.9-0.4-2.4-1c-1.1-1.3-0.9-3.3-0.7-5.5L6.5,37l2,0.2l-0.1,0.9c-0.2,1.7-0.3,3.4,0.2,4
		c0.1,0.1,0.3,0.3,0.9,0.3c0.3,0,0.6-0.1,1-0.3c0.6-0.2,1.4-0.6,2.3-0.4c1.3,0.2,2,1.1,2.7,1.8c0.2,0.2,0.4,0.4,0.5,0.6
		c0.8,0.9,1.3,1,2.4,1c0.7,0,1.2-0.2,1.8-0.5c0.5-0.2,1.1-0.4,1.7-0.5c1.4-0.2,2.6,0.5,3.6,1c0.9,0.5,1.7,0.9,2.4,0.8
		c0.6-0.1,1.1-0.8,1.5-1.9c0.1-0.4,0.3-0.8,0.4-1.1c0.1-0.4,0.3-0.8,0.4-1.3c0.4-1.2,1.2-1.9,2-2.5c0.5-0.4,1-0.9,1.3-1.4l1.8,0.9
		c-0.4,0.8-1.1,1.4-1.7,2c-0.6,0.6-1.2,1-1.4,1.7c-0.2,0.4-0.3,0.8-0.4,1.2c-0.1,0.4-0.3,0.8-0.4,1.3c-0.7,1.8-1.8,2.9-3,3.1
		C28.3,47.9,28,47.9,27.8,47.9z"/>
</g>
</svg>
