<?xml version="1.0" encoding="utf-8"?>
<!-- Generator: Adobe Illustrator 16.0.0, SVG Export Plug-In . SVG Version: 6.00 Build 0)  -->
<!DOCTYPE svg PUBLIC "-//W3C//DTD SVG 1.1//EN" "http://www.w3.org/Graphics/SVG/1.1/DTD/svg11.dtd">
<svg version="1.1" id="Layer_1" xmlns="http://www.w3.org/2000/svg" xmlns:xlink="http://www.w3.org/1999/xlink" x="0px" y="0px"
	 width="48px" height="48px" viewBox="0 0 48 48" enable-background="new 0 0 48 48" xml:space="preserve">
<g>
	<path d="M40.574,48H26.721c-0.553,0-1-0.447-1-1s0.447-1,1-1h12.938l3.238-36.521H24.399l1.261,14.232
		c0.049,0.55-0.357,1.036-0.908,1.084c-0.537,0.061-1.035-0.358-1.084-0.908L22.31,8.567c-0.025-0.28,0.069-0.557,0.258-0.764
		s0.457-0.325,0.738-0.325H43.99c0.28,0,0.548,0.118,0.737,0.325s0.283,0.484,0.259,0.764L41.57,47.088
		C41.524,47.604,41.092,48,40.574,48z"/>
	<g>
		<path d="M35.069,32.188c-0.469,0-0.888-0.331-0.98-0.809c-0.744-3.813-4.159-6.579-8.118-6.579H13.72
			c-3.958,0-7.373,2.768-8.119,6.58c-0.106,0.541-0.632,0.894-1.173,0.789c-0.542-0.106-0.896-0.632-0.79-1.174
			C4.567,26.247,8.808,22.8,13.72,22.8h12.25c4.914,0,9.153,3.447,10.081,8.196c0.105,0.542-0.248,1.067-0.79,1.173
			C35.197,32.182,35.133,32.188,35.069,32.188z"/>
		<path d="M25.971,48H13.72c-4.913,0-9.153-3.416-10.081-8.123c-0.107-0.542,0.246-1.067,0.788-1.175
			c0.542-0.105,1.067,0.246,1.174,0.788C6.345,43.262,9.76,46,13.72,46h12.25c3.961,0,7.375-2.737,8.118-6.51
			c0.107-0.542,0.637-0.895,1.175-0.788c0.542,0.107,0.895,0.633,0.788,1.175C35.124,44.584,30.884,48,25.971,48z"/>
		<path d="M34.727,40.695H4.964c-2.875,0-5.214-2.341-5.214-5.219c0-2.877,2.339-5.217,5.214-5.217h29.763
			c2.875,0,5.215,2.34,5.215,5.217C39.941,38.354,37.602,40.695,34.727,40.695z M4.964,32.26c-1.772,0-3.214,1.443-3.214,3.217
			c0,1.774,1.442,3.219,3.214,3.219h29.763c1.772,0,3.215-1.444,3.215-3.219c0-1.773-1.442-3.217-3.215-3.217H4.964z"/>
	</g>
	<path d="M47.25,9.479H20.046c-0.552,0-1-0.448-1-1s0.448-1,1-1H47.25c0.553,0,1,0.448,1,1S47.803,9.479,47.25,9.479z"/>
	<path d="M28.831,9.479c-0.307,0-0.609-0.14-0.806-0.406l-5.523-7.479c-0.328-0.444-0.234-1.07,0.21-1.398
		c0.444-0.33,1.07-0.234,1.398,0.21l5.524,7.479c0.328,0.444,0.233,1.07-0.211,1.398C29.245,9.416,29.037,9.479,28.831,9.479z"/>
</g>
</svg>
