<?xml version="1.0" encoding="utf-8"?>
<!-- Generator: Adobe Illustrator 18.0.0, SVG Export Plug-In . SVG Version: 6.00 Build 0)  -->
<!DOCTYPE svg PUBLIC "-//W3C//DTD SVG 1.1//EN" "http://www.w3.org/Graphics/SVG/1.1/DTD/svg11.dtd">
<svg version="1.1" id="Layer_1" xmlns="http://www.w3.org/2000/svg" xmlns:xlink="http://www.w3.org/1999/xlink" x="0px" y="0px"
	 viewBox="0 0 48 48" enable-background="new 0 0 48 48" xml:space="preserve">
<g>
	<path fill="#010101" d="M8.6,31.7H1.2v-1C1.2,26,3.6,17,12.6,17h3.1c1.7-3.9,5.7-6.4,10.3-6.4c4.6,0,8.6,2.5,10.3,6.4H48v7.9H36
		c-1.8,3.6-5.7,5.9-10,5.9c-4.4,0-8.3-2.3-10-5.9h-3.4c-2.8,0-3,5.8-3,5.8l0,1L8.6,31.7z M3.2,29.7h4.4c0.2-2.1,1.1-6.8,4.9-6.8h4.7
		l0.3,0.6c1.3,3.2,4.7,5.3,8.5,5.3c3.8,0,7.2-2.1,8.5-5.3l0.3-0.6H46V19H34.9l-0.2-0.7c-1.2-3.4-4.7-5.7-8.7-5.7
		c-4,0-7.5,2.3-8.7,5.7L17.1,19h-4.5C4.8,19,3.5,26.9,3.2,29.7z"/>
	<path fill="#010101" d="M5.5,48C2.4,48,0,45.8,0,42.9c0-2.5,4-7.5,4.8-8.4l0.8-0.9l0.8,0.9c0.8,1,4.7,5.9,4.7,8.4
		C11.1,45.8,8.6,48,5.5,48z M5.6,36.7c-1.7,2.2-3.6,5-3.6,6.2C2,44.6,3.5,46,5.5,46c2,0,3.6-1.4,3.6-3.1C9.1,41.7,7.2,38.9,5.6,36.7
		z"/>
	<rect x="24.1" y="1" fill="#010101" width="2" height="10.5"/>
	<rect x="17.1" fill="#010101" width="16" height="2"/>
</g>
</svg>
