<?xml version="1.0" encoding="utf-8"?>
<!-- Generator: Adobe Illustrator 18.0.0, SVG Export Plug-In . SVG Version: 6.00 Build 0)  -->
<!DOCTYPE svg PUBLIC "-//W3C//DTD SVG 1.1//EN" "http://www.w3.org/Graphics/SVG/1.1/DTD/svg11.dtd">
<svg version="1.1" id="Layer_1" xmlns="http://www.w3.org/2000/svg" xmlns:xlink="http://www.w3.org/1999/xlink" x="0px" y="0px"
	 viewBox="0 0 48 48" enable-background="new 0 0 48 48" xml:space="preserve">
<g>
	<path d="M20.8,48H0V20.5c0-5.7,4.7-10.4,10.4-10.4s10.4,4.7,10.4,10.4V48z M2,46h16.8V20.5c0-4.6-3.8-8.4-8.4-8.4S2,15.9,2,20.5V46
		z"/>
	<rect x="9.4" y="6.4" width="2" height="4.7"/>
	<path d="M48,17.3L6.6,8.5L48-0.2V17.3z M16.2,8.5L46,14.9V2.2L16.2,8.5z"/>
	<path d="M20.7,39.5H7.5V23.7h13.2V39.5z M9.5,37.5h9.2V25.7H9.5V37.5z"/>
</g>
</svg>
