<?xml version="1.0" encoding="utf-8"?>
<!-- Generator: Adobe Illustrator 18.0.0, SVG Export Plug-In . SVG Version: 6.00 Build 0)  -->
<!DOCTYPE svg PUBLIC "-//W3C//DTD SVG 1.1//EN" "http://www.w3.org/Graphics/SVG/1.1/DTD/svg11.dtd">
<svg version="1.1" id="Layer_1" xmlns="http://www.w3.org/2000/svg" xmlns:xlink="http://www.w3.org/1999/xlink" x="0px" y="0px"
	 viewBox="0 0 48 48" enable-background="new 0 0 48 48" xml:space="preserve">
<g>
	<path d="M24,48C10.8,48,0,37.2,0,24S10.8,0,24,0s24,10.8,24,24S37.2,48,24,48z M24,2C11.9,2,2,11.9,2,24s9.9,22,22,22s22-9.9,22-22
		S36.1,2,24,2z"/>
	<path d="M45,24h-2c0-10.5-8.5-19-19-19V3C35.6,3,45,12.4,45,24z"/>
	<path d="M40.2,23.1h-2c0-7.4-6-13.4-13.4-13.4v-2C33.3,7.7,40.2,14.6,40.2,23.1z"/>
	<path d="M24,35.6c-6.4,0-11.6-5.2-11.6-11.6S17.6,12.4,24,12.4S35.6,17.6,35.6,24S30.4,35.6,24,35.6z M24,14.4
		c-5.3,0-9.6,4.3-9.6,9.6c0,5.3,4.3,9.6,9.6,9.6c5.3,0,9.6-4.3,9.6-9.6C33.6,18.7,29.3,14.4,24,14.4z"/>
	<path d="M24,29.5c-3,0-5.5-2.5-5.5-5.5c0-3,2.5-5.5,5.5-5.5c3,0,5.5,2.5,5.5,5.5C29.5,27,27,29.5,24,29.5z M24,20.5
		c-1.9,0-3.5,1.6-3.5,3.5s1.6,3.5,3.5,3.5s3.5-1.6,3.5-3.5S25.9,20.5,24,20.5z"/>
</g>
</svg>
