<?xml version="1.0" encoding="utf-8"?>
<!-- Generator: Adobe Illustrator 16.0.0, SVG Export Plug-In . SVG Version: 6.00 Build 0)  -->
<!DOCTYPE svg PUBLIC "-//W3C//DTD SVG 1.1//EN" "http://www.w3.org/Graphics/SVG/1.1/DTD/svg11.dtd">
<svg version="1.1" id="Layer_1" xmlns="http://www.w3.org/2000/svg" xmlns:xlink="http://www.w3.org/1999/xlink" x="0px" y="0px"
	 width="48px" height="48px" viewBox="0 0 48 48" enable-background="new 0 0 48 48" xml:space="preserve">
<g>
	<path d="M47,48H1c-0.552,0-1-0.447-1-1V1c0-0.552,0.448-1,1-1h46c0.553,0,1,0.448,1,1v46C48,47.553,47.553,48,47,48z M2,46h44V2H2
		V46z"/>
	<path d="M38.102,48H9.899c-0.552,0-1-0.447-1-1V15.994c0-0.552,0.448-1,1-1h28.203c0.553,0,1,0.448,1,1V47
		C39.102,47.553,38.654,48,38.102,48z M10.899,46h26.203V16.994H10.899V46z"/>
	<path d="M20.175,43.961c-0.193,0-0.388-0.056-0.559-0.172c-1.301-0.88-2.176-1.618-3.074-2.998
		c-0.85-1.306-1.195-2.466-1.194-4.005c0-0.52,0.034-1.094,0.069-1.693c0.104-1.766,0.222-3.767-0.558-4.901
		c-0.214-0.313-0.234-0.719-0.051-1.051c0.184-0.331,0.521-0.542,0.917-0.515c1.55,0.064,3.528,1.019,4.847,2.374
		c0.026-0.059,0.052-0.116,0.077-0.173c0.074-0.167,0.145-0.323,0.202-0.466c0.333-0.827,0.69-1.714,1.141-2.478
		c0.091-0.154,0.183-0.301,0.271-0.443c0.354-0.569,0.589-0.946,0.621-1.527c0.031-0.541,0.019-1.091,0.006-1.673
		c-0.005-0.266-0.011-0.532-0.013-0.795c-0.002-0.338,0.167-0.655,0.45-0.841c0.284-0.186,0.642-0.215,0.951-0.082
		c1.956,0.854,4.129,2.691,4.364,5.284c0.072,0.793,0.067,1.609,0.029,2.409c0.425-0.142,0.806-0.22,1.022-0.258
		c0.771-0.134,1.59-0.098,2.312-0.066l0.329,0.014c0.494,0.019,0.9,0.395,0.956,0.885c0.09,0.774-0.039,1.518-0.152,2.173
		c-0.079,0.455-0.153,0.885-0.152,1.281c0.001,0.244,0.009,0.495,0.017,0.747c0.018,0.587,0.036,1.194-0.019,1.804
		c-0.277,3.099-2.072,6.435-5.457,6.9c-0.563,0.08-1.053-0.307-1.127-0.854c-0.076-0.547,0.307-1.052,0.854-1.127
		c2.296-0.316,3.532-2.789,3.738-5.099c0.044-0.49,0.028-1.012,0.012-1.564c-0.008-0.27-0.017-0.537-0.018-0.801
		c-0.001-0.573,0.092-1.109,0.182-1.629c0.045-0.259,0.088-0.512,0.117-0.756c-0.439-0.009-0.872-0.002-1.251,0.063
		c-0.785,0.137-1.453,0.46-1.567,0.622c-0.111,0.515-0.592,0.822-1.112,0.74c-0.521-0.078-0.879-0.586-0.833-1.111l0.009-0.102
		c0.118-1.366,0.24-2.778,0.12-4.091c-0.103-1.138-0.854-2.095-1.747-2.785c-0.001,0.272-0.007,0.547-0.022,0.822
		c-0.06,1.092-0.497,1.794-0.919,2.473c-0.081,0.13-0.164,0.263-0.247,0.403c-0.375,0.635-0.688,1.412-0.99,2.163
		c-0.084,0.209-0.164,0.387-0.248,0.576c-0.235,0.529-0.591,1.328-0.54,1.729c0.067,0.526-0.289,1.014-0.811,1.109
		c-0.522,0.099-1.028-0.232-1.153-0.748c-0.244-1.01-1.431-2.043-2.652-2.628c0.257,1.318,0.171,2.771,0.093,4.108
		c-0.033,0.559-0.065,1.094-0.065,1.578c-0.001,1.146,0.235,1.936,0.871,2.913c0.725,1.113,1.362,1.65,2.518,2.432
		c0.458,0.31,0.578,0.931,0.269,1.389C20.811,43.807,20.496,43.961,20.175,43.961z"/>
</g>
</svg>
