<?xml version="1.0" encoding="utf-8"?>
<!-- Generator: Adobe Illustrator 18.0.0, SVG Export Plug-In . SVG Version: 6.00 Build 0)  -->
<!DOCTYPE svg PUBLIC "-//W3C//DTD SVG 1.1//EN" "http://www.w3.org/Graphics/SVG/1.1/DTD/svg11.dtd">
<svg version="1.1" id="Layer_1" xmlns="http://www.w3.org/2000/svg" xmlns:xlink="http://www.w3.org/1999/xlink" x="0px" y="0px"
	 viewBox="0 0 48 48" enable-background="new 0 0 48 48" xml:space="preserve">
<g>
	<path fill="#010101" d="M44.8,44.3H3.2c-1.8,0-3.2-1.4-3.2-3.2V13.2C0,11.4,1.4,10,3.2,10h41.6c1.8,0,3.2,1.4,3.2,3.2v27.9
		C48,42.9,46.6,44.3,44.8,44.3z M3.2,12C2.5,12,2,12.5,2,13.2v27.9c0,0.7,0.5,1.2,1.2,1.2h41.6c0.7,0,1.2-0.5,1.2-1.2V13.2
		c0-0.7-0.5-1.2-1.2-1.2H3.2z"/>
	<polygon fill="#010101" points="34,11 32,11 32,5.7 16,5.7 16,11 14,11 14,3.7 34,3.7 	"/>
	<g>
		<rect x="16.1" y="26.2" fill="#010101" width="15.8" height="2"/>
		<rect x="23" y="19.3" fill="#010101" width="2" height="15.7"/>
	</g>
	<path fill="#010101" d="M24,38.8c-6.4,0-11.6-5.2-11.6-11.6S17.6,15.6,24,15.6s11.6,5.2,11.6,11.6S30.4,38.8,24,38.8z M24,17.6
		c-5.3,0-9.6,4.3-9.6,9.6c0,5.3,4.3,9.6,9.6,9.6c5.3,0,9.6-4.3,9.6-9.6C33.6,21.9,29.3,17.6,24,17.6z"/>
</g>
</svg>
