<?xml version="1.0" encoding="utf-8"?>
<!-- Generator: Adobe Illustrator 18.0.0, SVG Export Plug-In . SVG Version: 6.00 Build 0)  -->
<!DOCTYPE svg PUBLIC "-//W3C//DTD SVG 1.1//EN" "http://www.w3.org/Graphics/SVG/1.1/DTD/svg11.dtd">
<svg version="1.1" id="Layer_1" xmlns="http://www.w3.org/2000/svg" xmlns:xlink="http://www.w3.org/1999/xlink" x="0px" y="0px"
	 viewBox="0 0 48 48" enable-background="new 0 0 48 48" xml:space="preserve">
<g>
	<rect x="1" y="7.9" fill="#010101" width="46" height="2"/>
	<g>
		<path fill="#010101" d="M45,38H6.6c-0.6,0-1.1-0.5-1.1-1.1V13.3c0-0.2,0-0.4,0-0.6C5.6,12.4,5.9,12,6.6,12H45
			c0.6,0,1.1,0.5,1.1,1.1v23.8C46.1,37.5,45.6,38,45,38z M7.5,36h36.6V14H7.5V36z"/>
	</g>
	<rect y="1" fill="#010101" width="2" height="46"/>
	<g>
		<rect x="12.2" y="6.4" fill="#010101" width="2" height="8.9"/>
		<rect x="37.4" y="6.4" fill="#010101" width="2" height="8.9"/>
	</g>
	<g>
		<path fill="#010101" d="M12.2,18.3v2.5h2.7v-2.5h1.6v6.4h-1.6V22h-2.7v2.7h-1.6v-6.4C10.6,18.3,12.2,18.3,12.2,18.3z"/>
		<path fill="#010101" d="M24.6,21.4c0,2.1-1.4,3.4-3.5,3.4s-3.4-1.4-3.4-3.3s1.4-3.4,3.5-3.4C23.4,18.2,24.6,19.6,24.6,21.4z
			 M19.4,21.5c0,1.3,0.7,2.1,1.8,2.1c1.1,0,1.7-0.9,1.7-2.2c0-1.2-0.6-2.1-1.7-2.1C20,19.3,19.4,20.3,19.4,21.5z"/>
		<path fill="#010101" d="M26.7,19.5h-1.9v-1.2h5.6v1.2h-2v5.2h-1.6v-5.2H26.7z"/>
		<path fill="#010101" d="M35.5,22h-2.7v1.5h3v1.2h-4.6v-6.4h4.5v1.2h-2.8v1.3h2.7L35.5,22L35.5,22z"/>
		<path fill="#010101" d="M37,18.3h1.6v5.2h2.9v1.2H37V18.3z"/>
	</g>
	<polygon fill="#010101" points="15.2,30 12.9,29.8 12,28 11.1,29.8 8.9,30 10.6,31.3 10.1,33.3 12.1,32.2 14,33.3 13.5,31.3 	"/>
	<polygon fill="#010101" points="22.1,30 19.8,29.8 18.9,28 18,29.8 15.8,30 17.5,31.3 17,33.3 18.9,32.2 20.9,33.3 20.4,31.3 	"/>
	<polygon fill="#010101" points="28.9,30 26.7,29.8 25.8,28 24.9,29.8 22.6,30 24.4,31.3 23.9,33.3 25.8,32.2 27.8,33.3 27.2,31.3 	
		"/>
	<polygon fill="#010101" points="35.8,30 33.6,29.8 32.6,28 31.8,29.8 29.5,30 31.3,31.3 30.8,33.3 32.7,32.2 34.7,33.3 34.1,31.3 	
		"/>
	<polygon fill="#010101" points="42.7,30 40.4,29.8 39.5,28 38.7,29.8 36.4,30 38.1,31.3 37.7,33.3 39.6,32.2 41.6,33.3 41,31.3 	
		"/>
</g>
</svg>
