<?xml version="1.0" encoding="utf-8"?>
<!-- Generator: Adobe Illustrator 18.0.0, SVG Export Plug-In . SVG Version: 6.00 Build 0)  -->
<!DOCTYPE svg PUBLIC "-//W3C//DTD SVG 1.1//EN" "http://www.w3.org/Graphics/SVG/1.1/DTD/svg11.dtd">
<svg version="1.1" id="Layer_1" xmlns="http://www.w3.org/2000/svg" xmlns:xlink="http://www.w3.org/1999/xlink" x="0px" y="0px"
	 viewBox="0 0 48 48" enable-background="new 0 0 48 48" xml:space="preserve">
<g>
	<path fill="#010101" d="M30.7,48c-9.7,0-19.2-2.8-26.8-7.8c-0.8-0.6-1.5-1.1-2.1-1.8c-0.8-1.1-1-2.3-1.1-3.2
		c-2-10.5,0.8-21.6,7.7-30.3c1.9-2.5,5.7-4.1,11.1-4.8c0.1,0,0.2,0,0.3,0l0.2,0c0.7,0,1.4-0.1,2.2-0.1c1.5,0,3.4,0.1,5.1,1
		c2.7,1.4,4.2,4.5,3.9,7.9c0,0.6-0.2,1.1-0.4,1.5l-0.1,0.1c-0.2,0.3-0.4,0.5-0.7,0.7c-0.1,0.1-0.2,0.2-0.3,0.2l-0.2,0.1
		c-2,1.3-4.8,1.7-7.2,1c-1.2-0.4-2.3-1-3.3-1.6c-1.3-0.7-2.5-1.4-3.7-1.6c0,0.4,0.1,0.8,0.2,1.1c0.4,1.1,0.8,2.3,1.3,3.5
		c0.9,2.4,1.8,4.8,2.4,7.4c0.2,0.8,0.4,1.9,0.5,3c0,0.3,0,0.7,0,1.1c0,0.2,0,0.6,0,0.8c0.6-0.2,1.7-1.1,2.2-1.5
		c0.4-0.3,0.8-0.6,1.1-0.8c1-0.7,2-1.4,3.3-2c2.6-1,5.6-1.1,9.2,0c1.7,0.5,3.3,1.1,4.9,1.7c1.1,0.4,2.2,0.8,3.3,1.2
		c1,0.2,1.8,0.6,2.6,1.1c0.9,0.8,1.5,2,1.6,3.6c0.3,2.6,0.4,5.3,0.3,7.9c-0.1,1.6-0.4,6.5-4.1,8.5c-1,0.5-2,0.8-2.9,1l-0.2,0
		C37.5,47.7,34.1,48,30.7,48z M20,2c-0.1,0-0.2,0-0.3,0C13.6,2.9,11,4.7,9.9,6.1c-6.5,8.3-9.2,18.8-7.3,28.8
		c0.1,0.8,0.2,1.6,0.7,2.3c0.4,0.5,1,0.9,1.7,1.4c7.3,4.8,16.4,7.4,25.7,7.4c3.3,0,6.6-0.3,9.7-1l0.2,0c0.8-0.2,1.6-0.4,2.4-0.8
		c1.9-1,2.8-3.2,3.1-6.9c0.1-2.5,0-5.1-0.3-7.6c-0.1-1.1-0.4-1.9-0.9-2.3c-0.4-0.3-1.1-0.6-1.9-0.8c-1.2-0.4-2.3-0.8-3.4-1.3
		c-1.5-0.6-3.1-1.2-4.7-1.6c-3.1-0.9-5.7-0.9-7.8,0c-1.1,0.5-2,1.1-3,1.8c-0.3,0.2-0.6,0.4-0.9,0.7c-1.4,1.1-2.6,2-3.7,2
		c0,0,0,0,0,0c-0.6,0-1-0.2-1.4-0.7c-0.5-0.6-0.4-1.4-0.4-2.3c0-0.3,0-0.6,0-0.8c-0.1-1-0.3-2.1-0.5-2.8c-0.5-2.4-1.4-4.8-2.3-7.1
		c-0.4-1.2-0.9-2.4-1.3-3.6C13.3,10,13,8.8,13.6,7.7l0.3-0.5l0.8,0c2,0,3.7,1,5.3,1.9c1,0.6,1.9,1.1,2.9,1.4
		c0.6,0.2,1.2,0.3,1.9,0.3c1.3,0,2.6-0.3,3.6-1c0.1-0.1,0.2-0.2,0.3-0.3c0.1-0.1,0.2-0.2,0.3-0.3c0.1-0.3,0.2-0.4,0.2-0.6
		c0.1-2.1-0.5-4.8-2.9-6c-1-0.5-2.3-0.7-4.2-0.7C21.3,1.9,20.7,2,20,2z"/>
</g>
</svg>
