<?xml version="1.0" encoding="utf-8"?>
<!-- Generator: Adobe Illustrator 18.0.0, SVG Export Plug-In . SVG Version: 6.00 Build 0)  -->
<!DOCTYPE svg PUBLIC "-//W3C//DTD SVG 1.1//EN" "http://www.w3.org/Graphics/SVG/1.1/DTD/svg11.dtd">
<svg version="1.1" id="Layer_1" xmlns="http://www.w3.org/2000/svg" xmlns:xlink="http://www.w3.org/1999/xlink" x="0px" y="0px"
	 viewBox="0 0 48 48" enable-background="new 0 0 48 48" xml:space="preserve">
<g>
	<g>
		<path fill="#010101" d="M15.5,48c-2.5,0-4.7-1.8-5.7-4.8l-9.3-29c-1.1-3.6,0-7.9,2.7-9.7C6.1,2.4,10.3,0,14,0c2.6,0,6.1,1.2,7.5,7
			l0,0.2v33C21.6,44.5,18.9,48,15.5,48z M14,2c-2.5,0-6,1.5-9.7,4.1c-1.9,1.3-2.8,4.7-1.9,7.5l9.3,29c0.7,2.1,2.1,3.4,3.7,3.4
			c2.2,0,4.1-2.6,4.1-5.7V7.4C18.7,3.8,16.9,2,14,2z"/>
		<rect x="1.6" y="16" transform="matrix(0.1715 0.9852 -0.9852 0.1715 26.5162 2.3681)" fill="#010101" width="20.4" height="2"/>
		<path fill="#010101" d="M32.5,48c-3.4,0-6.1-3.5-6.1-7.7l0-33.2c1.4-5.8,4.9-7,7.5-7c3.8,0,8,2.4,10.8,4.5
			c2.6,1.8,3.8,6.1,2.7,9.7l-9.3,29C37.2,46.2,35,48,32.5,48z M28.4,7.4v32.9c0,3.1,1.9,5.7,4.1,5.7c1.6,0,3.1-1.3,3.7-3.4l9.3-29
			c0.9-2.8,0-6.1-1.9-7.5C39.9,3.5,36.5,2,34,2C31.1,2,29.3,3.8,28.4,7.4z"/>
		
			<rect x="35.2" y="6.7" transform="matrix(0.9851 0.1718 -0.1718 0.9851 3.4504 -5.9598)" fill="#010101" width="2" height="20.4"/>
	</g>
	<path fill="#010101" d="M10.5,40.2L8.9,39c0.1-0.1,2.4-3.4,6.1-3.9c2.1-0.3,4.2,0.3,6.2,1.9L20,38.6c-1.6-1.2-3.1-1.7-4.7-1.5
		C12.5,37.5,10.5,40.2,10.5,40.2z"/>
	<path fill="#010101" d="M37.5,40.2c0,0-2-2.7-4.8-3.1c-1.6-0.2-3.1,0.3-4.7,1.5L26.8,37c2-1.6,4.1-2.2,6.2-1.9
		c3.7,0.5,6,3.8,6.1,3.9L37.5,40.2z"/>
</g>
</svg>
