<?xml version="1.0" encoding="utf-8"?>
<!-- Generator: Adobe Illustrator 18.0.0, SVG Export Plug-In . SVG Version: 6.00 Build 0)  -->
<!DOCTYPE svg PUBLIC "-//W3C//DTD SVG 1.1//EN" "http://www.w3.org/Graphics/SVG/1.1/DTD/svg11.dtd">
<svg version="1.1" id="Layer_1" xmlns="http://www.w3.org/2000/svg" xmlns:xlink="http://www.w3.org/1999/xlink" x="0px" y="0px"
	 viewBox="0 0 48 48" enable-background="new 0 0 48 48" xml:space="preserve">
<g>
	<path d="M14.2,45.5c-5.7,0-10.1-6-10.6-14.2c-0.1-2.4-0.9-4.9-1.7-7.3C0.7,20.3-0.5,16.6,0.3,13C2,5.5,7.8,0.1,14.1,0.1
		c0.8,0,1.6,0.1,2.5,0.3c7,1.6,11.1,9.7,9.3,18.4c-0.5,2-1,9.9-1,12.4C24.8,39.1,20,45.5,14.2,45.5z M14.1,2.1
		C8.7,2.1,3.7,6.9,2.3,13.4c-0.7,3.1,0.4,6.4,1.5,9.9c0.8,2.6,1.7,5.2,1.8,7.9c0.4,7,4.1,12.3,8.6,12.3c4.7,0,8.6-5.5,8.6-12.3
		c0-2.7,0.5-10.6,1-12.8c1.6-7.5-1.9-14.6-7.8-16C15.4,2.2,14.7,2.1,14.1,2.1z"/>
	<path d="M7.2,30.8C7.1,30.7-1.9,20.3,12,7.3l0.6-0.5l0.7,0.4c0.1,0.1,10.4,7,8.1,18.5l-2-0.4c1.7-8.7-4.5-14.4-6.6-16
		C1.1,20.7,8.3,29.1,8.6,29.4L7.2,30.8z"/>
	<path d="M18.2,47.8c-2.9,0-5.5-1-7.3-3.1l1.5-1.3c3.1,3.6,9.7,3,14.9-1.2c2.1-1.6,4.6-2.7,7-3.8c3.4-1.5,6.6-2.9,8.5-5.5
		c2.5-3.5,3.6-7.6,2.9-11.4c-0.5-2.7-1.8-4.9-3.8-6.3c-4.7-3.4-11.9-1.5-16.4,4.2L24,18.2c5.2-6.6,13.6-8.6,19.2-4.6
		c2.4,1.7,4.1,4.4,4.6,7.6c0.7,4.3-0.5,8.9-3.3,12.9c-2.2,3-5.8,4.6-9.3,6.2c-2.3,1-4.8,2.1-6.6,3.5C25.3,46.5,21.6,47.8,18.2,47.8z
		"/>
	<path d="M26.7,40.7l0-2c0.5,0,11.5-0.3,12.3-16.4c-2.3-0.4-9-1.2-14.2,3.4l-1.3-1.5c7.1-6.2,16.4-3.7,16.8-3.6l0.8,0.2l0,0.8
		C40.5,40.5,26.8,40.7,26.7,40.7z"/>
</g>
</svg>
