<?xml version="1.0" encoding="utf-8"?>
<!-- Generator: Adobe Illustrator 16.0.0, SVG Export Plug-In . SVG Version: 6.00 Build 0)  -->
<!DOCTYPE svg PUBLIC "-//W3C//DTD SVG 1.1//EN" "http://www.w3.org/Graphics/SVG/1.1/DTD/svg11.dtd">
<svg version="1.1" id="Layer_1" xmlns="http://www.w3.org/2000/svg" xmlns:xlink="http://www.w3.org/1999/xlink" x="0px" y="0px"
	 width="48px" height="48px" viewBox="0 0 48 48" enable-background="new 0 0 48 48" xml:space="preserve">
<g>
	<path d="M34.77,18.015c-0.005,0.001-0.012,0-0.02,0h-21.5c-0.309,0-0.6-0.143-0.79-0.387c-0.189-0.244-0.256-0.562-0.179-0.861
		L16.37,0.752C16.483,0.31,16.882,0,17.339,0h13.323c0.457,0,0.855,0.31,0.969,0.752l4.041,15.829
		c0.063,0.131,0.098,0.278,0.098,0.434C35.77,17.567,35.322,18.015,34.77,18.015z M14.538,16.015h18.925L29.886,2h-11.77
		L14.538,16.015z"/>
	<path d="M24,48c-0.552,0-1-0.447-1-1V17.015c0-0.552,0.448-1,1-1c0.553,0,1,0.448,1,1V47C25,47.553,24.553,48,24,48z"/>
	<path d="M30.322,48H17.678c-0.552,0-1-0.447-1-1s0.448-1,1-1h12.644c0.553,0,1,0.447,1,1S30.875,48,30.322,48z"/>
</g>
</svg>
