<?xml version="1.0" encoding="utf-8"?>
<!-- Generator: Adobe Illustrator 18.0.0, SVG Export Plug-In . SVG Version: 6.00 Build 0)  -->
<!DOCTYPE svg PUBLIC "-//W3C//DTD SVG 1.1//EN" "http://www.w3.org/Graphics/SVG/1.1/DTD/svg11.dtd">
<svg version="1.1" id="Layer_1" xmlns="http://www.w3.org/2000/svg" xmlns:xlink="http://www.w3.org/1999/xlink" x="0px" y="0px"
	 viewBox="0 0 48 48" enable-background="new 0 0 48 48" xml:space="preserve">
<g>
	<path fill="#010101" d="M22.1,42.5c-0.9,0-1.7-0.1-2.5-0.4c-1.3-0.4-2.4-1.1-3.4-1.9c-0.8-0.6-1.5-1.1-2.4-1.5
		c-0.6-0.2-1.2-0.3-2.1-0.3c-0.4,0-0.8,0-1.3,0c-0.5,0-0.9,0-1.4,0c-0.7,0-1.7,0-2.7-0.4c-2.2-0.9-3.8-2.9-5-6.2
		C-1.2,25,0,16.8,4.6,10.2C9.1,3.8,15.8,0,22.7,0c2,0,3.9,0.3,5.9,0.9c3.7,1.2,5.4,1.9,9.4,5.2c2.7,2.2,4.9,4.9,6.5,7.6
		c0.3,0.6,0.3,1.3,0,1.8c-0.3,0.5-0.8,0.7-1.3,0.7l-0.5,0c-2.4,0.2-4.4,0.3-6.6,1.4c-1.5,0.8-4.1,2.6-4.6,5.8
		c-0.3,1.5,0.3,2.8,0.9,4.2c0.6,1.3,1.1,2.7,1.1,4.3c0,2-0.8,4.1-2.3,5.9C28.8,40.7,25.3,42.5,22.1,42.5z M11.7,36.5
		c1.2,0,2.1,0.2,2.9,0.5c1.1,0.5,1.9,1.1,2.8,1.7c0.9,0.7,1.8,1.3,2.8,1.6c0.6,0.2,1.3,0.3,1.9,0.3c2.6,0,5.5-1.6,7.4-4
		c1.2-1.5,1.9-3.2,1.9-4.7c0-1.2-0.5-2.4-1-3.5c-0.7-1.5-1.4-3.2-1-5.4c0.7-4,3.9-6.2,5.7-7.2c2.5-1.2,4.9-1.4,7.3-1.6
		C41,11.9,39,9.6,36.7,7.7c-3.7-3.1-5.3-3.7-8.8-4.8C26.2,2.3,24.4,2,22.7,2c-6.2,0-12.3,3.5-16.4,9.3c-4.3,6.1-5.4,13.5-3,19.9
		c1,2.7,2.2,4.4,3.8,5c0.5,0.2,1.2,0.3,2,0.3c0.4,0,0.8,0,1.3,0C10.8,36.5,11.2,36.5,11.7,36.5z"/>
	<path fill="#010101" d="M19.3,33.8c-2.3,0-4-1.4-4.8-3.7c-0.5-1.5-0.2-3.1,0.7-4.6c1.1-1.8,3.1-3.2,5.1-3.4c0.2,0,0.4,0,0.6,0
		c1.4,0,2.6,0.5,3.5,1.4c1.8,1.6,2.4,3.8,1.6,5.8C25.1,31.8,22.1,33.8,19.3,33.8z M21,24c-0.1,0-0.3,0-0.4,0
		c-1.3,0.2-2.8,1.2-3.6,2.5c-0.4,0.7-0.9,1.8-0.5,3c0.5,1.5,1.5,2.3,2.9,2.3c1.9,0,4.2-1.5,4.9-3.3c0.5-1.3,0.1-2.6-1.1-3.7
		C22.5,24.2,21.8,24,21,24z"/>
	<path fill="#010101" d="M38.2,48c-2.3,0-4.8-0.2-7.8-0.6c-4.1-0.6-7.3-2.8-9.2-6l1.7-1c2,3.5,5.4,4.6,7.8,5c4.6,0.6,8,0.7,10.9,0.4
		c1-0.1,1.7-0.3,2.1-0.6c2.7-1.6,2.4-5.2,1.8-8.6l-0.9-4.2c-0.1-0.3-0.2-0.6-0.2-0.9c0-0.2-0.1-0.3-0.1-0.5
		c-0.2,0.3-0.3,0.5-0.5,0.6c-1.5,1.5-3.1,2.2-5,2.2c-3.1,0-5.5-0.8-7.5-2.4l1.3-1.6c1.7,1.3,3.7,2,6.3,2c1.4,0,2.5-0.5,3.6-1.6
		c0.1-0.2,0.6-0.9,0.7-1.2c0.3-0.6,0.9-0.9,1.5-0.8c0.6,0.1,1.1,0.5,1.3,1.2l0,0.1c0.1,0.6,0.2,1,0.3,1.5c0.1,0.3,0.2,0.6,0.3,1
		l0.9,4.2c0.5,2.7,1.5,8.3-2.7,10.7c-0.6,0.5-1.6,0.8-3,0.9C40.7,47.9,39.5,48,38.2,48z"/>
	<path fill="#010101" d="M39.1,39.6c-1.1,0-2.1-0.1-3.2-0.2C34,39.2,32,39,30.1,38.6l0.4-2c1.9,0.4,3.8,0.6,5.6,0.8
		c3.3,0.3,6.7,0.3,9.7-1.4l1,1.7C44.3,39.2,41.7,39.6,39.1,39.6z"/>
	<path fill="#010101" d="M37.7,46.7c-0.1-4.3-0.2-9.2-0.1-13.9l2,0c-0.1,4.7,0,9.5,0.1,13.9L37.7,46.7z"/>
</g>
</svg>
