<?xml version="1.0" encoding="utf-8"?>
<!-- Generator: Adobe Illustrator 18.0.0, SVG Export Plug-In . SVG Version: 6.00 Build 0)  -->
<!DOCTYPE svg PUBLIC "-//W3C//DTD SVG 1.1//EN" "http://www.w3.org/Graphics/SVG/1.1/DTD/svg11.dtd">
<svg version="1.1" id="Layer_1" xmlns="http://www.w3.org/2000/svg" xmlns:xlink="http://www.w3.org/1999/xlink" x="0px" y="0px"
	 viewBox="0 0 48 48" enable-background="new 0 0 48 48" xml:space="preserve">
<g>
	<path fill="#010101" d="M11.1,48C11.1,48,11.1,48,11.1,48c-3.2,0-6.2-0.5-9-1.6c-0.3-0.1-0.5-0.3-0.6-0.6
		c-4.1-10.6-0.2-24.4,9.7-34.4C18.5,4.2,27.7,0,36.6,0c3.2,0,6.2,0.5,9,1.6C45.8,1.8,46,2,46.1,2.2c4.1,10.6,0.2,24.4-9.7,34.4
		C29.2,43.8,20,48,11.1,48z M3.3,44.6c2.4,0.9,5,1.3,7.8,1.3c0,0,0,0,0,0C19.4,46,28.1,42,35,35.2c9.2-9.3,13-22,9.4-31.8
		C42,2.5,39.4,2,36.6,2C28.3,2,19.5,6,12.7,12.8C3.5,22.1-0.2,34.8,3.3,44.6z"/>
	<path fill="#010101" d="M47,12.9c-3.2,0-6.3-1.3-8.6-3.6c-2.7-2.5-3.4-5.8-3.6-8l2-0.1c0.1,1.9,0.8,4.6,3,6.7c2,2,4.5,3,7.2,3V12.9
		z"/>
	<path fill="#010101" d="M11.3,47c-0.1-2.6-1.2-5-3-6.8c-2-2-4.5-3-7.2-3v-2c3.2,0,6.3,1.3,8.6,3.6c2.2,2.2,3.5,5.1,3.6,8.2L11.3,47
		z"/>
	
		<rect x="22.9" y="13.1" transform="matrix(0.7093 0.7049 -0.7049 0.7093 23.8512 -9.8354)" fill="#010101" width="2" height="21.7"/>
	<g>
		
			<rect x="24.5" y="18.4" transform="matrix(0.7006 0.7136 -0.7136 0.7006 22.384 -14.4419)" fill="#010101" width="7.7" height="2"/>
		
			<rect x="21.6" y="21.5" transform="matrix(0.707 0.7072 -0.7072 0.707 23.3524 -11.3705)" fill="#010101" width="7.6" height="2"/>
		
			<rect x="18.5" y="24.5" transform="matrix(0.7071 0.7071 -0.7071 0.7071 24.5643 -8.2996)" fill="#010101" width="7.6" height="2"/>
		
			<rect x="15.4" y="27.6" transform="matrix(0.7006 0.7136 -0.7136 0.7006 26.151 -5.2237)" fill="#010101" width="7.7" height="2"/>
	</g>
</g>
</svg>
