<?xml version="1.0" encoding="utf-8"?>
<!-- Generator: Adobe Illustrator 18.0.0, SVG Export Plug-In . SVG Version: 6.00 Build 0)  -->
<!DOCTYPE svg PUBLIC "-//W3C//DTD SVG 1.1//EN" "http://www.w3.org/Graphics/SVG/1.1/DTD/svg11.dtd">
<svg version="1.1" id="Layer_1" xmlns="http://www.w3.org/2000/svg" xmlns:xlink="http://www.w3.org/1999/xlink" x="0px" y="0px"
	 viewBox="0 0 48 48" enable-background="new 0 0 48 48" xml:space="preserve">
<g>
	<path fill="#010101" d="M17.4,48h-4.6c-0.6,0-1-0.4-1-1v-9.1H1c-0.4,0-0.7-0.2-0.9-0.6C-0.1,37,0,36.6,0.2,36.3l8.4-10.9H3.2
		c-0.4,0-0.7-0.2-0.9-0.6c-0.2-0.3-0.1-0.8,0.1-1.1l7.4-9.2H4.9c-0.4,0-0.7-0.2-0.9-0.6c-0.2-0.3-0.1-0.8,0.1-1.1L14.3,0.4
		c0.4-0.5,1.2-0.5,1.6,0L26,12.8c0.2,0.2,0.3,0.5,0.3,0.8c0,0.6-0.4,1-1,1c0,0,0,0,0,0h-4.9l7.3,9c0.2,0.2,0.3,0.5,0.3,0.8
		c0,0.6-0.4,1-1,1c0,0,0,0,0,0h-5.2L30,36.3c0.2,0.3,0.3,0.7,0.1,1c-0.2,0.3-0.5,0.6-0.9,0.6H18.4V47C18.4,47.6,18,48,17.4,48z
		 M13.8,46h2.6v-9.1c0-0.6,0.4-1,1-1h9.8L19,25c-0.2-0.3-0.3-0.7-0.1-1c0.2-0.3,0.5-0.6,0.9-0.6h5.1l-7.4-9.2
		c-0.2-0.3-0.3-0.7-0.1-1.1c0.2-0.3,0.5-0.6,0.9-0.6h4.9l-8.1-10L7,12.6h4.9c0.4,0,0.7,0.2,0.9,0.6c0.2,0.3,0.1,0.8-0.1,1.1
		l-7.4,9.2h5.3c0.4,0,0.7,0.2,0.9,0.6c0.2,0.3,0.1,0.7-0.1,1.1L3,35.9h9.8c0.6,0,1,0.4,1,1V46z"/>
	<path fill="#010101" d="M38.3,38.9H35c-0.6,0-1-0.4-1-1v-6.4h-7.7c-0.4,0-0.7-0.2-0.9-0.6c-0.2-0.3-0.1-0.8,0.1-1.1l5.9-7.6h-3.5
		c-0.4,0-0.7-0.2-0.9-0.6c-0.2-0.3-0.1-0.8,0.1-1.1l5.1-6.3h-3c-0.4,0-0.7-0.2-0.9-0.6c-0.2-0.3-0.1-0.8,0.1-1.1l7.4-9.3
		c0.2-0.2,0.5-0.4,0.8-0.4c0,0,0,0,0,0c0.3,0,0.6,0.1,0.8,0.4l7.4,9.2c0.2,0.2,0.3,0.5,0.3,0.8c0,0.6-0.4,1-1,1c0,0,0,0,0,0h-3
		l5,6.1c0.2,0.2,0.3,0.5,0.3,0.8c0,0.6-0.4,1-1,1c0,0,0,0,0,0h-3.3l5.7,7.6c0.2,0.3,0.3,0.7,0.1,1c-0.2,0.3-0.5,0.6-0.9,0.6h-7.7
		v6.4C39.3,38.5,38.9,38.9,38.3,38.9z M36,36.9h1.3v-6.4c0-0.6,0.4-1,1-1H45l-5.7-7.6c-0.2-0.3-0.3-0.7-0.1-1
		c0.2-0.3,0.5-0.6,0.9-0.6h3.2L38.2,14c-0.2-0.3-0.3-0.7-0.1-1.1c0.2-0.3,0.5-0.6,0.9-0.6h3l-5.4-6.7l-5.3,6.7h3
		c0.4,0,0.7,0.2,0.9,0.6c0.2,0.3,0.1,0.8-0.1,1.1L30,20.3h3.4c0.4,0,0.7,0.2,0.9,0.6s0.1,0.8-0.1,1.1l-5.9,7.6H35c0.6,0,1,0.4,1,1
		V36.9z"/>
</g>
</svg>
