<?xml version="1.0" encoding="utf-8"?>
<!-- Generator: Adobe Illustrator 16.0.0, SVG Export Plug-In . SVG Version: 6.00 Build 0)  -->
<!DOCTYPE svg PUBLIC "-//W3C//DTD SVG 1.1//EN" "http://www.w3.org/Graphics/SVG/1.1/DTD/svg11.dtd">
<svg version="1.1" id="Layer_1" xmlns="http://www.w3.org/2000/svg" xmlns:xlink="http://www.w3.org/1999/xlink" x="0px" y="0px"
	 width="48px" height="48px" viewBox="0 0 48 48" enable-background="new 0 0 48 48" xml:space="preserve">
<g>
	<path d="M39.503,48H8.496c-0.47,0-0.877-0.327-0.977-0.787L0.023,12.814c-0.086-0.396,0.075-0.805,0.408-1.035
		c0.333-0.229,0.772-0.237,1.112-0.017C6.685,15.091,15.079,17.078,24,17.078s17.316-1.987,22.456-5.315
		c0.342-0.221,0.781-0.212,1.113,0.017c0.333,0.23,0.494,0.639,0.408,1.035L40.48,47.213C40.38,47.673,39.974,48,39.503,48z
		 M9.302,46h29.396l6.845-31.402c-5.474,2.828-13.315,4.48-21.542,4.48c-8.226,0-16.068-1.652-21.542-4.481L9.302,46z"/>
	<path d="M13.193,17.396c-0.419,0-0.81-0.266-0.949-0.685L7.947,3.789c-0.174-0.524,0.109-1.09,0.633-1.264
		c0.524-0.175,1.09,0.109,1.264,0.633l4.297,12.923c0.174,0.524-0.109,1.09-0.633,1.264C13.404,17.38,13.297,17.396,13.193,17.396z"
		/>
	<path d="M19.605,18.561c-0.022,0-0.044,0-0.066-0.002c-0.551-0.036-0.969-0.512-0.933-1.063l1.085-16.561
		c0.037-0.551,0.506-0.966,1.063-0.933c0.551,0.036,0.969,0.512,0.933,1.063l-1.085,16.561
		C20.567,18.155,20.127,18.561,19.605,18.561z"/>
	<path d="M24.001,19.078c-0.045,0-0.09-0.003-0.136-0.009c-0.547-0.074-0.931-0.578-0.856-1.125l1.587-11.67
		c0.074-0.547,0.574-0.935,1.126-0.856c0.547,0.074,0.931,0.578,0.856,1.125l-1.588,11.67
		C24.923,18.714,24.494,19.078,24.001,19.078z"/>
	<path d="M31.343,17.396c-0.503,0-0.937-0.378-0.993-0.89L28.648,1.11c-0.061-0.549,0.335-1.043,0.885-1.104
		c0.556-0.053,1.043,0.336,1.104,0.884l1.701,15.396c0.061,0.549-0.335,1.043-0.885,1.104
		C31.416,17.394,31.379,17.396,31.343,17.396z"/>
	<path d="M36.157,16.912c-0.017,0-0.033,0-0.05-0.001c-0.552-0.027-0.977-0.496-0.95-1.048l0.561-11.514
		c0.027-0.551,0.499-0.967,1.048-0.95c0.552,0.027,0.977,0.496,0.95,1.048l-0.561,11.514C37.129,16.496,36.687,16.912,36.157,16.912
		z"/>
	<path d="M16.47,17.396c-0.433,0-0.832-0.284-0.959-0.72L12.233,5.452c-0.155-0.53,0.149-1.085,0.68-1.24
		c0.531-0.154,1.086,0.15,1.24,0.68l3.277,11.224c0.155,0.53-0.149,1.085-0.68,1.24C16.657,17.383,16.563,17.396,16.47,17.396z"/>
	<path d="M24,40.48c-4.6,0-8.343-3.881-8.343-8.65S19.4,23.18,24,23.18c4.601,0,8.343,3.88,8.343,8.65S28.601,40.48,24,40.48z
		 M24,25.181c-3.498,0-6.343,2.982-6.343,6.649s2.845,6.65,6.343,6.65c3.497,0,6.343-2.983,6.343-6.65S27.497,25.181,24,25.181z"/>
	<path d="M7.954,16.768c-0.366,0-0.718-0.201-0.894-0.549L1.322,4.849C1.073,4.355,1.271,3.754,1.764,3.505
		c0.494-0.25,1.095-0.051,1.343,0.442l5.738,11.37c0.249,0.493,0.051,1.095-0.442,1.343C8.259,16.734,8.105,16.768,7.954,16.768z"/>
	<path d="M42.897,15.725c-0.04,0-0.08-0.002-0.12-0.007c-0.549-0.066-0.939-0.564-0.874-1.112l1.244-10.327
		c0.066-0.548,0.575-0.94,1.112-0.873c0.549,0.066,0.939,0.564,0.874,1.112L43.89,14.845C43.828,15.353,43.396,15.725,42.897,15.725
		z"/>
</g>
</svg>
