<?xml version="1.0" encoding="utf-8"?>
<!-- Generator: Adobe Illustrator 16.0.0, SVG Export Plug-In . SVG Version: 6.00 Build 0)  -->
<!DOCTYPE svg PUBLIC "-//W3C//DTD SVG 1.1//EN" "http://www.w3.org/Graphics/SVG/1.1/DTD/svg11.dtd">
<svg version="1.1" id="Layer_1" xmlns="http://www.w3.org/2000/svg" xmlns:xlink="http://www.w3.org/1999/xlink" x="0px" y="0px"
	 width="48px" height="48px" viewBox="0 0 48 48" enable-background="new 0 0 48 48" xml:space="preserve">
<g>
	<path d="M24,42.238c-10.235,0-18.562-9.474-18.562-21.119C5.438,9.474,13.765,0,24,0s18.563,9.474,18.563,21.119
		C42.563,32.765,34.235,42.238,24,42.238z M24,2C14.868,2,7.438,10.577,7.438,21.119c0,10.542,7.43,19.119,16.562,19.119
		c9.133,0,16.563-8.577,16.563-19.119C40.563,10.577,33.133,2,24,2z"/>
	<path d="M24,37.124c-7.773,0-14.097-7.18-14.097-16.005S16.227,5.114,24,5.114s14.098,7.18,14.098,16.005S31.773,37.124,24,37.124z
		 M24,7.114c-6.67,0-12.097,6.283-12.097,14.005c0,7.723,5.427,14.005,12.097,14.005c6.671,0,12.098-6.282,12.098-14.005
		C36.098,13.397,30.671,7.114,24,7.114z"/>
	<g>
		<path d="M13.729,48c-0.552,0-1-0.447-1-1v-9.318c0-0.553,0.448-1,1-1s1,0.447,1,1V47C14.729,47.553,14.281,48,13.729,48z"/>
		<path d="M34.271,48c-0.553,0-1-0.447-1-1v-9.318c0-0.553,0.447-1,1-1s1,0.447,1,1V47C35.271,47.553,34.824,48,34.271,48z"/>
	</g>
	<path d="M18.539,22.119c-0.25,0-0.5-0.093-0.694-0.28c-0.397-0.383-0.41-1.016-0.026-1.414l7.822-8.122
		c0.384-0.397,1.019-0.409,1.414-0.026c0.398,0.383,0.41,1.016,0.027,1.414l-7.823,8.122C19.063,22.017,18.801,22.119,18.539,22.119
		z"/>
	<path d="M18.539,28.305c-0.25,0-0.5-0.093-0.694-0.279c-0.397-0.384-0.41-1.017-0.026-1.414l7.822-8.123
		c0.384-0.397,1.019-0.408,1.414-0.026c0.398,0.383,0.41,1.016,0.027,1.414l-7.823,8.122C19.063,28.202,18.801,28.305,18.539,28.305
		z"/>
	<path d="M24,30.242c-0.25,0-0.5-0.093-0.694-0.279c-0.397-0.384-0.41-1.017-0.026-1.414l7.824-8.124
		c0.384-0.398,1.019-0.408,1.414-0.026c0.398,0.383,0.41,1.016,0.027,1.414l-7.824,8.123C24.524,30.14,24.262,30.242,24,30.242z"/>
	<path d="M44.323,48H3.677c-0.552,0-1-0.447-1-1s0.448-1,1-1h40.646c0.553,0,1,0.447,1,1S44.876,48,44.323,48z"/>
</g>
</svg>
