<?xml version="1.0" encoding="utf-8"?>
<!-- Generator: Adobe Illustrator 16.0.0, SVG Export Plug-In . SVG Version: 6.00 Build 0)  -->
<!DOCTYPE svg PUBLIC "-//W3C//DTD SVG 1.1//EN" "http://www.w3.org/Graphics/SVG/1.1/DTD/svg11.dtd">
<svg version="1.1" id="Layer_1" xmlns="http://www.w3.org/2000/svg" xmlns:xlink="http://www.w3.org/1999/xlink" x="0px" y="0px"
	 width="48px" height="48px" viewBox="0 0 48 48" enable-background="new 0 0 48 48" xml:space="preserve">
<g>
	<path d="M14.54,48H1c-0.552,0-1-0.447-1-1V29.184c0-0.553,0.448-1,1-1h13.54c0.552,0,1,0.447,1,1V47
		C15.54,47.553,15.092,48,14.54,48z M2,46h11.54V30.184H2V46z"/>
	<path d="M47,48H33.461c-0.553,0-1-0.447-1-1V29.184c0-0.553,0.447-1,1-1H47c0.553,0,1,0.447,1,1V47C48,47.553,47.553,48,47,48z
		 M34.461,46H46V30.184H34.461V46z"/>
	<path d="M33.461,48H14.54c-0.552,0-1-0.447-1-1V29.184c0-0.553,0.448-1,1-1h18.921c0.553,0,1,0.447,1,1V47
		C34.461,47.553,34.014,48,33.461,48z M15.54,46h16.921V30.184H15.54V46z"/>
	<path d="M32.707,34.818H15.293c-0.552,0-1-0.447-1-1s0.448-1,1-1h17.414c0.553,0,1,0.447,1,1S33.26,34.818,32.707,34.818z"/>
	<path d="M27.816,43.218h-7.633c-0.552,0-1-0.447-1-1V38.02c0-0.553,0.448-1,1-1h7.633c0.553,0,1,0.447,1,1v4.198
		C28.816,42.771,28.369,43.218,27.816,43.218z M21.183,41.218h5.633V39.02h-5.633V41.218z"/>
	<g>
		<path d="M24.965,16.789H7.771c-0.423,0-0.801-0.267-0.942-0.666c-0.142-0.399-0.016-0.844,0.313-1.111l10.203-8.271V1
			c0-0.552,0.448-1,1-1s1,0.448,1,1v6.218c0,0.301-0.136,0.587-0.37,0.777l-8.381,6.794h14.373c0.553,0,1,0.448,1,1
			S25.518,16.789,24.965,16.789z"/>
		<path d="M40.229,16.789H23.035c-0.552,0-1-0.448-1-1s0.448-1,1-1h14.372l-8.381-6.794c-0.234-0.19-0.37-0.476-0.37-0.777V1
			c0-0.552,0.447-1,1-1s1,0.448,1,1v5.741l10.202,8.271c0.329,0.267,0.454,0.712,0.313,1.111
			C41.029,16.522,40.652,16.789,40.229,16.789z"/>
	</g>
</g>
</svg>
