<?xml version="1.0" encoding="utf-8"?>
<!-- Generator: Adobe Illustrator 16.0.0, SVG Export Plug-In . SVG Version: 6.00 Build 0)  -->
<!DOCTYPE svg PUBLIC "-//W3C//DTD SVG 1.1//EN" "http://www.w3.org/Graphics/SVG/1.1/DTD/svg11.dtd">
<svg version="1.1" id="Layer_1" xmlns="http://www.w3.org/2000/svg" xmlns:xlink="http://www.w3.org/1999/xlink" x="0px" y="0px"
	 width="48px" height="48px" viewBox="0 0 48 48" enable-background="new 0 0 48 48" xml:space="preserve">
<g>
	<path d="M22.968,48c-0.552,0-1-0.447-1-1V29.783c0-0.553,0.448-1,1-1s1,0.447,1,1V47C23.968,47.553,23.52,48,22.968,48z"/>
	<path d="M22.968,38.881c-0.267,0-0.534-0.106-0.731-0.317c-2.584-2.77-9.573-7.923-9.644-7.975
		c-0.445-0.328-0.54-0.954-0.212-1.398c0.327-0.444,0.953-0.538,1.398-0.213c0.293,0.216,7.209,5.316,9.92,8.221
		c0.377,0.404,0.355,1.037-0.049,1.414C23.458,38.792,23.212,38.881,22.968,38.881z"/>
	<path d="M22.967,39.747c-0.177,0-0.356-0.047-0.519-0.146c-0.472-0.287-0.622-0.902-0.335-1.374
		c0.181-0.297,4.489-7.286,10.289-8.761c0.528-0.141,1.08,0.187,1.215,0.723c0.137,0.535-0.187,1.079-0.723,1.215
		c-5.017,1.276-9.032,7.797-9.072,7.862C23.634,39.576,23.304,39.747,22.967,39.747z"/>
	<path d="M38.223,32.827c-2.767,0-5.414-1.195-7.265-3.279c-0.298-0.335-0.572-0.688-0.821-1.06
		c-1.756,1.501-3.99,2.342-6.305,2.342c-2.522,0-4.91-0.972-6.716-2.7c-1.846,2.117-4.508,3.351-7.337,3.351
		C4.387,31.48,0,27.047,0,21.597c0-5.45,4.386-9.884,9.777-9.884c0.435,0,0.868,0.029,1.297,0.088
		c-0.125-0.63-0.187-1.27-0.187-1.916C10.887,4.434,15.273,0,20.665,0c3.775,0,7.228,2.244,8.831,5.66
		c5.05-0.574,9.509,2.764,10.602,7.585C44.651,14.137,48,18.181,48,22.943C48,28.394,43.614,32.827,38.223,32.827z M30.601,25.094
		l0.655,1.341c0.315,0.646,0.718,1.246,1.197,1.784c1.472,1.658,3.574,2.608,5.77,2.608c4.288,0,7.777-3.537,7.777-7.884
		c0-4-2.954-7.365-6.871-7.827l-0.757-0.089l-0.114-0.754c-0.663-4.364-4.706-7.408-9.188-6.525l-0.835,0.165l-0.296-0.798
		C26.805,4.056,23.881,2,20.665,2c-4.289,0-7.778,3.537-7.778,7.885c0,0.993,0.186,1.971,0.553,2.906l0.78,1.987l-2.026-0.672
		c-0.785-0.261-1.598-0.393-2.416-0.393c-2.076,0-4.027,0.819-5.496,2.305C2.811,17.507,2,19.489,2,21.597
		c0,4.347,3.49,7.883,7.779,7.883c2.578,0,4.984-1.293,6.437-3.458l0.754-1.123l0.853,1.051c1.485,1.83,3.676,2.88,6.01,2.88
		c2.193,0,4.3-0.955,5.777-2.62L30.601,25.094z"/>
</g>
</svg>
