<?xml version="1.0" encoding="utf-8"?>
<!-- Generator: Adobe Illustrator 16.0.0, SVG Export Plug-In . SVG Version: 6.00 Build 0)  -->
<!DOCTYPE svg PUBLIC "-//W3C//DTD SVG 1.1//EN" "http://www.w3.org/Graphics/SVG/1.1/DTD/svg11.dtd">
<svg version="1.1" id="Layer_1" xmlns="http://www.w3.org/2000/svg" xmlns:xlink="http://www.w3.org/1999/xlink" x="0px" y="0px"
	 width="48px" height="48px" viewBox="0 0 48 48" enable-background="new 0 0 48 48" xml:space="preserve">
<g>
	<path d="M33.807,47.805c-2.235,0-4.271-1.322-5.183-3.368l-4.305-9.657l-5.233,9.987c-0.986,1.874-2.914,3.036-5.031,3.036
		c-0.912,0-1.822-0.226-2.633-0.652c-2.765-1.453-3.839-4.887-2.393-7.652l6.404-12.211v-4.212H9.438
		c-3.129,0-5.675-2.546-5.675-5.676c0-3.126,2.546-5.67,5.675-5.67h8.083c-0.723-1.18-1.117-2.54-1.117-3.937
		c0-4.189,3.407-7.598,7.594-7.598c4.19,0,7.6,3.409,7.6,7.598c0,1.397-0.395,2.758-1.117,3.937h8.08
		c3.13,0,5.676,2.544,5.676,5.671c0,3.13-2.546,5.676-5.676,5.676h-5.998v2.329l6.428,14.412c0.617,1.384,0.657,2.926,0.113,4.342
		c-0.544,1.415-1.605,2.533-2.99,3.149C35.374,47.638,34.598,47.805,33.807,47.805z M24.392,31.486c0.01,0,0.021,0,0.032,0.001
		c0.383,0.012,0.726,0.242,0.882,0.592l5.145,11.543c0.801,1.792,2.998,2.686,4.85,1.859c0.897-0.399,1.585-1.124,1.937-2.04
		c0.353-0.916,0.327-1.914-0.072-2.81l-6.515-14.606c-0.058-0.128-0.087-0.267-0.087-0.407v-3.542c0-0.552,0.447-1,1-1h6.998
		c2.026,0,3.676-1.649,3.676-3.676c0-2.024-1.649-3.671-3.676-3.671H28.348c-0.416,0-0.788-0.257-0.936-0.646
		c-0.146-0.389-0.038-0.828,0.273-1.104c1.233-1.088,1.912-2.575,1.912-4.187c0-3.087-2.512-5.598-5.6-5.598
		c-3.084,0-5.594,2.511-5.594,5.598c0,1.611,0.678,3.099,1.91,4.188c0.312,0.275,0.42,0.714,0.273,1.103
		c-0.147,0.389-0.52,0.646-0.935,0.646H9.438c-2.026,0-3.675,1.646-3.675,3.67c0,2.027,1.648,3.676,3.675,3.676h6.996
		c0.552,0,1,0.448,1,1v5.458c0,0.162-0.039,0.321-0.114,0.465l-6.518,12.428c-0.936,1.789-0.24,4.013,1.552,4.955
		c0.533,0.28,1.105,0.422,1.702,0.422c1.373,0,2.622-0.753,3.26-1.966l6.191-11.814C23.679,31.692,24.021,31.486,24.392,31.486z"/>
	<path d="M19.048,43.676c-0.143,0-0.288-0.03-0.425-0.095l-7.82-3.68c-0.5-0.235-0.714-0.831-0.479-1.331
		c0.236-0.5,0.832-0.714,1.331-0.479l7.82,3.68c0.5,0.235,0.714,0.831,0.479,1.331C19.783,43.464,19.423,43.676,19.048,43.676z"/>
	<path d="M29.508,43.676c-0.376,0-0.735-0.212-0.905-0.574c-0.235-0.5-0.021-1.096,0.479-1.33l7.817-3.68
		c0.501-0.238,1.096-0.021,1.33,0.479c0.235,0.5,0.021,1.096-0.479,1.33l-7.817,3.68C29.795,43.646,29.65,43.676,29.508,43.676z"/>
</g>
</svg>
