<?xml version="1.0" encoding="utf-8"?>
<!-- Generator: Adobe Illustrator 18.0.0, SVG Export Plug-In . SVG Version: 6.00 Build 0)  -->
<!DOCTYPE svg PUBLIC "-//W3C//DTD SVG 1.1//EN" "http://www.w3.org/Graphics/SVG/1.1/DTD/svg11.dtd">
<svg version="1.1" id="Layer_1" xmlns="http://www.w3.org/2000/svg" xmlns:xlink="http://www.w3.org/1999/xlink" x="0px" y="0px"
	 viewBox="0 0 48 48" enable-background="new 0 0 48 48" xml:space="preserve">
<g>
	<g>
		<path d="M23.4,35.5c-4,0-7.3-3.3-7.3-7.3c0-4,3.3-7.3,7.3-7.3s7.3,3.3,7.3,7.3C30.7,32.2,27.4,35.5,23.4,35.5z M23.4,22.9
			c-2.9,0-5.3,2.4-5.3,5.3c0,2.9,2.4,5.3,5.3,5.3c2.9,0,5.3-2.4,5.3-5.3C28.7,25.3,26.3,22.9,23.4,22.9z"/>
	</g>
	<g>
		<path d="M22.4,47.2c-0.1-1.9-0.9-7.2-3.5-8.6l-3.4-1.9h15.9l-3.4,1.9c-2.6,1.4-3.4,6.7-3.5,8.6H22.4z M21.9,38.7
			c0.7,0.9,1.2,2,1.5,3.1c0.4-1.1,0.9-2.2,1.5-3.1H21.9z"/>
	</g>
	<g>
		<path d="M17.2,31.7c-3.6-0.7-6.9-2.1-9.3-4c-2.5-2.1-3.6-4.5-3.2-6.8c0.9-4.6,7.7-7.1,15.5-5.6c7.9,1.5,13.3,6.2,12.5,10.8
			c-0.2,1.3-1,2.6-2.3,3.5L29.2,28c0.9-0.7,1.4-1.5,1.5-2.3c0.6-3.4-4.4-7.3-10.9-8.5c-6.5-1.2-12.6,0.6-13.2,4
			c-0.3,1.6,0.6,3.3,2.5,4.9c2.1,1.7,5,3,8.4,3.6L17.2,31.7z"/>
	</g>
	<g>
		<rect x="36.1" y="0.1" transform="matrix(0.9172 0.3983 -0.3983 0.9172 8.4614 -13.6585)" width="2" height="26.9"/>
	</g>
</g>
</svg>
