<?xml version="1.0" encoding="utf-8"?>
<!-- Generator: Adobe Illustrator 18.0.0, SVG Export Plug-In . SVG Version: 6.00 Build 0)  -->
<!DOCTYPE svg PUBLIC "-//W3C//DTD SVG 1.1//EN" "http://www.w3.org/Graphics/SVG/1.1/DTD/svg11.dtd">
<svg version="1.1" id="Layer_1" xmlns="http://www.w3.org/2000/svg" xmlns:xlink="http://www.w3.org/1999/xlink" x="0px" y="0px"
	 viewBox="0 0 48 48" enable-background="new 0 0 48 48" xml:space="preserve">
<g>
	<g>
		
			<rect x="8" y="18.6" transform="matrix(0.4807 0.8769 -0.8769 0.4807 29.3393 -10.3406)" fill="#010101" width="30.8" height="2"/>
		<g>
			<path fill="#010101" d="M36.6,48c-0.1,0-0.2,0-0.3,0c-0.3-0.1-0.5-0.2-0.6-0.5l-7.2-13c-0.3-0.5-0.1-1.1,0.4-1.3l2.8-1.7
				c0.2-0.1,0.5-0.2,0.8-0.1c0.3,0.1,0.5,0.2,0.6,0.5l7.2,13c0.3,0.5,0.1,1.1-0.4,1.3l-2.8,1.7C37,48,36.8,48,36.6,48z M30.7,34.4
				L37,45.6l1.1-0.7l-6.2-11.2L30.7,34.4z"/>
		</g>
		<path fill="#010101" d="M5.7,12.6C5.7,12.6,5.7,12.6,5.7,12.6c-3.6,0-5.2-2.2-5.2-2.3C0.2,10-0.4,8.1,0.3,6
			c0.5-1.6,1.9-3.8,5.7-5.1C7.6,0.3,9,0,10.3,0c4,0,5.3,3.1,6.1,4.9l0.1,0.3c0,0,0,0,0,0c0.1,0.1,0.3,0.2,0.3,0.4
			c0.4,0.7,0.6,2.3-0.5,3.1c-0.7,0.6-2.2,1.3-5.5,2.7C9,12.2,7.3,12.6,5.7,12.6z M2.2,9.3c0.2,0.2,1.2,1.3,3.5,1.3
			c1.3,0,2.8-0.4,4.4-1.1c2.4-1.1,4.5-2,5.1-2.4c0,0,0.1-0.3,0-0.5C15.1,6.5,15,6.5,15,6.4c-0.1-0.1-0.2-0.2-0.2-0.3l-0.2-0.5
			c-1-2.2-1.8-3.7-4.3-3.7c-1,0-2.2,0.3-3.5,0.8C4.5,3.6,3,4.7,2.4,6.2C1.7,7.7,2.1,9,2.2,9.3z"/>
	</g>
	<g>
		<rect x="23.6" y="4.2" transform="matrix(0.877 0.4805 -0.4805 0.877 12.4435 -9.4094)" fill="#010101" width="2" height="30.8"/>
		<g>
			<path fill="#010101" d="M11.4,48c-0.2,0-0.4,0-0.5-0.1l-2.8-1.7c-0.5-0.3-0.6-0.9-0.4-1.3l7.2-13c0.1-0.2,0.4-0.4,0.6-0.5
				c0.3-0.1,0.5,0,0.8,0.1l2.8,1.7c0.5,0.3,0.6,0.9,0.4,1.3l-7.2,13c-0.1,0.2-0.4,0.4-0.6,0.5C11.6,48,11.5,48,11.4,48z M9.9,44.9
				l1.1,0.7l6.2-11.2l-1.1-0.7L9.9,44.9z"/>
		</g>
		<path fill="#010101" d="M42.3,12.6c-1.6,0-3.3-0.4-5.2-1.2c-3.3-1.5-4.8-2.2-5.5-2.8c-1-0.9-0.8-2.4-0.5-3.1
			c0.1-0.2,0.2-0.3,0.3-0.4c0,0,0,0,0,0l0.1-0.3C32.4,3,33.8,0,37.7,0C39,0,40.3,0.3,42,0.9c3.8,1.4,5.2,3.6,5.7,5.1
			c0.7,2.1,0.1,3.9-0.1,4.3C47.5,10.4,46,12.6,42.3,12.6z M32.8,6.6c-0.1,0.2,0,0.5,0,0.5c0.6,0.5,2.6,1.4,5.1,2.5
			c1.6,0.7,3.1,1.1,4.4,1.1c2.3,0,3.3-1.1,3.5-1.3c0.1-0.3,0.4-1.6-0.2-3.1c-0.7-1.5-2.1-2.7-4.4-3.5C39.9,2.2,38.7,2,37.7,2
			c-2.5,0-3.3,1.5-4.3,3.7l-0.2,0.5c0,0.1-0.1,0.2-0.2,0.3C33,6.5,32.9,6.5,32.8,6.6z"/>
	</g>
</g>
</svg>
