<?xml version="1.0" encoding="utf-8"?>
<!-- Generator: Adobe Illustrator 18.0.0, SVG Export Plug-In . SVG Version: 6.00 Build 0)  -->
<!DOCTYPE svg PUBLIC "-//W3C//DTD SVG 1.1//EN" "http://www.w3.org/Graphics/SVG/1.1/DTD/svg11.dtd">
<svg version="1.1" id="Layer_1" xmlns="http://www.w3.org/2000/svg" xmlns:xlink="http://www.w3.org/1999/xlink" x="0px" y="0px"
	 viewBox="0 0 48 48" enable-background="new 0 0 48 48" xml:space="preserve">
<g>
	<path fill="#010101" d="M7.1,45c-3.5,0-6.4-2.9-6.4-6.4c0-3.5,2.9-6.4,6.4-6.4s6.4,2.9,6.4,6.4C13.5,42.1,10.6,45,7.1,45z
		 M7.1,34.2c-2.4,0-4.4,2-4.4,4.4c0,2.4,2,4.4,4.4,4.4s4.4-2,4.4-4.4C11.5,36.2,9.5,34.2,7.1,34.2z"/>
	<path fill="#010101" d="M40.1,45c-3.5,0-6.4-2.9-6.4-6.4c0-3.5,2.9-6.4,6.4-6.4c3.5,0,6.4,2.9,6.4,6.4C46.5,42.1,43.6,45,40.1,45z
		 M40.1,34.2c-2.4,0-4.4,2-4.4,4.4c0,2.4,2,4.4,4.4,4.4c2.4,0,4.4-2,4.4-4.4C44.5,36.2,42.5,34.2,40.1,34.2z"/>
	<path fill="#010101" d="M30,37.3H17.1c-1,0-1.8-0.6-2.1-1.5c-2.5-6.8-9.9-6.9-12.9-6.6c-0.6,0.1-1.3-0.2-1.7-0.8
		c-0.4-0.6-0.5-1.3-0.2-2c1.1-2.2,4.4-7,10.8-5.8c7.1,1.2,8,11.2,8.1,14.7h5.8l0.2-9c0-1.5,1.4-2.9,2.9-2.9h4.8
		c0.3,0,0.5-0.2,0.6-0.3l3.9-5.6c0.5-0.7,1.2-1.1,2-1.1c0.7,0,1.5,0.3,2,0.9l5.9,6.8c0.5,0.5,0.8,1.4,0.8,2.3v4.2
		c0,0.7-0.3,1.3-0.9,1.6c-0.6,0.3-1.3,0.4-1.9,0.1c-3-1.7-5.6-2.1-7.9-1.4c-3.1,1-4.8,3.9-5.4,5.2C31.6,36.8,30.8,37.3,30,37.3z
		 M3.9,27.1c4.1,0,10.6,1.2,13.1,8l0,0.1c0,0,0,0,0.1,0c-0.1-3.1-0.9-11.8-6.5-12.7c-4.8-0.9-7.4,2.4-8.6,4.6
		C2.6,27.1,3.2,27.1,3.9,27.1z M26.9,35.3H30c0.1,0,0.2-0.1,0.2-0.1c0.7-1.5,2.7-5,6.6-6.2c2.8-0.9,5.9-0.4,9.2,1.5v-4
		c0-0.4-0.1-0.7-0.3-0.9l-5.9-6.9c-0.1-0.1-0.3-0.2-0.4-0.2c-0.2,0-0.3,0.1-0.4,0.3L35,24.3c-0.5,0.7-1.4,1.1-2.2,1.1H28
		c-0.4,0-0.9,0.5-0.9,0.9L26.9,35.3z"/>
	<rect x="12.9" y="3.5" transform="matrix(0.9433 0.332 -0.332 0.9433 5.0381 -3.8888)" fill="#010101" width="2" height="18.7"/>
	<polygon fill="#010101" points="40.5,17.4 38.5,17.4 38.5,5 11.6,5 11.6,3 40.5,3 	"/>
	
		<rect x="18.1" y="16.3" transform="matrix(0.6661 0.7459 -0.7459 0.6661 22.3201 -7.1541)" fill="#010101" width="2" height="10.1"/>
	
		<rect x="19.1" y="17.5" transform="matrix(0.6465 0.7629 -0.7629 0.6465 22.2051 -11.0249)" fill="#010101" width="7.7" height="2"/>
</g>
</svg>
