<?xml version="1.0" encoding="utf-8"?>
<!-- Generator: Adobe Illustrator 18.0.0, SVG Export Plug-In . SVG Version: 6.00 Build 0)  -->
<!DOCTYPE svg PUBLIC "-//W3C//DTD SVG 1.1//EN" "http://www.w3.org/Graphics/SVG/1.1/DTD/svg11.dtd">
<svg version="1.1" id="Layer_1" xmlns="http://www.w3.org/2000/svg" xmlns:xlink="http://www.w3.org/1999/xlink" x="0px" y="0px"
	 viewBox="0 0 48 48" enable-background="new 0 0 48 48" xml:space="preserve">
<g>
	<g>
		
			<rect x="-11" y="22.5" transform="matrix(0.5581 0.8298 -0.8298 0.5581 26.5725 -2.9968)" fill="#010101" width="54.1" height="2"/>
		<path fill="#010101" d="M36.2,48C36.2,48,36.2,48,36.2,48c-3.7,0-5.7-1.3-5.8-1.3l-0.4-0.2L30,45.9c-0.6-4.4,6-7.7,9.5-9.5
			c0.6-0.3,1.1-0.5,1.4-0.7c0.9-0.6,1.7-0.8,2.4-0.8c2.2,0,3.2,2.2,3.9,3.9c1.5,4.1,0.5,5.6,0.2,5.9l-0.1,0.1L47.1,45
			C43.2,47,39.6,48,36.2,48z M32,45.2c0.7,0.3,2.1,0.8,4.2,0.8c2.9,0,6.2-0.9,9.7-2.6c0.1-0.3,0.3-1.4-0.6-3.8
			c-0.4-1.2-1.1-2.6-2-2.6c-0.3,0-0.8,0.2-1.3,0.5c-0.3,0.2-0.9,0.5-1.5,0.8C37.9,39.5,32.3,42.4,32,45.2z"/>
	</g>
	<g>
		
			<rect x="30.9" y="-3.6" transform="matrix(0.8299 0.5579 -0.5579 0.8299 18.5065 -13.8074)" fill="#010101" width="2" height="54.1"/>
		<path fill="#010101" d="M11.8,48c-3.3,0-7-1-10.8-3l-0.2-0.1l-0.1-0.1c-0.3-0.4-1.3-1.9,0.2-5.9c0.6-1.7,1.7-3.9,3.9-3.9
			c0.7,0,1.5,0.3,2.4,0.8c0.3,0.2,0.8,0.4,1.4,0.7c3.5,1.8,10.1,5.1,9.5,9.5l-0.1,0.5l-0.4,0.2C17.5,46.7,15.5,48,11.8,48z
			 M2.1,43.4c3.5,1.7,6.7,2.6,9.6,2.6c2.1,0,3.6-0.5,4.2-0.8c-0.3-2.8-5.9-5.7-8.4-6.9c-0.7-0.3-1.2-0.6-1.5-0.8
			c-0.6-0.3-1-0.5-1.3-0.5c-0.9,0-1.6,1.4-2,2.6C1.9,41.9,2,43,2.1,43.4z"/>
	</g>
</g>
</svg>
