<?xml version="1.0" encoding="utf-8"?>
<!-- Generator: Adobe Illustrator 16.0.0, SVG Export Plug-In . SVG Version: 6.00 Build 0)  -->
<!DOCTYPE svg PUBLIC "-//W3C//DTD SVG 1.1//EN" "http://www.w3.org/Graphics/SVG/1.1/DTD/svg11.dtd">
<svg version="1.1" id="Layer_1" xmlns="http://www.w3.org/2000/svg" xmlns:xlink="http://www.w3.org/1999/xlink" x="0px" y="0px"
	 width="48px" height="48px" viewBox="0 0 48 48" enable-background="new 0 0 48 48" xml:space="preserve">
<g>
	<path d="M38.607,48H9.397c-0.215,0-0.425-0.069-0.598-0.198c-5.606-4.179-8.695-9.763-8.695-15.726s3.087-11.55,8.695-15.731
		c0.173-0.129,0.382-0.198,0.598-0.198h29.21c0.216,0,0.425,0.069,0.598,0.198c5.608,4.181,8.696,9.768,8.695,15.731
		c0,5.963-3.089,11.547-8.695,15.726C39.032,47.931,38.822,48,38.607,48z M9.732,46h28.541c4.922-3.768,7.628-8.701,7.628-13.924
		c0.001-5.224-2.705-10.16-7.628-13.929H9.732c-4.923,3.77-7.629,8.706-7.628,13.929C2.104,37.299,4.811,42.232,9.732,46z"/>
	<path d="M1.101,9.547c-0.481,0-0.905-0.348-0.986-0.837C0.025,8.165,0.395,7.65,0.939,7.56l45.797-7.547
		c0.548-0.085,1.06,0.28,1.148,0.824c0.09,0.545-0.278,1.06-0.823,1.149L1.265,9.534C1.209,9.542,1.155,9.547,1.101,9.547z"/>
	<path d="M47,33.074H1c-0.552,0-1-0.447-1-1s0.448-1,1-1h46c0.553,0,1,0.447,1,1S47.553,33.074,47,33.074z"/>
	<path d="M29.235,31.75c-0.041,0-0.082-0.002-0.124-0.008c-0.548-0.067-0.938-0.567-0.869-1.115
		c0.96-7.733-1.381-11.688-1.404-11.727c-0.286-0.47-0.14-1.085,0.329-1.374c0.47-0.289,1.082-0.146,1.371,0.321
		c0.113,0.181,2.743,4.525,1.688,13.025C30.164,31.38,29.733,31.75,29.235,31.75z"/>
	<path d="M22.816,17.65c-0.371,0-0.727-0.207-0.9-0.563c-0.242-0.497-0.035-1.095,0.461-1.336c3.532-1.72,5.454-3.614,5.556-5.479
		c0.139-2.543-3.057-4.632-3.089-4.653c-0.467-0.294-0.607-0.912-0.313-1.379c0.296-0.467,0.914-0.606,1.379-0.313
		c0.173,0.109,4.225,2.708,4.019,6.454c-0.146,2.671-2.393,5.083-6.677,7.168C23.112,17.618,22.962,17.65,22.816,17.65z"/>
</g>
</svg>
