<?xml version="1.0" encoding="utf-8"?>
<!-- Generator: Adobe Illustrator 16.0.0, SVG Export Plug-In . SVG Version: 6.00 Build 0)  -->
<!DOCTYPE svg PUBLIC "-//W3C//DTD SVG 1.1//EN" "http://www.w3.org/Graphics/SVG/1.1/DTD/svg11.dtd">
<svg version="1.1" id="Layer_1" xmlns="http://www.w3.org/2000/svg" xmlns:xlink="http://www.w3.org/1999/xlink" x="0px" y="0px"
	 width="48px" height="48px" viewBox="0 0 48 48" enable-background="new 0 0 48 48" xml:space="preserve">
<g>
	<path d="M16.86,38.596c-2.882,0-5.227-2.345-5.227-5.228s2.345-5.228,5.227-5.228s5.227,2.345,5.227,5.228
		S19.742,38.596,16.86,38.596z M16.86,30.141c-1.779,0-3.227,1.448-3.227,3.228s1.448,3.228,3.227,3.228s3.227-1.448,3.227-3.228
		S18.639,30.141,16.86,30.141z"/>
	<path d="M25.413,31.695c-2.882,0-5.227-2.345-5.227-5.228c0-2.882,2.345-5.227,5.227-5.227c2.883,0,5.228,2.345,5.228,5.227
		C30.641,29.351,28.296,31.695,25.413,31.695z M25.413,23.241c-1.779,0-3.227,1.447-3.227,3.227s1.448,3.228,3.227,3.228
		s3.228-1.448,3.228-3.228S27.192,23.241,25.413,23.241z"/>
	<path d="M33.966,24.793c-2.883,0-5.228-2.345-5.228-5.227s2.345-5.227,5.228-5.227s5.228,2.345,5.228,5.227
		S36.849,24.793,33.966,24.793z M33.966,16.339c-1.779,0-3.228,1.448-3.228,3.227s1.448,3.227,3.228,3.227s3.228-1.448,3.228-3.227
		S35.745,16.339,33.966,16.339z"/>
	<path d="M27.8,43.404c-2.882,0-5.227-2.345-5.227-5.228c0-2.882,2.345-5.227,5.227-5.227c2.883,0,5.228,2.345,5.228,5.227
		C33.027,41.06,30.683,43.404,27.8,43.404z M27.8,34.95c-1.779,0-3.227,1.447-3.227,3.227s1.447,3.228,3.227,3.228
		s3.228-1.448,3.228-3.228S29.579,34.95,27.8,34.95z"/>
	<path d="M36.357,36.502L36.357,36.502c-0.334,0-0.671-0.032-1.001-0.097c-2.828-0.549-4.683-3.298-4.135-6.127
		c0.474-2.451,2.629-4.23,5.123-4.23c0.335,0,0.674,0.033,1.005,0.098c1.369,0.265,2.554,1.048,3.335,2.206
		c0.782,1.157,1.065,2.549,0.799,3.919C41.007,34.723,38.852,36.502,36.357,36.502z M36.345,28.048c-1.538,0-2.867,1.098-3.16,2.611
		c-0.338,1.747,0.808,3.443,2.553,3.783c1.728,0.339,3.449-0.835,3.783-2.553c0.164-0.846-0.011-1.705-0.493-2.42
		c-0.482-0.714-1.214-1.197-2.06-1.361C36.761,28.068,36.552,28.048,36.345,28.048z"/>
	<path d="M38.57,47.999c-2.882,0-5.227-2.344-5.227-5.226s2.345-5.227,5.227-5.227s5.226,2.345,5.226,5.227
		S41.452,47.999,38.57,47.999z M38.57,39.547c-1.779,0-3.227,1.447-3.227,3.227c0,1.778,1.447,3.226,3.227,3.226
		c1.778,0,3.226-1.447,3.226-3.226C41.796,40.994,40.349,39.547,38.57,39.547z"/>
	<path d="M22.008,18.451L22.008,18.451c-0.22,0-0.456-0.078-0.636-0.212l0,0.001c-0.162-0.124-3.969-3.071-3.621-7.529
		c0.297-3.795,3.493-7.359,9.5-10.591c0.321-0.173,0.715-0.157,1.021,0.044c0.308,0.201,0.479,0.554,0.448,0.92
		c-0.003,0.042-0.339,4.249,0.727,8.425c0.418,1.637,0.008,3.316-1.188,4.854C26.331,16.845,22.799,18.451,22.008,18.451z
		 M26.665,2.753c-4.324,2.604-6.707,5.391-6.92,8.114c-0.209,2.679,1.674,4.727,2.481,5.473c1.009-0.411,3.624-1.78,4.81-3.717
		c0.542-0.886,0.697-1.744,0.474-2.621C26.8,7.22,26.662,4.485,26.665,2.753z"/>
	<path d="M20.649,22.117c-0.294,0-0.585-0.129-0.783-0.377c-6.6-8.284-14.133-4.56-14.208-4.52c-0.493,0.25-1.095,0.057-1.346-0.434
		c-0.251-0.492-0.058-1.094,0.434-1.346c0.09-0.045,9.075-4.495,16.684,5.054c0.344,0.432,0.273,1.061-0.159,1.405
		C21.088,22.046,20.868,22.117,20.649,22.117z"/>
</g>
</svg>
