<?xml version="1.0" encoding="utf-8"?>
<!-- Generator: Adobe Illustrator 18.0.0, SVG Export Plug-In . SVG Version: 6.00 Build 0)  -->
<!DOCTYPE svg PUBLIC "-//W3C//DTD SVG 1.1//EN" "http://www.w3.org/Graphics/SVG/1.1/DTD/svg11.dtd">
<svg version="1.1" id="Layer_1" xmlns="http://www.w3.org/2000/svg" xmlns:xlink="http://www.w3.org/1999/xlink" x="0px" y="0px"
	 viewBox="0 0 48 48" enable-background="new 0 0 48 48" xml:space="preserve">
<g>
	<path fill="#010101" d="M24,31.8c-9.4,0-17-6.2-17-13.9c0-0.6,0.1-1.1,0.2-1.6l0.2-1.1h33.5v1c0,0.3,0,0.5,0,0.8
		c0,0.3,0.1,0.6,0.1,0.9C41,25.6,33.4,31.8,24,31.8z M9.1,17.2C9,17.4,9,17.7,9,17.9c0,6.6,6.7,11.9,15,11.9c8.3,0,15-5.3,15-11.9
		c0-0.2,0-0.5,0-0.7H9.1z"/>
	<polygon fill="#010101" points="11.4,47.3 9.6,46.7 15.5,30.4 32.5,30.4 35.9,39.7 34.1,40.3 31.1,32.4 16.9,32.4 	"/>
	<path fill="#010101" d="M35.7,48c-2.4,0-4.4-2-4.4-4.4c0-2.4,2-4.4,4.4-4.4c2.4,0,4.4,2,4.4,4.4C40.1,46,38.1,48,35.7,48z
		 M35.7,41.2c-1.3,0-2.4,1.1-2.4,2.4s1.1,2.4,2.4,2.4s2.4-1.1,2.4-2.4S37,41.2,35.7,41.2z"/>
	<rect x="13.6" y="38.2" fill="#010101" width="20.9" height="2"/>
	<g>
		<rect x="29.4" y="5" fill="#010101" width="2" height="8.6"/>
		<rect x="23" y="1" fill="#010101" width="2" height="12.6"/>
		<rect x="16.6" y="5" fill="#010101" width="2" height="8.6"/>
	</g>
</g>
</svg>
