<?xml version="1.0" encoding="utf-8"?>
<!-- Generator: Adobe Illustrator 18.0.0, SVG Export Plug-In . SVG Version: 6.00 Build 0)  -->
<!DOCTYPE svg PUBLIC "-//W3C//DTD SVG 1.1//EN" "http://www.w3.org/Graphics/SVG/1.1/DTD/svg11.dtd">
<svg version="1.1" id="Layer_1" xmlns="http://www.w3.org/2000/svg" xmlns:xlink="http://www.w3.org/1999/xlink" x="0px" y="0px"
	 viewBox="0 0 48 48" enable-background="new 0 0 48 48" xml:space="preserve">
<g>
	<path fill="#010101" d="M41.3,48H6.7v-6.8h2.9V29.8H6.7V23h34.6v6.8h-2.9v11.4h2.9V48z M8.7,46h30.6v-2.8h-2.9V27.8h2.9V25H8.7v2.8
		h2.9v15.4H8.7V46z"/>
	<path fill="#010101" d="M19.8,11c-3,0-5.5-2.5-5.5-5.5S16.8,0,19.8,0s5.5,2.5,5.5,5.5S22.8,11,19.8,11z M19.8,2
		c-1.9,0-3.5,1.6-3.5,3.5S17.9,9,19.8,9s3.5-1.6,3.5-3.5S21.7,2,19.8,2z"/>
	<path fill="#010101" d="M30.8,25H8.7v-1c0-6.6,5-12,11.1-12c2.8,0,5.5,1.1,7.6,3.2c2.2,2.3,3.5,5.5,3.4,8.8L30.8,25z M10.7,23h18
		c-0.2-2.4-1.2-4.7-2.8-6.4c-1.7-1.7-3.9-2.6-6.2-2.6C15.1,14,11.2,18,10.7,23z"/>
	<polygon fill="#010101" points="37.5,24 35.5,24 35.5,18.2 28.9,12.1 30.3,10.7 37.5,17.4 	"/>
	<rect x="27.2" y="7.5" transform="matrix(0.8773 0.4799 -0.4799 0.8773 7.7672 -13.4815)" fill="#010101" width="6" height="2"/>
</g>
</svg>
