<?xml version="1.0" encoding="utf-8"?>
<!-- Generator: Adobe Illustrator 18.0.0, SVG Export Plug-In . SVG Version: 6.00 Build 0)  -->
<!DOCTYPE svg PUBLIC "-//W3C//DTD SVG 1.1//EN" "http://www.w3.org/Graphics/SVG/1.1/DTD/svg11.dtd">
<svg version="1.1" id="Layer_1" xmlns="http://www.w3.org/2000/svg" xmlns:xlink="http://www.w3.org/1999/xlink" x="0px" y="0px"
	 viewBox="0 0 48 48" enable-background="new 0 0 48 48" xml:space="preserve">
<g>
	<path d="M16.4,47.9H6.2c-3.5,0-6.2-2.5-6.2-5.8V5.8C0,2.6,2.8,0,6.2,0h10.2v2H6.2C3.9,2,2,3.7,2,5.8v36.3c0,2.1,1.8,3.8,4.2,3.8
		h10.2V47.9z"/>
	<g>
		<rect x="6.6" y="4.4" width="9.8" height="2"/>
		<rect x="6.6" y="8.5" width="9.8" height="2"/>
		<rect x="6.6" y="12.7" width="9.8" height="2"/>
		<rect x="6.6" y="16.8" width="9.8" height="2"/>
		<rect x="6.6" y="20.9" width="9.8" height="2"/>
		<rect x="6.6" y="25.1" width="9.8" height="2"/>
		<rect x="6.6" y="29.2" width="9.8" height="2"/>
		<rect x="6.6" y="33.3" width="9.8" height="2"/>
		<rect x="6.6" y="37.5" width="9.8" height="2"/>
		<rect x="6.6" y="41.6" width="9.8" height="2"/>
	</g>
	<g>
		<g>
			<path d="M41.9,48c-3.4,0-6.1-2.6-6.1-5.7s2.7-5.7,6.1-5.7c3.4,0,6.1,2.6,6.1,5.7S45.3,48,41.9,48z M41.9,38.6
				c-2.3,0-4.1,1.7-4.1,3.7s1.8,3.7,4.1,3.7s4.1-1.7,4.1-3.7S44.2,38.6,41.9,38.6z"/>
			<path d="M25.4,48c-3.4,0-6.1-2.6-6.1-5.7s2.7-5.7,6.1-5.7c3.4,0,6.1,2.6,6.1,5.7S28.8,48,25.4,48z M25.4,38.6
				c-2.3,0-4.1,1.7-4.1,3.7s1.8,3.7,4.1,3.7c2.3,0,4.1-1.7,4.1-3.7S27.7,38.6,25.4,38.6z"/>
		</g>
		<polygon points="39.6,38 33.6,26 27.7,38 25.9,37.2 33.6,21.4 41.4,37.2 		"/>
		<polygon points="33.6,27.2 25.8,1.3 27.8,0.7 33.6,20.2 39.5,0.7 41.5,1.3 		"/>
	</g>
</g>
</svg>
