<?xml version="1.0" encoding="utf-8"?>
<!-- Generator: Adobe Illustrator 16.0.0, SVG Export Plug-In . SVG Version: 6.00 Build 0)  -->
<!DOCTYPE svg PUBLIC "-//W3C//DTD SVG 1.1//EN" "http://www.w3.org/Graphics/SVG/1.1/DTD/svg11.dtd">
<svg version="1.1" id="Layer_1" xmlns="http://www.w3.org/2000/svg" xmlns:xlink="http://www.w3.org/1999/xlink" x="0px" y="0px"
	 width="48px" height="48px" viewBox="0 0 48 48" enable-background="new 0 0 48 48" xml:space="preserve">
<g>
	<path d="M42.337,47.798c-0.013,0-0.024,0-0.037-0.001c-0.552-0.02-0.983-0.482-0.963-1.035c0.256-7.178-1.329-11.902-4.711-14.041
		c-5.604-3.544-14.539,1.019-14.628,1.065c-0.281,0.144-0.614,0.149-0.898,0.012c-0.285-0.139-0.487-0.402-0.546-0.713l-3.699-19.5
		c-0.103-0.543,0.253-1.066,0.796-1.169c0.546-0.105,1.066,0.254,1.169,0.796l3.46,18.237c2.851-1.229,10.115-3.764,15.41-0.423
		c4.03,2.545,5.93,7.863,5.646,15.808C43.316,47.373,42.872,47.798,42.337,47.798z"/>
	<path d="M25.885,20.818c-1.914,0-4.198-0.46-6.872-1.711c-0.5-0.234-0.716-0.83-0.482-1.33c0.234-0.501,0.828-0.716,1.33-0.482
		c8.529,3.993,12.111-1.104,12.146-1.155c0.311-0.457,0.933-0.576,1.39-0.267c0.457,0.31,0.576,0.932,0.267,1.389
		C33.63,17.311,31.169,20.818,25.885,20.818z"/>
	<path d="M16.337,11c-3.033,0-5.5-2.467-5.5-5.5s2.467-5.5,5.5-5.5s5.5,2.467,5.5,5.5S19.37,11,16.337,11z M16.337,2
		c-1.93,0-3.5,1.57-3.5,3.5s1.57,3.5,3.5,3.5s3.5-1.57,3.5-3.5S18.267,2,16.337,2z"/>
	<path d="M21.887,48c-9.512,0-17.25-7.737-17.25-17.248c0-4.782,1.91-9.227,5.378-12.516c0.401-0.38,1.033-0.363,1.414,0.038
		c0.38,0.4,0.363,1.034-0.038,1.414c-3.065,2.907-4.754,6.837-4.754,11.064C6.637,39.16,13.479,46,21.887,46
		c4.074,0,7.904-1.586,10.783-4.465c0.391-0.391,1.023-0.391,1.414,0s0.391,1.023,0,1.414C30.827,46.206,26.495,48,21.887,48z"/>
</g>
</svg>
