<?xml version="1.0" encoding="utf-8"?>
<!-- Generator: Adobe Illustrator 18.0.0, SVG Export Plug-In . SVG Version: 6.00 Build 0)  -->
<!DOCTYPE svg PUBLIC "-//W3C//DTD SVG 1.1//EN" "http://www.w3.org/Graphics/SVG/1.1/DTD/svg11.dtd">
<svg version="1.1" id="Layer_1" xmlns="http://www.w3.org/2000/svg" xmlns:xlink="http://www.w3.org/1999/xlink" x="0px" y="0px"
	 viewBox="0 0 48 48" enable-background="new 0 0 48 48" xml:space="preserve">
<g>
	<path fill="#010101" d="M24,46.4l-0.7-0.7c-3-2.9-5.9-5.4-8.4-7.7C6.2,30.5,0,25,0,15.7C0,8.1,6.1,2,13.7,2c4,0,7.7,1.7,10.3,4.6
		C26.6,3.7,30.3,2,34.3,2C41.9,2,48,8.1,48,15.7c0,7.9-6,13.5-14.4,21.4c-2.7,2.5-5.7,5.4-8.9,8.6L24,46.4z M13.7,4
		C7.2,4,2,9.2,2,15.7c0,8.4,6,13.6,14.2,20.9c2.4,2.1,5,4.4,7.8,7c2.9-3,5.8-5.6,8.3-8C40.5,27.8,46,22.7,46,15.7
		C46,9.2,40.8,4,34.3,4c-3.8,0-7.2,1.7-9.5,4.8L24,9.9l-0.8-1.1C20.9,5.7,17.5,4,13.7,4z"/>
	<path fill="#010101" d="M24.5,37c-0.5,0-0.8-0.3-1-0.7l-4.2-16l-1.1,6.6c-0.1,0.5-0.5,0.8-1,0.8H6.6v-2h9.8l1.8-10.3
		c0.1-0.5,0.5-0.8,0.9-0.8c0.5,0,0.9,0.3,1,0.7L24.2,31l3.4-23c0.1-0.5,0.5-0.8,0.9-0.9c0.5,0,0.9,0.3,1,0.7l4.6,17.7H47v2H33.4
		c-0.5,0-0.9-0.3-1-0.7l-3.6-13.6l-3.4,22.9C25.4,36.6,25,37,24.5,37C24.5,37,24.5,37,24.5,37z"/>
</g>
</svg>
