<?xml version="1.0" encoding="utf-8"?>
<!-- Generator: Adobe Illustrator 18.0.0, SVG Export Plug-In . SVG Version: 6.00 Build 0)  -->
<!DOCTYPE svg PUBLIC "-//W3C//DTD SVG 1.1//EN" "http://www.w3.org/Graphics/SVG/1.1/DTD/svg11.dtd">
<svg version="1.1" id="Layer_1" xmlns="http://www.w3.org/2000/svg" xmlns:xlink="http://www.w3.org/1999/xlink" x="0px" y="0px"
	 viewBox="0 0 48 48" enable-background="new 0 0 48 48" xml:space="preserve">
<g>
	<g>
		<path fill="#010101" d="M33.8,21.8c-4.1,0-7.5-3.4-7.5-7.6c0-4.2,3.4-7.6,7.5-7.6s7.5,3.4,7.5,7.6C41.3,18.4,37.9,21.8,33.8,21.8z
			 M33.8,8.6c-3,0-5.5,2.5-5.5,5.6c0,3.1,2.5,5.6,5.5,5.6s5.5-2.5,5.5-5.6C39.3,11.1,36.8,8.6,33.8,8.6z"/>
		<g>
			<g>
				<rect x="32.8" y="1" fill="#010101" width="2" height="4.7"/>
				<rect x="32.8" y="22.7" fill="#010101" width="2" height="4.8"/>
			</g>
			<g>
				<rect x="42.3" y="13.2" fill="#010101" width="4.7" height="2"/>
				<rect x="20.7" y="13.2" fill="#010101" width="4.7" height="2"/>
			</g>
		</g>
		<g>
			<g>
				
					<rect x="40.4" y="4.2" transform="matrix(0.7071 0.7071 -0.7071 0.7071 16.7719 -27.3909)" fill="#010101" width="2" height="4.7"/>
				
					<rect x="25.2" y="19.6" transform="matrix(0.707 0.7072 -0.7072 0.707 23.2155 -12.133)" fill="#010101" width="2" height="4.7"/>
			</g>
			<g>
				
					<rect x="39.1" y="21" transform="matrix(0.707 0.7072 -0.7072 0.707 27.6681 -22.8823)" fill="#010101" width="4.7" height="2"/>
				
					<rect x="23.9" y="5.6" transform="matrix(0.7072 0.7071 -0.7071 0.7072 12.3183 -16.6421)" fill="#010101" width="4.7" height="2"/>
			</g>
		</g>
	</g>
	<path fill="#010101" d="M12.7,48C5.7,48,0,42.3,0,35.2c0-4.9,2.8-9.4,7.3-11.5V6.8c0-3,2.4-5.4,5.4-5.4c3,0,5.4,2.4,5.4,5.4v16.9
		c4.5,2.1,7.3,6.6,7.3,11.5C25.4,42.3,19.7,48,12.7,48z M12.7,3.4c-1.8,0-3.4,1.6-3.4,3.4V25l-0.6,0.3C4.6,26.9,2,30.8,2,35.2
		C2,41.2,6.8,46,12.7,46s10.7-4.8,10.7-10.8c0-4.4-2.6-8.3-6.7-10L16.1,25V6.8C16.1,4.9,14.6,3.4,12.7,3.4z"/>
</g>
</svg>
