<?xml version="1.0" encoding="utf-8"?>
<!-- Generator: Adobe Illustrator 18.0.0, SVG Export Plug-In . SVG Version: 6.00 Build 0)  -->
<!DOCTYPE svg PUBLIC "-//W3C//DTD SVG 1.1//EN" "http://www.w3.org/Graphics/SVG/1.1/DTD/svg11.dtd">
<svg version="1.1" id="Layer_1" xmlns="http://www.w3.org/2000/svg" xmlns:xlink="http://www.w3.org/1999/xlink" x="0px" y="0px"
	 viewBox="0 0 48 48" enable-background="new 0 0 48 48" xml:space="preserve">
<g>
	<path fill="#010101" d="M26.1,48.1c-0.7,0-1.4-0.2-2-0.7c-1.5-1.2-1.8-3.3-0.7-4.8c1.6-2.3,2.2-4.2,1.6-6c-1-3.5-5.3-5.9-6.2-6.3
		l-6.5,13.9c-0.5,1.2-1.8,2-3.1,2c-0.4,0-0.9,0-1.5-0.3c-0.8-0.3-1.5-1-1.8-1.8c-0.3-0.9-0.3-1.9,0.1-2.7l8.1-17.2L19.6,12
		c0.9-1.6,2.8-2.3,4.4-1.6l4,1.8c0.2,0.1,0.3,0.2,0.4,0.2c0,0,0,0,0,0c0.2,0.1,0.4,0.2,0.5,0.3c0.1,0.1,0.3,0.2,0.4,0.4l0.4,0.3v0.2
		c0,0.1,0.1,0.2,0.1,0.3l0,0.1c0.1,0.3,0.2,0.7,0.2,1.1c0.3,2.4,1.3,4.6,2,4.8c0.4,0,1.3-0.3,2.6-1.5c1.3-1.2,3.3-1,4.4,0.3
		c1.1,1.1,1.1,3.2-0.2,4.5c-2.4,2.1-4.6,3.1-6.7,3.1c-0.9,0-1.7-0.2-2.4-0.5c-1.2-0.4-2.2-1.2-3.1-2.3l-1.3,2.8
		c2.5,1.8,5.3,4.6,6.4,8.6c1.1,3.9,0.2,7.9-2.8,11.9C28.3,47.6,27.3,48.1,26.1,48.1z M19.4,28.3C21,29,25.8,31.8,27,36
		c0.7,2.4,0,5-2,7.7c-0.5,0.7-0.2,1.6,0.3,2c0.2,0.2,0.5,0.3,0.8,0.3c0.5,0,0.9-0.2,1.2-0.6c2.5-3.5,3.4-6.9,2.5-10.2
		c-1-3.7-4-6.4-6.3-7.9L22.7,27l3.6-7.8l0.9,1.8c0.9,1.6,1.8,2.6,3,3l0.1,0c0.4,0.2,0.9,0.3,1.6,0.3c1.6,0,3.4-0.9,5.3-2.6
		c0.5-0.5,0.5-1.2,0.1-1.6c-0.5-0.6-1.2-0.6-1.6-0.2c-1.8,1.7-3.5,2.4-4.7,1.9c-2.4-0.9-3.2-6.3-3.2-6.5l0-0.1c0-0.2,0-0.4-0.1-0.7
		l0-0.1c0,0,0,0,0,0l-0.2-0.2c-0.1-0.1-0.2-0.1-0.4-0.2c0,0-0.1-0.1-0.1-0.1l-4-1.8c-0.2-0.1-0.4-0.1-0.5-0.1c-0.5,0-1,0.3-1.3,0.8
		l-5.4,12L7.9,42.1c-0.2,0.4-0.2,0.8-0.1,1.1C8,43.6,8.2,43.8,8.6,44l0.2,0.1c0.1,0,0.3,0,0.4,0c0.6,0,1.1-0.3,1.3-0.8l7.4-15.8
		l0.9,0.5c0.1,0.1,0.3,0.2,0.5,0.3C19.4,28.2,19.4,28.3,19.4,28.3L19.4,28.3z"/>
	<path fill="#010101" d="M28.9,11c-3,0-5.5-2.5-5.5-5.5S25.9,0,28.9,0s5.5,2.5,5.5,5.5S31.9,11,28.9,11z M28.9,2
		c-1.9,0-3.5,1.6-3.5,3.5S27,9,28.9,9s3.5-1.6,3.5-3.5S30.8,2,28.9,2z"/>
	<path fill="#010101" d="M14.6,26.2c-0.1,0-2.9-0.6-4.2-3.2c-1.1-2.2-0.9-5,0.7-8.5c1.5-3.2,3.4-5,5.6-5.4c3.1-0.5,5.7,2.2,5.8,2.3
		L21,12.8c0,0-1.9-2-4-1.7c-1.5,0.2-2.9,1.7-4.1,4.2c-1.3,2.8-1.6,5.1-0.8,6.7c0.9,1.8,2.8,2.2,2.9,2.2L14.6,26.2z"/>
	
		<rect x="20.1" y="33.1" transform="matrix(0.8047 0.5937 -0.5937 0.8047 27.7127 -4.7334)" fill="#010101" width="2" height="13.3"/>
	
		<rect x="28.8" y="24.9" transform="matrix(0.8018 0.5977 -0.5977 0.8018 22.5623 -12.3186)" fill="#010101" width="2" height="5.9"/>
	<rect x="38" y="11.7" transform="matrix(0.8047 0.5937 -0.5937 0.8047 16.7815 -20.108)" fill="#010101" width="2" height="7.6"/>
</g>
</svg>
