<?xml version="1.0" encoding="utf-8"?>
<!-- Generator: Adobe Illustrator 16.0.0, SVG Export Plug-In . SVG Version: 6.00 Build 0)  -->
<!DOCTYPE svg PUBLIC "-//W3C//DTD SVG 1.1//EN" "http://www.w3.org/Graphics/SVG/1.1/DTD/svg11.dtd">
<svg version="1.1" id="Layer_1" xmlns="http://www.w3.org/2000/svg" xmlns:xlink="http://www.w3.org/1999/xlink" x="0px" y="0px"
	 width="48px" height="48px" viewBox="0 0 48 48" enable-background="new 0 0 48 48" xml:space="preserve">
<g>
	<path d="M21.33,33.875c-0.173,0-0.346-0.045-0.5-0.134l-3.285-1.898c-0.478-0.276-0.642-0.889-0.365-1.366
		c0.276-0.479,0.887-0.644,1.366-0.366l2.785,1.609l6.547-3.779v-7.557l-0.946-0.546c-0.479-0.275-0.644-0.887-0.367-1.366
		c0.275-0.478,0.886-0.643,1.365-0.367l1.447,0.834c0.311,0.178,0.501,0.509,0.501,0.866v8.712c0,0.357-0.19,0.688-0.5,0.866
		l-7.547,4.357C21.675,33.83,21.503,33.875,21.33,33.875z"/>
	<path d="M36.584,33.875c-0.173,0-0.346-0.045-0.5-0.134l-7.547-4.357c-0.31-0.179-0.5-0.509-0.5-0.866v-8.712
		c0-0.357,0.19-0.688,0.5-0.866l7.547-4.358c0.309-0.179,0.691-0.179,1,0l7.547,4.358c0.31,0.179,0.5,0.509,0.5,0.866l-0.002,8.712
		c0,0.357-0.19,0.688-0.5,0.866l-7.545,4.357C36.93,33.83,36.757,33.875,36.584,33.875z M30.037,27.94l6.547,3.78l6.545-3.78
		l0.002-7.558l-6.547-3.781l-6.547,3.781V27.94z"/>
	<path d="M28.877,46.689c-0.173,0-0.346-0.045-0.5-0.134l-7.547-4.357c-0.31-0.179-0.5-0.509-0.5-0.866v-8.713
		c0-0.357,0.19-0.688,0.5-0.866l7.547-4.357c0.309-0.178,0.691-0.178,1,0l7.547,4.357c0.31,0.179,0.5,0.509,0.5,0.866v8.713
		c0,0.357-0.19,0.688-0.5,0.866l-7.547,4.357C29.223,46.645,29.05,46.689,28.877,46.689z M22.33,40.755l6.547,3.78l6.547-3.78
		v-7.559l-6.547-3.78l-6.547,3.78V40.755z"/>
	<g>
		<path d="M24.706,11.654c-0.278,0-0.556-0.116-0.753-0.342c-0.363-0.416-0.32-1.048,0.096-1.411l11.055-9.654
			c0.417-0.363,1.049-0.321,1.411,0.096c0.363,0.416,0.321,1.048-0.095,1.411l-11.056,9.654
			C25.174,11.573,24.939,11.654,24.706,11.654z"/>
		<path d="M28.551,16.057c-0.278,0-0.556-0.116-0.753-0.342l-7.691-8.807c-0.363-0.416-0.32-1.048,0.096-1.411
			c0.416-0.362,1.048-0.32,1.411,0.096l7.69,8.807c0.363,0.416,0.321,1.048-0.095,1.411C29.019,15.976,28.784,16.057,28.551,16.057z
			"/>
		<path d="M25.666,21.328c-0.278,0-0.556-0.116-0.753-0.342L14.496,9.056c-0.363-0.416-0.32-1.048,0.096-1.411
			c0.416-0.363,1.049-0.32,1.411,0.096l10.417,11.93c0.363,0.416,0.321,1.048-0.095,1.411
			C26.134,21.247,25.899,21.328,25.666,21.328z"/>
		<path d="M22.784,26.6c-0.279,0-0.556-0.116-0.754-0.342L8.884,11.205c-0.363-0.416-0.32-1.048,0.096-1.411
			c0.417-0.362,1.049-0.32,1.411,0.096l13.146,15.052c0.363,0.416,0.32,1.048-0.096,1.411C23.251,26.519,23.017,26.6,22.784,26.6z"
			/>
		<path d="M17.554,29.184c-0.279,0-0.556-0.116-0.754-0.342L5.619,16.039c-0.363-0.416-0.32-1.048,0.096-1.411
			c0.417-0.362,1.048-0.32,1.411,0.096l11.181,12.802c0.363,0.416,0.32,1.048-0.096,1.411
			C18.021,29.103,17.787,29.184,17.554,29.184z"/>
		<path d="M11.562,30.895c-0.279,0-0.556-0.116-0.754-0.342l-7.691-8.807c-0.363-0.416-0.32-1.048,0.096-1.411
			c0.416-0.362,1.048-0.32,1.411,0.096l7.691,8.806c0.363,0.416,0.32,1.048-0.096,1.411C12.029,30.813,11.795,30.895,11.562,30.895z
			"/>
	</g>
	<path d="M11.5,48c-0.002,0-0.003,0-0.005,0c-2.874-0.003-4.823-0.939-5.792-2.782c-1.212-2.303-0.311-4.73,0.485-6.872
		c0.833-2.241,1.551-4.177,0.257-5.896c-0.332-0.441-0.244-1.068,0.197-1.4c0.443-0.332,1.069-0.242,1.4,0.197
		c1.953,2.594,0.926,5.357,0.021,7.796c-0.713,1.919-1.386,3.731-0.59,5.244c0.605,1.151,1.922,1.712,4.024,1.714
		c0.001,0,0.002,0,0.003,0c1.888,0,3.079-1.629,3.526-3.023c0.303-0.946,0.073-1.96-0.193-3.133
		c-0.148-0.652-0.301-1.327-0.371-2.043c-0.155-1.566-0.166-3.436,0.922-5.412c0.266-0.484,0.874-0.66,1.358-0.394
		s0.661,0.874,0.394,1.358c-0.822,1.493-0.814,2.926-0.684,4.251c0.058,0.592,0.191,1.178,0.331,1.797
		c0.303,1.337,0.617,2.719,0.147,4.185C16.072,46.268,13.94,48,11.5,48z"/>
</g>
</svg>
