<?xml version="1.0" encoding="utf-8"?>
<!-- Generator: Adobe Illustrator 16.0.0, SVG Export Plug-In . SVG Version: 6.00 Build 0)  -->
<!DOCTYPE svg PUBLIC "-//W3C//DTD SVG 1.1//EN" "http://www.w3.org/Graphics/SVG/1.1/DTD/svg11.dtd">
<svg version="1.1" id="Layer_1" xmlns="http://www.w3.org/2000/svg" xmlns:xlink="http://www.w3.org/1999/xlink" x="0px" y="0px"
	 width="48px" height="48px" viewBox="0 0 48 48" enable-background="new 0 0 48 48" xml:space="preserve">
<g>
	<path d="M17.107,44.02c-1.198,0-2.452-0.167-3.963-0.392l-1.075-0.157c-5.72-0.818-9.326-2.641-10.716-5.417
		c-0.376-0.751-1.354-3.389-1.352-6.525c0.001-3.869,1.526-7.032,4.41-9.146c1.332-0.976,3.01-2.347,4.954-3.935
		C16.85,12.333,27.102,3.96,34.469,3.96c0.553,0,1,0.448,1,1s-0.447,1-1,1c-6.654,0-16.996,8.447-23.839,14.036
		c-1.965,1.605-3.663,2.992-5.037,4c-2.382,1.747-3.591,4.282-3.592,7.534c0,0.927,0.099,1.807,0.241,2.586
		c0.301-0.022,0.617,0.114,0.824,0.374c0.766,0.957,2.427,1.986,3.141,2.382c2.503,0.542,5.535,0.526,6.69-1.124
		c1.334-1.907,1.857-5.212,1.862-5.245c0.038-0.246,0.166-0.469,0.359-0.625c0.741-0.6,18.194-14.724,22.541-16.802l0.701-0.336
		c3.32-1.594,5.324-2.555,6.921-1.947c0.66,0.252,1.166,0.756,1.505,1.501c0.359,0.497,1.469,2.295,1.163,5.209
		c-0.498,4.751-4.327,9.926-11.383,15.382C24.871,41.928,21.342,44.02,17.107,44.02z M3.232,37.329
		c1.147,2.035,4.293,3.472,9.12,4.161l1.085,0.159c6.196,0.92,7.149,1.063,21.906-10.348c8.228-6.364,10.314-11.13,10.616-14.009
		c0.263-2.507-0.795-3.833-0.806-3.845c-0.066-0.079-0.121-0.167-0.16-0.263c-0.18-0.431-0.358-0.499-0.426-0.524
		c-0.801-0.309-2.903,0.709-5.342,1.881l-0.704,0.338c-3.844,1.837-19.52,14.434-21.854,16.318c-0.195,1.024-0.819,3.82-2.132,5.696
		c-2.135,3.052-6.938,2.343-8.904,1.898c-0.086-0.02-0.17-0.051-0.248-0.093C5.316,38.663,4.292,38.115,3.232,37.329z"/>
	<path d="M6.046,34.848c-0.003,0-0.007,0-0.011,0c-0.552-0.006-0.995-0.459-0.989-1.012c0.01-0.868,0.712-1.571,1.598-1.601
		c0.219-0.007,0.262-0.027,0.301-0.065c0.536-0.528,0.536-2.646,0.536-3.342l-0.001-0.189c-0.005-0.909-0.013-2.284,1.529-3.299
		c0.733-0.484,1.542-0.652,2.255-0.801c0.27-0.059,0.494-0.105,0.704-0.167c1.683-0.5,2.923-1.125,3.495-2.545
		c0.902-2.234,2.037-3.71,4.901-4.167c1.41-0.226,1.939-0.721,2.83-2.646c1.111-2.405,3.568-2.963,5.362-3.371l0.212-0.05
		c0.992-0.228,1.463-0.533,1.573-0.663c0.111-0.131,0.228-0.417,0.34-0.695c0.256-0.637,0.608-1.511,1.491-2.16
		c1.579-1.158,3.641-1.114,5.291-1.078c0.266,0.007,0.518,0.013,0.758,0.013c0.553,0,1,0.448,1,1s-0.447,1-1,1
		c-0.256,0-0.525-0.006-0.805-0.013c-1.42-0.03-3.029-0.065-4.062,0.691c-0.423,0.311-0.615,0.79-0.819,1.296
		c-0.172,0.426-0.35,0.865-0.672,1.244c-0.621,0.728-1.779,1.116-2.642,1.313l-0.214,0.051c-1.552,0.353-3.3,0.75-3.999,2.262
		c-1.023,2.212-1.974,3.404-4.33,3.781c-1.989,0.318-2.644,1.164-3.362,2.94c-0.924,2.296-2.937,3.167-4.785,3.716
		c-0.259,0.075-0.53,0.135-0.806,0.193c-0.645,0.135-1.203,0.252-1.618,0.525c-0.612,0.402-0.634,0.765-0.629,1.618l0.001,0.195
		c0,1.771-0.087,3.742-1.128,4.768c-0.372,0.37-0.836,0.584-1.379,0.633C6.824,34.59,6.464,34.848,6.046,34.848z"/>
</g>
</svg>
