<?xml version="1.0" encoding="utf-8"?>
<!-- Generator: Adobe Illustrator 18.0.0, SVG Export Plug-In . SVG Version: 6.00 Build 0)  -->
<!DOCTYPE svg PUBLIC "-//W3C//DTD SVG 1.1//EN" "http://www.w3.org/Graphics/SVG/1.1/DTD/svg11.dtd">
<svg version="1.1" id="Layer_1" xmlns="http://www.w3.org/2000/svg" xmlns:xlink="http://www.w3.org/1999/xlink" x="0px" y="0px"
	 viewBox="0 0 48 48" enable-background="new 0 0 48 48" xml:space="preserve">
<g>
	
		<rect x="-4.2" y="10.8" transform="matrix(0.6247 0.7809 -0.7809 0.6247 12.7781 -3.0866)" fill="#010101" width="27.5" height="2"/>
	<path fill="#010101" d="M16.1,42.8c-0.7,0-1-0.3-1.2-0.5c-0.2-0.2-0.4-0.7-0.3-1.4c0.4-2,0.4-3.4-0.2-7c-0.6-3.4-0.3-7.1,0.7-9.6
		c0.8-2.1,3.1-4.3,6.4-4.3c1.9,0,4,0.7,6.1,2.2c4.7,3.3,7.4,3.5,7.5,3.5c0.4,0,0.7,0.3,0.9,0.6c0.1,0.4,0.1,0.8-0.2,1.1l-3.5,3.7
		c-0.3,0.3-0.7,0.4-1.1,0.2l-2.8-1.2c0.7,0.8,1.2,1.7,1.3,2.4c0.1,0.6-0.1,1.2-0.4,1.6c-1.6,2.1-5.8,4.3-5.9,4.4
		c-0.5,0.2-1,0.1-1.3-0.4L21,36.7l0.4,2.9c0.1,0.4-0.1,0.8-0.4,1C20.3,41.1,17.6,42.8,16.1,42.8z M16.1,40.8l0,1L16.1,40.8
		C16.1,40.8,16.1,40.8,16.1,40.8z M21.4,22.1c-2.6,0-4.1,1.9-4.5,3c-0.7,1.7-1.2,4.9-0.5,8.6c0.5,3.3,0.6,4.9,0.3,7.1
		c0.7-0.2,1.8-0.8,2.7-1.4l-1.1-7.3c-0.1-0.5,0.2-0.9,0.6-1.1c0.4-0.2,0.9,0,1.2,0.4l3,5c1.4-0.8,3.5-2.2,4.4-3.4
		c0.2-0.7-2-3.2-5.2-5.4c-0.4-0.3-0.5-0.9-0.3-1.3c0.3-0.4,0.8-0.6,1.3-0.4l7.9,3.4l1.8-1.9c-1.5-0.5-3.7-1.4-6.6-3.5
		C24.6,22.7,23,22.1,21.4,22.1z"/>
	<ellipse fill="#010101" cx="38.9" cy="35.3" rx="2.3" ry="1.4"/>
	<ellipse fill="#010101" cx="41.6" cy="27.4" rx="2" ry="1.6"/>
	<ellipse fill="#010101" cx="31.3" cy="39.9" rx="1.7" ry="1.2"/>
	<ellipse fill="#010101" cx="38.1" cy="42.5" rx="1.5" ry="1.4"/>
	<ellipse fill="#010101" cx="45.9" cy="40.6" rx="1.1" ry="1.9"/>
	<ellipse fill="#010101" cx="29.7" cy="45.8" rx="3.9" ry="1.2"/>
</g>
</svg>
