<?xml version="1.0" encoding="utf-8"?>
<!-- Generator: Adobe Illustrator 16.0.0, SVG Export Plug-In . SVG Version: 6.00 Build 0)  -->
<!DOCTYPE svg PUBLIC "-//W3C//DTD SVG 1.1//EN" "http://www.w3.org/Graphics/SVG/1.1/DTD/svg11.dtd">
<svg version="1.1" id="Layer_1" xmlns="http://www.w3.org/2000/svg" xmlns:xlink="http://www.w3.org/1999/xlink" x="0px" y="0px"
	 width="48px" height="48px" viewBox="0 0 48 48" enable-background="new 0 0 48 48" xml:space="preserve">
<g>
	<path d="M47,48H7.498c-2.75,0-4.795-0.8-6.078-2.377c-1.953-2.403-1.3-5.666-1.271-5.804c0.113-0.541,0.644-0.888,1.183-0.774
		c0.54,0.112,0.886,0.641,0.775,1.18C2.1,40.264,1.629,42.722,2.98,44.371C3.866,45.452,5.385,46,7.498,46H47c0.553,0,1,0.447,1,1
		S47.553,48,47,48z"/>
	<path d="M33.237,41.581c-0.496,0-0.922-0.367-0.99-0.865l-0.671-4.945c-2.602,1.31-8.717,4.057-14.865,4.421
		c-2.319,0.138-4.692,0.208-7.054,0.208c-4.028,0-6.593-0.2-6.7-0.209c-0.187-0.015-0.365-0.082-0.516-0.193
		c-0.111-0.082-2.717-2.044-2.417-4.734c0.222-1.986,1.933-3.697,5.084-5.084c1.789-0.787,3.464-1.451,5.084-2.093
		c5.753-2.28,9.91-3.928,11.055-8.017c1.539-5.496-0.729-17.702-0.752-17.824c-0.094-0.502,0.205-0.995,0.694-1.143
		C21.341,1.058,24.897,0,29.147,0c6.089,0,10.464,2.189,12.65,6.332c0.139,0.262,0.153,0.573,0.041,0.847
		c-0.966,2.353-2.991,9.021-0.787,11.577c3.55,4.116,4.282,9.048,2.303,15.522c-1.088,3.561-1.26,4.83-1.279,5.232
		c0.045,0.073,0.081,0.152,0.105,0.237c0.13,0.453-0.049,0.935-0.465,1.157c-0.152,0.081-0.349,0.129-0.523,0.124l-7.885,0.55
		C33.284,41.58,33.261,41.581,33.237,41.581z M32.374,33.218c0.151,0,0.303,0.034,0.443,0.104c0.298,0.147,0.503,0.433,0.548,0.762
		l0.738,5.436l6-0.418c0.101-0.914,0.451-2.503,1.339-5.406c1.759-5.755,1.153-10.086-1.904-13.632
		c-3.087-3.579-0.525-11.107,0.271-13.19C37.901,3.639,34.317,2,29.147,2c-2.773,0-5.267,0.495-6.522,0.794
		c0.515,3.041,1.971,12.738,0.549,17.814c-1.413,5.044-6.193,6.938-12.244,9.337c-1.604,0.636-3.262,1.292-5.016,2.063
		c-2.413,1.063-3.762,2.262-3.901,3.47c-0.13,1.126,0.833,2.232,1.409,2.739c0.794,0.053,3.075,0.182,6.234,0.182
		c2.322,0,4.656-0.069,6.936-0.204c7.479-0.444,15.209-4.803,15.286-4.847C32.032,33.262,32.203,33.218,32.374,33.218z"/>
	<path d="M30.886,11.851c-0.032,0-0.065-0.001-0.098-0.005l-5.939-0.579c-0.55-0.053-0.952-0.542-0.898-1.092
		c0.053-0.549,0.55-0.955,1.092-0.898l5.939,0.579c0.55,0.053,0.952,0.542,0.898,1.092C31.83,11.465,31.395,11.851,30.886,11.851z"
		/>
	<path d="M30.146,19.022c-0.079,0-0.158-0.009-0.238-0.029l-5.199-1.271c-0.537-0.131-0.865-0.672-0.734-1.208
		c0.13-0.538,0.671-0.865,1.208-0.734l5.199,1.271c0.537,0.131,0.865,0.672,0.734,1.208C31.004,18.716,30.596,19.022,30.146,19.022z
		"/>
	<path d="M26.554,26.658c-0.172,0-0.346-0.044-0.504-0.137l-4.344-2.544c-0.477-0.279-0.637-0.892-0.357-1.368
		c0.279-0.477,0.892-0.636,1.368-0.357l4.343,2.543c0.478,0.279,0.637,0.892,0.358,1.368C27.231,26.481,26.897,26.658,26.554,26.658
		z"/>
	<path d="M20.242,31.518c-0.309,0-0.614-0.143-0.81-0.411l-2.104-2.891c-0.325-0.447-0.227-1.072,0.22-1.397
		c0.447-0.324,1.072-0.226,1.397,0.22l2.104,2.891c0.325,0.447,0.227,1.072-0.22,1.397C20.652,31.455,20.446,31.518,20.242,31.518z"
		/>
	<path d="M12.318,33.716c-0.552,0-1-0.447-1-1v-2.776c0-0.553,0.448-1,1-1s1,0.447,1,1v2.776
		C13.318,33.269,12.87,33.716,12.318,33.716z"/>
	<path d="M14.424,48c-0.552,0-1-0.447-1-1v-6.42c0-0.553,0.448-1,1-1s1,0.447,1,1V47C15.424,47.553,14.976,48,14.424,48z"/>
	<path d="M37.693,47.6c-0.553,0-1-0.447-1-1v-5.555c0-0.553,0.447-1,1-1s1,0.447,1,1V46.6C38.693,47.152,38.246,47.6,37.693,47.6z"
		/>
</g>
</svg>
