<?xml version="1.0" encoding="utf-8"?>
<!-- Generator: Adobe Illustrator 16.0.0, SVG Export Plug-In . SVG Version: 6.00 Build 0)  -->
<!DOCTYPE svg PUBLIC "-//W3C//DTD SVG 1.1//EN" "http://www.w3.org/Graphics/SVG/1.1/DTD/svg11.dtd">
<svg version="1.1" id="Layer_1" xmlns="http://www.w3.org/2000/svg" xmlns:xlink="http://www.w3.org/1999/xlink" x="0px" y="0px"
	 width="48px" height="48px" viewBox="0 0 48 48" enable-background="new 0 0 48 48" xml:space="preserve">
<g>
	<path d="M24,48c-0.434,0-0.819-0.28-0.952-0.693l-8.143-25.291c-0.169-0.526,0.12-1.089,0.645-1.258
		c0.528-0.173,1.089,0.119,1.258,0.645L24,43.737l7.794-24.213c0.17-0.525,0.729-0.815,1.259-0.645
		c0.525,0.169,0.814,0.732,0.646,1.258l-8.746,27.169C24.818,47.72,24.434,48,24,48z"/>
	<path d="M15.591,22.434c-3.355,0-6.085-2.73-6.085-6.086c0-2.007,0.964-3.833,2.568-4.962c-0.243-0.647-0.369-1.334-0.369-2.025
		c0-3.191,2.597-5.787,5.788-5.787c0.748,0,1.478,0.142,2.16,0.417C20.817,1.593,23.284,0,26.01,0c3.326,0,6.177,2.327,6.891,5.515
		c3.279,1.035,5.594,4.135,5.593,7.618c0,4.404-3.584,7.988-7.988,7.988c-1.211,0-2.404-0.278-3.492-0.81
		c-1.318,1.138-2.972,1.756-4.733,1.756c-1.107,0-2.198-0.255-3.192-0.744C18.066,22.043,16.849,22.434,15.591,22.434z
		 M17.493,5.574c-2.089,0-3.788,1.699-3.788,3.787c0,0.668,0.181,1.33,0.524,1.915c0.141,0.24,0.175,0.528,0.095,0.795
		c-0.081,0.267-0.269,0.488-0.519,0.61c-1.418,0.691-2.299,2.097-2.299,3.668c0,2.253,1.833,4.086,4.085,4.086
		c1.005,0,1.974-0.374,2.727-1.051c0.332-0.298,0.818-0.34,1.195-0.107c0.836,0.518,1.793,0.792,2.767,0.792
		c1.466,0,2.832-0.593,3.843-1.67c0.325-0.345,0.851-0.415,1.253-0.167c0.946,0.583,2.028,0.891,3.129,0.891
		c3.302,0,5.988-2.687,5.988-5.988c0.001-2.782-1.97-5.238-4.685-5.842c-0.413-0.092-0.724-0.433-0.775-0.853
		C30.72,3.908,28.56,2,26.01,2c-2.248,0-4.249,1.511-4.867,3.674c-0.088,0.309-0.319,0.556-0.621,0.666
		c-0.3,0.111-0.638,0.067-0.903-0.113C18.99,5.8,18.255,5.574,17.493,5.574z"/>
	<path d="M29.536,27.703c-10.774,0-13.919-5.551-14.049-5.79c-0.264-0.485-0.084-1.092,0.4-1.356
		c0.484-0.263,1.088-0.085,1.353,0.395c0.123,0.216,2.856,4.879,12.688,4.749c0.537-0.054,1.006,0.436,1.013,0.987
		s-0.435,1.005-0.987,1.013C29.814,27.702,29.675,27.703,29.536,27.703z"/>
	<path d="M28.036,33.822c-0.018,0-0.036,0-0.054-0.001c-3.832-0.203-7.038-1.149-9.53-2.813c-0.459-0.308-0.583-0.928-0.276-1.388
		c0.307-0.459,0.927-0.581,1.387-0.276c2.158,1.442,5.105,2.3,8.524,2.479c0.552,0.029,0.975,0.5,0.946,1.052
		C29.006,33.408,28.564,33.822,28.036,33.822z"/>
	<path d="M26.538,40.125c-0.022,0-0.046-0.001-0.069-0.002c-2.264-0.155-4.253-0.663-5.912-1.51
		c-0.492-0.251-0.687-0.854-0.436-1.346c0.251-0.491,0.853-0.686,1.346-0.436c1.416,0.724,3.144,1.159,5.138,1.295
		c0.551,0.038,0.967,0.515,0.93,1.066C27.499,39.721,27.06,40.125,26.538,40.125z"/>
</g>
</svg>
