<?xml version="1.0" encoding="utf-8"?>
<!-- Generator: Adobe Illustrator 16.0.0, SVG Export Plug-In . SVG Version: 6.00 Build 0)  -->
<!DOCTYPE svg PUBLIC "-//W3C//DTD SVG 1.1//EN" "http://www.w3.org/Graphics/SVG/1.1/DTD/svg11.dtd">
<svg version="1.1" id="Layer_1" xmlns="http://www.w3.org/2000/svg" xmlns:xlink="http://www.w3.org/1999/xlink" x="0px" y="0px"
	 width="48px" height="48px" viewBox="0 0 48 48" enable-background="new 0 0 48 48" xml:space="preserve">
<g>
	<path d="M24,37.486c-9.003,0-16.328-7.325-16.328-16.329c0-0.552,0.448-1,1-1h30.656c0.553,0,1,0.448,1,1
		C40.328,30.161,33.003,37.486,24,37.486z M9.707,22.157C10.221,29.594,16.436,35.486,24,35.486s13.778-5.893,14.294-13.329H9.707z"
		/>
	<path d="M24,48c-0.552,0-1-0.447-1-1V36.486c0-0.553,0.448-1,1-1c0.553,0,1,0.447,1,1V47C25,47.553,24.553,48,24,48z"/>
	<path d="M28.729,48h-9.458c-0.552,0-1-0.447-1-1s0.448-1,1-1h9.458c0.553,0,1,0.447,1,1S29.281,48,28.729,48z"/>
	<g>
		<path d="M9.174,22.161c-0.406,0-0.788-0.25-0.938-0.653c-0.375-1.011-0.564-2.072-0.564-3.155c0-4.999,4.066-9.065,9.065-9.065
			s9.065,4.066,9.065,9.065c0,1.083-0.189,2.143-0.563,3.152c-0.191,0.518-0.767,0.782-1.285,0.591
			c-0.518-0.192-0.782-0.767-0.591-1.285c0.292-0.787,0.439-1.613,0.439-2.458c0-3.896-3.169-7.065-7.065-7.065
			s-7.065,3.169-7.065,7.065c0,0.845,0.148,1.673,0.439,2.461c0.192,0.518-0.072,1.093-0.59,1.285
			C9.407,22.14,9.289,22.161,9.174,22.161z"/>
		<path d="M37.229,22.158c-0.233,0-0.468-0.081-0.657-0.246c-0.416-0.363-0.46-0.995-0.097-1.411
			c1.195-1.371,1.854-3.129,1.854-4.95c0-4.156-3.381-7.537-7.537-7.537c-3.271,0-6.15,2.086-7.165,5.192
			c-0.171,0.525-0.734,0.813-1.261,0.64c-0.525-0.171-0.812-0.736-0.64-1.261c1.284-3.931,4.927-6.571,9.066-6.571
			c5.259,0,9.537,4.278,9.537,9.537c0,2.305-0.833,4.529-2.346,6.265C37.784,22.042,37.507,22.158,37.229,22.158z"/>
		<path d="M15.245,11.428c-0.479,0-0.902-0.345-0.985-0.833c-0.086-0.506-0.129-1.021-0.129-1.529C14.131,4.067,18.198,0,23.197,0
			c4.025,0,7.61,2.7,8.716,6.565c0.152,0.531-0.154,1.084-0.686,1.237c-0.525,0.151-1.085-0.154-1.236-0.686
			C29.128,4.104,26.334,2,23.197,2c-3.896,0-7.066,3.17-7.066,7.066c0,0.397,0.034,0.799,0.101,1.195
			c0.092,0.544-0.274,1.061-0.819,1.153C15.357,11.424,15.3,11.428,15.245,11.428z"/>
	</g>
</g>
</svg>
