<?xml version="1.0" encoding="utf-8"?>
<!-- Generator: Adobe Illustrator 18.0.0, SVG Export Plug-In . SVG Version: 6.00 Build 0)  -->
<!DOCTYPE svg PUBLIC "-//W3C//DTD SVG 1.1//EN" "http://www.w3.org/Graphics/SVG/1.1/DTD/svg11.dtd">
<svg version="1.1" id="Layer_1" xmlns="http://www.w3.org/2000/svg" xmlns:xlink="http://www.w3.org/1999/xlink" x="0px" y="0px"
	 viewBox="0 0 48 48" enable-background="new 0 0 48 48" xml:space="preserve">
<g>
	<path d="M36.6,48H11.4C9,48,7,46,7,43.5v-39C7,2,9,0,11.4,0h25.1C39,0,41,2,41,4.5v39C41,46,39,48,36.6,48z M11.4,2
		C10.1,2,9,3.1,9,4.5v39c0,1.4,1.1,2.5,2.4,2.5h25.2c1.3,0,2.4-1.1,2.4-2.5v-39C39,3.1,37.9,2,36.5,2H11.4z"/>
	<path d="M36.5,39H11.6V4.7h24.9V39z M13.6,37h20.9V6.7H13.6V37z"/>
	<rect x="20.7" y="41.5" width="6.6" height="2"/>
</g>
</svg>
