<?xml version="1.0" encoding="utf-8"?>
<!-- Generator: Adobe Illustrator 16.0.0, SVG Export Plug-In . SVG Version: 6.00 Build 0)  -->
<!DOCTYPE svg PUBLIC "-//W3C//DTD SVG 1.1//EN" "http://www.w3.org/Graphics/SVG/1.1/DTD/svg11.dtd">
<svg version="1.1" id="Layer_1" xmlns="http://www.w3.org/2000/svg" xmlns:xlink="http://www.w3.org/1999/xlink" x="0px" y="0px"
	 width="48px" height="48px" viewBox="0 0 48 48" enable-background="new 0 0 48 48" xml:space="preserve">
<g>
	<g>
		<path d="M22.756,21.636L22.756,21.636c-2.643,0-4.793-2.444-4.793-5.448V5.45c0-3.004,2.15-5.448,4.794-5.448L39.764,0
			c0.265,0,0.52,0.105,0.707,0.293S40.764,0.735,40.764,1v19.635c0,0.552-0.447,1-1,1L22.756,21.636z M38.764,2L22.757,2.002
			c-1.541,0-2.794,1.547-2.794,3.448v10.738c0,1.901,1.253,3.448,2.793,3.448l16.008-0.001V2z"/>
		<path d="M47,17.201h-7.236c-0.553,0-1-0.448-1-1V5.434c0-0.552,0.447-1,1-1H47c0.553,0,1,0.448,1,1v10.767
			C48,16.753,47.553,17.201,47,17.201z M40.764,15.201H46V6.434h-5.236V15.201z"/>
	</g>
	<path d="M28.225,29.909H9.841C4.415,29.909,0,25.402,0,19.863C0,14.324,4.415,9.818,9.841,9.818h9.122c0.552,0,1,0.448,1,1
		s-0.448,1-1,1H9.841C5.518,11.818,2,15.427,2,19.863c0,4.437,3.518,8.046,7.841,8.046h18.384c0.553,0,1,0.447,1,1
		S28.777,29.909,28.225,29.909z"/>
	<path d="M29.949,48H11.567c-0.552,0-1-0.447-1-1s0.448-1,1-1h18.382c4.323,0,7.841-3.608,7.841-8.044
		c0-4.438-3.518-8.047-7.841-8.047h-9.122c-0.552,0-1-0.447-1-1s0.448-1,1-1h9.122c5.426,0,9.841,4.507,9.841,10.047
		C39.79,43.494,35.375,48,29.949,48z"/>
</g>
</svg>
