<?xml version="1.0" encoding="utf-8"?>
<!-- Generator: Adobe Illustrator 18.0.0, SVG Export Plug-In . SVG Version: 6.00 Build 0)  -->
<!DOCTYPE svg PUBLIC "-//W3C//DTD SVG 1.1//EN" "http://www.w3.org/Graphics/SVG/1.1/DTD/svg11.dtd">
<svg version="1.1" id="Layer_1" xmlns="http://www.w3.org/2000/svg" xmlns:xlink="http://www.w3.org/1999/xlink" x="0px" y="0px"
	 viewBox="0 0 48 48" enable-background="new 0 0 48 48" xml:space="preserve">
<g>
	<path d="M43.1,48H26c-2.7,0-4.9-2.2-4.9-4.9V4.9C21.1,2.2,23.3,0,26,0h17.1C45.8,0,48,2.2,48,4.9v38.2C48,45.8,45.8,48,43.1,48z
		 M26,2c-1.6,0-2.9,1.3-2.9,2.9v38.2c0,1.6,1.3,2.9,2.9,2.9h17.1c1.7,0,2.9-1.2,2.9-2.9V4.9C46,3.2,44.8,2,43.1,2H26z"/>
	<rect x="22.7" y="24.3" width="23.7" height="2"/>
	<path d="M34.6,42.7c-3.8,0-6.9-3.2-6.9-7.1s3.1-7.1,6.9-7.1s6.9,3.2,6.9,7.1S38.4,42.7,34.6,42.7z M34.6,30.5
		c-2.7,0-4.9,2.3-4.9,5.1c0,2.8,2.2,5.1,4.9,5.1c2.7,0,4.9-2.3,4.9-5.1C39.5,32.8,37.3,30.5,34.6,30.5z"/>
	<rect x="41.9" y="4.9" width="2" height="17.3"/>
	<rect x="36.3" y="18.5" width="2" height="3.7"/>
	<rect x="30.8" y="14.2" width="2" height="8"/>
	<rect x="25.3" y="9.2" width="2" height="13"/>
	<path d="M19.8,35.2c-0.6,0-1.3-0.1-1.9-0.3c-1.7-0.5-3-1.7-3.7-3.2c-0.9-2-0.7-4.2-0.5-6.1l0.1-0.8c0.2-2.1,0.3-4.1,0.3-6.1
		c0-3.3-0.5-5.6-1.5-7.4c-1-1.8-3.3-3.5-5.5-3L6.6,6.3c3.2-0.7,6.3,1.5,7.7,4c1.2,2.1,1.7,4.8,1.7,8.4c0,2.1-0.1,4.1-0.3,6.3
		l-0.1,0.8c-0.2,1.8-0.4,3.6,0.3,5.1c0.5,1,1.4,1.8,2.5,2.1c1.1,0.4,2.3,0.3,3.2-0.3l1,1.7C21.8,35,20.8,35.2,19.8,35.2z"/>
	<path d="M19.9,27.8c-0.3,0-0.7,0-1-0.1c-1.6-0.4-2.6-1.9-3.2-3c-0.4-0.7-0.8-1.5-1.2-2.2c-0.4-0.7-0.7-1.5-1.1-2.2
		c-0.7-1.1-1.7-2.4-2.9-2.8c-1.1-0.4-2.5-0.3-3.3,0.7c-0.6,0.9-0.6,2-0.5,3.4c0,0.7,0.1,1.5,0,2.2l-2-0.2c0.1-0.6,0-1.3,0-1.9
		c-0.1-1.5-0.1-3.2,0.9-4.7c1.3-1.9,3.7-2.1,5.5-1.5c1.9,0.6,3.1,2.3,4,3.7c0.4,0.8,0.8,1.5,1.2,2.3c0.4,0.7,0.7,1.5,1.1,2.2
		c0.7,1.2,1.3,1.9,2,2c0.7,0.2,1.5-0.1,1.9-0.7l1.6,1.1C22.3,27.2,21.1,27.8,19.9,27.8z"/>
	<path d="M5.4,31.1c-2,0-3.6-2-3.6-4.4c0-2.4,1.6-4.4,3.6-4.4s3.6,2,3.6,4.4C9,29.1,7.4,31.1,5.4,31.1z M5.4,24.3
		c-0.9,0-1.6,1.1-1.6,2.4s0.7,2.4,1.6,2.4S7,28,7,26.7S6.3,24.3,5.4,24.3z"/>
	<path d="M3.7,12.3c-1.5,0-2.8-0.8-3.4-2c-0.9-1.9,0.2-4.2,2.4-5.2c0.7-0.3,1.4-0.5,2.1-0.5c1.5,0,2.8,0.8,3.3,2
		c0.8,1.8-0.3,4.2-2.4,5.2C5.1,12.1,4.4,12.3,3.7,12.3z M4.8,6.6c-0.4,0-0.8,0.1-1.2,0.3C2.3,7.5,1.8,8.7,2.1,9.5
		c0.3,0.8,1.7,1,2.7,0.5c1.2-0.6,1.8-1.9,1.4-2.6C6.1,6.9,5.5,6.6,4.8,6.6z"/>
</g>
</svg>
