<?xml version="1.0" encoding="utf-8"?>
<!-- Generator: Adobe Illustrator 16.0.0, SVG Export Plug-In . SVG Version: 6.00 Build 0)  -->
<!DOCTYPE svg PUBLIC "-//W3C//DTD SVG 1.1//EN" "http://www.w3.org/Graphics/SVG/1.1/DTD/svg11.dtd">
<svg version="1.1" id="Layer_1" xmlns="http://www.w3.org/2000/svg" xmlns:xlink="http://www.w3.org/1999/xlink" x="0px" y="0px"
	 width="48px" height="48px" viewBox="0 0 48 48" enable-background="new 0 0 48 48" xml:space="preserve">
<g>
	<path d="M41.238,43.004H6.761C3.033,43.004,0,39.972,0,36.244V16.093c0-3.728,3.033-6.761,6.761-6.761h34.478
		c3.729,0,6.762,3.033,6.762,6.761v20.151C48,39.972,44.967,43.004,41.238,43.004z M6.761,11.332C4.136,11.332,2,13.468,2,16.093
		v20.151c0,2.625,2.136,4.76,4.761,4.76h34.478c2.626,0,4.762-2.135,4.762-4.76V16.093c0-2.625-2.136-4.761-4.762-4.761H6.761z"/>
	<path d="M15.328,6.996h-4.525c-0.552,0-1-0.448-1-1s0.448-1,1-1h4.525c0.552,0,1,0.448,1,1S15.88,6.996,15.328,6.996z"/>
	<path d="M26.264,6.996h-4.526c-0.552,0-1-0.448-1-1s0.448-1,1-1h4.526c0.553,0,1,0.448,1,1S26.816,6.996,26.264,6.996z"/>
	<path d="M34.746,37.725H7.787c-0.552,0-1-0.447-1-1V16.365c0-0.552,0.448-1,1-1h26.959c0.553,0,1,0.448,1,1v20.359
		C35.746,37.277,35.299,37.725,34.746,37.725z M8.787,35.725h24.959V17.365H8.787V35.725z"/>
	<path d="M17.976,31.886c-0.163,0-0.326-0.04-0.474-0.119c-0.324-0.175-0.526-0.513-0.526-0.881v-8.682
		c0-0.368,0.202-0.706,0.526-0.88c0.324-0.175,0.718-0.155,1.025,0.045l6.581,4.341c0.28,0.186,0.449,0.499,0.449,0.835
		s-0.169,0.649-0.449,0.835l-6.581,4.341C18.36,31.83,18.168,31.886,17.976,31.886z M18.976,24.062v4.967l3.765-2.483L18.976,24.062
		z"/>
</g>
</svg>
