<?xml version="1.0" encoding="utf-8"?>
<!-- Generator: Adobe Illustrator 16.0.0, SVG Export Plug-In . SVG Version: 6.00 Build 0)  -->
<!DOCTYPE svg PUBLIC "-//W3C//DTD SVG 1.1//EN" "http://www.w3.org/Graphics/SVG/1.1/DTD/svg11.dtd">
<svg version="1.1" id="Layer_1" xmlns="http://www.w3.org/2000/svg" xmlns:xlink="http://www.w3.org/1999/xlink" x="0px" y="0px"
	 width="48px" height="48px" viewBox="0 0 48 48" enable-background="new 0 0 48 48" xml:space="preserve">
<g>
	<g>
		<path d="M38.928,42.4c-0.253,0-0.506-0.096-0.701-0.286L8.371,12.792c-0.394-0.387-0.4-1.02-0.013-1.414
			c0.386-0.395,1.02-0.4,1.414-0.013l29.856,29.321c0.394,0.388,0.399,1.021,0.013,1.415C39.445,42.301,39.187,42.4,38.928,42.4z"/>
		<path d="M9.072,42.4c-0.259,0-0.518-0.1-0.713-0.299c-0.387-0.395-0.381-1.027,0.013-1.415l29.855-29.321
			c0.395-0.387,1.026-0.382,1.415,0.013c0.387,0.394,0.381,1.027-0.013,1.414L9.772,42.114C9.578,42.305,9.325,42.4,9.072,42.4z"/>
	</g>
	<path d="M43.348,13.079H4.654C2.088,13.079,0,11.401,0,9.339c0-2.062,2.088-3.74,4.654-3.74h38.694c2.565,0,4.652,1.678,4.652,3.74
		C48,11.401,45.913,13.079,43.348,13.079z M4.654,7.599C3.24,7.599,2,8.412,2,9.339c0,0.927,1.24,1.74,2.654,1.74h38.694
		c1.413,0,2.652-0.813,2.652-1.74c0-0.927-1.239-1.74-2.652-1.74H4.654z"/>
</g>
</svg>
