<?xml version="1.0" encoding="utf-8"?>
<!-- Generator: Adobe Illustrator 18.0.0, SVG Export Plug-In . SVG Version: 6.00 Build 0)  -->
<!DOCTYPE svg PUBLIC "-//W3C//DTD SVG 1.1//EN" "http://www.w3.org/Graphics/SVG/1.1/DTD/svg11.dtd">
<svg version="1.1" id="Layer_1" xmlns="http://www.w3.org/2000/svg" xmlns:xlink="http://www.w3.org/1999/xlink" x="0px" y="0px"
	 viewBox="0 0 48 48" enable-background="new 0 0 48 48" xml:space="preserve">
<g>
	<path fill="#010101" d="M24,48.2l-6.8-2.4l0.7-1.9l5.6,2c2.9-3.1,7.2-8,11.6-14.6C43.6,18.5,46.9,8.6,45.8,5.4
		c-0.2-0.6-0.5-0.8-0.7-0.8c-3.2-1.1-13.6,7.9-23.4,22.5l-0.9,1.4c-0.9,1.4-1.8,2.7-2.5,4.1l-1.7-1c0.8-1.4,1.6-2.7,2.6-4.2l0.9-1.4
		C28.5,13.3,40.3,0.9,45.7,2.7c0.7,0.2,1.5,0.8,2,2.1c1.5,4.4-2.9,15.5-11,27.6c-3.7,5.6-8,10.9-12.3,15.3L24,48.2z"/>
	<path fill="#010101" d="M16.7,48H2l-0.2-0.8C0.6,42,0,35.8,0,29.4C0,15.1,3.3,0,9.3,0c6,0,9.3,15.1,9.4,29.4c0,5.5-0.4,10.7-1.2,15
		c-0.2,1-0.4,1.9-0.6,2.8L16.7,48z M3.6,46h11.5c0.1-0.6,0.3-1.3,0.4-2c0.8-4.1,1.2-9.2,1.2-14.6C16.6,13.3,12.7,2,9.3,2
		C5.8,2,2,13.3,2,29.4C2,35.4,2.6,41.1,3.6,46z"/>
	
		<rect x="30.3" y="0.2" transform="matrix(0.8222 0.5693 -0.5693 0.8222 19.3996 -13.4963)" fill="#010101" width="2" height="48.2"/>
</g>
</svg>
