<?xml version="1.0" encoding="utf-8"?>
<!-- Generator: Adobe Illustrator 18.0.0, SVG Export Plug-In . SVG Version: 6.00 Build 0)  -->
<!DOCTYPE svg PUBLIC "-//W3C//DTD SVG 1.1//EN" "http://www.w3.org/Graphics/SVG/1.1/DTD/svg11.dtd">
<svg version="1.1" id="Layer_1" xmlns="http://www.w3.org/2000/svg" xmlns:xlink="http://www.w3.org/1999/xlink" x="0px" y="0px"
	 viewBox="0 0 48 48" enable-background="new 0 0 48 48" xml:space="preserve">
<g>
	<path fill="#010101" d="M43.4,35.3H1.5l4.9-6.8c0.6-2.2,6-20,28.7-20c2.2,0,4.5,0.2,6.9,0.5l0.6,0.1l0.2,0.5
		c0.6,1.5,6,14.5,5.1,19.5c-0.3,1.9-3.5,5.3-4.2,5.9L43.4,35.3z M5.5,33.3h37.1c1.4-1.5,3.2-3.7,3.3-4.6c0.7-3.5-3-13.6-4.7-17.8
		c-2.1-0.3-4.1-0.4-6.1-0.4c-22.5,0-26.7,18.4-26.8,18.6l0,0.2L5.5,33.3z"/>
	<rect x="1" y="37.5" fill="#010101" width="42" height="2"/>
	<path fill="#010101" d="M42.4,26.8H13.7l0.9-1.5C21.2,14.3,30,12.7,34.7,12.7c2.4,0,3.9,0.4,4,0.4l0.4,0.1l0.2,0.4
		c2.2,3.8,5.8,10.4,4.6,12.4C43.6,26.5,43,26.8,42.4,26.8z M42.4,24.8v1V24.8L42.4,24.8z M17.3,24.8h24.8c0-1.3-1.9-5.5-4.4-9.8
		c-0.5-0.1-1.6-0.3-3.1-0.3C30.7,14.7,23.2,16.1,17.3,24.8z"/>
	<rect x="25.9" y="21.4" fill="#010101" width="10.7" height="2"/>
</g>
</svg>
