<?xml version="1.0" encoding="utf-8"?>
<!-- Generator: Adobe Illustrator 16.0.0, SVG Export Plug-In . SVG Version: 6.00 Build 0)  -->
<!DOCTYPE svg PUBLIC "-//W3C//DTD SVG 1.1//EN" "http://www.w3.org/Graphics/SVG/1.1/DTD/svg11.dtd">
<svg version="1.1" id="Layer_1" xmlns="http://www.w3.org/2000/svg" xmlns:xlink="http://www.w3.org/1999/xlink" x="0px" y="0px"
	 width="48px" height="48px" viewBox="0 0 48 48" enable-background="new 0 0 48 48" xml:space="preserve">
<g>
	<path d="M42.088,48H3.68c-0.552,0-1-0.447-1-1V33.379l-2.573-5.096c-0.157-0.311-0.141-0.68,0.041-0.976
		C0.33,27.012,0.653,26.832,1,26.832h41.088c0.553,0,1,0.447,1,1V47C43.088,47.553,42.641,48,42.088,48z M4.68,46h36.408V28.832
		H2.625l1.948,3.857c0.071,0.141,0.107,0.295,0.107,0.451V46z"/>
	<path d="M47,45.494c-0.553,0-1-0.447-1-1V30.781c0-0.553,0.447-1,1-1s1,0.447,1,1v13.713C48,45.047,47.553,45.494,47,45.494z"/>
	<g>
		<path d="M36.796,28.832c-0.455,0-0.867-0.313-0.974-0.775L32.03,11.577C30.837,6.386,26.034,2,21.544,2s-9.292,4.386-10.486,9.578
			L7.266,28.057c-0.124,0.537-0.663,0.878-1.199,0.75c-0.539-0.124-0.875-0.661-0.75-1.199L9.108,11.13
			C10.52,4.993,16.099,0,21.544,0c5.446,0,11.024,4.992,12.436,11.129l3.792,16.479c0.124,0.538-0.212,1.075-0.75,1.199
			C36.945,28.824,36.87,28.832,36.796,28.832z"/>
		<path d="M28.421,28.832c-0.506,0-0.94-0.383-0.994-0.896l-1.71-16.479C25.118,5.684,22.846,2,21.544,2c-0.552,0-1-0.448-1-1
			s0.448-1,1-1c3.245,0,5.597,5.796,6.163,11.25l1.71,16.479c0.057,0.55-0.343,1.041-0.892,1.099
			C28.49,28.83,28.455,28.832,28.421,28.832z"/>
		<path d="M14.544,28.832c-0.034,0-0.069-0.002-0.104-0.005c-0.549-0.058-0.949-0.549-0.892-1.099l1.71-16.479
			C15.824,5.796,18.176,0,21.421,0c0.552,0,1,0.448,1,1s-0.448,1-1,1c-1.302,0-3.574,3.684-4.173,9.456l-1.71,16.479
			C15.484,28.449,15.05,28.832,14.544,28.832z"/>
	</g>
</g>
</svg>
