<?xml version="1.0" encoding="utf-8"?>
<!-- Generator: Adobe Illustrator 18.0.0, SVG Export Plug-In . SVG Version: 6.00 Build 0)  -->
<!DOCTYPE svg PUBLIC "-//W3C//DTD SVG 1.1//EN" "http://www.w3.org/Graphics/SVG/1.1/DTD/svg11.dtd">
<svg version="1.1" id="Layer_1" xmlns="http://www.w3.org/2000/svg" xmlns:xlink="http://www.w3.org/1999/xlink" x="0px" y="0px"
	 viewBox="0 0 48 48" enable-background="new 0 0 48 48" xml:space="preserve">
<g>
	<path fill="#010101" d="M24,8.8c-2.4,0-4.4-2-4.4-4.4S21.6,0,24,0c2.4,0,4.4,2,4.4,4.4S26.4,8.8,24,8.8z M24,2
		c-1.3,0-2.4,1.1-2.4,2.4s1.1,2.4,2.4,2.4s2.4-1.1,2.4-2.4S25.3,2,24,2z"/>
	<path fill="#010101" d="M29.4,23H18.5v-4.9l-4,3.9c-0.5,0.5-1,0.7-1.7,0.7c-0.7,0-1.2-0.2-1.7-0.7c-0.5-0.5-0.8-1.2-0.7-1.8
		c0-0.6,0.3-1.2,0.8-1.6l7.7-7.5c0.5-0.5,1-0.7,1.7-0.7h6.7c0.7,0,1.2,0.2,1.7,0.7l7.8,7.5c0.4,0.4,0.7,0.9,0.8,1.6
		c0,0.7-0.2,1.3-0.7,1.8c-0.5,0.5-1,0.7-1.7,0.7c-0.7,0-1.2-0.2-1.7-0.7l-4-3.9V23z M20.5,21h6.9v-7.7l7.4,7.1
		c0.1,0.1,0.1,0.1,0.3,0.1s0.2,0,0.3-0.1c0.1-0.1,0.2-0.2,0.2-0.3c0-0.1,0-0.1-0.1-0.2l-7.9-7.5c-0.1-0.1-0.1-0.1-0.3-0.1h-6.7
		c-0.2,0-0.2,0-0.3,0.1l-7.8,7.5c-0.1,0.1-0.1,0.2-0.1,0.2c0,0.1,0.1,0.2,0.2,0.3c0.1,0.1,0.1,0.1,0.3,0.1s0.2,0,0.3-0.1l7.4-7.1V21
		z"/>
	<path fill="#010101" d="M24,35.8c-3.9,0-7.3-1.7-8.8-4.5l-0.8-1.5h19.2l-0.8,1.5C31.2,34,27.8,35.8,24,35.8z M18.2,31.8
		c1.4,1.3,3.5,2,5.8,2c2.3,0,4.4-0.8,5.8-2H18.2z"/>
	<g>
		<rect x="10.1" y="25" fill="#010101" width="27.8" height="2"/>
		<g>
			<path fill="#010101" d="M8.7,28.9H0V23h8.6l4,2.7L8.7,28.9z M2,26.9h5.9l1.3-1L8,25H2V26.9z"/>
			<path fill="#010101" d="M48,28.9h-8.6l-4-2.7l3.9-3.2H48V28.9z M40,26.9h6V25h-5.9l-1.3,1L40,26.9z"/>
		</g>
	</g>
	<path fill="#010101" d="M13.8,42.2c-1.4,0-2.7-0.4-3.9-0.7c-0.4-0.1-0.8-0.3-1.2-0.4c-1.1-0.4-2.2-0.8-3.2-0.8
		c-0.6,0-2.6,0.1-3.3,1.4l-1.7-1c0.9-1.5,2.7-2.4,5.1-2.4c1.4,0,2.7,0.4,3.9,0.9c0.4,0.1,0.7,0.3,1.1,0.4c1.7,0.5,3,0.8,4.2,0.6
		c0.8-0.2,1.7-0.6,2.5-1c0.4-0.2,0.8-0.4,1.2-0.6c2-0.8,4.2-0.9,6.2-0.2c0.5,0.1,1.1,0.4,1.6,0.6c0.6,0.2,1.1,0.5,1.7,0.6
		c1.4,0.3,2.9,0.2,4.2-0.5c0.3-0.2,0.6-0.4,1-0.6c0.4-0.3,0.9-0.7,1.5-0.9c1.8-0.9,4-1,5.9-0.3c0.7,0.3,1.4,0.6,2,1
		c0.5,0.3,0.9,0.5,1.3,0.7c1.1,0.5,2,0.6,2.6,0.2l1,1.8c-1.2,0.7-2.7,0.6-4.4-0.2c-0.5-0.2-1-0.5-1.5-0.8c-0.6-0.3-1.1-0.7-1.6-0.8
		c-1.5-0.5-3.1-0.4-4.4,0.3c-0.4,0.2-0.8,0.5-1.2,0.7c-0.4,0.3-0.8,0.5-1.2,0.8c-1.7,0.9-3.7,1.1-5.6,0.7c-0.7-0.2-1.3-0.4-2-0.7
		c-0.5-0.2-1-0.4-1.5-0.5c-1.5-0.5-3.3-0.5-4.8,0.2c-0.3,0.2-0.7,0.3-1.1,0.5c-0.9,0.5-1.9,1-3,1.2C14.7,42.2,14.2,42.2,13.8,42.2z"
		/>
	<path fill="#010101" d="M13.8,48c-1.4,0-2.7-0.4-3.9-0.7c-0.3-0.1-0.6-0.2-1-0.3c-1.2-0.4-2.4-0.8-3.5-0.8c-0.5,0-2.5,0.1-3.3,1.4
		l-1.7-1c0.9-1.5,2.7-2.4,5.1-2.4C7,44.2,8.3,44.6,9.6,45c0.3,0.1,0.6,0.2,0.9,0.3c1.7,0.5,3,0.8,4.2,0.6c0.8-0.2,1.6-0.6,2.5-1
		c0.4-0.2,0.8-0.4,1.2-0.6c2-0.8,4.2-0.9,6.2-0.2c0.5,0.1,1.1,0.4,1.6,0.6c0.6,0.2,1.1,0.5,1.7,0.6c1.4,0.3,2.9,0.2,4.2-0.5
		c0.3-0.2,0.6-0.4,1-0.6c0.4-0.3,0.9-0.7,1.5-0.9c1.8-0.9,4-1,5.9-0.3c0.7,0.3,1.4,0.6,2,1c0.5,0.3,0.9,0.5,1.3,0.7
		c1.1,0.5,2,0.6,2.6,0.2l1,1.8c-1.2,0.7-2.7,0.6-4.4-0.2c-0.5-0.2-1-0.5-1.5-0.8c-0.6-0.3-1.1-0.7-1.6-0.8c-1.5-0.5-3.1-0.4-4.4,0.3
		c-0.4,0.2-0.8,0.5-1.2,0.7c-0.4,0.3-0.8,0.5-1.2,0.8c-1.7,0.9-3.7,1.1-5.6,0.7c-0.7-0.2-1.3-0.4-2-0.7c-0.5-0.2-1-0.4-1.4-0.5
		c-1.5-0.5-3.3-0.5-4.8,0.2c-0.3,0.2-0.7,0.3-1.1,0.5c-0.9,0.5-1.9,1-3,1.2C14.7,48,14.2,48,13.8,48z"/>
</g>
</svg>
