<?xml version="1.0" encoding="utf-8"?>
<!-- Generator: Adobe Illustrator 18.0.0, SVG Export Plug-In . SVG Version: 6.00 Build 0)  -->
<!DOCTYPE svg PUBLIC "-//W3C//DTD SVG 1.1//EN" "http://www.w3.org/Graphics/SVG/1.1/DTD/svg11.dtd">
<svg version="1.1" id="Layer_1" xmlns="http://www.w3.org/2000/svg" xmlns:xlink="http://www.w3.org/1999/xlink" x="0px" y="0px"
	 viewBox="0 0 48 48" enable-background="new 0 0 48 48" xml:space="preserve">
<g>
	<path fill="#010101" d="M24,48c-9.6,0-17.5-7.9-17.5-17.6c0-9.7,7.9-17.6,17.5-17.6s17.5,7.9,17.5,17.6C41.5,40.1,33.6,48,24,48z
		 M24,14.8c-8.5,0-15.5,7-15.5,15.6C8.5,39,15.5,46,24,46s15.5-7,15.5-15.6C39.5,21.8,32.5,14.8,24,14.8z"/>
	<path fill="#010101" d="M26.2,37.6h-4.4c-2.9,0-5.1-2.2-5.1-5.1s2.2-5.1,5.1-5.1h4.4c2.9,0,5.1,2.2,5.1,5.1S29.1,37.6,26.2,37.6z
		 M21.8,29.4c-1.7,0-3.1,1.4-3.1,3.1s1.4,3.1,3.1,3.1h4.4c1.7,0,3.1-1.4,3.1-3.1s-1.4-3.1-3.1-3.1H21.8z"/>
	<path fill="#010101" d="M13.6,18.7L13,17.7c-0.1-0.2-3.1-5.8-3.6-8c-0.6-2-0.1-4.2,1.3-6C12.4,1.4,15.2,0,18,0h12
		c2.8,0,5.6,1.4,7.3,3.6c1.4,1.8,1.8,4,1.3,6.1c-0.6,2.2-3.6,7.7-3.7,7.9l-0.5,1l-0.9-0.7c-2.8-2.1-6-3.2-9.4-3.2
		c-3.5,0-6.7,1.1-9.5,3.3L13.6,18.7z M18,2c-2.1,0-4.4,1.1-5.7,2.8c-1,1.3-1.3,2.9-0.9,4.3c0.3,1.4,1.9,4.6,2.9,6.6
		c2.9-2,6.2-3,9.7-3c3.4,0,6.7,1,9.6,2.9c1-1.9,2.6-5.1,3-6.5c0.4-1.5,0.1-3-0.9-4.3C34.4,3.1,32.2,2,30,2H18z"/>
</g>
</svg>
