<?xml version="1.0" encoding="utf-8"?>
<!-- Generator: Adobe Illustrator 16.0.0, SVG Export Plug-In . SVG Version: 6.00 Build 0)  -->
<!DOCTYPE svg PUBLIC "-//W3C//DTD SVG 1.1//EN" "http://www.w3.org/Graphics/SVG/1.1/DTD/svg11.dtd">
<svg version="1.1" id="Layer_1" xmlns="http://www.w3.org/2000/svg" xmlns:xlink="http://www.w3.org/1999/xlink" x="0px" y="0px"
	 width="48px" height="48px" viewBox="0 0 48 48" enable-background="new 0 0 48 48" xml:space="preserve">
<g>
	<path d="M36.42,40.768H2.901c-0.49,0-0.908-0.355-0.987-0.84C1.706,38.646,1.6,37.348,1.6,36.068
		c0-11.493,8.102-20.843,18.06-20.843c9.959,0,18.061,9.35,18.061,20.843c0,1.27-0.105,2.568-0.313,3.858
		C37.329,40.411,36.911,40.768,36.42,40.768z M3.768,38.768h31.785c0.111-0.906,0.168-1.811,0.168-2.699
		c0-10.391-7.205-18.843-16.061-18.843S3.6,25.678,3.6,36.068C3.6,36.963,3.656,37.867,3.768,38.768z"/>
	<path d="M31.695,22.659c-0.553,0-1-0.448-1-1c0-11.031-1.806-17.417-11.035-17.417c-9.159,0-11.035,6.963-11.035,17.417
		c0,0.552-0.448,1-1,1s-1-0.448-1-1c0-10.085,1.579-19.417,13.035-19.417c12.028,0,13.035,10.022,13.035,19.417
		C32.695,22.211,32.248,22.659,31.695,22.659z"/>
	<path d="M19.66,17.319c-1.971,0-3.574-1.603-3.574-3.574s1.604-3.574,3.574-3.574s3.574,1.604,3.574,3.574
		S21.631,17.319,19.66,17.319z M19.66,12.171c-0.868,0-1.574,0.706-1.574,1.574c0,0.868,0.706,1.574,1.574,1.574
		c0.868,0,1.574-0.706,1.574-1.574C21.234,12.877,20.528,12.171,19.66,12.171z"/>
	<path d="M38.32,45.758H1c-0.552,0-1-0.447-1-1s0.448-1,1-1h37.32c0.553,0,1,0.447,1,1S38.873,45.758,38.32,45.758z"/>
	<path d="M37.232,38.413c-0.362,0-0.594-0.025-0.629-0.029c-0.548-0.064-0.94-0.562-0.876-1.11c0.063-0.546,0.539-0.95,1.106-0.876
		c0.028-0.002,2.469,0.244,4.021-1.333c1.201-1.221,1.632-3.252,1.281-6.035c-0.588-4.672,1.88-7.375,3.747-8.459l-0.265-1.485
		c-1.541,0.848-4.199,2.743-4.641,5.884c-0.82,5.852-4.793,6.18-4.962,6.191c-0.547,0.021-1.026-0.381-1.063-0.933
		c-0.036-0.551,0.381-1.027,0.933-1.063c0.088-0.009,2.527-0.299,3.112-4.474c0.793-5.641,6.773-7.917,7.027-8.011
		c0.279-0.102,0.587-0.078,0.845,0.07c0.257,0.147,0.436,0.4,0.487,0.692l0.627,3.518c0.084,0.471-0.177,0.935-0.623,1.108
		c-0.153,0.062-3.881,1.621-3.24,6.712c0.433,3.435-0.192,6.026-1.857,7.705C40.575,38.187,38.317,38.413,37.232,38.413z"/>
</g>
</svg>
