<?xml version="1.0" encoding="utf-8"?>
<!-- Generator: Adobe Illustrator 18.0.0, SVG Export Plug-In . SVG Version: 6.00 Build 0)  -->
<!DOCTYPE svg PUBLIC "-//W3C//DTD SVG 1.1//EN" "http://www.w3.org/Graphics/SVG/1.1/DTD/svg11.dtd">
<svg version="1.1" id="Layer_1" xmlns="http://www.w3.org/2000/svg" xmlns:xlink="http://www.w3.org/1999/xlink" x="0px" y="0px"
	 viewBox="0 0 48 48" enable-background="new 0 0 48 48" xml:space="preserve">
<g>
	<path fill="#010101" d="M43.8,40.4H4.2c-2.4,0-4.2-1.8-4.2-4.2V11.8c0-2.4,1.8-4.2,4.2-4.2h39.6c2.4,0,4.2,1.8,4.2,4.2v24.4
		C48,38.6,46.2,40.4,43.8,40.4z M4.2,9.6C2.9,9.6,2,10.5,2,11.8v24.4c0,1.3,0.9,2.2,2.2,2.2h39.6c1.3,0,2.2-0.9,2.2-2.2V11.8
		c0-1.3-0.9-2.2-2.2-2.2H4.2z"/>
	<g>
		<path fill="#010101" d="M13.1,23.6c-0.4,0.2-1.1,0.4-2,0.4c-2.1,0-3.7-1.3-3.7-3.8c0-2.4,1.6-4,4-4c0.9,0,1.5,0.2,1.8,0.3L13,17.3
			c-0.4-0.2-0.9-0.3-1.5-0.3c-1.8,0-3,1.1-3,3.1c0,1.9,1.1,3,2.9,3c0.6,0,1.2-0.1,1.6-0.3L13.1,23.6z"/>
		<path fill="#010101" d="M15.6,21.5l-0.8,2.4h-1l2.6-7.6h1.2l2.6,7.6h-1l-0.8-2.4H15.6z M18.1,20.7l-0.7-2.2
			c-0.2-0.5-0.3-0.9-0.4-1.4l0,0c-0.1,0.4-0.2,0.9-0.4,1.4l-0.7,2.2H18.1z"/>
		<path fill="#010101" d="M21.2,16.4c0.5-0.1,1.2-0.2,1.9-0.2c1,0,1.7,0.2,2.2,0.6c0.4,0.3,0.6,0.9,0.6,1.4c0,1-0.6,1.7-1.4,1.9l0,0
			c0.6,0.2,0.9,0.7,1.1,1.5c0.2,1.1,0.4,1.8,0.6,2.1h-1c-0.1-0.2-0.3-0.9-0.5-1.8c-0.2-1-0.6-1.4-1.5-1.5h-0.9v3.3h-1v-7.3H21.2z
			 M22.2,19.9h1c1,0,1.7-0.6,1.7-1.4c0-1-0.7-1.4-1.7-1.4c-0.5,0-0.8,0-1,0.1V19.9z"/>
		<path fill="#010101" d="M27.3,16.4c0.6-0.1,1.3-0.2,2.1-0.2c1.4,0,2.4,0.3,3.1,0.9s1.1,1.5,1.1,2.7s-0.4,2.2-1.1,2.9
			c-0.7,0.7-1.9,1.1-3.3,1.1c-0.7,0-1.3,0-1.8-0.1v-7.3H27.3z M28.3,23.1c0.2,0,0.6,0.1,1,0.1c2.1,0,3.2-1.2,3.2-3.2
			c0-1.8-1-2.9-3.1-2.9c-0.5,0-0.9,0-1.1,0.1V23.1z"/>
	</g>
	<rect x="24" y="30.6" fill="#010101" width="16" height="2"/>
</g>
</svg>
