<?xml version="1.0" encoding="utf-8"?>
<!-- Generator: Adobe Illustrator 18.0.0, SVG Export Plug-In . SVG Version: 6.00 Build 0)  -->
<!DOCTYPE svg PUBLIC "-//W3C//DTD SVG 1.1//EN" "http://www.w3.org/Graphics/SVG/1.1/DTD/svg11.dtd">
<svg version="1.1" id="Layer_1" xmlns="http://www.w3.org/2000/svg" xmlns:xlink="http://www.w3.org/1999/xlink" x="0px" y="0px"
	 viewBox="0 0 48 48" enable-background="new 0 0 48 48" xml:space="preserve">
<g>
	<path fill="#010101" d="M44,40.1H4c-2.2,0-4-1.8-4-4V11.9c0-2.2,1.8-4,4-4h40c2.2,0,4,1.8,4,4v24.3C48,38.4,46.2,40.1,44,40.1z
		 M4,9.9c-1.1,0-2,0.9-2,2v24.2c0,1.1,0.9,2,2,2h40c1.1,0,2-0.8,2-1.9V11.9c0-1.1-0.9-2-2-2H4z"/>
	<path fill="#010101" d="M28.4,32.3c-3.5,0-6.4-3.8-6.4-8.5c0-4.7,2.9-8.5,6.4-8.5c3.5,0,6.4,3.8,6.4,8.5
		C34.8,28.5,31.9,32.3,28.4,32.3z M28.4,17.3c-2.4,0-4.4,2.9-4.4,6.5s2,6.5,4.4,6.5c2.4,0,4.4-2.9,4.4-6.5S30.8,17.3,28.4,17.3z"/>
	<rect x="4.4" y="22.8" fill="#010101" width="18.6" height="2"/>
	<rect x="6.2" y="24" fill="#010101" width="2" height="3.6"/>
	<rect x="9.7" y="24" fill="#010101" width="2" height="2.3"/>
	<rect x="39.6" y="13.1" fill="#010101" width="2" height="21.8"/>
</g>
</svg>
