<?xml version="1.0" encoding="utf-8"?>
<!-- Generator: Adobe Illustrator 18.0.0, SVG Export Plug-In . SVG Version: 6.00 Build 0)  -->
<!DOCTYPE svg PUBLIC "-//W3C//DTD SVG 1.1//EN" "http://www.w3.org/Graphics/SVG/1.1/DTD/svg11.dtd">
<svg version="1.1" id="Layer_1" xmlns="http://www.w3.org/2000/svg" xmlns:xlink="http://www.w3.org/1999/xlink" x="0px" y="0px"
	 viewBox="0 0 48 48" enable-background="new 0 0 48 48" xml:space="preserve">
<g>
	<path d="M43.3,48H4.7C2.1,48,0,45.9,0,43.3V22.9c0-2.6,2.1-4.7,4.7-4.7h38.7c2.6,0,4.7,2.1,4.7,4.7v20.4C48,46,45.9,48,43.3,48z
		 M4.7,20.2c-1.5,0-2.7,1.2-2.7,2.7v20.4C2,44.8,3.2,46,4.7,46h38.6c1.5,0,2.7-1.2,2.8-2.7l0-20.4c0-1.5-1.2-2.7-2.7-2.7H4.7z"/>
	<path d="M20.4,19.2c-0.1-3,0.1-6,0.7-8.7c0.3-1.4,0.7-3,1.7-4.2c1.4-1.8,3.6-2.4,5.9-1.6c1.1,0.4,2,0.9,2.9,1.4
		c0.7,0.4,1.3,0.7,1.9,1c1.1,0.5,2.4,0.6,3.8,0.4c0.3-0.1,0.5-0.1,0.6-0.3c0.2-0.3,0.3-0.8,0.4-1.5c0.2-1.6,0.3-3.2,0.3-4.9h2
		c0,1.8-0.1,3.5-0.3,5.1c-0.1,0.8-0.2,1.8-0.8,2.5l-0.1,0.1c-0.6,0.6-1.2,0.8-1.7,0.9l-0.1,0c-1.8,0.2-3.5,0-4.9-0.6
		c-0.7-0.3-1.4-0.7-2.1-1.1c-0.9-0.5-1.7-1-2.6-1.3c-1.5-0.5-2.8-0.2-3.7,1c-0.7,0.9-1.1,2.2-1.3,3.4c-0.5,2.5-0.8,5.3-0.7,8.2
		L20.4,19.2z"/>
	<g>
		<rect x="5.4" y="24.1" width="2.2" height="2"/>
		<rect x="10.3" y="24.1" width="2.3" height="2"/>
		<rect x="15.2" y="24.1" width="2.3" height="2"/>
		<rect x="20.2" y="24.1" width="2.2" height="2"/>
		<rect x="25.1" y="24.1" width="2.3" height="2"/>
		<rect x="30" y="24.1" width="2.3" height="2"/>
		<rect x="35" y="24.1" width="2.2" height="2"/>
		<rect x="39.9" y="24.1" width="2.3" height="2"/>
	</g>
	<rect x="7.8" y="29.3" width="2.3" height="2"/>
	<rect x="12.8" y="29.3" width="2.2" height="2"/>
	<rect x="17.7" y="29.3" width="2.3" height="2"/>
	<rect x="22.6" y="29.3" width="2.3" height="2"/>
	<rect x="27.6" y="29.3" width="2.2" height="2"/>
	<rect x="32.5" y="29.3" width="2.3" height="2"/>
	<rect x="37.4" y="29.3" width="2.3" height="2"/>
	<g>
		<rect x="5.4" y="33.2" width="2.2" height="2"/>
		<rect x="10.3" y="33.2" width="2.3" height="2"/>
		<rect x="15.2" y="33.2" width="2.3" height="2"/>
		<rect x="20.2" y="33.2" width="2.2" height="2"/>
		<rect x="25.1" y="33.2" width="2.3" height="2"/>
		<rect x="30" y="33.2" width="2.3" height="2"/>
		<rect x="35" y="33.2" width="2.2" height="2"/>
		<rect x="39.9" y="33.2" width="2.3" height="2"/>
	</g>
	<rect x="7.8" y="37.4" width="2.3" height="2"/>
	<rect x="12.8" y="37.4" width="2.2" height="2"/>
	<rect x="17.7" y="37.4" width="2.3" height="2"/>
	<rect x="22.6" y="37.4" width="2.3" height="2"/>
	<rect x="27.6" y="37.4" width="2.2" height="2"/>
	<rect x="32.5" y="37.4" width="2.3" height="2"/>
	<rect x="37.4" y="37.4" width="2.3" height="2"/>
	<rect x="5.4" y="41.2" width="2.2" height="2"/>
	<rect x="10.3" y="41.2" width="2.3" height="2"/>
	<rect x="15.2" y="41.2" width="11.6" height="2"/>
	<rect x="30" y="41.2" width="2.3" height="2"/>
	<rect x="35" y="41.2" width="2.2" height="2"/>
	<rect x="39.9" y="41.2" width="2.3" height="2"/>
</g>
</svg>
