<?xml version="1.0" encoding="utf-8"?>
<!-- Generator: Adobe Illustrator 18.0.0, SVG Export Plug-In . SVG Version: 6.00 Build 0)  -->
<!DOCTYPE svg PUBLIC "-//W3C//DTD SVG 1.1//EN" "http://www.w3.org/Graphics/SVG/1.1/DTD/svg11.dtd">
<svg version="1.1" id="Layer_1" xmlns="http://www.w3.org/2000/svg" xmlns:xlink="http://www.w3.org/1999/xlink" x="0px" y="0px"
	 viewBox="0 0 48 48" enable-background="new 0 0 48 48" xml:space="preserve">
<g>
	<path fill="#010101" d="M41.5,18.6h-35v-1.1C6.5,7.9,14.4,0,24,0s17.5,7.9,17.5,17.6V18.6z M8.5,16.6h30.9C39,8.5,32.2,2,24,2
		C15.8,2,9,8.5,8.5,16.6z"/>
	<path fill="#010101" d="M32.4,18.6H15.6v-1.1C15.6,7.7,19.3,0,24,0c4.7,0,8.4,7.7,8.4,17.6V18.6z M17.6,16.6h12.8
		C30.2,7.8,27,2,24,2C21.1,2,17.8,8,17.6,16.6z"/>
	
		<rect x="33.5" y="15.2" transform="matrix(0.7372 0.6757 -0.6757 0.7372 25.4522 -16.9379)" fill="#010101" width="2" height="18"/>
	<rect x="4.5" y="23.2" transform="matrix(0.6819 0.7314 -0.7314 0.6819 22.0626 -2.234)" fill="#010101" width="18.2" height="2"/>
	<rect x="28.3" y="17.5" transform="matrix(0.991 0.1338 -0.1338 0.991 3.507 -3.7014)" fill="#010101" width="2" height="13.4"/>
	
		<rect x="12.1" y="23.3" transform="matrix(0.1487 0.9889 -0.9889 0.1487 39.9845 2.0531)" fill="#010101" width="13.4" height="2"/>
	<path fill="#010101" d="M17.6,48.1c-0.8-5.8,3.4-8.2,5.7-8.6l0.4,2c-0.5,0.1-4.8,1.1-4.1,6.4L17.6,48.1z"/>
	<g>
		<path fill="#010101" d="M24,35c-2-0.1-3.4-0.7-4.3-1.8c-1-1.2-0.9-2.5-0.9-2.6l2,0.2l-1-0.1l1,0.1c0,0.2,0,2,3.4,2.2L24,35z"/>
		<path fill="#010101" d="M24.2,35L24,33c3.4-0.2,3.4-2,3.4-2.2l2-0.2c0,0.1,0.1,1.4-0.9,2.6C27.6,34.3,26.1,34.9,24.2,35z"/>
	</g>
	<path fill="#010101" d="M29.3,47.8c-4.7-2.5-4.6-6.2-4-7.9l1.9,0.8c-0.1,0.3-1.1,3.2,3,5.3L29.3,47.8z"/>
	<path fill="#010101" d="M24.1,31.9c-1.7,0-3-1.3-3-3s1.3-3,3-3c1.7,0,3,1.3,3,3S25.8,31.9,24.1,31.9z M24.1,27.9c-0.6,0-1,0.4-1,1
		s0.4,1,1,1c0.6,0,1-0.4,1-1S24.7,27.9,24.1,27.9z"/>
	<path fill="#010101" d="M27.5,41.5h-6.7v-8.6h6.7V41.5z M22.8,39.5h2.7v-4.6h-2.7V39.5z"/>
</g>
</svg>
