<?xml version="1.0" encoding="utf-8"?>
<!-- Generator: Adobe Illustrator 16.0.0, SVG Export Plug-In . SVG Version: 6.00 Build 0)  -->
<!DOCTYPE svg PUBLIC "-//W3C//DTD SVG 1.1//EN" "http://www.w3.org/Graphics/SVG/1.1/DTD/svg11.dtd">
<svg version="1.1" id="Layer_1" xmlns="http://www.w3.org/2000/svg" xmlns:xlink="http://www.w3.org/1999/xlink" x="0px" y="0px"
	 width="48px" height="48px" viewBox="0 0 48 48" enable-background="new 0 0 48 48" xml:space="preserve">
<g>
	<path d="M33.492,11.467H7.112c-0.339,0-0.656-0.172-0.84-0.458L0.16,1.542c-0.24-0.373-0.207-0.858,0.083-1.194
		c0.289-0.336,0.767-0.442,1.169-0.26c0.094,0.042,9.543,4.232,22.571,4.232c3.952,0,7.874-0.385,11.654-1.145
		c0.354-0.073,0.722,0.055,0.958,0.331c0.235,0.276,0.303,0.657,0.177,0.998l-2.342,6.311C34.284,11.207,33.91,11.467,33.492,11.467
		z M7.657,9.467h25.14l1.486-4.006c-3.364,0.571-6.821,0.86-10.301,0.86c-9.254,0-16.637-1.992-20.488-3.3L7.657,9.467z"/>
	<path d="M35.09,43.85H5.395c-0.388,0-0.74-0.224-0.905-0.575c-0.165-0.351-0.112-0.766,0.136-1.063l1.567-1.888
		c-1.961-1.505-5.976-5.78-5.976-15.55c0-0.404,0.243-0.769,0.616-0.923C1.19,23.7,9.59,20.044,6.121,10.818
		c-0.115-0.307-0.073-0.651,0.114-0.921c0.187-0.27,0.494-0.431,0.822-0.431h26.371c0.328,0,0.636,0.161,0.822,0.431
		c0.187,0.27,0.229,0.614,0.114,0.921c-3.483,9.267,4.927,12.883,5.287,13.032c0.373,0.155,0.616,0.519,0.616,0.923
		c0,9.77-4.015,14.045-5.975,15.55l1.566,1.888c0.247,0.298,0.301,0.713,0.136,1.063C35.83,43.626,35.478,43.85,35.09,43.85z
		 M7.525,41.85H32.96l-0.919-1.107c-0.196-0.236-0.272-0.549-0.208-0.849s0.263-0.554,0.538-0.688
		c0.23-0.117,5.689-3.007,5.891-13.813c-2.098-1.12-8.639-5.38-6.217-13.926H8.439c2.422,8.545-4.119,12.806-6.217,13.926
		C2.424,36.198,7.884,39.089,8.12,39.208c0.271,0.138,0.469,0.393,0.531,0.69c0.062,0.298-0.012,0.609-0.207,0.844L7.525,41.85z"/>
	<path d="M36.911,48H3.574c-0.552,0-1-0.447-1-1s0.448-1,1-1h33.337c0.553,0,1,0.447,1,1S37.464,48,36.911,48z"/>
	<path d="M38.394,34.039c-0.47,0-0.888-0.332-0.98-0.81c-0.105-0.542,0.249-1.067,0.791-1.172c2.812-0.546,5.097-2.586,6.271-5.599
		c1.707-4.385,1.981-7.724,0.816-9.922c-0.847-1.597-2.451-2.647-4.905-3.209c-2.096-0.477-4.822,0.317-7.281,2.135
		c-0.445,0.329-1.071,0.234-1.398-0.21c-0.329-0.444-0.234-1.07,0.209-1.398c2.967-2.191,6.22-3.093,8.917-2.476
		c3.012,0.689,5.106,2.11,6.226,4.222c1.471,2.773,1.234,6.563-0.72,11.584c-1.428,3.666-4.254,6.157-7.753,6.836
		C38.521,34.033,38.456,34.039,38.394,34.039z"/>
</g>
</svg>
