<?xml version="1.0" encoding="utf-8"?>
<!-- Generator: Adobe Illustrator 16.0.0, SVG Export Plug-In . SVG Version: 6.00 Build 0)  -->
<!DOCTYPE svg PUBLIC "-//W3C//DTD SVG 1.1//EN" "http://www.w3.org/Graphics/SVG/1.1/DTD/svg11.dtd">
<svg version="1.1" id="Layer_1" xmlns="http://www.w3.org/2000/svg" xmlns:xlink="http://www.w3.org/1999/xlink" x="0px" y="0px"
	 width="48px" height="48px" viewBox="0 0 48 48" enable-background="new 0 0 48 48" xml:space="preserve">
<g>
	<path d="M24.055,41.161c-9.474,0-17.865-4.873-20.711-11.937C1.466,28.999,0,27.262,0,25.159c0-1.794,1.072-3.336,2.591-3.872
		C4.253,13.004,13.333,6.839,24.055,6.839c9.828,0,18.294,5.098,20.919,12.489c1.723,0.22,3.026,2.072,3.026,4.397
		c0,2.236-1.205,4.035-2.83,4.365C42.815,35.708,34.084,41.161,24.055,41.161z M4.035,27.218c0.422,0,0.804,0.267,0.944,0.673
		c2.296,6.636,10.14,11.271,19.076,11.271c9.445,0,17.596-5.17,19.382-12.293c0.124-0.498,0.593-0.827,1.115-0.746
		c0.018,0.002,0.108,0.019,0.126,0.022c0.599,0,1.322-1.035,1.322-2.419s-0.725-2.419-1.372-2.419
		c-0.05,0.002-0.101,0.018-0.151,0.028c-0.512,0.11-1.029-0.191-1.178-0.692C41.277,13.803,33.184,8.839,24.055,8.839
		c-10.027,0-18.455,5.767-19.604,13.415c-0.067,0.445-0.423,0.791-0.87,0.844C2.68,23.206,2,24.092,2,25.159
		c0,1.152,0.789,2.09,1.758,2.09c0.012-0.002,0.149-0.023,0.161-0.024C3.958,27.22,3.996,27.218,4.035,27.218z"/>
	<circle cx="24.219" cy="27.19" r="1.134"/>
	<circle cx="28.756" cy="23.745" r="0.882"/>
	<circle cx="30.604" cy="28.702" r="0.966"/>
	<circle cx="26.782" cy="31.685" r="1.092"/>
	<circle cx="36.232" cy="28.702" r="0.966"/>
	<circle cx="32.831" cy="32.272" r="0.589"/>
	<circle cx="33.503" cy="23.956" r="0.672"/>
</g>
</svg>
