<?xml version="1.0" encoding="utf-8"?>
<!-- Generator: Adobe Illustrator 18.0.0, SVG Export Plug-In . SVG Version: 6.00 Build 0)  -->
<!DOCTYPE svg PUBLIC "-//W3C//DTD SVG 1.1//EN" "http://www.w3.org/Graphics/SVG/1.1/DTD/svg11.dtd">
<svg version="1.1" id="Layer_1" xmlns="http://www.w3.org/2000/svg" xmlns:xlink="http://www.w3.org/1999/xlink" x="0px" y="0px"
	 viewBox="0 0 48 48" enable-background="new 0 0 48 48" xml:space="preserve">
<g>
	<path fill="#010101" d="M44.2,43.6H3.7V0h40.5V43.6z M5.7,41.6h36.5V2H5.7V41.6z"/>
	<rect x="1" y="46" fill="#010101" width="46" height="2"/>
	<rect x="29.5" y="14" fill="#010101" width="2" height="28.6"/>
	<rect x="4.8" y="26.9" fill="#010101" width="25.7" height="2"/>
	<rect x="4.8" y="13.5" fill="#010101" width="38.4" height="2"/>
	<rect x="3.6" y="7.2" transform="matrix(0.3916 0.9202 -0.9202 0.3916 12.8388 -3.0163)" fill="#010101" width="10.2" height="2"/>
	<rect x="6.8" y="7.2" transform="matrix(0.3998 0.9166 -0.9166 0.3998 14.6883 -6.0318)" fill="#010101" width="10.3" height="2"/>
	
		<rect x="10.1" y="7.2" transform="matrix(0.3916 0.9202 -0.9202 0.3916 16.7936 -8.9973)" fill="#010101" width="10.2" height="2"/>
	
		<rect x="13.3" y="7.2" transform="matrix(0.3998 0.9166 -0.9166 0.3998 18.5896 -11.9897)" fill="#010101" width="10.3" height="2"/>
	
		<rect x="16.6" y="7.2" transform="matrix(0.3916 0.9202 -0.9202 0.3916 20.7485 -14.9783)" fill="#010101" width="10.2" height="2"/>
	<rect x="3.6" y="20.8" transform="matrix(0.3916 0.9202 -0.9202 0.3916 25.3529 5.2585)" fill="#010101" width="10.2" height="2"/>
	<rect x="6.8" y="20.8" transform="matrix(0.3998 0.9166 -0.9166 0.3998 27.1536 2.1305)" fill="#010101" width="10.3" height="2"/>
	
		<rect x="10.1" y="20.8" transform="matrix(0.3916 0.9202 -0.9202 0.3916 29.3078 -0.7225)" fill="#010101" width="10.2" height="2"/>
	<rect x="4" y="35.3" transform="matrix(0.3915 0.9202 -0.9202 0.3915 38.9387 13.7134)" fill="#010101" width="10.2" height="2"/>
</g>
</svg>
