<?xml version="1.0" encoding="utf-8"?>
<!-- Generator: Adobe Illustrator 18.0.0, SVG Export Plug-In . SVG Version: 6.00 Build 0)  -->
<!DOCTYPE svg PUBLIC "-//W3C//DTD SVG 1.1//EN" "http://www.w3.org/Graphics/SVG/1.1/DTD/svg11.dtd">
<svg version="1.1" id="Layer_1" xmlns="http://www.w3.org/2000/svg" xmlns:xlink="http://www.w3.org/1999/xlink" x="0px" y="0px"
	 viewBox="0 0 48 48" enable-background="new 0 0 48 48" xml:space="preserve">
<g>
	<path fill="#010101" d="M32,48H16.1c-3.4,0-6.1-2.7-6.1-6.1V25.8c-2.7-2.8-4.1-6.3-4.1-10C5.9,7.1,14,0,24,0
		c9.9,0,18.1,7.1,18.2,15.8c0,3.6-1.4,7.1-4.1,10v16.1C38.1,45.3,35.4,48,32,48z M26,46h6c2.3,0,4.1-1.8,4.1-4.1V25l0.3-0.3
		c2.5-2.6,3.8-5.7,3.8-8.9C40.1,8.2,32.8,2,24,2C15.1,2,7.9,8.2,7.9,15.8c0,3.3,1.3,6.4,3.8,8.9L12,25v16.9c0,2.3,1.8,4.1,4.1,4.1
		h6.1v-2.8c-0.9-0.3-1.7-0.8-2.3-1.4h-6.6v-4.5h6.6c0.6-0.6,1.4-1.1,2.3-1.4v-1.1c-0.8-0.3-1.6-0.7-2.1-1.2h-6.8v-4.5h6.5
		c0.6-0.7,1.4-1.2,2.4-1.5v-3.5c-3.6-0.8-6.2-3.6-6.2-6.9c0-3.9,3.6-7.1,8.1-7.1c4.5,0,8.1,3.2,8.1,7.1c0,3.3-2.6,6.2-6.2,6.9v3.5
		c1,0.3,1.8,0.8,2.4,1.5h6.5v4.5h-6.8c-0.6,0.5-1.3,0.9-2.1,1.2v1.1c0.9,0.3,1.7,0.8,2.3,1.4h6.6v4.5h-6.6c-0.6,0.6-1.4,1.1-2.3,1.4
		V46z M15.3,39.8H21l0.3,0.5c0.3,0.5,1.2,1,2.1,1.1l0.7,0.1l0.7-0.1c0.9-0.2,1.8-0.6,2.1-1.1l0.3-0.5h5.7v-0.5h-5.7L27,38.8
		c-0.3-0.5-1.2-1-2.1-1.1l-0.7-0.1l-0.7,0.1c-0.9,0.2-1.8,0.6-2.1,1.1L21,39.3h-5.7V39.8z M15.3,31.6H21l0.3,0.3
		c0.5,0.6,1.2,0.9,2.1,1.1l0.7,0.1l0.7-0.1c0.9-0.2,1.6-0.5,2.1-1.1l0.3-0.3h5.7v-0.5h-5.6l-0.3-0.5c-0.3-0.5-1.1-1.1-2.2-1.2
		l-0.7-0.1l-0.7,0.1c-1,0.2-1.8,0.6-2.2,1.2l-0.3,0.5h-5.6V31.6z M24.1,12.1c-3.4,0-6.1,2.3-6.1,5.1c0,2.6,2.3,4.8,5.3,5.1l0.8,0.1
		l0.8-0.1c3-0.3,5.3-2.5,5.3-5.1C30.2,14.4,27.5,12.1,24.1,12.1z"/>
</g>
</svg>
