<?xml version="1.0" encoding="utf-8"?>
<!-- Generator: Adobe Illustrator 18.0.0, SVG Export Plug-In . SVG Version: 6.00 Build 0)  -->
<!DOCTYPE svg PUBLIC "-//W3C//DTD SVG 1.1//EN" "http://www.w3.org/Graphics/SVG/1.1/DTD/svg11.dtd">
<svg version="1.1" id="Layer_1" xmlns="http://www.w3.org/2000/svg" xmlns:xlink="http://www.w3.org/1999/xlink" x="0px" y="0px"
	 viewBox="0 0 48 48" enable-background="new 0 0 48 48" xml:space="preserve">
<g>
	<polygon points="44.5,48.6 32.9,42.6 22.3,48.1 11.6,42.6 0,48.6 0,14.7 11.6,8.7 22.3,14.2 29.1,10.6 30.1,12.4 22.3,16.4 
		11.6,10.9 2,15.9 2,45.4 11.6,40.4 22.3,45.9 32.9,40.4 42.5,45.4 42.5,17.3 44.5,17.3 	"/>
	<path d="M38.2,25.6l-0.7-0.8c-0.9-1-9.1-10-9.1-15.1c0-5.3,4.4-9.7,9.8-9.7S48,4.4,48,9.7c0,5-8.1,14.1-9.1,15.1L38.2,25.6z
		 M38.2,2c-4.3,0-7.8,3.5-7.8,7.7c0,3.3,5.1,9.8,7.8,12.9C40.9,19.5,46,13,46,9.7C46,5.5,42.5,2,38.2,2z"/>
	<path d="M38.2,15.1c-3,0-5.4-2.4-5.4-5.4c0-3,2.4-5.4,5.4-5.4s5.4,2.4,5.4,5.4C43.6,12.7,41.2,15.1,38.2,15.1z M38.2,6.3
		c-1.9,0-3.4,1.5-3.4,3.4c0,1.9,1.5,3.4,3.4,3.4c1.9,0,3.4-1.5,3.4-3.4C41.6,7.8,40.1,6.3,38.2,6.3z"/>
	<g>
		<g>
			<path d="M5.6,36.5l-2-0.4c0.1-0.5,0.3-0.9,0.4-1.3l0.1-0.3L6,35.3l-0.1,0.3C5.7,35.9,5.6,36.2,5.6,36.5z"/>
			<path d="M7.6,33.1l-1.5-1.4c0.8-0.8,1.6-1.5,2.6-2.1l1,1.7C9,31.8,8.3,32.4,7.6,33.1z M26.7,31.5c-0.8,0-1.7-0.1-2.6-0.2l0.2-2
				c1.1,0.1,2,0.2,2.9,0.2l0.1,2C27.1,31.5,26.9,31.5,26.7,31.5z M30.5,31L30,29.1c0.9-0.2,1.7-0.6,2.5-1.1l1,1.7
				C32.6,30.3,31.6,30.8,30.5,31z M21,30.9l-0.5-0.1c-0.8-0.1-1.6-0.3-2.5-0.4l0.3-2c0.8,0.1,1.7,0.3,2.5,0.4l0.5,0.1L21,30.9z
				 M12.3,30.3l-0.4-2c0.9-0.2,1.9-0.3,3-0.3l0.3,0l0,2l-0.3,0C13.9,30.1,13.1,30.2,12.3,30.3z"/>
			<path d="M36.1,27.7l-1.4-1.4l0,0c0.4-0.4,0.6-0.6,0.9-1l1.6,1.2C36.9,27,36.5,27.3,36.1,27.7z"/>
		</g>
	</g>
</g>
</svg>
