<?xml version="1.0" encoding="utf-8"?>
<!-- Generator: Adobe Illustrator 16.0.0, SVG Export Plug-In . SVG Version: 6.00 Build 0)  -->
<!DOCTYPE svg PUBLIC "-//W3C//DTD SVG 1.1//EN" "http://www.w3.org/Graphics/SVG/1.1/DTD/svg11.dtd">
<svg version="1.1" id="Layer_1" xmlns="http://www.w3.org/2000/svg" xmlns:xlink="http://www.w3.org/1999/xlink" x="0px" y="0px"
	 width="48px" height="48px" viewBox="0 0 48 48" enable-background="new 0 0 48 48" xml:space="preserve">
<g>
	<g>
		<path d="M13.835,28.029c0.054-0.906,0.099-1.922,0.116-2.678h0.018c0.171,0.721,0.414,1.502,0.701,2.354l0.979,2.883h0.592
			l1.068-2.936c0.305-0.836,0.557-1.59,0.764-2.301h0.026c-0.009,0.756,0.045,1.771,0.09,2.614l0.153,2.656h0.763l-0.377-6.052
			h-0.996l-1.079,2.93c-0.269,0.762-0.484,1.428-0.637,2.037h-0.027c-0.152-0.629-0.358-1.293-0.61-2.037l-1.032-2.93h-0.996
			l-0.423,6.053h0.745L13.835,28.029z"/>
		<polygon points="23.705,29.969 21.083,29.969 21.083,27.787 23.436,27.787 23.436,27.141 21.083,27.141 21.083,25.229 
			23.569,25.229 23.569,24.57 20.303,24.57 20.303,30.623 23.705,30.623 		"/>
		<path d="M25.452,28.037c0-1.004-0.019-1.732-0.063-2.495l0.026-0.01c0.308,0.657,0.71,1.349,1.132,2.021l1.921,3.07h0.791V24.57
			h-0.737v2.533c0,0.942,0.02,1.68,0.09,2.485L28.594,29.6c-0.287-0.619-0.638-1.257-1.087-1.966l-1.938-3.063h-0.853v6.053h0.736
			V28.037z"/>
		<path d="M32.782,30.723c1.31,0,2.288-0.764,2.288-2.621v-3.529h-0.791v3.582c0,1.339-0.573,1.931-1.471,1.931
			c-0.809,0-1.41-0.574-1.41-1.931v-3.582h-0.789v3.564C30.609,30.014,31.543,30.723,32.782,30.723z"/>
	</g>
	<path d="M39.172,48H8.828c-0.552,0-1-0.447-1-1V8.293c0-0.552,0.448-1,1-1h30.344c0.553,0,1,0.448,1,1V47
		C40.172,47.553,39.725,48,39.172,48z M9.828,46h28.344V9.293H9.828V46z"/>
	<path d="M8.827,9.293c-0.49,0-0.918-0.36-0.989-0.86c-0.077-0.547,0.303-1.053,0.85-1.13c0.175-0.025,17.569-2.534,22.614-7.048
		c0.297-0.264,0.719-0.329,1.078-0.167c0.36,0.163,0.591,0.522,0.589,0.918l-0.044,7.152c-0.003,0.55-0.45,0.994-1,0.994
		c-0.002,0-0.004,0-0.006,0c-0.553-0.003-0.997-0.454-0.994-1.006l0.032-5.176C24.244,7.08,9.644,9.188,8.968,9.283
		C8.921,9.29,8.874,9.293,8.827,9.293z"/>
</g>
</svg>
