<?xml version="1.0" encoding="utf-8"?>
<!-- Generator: Adobe Illustrator 16.0.0, SVG Export Plug-In . SVG Version: 6.00 Build 0)  -->
<!DOCTYPE svg PUBLIC "-//W3C//DTD SVG 1.1//EN" "http://www.w3.org/Graphics/SVG/1.1/DTD/svg11.dtd">
<svg version="1.1" id="Layer_1" xmlns="http://www.w3.org/2000/svg" xmlns:xlink="http://www.w3.org/1999/xlink" x="0px" y="0px"
	 width="48px" height="48px" viewBox="0 0 48 48" enable-background="new 0 0 48 48" xml:space="preserve">
<g>
	<circle cx="40.938" cy="21.959" r="1.235"/>
	<circle cx="40.938" cy="27.469" r="2.076"/>
	<path d="M47,38.867H1c-0.552,0-1-0.447-1-1V4.71c0-0.552,0.448-1,1-1h46c0.553,0,1,0.448,1,1v33.157
		C48,38.42,47.553,38.867,47,38.867z M2,36.867h44V5.71H2V36.867z"/>
	<path d="M33.5,32.977H6.125c-0.552,0-1-0.447-1-1V10.602c0-0.552,0.448-1,1-1H33.5c0.553,0,1,0.448,1,1v21.375
		C34.5,32.529,34.053,32.977,33.5,32.977z M7.125,30.977H32.5V11.602H7.125V30.977z"/>
	<path d="M42.625,15.04H39.25c-0.553,0-1-0.448-1-1s0.447-1,1-1h3.375c0.553,0,1,0.448,1,1S43.178,15.04,42.625,15.04z"/>
	<g>
		<path d="M39.375,44.289h-3c-0.553,0-1-0.447-1-1s0.447-1,1-1h3c0.553,0,1,0.447,1,1S39.928,44.289,39.375,44.289z"/>
		<path d="M11.625,44.289h-3c-0.552,0-1-0.447-1-1s0.448-1,1-1h3c0.552,0,1,0.447,1,1S12.177,44.289,11.625,44.289z"/>
	</g>
</g>
</svg>
