<?xml version="1.0" encoding="utf-8"?>
<!-- Generator: Adobe Illustrator 16.0.0, SVG Export Plug-In . SVG Version: 6.00 Build 0)  -->
<!DOCTYPE svg PUBLIC "-//W3C//DTD SVG 1.1//EN" "http://www.w3.org/Graphics/SVG/1.1/DTD/svg11.dtd">
<svg version="1.1" id="Layer_1" xmlns="http://www.w3.org/2000/svg" xmlns:xlink="http://www.w3.org/1999/xlink" x="0px" y="0px"
	 width="48px" height="48px" viewBox="0 0 48 48" enable-background="new 0 0 48 48" xml:space="preserve">
<g>
	<path d="M31.4,32.723H16.599c-6.018,0-10.913-4.294-10.913-9.572C5.686,18.569,11.576,0,24,0c11.646,0,18.313,18.194,18.313,23.151
		C42.313,28.429,37.417,32.723,31.4,32.723z M24,2C13.124,2,7.686,19.112,7.686,23.151c0,4.175,3.999,7.572,8.913,7.572H31.4
		c4.914,0,8.912-3.396,8.912-7.572C40.313,18.772,34.186,2,24,2z"/>
	<g>
		<path d="M9.057,48c-0.122,0-0.247-0.022-0.367-0.07c-0.514-0.203-0.765-0.784-0.563-1.297l5.771-14.598
			c0.204-0.514,0.783-0.767,1.298-0.563c0.514,0.203,0.765,0.784,0.563,1.297L9.987,47.367C9.832,47.761,9.455,48,9.057,48z"/>
		<path d="M38.941,48c-0.398,0-0.774-0.239-0.93-0.633L32.241,32.77c-0.203-0.513,0.049-1.094,0.563-1.297
			c0.51-0.204,1.094,0.048,1.297,0.563l5.771,14.598c0.203,0.513-0.049,1.094-0.563,1.297C39.188,47.978,39.064,48,38.941,48z"/>
	</g>
	<path d="M23.792,26.176c-5.582,0-9.272-2.29-9.5-2.436c-0.466-0.297-0.603-0.915-0.306-1.38c0.296-0.465,0.914-0.602,1.378-0.308
		l0,0c0.309,0.194,7.677,4.715,17.366-0.053c0.494-0.244,1.095-0.04,1.339,0.456c0.243,0.496,0.04,1.095-0.456,1.339
		C29.985,25.579,26.642,26.176,23.792,26.176z"/>
</g>
</svg>
