<?xml version="1.0" encoding="utf-8"?>
<!-- Generator: Adobe Illustrator 18.0.0, SVG Export Plug-In . SVG Version: 6.00 Build 0)  -->
<!DOCTYPE svg PUBLIC "-//W3C//DTD SVG 1.1//EN" "http://www.w3.org/Graphics/SVG/1.1/DTD/svg11.dtd">
<svg version="1.1" id="Layer_1" xmlns="http://www.w3.org/2000/svg" xmlns:xlink="http://www.w3.org/1999/xlink" x="0px" y="0px"
	 viewBox="0 0 48 48" enable-background="new 0 0 48 48" xml:space="preserve">
<g>
	<rect x="0.5" y="21.5" fill="#010101" width="47" height="2"/>
	<g>
		<path fill="#010101" d="M26.3,20.9h-4.5c-1.2,0-2.1-0.9-2.1-2.1v-10c0-1.2,0.9-2.1,2.1-2.1h4.5c1.2,0,2.1,0.9,2.1,2.1l0,10.2
			C28.2,20.1,27.3,20.9,26.3,20.9z M21.8,8.7C21.8,8.7,21.7,8.8,21.8,8.7l-0.1,10.1c0,0,0.1,0.1,0.1,0.1h4.5c0,0,0.1-0.1,0.1-0.2
			V8.8c0,0-0.1-0.1-0.1-0.1H21.8z"/>
		<rect x="23" y="1" fill="#010101" width="2" height="6.7"/>
		<path fill="#010101" d="M15.3,20.9h-4.5c-1.2,0-2.1-0.9-2.1-2.1v-8.6c0-1.2,0.9-2.1,2.1-2.1h4.5c1.2,0,2.1,0.9,2.1,2.1v8.6
			C17.4,20,16.5,20.9,15.3,20.9z M10.8,10.1c0,0-0.1,0.1-0.1,0.1v8.6c0,0,0.1,0.1,0.1,0.1h4.5c0,0,0.1-0.1,0.1-0.1v-8.6
			c0,0-0.1-0.1-0.1-0.1H10.8z"/>
		<path fill="#010101" d="M37.2,20.9h-4.5c-1.2,0-2.1-0.9-2.1-2.1v-6.5c0-1.2,0.9-2.1,2.1-2.1h4.5c1.2,0,2.1,0.9,2.1,2.1l0,6.7
			C39.1,20.1,38.2,20.9,37.2,20.9z M32.7,12.2c0,0-0.1,0.1-0.1,0.1v6.5c0,0,0.1,0.1,0.1,0.1h4.5c0,0,0.1-0.1,0.1-0.2v-6.4
			c0,0-0.1-0.1-0.1-0.1H32.7z"/>
		<rect x="12.1" y="6" fill="#010101" width="2" height="3.1"/>
	</g>
	<rect x="0.5" y="46" fill="#010101" width="47" height="2"/>
	<g>
		<path fill="#010101" d="M37.2,45.4h-4.5c-1.2,0-2.1-0.9-2.1-2.1v-10c0-1.2,0.9-2.1,2.1-2.1h4.5c1.2,0,2.1,0.9,2.1,2.1l0,10.1
			C39.1,44.6,38.3,45.4,37.2,45.4z M32.7,33.2c0,0-0.1,0.1-0.1,0.1v10c0,0,0.1,0.1,0.1,0.1h4.5c0,0,0,0,0,0c0,0,0-0.1,0.1-0.2v-9.9
			c0,0-0.1-0.1-0.1-0.1H32.7z"/>
		<rect x="33.9" y="25.5" fill="#010101" width="2" height="6.8"/>
	</g>
	<g>
		<path fill="#010101" d="M15.3,45.4h-4.5c-1.2,0-2.1-0.9-2.1-2.1v-6.5c0-1.2,0.9-2.1,2.1-2.1h4.5c1.2,0,2.1,0.9,2.1,2.1v6.5
			C17.4,44.5,16.5,45.4,15.3,45.4z M10.8,36.7C10.8,36.7,10.7,36.8,10.8,36.7l-0.1,6.6c0,0,0.1,0.1,0.1,0.1h4.5c0.1,0,0.1,0,0.1,0
			l0-6.6c0,0-0.1-0.1-0.1-0.1H10.8z"/>
	</g>
	<g>
		<path fill="#010101" d="M26.3,45.4h-4.5c-1.2,0-2.1-0.9-2.1-2.1v-8.6c0-1.2,0.9-2.1,2.1-2.1h4.5c1.2,0,2.1,0.9,2.1,2.1l0,8.7
			C28.2,44.6,27.4,45.4,26.3,45.4z M21.8,34.6c0,0-0.1,0.1-0.1,0.1v8.6c0,0,0.1,0.1,0.1,0.1h4.5c0,0,0,0,0,0c0,0,0-0.1,0.1-0.2v-8.5
			c0,0-0.1-0.1-0.1-0.1H21.8z"/>
		<rect x="23" y="30.5" fill="#010101" width="2" height="3.2"/>
	</g>
</g>
</svg>
