<?xml version="1.0" encoding="utf-8"?>
<!-- Generator: Adobe Illustrator 16.0.0, SVG Export Plug-In . SVG Version: 6.00 Build 0)  -->
<!DOCTYPE svg PUBLIC "-//W3C//DTD SVG 1.1//EN" "http://www.w3.org/Graphics/SVG/1.1/DTD/svg11.dtd">
<svg version="1.1" id="Layer_1" xmlns="http://www.w3.org/2000/svg" xmlns:xlink="http://www.w3.org/1999/xlink" x="0px" y="0px"
	 width="48px" height="48px" viewBox="0 0 48 48" enable-background="new 0 0 48 48" xml:space="preserve">
<g>
	<path d="M9.49,48c-0.195,0-0.387-0.057-0.552-0.166c-0.222-0.147-0.376-0.376-0.429-0.637l-1.787-8.894
		c-1.4-1.047-6.192-4.851-6.681-8.214c-0.143-0.98,0.084-1.888,0.655-2.624c0.667-0.857,1.602-1.311,2.706-1.311
		c0.624,0,1.243,0.146,1.805,0.357c-0.298-2.076-0.404-5.159,1.01-7.323c0.888-1.358,2.224-2.173,3.972-2.422
		c0.22-0.057,0.812-0.187,1.625-0.187c2.106,0,7.207,0.966,9.082,9.915l3.505,17.439c0.108,0.54-0.24,1.065-0.779,1.177
		L9.692,47.979C9.625,47.993,9.558,48,9.49,48z M3.402,28.155c-0.483,0-0.841,0.171-1.126,0.537
		c-0.239,0.309-0.32,0.661-0.255,1.108c0.354,2.444,4.588,5.964,6.189,7.113c0.206,0.147,0.348,0.367,0.397,0.615l1.666,8.289
		l11.972-2.465l-3.307-16.455c-1.517-7.235-5.114-8.317-7.123-8.317c-0.686,0-1.14,0.127-1.145,0.128
		c-0.047,0.013-0.101,0.025-0.149,0.031c-1.193,0.159-2.053,0.663-2.628,1.541c-1.77,2.702-0.322,7.861-0.307,7.913
		c0.122,0.426-0.05,0.882-0.424,1.119c-0.373,0.239-0.858,0.203-1.193-0.088C5.567,28.876,4.411,28.155,3.402,28.155z"/>
	<path d="M38.51,31.42c-0.067,0-0.135-0.007-0.202-0.021l-13.93-2.869c-0.539-0.111-0.887-0.637-0.779-1.177l3.503-17.43
		C28.979,0.966,34.08,0,36.187,0c0.813,0,1.405,0.13,1.625,0.187c1.747,0.249,3.083,1.063,3.972,2.422
		c1.414,2.164,1.308,5.248,1.01,7.324c0.562-0.211,1.181-0.358,1.805-0.358c1.104,0,2.039,0.453,2.706,1.31
		c0.571,0.737,0.797,1.644,0.654,2.625c-0.489,3.363-5.28,7.166-6.681,8.212l-1.787,8.896c-0.053,0.261-0.207,0.49-0.429,0.637
		C38.896,31.363,38.704,31.42,38.51,31.42z M25.756,26.772l11.972,2.465l1.665-8.289c0.05-0.248,0.192-0.468,0.397-0.616
		c1.602-1.149,5.835-4.668,6.189-7.111c0.064-0.448-0.017-0.8-0.256-1.109c-0.284-0.366-0.643-0.537-1.126-0.537
		c-1.009,0-2.165,0.721-2.567,1.07c-0.334,0.291-0.817,0.327-1.192,0.088c-0.373-0.238-0.546-0.693-0.424-1.119
		c0.015-0.052,1.462-5.212-0.308-7.914c-0.574-0.878-1.434-1.381-2.627-1.541c-0.053-0.007-0.104-0.018-0.155-0.033l0,0
		c0,0-0.454-0.126-1.138-0.126c-2.01,0-5.607,1.082-7.126,8.325L25.756,26.772z"/>
</g>
</svg>
