<?xml version="1.0" encoding="utf-8"?>
<!-- Generator: Adobe Illustrator 16.0.0, SVG Export Plug-In . SVG Version: 6.00 Build 0)  -->
<!DOCTYPE svg PUBLIC "-//W3C//DTD SVG 1.1//EN" "http://www.w3.org/Graphics/SVG/1.1/DTD/svg11.dtd">
<svg version="1.1" id="Layer_1" xmlns="http://www.w3.org/2000/svg" xmlns:xlink="http://www.w3.org/1999/xlink" x="0px" y="0px"
	 width="48px" height="48px" viewBox="0 0 48 48" enable-background="new 0 0 48 48" xml:space="preserve">
<g>
	<path d="M23.423,21.907H12.449c-0.552,0-1-0.448-1-1V3.75c0-0.552,0.448-1,1-1h10.974c3.108,0,5.638,2.529,5.638,5.637v7.882
		C29.061,19.378,26.531,21.907,23.423,21.907z M13.449,19.907h9.974c2.006,0,3.638-1.632,3.638-3.638V8.387
		c0-2.005-1.632-3.637-3.638-3.637h-9.974V19.907z"/>
	<g>
		<path d="M12.295,8.769H3.176c-0.552,0-1-0.448-1-1s0.448-1,1-1h9.119c0.552,0,1,0.448,1,1S12.847,8.769,12.295,8.769z"/>
		<path d="M12.295,17.888H3.176c-0.552,0-1-0.448-1-1s0.448-1,1-1h9.119c0.552,0,1,0.448,1,1S12.847,17.888,12.295,17.888z"/>
	</g>
	<path d="M15.967,45.252c-1.429,0-2.811-0.032-4.152-0.097C5.743,44.864-0.262,41.643,0.01,35.099
		c0.167-4.019,3.097-5.878,6.239-7.288c5.433-2.437,12.25-2.175,18.26-1.949c1.776,0.068,3.453,0.132,5.063,0.132l1.163,0.003
		c2.948,0.009,5.997,0.021,8.852-0.606c0.362-0.08,0.743-0.153,1.133-0.228c2.809-0.541,4.68-1.043,5.073-3.022
		c0.486-2.457,0.116-5.054-0.966-6.777c-1.126-1.791-2.671-1.919-5.028-1.9c-2.541,0.014-5.083,0.009-7.624,0.005l-3.806-0.005
		c-0.553,0-1-0.448-1-1s0.447-1,1-1l3.81,0.005c2.535,0.003,5.072,0.008,7.609-0.005c2.2-0.01,4.934-0.026,6.732,2.836
		c1.363,2.171,1.824,5.248,1.234,8.23c-0.686,3.448-4.138,4.111-6.657,4.597c-0.372,0.071-0.735,0.141-1.081,0.217
		c-3.071,0.675-6.232,0.663-9.289,0.653l-1.155-0.003c-1.648,0-3.344-0.064-5.139-0.133c-6.078-0.232-12.36-0.471-17.366,1.774
		c-3.117,1.399-4.944,2.756-5.06,5.547c-0.246,5.91,6.109,7.794,9.903,7.976c4.883,0.237,10.326,0.034,16.642-0.614
		c0.969-0.099,1.905-0.412,2.897-0.743c0.999-0.334,2.032-0.68,3.141-0.809c0.567-0.068,1.046,0.329,1.109,0.877
		c0.064,0.549-0.329,1.046-0.877,1.109c-0.903,0.105-1.795,0.403-2.739,0.719c-1.051,0.352-2.139,0.715-3.328,0.837
		C24.067,45.014,19.845,45.252,15.967,45.252z"/>
	<circle cx="18.09" cy="12.329" r="1.314"/>
</g>
</svg>
