<?xml version="1.0" encoding="utf-8"?>
<!-- Generator: Adobe Illustrator 18.0.0, SVG Export Plug-In . SVG Version: 6.00 Build 0)  -->
<!DOCTYPE svg PUBLIC "-//W3C//DTD SVG 1.1//EN" "http://www.w3.org/Graphics/SVG/1.1/DTD/svg11.dtd">
<svg version="1.1" id="Layer_1" xmlns="http://www.w3.org/2000/svg" xmlns:xlink="http://www.w3.org/1999/xlink" x="0px" y="0px"
	 viewBox="0 0 48 48" enable-background="new 0 0 48 48" xml:space="preserve">
<g>
	<path fill="#010101" d="M32.6,31c-1.1,0-2.2-0.1-3.1-0.3l0.4-2c0.8,0.2,1.7,0.3,2.7,0.3C40,29,46,23.3,46,16.3
		c0-7.1-5.8-12.7-13.3-12.7c-7.4,0-13.4,5.7-13.4,12.7c0,0.6,0,1.2,0.1,1.7l-2,0.3c-0.1-0.7-0.1-1.4-0.1-2.1
		c0-8.1,6.9-14.7,15.4-14.7C41.3,1.6,48,8.1,48,16.3C48,24.4,41.1,31,32.6,31z"/>
	<path fill="#010101" d="M15.4,46.4C6.9,46.4,0,39.8,0,31.7C0,23.6,6.9,17,15.4,17s15.4,6.6,15.4,14.7
		C30.8,39.8,23.9,46.4,15.4,46.4z M15.4,19C8,19,2,24.7,2,31.7s6,12.7,13.4,12.7s13.4-5.7,13.4-12.7S22.8,19,15.4,19z"/>
	<g>
		<path fill="#010101" d="M16.4,40.1c-4.7,0-8.5-3.7-8.5-8.3s3.8-8.3,8.5-8.3c1.4,0,2.6,0.4,3.6,0.8l-0.7,1.9
			c-0.8-0.3-1.7-0.6-2.8-0.6c-3.6,0-6.5,2.8-6.5,6.3c0,3.4,3,6.3,6.5,6.3c1,0,2-0.3,2.7-0.6l0.7,1.9C19,39.7,17.8,40.1,16.4,40.1z"
			/>
		<g>
			<rect x="7.1" y="29.3" fill="#010101" width="6" height="2"/>
			<rect x="7.1" y="32.2" fill="#010101" width="6" height="2"/>
		</g>
	</g>
	<g>
		<path fill="#010101" d="M32.3,23.4c-1.1,0-2.5-0.3-4.2-0.9l0.8-1.8c4.7,1.9,6.2-0.3,6.3-0.4c0,0,0.5-0.7,0.3-1.4
			c-0.2-0.6-1-1.2-2.2-1.6c-2.3-0.8-3.8-1.7-4.4-2.9c-0.3-0.7-0.3-1.2-0.2-1.5c0-1.4,0.7-2.2,1.3-2.7c2.3-1.7,6.7-0.3,7.2-0.2
			l-0.6,1.9c-1.5-0.5-4.3-0.9-5.4-0.1c-0.2,0.2-0.5,0.4-0.5,1.2v0.2l-0.1,0.2c0,0.2,0.5,1.2,3.3,2.1c1.9,0.6,3.1,1.6,3.5,2.9
			c0.5,1.6-0.4,2.9-0.5,3.1C36.8,21.4,35.5,23.4,32.3,23.4z"/>
		<rect x="31.6" y="8.1" fill="#010101" width="2" height="16.4"/>
	</g>
	<g>
		<path fill="#010101" d="M2.5,17.5l-2-0.3c0-0.1,2.2-13.1,14-14.4l0.2,2C4.4,5.9,2.6,17,2.5,17.5z"/>
		<path fill="#010101" d="M12.7,8.7l-1.6-1.2L13.7,4c-3.8-2.1-3.9-2.2-4-2.3L10.4,1L11,0.2c0.3,0.2,3,1.7,4.7,2.6l1,0.6L12.7,8.7z"
			/>
		<g>
			<path fill="#010101" d="M33.5,45.3l-0.2-2C43.6,42.1,45.4,31,45.5,30.5l2,0.3C47.5,31,45.3,43.9,33.5,45.3z"/>
			<path fill="#010101" d="M37,47.8c-0.3-0.2-3-1.7-4.7-2.6l-1-0.6l4-5.3l1.6,1.2L34.3,44c3.8,2.1,3.9,2.2,4,2.3L37.6,47L37,47.8z"
				/>
		</g>
	</g>
</g>
</svg>
