<?xml version="1.0" encoding="utf-8"?>
<!-- Generator: Adobe Illustrator 18.0.0, SVG Export Plug-In . SVG Version: 6.00 Build 0)  -->
<!DOCTYPE svg PUBLIC "-//W3C//DTD SVG 1.1//EN" "http://www.w3.org/Graphics/SVG/1.1/DTD/svg11.dtd">
<svg version="1.1" id="Layer_1" xmlns="http://www.w3.org/2000/svg" xmlns:xlink="http://www.w3.org/1999/xlink" x="0px" y="0px"
	 viewBox="0 0 48 48" enable-background="new 0 0 48 48" xml:space="preserve">
<g>
	<path d="M43,48H5c-2.8,0-5-2.2-5-5V5c0-2.8,2.2-5,5-5h38c2.8,0,5,2.2,5,5v38C48,45.8,45.8,48,43,48z M5,2C3.3,2,2,3.3,2,5v38
		c0,1.7,1.3,3,3,3h38c1.7,0,3-1.3,3-3V5c0-1.7-1.3-3-3-3H5z"/>
	<polygon points="32.2,38.5 15.3,21.5 3.8,34.3 2.4,32.9 15.3,18.5 33.6,37.1 	"/>
	<polygon points="44,31.6 34,23.2 26.8,29.6 25.4,28.2 34,20.6 45.2,30 	"/>
	<path d="M25.6,17.6c-3,0-5.5-2.5-5.5-5.5s2.5-5.5,5.5-5.5s5.5,2.5,5.5,5.5S28.6,17.6,25.6,17.6z M25.6,8.6c-1.9,0-3.5,1.6-3.5,3.5
		s1.6,3.5,3.5,3.5s3.5-1.6,3.5-3.5S27.5,8.6,25.6,8.6z"/>
</g>
</svg>
