<?xml version="1.0" encoding="utf-8"?>
<!-- Generator: Adobe Illustrator 16.0.0, SVG Export Plug-In . SVG Version: 6.00 Build 0)  -->
<!DOCTYPE svg PUBLIC "-//W3C//DTD SVG 1.1//EN" "http://www.w3.org/Graphics/SVG/1.1/DTD/svg11.dtd">
<svg version="1.1" id="Layer_1" xmlns="http://www.w3.org/2000/svg" xmlns:xlink="http://www.w3.org/1999/xlink" x="0px" y="0px"
	 width="48px" height="48px" viewBox="0 0 48 48" enable-background="new 0 0 48 48" xml:space="preserve">
<g>
	<path d="M45.581,41.127c-0.371,0-0.728-0.207-0.9-0.563L34.564,19.733L21.532,36.258c-0.197,0.25-0.504,0.408-0.819,0.38
		c-0.318-0.011-0.612-0.172-0.792-0.436l-6.867-10.055L3.249,40.687c-0.309,0.457-0.931,0.577-1.388,0.27
		c-0.458-0.309-0.579-0.931-0.27-1.389l10.63-15.759c0.186-0.276,0.5-0.447,0.829-0.441c0.331,0,0.64,0.163,0.826,0.436l6.93,10.147
		l13.177-16.708c0.213-0.271,0.551-0.413,0.893-0.375c0.343,0.037,0.642,0.248,0.792,0.557L46.479,39.69
		c0.241,0.496,0.034,1.095-0.463,1.336C45.876,41.095,45.728,41.127,45.581,41.127z"/>
	<path d="M20.974,18.86c-3.305,0-5.994-2.689-5.994-5.994c0-3.305,2.689-5.994,5.994-5.994c3.305,0,5.994,2.689,5.994,5.994
		C26.968,16.171,24.279,18.86,20.974,18.86z M20.974,8.872c-2.202,0-3.994,1.792-3.994,3.994s1.792,3.994,3.994,3.994
		s3.994-1.792,3.994-3.994S23.176,8.872,20.974,8.872z"/>
	<path d="M47,41.127H1c-0.552,0-1-0.447-1-1s0.448-1,1-1h46c0.553,0,1,0.447,1,1S47.553,41.127,47,41.127z"/>
</g>
</svg>
