<?xml version="1.0" encoding="utf-8"?>
<!-- Generator: Adobe Illustrator 18.0.0, SVG Export Plug-In . SVG Version: 6.00 Build 0)  -->
<!DOCTYPE svg PUBLIC "-//W3C//DTD SVG 1.1//EN" "http://www.w3.org/Graphics/SVG/1.1/DTD/svg11.dtd">
<svg version="1.1" id="Layer_1" xmlns="http://www.w3.org/2000/svg" xmlns:xlink="http://www.w3.org/1999/xlink" x="0px" y="0px"
	 viewBox="0 0 48 48" enable-background="new 0 0 48 48" xml:space="preserve">
<g>
	<path d="M13.9,47.9C13.9,47.9,13.9,47.9,13.9,47.9c-4.2,0-7.7-1.3-10.2-3.8c-6.7-6.9-3.9-21.9,6-32c5-5.1,11-7.9,16.8-7.9
		c4.5,0,8.7,1.7,11.8,4.9c7.5,7.6,6.2,19.8-3,29C29.3,44.2,21,47.9,13.9,47.9z M26.5,6.2c-5.3,0-10.7,2.6-15.4,7.3
		c-9,9.2-11.9,23.1-6,29.2c2.1,2.1,5.1,3.2,8.8,3.2c0,0,0,0,0,0c6.5,0,14.4-3.6,20-9.2c8.4-8.4,9.7-19.4,3-26.2
		C34.1,7.7,30.5,6.2,26.5,6.2z"/>
	<rect x="29.3" y="6.8" transform="matrix(0.712 0.7022 -0.7022 0.712 20.8049 -16.3227)" width="2" height="20.8"/>
	<rect x="5.5" y="23.9" transform="matrix(0.7013 0.7129 -0.7129 0.7013 24.5615 -8.8159)" width="34.5" height="2"/>
	<path d="M38.5,9.8c0,0,0.1-0.1,0.1-0.2L36.8,9c0.2-0.6,0.7-0.9,0.9-1c0.1,0,0.1-0.1,0.2-0.1c0.6-0.3,0.7-0.8,0.8-1.2
		c0.1-0.5-0.1-1.1-0.4-1.7c-0.1-0.2-0.2-0.4-0.3-0.5c-0.4-0.7-0.9-1.6-0.6-2.7c0.2-0.9,1-1.6,2-1.7c0.8-0.2,1.7,0.1,2.4,0.8
		C42.3,1.3,42.6,2,43,2.7c0.2,0.4,0.4,0.9,0.7,1.2c0.5,0.6,1.3,0.8,2.2,1.1c0.6,0.2,1.1,0.4,1.7,0.6l-0.9,1.8
		c-0.4-0.2-0.9-0.4-1.4-0.5c-1.1-0.3-2.3-0.7-3.1-1.7c-0.4-0.5-0.7-1.1-1-1.6c-0.3-0.5-0.5-1-0.8-1.3C40.1,2,39.8,2,39.7,2
		c-0.3,0-0.4,0.2-0.4,0.2l0,0.1c-0.1,0.3,0.1,0.6,0.4,1.1c0.1,0.2,0.2,0.4,0.3,0.6c0.5,0.9,0.7,1.9,0.6,2.9
		c-0.1,1.1-0.8,2.1-1.7,2.6c0,0-0.1,0.1-0.2,0.1C38.6,9.7,38.6,9.8,38.5,9.8z"/>
</g>
</svg>
