<?xml version="1.0" encoding="utf-8"?>
<!-- Generator: Adobe Illustrator 16.0.0, SVG Export Plug-In . SVG Version: 6.00 Build 0)  -->
<!DOCTYPE svg PUBLIC "-//W3C//DTD SVG 1.1//EN" "http://www.w3.org/Graphics/SVG/1.1/DTD/svg11.dtd">
<svg version="1.1" id="Layer_1" xmlns="http://www.w3.org/2000/svg" xmlns:xlink="http://www.w3.org/1999/xlink" x="0px" y="0px"
	 width="48px" height="48px" viewBox="0 0 48 48" enable-background="new 0 0 48 48" xml:space="preserve">
<g>
	<path d="M39.921,48H11.142c-4.455,0-8.079-3.032-8.079-6.76V25.714c0-0.553,0.448-1,1-1s1,0.447,1,1V41.24
		c0,2.625,2.727,4.76,6.079,4.76h28.779C43.272,46,46,43.865,46,41.24V25.714c0-0.553,0.447-1,1-1s1,0.447,1,1V41.24
		C48,44.968,44.376,48,39.921,48z"/>
	<g>
		<path d="M47.001,28.391H4.063c-0.552,0-1-0.447-1-1v-7.864c0-0.552,0.448-1,1-1h42.938c0.553,0,1,0.448,1,1v7.864
			C48.001,27.943,47.554,28.391,47.001,28.391z M5.063,26.391h40.938v-5.864H5.063V26.391z"/>
		<path d="M11.679,27.964c-0.273,0-0.544-0.11-0.742-0.328l-6.472-7.145c-0.371-0.409-0.339-1.042,0.07-1.413
			c0.41-0.371,1.043-0.339,1.413,0.07l6.472,7.144c0.371,0.41,0.339,1.042-0.07,1.413C12.158,27.878,11.918,27.964,11.679,27.964z"
			/>
		<path d="M19.272,27.964c-0.272,0-0.544-0.11-0.742-0.328l-6.473-7.145c-0.371-0.409-0.339-1.042,0.07-1.413
			c0.41-0.371,1.042-0.339,1.413,0.07l6.473,7.144c0.371,0.41,0.339,1.042-0.07,1.413C19.752,27.878,19.512,27.964,19.272,27.964z"
			/>
		<path d="M26.865,27.964c-0.272,0-0.544-0.11-0.741-0.328l-6.472-7.145c-0.371-0.409-0.339-1.042,0.07-1.413
			c0.41-0.371,1.042-0.339,1.413,0.07l6.472,7.144c0.371,0.41,0.34,1.042-0.069,1.413C27.346,27.878,27.104,27.964,26.865,27.964z"
			/>
		<path d="M34.459,27.964c-0.272,0-0.544-0.11-0.741-0.328l-6.473-7.145c-0.371-0.409-0.34-1.042,0.069-1.413
			c0.408-0.371,1.042-0.339,1.413,0.07l6.473,7.144c0.371,0.41,0.34,1.042-0.069,1.413C34.939,27.878,34.699,27.964,34.459,27.964z"
			/>
		<path d="M42.052,27.964c-0.272,0-0.544-0.11-0.741-0.328l-6.473-7.145c-0.371-0.409-0.34-1.042,0.069-1.413
			c0.408-0.371,1.042-0.339,1.413,0.07l6.473,7.144c0.371,0.41,0.34,1.042-0.069,1.413C42.532,27.878,42.292,27.964,42.052,27.964z"
			/>
		<path d="M47,25.044c-0.272,0-0.544-0.11-0.741-0.328l-3.827-4.225c-0.371-0.409-0.34-1.042,0.069-1.413
			c0.408-0.371,1.042-0.339,1.413,0.07l3.827,4.224c0.371,0.409,0.34,1.042-0.069,1.413C47.48,24.958,47.24,25.044,47,25.044z"/>
	</g>
	<g>
		<path d="M4.063,20.527c-0.396,0-0.768-0.237-0.924-0.62l-3.063-7.458c-0.109-0.265-0.099-0.564,0.028-0.822
			s0.358-0.448,0.635-0.523L41.464,0.035c0.49-0.131,0.996,0.119,1.188,0.585l3.062,7.458c0.109,0.266,0.099,0.565-0.028,0.822
			c-0.126,0.257-0.357,0.448-0.634,0.523L4.325,20.492C4.238,20.516,4.149,20.527,4.063,20.527z M2.355,12.737l2.297,5.593
			l38.78-10.54l-2.296-5.593L2.355,12.737z"/>
		<path d="M11.119,18.159c-0.168,0-0.339-0.042-0.496-0.132l-8.922-5.107c-0.479-0.274-0.646-0.885-0.371-1.364
			c0.274-0.479,0.885-0.647,1.364-0.371l8.922,5.107c0.479,0.274,0.646,0.885,0.371,1.364
			C11.803,17.979,11.466,18.159,11.119,18.159z"/>
		<path d="M18.321,16.202c-0.168,0-0.339-0.042-0.496-0.132l-8.922-5.108c-0.479-0.274-0.645-0.885-0.371-1.365
			c0.274-0.479,0.885-0.645,1.365-0.371l8.922,5.108c0.479,0.274,0.645,0.885,0.371,1.365
			C19.005,16.021,18.667,16.202,18.321,16.202z"/>
		<path d="M25.522,14.244c-0.168,0-0.339-0.042-0.496-0.132l-8.921-5.108c-0.479-0.274-0.645-0.885-0.371-1.365
			c0.274-0.479,0.885-0.646,1.365-0.371l8.921,5.108c0.479,0.274,0.646,0.885,0.371,1.365
			C26.206,14.063,25.869,14.244,25.522,14.244z"/>
		<path d="M32.726,12.287c-0.169,0-0.339-0.042-0.496-0.132l-8.921-5.108c-0.479-0.274-0.645-0.885-0.371-1.365
			c0.274-0.479,0.886-0.646,1.365-0.371l8.921,5.108c0.479,0.274,0.646,0.885,0.371,1.365C33.41,12.106,33.072,12.287,32.726,12.287
			z"/>
		<path d="M39.929,10.329c-0.169,0-0.339-0.042-0.496-0.132l-8.922-5.108c-0.479-0.274-0.646-0.885-0.371-1.365
			s0.884-0.646,1.365-0.371l8.922,5.108c0.479,0.274,0.646,0.885,0.371,1.365C40.613,10.148,40.275,10.329,39.929,10.329z"/>
		<path d="M43.481,6.284c-0.169,0-0.339-0.042-0.496-0.132l-5.273-3.02c-0.479-0.274-0.646-0.885-0.371-1.365
			c0.275-0.479,0.885-0.646,1.365-0.371l5.273,3.02c0.479,0.274,0.646,0.885,0.371,1.365C44.165,6.104,43.828,6.284,43.481,6.284z"
			/>
	</g>
	<path d="M25.532,44.213c-0.553,0-1-0.447-1-1V31.369c0-0.553,0.447-1,1-1s1,0.447,1,1v11.844
		C26.532,43.766,26.085,44.213,25.532,44.213z"/>
</g>
</svg>
