<?xml version="1.0" encoding="utf-8"?>
<!-- Generator: Adobe Illustrator 16.0.0, SVG Export Plug-In . SVG Version: 6.00 Build 0)  -->
<!DOCTYPE svg PUBLIC "-//W3C//DTD SVG 1.1//EN" "http://www.w3.org/Graphics/SVG/1.1/DTD/svg11.dtd">
<svg version="1.1" id="Layer_1" xmlns="http://www.w3.org/2000/svg" xmlns:xlink="http://www.w3.org/1999/xlink" x="0px" y="0px"
	 width="48px" height="48px" viewBox="0 0 48 48" enable-background="new 0 0 48 48" xml:space="preserve">
<g>
	<path d="M32.404,44.68H5.333l-0.003-1l0.002-1h27.072c1.837,0,3.332-1.505,3.332-3.354V24.548c0-1.85-1.495-3.355-3.332-3.355
		H5.333C3.495,21.193,2,22.698,2,24.548v14.777c0,0.893,0.348,1.734,0.981,2.371C3.612,42.33,4.446,42.68,5.33,42.68v2
		c-1.42,0-2.758-0.559-3.767-1.573C0.555,42.093,0,40.75,0,39.325V24.548c0-2.953,2.393-5.355,5.333-5.355h27.071
		c2.94,0,5.332,2.402,5.332,5.355v14.777C37.736,42.277,35.345,44.68,32.404,44.68z"/>
	<path d="M45.794,42.084c-0.559,0-1.286-0.201-2.149-0.883l-7.217-3.343c-0.502-0.232-0.72-0.826-0.487-1.327
		c0.231-0.501,0.826-0.722,1.327-0.487l7.329,3.395c0.078,0.036,0.15,0.081,0.217,0.136c0.614,0.507,0.976,0.523,1.034,0.504
		C45.878,40.056,46,39.866,46,39.375V24.5c0-0.491-0.122-0.68-0.155-0.703c-0.051-0.021-0.414-0.004-1.03,0.506
		c-0.066,0.055-0.14,0.101-0.218,0.137l-7.329,3.392c-0.5,0.235-1.096,0.014-1.327-0.487c-0.232-0.501-0.014-1.096,0.487-1.327
		l7.217-3.341c1.46-1.156,2.536-0.932,3.054-0.689C47.185,22.217,48,22.847,48,24.5v14.875c0,1.652-0.814,2.283-1.301,2.512
		C46.487,41.987,46.182,42.084,45.794,42.084z"/>
	<g>
		<path d="M9.452,17.243c-4.731,0-8.581-3.868-8.581-8.622s3.85-8.622,8.581-8.622s8.581,3.868,8.581,8.622
			S14.184,17.243,9.452,17.243z M9.452,1.999c-3.629,0-6.581,2.971-6.581,6.622s2.952,6.622,6.581,6.622s6.581-2.971,6.581-6.622
			S13.081,1.999,9.452,1.999z"/>
		<path d="M29.154,17.243c-4.731,0-8.58-3.868-8.58-8.622s3.849-8.622,8.58-8.622c4.732,0,8.582,3.868,8.582,8.622
			S33.887,17.243,29.154,17.243z M29.154,1.999c-3.628,0-6.58,2.971-6.58,6.622s2.952,6.622,6.58,6.622
			c3.629,0,6.582-2.971,6.582-6.622S32.783,1.999,29.154,1.999z"/>
	</g>
	<path d="M7.233,38.43c-0.552,0-1-0.447-1-1V26.74c0-0.553,0.448-1,1-1h21.145c0.553,0,1,0.447,1,1s-0.447,1-1,1H8.233v9.689
		C8.233,37.982,7.785,38.43,7.233,38.43z"/>
	<path d="M18.868,48c-0.552,0-1-0.447-1-1v-2.734c0-0.553,0.448-1,1-1s1,0.447,1,1V47C19.868,47.553,19.42,48,18.868,48z"/>
</g>
</svg>
