<?xml version="1.0" encoding="utf-8"?>
<!-- Generator: Adobe Illustrator 16.0.0, SVG Export Plug-In . SVG Version: 6.00 Build 0)  -->
<!DOCTYPE svg PUBLIC "-//W3C//DTD SVG 1.1//EN" "http://www.w3.org/Graphics/SVG/1.1/DTD/svg11.dtd">
<svg version="1.1" id="Layer_1" xmlns="http://www.w3.org/2000/svg" xmlns:xlink="http://www.w3.org/1999/xlink" x="0px" y="0px"
	 width="48px" height="48px" viewBox="0 0 48 48" enable-background="new 0 0 48 48" xml:space="preserve">
<g>
	<path d="M23.967,48C8.876,48,8.646,46.715,8.509,45.947L5.565,28.02c-0.089-0.545,0.28-1.06,0.825-1.148
		c0.549-0.098,1.06,0.279,1.149,0.824l2.866,17.454C11.182,45.403,14.064,46,23.967,46c9.349,0,12.049-0.602,12.764-0.851
		l3.584-17.456c0.11-0.54,0.635-0.889,1.181-0.778c0.541,0.111,0.89,0.64,0.778,1.181l-3.67,17.877
		C38.444,46.691,38.154,48,23.967,48z"/>
	<path d="M23.923,43.229c-0.552,0-1-0.447-1-1V30.441c0-0.553,0.448-1,1-1s1,0.447,1,1v11.787
		C24.923,42.781,24.475,43.229,23.923,43.229z"/>
	<g>
		<path d="M15.956,42.674c-0.467,0-0.884-0.328-0.979-0.803L12.519,29.65c-0.109-0.542,0.242-1.068,0.783-1.178
			c0.542-0.112,1.069,0.242,1.178,0.783l2.458,12.221c0.109,0.542-0.242,1.068-0.783,1.178
			C16.088,42.668,16.021,42.674,15.956,42.674z"/>
		<path d="M31.89,42.674c-0.065,0-0.132-0.006-0.198-0.02c-0.541-0.109-0.892-0.637-0.783-1.178l2.459-12.221
			c0.108-0.541,0.637-0.896,1.178-0.783c0.541,0.109,0.892,0.637,0.783,1.178l-2.459,12.221
			C32.773,42.346,32.356,42.674,31.89,42.674z"/>
	</g>
	<path d="M23.927,31.014c-11.272,0-23.308-2.769-23.901-7.908l-0.022-0.033L0,22.596l0.002-0.01C0.103,10.121,10.842,0,24,0
		c6.4,0,12.421,2.36,16.951,6.646c4.545,4.3,7.049,10.022,7.048,16.112c0,0.192-0.047,0.455-0.235,0.729
		C46.633,28.43,35.033,31.014,23.927,31.014z M2.002,22.682l0.001,0.063c0.074,2.965,9.096,6.269,21.923,6.269
		c12.413,0,21.511-3.218,21.912-6.106l0.049-0.356l0.109-0.1c-0.083-5.42-2.355-10.506-6.421-14.353C35.419,4.166,29.888,2,24,2
		C11.909,2,2.045,11.276,2.002,22.682z"/>
	<ellipse cx="23.436" cy="8.738" rx="1.393" ry="1.109"/>
	<ellipse cx="13.98" cy="13.385" rx="1.393" ry="1.387"/>
	<ellipse cx="22.226" cy="20.873" rx="1.209" ry="1.041"/>
	<ellipse cx="33.488" cy="16.055" rx="1.602" ry="1.768"/>
</g>
</svg>
