<?xml version="1.0" encoding="utf-8"?>
<!-- Generator: Adobe Illustrator 16.0.0, SVG Export Plug-In . SVG Version: 6.00 Build 0)  -->
<!DOCTYPE svg PUBLIC "-//W3C//DTD SVG 1.1//EN" "http://www.w3.org/Graphics/SVG/1.1/DTD/svg11.dtd">
<svg version="1.1" id="Layer_1" xmlns="http://www.w3.org/2000/svg" xmlns:xlink="http://www.w3.org/1999/xlink" x="0px" y="0px"
	 width="48px" height="48px" viewBox="0 0 48 48" enable-background="new 0 0 48 48" xml:space="preserve">
<g>
	<path d="M11.845,29.18c-1.091,0-1.936-0.22-2.583-0.673c-2.977-2.082-3.567-3.444-3.007-6.939C6.675,18.426,9.181,2.97,18.262,0.54
		C19.602,0.181,20.956,0,22.285,0c8.599,0,14.746,7.272,17.634,14.078c2.089,4.924,2.533,8.081,1.441,10.236
		c-0.988,1.952-3.044,2.657-4.725,3.053c-0.811,0.19-1.637,0.282-2.524,0.282c0,0,0,0-0.001,0c-1.748,0-3.4-0.362-4.998-0.714
		c-1.739-0.382-3.354-0.741-4.924-0.584c-1.279,0.128-3.085,0.671-4.998,1.245C16.6,28.375,13.92,29.18,11.845,29.18z M22.285,2
		c-1.155,0-2.335,0.159-3.507,0.472C10.925,4.574,8.628,18.911,8.248,21.764L8.23,21.885c-0.438,2.732-0.173,3.338,2.179,4.983
		c0.291,0.204,0.788,0.312,1.436,0.312c1.781,0,4.317-0.762,6.77-1.499c2.007-0.604,3.903-1.173,5.374-1.32
		c1.853-0.186,3.742,0.224,5.552,0.621c1.494,0.328,3.038,0.667,4.57,0.667l0,0c0.732,0,1.408-0.075,2.066-0.229
		c1.869-0.44,2.918-1.061,3.399-2.01c0.779-1.539,0.289-4.335-1.5-8.551C35.44,8.642,29.907,2,22.285,2z"/>
	<path d="M27.074,48c-0.996,0-6.104-0.158-8.871-3.272c-1.313-1.478-1.846-3.344-1.584-5.548c0.773-6.514,1.943-13.001,1.955-13.065
		l1.968,0.355c-0.012,0.064-1.17,6.495-1.936,12.946c-0.194,1.634,0.164,2.937,1.093,3.983C21.522,45.452,25.192,46,27.074,46
		c1.268,0,4.251-1.649,5.859-4.136c1.087-1.681,1.294-3.298,0.615-4.808c-0.901-2.006-1.91-3.778-2.8-5.342
		c-1.454-2.554-2.603-4.571-2.603-6.389h2c0,1.288,1.085,3.193,2.341,5.399c0.912,1.603,1.945,3.418,2.886,5.511
		c0.961,2.138,0.698,4.459-0.761,6.714C32.659,45.971,29.138,48,27.074,48z"/>
</g>
</svg>
