<?xml version="1.0" encoding="utf-8"?>
<!-- Generator: Adobe Illustrator 16.0.0, SVG Export Plug-In . SVG Version: 6.00 Build 0)  -->
<!DOCTYPE svg PUBLIC "-//W3C//DTD SVG 1.1//EN" "http://www.w3.org/Graphics/SVG/1.1/DTD/svg11.dtd">
<svg version="1.1" id="Layer_1" xmlns="http://www.w3.org/2000/svg" xmlns:xlink="http://www.w3.org/1999/xlink" x="0px" y="0px"
	 width="48px" height="48px" viewBox="0 0 48 48" enable-background="new 0 0 48 48" xml:space="preserve">
<g>
	<path d="M24,10.71c-2.953,0-5.355-2.402-5.355-5.355S21.047,0,24,0c2.953,0,5.355,2.402,5.355,5.355S26.953,10.71,24,10.71z M24,2
		c-1.85,0-3.355,1.505-3.355,3.355S22.15,8.71,24,8.71c1.851,0,3.355-1.505,3.355-3.355S25.851,2,24,2z"/>
	<path d="M33.17,25.764c-0.553,0-1-0.447-1-1c0-6.063-3.665-10.996-8.17-10.996s-8.17,4.933-8.17,10.996c0,0.553-0.448,1-1,1
		s-1-0.447-1-1c0-7.166,4.562-12.996,10.17-12.996c5.607,0,10.17,5.83,10.17,12.996C34.17,25.316,33.723,25.764,33.17,25.764z"/>
	<path d="M44.432,25.764H3.568c-0.552,0-1-0.447-1-1c0-0.552,0.448-1,1-1h40.864c0.553,0,1,0.448,1,1
		C45.432,25.316,44.984,25.764,44.432,25.764z"/>
	<path d="M37.295,48h-26.59c-0.552,0-1-0.447-1-1V24.764c0-0.552,0.448-1,1-1h26.59c0.553,0,1,0.448,1,1V47
		C38.295,47.553,37.848,48,37.295,48z M11.705,46h24.59V25.764h-24.59V46z"/>
	<path d="M9.746,25.249c-0.517,0-0.955-0.397-0.996-0.922c-0.021-0.273-0.455-6.729,4.872-10.007
		c0.469-0.29,1.086-0.143,1.375,0.328c0.29,0.47,0.143,1.086-0.328,1.375c-4.273,2.63-3.942,7.928-3.926,8.152
		c0.04,0.55-0.373,1.03-0.923,1.071C9.796,25.248,9.771,25.249,9.746,25.249z"/>
	<path d="M23.554,44.064c-4.345,0-7.88-3.535-7.88-7.881c0-4.345,3.535-7.879,7.88-7.879c4.344,0,7.879,3.534,7.879,7.879
		C31.434,40.529,27.898,44.064,23.554,44.064z M23.554,30.305c-3.243,0-5.88,2.638-5.88,5.879c0,3.243,2.638,5.881,5.88,5.881
		c3.242,0,5.879-2.638,5.879-5.881C29.434,32.942,26.796,30.305,23.554,30.305z"/>
	<path d="M23.554,44.064c-2.358,0-4.136-3.388-4.136-7.881s1.778-7.881,4.136-7.881s4.135,3.388,4.135,7.881
		S25.912,44.064,23.554,44.064z M23.554,30.303c-0.851,0-2.136,2.346-2.136,5.881s1.286,5.881,2.136,5.881
		c0.85,0,2.135-2.346,2.135-5.881S24.404,30.303,23.554,30.303z"/>
	<path d="M30.199,37.184H16.907c-0.552,0-1-0.447-1-1s0.448-1,1-1h13.292c0.553,0,1,0.447,1,1S30.752,37.184,30.199,37.184z"/>
</g>
</svg>
