<?xml version="1.0" encoding="utf-8"?>
<!-- Generator: Adobe Illustrator 18.0.0, SVG Export Plug-In . SVG Version: 6.00 Build 0)  -->
<!DOCTYPE svg PUBLIC "-//W3C//DTD SVG 1.1//EN" "http://www.w3.org/Graphics/SVG/1.1/DTD/svg11.dtd">
<svg version="1.1" id="Layer_1" xmlns="http://www.w3.org/2000/svg" xmlns:xlink="http://www.w3.org/1999/xlink" x="0px" y="0px"
	 viewBox="0 0 48 48" enable-background="new 0 0 48 48" xml:space="preserve">
<g>
	<g>
		<path fill="#010101" d="M29,41h-2.3c-0.2,0-0.6,0-1-0.3c-0.3-0.2-0.5-0.5-0.5-0.6L25.1,40l-0.1-0.2c-0.4-1.2-0.8-2.3-1.1-3.5
			c-0.4-1.3-0.8-2.5-1.2-3.7c-2.3,0.2-4.7,0.3-7,0.3v7.9l-0.9,0.1c-1.6,0.1-3.4,0.1-4.8-0.1l-0.9-0.1v-0.9c0-2.3,0-4.5,0.1-6.8
			c0-2.2,0-4.5,0-6.7c0-1,0-2.4,0.8-3.4c1.1-1.5,3.4-1.5,4.5-1.5c1.4,0,2.7,0,4-0.1c1.1,0,2.2,0,3.1-0.4c1.3-0.6,2.1-2.1,2.8-3.6
			l0.2-0.4c1.1-1.9,2.3-3.7,4.2-4.3c0.1-0.9,0.5-1.9,1.1-2.7L30.6,9l0.8,0.7c0.9,0.8,1.6,1.9,1.9,3c1,0.2,2,0.8,2.7,1.7
			c0.7,1,1.1,2.1,1.5,3.1c0.3,0.9,0.7,1.7,1.4,2.2l0.1,0.1c0.1,0.1,0.3,0.2,0.4,0.3c0.6,0.4,1.4,1,1.5,2l0,0.1c0,1.1-0.8,2-2,2.4
			c0,0,0,0,0,0c0,1.2-0.8,2.2-1.9,2.6c-0.2,0.1-0.5,0.1-0.8,0.1c-0.9,0-1.9-0.4-2.9-1.3l-0.2-0.1c-0.6-0.4-1.1-0.8-1.6-0.8
			c-0.6,0.1-1,0.5-1.2,1c-0.2,0.6-0.3,1.3-0.3,2.1C30,31.5,30,35.4,30.7,39l0,0.2c0,0.1,0.1,0.5-0.1,0.9C30.3,40.7,29.7,41,29,41z
			 M26.9,39l1.8,0c-0.7-3.7-0.6-7.5-0.5-10.8c0-0.7,0.1-1.8,0.5-2.8c0.5-1.2,1.5-2.1,2.7-2.2c0.1,0,0.2,0,0.3,0c1.2,0,2,0.7,2.8,1.2
			l0.2,0.2c0.9,0.8,1.4,0.9,1.6,0.9c0.1,0,0.1,0,0.2,0c0.3-0.1,0.5-0.4,0.5-0.7c0-0.4,0-0.7,0.2-1.1l0.1-0.1l0.1-0.1
			c0.2-0.2,0.5-0.4,0.9-0.5c0.4-0.1,0.6-0.3,0.7-0.5c-0.1-0.2-0.4-0.4-0.7-0.6c-0.2-0.1-0.3-0.2-0.5-0.4c-1.1-0.8-1.7-2-2.1-3
			c-0.4-1-0.8-1.9-1.3-2.7c-0.4-0.5-1-1-1.8-1l-1,0.1l-0.1-1c0-0.5-0.2-1-0.5-1.5c-0.1,0.3-0.1,0.7-0.1,1l0.1,1l-1,0.1
			c-1.4,0.1-2.3,1.4-3.5,3.4l-0.2,0.3c-0.9,1.7-1.9,3.6-3.8,4.5c-1.3,0.6-2.6,0.6-3.8,0.6c-1.4,0.1-2.7,0.1-4.1,0.1
			c-1.1,0-2.4,0.1-2.9,0.8c-0.4,0.5-0.4,1.4-0.4,2.1c0,2.3,0,4.5-0.1,6.8c0,1.9,0,3.9,0,5.8c0.8,0.1,1.7,0.1,2.6,0v-8.1l1,0
			c2.8,0.1,5.7,0,8.6-0.3l0.8-0.1l0.3,0.7c0.5,1.5,1,3,1.5,4.5C26.2,36.8,26.5,37.9,26.9,39z"/>
		<path fill="#010101" d="M10.7,24.2c-0.5,0-0.9-0.1-1.3-0.4c-0.4-0.3-0.8-0.6-1.1-1.1c-0.3-0.5-0.7-1-0.9-1.6
			c-0.2-0.6-0.2-1.2-0.2-1.6c0-0.8,0-1.6,0.3-2.3c0.6-1.4,1.9-2.3,3.1-2.3v2c-0.5,0-1,0.4-1.3,1c-0.1,0.4-0.1,1-0.1,1.6
			c0,0.3,0.1,0.7,0.2,1.2c0.1,0.2,0.3,0.5,0.5,0.8c0.2,0.3,0.5,0.5,0.7,0.7c0,0,0.2,0.1,0.3,0.1l0.5,1.9
			C11.1,24.2,10.9,24.2,10.7,24.2z"/>
		<path fill="#010101" d="M30.8,20.5c-1.4,0-2.5-1.1-2.5-2.5s1.1-2.5,2.5-2.5s2.5,1.1,2.5,2.5S32.2,20.5,30.8,20.5z M30.8,17.5
			c-0.3,0-0.5,0.2-0.5,0.5s0.2,0.5,0.5,0.5s0.5-0.2,0.5-0.5S31.1,17.5,30.8,17.5z"/>
		<path fill="#010101" d="M29.4,26.1c-5.7-2.7-15.6-16.7-16-17.3L15,7.6c0.1,0.1,10,14.2,15.2,16.7L29.4,26.1z"/>
	</g>
	<path fill="#010101" d="M24,48C10.8,48,0,37.2,0,24S10.8,0,24,0s24,10.8,24,24S37.2,48,24,48z M24,2C11.9,2,2,11.9,2,24
		s9.9,22,22,22s22-9.9,22-22S36.1,2,24,2z"/>
	<g>
		<rect x="23" y="0.9" transform="matrix(0.7071 0.7071 -0.7071 0.7071 24 -9.9411)" fill="#010101" width="2" height="46.1"/>
	</g>
</g>
</svg>
