<?xml version="1.0" encoding="utf-8"?>
<!-- Generator: Adobe Illustrator 18.0.0, SVG Export Plug-In . SVG Version: 6.00 Build 0)  -->
<!DOCTYPE svg PUBLIC "-//W3C//DTD SVG 1.1//EN" "http://www.w3.org/Graphics/SVG/1.1/DTD/svg11.dtd">
<svg version="1.1" id="Layer_1" xmlns="http://www.w3.org/2000/svg" xmlns:xlink="http://www.w3.org/1999/xlink" x="0px" y="0px"
	 viewBox="0 0 48 48" enable-background="new 0 0 48 48" xml:space="preserve">
<g>
	<path fill="#010101" d="M42.9,29H13.7v-7.8h29.2V29z M15.7,27h25.2v-3.8H15.7V27z"/>
	<path fill="#010101" d="M15.8,29H3.9v-7.8h11.9V29z M5.9,27h7.9v-3.8H5.9V27z"/>
	<path fill="#010101" d="M37.8,20.1h-2c0-2-0.4-2.4-1.4-3.2c-2-1.6-2.4-3.9-1.2-6.5l1.8,0.9c-1.1,2.3-0.2,3.4,0.6,4.1
		C37.1,16.6,37.8,17.6,37.8,20.1z"/>
	<path fill="#010101" d="M42.4,19.7h-2c0-0.2,0-0.4,0-0.6c0.1-0.9,0.1-1.5-0.9-2.5c-0.1-0.1-0.2-0.2-0.3-0.2c-0.9-0.7-3-2.3-2.1-4.9
		l1.9,0.7c-0.4,1,0.2,1.8,1.4,2.7c0.2,0.2,0.4,0.3,0.5,0.4c1.7,1.6,1.6,3,1.5,4C42.4,19.4,42.4,19.5,42.4,19.7z"/>
	<path fill="#010101" d="M24,48C10.8,48,0,37.2,0,24S10.8,0,24,0s24,10.8,24,24S37.2,48,24,48z M24,2C11.9,2,2,11.9,2,24
		s9.9,22,22,22s22-9.9,22-22S36.1,2,24,2z"/>
	<rect x="1.4" y="23" transform="matrix(0.7395 0.6731 -0.6731 0.7395 22.4052 -9.9039)" fill="#010101" width="45.2" height="2"/>
</g>
</svg>
