<?xml version="1.0" encoding="utf-8"?>
<!-- Generator: Adobe Illustrator 16.0.0, SVG Export Plug-In . SVG Version: 6.00 Build 0)  -->
<!DOCTYPE svg PUBLIC "-//W3C//DTD SVG 1.1//EN" "http://www.w3.org/Graphics/SVG/1.1/DTD/svg11.dtd">
<svg version="1.1" id="Layer_1" xmlns="http://www.w3.org/2000/svg" xmlns:xlink="http://www.w3.org/1999/xlink" x="0px" y="0px"
	 width="48px" height="48px" viewBox="0 0 48 48" enable-background="new 0 0 48 48" xml:space="preserve">
<g>
	<path d="M42.48,28.936H29.079c-0.553,0-1-0.447-1-1s0.447-1,1-1h12.556l4.379-26.101c0.091-0.544,0.605-0.913,1.151-0.821
		c0.545,0.091,0.912,0.607,0.821,1.152l-4.52,26.935C43.386,28.583,42.969,28.936,42.48,28.936z"/>
	<path d="M43.634,18.955H30.412c-0.553,0-1-0.448-1-1s0.447-1,1-1h13.222c0.553,0,1,0.448,1,1S44.187,18.955,43.634,18.955z"/>
	<path d="M34.401,28.445c-0.476,0-0.896-0.34-0.983-0.824l-1.58-8.845c-0.097-0.543,0.265-1.063,0.809-1.16
		c0.545-0.099,1.063,0.265,1.16,0.809l1.58,8.845c0.097,0.544-0.265,1.063-0.809,1.16C34.519,28.44,34.46,28.445,34.401,28.445z"/>
	<path d="M36.398,41.253c-0.553,0-1-0.447-1-1V28.552c0-0.553,0.447-1,1-1s1,0.447,1,1v11.701
		C37.398,40.806,36.951,41.253,36.398,41.253z"/>
	<g>
		<path d="M29.079,44.458c-0.399,0-0.777-0.241-0.932-0.637c-0.2-0.515,0.054-1.095,0.568-1.295l7.319-2.854
			c0.512-0.201,1.094,0.053,1.295,0.568c0.2,0.515-0.054,1.095-0.568,1.295l-7.319,2.854C29.323,44.437,29.2,44.458,29.079,44.458z"
			/>
		<path d="M29.746,48h-0.667c-0.553,0-1-0.447-1-1s0.447-1,1-1h0.667c0.553,0,1,0.447,1,1S30.299,48,29.746,48z"/>
		<path d="M43.718,44.458c-0.121,0-0.244-0.021-0.363-0.068l-7.319-2.854c-0.515-0.2-0.769-0.78-0.568-1.295
			c0.201-0.516,0.782-0.77,1.295-0.568l7.319,2.854c0.515,0.2,0.769,0.78,0.568,1.295C44.495,44.217,44.117,44.458,43.718,44.458z"
			/>
		<path d="M43.718,48h-0.667c-0.553,0-1-0.447-1-1s0.447-1,1-1h0.667c0.553,0,1,0.447,1,1S44.271,48,43.718,48z"/>
	</g>
	<path d="M36.598,45.861h-0.771c-0.553,0-1-0.447-1-1s0.447-1,1-1h0.771c0.553,0,1,0.447,1,1S37.15,45.861,36.598,45.861z"/>
	<path d="M26.805,19.6H1c-0.552,0-1-0.448-1-1s0.448-1,1-1h25.805c0.553,0,1,0.448,1,1S27.357,19.6,26.805,19.6z"/>
	<path d="M23.362,45.861H3.924c-0.552,0-1-0.447-1-1V18.6c0-0.552,0.448-1,1-1h19.438c0.552,0,1,0.448,1,1v26.261
		C24.362,45.414,23.914,45.861,23.362,45.861z M4.924,43.861h17.438V19.6H4.924V43.861z"/>
	<path d="M6.504,48c-0.552,0-1-0.447-1-1v-2.139c0-0.553,0.448-1,1-1s1,0.447,1,1V47C7.504,47.553,7.056,48,6.504,48z"/>
	<path d="M20.095,48c-0.552,0-1-0.447-1-1v-2.139c0-0.553,0.448-1,1-1s1,0.447,1,1V47C21.095,47.553,20.647,48,20.095,48z"/>
	<path d="M16.827,16.174c-0.007,0-0.014,0-0.02,0H4.773c-0.552,0-1-0.448-1-1V7.861c0-0.329,0.162-0.637,0.433-0.824l9.969-6.861
		c0.285-0.196,0.65-0.231,0.967-0.093c0.316,0.138,0.54,0.43,0.589,0.772l2.037,13.979c0.038,0.105,0.059,0.22,0.059,0.338
		C17.827,15.726,17.379,16.174,16.827,16.174z M5.773,14.174h9.878L13.984,2.735L5.773,8.387V14.174z"/>
</g>
</svg>
