<?xml version="1.0" encoding="utf-8"?>
<!-- Generator: Adobe Illustrator 16.0.0, SVG Export Plug-In . SVG Version: 6.00 Build 0)  -->
<!DOCTYPE svg PUBLIC "-//W3C//DTD SVG 1.1//EN" "http://www.w3.org/Graphics/SVG/1.1/DTD/svg11.dtd">
<svg version="1.1" id="Layer_1" xmlns="http://www.w3.org/2000/svg" xmlns:xlink="http://www.w3.org/1999/xlink" x="0px" y="0px"
	 width="48px" height="48px" viewBox="0 0 48 48" enable-background="new 0 0 48 48" xml:space="preserve">
<g>
	<path d="M26.121,48h-4.242c-0.509,0-0.938-0.383-0.994-0.89c-1.069-9.609-8.724-12.824-8.802-12.855
		c-0.279-0.113-0.492-0.347-0.58-0.635c-0.088-0.288-0.042-0.6,0.126-0.85c1.519-2.258,3.245-4.971,3.616-5.76
		c-0.091-0.337-0.313-1.042-0.528-1.729c-1.365-4.35-2.806-9.203-2.622-11.725c0.272-3.721,8.152-12.276,9.049-13.239
		c0.325-0.348,0.852-0.42,1.256-0.17c0.406,0.25,0.579,0.751,0.414,1.198c-2.609,7.062-1.661,8.957-0.745,10.79
		c0.733,1.465,1.563,3.126,0.805,6.684c-1.019,4.78,0.186,6.837,1.119,7.682c0.959-0.874,2.14-2.935,1.129-7.682
		c-0.758-3.557,0.072-5.217,0.805-6.683c0.917-1.833,1.864-3.729-0.745-10.791c-0.165-0.447,0.009-0.948,0.414-1.198
		c0.403-0.25,0.931-0.179,1.256,0.17c0.897,0.963,8.775,9.518,9.047,13.239c0.187,2.521-1.254,7.376-2.619,11.728
		c-0.215,0.685-0.436,1.39-0.527,1.726c0.371,0.789,2.098,3.502,3.616,5.76c0.168,0.249,0.214,0.562,0.126,0.85
		s-0.301,0.521-0.58,0.635c-0.313,0.129-7.738,3.292-8.8,12.855C27.059,47.617,26.631,48,26.121,48z M22.755,46h2.49
		c1.226-7.991,6.512-11.765,8.831-13.06c-3.355-5.048-3.355-5.578-3.355-5.87c0-0.287,0.09-0.596,0.651-2.384
		c0.878-2.801,2.707-8.63,2.533-10.983c-0.119-1.628-2.785-5.317-5.466-8.545c1.003,4.421,0.098,6.232-0.723,7.873
		c-0.67,1.341-1.249,2.5-0.637,5.372c1.477,6.94-1.278,9.427-2.532,10.174c-0.319,0.189-0.757,0.21-1.074,0.014
		c-1.278-0.761-4.035-3.247-2.555-10.188c0.612-2.873,0.033-4.031-0.638-5.373c-0.82-1.64-1.726-3.451-0.722-7.873
		c-2.682,3.228-5.349,6.917-5.468,8.545c-0.172,2.353,1.656,8.181,2.535,10.981c0.562,1.791,0.652,2.1,0.652,2.387
		c0,0.292,0,0.822-3.355,5.87C16.241,34.235,21.527,38.01,22.755,46z"/>
	<path d="M25.236,20.282h-2.472c-0.552,0-1-0.448-1-1s0.448-1,1-1h2.472c0.553,0,1,0.448,1,1S25.789,20.282,25.236,20.282z"/>
</g>
</svg>
