<?xml version="1.0" encoding="utf-8"?>
<!-- Generator: Adobe Illustrator 18.0.0, SVG Export Plug-In . SVG Version: 6.00 Build 0)  -->
<!DOCTYPE svg PUBLIC "-//W3C//DTD SVG 1.1//EN" "http://www.w3.org/Graphics/SVG/1.1/DTD/svg11.dtd">
<svg version="1.1" id="Layer_1" xmlns="http://www.w3.org/2000/svg" xmlns:xlink="http://www.w3.org/1999/xlink" x="0px" y="0px"
	 viewBox="0 0 48 48" enable-background="new 0 0 48 48" xml:space="preserve">
<g>
	<path d="M47,48H1c-0.6,0-1-0.4-1-1V20.9c0-0.6,0.4-1,1-1s1,0.4,1,1V46h44V20.9c0-0.6,0.4-1,1-1s1,0.4,1,1V47C48,47.6,47.6,48,47,48
		z"/>
	<path d="M39.9,26.7c-0.6,0-1-0.4-1-1V2H9.1v23.7c0,0.6-0.4,1-1,1s-1-0.4-1-1V1c0-0.6,0.4-1,1-1h31.8c0.6,0,1,0.4,1,1v24.7
		C40.9,26.3,40.5,26.7,39.9,26.7z"/>
	<path d="M24,37.3c-0.2,0-0.4-0.1-0.6-0.2l-23-15.4c-0.5-0.3-0.6-0.9-0.3-1.4c0.3-0.5,0.9-0.6,1.4-0.3l22.4,15l22.4-15
		c0.5-0.3,1.1-0.2,1.4,0.3c0.3,0.5,0.2,1.1-0.3,1.4l-23,15.4C24.4,37.2,24.2,37.3,24,37.3z"/>
	<path d="M47,21.9c-0.2,0-0.4-0.1-0.6-0.2l-7.1-5.5c-0.4-0.3-0.5-1-0.2-1.4c0.3-0.4,1-0.5,1.4-0.2l7.1,5.5c0.4,0.3,0.5,1,0.2,1.4
		C47.6,21.8,47.3,21.9,47,21.9z"/>
	<path d="M1,21.9c-0.3,0-0.6-0.1-0.8-0.4c-0.3-0.4-0.3-1.1,0.2-1.4l7.1-5.5c0.4-0.3,1.1-0.3,1.4,0.2c0.3,0.4,0.3,1.1-0.2,1.4
		l-7.1,5.5C1.4,21.8,1.2,21.9,1,21.9z"/>
	<rect x="14.6" y="6.1" width="18.8" height="2"/>
	<rect x="14.6" y="12.3" width="18.8" height="2"/>
	<rect x="14.6" y="18.6" width="18.8" height="2"/>
	<rect x="14.6" y="24.9" width="18.8" height="2"/>
</g>
</svg>
