<?xml version="1.0" encoding="utf-8"?>
<!-- Generator: Adobe Illustrator 18.0.0, SVG Export Plug-In . SVG Version: 6.00 Build 0)  -->
<!DOCTYPE svg PUBLIC "-//W3C//DTD SVG 1.1//EN" "http://www.w3.org/Graphics/SVG/1.1/DTD/svg11.dtd">
<svg version="1.1" id="Layer_1" xmlns="http://www.w3.org/2000/svg" xmlns:xlink="http://www.w3.org/1999/xlink" x="0px" y="0px"
	 viewBox="0 0 48 48" enable-background="new 0 0 48 48" xml:space="preserve">
<g>
	<g>
		<path d="M47,48H1c-0.6,0-1-0.4-1-1V20.9c0-0.6,0.4-1,1-1s1,0.4,1,1V46h44V20.9c0-0.6,0.4-1,1-1s1,0.4,1,1V47
			C48,47.6,47.6,48,47,48z"/>
		<path d="M39.9,26.7c-0.6,0-1-0.4-1-1V2H9.1v23.7c0,0.6-0.4,1-1,1s-1-0.4-1-1V1c0-0.6,0.4-1,1-1h31.8c0.6,0,1,0.4,1,1v24.7
			C40.9,26.3,40.5,26.7,39.9,26.7z"/>
		<path d="M24,37.3c-0.2,0-0.4-0.1-0.6-0.2l-23-15.4c-0.5-0.3-0.6-0.9-0.3-1.4c0.3-0.5,0.9-0.6,1.4-0.3l22.4,15l22.4-15
			c0.5-0.3,1.1-0.2,1.4,0.3c0.3,0.5,0.2,1.1-0.3,1.4l-23,15.4C24.4,37.2,24.2,37.3,24,37.3z"/>
		<path d="M47,21.9c-0.2,0-0.4-0.1-0.6-0.2l-7.1-5.5c-0.4-0.3-0.5-1-0.2-1.4c0.3-0.4,1-0.5,1.4-0.2l7.1,5.5c0.4,0.3,0.5,1,0.2,1.4
			C47.6,21.8,47.3,21.9,47,21.9z"/>
		<path d="M1,21.9c-0.3,0-0.6-0.1-0.8-0.4c-0.3-0.4-0.3-1.1,0.2-1.4l7.1-5.5c0.4-0.3,1.1-0.3,1.4,0.2c0.3,0.4,0.3,1.1-0.2,1.4
			l-7.1,5.5C1.4,21.8,1.2,21.9,1,21.9z"/>
	</g>
	<g>
		<path d="M28.5,22.9c-1.6,0.9-3.3,1.2-5.2,1.2c-4.8,0-8.9-3.5-8.9-9.2c0-6.1,4.2-11.3,10.7-11.3c5.1,0,8.5,3.6,8.5,8.5
			c0,4.4-2.5,7-5.2,7c-1.2,0-2.3-0.8-2.2-2.6h-0.1c-1,1.7-2.4,2.6-4.1,2.6s-3.2-1.4-3.2-3.7c0-3.6,2.9-7,7-7c1.3,0,2.4,0.3,3.1,0.6
			l-1,5.3c-0.4,2.2-0.1,3.3,0.9,3.3c1.5,0,3.2-2,3.2-5.4C32,8,29.4,5,24.9,5C20.1,5,16,8.8,16,14.7c0,4.9,3.2,7.9,7.5,7.9
			c1.7,0,3.2-0.4,4.4-1L28.5,22.9z M26.9,10.2c-0.3-0.1-0.8-0.2-1.5-0.2c-2.6,0-4.7,2.4-4.7,5.3c0,1.3,0.6,2.2,1.9,2.2
			c1.7,0,3.3-2.2,3.6-4L26.9,10.2z"/>
	</g>
</g>
</svg>
