<?xml version="1.0" encoding="utf-8"?>
<!-- Generator: Adobe Illustrator 16.0.0, SVG Export Plug-In . SVG Version: 6.00 Build 0)  -->
<!DOCTYPE svg PUBLIC "-//W3C//DTD SVG 1.1//EN" "http://www.w3.org/Graphics/SVG/1.1/DTD/svg11.dtd">
<svg version="1.1" id="Layer_1" xmlns="http://www.w3.org/2000/svg" xmlns:xlink="http://www.w3.org/1999/xlink" x="0px" y="0px"
	 width="48px" height="48px" viewBox="0 0 48 48" enable-background="new 0 0 48 48" xml:space="preserve">
<g>
	<path d="M31.986,19.608c-7.763,0-16.014-2.263-16.014-6.456s8.251-6.456,16.014-6.456C39.749,6.696,48,8.958,48,13.152
		S39.749,19.608,31.986,19.608z M31.986,8.696c-8.683,0-14.014,2.595-14.014,4.456s5.332,4.456,14.014,4.456S46,15.013,46,13.152
		S40.669,8.696,31.986,8.696z"/>
	<path d="M31.986,29.727c-8.831,0-16.015-7.436-16.015-16.575h2c0,8.037,6.287,14.575,14.015,14.575
		C39.714,27.727,46,21.188,46,13.152h2C48,22.291,40.816,29.727,31.986,29.727z"/>
	<path d="M16.259,41.305c-4.299,0-8.348-1.659-11.413-4.681C1.753,33.575,0.032,29.503,0,25.159
		c-0.032-4.344,1.63-8.439,4.68-11.532c0.387-0.393,1.021-0.398,1.414-0.01c0.393,0.388,0.397,1.021,0.01,1.414
		C3.43,17.743,1.973,21.335,2,25.145c0.028,3.811,1.537,7.381,4.25,10.056c2.688,2.648,6.238,4.104,10.008,4.104
		c0.036,0,0.071,0,0.106-0.001c3.81-0.027,7.381-1.537,10.055-4.25c0.388-0.394,1.021-0.397,1.414-0.01s0.397,1.021,0.01,1.414
		c-3.049,3.094-7.121,4.814-11.464,4.846C16.34,41.305,16.299,41.305,16.259,41.305z"/>
	<path d="M5.69,36.77c-0.253,0-0.507-0.096-0.702-0.288c-0.393-0.388-0.398-1.021-0.01-1.414l10.46-10.613
		c0.388-0.393,1.021-0.398,1.415-0.01c0.393,0.388,0.398,1.021,0.01,1.415L6.402,36.472C6.207,36.67,5.948,36.77,5.69,36.77z"/>
	<path d="M26.99,36.614c-0.254,0-0.507-0.096-0.702-0.288L4.834,15.181c-0.393-0.388-0.398-1.021-0.01-1.415
		c0.388-0.393,1.021-0.398,1.415-0.01l21.454,21.146c0.394,0.388,0.397,1.021,0.01,1.414C27.507,36.515,27.248,36.614,26.99,36.614z
		"/>
	<path d="M1.202,26.15c-0.549,0-0.996-0.443-1-0.993c-0.004-0.552,0.44-1.003,0.993-1.007l14.945-0.107c0.002,0,0.005,0,0.007,0
		c0.549,0,0.996,0.443,1,0.993c0.004,0.552-0.44,1.003-0.993,1.007L1.209,26.15C1.207,26.15,1.205,26.15,1.202,26.15z"/>
	<path d="M16.372,41.104c-0.549,0-0.996-0.443-1-0.993l-0.109-14.951c-0.004-0.552,0.44-1.003,0.993-1.007c0.002,0,0.005,0,0.007,0
		c0.549,0,0.996,0.443,1,0.993l0.109,14.951c0.004,0.552-0.44,1.003-0.993,1.007C16.377,41.104,16.375,41.104,16.372,41.104z"/>
	<path d="M32.393,14.152c-0.108,0-0.219-0.018-0.326-0.055L20.968,10.27c-0.522-0.18-0.799-0.749-0.619-1.271
		c0.179-0.522,0.748-0.801,1.271-0.619l10.31,3.556l2.582-4.589c0.27-0.481,0.878-0.654,1.361-0.381
		c0.481,0.271,0.652,0.88,0.381,1.362l-2.99,5.316C33.083,13.964,32.745,14.152,32.393,14.152z"/>
	<path d="M33.846,18.878c-0.415,0-0.803-0.26-0.945-0.675l-1.629-4.726c-0.105-0.306-0.057-0.643,0.131-0.906
		s0.491-0.419,0.814-0.419h14.178c0.553,0,1,0.448,1,1s-0.447,1-1,1H33.619l1.172,3.4c0.18,0.522-0.098,1.091-0.619,1.271
		C34.063,18.86,33.954,18.878,33.846,18.878z"/>
	<path d="M20.767,17.073c-0.446,0-0.853-0.301-0.968-0.753c-0.137-0.535,0.187-1.08,0.722-1.216l11.45-2.921
		c0.533-0.14,1.079,0.187,1.216,0.722s-0.187,1.08-0.722,1.216l-11.45,2.921C20.931,17.063,20.848,17.073,20.767,17.073z"/>
</g>
</svg>
