<?xml version="1.0" encoding="utf-8"?>
<!-- Generator: Adobe Illustrator 16.0.0, SVG Export Plug-In . SVG Version: 6.00 Build 0)  -->
<!DOCTYPE svg PUBLIC "-//W3C//DTD SVG 1.1//EN" "http://www.w3.org/Graphics/SVG/1.1/DTD/svg11.dtd">
<svg version="1.1" id="Layer_1" xmlns="http://www.w3.org/2000/svg" xmlns:xlink="http://www.w3.org/1999/xlink" x="0px" y="0px"
	 width="48px" height="48px" viewBox="0 0 48 48" enable-background="new 0 0 48 48" xml:space="preserve">
<g>
	<g>
		<g>
			<path d="M1,47.521c-0.552,0-1-0.447-1-1V24.193c0-0.552,0.448-1,1-1s1,0.448,1,1v22.329C2,47.074,1.552,47.521,1,47.521z"/>
			<path d="M12.959,48c-0.552,0-1-0.447-1-1v-8.779H1c-0.552,0-1-0.447-1-1s0.448-1,1-1h11.959c0.552,0,1,0.447,1,1V47
				C13.959,47.553,13.511,48,12.959,48z"/>
			<path d="M9.928,38.221c-0.146,0-0.294-0.031-0.434-0.1c-0.498-0.239-0.707-0.837-0.467-1.335l2.73-5.663H1.422
				c-0.552,0-1-0.447-1-1s0.448-1,1-1H13.35c0.344,0,0.664,0.177,0.847,0.468c0.183,0.292,0.204,0.656,0.054,0.967l-3.422,7.098
				C10.657,38.013,10.299,38.221,9.928,38.221z"/>
		</g>
		<g>
			<path d="M47,47.521c-0.553,0-1-0.447-1-1V24.193c0-0.552,0.447-1,1-1s1,0.448,1,1v22.329C48,47.074,47.553,47.521,47,47.521z"/>
			<path d="M35.041,48c-0.553,0-1-0.447-1-1v-9.779c0-0.553,0.447-1,1-1H47c0.553,0,1,0.447,1,1s-0.447,1-1,1H36.041V47
				C36.041,47.553,35.594,48,35.041,48z"/>
			<path d="M38.073,38.221c-0.372,0-0.729-0.208-0.901-0.565l-3.422-7.098c-0.149-0.311-0.13-0.675,0.054-0.967
				c0.183-0.291,0.503-0.468,0.847-0.468h11.928c0.553,0,1,0.447,1,1s-0.447,1-1,1H36.242l2.73,5.663
				c0.24,0.498,0.031,1.096-0.466,1.335C38.366,38.189,38.219,38.221,38.073,38.221z"/>
		</g>
	</g>
	<path d="M34.854,27.863H13.147c-0.552,0-1-0.447-1-1s0.448-1,1-1h21.707c0.553,0,1,0.447,1,1S35.406,27.863,34.854,27.863z"/>
	<path d="M24,47.521c-0.552,0-1-0.447-1-1V27.918c0-0.553,0.448-1,1-1c0.553,0,1,0.447,1,1v18.604
		C25,47.074,24.553,47.521,24,47.521z"/>
	<path d="M27.568,47.521h-7.135c-0.552,0-1-0.447-1-1s0.448-1,1-1h7.135c0.553,0,1,0.447,1,1S28.121,47.521,27.568,47.521z"/>
	<path d="M24,25.193c-0.552,0-1-0.448-1-1V15.26c0-0.552,0.448-1,1-1c0.553,0,1,0.448,1,1v8.933C25,24.745,24.553,25.193,24,25.193z
		"/>
	<path d="M42.469,15.781H5.531c-0.329,0-0.637-0.162-0.824-0.433c-0.187-0.271-0.228-0.616-0.111-0.924
		C7.088,7.893,15.067,3.33,24,3.33c8.934,0,16.913,4.563,19.403,11.095c0.117,0.308,0.075,0.653-0.111,0.924
		S42.798,15.781,42.469,15.781z M7.091,13.781h33.818C38.169,8.742,31.47,5.33,24,5.33C16.531,5.33,9.832,8.741,7.091,13.781z"/>
	<path d="M24,4.324c-0.552,0-1-0.448-1-1V1c0-0.552,0.448-1,1-1c0.553,0,1,0.448,1,1v2.324C25,3.876,24.553,4.324,24,4.324z"/>
</g>
</svg>
