<?xml version="1.0" encoding="utf-8"?>
<!-- Generator: Adobe Illustrator 16.0.0, SVG Export Plug-In . SVG Version: 6.00 Build 0)  -->
<!DOCTYPE svg PUBLIC "-//W3C//DTD SVG 1.1//EN" "http://www.w3.org/Graphics/SVG/1.1/DTD/svg11.dtd">
<svg version="1.1" id="Layer_1" xmlns="http://www.w3.org/2000/svg" xmlns:xlink="http://www.w3.org/1999/xlink" x="0px" y="0px"
	 width="48px" height="48px" viewBox="0 0 48 48" enable-background="new 0 0 48 48" xml:space="preserve">
<g>
	<path d="M47,48H1c-0.552,0-1-0.447-1-1V9.89c0-0.552,0.448-1,1-1h46c0.553,0,1,0.448,1,1V47C48,47.553,47.553,48,47,48z M2,46h44
		V10.89H2V46z"/>
	<path d="M43,10.18c-0.553,0-1-0.448-1-1V2H6v7.18c0,0.552-0.448,1-1,1s-1-0.448-1-1V1c0-0.552,0.448-1,1-1h38c0.553,0,1,0.448,1,1
		v8.18C44,9.732,43.553,10.18,43,10.18z"/>
	<g>
		<path d="M38.834,41.217H9.166c-0.552,0-1-0.447-1-1V23.68c0-0.552,0.448-1,1-1h29.668c0.553,0,1,0.448,1,1v16.537
			C39.834,40.77,39.387,41.217,38.834,41.217z M10.166,39.217h27.668V24.68H10.166V39.217z"/>
		<path d="M34.416,17.674H13.584c-0.552,0-1-0.448-1-1s0.448-1,1-1h20.832c0.553,0,1,0.448,1,1S34.969,17.674,34.416,17.674z"/>
	</g>
</g>
</svg>
