<?xml version="1.0" encoding="utf-8"?>
<!-- Generator: Adobe Illustrator 18.0.0, SVG Export Plug-In . SVG Version: 6.00 Build 0)  -->
<!DOCTYPE svg PUBLIC "-//W3C//DTD SVG 1.1//EN" "http://www.w3.org/Graphics/SVG/1.1/DTD/svg11.dtd">
<svg version="1.1" id="Layer_1" xmlns="http://www.w3.org/2000/svg" xmlns:xlink="http://www.w3.org/1999/xlink" x="0px" y="0px"
	 viewBox="0 0 48 48" enable-background="new 0 0 48 48" xml:space="preserve">
<g>
	<path fill="#010101" d="M48,38.5H0v-1C0,25.1,10.8,15,24,15s24,10.1,24,22.5V38.5z M2,36.5H46C45.4,25.7,35.8,17,24,17
		C12.2,17,2.6,25.7,2,36.5z"/>
	<rect x="23" y="1" fill="#010101" width="2" height="15"/>
	<path fill="#010101" d="M24,48c-5.5,0-10-4.2-10-9.4c0-0.3,0-0.5,0.1-0.8c0-0.1,0-0.2,0-0.3v-1h19.6l0.2,0.8
		c0.1,0.5,0.1,0.9,0.1,1.3C34,43.8,29.5,48,24,48z M16,38.5C16,38.5,16,38.6,16,38.5c0,4.2,3.6,7.5,8,7.5s8-3.3,8-7.4
		c0,0,0-0.1,0-0.1H16z"/>
</g>
</svg>
