<?xml version="1.0" encoding="utf-8"?>
<!-- Generator: Adobe Illustrator 18.0.0, SVG Export Plug-In . SVG Version: 6.00 Build 0)  -->
<!DOCTYPE svg PUBLIC "-//W3C//DTD SVG 1.1//EN" "http://www.w3.org/Graphics/SVG/1.1/DTD/svg11.dtd">
<svg version="1.1" id="Layer_1" xmlns="http://www.w3.org/2000/svg" xmlns:xlink="http://www.w3.org/1999/xlink" x="0px" y="0px"
	 viewBox="0 0 48 48" enable-background="new 0 0 48 48" xml:space="preserve">
<g>
	<path fill="#010101" d="M38.7,41.9H9.3c-0.6,0-1-0.4-1-1v-9.5c0-3.9,3.2-7.1,7.1-7.1h17.2c3.9,0,7.1,3.2,7.1,7.1v9.5
		C39.7,41.5,39.3,41.9,38.7,41.9z M10.3,39.9h27.4v-8.5c0-2.8-2.3-5.1-5.1-5.1H15.4c-2.8,0-5.1,2.3-5.1,5.1V39.9z"/>
	<path fill="#010101" d="M34.8,26.3H13.2c-0.6,0-1-0.4-1-1v-5.5c0-3.4,2.7-6.1,6.1-6.1h11.2c3.4,0,6.1,2.7,6.1,6.1v4.9
		c0.1,0.2,0.2,0.4,0.2,0.6C35.8,25.9,35.4,26.3,34.8,26.3z M14.2,24.3h19.4v-4.5c0-2.3-1.8-4.1-4.1-4.1H18.3c-2.3,0-4.1,1.8-4.1,4.1
		V24.3z"/>
	<path fill="#010101" d="M31.2,15.7H16.8c-0.6,0-1-0.4-1-1v-3.5c0-1.2,0.4-2.4,1.2-3.4l6.2-7.4C23.4,0.1,23.7,0,24,0c0,0,0,0,0,0
		c0.3,0,0.6,0.1,0.8,0.4l6.1,7.3c0.8,0.9,1.2,2.1,1.2,3.4v3.2c0.1,0.1,0.1,0.3,0.1,0.4C32.2,15.3,31.8,15.7,31.2,15.7z M17.8,13.7
		h12.3v-2.6c0-0.6-0.1-1.4-0.8-2.1L24,2.6L18.6,9c-0.5,0.6-0.8,1.4-0.8,2.2V13.7z"/>
	<g>
		<path fill="#010101" d="M9.3,29.5h-6c-0.6,0-1-0.4-1-1s0.4-1,1-1h6c0.6,0,1,0.4,1,1S9.9,29.5,9.3,29.5z"/>
		<path fill="#010101" d="M44.7,29.5h-6c-0.6,0-1-0.4-1-1s0.4-1,1-1h6c0.6,0,1,0.4,1,1S45.3,29.5,44.7,29.5z"/>
	</g>
	<g>
		<path fill="#010101" d="M13.2,18.6H8.4c-0.6,0-1-0.4-1-1s0.4-1,1-1h4.8c0.6,0,1,0.4,1,1S13.8,18.6,13.2,18.6z"/>
		<path fill="#010101" d="M39.6,18.6h-4.8c-0.6,0-1-0.4-1-1s0.4-1,1-1h4.8c0.6,0,1,0.4,1,1S40.2,18.6,39.6,18.6z"/>
	</g>
	<g>
		<path fill="#010101" d="M16.8,10.5h-3.9c-0.6,0-1-0.4-1-1s0.4-1,1-1h3.9c0.6,0,1,0.4,1,1S17.4,10.5,16.8,10.5z"/>
		<path fill="#010101" d="M35.1,10.5h-3.9c-0.6,0-1-0.4-1-1s0.4-1,1-1h3.9c0.6,0,1,0.4,1,1S35.7,10.5,35.1,10.5z"/>
	</g>
	<g>
		<path fill="#010101" d="M1.9,48c-0.6,0-1-0.4-1-1v-3c0-0.6,0.4-1,1-1h2.5v-2.1c0-0.6,0.4-1,1-1h3.9c0.6,0,1,0.4,1,1s-0.4,1-1,1
			H6.4V44c0,0.6-0.4,1-1,1H2.9v2C2.9,47.6,2.5,48,1.9,48z"/>
		<path fill="#010101" d="M46.1,48c-0.6,0-1-0.4-1-1v-2h-2.5c-0.6,0-1-0.4-1-1v-2.1h-2.9c-0.6,0-1-0.4-1-1s0.4-1,1-1h3.9
			c0.6,0,1,0.4,1,1V43h2.5c0.6,0,1,0.4,1,1v3C47.1,47.6,46.7,48,46.1,48z"/>
	</g>
	<path fill="#010101" d="M28.1,41.9h-8.2c-0.6,0-1-0.4-1-1v-7.1c0-2.9,2.2-5.1,5.1-5.1c2.9,0,5.1,2.2,5.1,5.1v7.1
		C29.1,41.5,28.7,41.9,28.1,41.9z M20.9,39.9h6.2v-6.1c0-1.7-1.4-3.1-3.1-3.1s-3.1,1.4-3.1,3.1V39.9z"/>
	<path fill="#010101" d="M26.8,22.8h-5.6c-0.6,0-1-0.4-1-1v-3.7c0-0.6,0.4-1,1-1h5.6c0.6,0,1,0.4,1,1v3.7
		C27.8,22.4,27.4,22.8,26.8,22.8z M22.2,20.8h3.6v-1.7h-3.6V20.8z"/>
	<path fill="#010101" d="M26.1,12.7h-4.3c-0.6,0-1-0.4-1-1V8.8c0-0.6,0.4-1,1-1h4.3c0.6,0,1,0.4,1,1v2.9
		C27.1,12.3,26.7,12.7,26.1,12.7z M22.8,10.7h2.3V9.8h-2.3V10.7z"/>
</g>
</svg>
