<?xml version="1.0" encoding="utf-8"?>
<!-- Generator: Adobe Illustrator 18.0.0, SVG Export Plug-In . SVG Version: 6.00 Build 0)  -->
<!DOCTYPE svg PUBLIC "-//W3C//DTD SVG 1.1//EN" "http://www.w3.org/Graphics/SVG/1.1/DTD/svg11.dtd">
<svg version="1.1" id="Layer_1" xmlns="http://www.w3.org/2000/svg" xmlns:xlink="http://www.w3.org/1999/xlink" x="0px" y="0px"
	 viewBox="0 0 48 48" enable-background="new 0 0 48 48" xml:space="preserve">
<g>
	<path fill="#010101" d="M20.6,17.3c-0.1,0-0.1,0-0.2,0c-0.4-0.1-0.8-0.4-0.8-0.9c0-0.4-0.8-9.2,3.3-13.7c3.5-3.9,9.5-3.5,17.5,1.3
		c0.4,0.2,0.6,0.7,0.5,1.1s-0.5,0.7-1,0.7c-0.1,0-12.9,0.2-18.4,11C21.3,17.1,21,17.3,20.6,17.3z M29.2,2c-2,0-3.6,0.7-4.8,2
		c-2.1,2.3-2.7,6.1-2.8,8.9c4.5-6,11.1-8.1,15.1-8.7C33.8,2.7,31.3,2,29.2,2z"/>
	<path fill="#010101" d="M43,27.4c-0.3,0-0.7-0.2-0.8-0.5c-5.2-8.4-15.6-9.3-19.8-9.3c-1.5,0-2.4,0.1-2.4,0.1
		c-0.5,0-0.9-0.2-1.1-0.6c-0.2-0.4,0-0.9,0.4-1.2c7-4.8,12.6-7.2,16.7-7.2c2.6,0,4.7,0.9,6.1,2.7c4,4.9,2,14.8,1.9,15.2
		c-0.1,0.4-0.4,0.7-0.8,0.8C43.1,27.4,43.1,27.4,43,27.4z M23.3,15.6c4.6,0.1,13.5,1.4,19.1,8.2c0.3-3.1,0.5-8.3-1.8-11.1
		C37.7,9.2,31.9,10.3,23.3,15.6z"/>
	<path fill="#010101" d="M12.5,36.7c-0.3,0-0.5-0.1-0.7-0.3l-0.1-0.1C7.9,32.9,2,26.4,4,21.2c1.5-3.9,6.9-5.8,16.6-5.8
		c0.4,0,0.8,0.2,0.9,0.6c0.2,0.4,0.1,0.8-0.2,1.1c-0.1,0.1-10.1,9.8-7.8,18.3c0,0.1,0,0.2,0,0.3C13.5,36.3,13.1,36.7,12.5,36.7z
		 M18.2,17.5C11.1,17.8,6.9,19.3,5.9,22c-1,2.5,1,6.6,5.3,11C11,26.6,15.6,20.4,18.2,17.5z"/>
	<path fill="#010101" d="M20.6,17.3c-0.3,0-0.5-0.1-0.7-0.3c-1.3-1.4-3.9-2.1-7.6-2.1c-3.9,0-7.6,0.8-7.7,0.8
		c-0.4,0.1-0.8-0.1-1-0.4c-0.2-0.3-0.3-0.7-0.1-1.1C6.5,8.7,9.4,6,12.5,6c5.7,0,8.9,9.6,9,10c0.1,0.4,0,0.9-0.4,1.2
		C20.9,17.3,20.8,17.3,20.6,17.3z M12.3,12.9c2.5,0,4.6,0.3,6.2,0.9C17.1,11.1,15,8,12.5,8c-1.9,0-4,1.8-6.2,5.3
		C7.8,13.1,10,12.9,12.3,12.9z"/>
	<path fill="#010101" d="M36.9,48H18.6c-0.6,0-1-0.4-1-1s0.4-1,1-1h18.3c0.6,0,1,0.4,1,1S37.5,48,36.9,48z"/>
	<path fill="#010101" d="M32.8,48H22.4c-0.3,0-0.5-0.1-0.7-0.3s-0.3-0.5-0.3-0.8C22.7,30.9,21,21.3,19.8,17
		c-0.1-0.4-0.2-0.8,0.1-1.2c0.3-0.4,0.9-0.5,1.4-0.2C34.5,24.8,33.8,46.1,33.8,47C33.8,47.6,33.3,48,32.8,48z M23.5,46h8.3
		c0-3.9-0.8-18.8-9.5-27C23.4,24.1,24.5,32.9,23.5,46z"/>
</g>
</svg>
