<?xml version="1.0" encoding="utf-8"?>
<!-- Generator: Adobe Illustrator 18.0.0, SVG Export Plug-In . SVG Version: 6.00 Build 0)  -->
<!DOCTYPE svg PUBLIC "-//W3C//DTD SVG 1.1//EN" "http://www.w3.org/Graphics/SVG/1.1/DTD/svg11.dtd">
<svg version="1.1" id="Layer_1" xmlns="http://www.w3.org/2000/svg" xmlns:xlink="http://www.w3.org/1999/xlink" x="0px" y="0px"
	 viewBox="0 0 48 48" enable-background="new 0 0 48 48" xml:space="preserve">
<g>
	<g>
		<path fill="#010101" d="M38.4,21.7H9.6L13.9,9h20.2L38.4,21.7z M12.4,19.7h23.2L32.7,11H15.3L12.4,19.7z"/>
		<path fill="#010101" d="M41.5,32.2h-35l1.1-12.5h32.8L41.5,32.2z M8.7,30.2h30.6l-0.7-8.5H9.4L8.7,30.2z"/>
		<g>
			<path fill="#010101" d="M14.4,29.4c-1.9,0-3.4-1.5-3.4-3.4s1.5-3.4,3.4-3.4s3.4,1.5,3.4,3.4S16.3,29.4,14.4,29.4z M14.4,24.6
				c-0.8,0-1.4,0.6-1.4,1.4c0,0.8,0.6,1.4,1.4,1.4s1.4-0.6,1.4-1.4C15.8,25.2,15.2,24.6,14.4,24.6z"/>
			<path fill="#010101" d="M33.6,29.4c-1.9,0-3.4-1.5-3.4-3.4s1.5-3.4,3.4-3.4c1.9,0,3.4,1.5,3.4,3.4S35.5,29.4,33.6,29.4z
				 M33.6,24.6c-0.8,0-1.4,0.6-1.4,1.4c0,0.8,0.6,1.4,1.4,1.4c0.8,0,1.4-0.6,1.4-1.4C35,25.2,34.4,24.6,33.6,24.6z"/>
		</g>
		<g>
			<rect x="10.5" y="33.2" fill="#010101" width="2" height="4.8"/>
			<rect x="35.5" y="33.2" fill="#010101" width="2" height="4.8"/>
		</g>
	</g>
	<path fill="#010101" d="M24,48C10.8,48,0,37.2,0,24c0-2.2,0.2-4.2,0.7-6l1.9,0.5C2.2,20.2,2,22,2,24c0,12.1,9.9,22,22,22
		s22-9.9,22-22S36.1,2,24,2c-3.2,0-6.5,0.7-9.5,2.1l-0.8-1.8C16.9,0.8,20.5,0,24,0c13.2,0,24,10.8,24,24S37.2,48,24,48z"/>
	<g>
		<path fill="#010101" d="M2.4,16.2v-14H7c1.7,0,2.8,0.1,3.4,0.2c0.8,0.2,1.5,0.7,2,1.4s0.8,1.6,0.8,2.7c0,0.9-0.2,1.6-0.5,2.2
			c-0.3,0.6-0.7,1-1.2,1.4c-0.5,0.3-1,0.6-1.5,0.7C9.3,10.9,8.3,11,7.1,11H5.3v5.3L2.4,16.2L2.4,16.2z M5.3,4.5v4h1.6
			c1.1,0,1.9-0.1,2.2-0.2C9.5,8.2,9.8,7.9,10,7.6c0.2-0.3,0.3-0.7,0.3-1.1c0-0.5-0.1-0.9-0.4-1.3C9.5,4.9,9.1,4.7,8.7,4.6
			c-0.3-0.1-1-0.1-2-0.1H5.3z"/>
	</g>
</g>
</svg>
