<?xml version="1.0" encoding="utf-8"?>
<!-- Generator: Adobe Illustrator 18.0.0, SVG Export Plug-In . SVG Version: 6.00 Build 0)  -->
<!DOCTYPE svg PUBLIC "-//W3C//DTD SVG 1.1//EN" "http://www.w3.org/Graphics/SVG/1.1/DTD/svg11.dtd">
<svg version="1.1" id="Layer_1" xmlns="http://www.w3.org/2000/svg" xmlns:xlink="http://www.w3.org/1999/xlink" x="0px" y="0px"
	 viewBox="0 0 48 48" enable-background="new 0 0 48 48" xml:space="preserve">
<g>
	<path fill="#010101" d="M29.7,48h-20C4.4,48,0,43.6,0,38.3c0-5,3.7-9.1,8.5-9.7c0.4-5.8,5.1-10.5,10.9-10.5l0.2,0
		c6,0,10.8,4.5,11.2,10.4c4.8,0.5,8.6,4.6,8.6,9.7C39.4,43.6,35,48,29.7,48z M19.4,20.1c-4.9,0-8.9,4.1-8.9,9.2v1.2l-1,0
		C5.4,30.6,2,34.1,2,38.3C2,42.5,5.5,46,9.7,46h20c4.2,0,7.7-3.5,7.7-7.8c0-4.2-3.4-7.7-7.6-7.7h-1v-1.2c0-5.2-4-9.2-9.2-9.2
		L19.4,20.1z"/>
	<path fill="#010101" d="M30.1,28.8v-2c0.7,0,1.3,0,2-0.1c2.4-0.3,4.6-1.6,6.1-3.5c1.5-2,2.2-4.5,1.9-7c-0.7-5.2-5.4-8.7-10.6-8
		c-2.4,0.3-4.6,1.6-6.1,3.5c-1.5,2-2.2,4.5-1.9,7l-2,0.3c-0.4-3.1,0.4-6.1,2.2-8.5c1.8-2.4,4.5-3.9,7.4-4.3c6.3-0.8,12,3.5,12.8,9.8
		c0.4,3.1-0.4,6.1-2.2,8.5c-1.8,2.4-4.5,3.9-7.4,4.3C31.6,28.8,30.8,28.8,30.1,28.8z"/>
	<rect x="27" y="1.7" transform="matrix(0.1414 0.9899 -0.9899 0.1414 27.4065 -26.1)" fill="#010101" width="3.5" height="2"/>
	
		<rect x="44.3" y="13.6" transform="matrix(0.1416 0.9899 -0.9899 0.1416 54.0368 -31.6178)" fill="#010101" width="2" height="3.5"/>
	
		<rect x="38.6" y="3.8" transform="matrix(0.7863 0.6178 -0.6178 0.7863 11.9217 -23.2692)" fill="#010101" width="2" height="3.6"/>
	<g>
		
			<rect x="40.6" y="25.3" transform="matrix(0.7863 0.6179 -0.6179 0.7863 25.3126 -20.577)" fill="#010101" width="3.6" height="2"/>
		<rect x="17.4" y="7.5" transform="matrix(0.8 0.6 -0.6 0.8 8.891 -9.7706)" fill="#010101" width="3.5" height="2"/>
	</g>
</g>
</svg>
