<?xml version="1.0" encoding="utf-8"?>
<!-- Generator: Adobe Illustrator 16.0.0, SVG Export Plug-In . SVG Version: 6.00 Build 0)  -->
<!DOCTYPE svg PUBLIC "-//W3C//DTD SVG 1.1//EN" "http://www.w3.org/Graphics/SVG/1.1/DTD/svg11.dtd">
<svg version="1.1" id="Layer_1" xmlns="http://www.w3.org/2000/svg" xmlns:xlink="http://www.w3.org/1999/xlink" x="0px" y="0px"
	 width="48px" height="48px" viewBox="0 0 48 48" enable-background="new 0 0 48 48" xml:space="preserve">
<g>
	<path d="M5.934,42.483L5.934,42.483c-2.519,0-4.336-1.408-5.401-4.186c-1.686-4.4,0.572-14.549,5.953-17.585
		c4.595-2.596,6.854-7.578,6.875-7.627c0.02-0.044,0.042-0.087,0.068-0.127c3.886-6.15,9.064-7.441,12.725-7.441
		c2.885,0,4.954,0.802,5.041,0.836c0.127,0.039,1.772,0.606,2.195,2.019c0.172,0.577,0.194,1.491-0.68,2.576
		c-0.904,1.125-1.116,2.634-1.118,2.648c-0.237,6.484-4.626,10.017-4.813,10.164c-0.074,0.059-0.159,0.107-0.247,0.143
		c-0.053,0.021-5.232,2.159-6.646,7.129c-1.647,5.789-6.66,9.41-10.451,10.751C8.101,42.255,6.956,42.483,5.934,42.483z
		 M15.155,13.97c-0.319,0.687-2.778,5.711-7.687,8.484c-4.341,2.45-6.419,11.599-5.068,15.127c0.987,2.571,2.407,2.901,3.534,2.901
		l0,0c0.792,0,1.718-0.191,2.834-0.586c3.342-1.183,7.756-4.357,9.194-9.413c1.556-5.466,6.677-7.939,7.669-8.372
		c0.581-0.51,3.778-3.548,3.97-8.679c0.018-0.172,0.281-2.161,1.552-3.74c0.253-0.313,0.369-0.586,0.321-0.748
		c-0.089-0.297-0.658-0.615-0.952-0.71c-0.075-0.027-1.883-0.718-4.368-0.718C23.007,7.517,18.55,8.638,15.155,13.97z"/>
	<path d="M14.632,42.067c-1.751,0-3.266-0.266-4.334-0.528c-0.537-0.131-0.865-0.673-0.733-1.209s0.672-0.872,1.209-0.732
		c2.167,0.531,6.404,1.084,10.434-1.2c4.942-2.799,10.324-0.967,11.336-0.578c0.78,0.043,5.185,0.121,8.921-3.398
		c0.134-0.11,1.717-1.341,3.729-1.575c0.4-0.046,0.675-0.159,0.755-0.309c0.145-0.274-0.037-0.9-0.181-1.174
		c-0.193-0.429-4.259-9.159-14.97-6.701c-0.536,0.199-3.788,1.34-7.743,1.192c-0.552-0.021-0.983-0.484-0.962-1.036
		c0.021-0.552,0.489-0.994,1.037-0.962c3.812,0.149,6.982-1.072,7.015-1.084c0.044-0.017,0.09-0.032,0.136-0.042
		c12.416-2.896,17.241,7.658,17.289,7.766c0.063,0.116,0.838,1.675,0.146,2.979c-0.281,0.531-0.908,1.199-2.292,1.358
		c-1.432,0.167-2.643,1.093-2.654,1.103c-4.718,4.45-10.323,3.894-10.562,3.864c-0.095-0.011-0.189-0.035-0.277-0.072
		c-0.052-0.021-5.238-2.134-9.736,0.411C19.579,41.62,16.905,42.067,14.632,42.067z"/>
	<path d="M21.894,14.074c-0.256,0-0.512-0.098-0.708-0.293c-0.39-0.391-0.39-1.024,0.001-1.414l0.913-0.912
		c0.39-0.39,1.024-0.39,1.414,0.001c0.39,0.391,0.39,1.024-0.001,1.414l-0.913,0.912C22.406,13.977,22.15,14.074,21.894,14.074z"/>
	<path d="M17.328,18.792c-0.256,0-0.512-0.098-0.707-0.293c-0.391-0.391-0.391-1.023,0-1.414l0.912-0.912
		c0.391-0.391,1.023-0.391,1.414,0s0.391,1.023,0,1.414l-0.912,0.912C17.84,18.694,17.584,18.792,17.328,18.792z"/>
	<path d="M11.619,24.685c-0.256,0-0.512-0.097-0.707-0.292c-0.391-0.39-0.391-1.023-0.001-1.414l0.913-0.914
		c0.391-0.392,1.024-0.391,1.414-0.001c0.391,0.39,0.391,1.023,0.001,1.414l-0.913,0.914C12.131,24.587,11.875,24.685,11.619,24.685
		z"/>
	<path d="M7.731,30.244c-0.162,0-0.326-0.039-0.479-0.122c-0.485-0.266-0.663-0.873-0.398-1.357l0.619-1.133
		c0.265-0.484,0.872-0.663,1.357-0.398c0.485,0.266,0.663,0.873,0.398,1.357l-0.619,1.133C8.428,30.056,8.085,30.244,7.731,30.244z"
		/>
	<path d="M23.473,31.053c-0.46,0-0.874-0.319-0.976-0.787c-0.118-0.539,0.224-1.072,0.764-1.189l1.29-0.281
		c0.537-0.127,1.072,0.225,1.189,0.764c0.118,0.539-0.224,1.072-0.764,1.189l-1.29,0.281C23.615,31.046,23.544,31.053,23.473,31.053
		z"/>
	<path d="M30.168,29.818c-0.46,0-0.874-0.319-0.976-0.787c-0.118-0.539,0.224-1.072,0.764-1.189l1.289-0.281
		c0.538-0.127,1.072,0.224,1.189,0.764c0.118,0.539-0.224,1.072-0.764,1.189l-1.289,0.281
		C30.311,29.812,30.238,29.818,30.168,29.818z"/>
	<path d="M38.496,31.346c-0.006,0-0.012,0-0.018,0l-1.319-0.023c-0.553-0.01-0.992-0.466-0.982-1.018s0.453-1.005,1.018-0.982
		l1.319,0.023c0.553,0.01,0.992,0.466,0.982,1.018C39.486,30.909,39.04,31.346,38.496,31.346z"/>
	<path d="M31.84,34.564c-0.006,0-0.012,0-0.018,0l-1.318-0.023c-0.553-0.01-0.992-0.466-0.982-1.018s0.465-0.971,1.018-0.982
		l1.318,0.023c0.553,0.01,0.992,0.466,0.982,1.018C32.83,34.128,32.384,34.564,31.84,34.564z"/>
	<path d="M22.828,35.803c-0.46,0-0.874-0.319-0.976-0.787c-0.118-0.539,0.225-1.072,0.764-1.189l1.29-0.281
		c0.539-0.124,1.072,0.224,1.189,0.764c0.118,0.539-0.224,1.072-0.764,1.189l-1.29,0.281C22.97,35.796,22.899,35.803,22.828,35.803z
		"/>
	<path d="M11.764,33.148c-0.162,0-0.326-0.039-0.478-0.122c-0.485-0.265-0.664-0.872-0.399-1.356l0.619-1.135
		c0.264-0.485,0.87-0.666,1.356-0.399c0.485,0.265,0.664,0.872,0.399,1.356l-0.619,1.135C12.461,32.96,12.119,33.148,11.764,33.148z
		"/>
	<path d="M7.112,36.826c-0.162,0-0.326-0.039-0.478-0.122c-0.485-0.265-0.664-0.872-0.399-1.356l0.619-1.135
		c0.265-0.484,0.871-0.663,1.357-0.399c0.485,0.265,0.664,0.872,0.399,1.356l-0.619,1.135C7.809,36.638,7.466,36.826,7.112,36.826z"
		/>
	<path d="M15.196,28.279c-0.162,0-0.326-0.039-0.479-0.122c-0.485-0.266-0.663-0.873-0.398-1.357l0.619-1.133
		c0.265-0.484,0.872-0.663,1.357-0.398c0.485,0.266,0.663,0.873,0.398,1.357l-0.619,1.133C15.893,28.091,15.55,28.279,15.196,28.279
		z"/>
	<path d="M19.747,22.664c-0.274,0-0.546-0.112-0.744-0.331c-0.369-0.411-0.336-1.043,0.075-1.413l0.961-0.864
		c0.412-0.37,1.042-0.335,1.413,0.075c0.369,0.411,0.336,1.043-0.075,1.413l-0.961,0.864C20.224,22.58,19.985,22.664,19.747,22.664z
		"/>
	<path d="M24.107,17.88c-0.274,0-0.547-0.112-0.745-0.332c-0.369-0.411-0.335-1.043,0.076-1.412l0.961-0.863
		c0.41-0.368,1.043-0.336,1.412,0.076c0.369,0.411,0.335,1.043-0.076,1.412l-0.962,0.863C24.584,17.795,24.345,17.88,24.107,17.88z"
		/>
</g>
</svg>
