<?xml version="1.0" encoding="utf-8"?>
<!-- Generator: Adobe Illustrator 16.0.0, SVG Export Plug-In . SVG Version: 6.00 Build 0)  -->
<!DOCTYPE svg PUBLIC "-//W3C//DTD SVG 1.1//EN" "http://www.w3.org/Graphics/SVG/1.1/DTD/svg11.dtd">
<svg version="1.1" id="Layer_1" xmlns="http://www.w3.org/2000/svg" xmlns:xlink="http://www.w3.org/1999/xlink" x="0px" y="0px"
	 width="48px" height="48px" viewBox="0 0 48 48" enable-background="new 0 0 48 48" xml:space="preserve">
<g>
	<path d="M24.077,48.001C24.076,48.001,24.077,48.001,24.077,48.001c-1.963,0-3.945-0.421-5.891-1.25
		c-3.573-1.521-5.932-4.152-6.823-7.608c-1.152-4.471,0.381-9.54,2.491-12.237c2.973-3.798,3.766-6.615,4.417-11.494
		c0.545-4.097,3.298-5.39,4.89-5.796c0.121-0.03,0.244-0.038,0.367-0.023l2.306,0.279c0.148,0.018,0.291,0.069,0.417,0.149
		c1.756,1.118,3.704,3.44,3.418,6.306c-0.262,2.617,1.336,5.972,2.018,7.405c0.146,0.304,0.255,0.538,0.313,0.682
		c0.023,0.017,0.271,0.269,0.472,0.471c1.365,1.38,4.563,4.613,4.563,10.851c0,3.115-1.364,6.229-3.743,8.544
		C30.823,46.679,27.551,48.001,24.077,48.001z M23.482,11.601c-1.315,0.384-2.874,1.408-3.229,4.075
		c-0.687,5.146-1.584,8.323-4.824,12.462c-1.764,2.254-3.11,6.703-2.13,10.506c0.74,2.872,2.648,4.98,5.67,6.268
		c4.657,1.982,9.635,1.136,12.926-2.066c1.994-1.94,3.138-4.532,3.138-7.11c0-5.416-2.691-8.137-3.984-9.444
		c-0.458-0.463-0.76-0.769-0.906-1.134c-0.049-0.12-0.142-0.313-0.262-0.565c-0.754-1.583-2.519-5.291-2.202-8.463
		c0.198-1.979-1.29-3.575-2.322-4.299L23.482,11.601z"/>
	<path d="M19.842,9.605c0,0-0.001,0-0.001,0c-1.837,0-4.102-0.63-6.733-1.873c-0.29-0.137-0.497-0.405-0.556-0.72
		s0.037-0.64,0.257-0.872c0.119-0.125,2.954-3.07,6.896-3.07c1.698,0,3.336,0.547,4.871,1.626c0.296,0.208,0.456,0.559,0.42,0.918
		C24.856,6.995,23.601,9.605,19.842,9.605z M15.42,6.563c1.728,0.692,3.21,1.043,4.421,1.043h0c1.999,0,2.739-0.991,3.011-1.641
		c-1.017-0.594-2.073-0.894-3.148-0.894C17.937,5.07,16.405,5.875,15.42,6.563z"/>
	<path d="M24.482,11.48c-0.523,0-0.963-0.406-0.997-0.936c-0.019-0.292-0.409-7.178,3.783-10.342c0.44-0.332,1.067-0.245,1.4,0.196
		s0.245,1.068-0.195,1.401c-3.328,2.512-2.995,8.558-2.992,8.619c0.034,0.551-0.384,1.025-0.935,1.06
		C24.524,11.48,24.503,11.48,24.482,11.48z"/>
</g>
</svg>
