<?xml version="1.0" encoding="utf-8"?>
<!-- Generator: Adobe Illustrator 18.0.0, SVG Export Plug-In . SVG Version: 6.00 Build 0)  -->
<!DOCTYPE svg PUBLIC "-//W3C//DTD SVG 1.1//EN" "http://www.w3.org/Graphics/SVG/1.1/DTD/svg11.dtd">
<svg version="1.1" id="Layer_1" xmlns="http://www.w3.org/2000/svg" xmlns:xlink="http://www.w3.org/1999/xlink" x="0px" y="0px"
	 viewBox="0 0 48 48" enable-background="new 0 0 48 48" xml:space="preserve">
<g>
	<g>
		<path fill="#010101" d="M9.6,24.1l-0.9-0.6c-1.6-1-3.8-1.4-5.8-0.9c-0.2,0.1-0.4,0.1-0.7,0.2C1.9,23,1.6,23,1.4,23.1l-1.5,0.6
			L0,22.1c0.7-7.9,8-15,17.9-17.3c2.1-0.5,4.2-0.7,6.2-0.7c7.6,0,14.3,3.2,17.5,8.5l0.9,1.5h-1.8c-0.3,0-0.8,0.1-1.4,0.2
			c-2.1,0.5-4,1.7-4.9,3.3l-0.5,0.9l-0.9-0.6c-1.6-1-3.8-1.4-5.8-0.9c-2.3,0.5-4.1,1.7-5,3.3l-0.5,0.9l-0.9-0.6
			c-1.6-1-3.8-1.4-5.8-0.9c-2.3,0.5-4.1,1.7-5,3.3L9.6,24.1z M4.8,20.4c1.5,0,2.9,0.3,4.1,0.9c1.3-1.7,3.3-2.9,5.7-3.4
			c2.2-0.5,4.6-0.3,6.5,0.6c1.3-1.7,3.3-2.9,5.7-3.4c2.2-0.5,4.6-0.3,6.5,0.7c1.3-1.7,3.4-2.9,5.7-3.5c0,0,0,0,0,0
			c-3.1-3.9-8.7-6.2-14.9-6.2c-1.9,0-3.9,0.2-5.8,0.7c-8.4,1.9-14.8,7.6-16.1,14c0,0,0,0,0.1,0C3.2,20.5,4,20.4,4.8,20.4z"/>
		
			<rect x="10.6" y="32.5" transform="matrix(0.2238 0.9746 -0.9746 0.2238 51.6672 2.1245)" fill="#010101" width="27.7" height="2"/>
	</g>
	<polygon fill="#010101" points="42.7,47.7 38.3,43.7 6.1,43.7 0.3,33.3 2.1,32.3 7.3,41.7 39.1,41.7 44.1,46.3 	"/>
	<path fill="#010101" d="M6.7,32.8c-2.2,0-3.9-1.7-3.9-3.9S4.5,25,6.7,25c2.2,0,3.9,1.8,3.9,3.9S8.9,32.8,6.7,32.8z M6.7,27
		c-1,0-1.9,0.9-1.9,1.9c0,1,0.9,1.9,1.9,1.9s1.9-0.9,1.9-1.9C8.6,27.9,7.7,27,6.7,27z"/>
	<path fill="#010101" d="M45.3,44.3c-0.7,0-1.5-0.1-2.2-0.8c-4.4-4.2-8.8-5.1-11.6-5.1c-0.3,0-0.7,0-1,0c-0.7,1.3-2.1,2.2-3.5,2.4
		c-5,0.6-10,0.3-14.6-1c-2.1-0.6-3.6-2.8-3.4-5l0-0.2c0.1-1.9,1.5-3.2,3.3-3.2c0.4,0,0.8,0.1,1.2,0.2c4.6,1.2,9.3,1.5,13.8,1l0.1,0
		c0.8,0,1.4,0.1,2,0.4c0.7-0.1,1.5-0.1,2.3-0.1c3.9,0,9.7,1.2,15.5,6.7c0.6,0.5,0.9,1.2,0.9,1.9c0,0.8-0.3,1.5-0.8,2.1
		C46.7,44,46,44.3,45.3,44.3z M31.5,36.4c3.2,0,8.1,1,13,5.7c0.1,0.1,0.3,0.2,0.8,0.2c0.1,0,0.2-0.1,0.3-0.2l0.1-0.1
		c0.2-0.2,0.3-0.4,0.3-0.7c0-0.2-0.1-0.3-0.3-0.5c-5.4-5.1-10.7-6.1-14.2-6.1c-0.8,0-1.6,0.1-2.3,0.2l-0.4,0.1l-0.3-0.2
		c-0.3-0.2-0.7-0.3-1.2-0.3c-4.7,0.6-9.7,0.2-14.5-1c-0.2-0.1-0.4-0.1-0.6-0.1c-0.8,0-1.3,0.5-1.3,1.3l0,0.2c-0.1,1.3,0.8,2.7,2,3
		c4.3,1.2,9.1,1.6,13.8,1c0.9-0.1,1.8-0.9,2.2-1.8l0.2-0.5l0.6-0.1C30.3,36.4,30.9,36.4,31.5,36.4z"/>
	<rect x="6.6" y="41.8" transform="matrix(0.7151 0.699 -0.699 0.7151 33.5157 7.4646)" fill="#010101" width="2" height="6"/>
	
		<rect x="14.8" y="2.3" transform="matrix(0.2124 0.9772 -0.9772 0.2124 16.7712 -14.2086)" fill="#010101" width="4.7" height="2"/>
</g>
</svg>
