<?xml version="1.0" encoding="utf-8"?>
<!-- Generator: Adobe Illustrator 18.0.0, SVG Export Plug-In . SVG Version: 6.00 Build 0)  -->
<!DOCTYPE svg PUBLIC "-//W3C//DTD SVG 1.1//EN" "http://www.w3.org/Graphics/SVG/1.1/DTD/svg11.dtd">
<svg version="1.1" id="Layer_1" xmlns="http://www.w3.org/2000/svg" xmlns:xlink="http://www.w3.org/1999/xlink" x="0px" y="0px"
	 viewBox="0 0 48 48" enable-background="new 0 0 48 48" xml:space="preserve">
<g>
	<path fill="#010101" d="M31.6,48.1h-3.4c-0.3,0-0.6,0-1-0.2c-0.5-0.2-0.7-0.7-0.8-1l-0.1-0.2c-0.6-1.7-1.1-3.4-1.6-5
		c-0.6-2-1.3-3.9-1.9-5.8c-3.9,0.3-7.4,0.5-10.9,0.5c0,3.6,0,7,0.1,10.6l0,0.9L11,47.9c-2,0.2-4,0.2-6.9-0.1l-0.9-0.1v-0.9
		c0-3.3,0-6.6,0-9.9c0-3.3,0-6.5,0-9.8c0-1.6,0.1-3.3,1.1-4.5c1.5-1.8,3.9-2.1,6.2-2.1c1,0,2,0,3,0c1,0,2-0.1,3-0.1
		c1.8,0,3.2-0.1,4.5-0.7c2.1-1,3.3-3.3,4.4-5.6l0.2-0.4c1.4-2.7,3.1-5.2,5.7-6c0.1-1.5,0.7-3,1.7-4L33.7,3l0.7,0.6
		c1.4,1.2,2.3,2.7,2.7,4.4c1.5,0.2,2.9,1,3.9,2.5c0.8,1.1,1.3,2.3,1.8,3.4c0.1,0.3,0.2,0.6,0.4,0.9c0.6,1.4,1.2,2.6,2.3,3.4
		c0.2,0.2,0.4,0.3,0.6,0.5c0.9,0.6,2,1.4,2.1,2.7c0.1,0.8-0.2,2.3-2.8,3.2c0,0-0.1,0-0.1,0c0,0.1,0,0.2,0,0.3c0,1.5-1,2.8-2.4,3.3
		c-0.3,0.1-0.7,0.1-1,0.1c-1.5,0-2.9-1-3.8-1.7c-1-0.8-2.1-1.6-3-1.5c-1,0.1-1.7,0.9-1.9,1.6l0,0.1c-0.4,0.9-0.4,2.1-0.4,3.2
		c-0.1,5.2-0.1,10.7,0.9,15.8l0,0.2c0,0.3,0.1,0.7-0.1,1.1l-0.1,0.1C33.1,47.8,32.4,48.1,31.6,48.1z M28.1,46L28.1,46
		C28.2,46.1,28.2,46.1,28.1,46l3.5,0.1h0c-1-5.3-1-10.9-0.9-16.1c0-1.2,0-2.7,0.6-3.9c0.6-1.7,2-2.8,3.6-2.9c0.1,0,0.3,0,0.4,0
		c1.6,0,2.9,1,4.1,2c0.8,0.6,2,1.5,3,1.2c0.5-0.2,1-0.8,1-1.3c0-0.1,0-0.2,0-0.2c0-0.3-0.1-0.8,0.3-1.3l0.1-0.2
		c0.3-0.3,0.6-0.4,0.8-0.5l0.2-0.1c1-0.4,1.6-0.8,1.5-1.2c0-0.4-0.6-0.8-1.2-1.2c-0.2-0.2-0.5-0.3-0.7-0.5c-1.4-1-2.2-2.6-2.9-4.2
		c-0.1-0.3-0.3-0.6-0.4-0.9c-0.4-1.1-0.9-2.1-1.5-3C39,11,37.9,9.9,36.4,10l-1,0.1l-0.1-0.9c-0.1-1.2-0.6-2.2-1.4-3.2
		c-0.4,0.8-0.6,1.7-0.5,2.6l0.1,1l-1,0.1c-2.2,0.2-3.7,2.6-5,5.1L27.3,15c-1.3,2.4-2.7,5.2-5.4,6.5c-1.7,0.8-3.6,0.9-5.3,0.9
		c-1,0-2,0-3,0c-1,0-2,0.1-3,0.1c-1.8,0-3.7,0.2-4.6,1.3c-0.6,0.7-0.7,2-0.7,3.3c0,3.3,0,6.6,0,9.9c0,3,0,5.9,0,8.9
		C7.1,46,8.5,46,9.9,46c-0.1-3.6-0.1-7-0.1-10.7v-1l1,0c4,0.1,8-0.1,12.5-0.5l0.8-0.1l0.3,0.7c0.7,2.2,1.5,4.4,2.2,6.6
		C27,42.7,27.6,44.4,28.1,46z"/>
	<path fill="#010101" d="M4.6,24c-0.6,0-1.2-0.2-1.7-0.5c-0.5-0.3-0.8-0.6-1-1c-0.1-0.1-0.2-0.2-0.3-0.4L1.5,22l-0.2-0.3
		c-0.3-0.5-0.7-1-0.9-1.7C0,19.1,0,18.2,0,17.5c0-1.1,0-2.2,0.4-3.2c0.7-1.7,2.3-3,4.2-3.1l0.1,2C3.6,13.3,2.6,14,2.2,15
		C2,15.7,2,16.6,2,17.5c0,0.6,0,1.2,0.2,1.7l0,0.1c0.1,0.4,0.4,0.8,0.7,1.2l0.2,0.2c0.1,0.1,0.2,0.3,0.4,0.4
		c0.2,0.2,0.4,0.5,0.6,0.6l0.1,0.1C4.3,21.9,4.5,22,4.8,22l0.6,1.9C5.2,23.9,4.9,24,4.6,24z"/>
	<path fill="#010101" d="M33.9,18.4c-1.8,0-3.2-1.4-3.2-3.2c0-1.8,1.4-3.2,3.2-3.2c1.8,0,3.2,1.4,3.2,3.2
		C37.1,17,35.7,18.4,33.9,18.4z M33.9,14c-0.7,0-1.2,0.5-1.2,1.2s0.5,1.2,1.2,1.2c0.7,0,1.2-0.5,1.2-1.2S34.6,14,33.9,14z"/>
	<path fill="#010101" d="M31.9,26.6c-8.1-3.9-22.4-24.2-23-25l1.6-1.1c0.1,0.2,14.5,20.7,22.2,24.4L31.9,26.6z"/>
</g>
</svg>
