<?xml version="1.0" encoding="utf-8"?>
<!-- Generator: Adobe Illustrator 16.0.0, SVG Export Plug-In . SVG Version: 6.00 Build 0)  -->
<!DOCTYPE svg PUBLIC "-//W3C//DTD SVG 1.1//EN" "http://www.w3.org/Graphics/SVG/1.1/DTD/svg11.dtd">
<svg version="1.1" id="Layer_1" xmlns="http://www.w3.org/2000/svg" xmlns:xlink="http://www.w3.org/1999/xlink" x="0px" y="0px"
	 width="48px" height="48px" viewBox="0 0 48 48" enable-background="new 0 0 48 48" xml:space="preserve">
<g>
	<path d="M43.073,35.209H4.929c-0.552,0-1-0.447-1-1c0-11.936,9.004-21.646,20.071-21.646c11.067,0,20.072,9.71,20.073,21.646
		c0,0.266-0.105,0.52-0.293,0.707S43.339,35.209,43.073,35.209z M5.952,33.209H42.05C41.568,22.839,33.656,14.563,24,14.563
		C14.344,14.563,6.433,22.839,5.952,33.209z"/>
	<path d="M44.746,48H3.255c-0.485,0-0.9-0.349-0.985-0.826l-2.255-12.79c-0.051-0.291,0.029-0.59,0.219-0.816S0.705,33.21,1,33.21
		h46c0.296,0,0.576,0.131,0.766,0.357c0.19,0.227,0.271,0.525,0.219,0.816l-2.254,12.79C45.646,47.651,45.231,48,44.746,48z
		 M4.094,46h39.813l1.901-10.79H2.192L4.094,46z"/>
	<g>
		<path d="M28.916,10.675c-0.553,0-1-0.448-1-1V4.313c0-0.552,0.447-1,1-1s1,0.448,1,1v5.362
			C29.916,10.227,29.469,10.675,28.916,10.675z"/>
		<path d="M24,10.675c-0.552,0-1-0.448-1-1V1c0-0.552,0.448-1,1-1c0.553,0,1,0.448,1,1v8.675C25,10.227,24.553,10.675,24,10.675z"/>
		<path d="M19.084,10.675c-0.552,0-1-0.448-1-1V4.313c0-0.552,0.448-1,1-1s1,0.448,1,1v5.362
			C20.084,10.227,19.636,10.675,19.084,10.675z"/>
	</g>
</g>
</svg>
