<?xml version="1.0" encoding="utf-8"?>
<!-- Generator: Adobe Illustrator 18.0.0, SVG Export Plug-In . SVG Version: 6.00 Build 0)  -->
<!DOCTYPE svg PUBLIC "-//W3C//DTD SVG 1.1//EN" "http://www.w3.org/Graphics/SVG/1.1/DTD/svg11.dtd">
<svg version="1.1" id="Layer_1" xmlns="http://www.w3.org/2000/svg" xmlns:xlink="http://www.w3.org/1999/xlink" x="0px" y="0px"
	 viewBox="0 0 48 48" enable-background="new 0 0 48 48" xml:space="preserve">
<g>
	<path fill="#010101" d="M41.4,29.3H6.6c-3,0-5.6-2.6-5.6-5.6v-5.5h2v5.5c0,2,1.6,3.6,3.6,3.6h34.8c2,0,3.6-1.6,3.6-3.6v-5.5h2v5.5
		C47,26.7,44.4,29.3,41.4,29.3z"/>
	<g>
		<path fill="#010101" d="M19.4,24.3H9.5c-1.8,0-3.4-1.6-3.4-3.4v-9.3c0-1.8,1.6-3.4,3.4-3.4h9.9c1.8,0,3.4,1.6,3.4,3.4v9.3
			C22.8,22.7,21.2,24.3,19.4,24.3z M9.5,10.2c-0.7,0-1.4,0.7-1.4,1.4v9.3c0,0.7,0.7,1.4,1.4,1.4h9.9c0.7,0,1.4-0.7,1.4-1.4v-9.3
			c0-0.7-0.7-1.4-1.4-1.4H9.5z"/>
		<path fill="#010101" d="M38.5,24.3h-9.9c-1.8,0-3.4-1.6-3.4-3.4v-9.3c0-1.8,1.6-3.4,3.4-3.4h9.9c1.8,0,3.4,1.6,3.4,3.4v9.3
			C41.8,22.8,40.3,24.3,38.5,24.3z M28.6,10.2c-0.7,0-1.4,0.7-1.4,1.4v9.3c0,0.7,0.7,1.4,1.4,1.4h9.9c0.8,0,1.3-0.8,1.4-1.5l0-9.2
			c0-0.7-0.7-1.4-1.4-1.4H28.6z"/>
	</g>
	<rect x="0.5" y="32.3" fill="#010101" width="47" height="2"/>
	<g>
		<rect x="8.2" y="34.2" fill="#010101" width="2" height="4.6"/>
		<rect x="37.8" y="34.2" fill="#010101" width="2" height="4.6"/>
	</g>
</g>
</svg>
