<?xml version="1.0" encoding="utf-8"?>
<!-- Generator: Adobe Illustrator 18.0.0, SVG Export Plug-In . SVG Version: 6.00 Build 0)  -->
<!DOCTYPE svg PUBLIC "-//W3C//DTD SVG 1.1//EN" "http://www.w3.org/Graphics/SVG/1.1/DTD/svg11.dtd">
<svg version="1.1" id="Layer_1" xmlns="http://www.w3.org/2000/svg" xmlns:xlink="http://www.w3.org/1999/xlink" x="0px" y="0px"
	 viewBox="0 0 48 48" enable-background="new 0 0 48 48" xml:space="preserve">
<g>
	<path fill="#010101" d="M40.1,48H8c-0.6,0-1-0.4-1-1V7.8c0-0.5,0.3-0.9,0.8-1l0.2,0c3.7-0.7,16.3-3.3,24-6.7
		C32.3-0.1,32.7,0,33,0.2c0.3,0.2,0.5,0.5,0.5,0.8v5.8h6.7c0.6,0,1,0.4,1,1V47C41.1,47.6,40.7,48,40.1,48z M9,46h30.1V8.8h-6.7
		c-0.6,0-1-0.4-1-1V2.5C23.9,5.5,13.1,7.8,9,8.6V46z"/>
	<path fill="#010101" d="M13.6,35.8c0.1-0.9,0.1-2,0.1-2.7l0,0c0.2,0.7,0.4,1.5,0.7,2.4l1,2.9H16l1.1-3c0.3-0.9,0.6-1.6,0.8-2.3l0,0
		c0,0.8,0,1.8,0.1,2.7l0.2,2.7H19l-0.4-6.2h-1l-1.1,3c-0.3,0.8-0.5,1.5-0.6,2.1l0,0c-0.2-0.6-0.4-1.3-0.6-2.1l-1.1-3h-1l-0.4,6.2
		h0.8L13.6,35.8z"/>
	<polygon fill="#010101" points="23.7,37.8 21,37.8 21,35.5 23.4,35.5 23.4,34.9 21,34.9 21,32.9 23.6,32.9 23.6,32.2 20.2,32.2 
		20.2,38.4 23.7,38.4 	"/>
	<path fill="#010101" d="M25.5,35.8c0-1,0-1.8-0.1-2.5l0,0c0.3,0.7,0.7,1.4,1.2,2.1l2,3.1h0.8v-6.2h-0.8v2.6c0,1,0,1.7,0.1,2.5l0,0
		c-0.3-0.6-0.7-1.3-1.1-2l-2-3.1h-0.9v6.2h0.8V35.8z"/>
	<path fill="#010101" d="M33,38.5c1.3,0,2.3-0.8,2.3-2.7v-3.6h-0.8v3.7c0,1.4-0.6,2-1.5,2c-0.8,0-1.4-0.6-1.4-2v-3.7h-0.8v3.6
		C30.7,37.8,31.7,38.5,33,38.5z"/>
	<path fill="#010101" d="M34.7,8.8H7.9c-0.6,0-1-0.4-1-1s0.4-1,1-1h26.8c0.6,0,1,0.4,1,1S35.3,8.8,34.7,8.8z"/>
</g>
</svg>
