<?xml version="1.0" encoding="utf-8"?>
<!-- Generator: Adobe Illustrator 18.0.0, SVG Export Plug-In . SVG Version: 6.00 Build 0)  -->
<!DOCTYPE svg PUBLIC "-//W3C//DTD SVG 1.1//EN" "http://www.w3.org/Graphics/SVG/1.1/DTD/svg11.dtd">
<svg version="1.1" id="Layer_1" xmlns="http://www.w3.org/2000/svg" xmlns:xlink="http://www.w3.org/1999/xlink" x="0px" y="0px"
	 viewBox="0 0 48 48" enable-background="new 0 0 48 48" xml:space="preserve">
<g>
	<path d="M24,34.7l-0.7-0.8c-0.5-0.6-12.5-13.8-12.5-20.8C10.8,5.9,16.7,0,24,0c7.3,0,13.2,5.9,13.2,13.1c0,7-12,20.2-12.5,20.8
		L24,34.7z M24,2c-6.2,0-11.2,5-11.2,11.1c0,4.8,7.5,14.4,11.2,18.6c3.7-4.2,11.2-13.8,11.2-18.6C35.2,7,30.2,2,24,2z"/>
	<path d="M24,20.2c-3.9,0-7.1-3.2-7.1-7.1S20.1,6,24,6s7.1,3.2,7.1,7.1S27.9,20.2,24,20.2z M24,8c-2.8,0-5.1,2.3-5.1,5.1
		s2.3,5.1,5.1,5.1c2.8,0,5.1-2.3,5.1-5.1S26.8,8,24,8z"/>
	<polygon points="48.5,48 -0.6,48 9.9,27.2 19.8,27.2 19.8,29.2 11.1,29.2 2.6,46 45.5,46 39,29.2 28.4,29.2 28.4,27.2 40.4,27.2 	
		"/>
</g>
</svg>
