<?xml version="1.0" encoding="utf-8"?>
<!-- Generator: Adobe Illustrator 18.0.0, SVG Export Plug-In . SVG Version: 6.00 Build 0)  -->
<!DOCTYPE svg PUBLIC "-//W3C//DTD SVG 1.1//EN" "http://www.w3.org/Graphics/SVG/1.1/DTD/svg11.dtd">
<svg version="1.1" id="Layer_1" xmlns="http://www.w3.org/2000/svg" xmlns:xlink="http://www.w3.org/1999/xlink" x="0px" y="0px"
	 viewBox="0 0 48 48" enable-background="new 0 0 48 48" xml:space="preserve">
<g>
	<path fill="#010101" d="M28,48C17,48,8,39,8,27.9c0-3.2,0.7-6.3,2.2-9.3c0.2-0.3,0.5-0.6,0.9-0.6h10.4c0.5,0,0.9,0.4,1,0.8l1,5.8
		l0.9-5.8c0.1-0.5,0.5-0.9,1-0.9h19.6c0.4,0,0.7,0.2,0.9,0.6c1.5,3,2.2,6.2,2.2,9.3C48,39,39,48,28,48z M11.7,20
		c-1.2,2.6-1.7,5.2-1.7,7.9c0,10,8.1,18.1,18,18.1c9.9,0,18-8.1,18-18.1c0-2.7-0.6-5.3-1.7-7.9H26.2l-1.7,11.1
		c-0.1,0.5-0.5,0.8-1,0.9c0,0,0,0,0,0c-0.5,0-0.9-0.4-1-0.8L20.7,20H11.7z"/>
	<path fill="#010101" d="M33.5,20c-0.1,0-0.3,0-0.4-0.1c-0.5-0.2-0.8-0.8-0.5-1.3c5-12.3,12.6-14.6,13-14.7c0.5-0.1,1.1,0.2,1.2,0.7
		c0.2,0.5-0.2,1.1-0.7,1.2c-0.1,0-7,2.2-11.7,13.5C34.3,19.8,33.9,20,33.5,20z"/>
	<path fill="#010101" d="M1,16.3c-0.3,0-0.6-0.1-0.8-0.4c-0.3-0.4-0.3-0.9,0.1-1.3l10-10.5c0.2-0.2,0.4-0.3,0.6-0.3l14.2-2
		C25.5,1.7,26,2,26.2,2.5c0.1,0.5-0.1,1-0.5,1.2L1.5,16.2C1.3,16.3,1.2,16.3,1,16.3z M11.5,5.7l-5.7,5.9l13.7-7.1L11.5,5.7z"/>
	<path fill="#010101" d="M11,5.8c-0.4,0-0.7-0.2-0.9-0.5l-2-3.8C7.9,1,8,0.4,8.5,0.1C9-0.1,9.6,0,9.9,0.5l2,3.8
		c0.3,0.5,0.1,1.1-0.4,1.4C11.3,5.8,11.2,5.8,11,5.8z"/>
	<path fill="#010101" d="M18.1,19.9c-0.4,0-0.7-0.2-0.9-0.5l-5-9.9C12,9,12.2,8.4,12.6,8.1c0.5-0.3,1.1-0.1,1.3,0.4l5,9.9
		c0.2,0.5,0.1,1.1-0.4,1.3C18.4,19.9,18.3,19.9,18.1,19.9z"/>
</g>
</svg>
