<?xml version="1.0" encoding="utf-8"?>
<!-- Generator: Adobe Illustrator 16.0.0, SVG Export Plug-In . SVG Version: 6.00 Build 0)  -->
<!DOCTYPE svg PUBLIC "-//W3C//DTD SVG 1.1//EN" "http://www.w3.org/Graphics/SVG/1.1/DTD/svg11.dtd">
<svg version="1.1" id="Layer_1" xmlns="http://www.w3.org/2000/svg" xmlns:xlink="http://www.w3.org/1999/xlink" x="0px" y="0px"
	 width="48px" height="48px" viewBox="0 0 48 48" enable-background="new 0 0 48 48" xml:space="preserve">
<g>
	<path d="M18.701,18.418c-0.331,0-0.654-0.164-0.845-0.463c-0.02-0.031-2.127-3.263-5.735-4.4c-0.445-0.14-0.734-0.569-0.696-1.033
		c0.037-0.465,0.39-0.842,0.852-0.91c0.153-0.021,2.776-0.39,5.15,0.298c-0.941-2.054-2.859-5.066-6.535-7.139
		c-0.421-0.237-0.612-0.741-0.454-1.198s0.617-0.736,1.097-0.662c0.257,0.039,5.673,0.912,9.216,4.63
		c0.833-2.304,2.555-5.733,5.77-7.426c0.478-0.251,1.068-0.079,1.335,0.39s0.113,1.065-0.347,1.347
		c-0.015,0.01-2.315,1.576-2.661,6.658c1.416-0.569,3.11-1.002,5.059-1.29c0.495-0.069,0.961,0.226,1.104,0.703
		c0.143,0.476-0.087,0.984-0.537,1.194c-0.026,0.012-1.909,0.9-3.289,2.445c2.167-0.403,5.342-0.445,8.134,1.667
		c0.353,0.267,0.487,0.732,0.333,1.146s-0.584,0.68-1.004,0.648c-0.049-0.002-4.714-0.279-6.792,2.379
		c-0.341,0.434-0.97,0.511-1.404,0.171c-0.435-0.34-0.512-0.969-0.172-1.404c1.188-1.519,2.902-2.314,4.481-2.727
		c-2.789-0.41-5.29,0.684-5.324,0.7c-0.364,0.163-0.788,0.096-1.083-0.172s-0.402-0.684-0.275-1.061
		c0.326-0.963,0.866-1.808,1.485-2.531c-0.521,0.21-0.938,0.417-1.266,0.602c-0.307,0.175-0.683,0.173-0.99-0.004
		c-0.306-0.176-0.497-0.5-0.501-0.854c-0.013-0.992,0.038-1.894,0.135-2.711c-0.438,1.056-0.694,1.968-0.816,2.464
		c-0.095,0.385-0.409,0.678-0.8,0.746c-0.393,0.067-0.786-0.103-1.004-0.433c-0.995-1.501-2.401-2.6-3.811-3.395
		c2.921,3.356,3.649,6.79,3.69,6.99c0.086,0.429-0.117,0.865-0.5,1.075c-0.385,0.211-0.861,0.145-1.175-0.159
		c-0.477-0.461-1.156-0.757-1.894-0.941c1.846,1.464,2.851,3.02,2.915,3.12c0.296,0.466,0.159,1.084-0.307,1.38
		C19.07,18.368,18.885,18.418,18.701,18.418z"/>
	<path d="M24,48c-7.9,0-14.327-7.237-14.327-16.133c0-8.896,6.427-16.133,14.327-16.133c7.9,0,14.327,7.237,14.327,16.133
		C38.327,40.763,31.9,48,24,48z M24,17.734c-6.797,0-12.327,6.34-12.327,14.133S17.203,46,24,46c6.797,0,12.327-6.34,12.327-14.133
		S30.797,17.734,24,17.734z"/>
	<rect x="14.705" y="23.999" transform="matrix(0.8986 0.4389 -0.4389 0.8986 13.6717 -9.1468)" width="23.831" height="2"/>
	<rect x="9.378" y="36.039" transform="matrix(0.8985 0.4389 -0.4389 0.8985 18.5027 -5.9576)" width="25.516" height="2"/>
	<rect x="20.38" y="13.084" transform="matrix(0.439 0.8985 -0.8985 0.439 34.4558 -5.1846)" width="2" height="23.831"/>
	<rect x="24.864" y="24.281" transform="matrix(0.439 0.8985 -0.8985 0.439 47.7891 -2.4591)" width="2" height="25.517"/>
</g>
</svg>
