<?xml version="1.0" encoding="utf-8"?>
<!-- Generator: Adobe Illustrator 18.0.0, SVG Export Plug-In . SVG Version: 6.00 Build 0)  -->
<!DOCTYPE svg PUBLIC "-//W3C//DTD SVG 1.1//EN" "http://www.w3.org/Graphics/SVG/1.1/DTD/svg11.dtd">
<svg version="1.1" id="Layer_1" xmlns="http://www.w3.org/2000/svg" xmlns:xlink="http://www.w3.org/1999/xlink" x="0px" y="0px"
	 viewBox="0 0 48 48" enable-background="new 0 0 48 48" xml:space="preserve">
<g>
	<g>
		<path fill="#010101" d="M33.3,37.3L10.7,14.7l0.3-0.6c1.2-2.6,3.1-5.2,5.7-7.8c3.8-3.7,8.6-5.9,13.5-6.3c5-0.3,9.7,1.4,13,4.8
			c5.1,5.1,6.3,13.1,2.9,20.2l-1.8-0.8c3-6.4,2-13.4-2.5-18c-2.9-3-7-4.5-11.4-4.2c-4.5,0.3-8.8,2.3-12.2,5.7
			c-2.2,2.2-3.9,4.4-5,6.6l20.6,20.6c1.3-0.7,2.6-1.6,4-2.7l1.3,1.5c-1.7,1.4-3.4,2.5-5,3.2L33.3,37.3z"/>
		<path fill="#010101" d="M27.2,38.5C27.2,38.5,27.2,38.5,27.2,38.5c-4.2,0-8.3-1.9-12.1-5.7C9.3,27.1,7.9,20.6,11,14.1l0.6-1.3
			l23.6,23.5l-1.3,0.6C31.7,38,29.4,38.5,27.2,38.5z M12.2,16.3c-1.9,5.3-0.5,10.4,4.3,15.1c3.4,3.4,7,5.1,10.7,5.1c0,0,0,0,0,0
			c1.5,0,3-0.3,4.6-0.9L12.2,16.3z"/>
	</g>
	<path fill="#010101" d="M5.8,48.4l-6.2-6.2l13.9-13.9l6.2,6.2L5.8,48.4z M2.4,42.2l3.4,3.4l11-11l-3.4-3.4L2.4,42.2z"/>
	<path fill="#010101" d="M41,35c-3.9,0-7-3.1-7-7s3.1-7,7-7s7,3.1,7,7S44.9,35,41,35z M41,23c-2.8,0-5,2.2-5,5s2.2,5,5,5s5-2.2,5-5
		S43.8,23,41,23z"/>
</g>
</svg>
