<?xml version="1.0" encoding="utf-8"?>
<!-- Generator: Adobe Illustrator 18.0.0, SVG Export Plug-In . SVG Version: 6.00 Build 0)  -->
<!DOCTYPE svg PUBLIC "-//W3C//DTD SVG 1.1//EN" "http://www.w3.org/Graphics/SVG/1.1/DTD/svg11.dtd">
<svg version="1.1" id="Layer_1" xmlns="http://www.w3.org/2000/svg" xmlns:xlink="http://www.w3.org/1999/xlink" x="0px" y="0px"
	 viewBox="0 0 48 48" enable-background="new 0 0 48 48" xml:space="preserve">
<g>
	<path fill="#010101" d="M47,48H1c-0.6,0-1-0.4-1-1V25.4c0-0.5,0.3-0.9,0.8-1l11.6-3V13c0-0.4,0.3-0.8,0.6-0.9L23.4,8
		c0.2-0.1,0.5-0.1,0.7,0L35,12.1c0.4,0.1,0.6,0.5,0.6,0.9v8.5l11.6,2.9c0.4,0.1,0.8,0.5,0.8,1V47C48,47.6,47.6,48,47,48z M2,46h44
		V26.2l-11.6-2.9c-0.4-0.1-0.8-0.5-0.8-1v-8.6L23.8,10l-9.4,3.7v8.5c0,0.5-0.3,0.9-0.8,1L2,26.2V46z"/>
	<path fill="#010101" d="M29.2,48H18.7c-0.6,0-1-0.4-1-1v-8.8c0-3.5,2.8-6.3,6.3-6.3c1.7,0,3.4,0.7,4.5,1.9c1.1,1.2,1.7,2.7,1.7,4.3
		l0,8.9C30.2,47.6,29.8,48,29.2,48z M19.7,46h8.5v-7.9c0-1.1-0.4-2.1-1.1-2.9c-0.8-0.8-1.9-1.3-3.1-1.3c-2.3,0-4.3,2-4.3,4.3V46z"/>
	<path fill="#010101" d="M24,26.8c-2.8,0-5-2.2-5-4.9s2.2-4.9,5-4.9s5,2.2,5,4.9S26.8,26.8,24,26.8z M24,19c-1.7,0-3,1.3-3,2.9
		s1.3,2.9,3,2.9s3-1.3,3-2.9S25.7,19,24,19z"/>
	<path fill="#010101" d="M24,9.9c-0.6,0-1-0.4-1-1V1c0-0.6,0.4-1,1-1c0.6,0,1,0.4,1,1v7.9C25,9.5,24.6,9.9,24,9.9z"/>
	<path fill="#010101" d="M27.6,5.2h-7.2c-0.6,0-1-0.4-1-1s0.4-1,1-1h7.2c0.6,0,1,0.4,1,1S28.2,5.2,27.6,5.2z"/>
</g>
</svg>
