<?xml version="1.0" encoding="utf-8"?>
<!-- Generator: Adobe Illustrator 18.0.0, SVG Export Plug-In . SVG Version: 6.00 Build 0)  -->
<!DOCTYPE svg PUBLIC "-//W3C//DTD SVG 1.1//EN" "http://www.w3.org/Graphics/SVG/1.1/DTD/svg11.dtd">
<svg version="1.1" id="Layer_1" xmlns="http://www.w3.org/2000/svg" xmlns:xlink="http://www.w3.org/1999/xlink" x="0px" y="0px"
	 viewBox="0 0 48 48" enable-background="new 0 0 48 48" xml:space="preserve">
<g>
	<path fill="#010101" d="M37.5,44.5H9.8c-0.6,0-1-0.4-1-1V25.3c0-0.4,0.3-0.8,0.7-0.9l13.7-5c0.2-0.1,0.5-0.1,0.7,0l14,5
		c0.4,0.1,0.7,0.5,0.7,0.9v18.2C38.5,44.1,38.1,44.5,37.5,44.5z M10.8,42.5h25.7V26l-13-4.6L10.8,26V42.5z"/>
	<path fill="#010101" d="M47,48H1c-0.6,0-1-0.4-1-1V31.9c0-0.6,0.4-1,1-1h8.8c0.6,0,1,0.4,1,1v10.6h25.7V31.9c0-0.6,0.4-1,1-1H47
		c0.6,0,1,0.4,1,1V47C48,47.6,47.6,48,47,48z M2,46h44V32.9h-7.5v10.6c0,0.6-0.4,1-1,1H9.8c-0.6,0-1-0.4-1-1V32.9H2V46z"/>
	<g>
		<path fill="#010101" d="M15.1,40.5c-0.6,0-1-0.4-1-1V27.9c0-0.6,0.4-1,1-1s1,0.4,1,1v11.6C16.1,40.1,15.7,40.5,15.1,40.5z"/>
		<path fill="#010101" d="M20.8,40.5c-0.6,0-1-0.4-1-1V27.9c0-0.6,0.4-1,1-1s1,0.4,1,1v11.6C21.8,40.1,21.4,40.5,20.8,40.5z"/>
		<path fill="#010101" d="M26.5,40.5c-0.6,0-1-0.4-1-1V27.9c0-0.6,0.4-1,1-1s1,0.4,1,1v11.6C27.5,40.1,27.1,40.5,26.5,40.5z"/>
		<path fill="#010101" d="M32.1,40.5c-0.6,0-1-0.4-1-1V27.9c0-0.6,0.4-1,1-1s1,0.4,1,1v11.6C33.1,40.1,32.7,40.5,32.1,40.5z"/>
	</g>
	<path fill="#010101" d="M32.5,24.5c-0.1,0-0.2,0-0.3-0.1l-8.7-3.1L15,24.4c-0.3,0.1-0.6,0.1-0.9-0.1c-0.3-0.2-0.4-0.5-0.4-0.8V14
		c0-5.8,4.4-10.6,9.9-10.6c5.5,0,9.9,4.8,9.9,10.6v9.5c0,0.3-0.2,0.6-0.4,0.8C32.9,24.4,32.7,24.5,32.5,24.5z M23.5,19.3
		c0.1,0,0.2,0,0.3,0.1l7.7,2.7V14c0-4.7-3.5-8.6-7.9-8.6s-7.9,3.9-7.9,8.6v8.1l7.5-2.7C23.3,19.3,23.4,19.3,23.5,19.3z"/>
	<path fill="none" stroke="#010101" stroke-width="2" stroke-linecap="round" stroke-linejoin="round" stroke-miterlimit="10" d="
		M14.7,15.8"/>
	<path fill="#010101" d="M32.1,16.2h-17c-0.6,0-1-0.4-1-1s0.4-1,1-1h17c0.6,0,1,0.4,1,1S32.7,16.2,32.1,16.2z"/>
	<path fill="#010101" d="M23.6,5.4c-0.6,0-1-0.4-1-1V1c0-0.6,0.4-1,1-1s1,0.4,1,1v3.4C24.6,5,24.2,5.4,23.6,5.4z"/>
</g>
</svg>
