<?xml version="1.0" encoding="utf-8"?>
<!-- Generator: Adobe Illustrator 18.0.0, SVG Export Plug-In . SVG Version: 6.00 Build 0)  -->
<!DOCTYPE svg PUBLIC "-//W3C//DTD SVG 1.1//EN" "http://www.w3.org/Graphics/SVG/1.1/DTD/svg11.dtd">
<svg version="1.1" id="Layer_1" xmlns="http://www.w3.org/2000/svg" xmlns:xlink="http://www.w3.org/1999/xlink" x="0px" y="0px"
	 viewBox="0 0 48 48" enable-background="new 0 0 48 48" xml:space="preserve">
<g>
	<path fill="#010101" d="M22.1,35.3c-0.2,0-0.3,0-0.5-0.1l-3-1.7l-3.5,0.4c-0.3,0-0.6-0.1-0.8-0.3C14,33.3,14,33,14,32.7l0.3-1.5
		c0.1-0.3,0.3-0.6,0.6-0.7l1.5-0.5l0.2-1.1l-4.3,0.5c-0.3,0-0.6-0.1-0.8-0.3c-0.2-0.2-0.3-0.6-0.2-0.9l0.3-1.6
		c0.1-0.3,0.3-0.6,0.6-0.7l5.3-2.4c1.1-3.1,3.4-5.1,3.5-5.1c0.2-0.2,0.5-0.3,0.8-0.2c0.3,0.1,0.6,0.3,0.7,0.5c0.1,0.1,1.3,2.7,1.1,6
		l4,4.3c0.2,0.2,0.3,0.6,0.3,0.9l-0.3,1.6c-0.1,0.3-0.3,0.6-0.5,0.7c-0.3,0.1-0.6,0.1-0.9,0l-3.9-2.1L21.9,31l1.2,1
		c0.3,0.2,0.4,0.6,0.3,0.9l-0.3,1.5c-0.1,0.3-0.3,0.6-0.6,0.7C22.4,35.3,22.2,35.3,22.1,35.3z M18.8,31.5c0.2,0,0.3,0,0.5,0.1L20,32
		c-0.2-0.2-0.3-0.5-0.2-0.8l0.6-3c0.1-0.3,0.3-0.6,0.6-0.7c0.3-0.1,0.6-0.1,0.9,0l3.4,1.8l-3.5-3.7c-0.2-0.2-0.3-0.5-0.3-0.8
		c0.1-1.6-0.1-3-0.4-4c-0.7,0.8-1.5,2-1.9,3.5c-0.1,0.3-0.3,0.5-0.5,0.6L14,27.1l3.8-0.4c0.3,0,0.6,0.1,0.8,0.3
		c0.2,0.2,0.3,0.6,0.2,0.9l-0.6,3c-0.1,0.3-0.3,0.6-0.6,0.7l1-0.1C18.7,31.5,18.8,31.5,18.8,31.5z"/>
	<path fill="#010101" d="M15.9,47.1c-1,0-1.8-0.4-2.4-1.2l-2.9-3.4l0.4-0.6c1-1.8,0.7-4.2-0.8-6c-1.1-1.3-2.5-2-4.1-2
		c-0.6,0-1.1,0.1-1.6,0.3l-0.7,0.3l-3-3.4C0.3,30.4,0,29.6,0,28.7c0-0.7,0.4-1.4,0.9-1.9L30.2,1.6c1.4-1,3.3-0.7,4.2,0.5l2.9,3.4
		l-0.4,0.6c-1,1.8-0.7,4.2,0.8,6c1.1,1.3,2.7,2,4.3,2c0.5,0,1-0.1,1.4-0.2l0.6-0.2l2.9,3.4c0.6,0.7,0.9,1.5,0.8,2.3
		c0,0.7-0.4,1.4-0.9,1.9L17.8,46.5C17.2,46.9,16.6,47.1,15.9,47.1z M13,42.2l2.1,2.4c0.4,0.5,1.1,0.5,1.4,0.3l29.2-25.1
		c0.1-0.1,0.2-0.3,0.2-0.5c0-0.3-0.1-0.6-0.3-0.9L43.5,16c-0.4,0.1-0.9,0.1-1.4,0.1c-2.2,0-4.4-1-5.8-2.7C34.5,11.3,34,8.3,35,5.9
		l-2.1-2.4c-0.4-0.5-1.1-0.5-1.4-0.3L2.3,28.4C2.1,28.5,2,28.7,2,28.9c0,0.3,0.1,0.6,0.3,0.9l2.1,2.4C5,32,5.5,31.9,6.1,31.9
		c2.1,0,4.2,1,5.6,2.7C13.5,36.8,14,39.8,13,42.2z"/>
	<path fill="#010101" d="M33.7,25.7l-1.9-2.3l1.5-1.3l1.9,2.3L33.7,25.7z M29.9,21.2l-1.9-2.3l1.5-1.3l1.9,2.3L29.9,21.2z M26,16.6
		L24,14.3l1.5-1.3l1.9,2.3L26,16.6z"/>
</g>
</svg>
