<?xml version="1.0" encoding="utf-8"?>
<!-- Generator: Adobe Illustrator 16.0.0, SVG Export Plug-In . SVG Version: 6.00 Build 0)  -->
<!DOCTYPE svg PUBLIC "-//W3C//DTD SVG 1.1//EN" "http://www.w3.org/Graphics/SVG/1.1/DTD/svg11.dtd">
<svg version="1.1" id="Layer_1" xmlns="http://www.w3.org/2000/svg" xmlns:xlink="http://www.w3.org/1999/xlink" x="0px" y="0px"
	 width="48px" height="48px" viewBox="0 0 48 48" enable-background="new 0 0 48 48" xml:space="preserve">
<g>
	<g>
		<path d="M4.523,38.857c-0.552,0-1-0.447-1-1V20.68c0-0.552,0.448-1,1-1s1,0.448,1,1v17.177C5.523,38.41,5.075,38.857,4.523,38.857
			z"/>
		<g>
			<path d="M1,18.189c-0.552,0-1-0.448-1-1v-7.047c0-0.552,0.448-1,1-1s1,0.448,1,1v7.047C2,17.741,1.552,18.189,1,18.189z"/>
			<path d="M4.523,18.189c-0.552,0-1-0.448-1-1v-7.047c0-0.552,0.448-1,1-1s1,0.448,1,1v7.047
				C5.523,17.741,5.075,18.189,4.523,18.189z"/>
			<path d="M8.047,18.189c-0.552,0-1-0.448-1-1v-7.047c0-0.552,0.448-1,1-1s1,0.448,1,1v7.047
				C9.047,17.741,8.599,18.189,8.047,18.189z"/>
		</g>
		<path d="M4.524,21.679C2.029,21.679,0,19.665,0,17.189c0-0.552,0.448-1,1-1s1,0.448,1,1c0,1.373,1.132,2.49,2.524,2.49
			c1.391,0,2.523-1.117,2.523-2.49c0-0.552,0.448-1,1-1s1,0.448,1,1C9.047,19.665,7.018,21.679,4.524,21.679z"/>
	</g>
	<path d="M24.585,38.859c-8.193,0-14.858-6.665-14.858-14.858c0-8.193,6.665-14.858,14.858-14.858
		c8.193,0,14.858,6.665,14.858,14.858C39.443,32.194,32.778,38.859,24.585,38.859z M24.585,11.143
		c-7.09,0-12.858,5.768-12.858,12.858s5.768,12.858,12.858,12.858s12.858-5.769,12.858-12.858S31.675,11.143,24.585,11.143z"/>
	<path d="M24.585,33.166c-5.054,0-9.165-4.111-9.165-9.165s4.111-9.165,9.165-9.165s9.165,4.111,9.165,9.165
		S29.639,33.166,24.585,33.166z M24.585,16.836c-3.951,0-7.165,3.214-7.165,7.165c0,3.951,3.214,7.165,7.165,7.165
		c3.951,0,7.165-3.214,7.165-7.165C31.75,20.05,28.536,16.836,24.585,16.836z"/>
	<path d="M47,38.859h-3.443c-0.282,0-0.552-0.119-0.741-0.328s-0.281-0.489-0.254-0.77l0.72-7.312
		c-0.491-0.176-1.059-0.495-1.487-1.072c-0.616-0.831-0.754-1.923-0.408-3.244c0.201-0.771,0.385-2.192,0.598-3.838
		c0.857-6.633,1.804-12.198,4.719-13.108c0.305-0.095,0.635-0.04,0.891,0.149S48,9.824,48,10.142v27.717
		C48,38.412,47.553,38.859,47,38.859z M44.66,36.859H46v-24.15c-1.084,2.498-1.694,7.223-2.033,9.843
		c-0.222,1.713-0.412,3.193-0.646,4.086c-0.126,0.483-0.216,1.142,0.073,1.54c0.315,0.436,1.011,0.489,1.018,0.489
		c0.271,0.017,0.529,0.143,0.706,0.35s0.267,0.477,0.24,0.747L44.66,36.859z"/>
</g>
</svg>
