<?xml version="1.0" encoding="utf-8"?>
<!-- Generator: Adobe Illustrator 16.0.0, SVG Export Plug-In . SVG Version: 6.00 Build 0)  -->
<!DOCTYPE svg PUBLIC "-//W3C//DTD SVG 1.1//EN" "http://www.w3.org/Graphics/SVG/1.1/DTD/svg11.dtd">
<svg version="1.1" id="Layer_1" xmlns="http://www.w3.org/2000/svg" xmlns:xlink="http://www.w3.org/1999/xlink" x="0px" y="0px"
	 width="48px" height="48px" viewBox="0 0 48 48" enable-background="new 0 0 48 48" xml:space="preserve">
<g>
	<path d="M24,48C10.767,48,0,37.233,0,24S10.767,0,24,0s24,10.767,24,24S37.233,48,24,48z M24,2C11.869,2,2,11.869,2,24
		s9.869,22,22,22s22-9.869,22-22S36.131,2,24,2z"/>
	<path d="M18.985,38.485C18.985,38.485,18.985,38.485,18.985,38.485c-2.283,0-3.758-1.857-3.758-4.73V14.244
		c0-2.873,1.475-4.73,3.758-4.73c0.977,0,2.008,0.35,3.063,1.039l14.021,9.164c1.694,1.107,2.628,2.627,2.629,4.282
		c0,1.654-0.934,3.176-2.629,4.284l-14.02,9.164C20.993,38.136,19.962,38.485,18.985,38.485z M18.985,11.514
		c-1.586,0-1.758,1.909-1.758,2.73v19.511c0,0.821,0.171,2.73,1.758,2.73h0c0.574,0,1.254-0.247,1.969-0.713l14.021-9.164
		c1.11-0.727,1.723-1.653,1.723-2.61c-0.001-0.957-0.612-1.883-1.723-2.608l-14.021-9.163C20.24,11.761,19.559,11.514,18.985,11.514
		z"/>
</g>
</svg>
