<?xml version="1.0" encoding="utf-8"?>
<!-- Generator: Adobe Illustrator 18.0.0, SVG Export Plug-In . SVG Version: 6.00 Build 0)  -->
<!DOCTYPE svg PUBLIC "-//W3C//DTD SVG 1.1//EN" "http://www.w3.org/Graphics/SVG/1.1/DTD/svg11.dtd">
<svg version="1.1" id="Layer_1" xmlns="http://www.w3.org/2000/svg" xmlns:xlink="http://www.w3.org/1999/xlink" x="0px" y="0px"
	 viewBox="0 0 48 48" enable-background="new 0 0 48 48" xml:space="preserve">
<g>
	<path fill="#010101" d="M37.1,48.1H10.9c-1.9,0-3.6-1.6-3.6-3.5c0-1.9,1.6-3.4,3.5-3.5c0.7-5.2,4.5-9.5,9.6-10.9V3.6
		C20.4,1.6,22,0,24,0c2,0,3.6,1.6,3.6,3.6v26.6c5.1,1.4,8.8,5.7,9.6,10.9c1.9,0.1,3.5,1.6,3.5,3.5C40.7,46.5,39.1,48.1,37.1,48.1z
		 M10.9,43.1c-0.9,0-1.6,0.7-1.6,1.5c0,0.8,0.8,1.5,1.6,1.5h26.2c0.9,0,1.6-0.7,1.6-1.5c0-0.8-0.7-1.5-1.6-1.5h-1.7l-0.1-0.9
		c-0.4-5-4-9.2-8.9-10.2l-0.8-0.2V3.6C25.6,2.7,24.9,2,24,2s-1.6,0.7-1.6,1.6v28.2L21.6,32c-4.9,1-8.5,5.2-8.9,10.2l-0.1,0.9H10.9z"
		/>
	<path fill="#010101" d="M30.8,42.7c-0.1-5.3-5.6-7.3-5.6-7.3l0.6-1.9c0.3,0.1,6.9,2.4,7,9.1L30.8,42.7z"/>
</g>
</svg>
