<?xml version="1.0" encoding="utf-8"?>
<!-- Generator: Adobe Illustrator 18.0.0, SVG Export Plug-In . SVG Version: 6.00 Build 0)  -->
<!DOCTYPE svg PUBLIC "-//W3C//DTD SVG 1.1//EN" "http://www.w3.org/Graphics/SVG/1.1/DTD/svg11.dtd">
<svg version="1.1" id="Layer_1" xmlns="http://www.w3.org/2000/svg" xmlns:xlink="http://www.w3.org/1999/xlink" x="0px" y="0px"
	 viewBox="0 0 48 48" enable-background="new 0 0 48 48" xml:space="preserve">
<g>
	<path fill="#010101" d="M34.1,43H13.8c-1.5,0-2.6-1.1-2.6-2.6V21.2l-5.6,3.3l-6-8.2l12.2-8.8C12.4,7,13,6.6,13.7,6.6h3.6v2h-3.6
		c-0.1,0-0.6,0.4-0.7,0.5c-0.1,0.1-0.2,0.2-0.4,0.3L2.4,16.7l3.8,5.2l7-4.1v22.6c0,0.3,0.3,0.6,0.6,0.6h20.3c0.3,0,0.6-0.3,0.6-0.6
		V17.7l7.2,4.2l3.8-5.2L35.2,9.2c-0.2-0.2-0.9-0.6-1.1-0.6l-3.5,0v-2h3.5c0.9,0,2,0.8,2.4,1.1l0,0l12,8.6l-6,8.2l-5.8-3.4v19.3
		C36.7,41.9,35.6,43,34.1,43z"/>
	<g>
		<path fill="#010101" d="M20.7,17.2c-0.1,0-0.1,0-0.2,0c-0.3-0.1-0.6-0.3-0.7-0.6L16.4,8c-0.1-0.3-0.1-0.7,0.1-0.9l1.1-1.6
			C17.8,5.2,18,5,18.4,5c0.3,0,0.6,0.1,0.8,0.4l5.6,6.7c0.3,0.4,0.3,1,0,1.3l-3.3,3.5C21.2,17.1,21,17.2,20.7,17.2z M18.4,7.7
			l2.6,6.6l1.6-1.7L18.4,7.7L18.4,7.7z"/>
		<path fill="#010101" d="M27.3,17.7c-0.3,0-0.6-0.1-0.8-0.4l-3.3-4c-0.3-0.4-0.3-0.9,0-1.3l5.6-6.7C29,5.1,29.3,5,29.6,5
			c0.3,0,0.6,0.2,0.8,0.4L31.5,7c0.2,0.3,0.2,0.6,0.1,0.9l-3.4,9.1c-0.1,0.3-0.4,0.6-0.8,0.6C27.4,17.7,27.4,17.7,27.3,17.7z
			 M25.3,12.7l1.7,2l2.6-7l-0.1-0.1L25.3,12.7z"/>
	</g>
	<rect x="18.6" y="5" fill="#010101" width="10.8" height="2"/>
</g>
</svg>
