<?xml version="1.0" encoding="utf-8"?>
<!-- Generator: Adobe Illustrator 16.0.0, SVG Export Plug-In . SVG Version: 6.00 Build 0)  -->
<!DOCTYPE svg PUBLIC "-//W3C//DTD SVG 1.1//EN" "http://www.w3.org/Graphics/SVG/1.1/DTD/svg11.dtd">
<svg version="1.1" id="Layer_1" xmlns="http://www.w3.org/2000/svg" xmlns:xlink="http://www.w3.org/1999/xlink" x="0px" y="0px"
	 width="48px" height="48px" viewBox="0 0 48 48" enable-background="new 0 0 48 48" xml:space="preserve">
<g>
	<path d="M29.238,35.505H18.761c-6.79,0-12.314-5.325-12.314-11.871V12.111c0-0.552,0.448-1,1-1h33.106c0.553,0,1,0.448,1,1v11.523
		C41.553,30.18,36.028,35.505,29.238,35.505z M8.447,13.111v10.523c0,5.443,4.627,9.871,10.314,9.871h10.478
		c5.688,0,10.314-4.428,10.314-9.871V13.111H8.447z"/>
	<path d="M43.27,13.111H4.732c-0.552,0-1-0.448-1-1s0.448-1,1-1H43.27c0.553,0,1,0.448,1,1S43.822,13.111,43.27,13.111z"/>
	<g>
		<path d="M29.173,8.86c-0.553,0-1-0.448-1-1V2.931c0-0.552,0.447-1,1-1s1,0.448,1,1V7.86C30.173,8.412,29.726,8.86,29.173,8.86z"/>
		<path d="M24,8.86c-0.552,0-1-0.448-1-1V1c0-0.552,0.448-1,1-1c0.553,0,1,0.448,1,1v6.86C25,8.412,24.553,8.86,24,8.86z"/>
		<path d="M18.828,8.86c-0.552,0-1-0.448-1-1V2.931c0-0.552,0.448-1,1-1s1,0.448,1,1V7.86C19.828,8.412,19.38,8.86,18.828,8.86z"/>
	</g>
	<g>
		<path d="M7.446,19.794c-0.424,0-0.817-0.272-0.953-0.698C6.051,17.7,5.4,16.844,4.56,16.55c-1.372-0.479-2.983,0.585-2.999,0.596
			c-0.457,0.308-1.078,0.188-1.387-0.268c-0.309-0.456-0.193-1.075,0.262-1.386c0.098-0.068,2.437-1.641,4.769-0.836
			c1.474,0.508,2.55,1.798,3.196,3.834c0.167,0.527-0.124,1.089-0.65,1.256C7.648,19.779,7.547,19.794,7.446,19.794z"/>
		<path d="M40.555,19.794c-0.1,0-0.201-0.015-0.302-0.047c-0.527-0.167-0.818-0.729-0.651-1.255c0.646-2.036,1.72-3.326,3.194-3.834
			c2.33-0.806,4.671,0.769,4.769,0.836c0.456,0.312,0.573,0.934,0.261,1.39c-0.311,0.455-0.931,0.572-1.387,0.263l0,0
			c-0.016-0.011-1.622-1.078-2.999-0.596c-0.839,0.293-1.489,1.149-1.932,2.545C41.373,19.522,40.979,19.794,40.555,19.794z"/>
	</g>
	<path d="M43.523,48H4.478c-0.552,0-1-0.447-1-1s0.448-1,1-1h39.045c0.553,0,1,0.447,1,1S44.076,48,43.523,48z"/>
	<path d="M9.483,45.818c-0.544,0-0.99-0.437-1-0.983c-0.023-1.385,0.756-3.046,1.853-3.948l0.284-0.23
		c0.717-0.577,0.966-0.805,1-1.355c0.022-0.369,0.247-0.696,0.583-0.85c0.336-0.154,0.731-0.108,1.024,0.117
		c0.359,0.276,0.75,0.527,1.138,0.778c0.795,0.514,1.698,1.098,2.35,1.917c0.092-0.098,0.197-0.194,0.317-0.29
		c0.823-0.653,2.232-1.395,3.333-1.548c0.559-0.078,1.098-0.104,1.62-0.128c1.184-0.057,2.207-0.105,3.069-0.74
		c0.226-0.164,0.505-0.229,0.78-0.177c0.273,0.053,0.513,0.216,0.66,0.451c0.417,0.667,1.029,1.132,1.739,1.67
		c0.243,0.185,0.489,0.372,0.731,0.569l0.161,0.13c0.024,0.02,0.05,0.04,0.075,0.061c0.229-0.529,0.597-1.031,1.186-1.477
		c0.31-0.233,0.684-0.433,1.08-0.644c0.41-0.219,1.264-0.672,1.354-0.934c0.117-0.34,0.407-0.59,0.761-0.656
		c0.352-0.065,0.715,0.062,0.946,0.335l0.461,0.548c0.73,0.875,1.361,1.63,2.288,2.327l0.177,0.131
		c0.863,0.639,2.168,1.604,2.056,3.106c-0.041,0.551-0.527,0.958-1.071,0.923c-0.551-0.041-0.964-0.521-0.923-1.071
		c0.03-0.402-0.771-0.995-1.251-1.35l-0.188-0.141c-0.964-0.725-1.644-1.481-2.313-2.274c-0.416,0.321-0.901,0.579-1.356,0.821
		c-0.324,0.173-0.632,0.336-0.814,0.475c-0.704,0.531-0.767,1.205-0.771,2.41c0.003,0.073,0.003,0.148-0.001,0.225
		c-0.026,0.541-0.468,0.951-1.023,0.95c-0.543-0.014-0.976-0.457-0.976-1c0-0.038,0-0.076,0-0.113
		c-0.028-0.331-0.398-0.652-0.947-1.093l-0.173-0.14c-0.224-0.184-0.451-0.355-0.676-0.526c-0.56-0.425-1.133-0.859-1.637-1.421
		c-1.107,0.517-2.263,0.571-3.308,0.621c-0.499,0.024-0.97,0.047-1.439,0.111c-0.68,0.095-1.772,0.663-2.366,1.134
		c-0.178,0.142-0.221,0.225-0.357,0.688l-0.034,0.137c-0.089,0.371-0.223,0.932-0.706,1.261c-0.304,0.207-0.698,0.23-1.025,0.062
		c-0.327-0.17-0.534-0.506-0.539-0.874c-0.016-1.225-0.898-1.856-2.336-2.786c-0.047-0.03-0.094-0.061-0.141-0.091
		c-0.344,0.537-0.821,0.921-1.265,1.278l-0.267,0.216c-0.622,0.513-1.137,1.599-1.124,2.372c0.009,0.552-0.431,1.007-0.983,1.017
		C9.495,45.818,9.489,45.818,9.483,45.818z"/>
</g>
</svg>
