<?xml version="1.0" encoding="utf-8"?>
<!-- Generator: Adobe Illustrator 16.0.0, SVG Export Plug-In . SVG Version: 6.00 Build 0)  -->
<!DOCTYPE svg PUBLIC "-//W3C//DTD SVG 1.1//EN" "http://www.w3.org/Graphics/SVG/1.1/DTD/svg11.dtd">
<svg version="1.1" id="Layer_1" xmlns="http://www.w3.org/2000/svg" xmlns:xlink="http://www.w3.org/1999/xlink" x="0px" y="0px"
	 width="48px" height="48px" viewBox="0 0 48 48" enable-background="new 0 0 48 48" xml:space="preserve">
<g>
	<path d="M47,41.709c-0.115,0-0.232-0.02-0.347-0.063c-10.172-3.763-15.504-6.588-21.943-11.624
		c-7.001-5.476-5.628-12.079-5.566-12.357c0.296-1.223,0.688-2.391,1.169-3.489c0.222-0.505,0.81-0.737,1.317-0.515
		c0.506,0.222,0.736,0.812,0.515,1.317c-0.434,0.991-0.789,2.047-1.053,3.139c-0.043,0.207-1.12,5.661,4.851,10.329
		c6.254,4.892,11.455,7.644,21.404,11.325c0.519,0.191,0.783,0.767,0.591,1.284C47.788,41.46,47.406,41.709,47,41.709z"/>
	<path d="M42.498,36.012c-0.21,0-0.423-0.066-0.604-0.203c-0.439-0.334-0.526-0.961-0.192-1.401c2.321-3.06,3.6-7.111,3.6-11.408
		c0-8.938-5.56-16.209-12.393-16.209c-1.841,0-3.612,0.518-5.266,1.54c-0.467,0.289-1.085,0.145-1.376-0.325
		c-0.29-0.47-0.145-1.086,0.325-1.376c1.973-1.22,4.099-1.838,6.316-1.838c7.937,0,14.393,8.168,14.393,18.209
		c0,4.73-1.423,9.211-4.006,12.617C43.099,35.875,42.801,36.012,42.498,36.012z"/>
	<path d="M1,41.709c-0.406,0-0.789-0.249-0.938-0.653c-0.191-0.518,0.073-1.093,0.591-1.284c8.99-3.326,14.095-5.913,19.506-9.886
		c0.445-0.328,1.071-0.231,1.398,0.214c0.327,0.445,0.231,1.071-0.214,1.397c-5.579,4.096-10.812,6.752-19.996,10.149
		C1.232,41.689,1.115,41.709,1,41.709z"/>
	<path d="M5.757,36.34c-0.293,0-0.583-0.128-0.781-0.375c-2.758-3.443-4.277-8.048-4.277-12.966
		c0-10.041,6.456-18.209,14.392-18.209c6.371,0,11.901,5.167,13.761,12.857c0.037,0.164,0.777,3.647-1.437,7.653
		c-0.267,0.482-0.874,0.66-1.358,0.392c-0.483-0.267-0.659-0.875-0.392-1.359c1.851-3.35,1.245-6.205,1.238-6.233
		C25.27,11.342,20.52,6.79,15.091,6.79c-6.833,0-12.392,7.271-12.392,16.209c0,4.465,1.363,8.625,3.838,11.716
		c0.346,0.431,0.276,1.061-0.155,1.405C6.198,36.269,5.977,36.34,5.757,36.34z"/>
	<path d="M24.019,43.21c-5.112,0-10.027-1.084-13.84-3.052c-0.491-0.253-0.684-0.856-0.43-1.348c0.253-0.49,0.857-0.681,1.347-0.43
		c3.535,1.824,8.125,2.829,12.923,2.829c4.383,0,8.509-0.813,11.932-2.351c0.506-0.226,1.097-0.001,1.322,0.502
		c0.227,0.504,0.002,1.096-0.502,1.322C33.093,42.336,28.683,43.21,24.019,43.21z"/>
</g>
</svg>
