<?xml version="1.0" encoding="utf-8"?>
<!-- Generator: Adobe Illustrator 18.0.0, SVG Export Plug-In . SVG Version: 6.00 Build 0)  -->
<!DOCTYPE svg PUBLIC "-//W3C//DTD SVG 1.1//EN" "http://www.w3.org/Graphics/SVG/1.1/DTD/svg11.dtd">
<svg version="1.1" id="Layer_1" xmlns="http://www.w3.org/2000/svg" xmlns:xlink="http://www.w3.org/1999/xlink" x="0px" y="0px"
	 viewBox="0 0 48 48" enable-background="new 0 0 48 48" xml:space="preserve">
<g>
	<path d="M38,48H9.9V32.6H38V48z M11.9,46H36V34.6H11.9V46z"/>
	<path d="M38,14.7H9.9V0H38V14.7z M11.9,12.7H36V2H11.9V12.7z"/>
	<path d="M44.7,41.7H36v-7.2H11.9v7.2H3.2c-1.7,0-3-1.3-3-3l0-20.1l1.5-9c0-1.6,1.4-2.9,3-2.9h7.2v6h24.2v-6h6.7
		c0.8,0,1.6,0.3,2.2,1c0.5,0.5,0.8,1.2,0.7,2l2,9v20.1C47.7,40.4,46.4,41.7,44.7,41.7z M38,39.7h6.7c0.6,0,1-0.4,1-1v-20l-2-8.9
		l0-0.2c0-0.3-0.1-0.5-0.2-0.6c-0.2-0.2-0.4-0.3-0.7-0.3h-4.7v6H9.9v-6H4.7c-0.6,0-1,0.4-1,1l0,0.2l-1.5,9v19.8c0,0.6,0.4,1,1,1h6.7
		v-7.2H38V39.7z"/>
	<rect x="5.9" y="23.2" width="5.8" height="2"/>
	<rect x="1" y="18" width="46" height="2"/>
</g>
</svg>
