<?xml version="1.0" encoding="utf-8"?>
<!-- Generator: Adobe Illustrator 18.0.0, SVG Export Plug-In . SVG Version: 6.00 Build 0)  -->
<!DOCTYPE svg PUBLIC "-//W3C//DTD SVG 1.1//EN" "http://www.w3.org/Graphics/SVG/1.1/DTD/svg11.dtd">
<svg version="1.1" id="Layer_1" xmlns="http://www.w3.org/2000/svg" xmlns:xlink="http://www.w3.org/1999/xlink" x="0px" y="0px"
	 viewBox="0 0 48 48" enable-background="new 0 0 48 48" xml:space="preserve">
<g>
	<path fill="#010101" d="M30.7,37.4H17.3c-2.9,0-5.2-2-5.2-4.5V15.1c0-2.5,2.3-4.5,5.2-4.5h13.4c2.9,0,5.2,2,5.2,4.5v17.8
		C35.9,35.4,33.6,37.4,30.7,37.4z M17.3,12.6c-1.7,0-3.2,1.1-3.2,2.5v17.8c0,1.4,1.5,2.5,3.2,2.5h13.4c1.7,0,3.2-1.1,3.2-2.5V15.1
		c0-1.4-1.5-2.5-3.2-2.5H17.3z"/>
	<g>
		<path fill="#010101" d="M28.6,9.3h-9.2c-0.4,0-0.7-0.2-0.9-0.5c-0.2-0.3-0.2-0.7,0-1l4.6-7.3C23.3,0.2,23.7,0,24,0l0,0
			c0.3,0,0.7,0.2,0.8,0.5l4.6,7.3c0.2,0.3,0.2,0.7,0,1C29.3,9.1,29,9.3,28.6,9.3z M21.2,7.3h5.6L24,2.9L21.2,7.3z"/>
		<path fill="#010101" d="M24,48c-0.3,0-0.7-0.2-0.8-0.5l-4.6-7.3c-0.2-0.3-0.2-0.7,0-1c0.2-0.3,0.5-0.5,0.9-0.5h9.2
			c0.4,0,0.7,0.2,0.9,0.5c0.2,0.3,0.2,0.7,0,1l-4.6,7.3C24.7,47.8,24.3,48,24,48z M21.2,40.7l2.8,4.4l2.8-4.4H21.2z"/>
	</g>
	<path fill="#010101" d="M24,28.1c-0.6,0-1-0.4-1-1v-7.9c0-0.6,0.4-1,1-1c0.6,0,1,0.4,1,1v7.9C25,27.7,24.6,28.1,24,28.1z"/>
	<g>
		<path fill="#010101" d="M20.5,34.6c-0.1,0-0.3,0-0.4-0.1c-0.5-0.2-0.7-0.8-0.5-1.3l3.4-7.1c0.2-0.5,0.8-0.7,1.3-0.5
			c0.5,0.2,0.7,0.8,0.5,1.3L21.4,34C21.2,34.4,20.9,34.6,20.5,34.6z"/>
		<path fill="#010101" d="M27.5,34.6c-0.4,0-0.7-0.2-0.9-0.6l-3.4-7.1c-0.2-0.5,0-1.1,0.5-1.3c0.5-0.2,1.1,0,1.3,0.5l3.4,7.1
			c0.2,0.5,0,1.1-0.5,1.3C27.8,34.6,27.6,34.6,27.5,34.6z"/>
	</g>
	<g>
		<path fill="#010101" d="M18.6,24.9c-0.3,0-0.6-0.1-0.8-0.4c-0.3-0.4-0.3-1.1,0.2-1.4l5.1-3.9c0.4-0.3,1.1-0.3,1.4,0.2
			c0.3,0.4,0.3,1.1-0.2,1.4l-5.1,3.9C19,24.8,18.8,24.9,18.6,24.9z"/>
		<path fill="#010101" d="M29.4,24.9c-0.2,0-0.4-0.1-0.6-0.2l-5.1-3.9c-0.4-0.3-0.5-1-0.2-1.4c0.3-0.4,1-0.5,1.4-0.2l5.1,3.9
			c0.4,0.3,0.5,1,0.2,1.4C30,24.8,29.7,24.9,29.4,24.9z"/>
	</g>
	<path fill="#010101" d="M24,18.8c-1.5,0-2.7-1.2-2.7-2.7s1.2-2.7,2.7-2.7c1.5,0,2.7,1.2,2.7,2.7S25.5,18.8,24,18.8z M24,15.4
		c-0.4,0-0.7,0.3-0.7,0.7c0,0.4,0.3,0.7,0.7,0.7c0.4,0,0.7-0.3,0.7-0.7C24.7,15.7,24.4,15.4,24,15.4z"/>
</g>
</svg>
