<?xml version="1.0" encoding="utf-8"?>
<!-- Generator: Adobe Illustrator 16.0.0, SVG Export Plug-In . SVG Version: 6.00 Build 0)  -->
<!DOCTYPE svg PUBLIC "-//W3C//DTD SVG 1.1//EN" "http://www.w3.org/Graphics/SVG/1.1/DTD/svg11.dtd">
<svg version="1.1" id="Layer_1" xmlns="http://www.w3.org/2000/svg" xmlns:xlink="http://www.w3.org/1999/xlink" x="0px" y="0px"
	 width="48px" height="48px" viewBox="0 0 48 48" enable-background="new 0 0 48 48" xml:space="preserve">
<g>
	<path d="M18.631,38.223c-2.622,0-5.798-0.784-9.441-2.329c-0.48-0.204-0.723-0.742-0.558-1.237c0.104-0.313,0.75-2.146,1.956-3.48
		c-3.459-0.977-9.189-3.496-10.564-9.63c-0.095-0.42,0.091-0.854,0.461-1.076c0.138-0.083,3.409-2.019,7.226-2.019
		c0.674,0,1.324,0.06,1.948,0.18c-1.177-2.12-2.275-5.294-2.344-9.808c-0.004-0.284,0.113-0.557,0.322-0.75
		C7.845,7.879,8.122,7.783,8.41,7.812c0.32,0.031,6.617,0.681,10.247,4.691c0.321-3.23,1.446-8.134,5.112-11.982
		c0.187-0.196,0.446-0.309,0.717-0.311c0.281,0.004,0.531,0.106,0.721,0.3c0.269,0.273,5.69,5.88,6.316,12.43
		c1.769-1.909,4.802-4.302,9.483-5.389c0.292-0.068,0.597-0.001,0.835,0.18c0.237,0.182,0.381,0.46,0.391,0.759
		c0.011,0.303,0.19,6.67-3.003,11.807c0.599-0.049,1.284-0.083,2.032-0.083c2.184,0,4.215,0.291,6.038,0.864
		c0.273,0.086,0.496,0.285,0.613,0.546c0.116,0.261,0.116,0.56-0.002,0.821c-0.128,0.282-2.843,6.15-8.596,8.986
		c1.126,0.574,2.342,1.457,3.073,2.774c0.083,0.148,0.126,0.315,0.126,0.485c0,1.523-6.798,3.193-9.685,3.193
		c-3.05,0-5.526-0.932-7.385-2.773C24.427,36.617,22.333,38.222,18.631,38.223C18.632,38.223,18.631,38.223,18.631,38.223z
		 M10.877,34.424c3.01,1.194,5.615,1.799,7.755,1.799c4.758-0.001,5.558-3.036,5.589-3.166c0.093-0.378,0.397-0.674,0.78-0.748
		s0.774,0.072,1.003,0.389c1.533,2.113,3.829,3.186,6.824,3.186c2.863,0,5.654-0.972,7.134-1.587
		c-1.407-1.392-3.679-1.853-3.705-1.858c-0.456-0.089-0.791-0.48-0.808-0.944c-0.018-0.464,0.286-0.879,0.733-1.001
		c5.074-1.394,8.155-5.791,9.343-7.824c-1.318-0.302-2.748-0.455-4.266-0.455c-2.319,0-4.017,0.367-4.033,0.371
		c-0.419,0.095-0.858-0.097-1.078-0.471c-0.219-0.374-0.173-0.846,0.115-1.17c3.152-3.546,3.809-8.729,3.939-11.106
		c-6.407,1.976-8.888,6.69-8.914,6.741c-0.227,0.442-0.74,0.649-1.214,0.49c-0.47-0.161-0.751-0.643-0.658-1.132
		c1.036-5.497-3.183-11.164-4.922-13.22c-4.465,5.466-3.937,12.965-3.93,13.044c0.039,0.495-0.292,0.944-0.775,1.054
		c-0.482,0.108-0.975-0.15-1.154-0.614c-1.659-4.292-6.934-5.767-9.277-6.219c0.402,6.654,3.234,9.607,4.134,10.382
		c0.054,0.039,0.149,0.116,0.245,0.195c0.41,0.342,0.475,0.942,0.154,1.368c-0.321,0.426-0.926,0.522-1.366,0.221
		c0,0-0.125-0.085-0.338-0.269c-1.22-0.936-2.741-1.428-4.478-1.428c-2.332,0-4.493,0.884-5.539,1.39
		c2.112,6.734,11.231,7.907,11.327,7.918c0.525,0.063,0.911,0.524,0.879,1.053c-0.031,0.528-0.469,0.94-0.998,0.94
		C12.384,31.752,11.427,33.231,10.877,34.424z"/>
	<path d="M25.195,47.789c-0.553,0-1-0.447-1-1V36.238c0-0.553,0.447-1,1-1s1,0.447,1,1v10.551
		C26.195,47.342,25.748,47.789,25.195,47.789z"/>
</g>
</svg>
