<?xml version="1.0" encoding="utf-8"?>
<!-- Generator: Adobe Illustrator 18.0.0, SVG Export Plug-In . SVG Version: 6.00 Build 0)  -->
<!DOCTYPE svg PUBLIC "-//W3C//DTD SVG 1.1//EN" "http://www.w3.org/Graphics/SVG/1.1/DTD/svg11.dtd">
<svg version="1.1" id="Layer_1" xmlns="http://www.w3.org/2000/svg" xmlns:xlink="http://www.w3.org/1999/xlink" x="0px" y="0px"
	 viewBox="0 0 48 48" enable-background="new 0 0 48 48" xml:space="preserve">
<g>
	<path d="M18.4,36.4c-4.5,0-9.2-2.1-12.8-5.7c-6.5-6.5-7.6-15.7-2.4-21c2.1-2.1,4.9-3.3,8.2-3.3c4.5,0,9.2,2.1,12.8,5.7
		c6.5,6.5,7.6,15.7,2.4,21C24.5,35.2,21.7,36.4,18.4,36.4z M11.4,8.3c-2.7,0-5.1,0.9-6.8,2.7C0.3,15.4,1.4,23.6,7,29.2
		c3.3,3.3,7.4,5.2,11.4,5.2c2.7,0,5.1-0.9,6.8-2.7c4.3-4.4,3.2-12.6-2.4-18.2C19.5,10.2,15.4,8.3,11.4,8.3z"/>
	<rect x="25" y="33.5" transform="matrix(0.6989 0.7152 -0.7152 0.6989 33.1219 -9.6741)" width="6.2" height="2"/>
	<path d="M38.2,48c-0.9,0-1.7-0.3-2.3-1l-6.4-6.5c-0.6-0.6-1-1.4-1-2.3s0.3-1.7,1-2.3c1.2-1.2,3.4-1.2,4.6,0l6.4,6.5
		c0.6,0.6,1,1.5,1,2.4c0,0.9-0.4,1.7-1,2.2C39.9,47.6,39.1,48,38.2,48z M31.8,36.9c-0.3,0-0.6,0.1-0.9,0.4c-0.2,0.2-0.4,0.6-0.4,0.9
		c0,0.3,0.1,0.6,0.4,0.9l6.4,6.5c0.5,0.5,1.3,0.5,1.8,0c0.3-0.2,0.4-0.5,0.4-0.8c0-0.4-0.1-0.7-0.4-1l-6.4-6.5
		C32.4,37.1,32.1,36.9,31.8,36.9z"/>
	<g>
		<path d="M40.5,15c-2,0-3.9-0.8-5.3-2.2c-2.9-3-2.9-7.7,0-10.6C36.6,0.8,38.5,0,40.5,0c2,0,3.9,0.8,5.3,2.2c2.9,3,2.9,7.8,0,10.6
			C44.4,14.2,42.5,15,40.5,15z M40.5,2c-1.5,0-2.8,0.6-3.9,1.6c-2.1,2.1-2.1,5.6,0,7.8c1,1,2.4,1.6,3.8,1.6c1.5,0,2.9-0.6,3.9-1.6
			c2.1-2.1,2.1-5.6,0-7.8C43.3,2.6,41.9,2,40.5,2z"/>
		<path d="M38,13.9c-0.5,0-1.1,0-1.5-0.1l0.3-2c1,0.2,2.4,0.1,3.6-0.2c0.3-0.1,0.6-0.2,0.8-0.3c0.6-0.4,1-1,1.2-1.6
			c0.1-0.6-0.1-1.2-0.5-1.7c-0.3-0.4-0.8-0.6-1.3-1c-0.4-0.2-0.8-0.5-1.2-0.8C39.1,6.1,39,6,38.8,5.9c-0.6-0.5-1.3-1-1.8-2.1L37,3.8
			c-0.3-0.7-0.3-2,0.2-2.8l1.7,1c-0.1,0.2-0.1,0.7,0,1c0.4,0.7,0.8,1,1.3,1.4c0.2,0.1,0.3,0.2,0.5,0.4c0.3,0.2,0.6,0.4,1,0.6
			c0.6,0.4,1.3,0.8,1.8,1.4c0.8,1,1.2,2.3,0.9,3.5c-0.3,1.1-1,2.2-2,2.8c-0.4,0.3-0.9,0.4-1.4,0.5C39.9,13.8,38.9,13.9,38,13.9z"/>
	</g>
</g>
</svg>
