<?xml version="1.0" encoding="utf-8"?>
<!-- Generator: Adobe Illustrator 16.0.0, SVG Export Plug-In . SVG Version: 6.00 Build 0)  -->
<!DOCTYPE svg PUBLIC "-//W3C//DTD SVG 1.1//EN" "http://www.w3.org/Graphics/SVG/1.1/DTD/svg11.dtd">
<svg version="1.1" id="Layer_1" xmlns="http://www.w3.org/2000/svg" xmlns:xlink="http://www.w3.org/1999/xlink" x="0px" y="0px"
	 width="48px" height="48px" viewBox="0 0 48 48" enable-background="new 0 0 48 48" xml:space="preserve">
<g>
	<path d="M47,42.928H1c-0.552,0-1-0.447-1-1V14.621c0-0.552,0.448-1,1-1h46c0.553,0,1,0.448,1,1v27.307
		C48,42.48,47.553,42.928,47,42.928z M2,40.928h44V15.621H2V40.928z"/>
	<path d="M38,35.452c-2.883,0-5.229-2.346-5.229-5.229c0-2.883,2.346-5.229,5.229-5.229s5.229,2.346,5.229,5.229
		C43.229,33.106,40.883,35.452,38,35.452z M38,26.994c-1.78,0-3.229,1.448-3.229,3.229S36.22,33.452,38,33.452
		s3.229-1.449,3.229-3.229S39.78,26.994,38,26.994z"/>
	<path d="M10.001,35.452c-2.883,0-5.229-2.346-5.229-5.229c0-2.883,2.346-5.229,5.229-5.229s5.229,2.346,5.229,5.229
		C15.23,33.106,12.884,35.452,10.001,35.452z M10.001,26.994c-1.78,0-3.229,1.448-3.229,3.229s1.449,3.229,3.229,3.229
		s3.229-1.449,3.229-3.229S11.781,26.994,10.001,26.994z"/>
	<path d="M27.729,31.557h-7.458c-0.552,0-1-0.447-1-1v-8.015c0-0.552,0.448-1,1-1h7.458c0.553,0,1,0.448,1,1v8.015
		C28.729,31.109,28.281,31.557,27.729,31.557z M21.271,29.557h5.458v-6.015h-5.458V29.557z"/>
	<path d="M40.139,15.641c-0.553,0-1-0.448-1-1V7.072H8.862v7.458c0,0.552-0.448,1-1,1s-1-0.448-1-1V6.072c0-0.552,0.448-1,1-1
		h32.277c0.553,0,1,0.448,1,1v8.569C41.139,15.193,40.691,15.641,40.139,15.641z"/>
	<g>
		<path d="M31.4,15.14c-0.553,0-1-0.448-1-1v-1.947c0-0.552,0.447-1,1-1s1,0.448,1,1v1.947C32.4,14.692,31.953,15.14,31.4,15.14z"/>
		<path d="M24,15.14c-0.552,0-1-0.448-1-1v-1.947c0-0.552,0.448-1,1-1c0.553,0,1,0.448,1,1v1.947C25,14.692,24.553,15.14,24,15.14z"
			/>
		<path d="M16.599,15.14c-0.552,0-1-0.448-1-1v-1.947c0-0.552,0.448-1,1-1s1,0.448,1,1v1.947
			C17.599,14.692,17.151,15.14,16.599,15.14z"/>
	</g>
</g>
</svg>
