<?xml version="1.0" encoding="utf-8"?>
<!-- Generator: Adobe Illustrator 18.0.0, SVG Export Plug-In . SVG Version: 6.00 Build 0)  -->
<!DOCTYPE svg PUBLIC "-//W3C//DTD SVG 1.1//EN" "http://www.w3.org/Graphics/SVG/1.1/DTD/svg11.dtd">
<svg version="1.1" id="Layer_1" xmlns="http://www.w3.org/2000/svg" xmlns:xlink="http://www.w3.org/1999/xlink" x="0px" y="0px"
	 viewBox="0 0 48 48" enable-background="new 0 0 48 48" xml:space="preserve">
<g>
	<rect x="28.2" y="0.3" transform="matrix(0.9519 0.3065 -0.3065 0.9519 5.7128 -8.2748)" fill="#010101" width="2" height="27.4"/>
	<path fill="#010101" d="M33.3,34.8l-19.5-6.3l1.8-5.5l19.5,6.3L33.3,34.8z M16.3,27.2l15.7,5l0.5-1.7l-15.7-5L16.3,27.2z"/>
	<path fill="#010101" d="M14.1,42.2c-0.6-1-1.3-2.4-1-3.8l0-0.1c0.1-0.2,0.1-0.4,0.2-0.6c0.1-0.3,0.2-0.6,0.2-0.8
		c0-0.1-0.1-0.3-0.1-0.5c-0.1-0.4-0.3-0.8-0.3-1.4c0-0.8,0.5-1.2,0.7-1.5c0.1-0.1,0.1-0.1,0.2-0.2c0.2-0.3,0.2-0.6,0.2-0.7
		c0-0.2-0.1-0.3-0.1-0.4c-0.1-0.3-0.4-0.9-0.1-1.6l0.1-0.2c0.2-0.4,0.3-0.6,0.3-0.9c0,0,0-0.1-0.1-0.2c-0.1-0.4-0.4-1.2,0.3-1.8
		l1.4,1.4c0.2-0.2,0.2-0.4,0.2-0.4c0,0.1,0,0.2,0.1,0.2c0.1,0.2,0.1,0.5,0.1,0.8c0,0.7-0.2,1.2-0.5,1.6c0,0,0,0.1,0.1,0.2
		c0.1,0.2,0.2,0.5,0.3,0.9c0.1,0.8-0.1,1.6-0.6,2.2c-0.1,0.2-0.3,0.3-0.4,0.4c0,0-0.1,0.1-0.1,0.1c0,0.2,0.1,0.4,0.2,0.6
		c0.1,0.3,0.3,0.7,0.3,1.2c0,0.6-0.2,1.1-0.4,1.6c0,0.1-0.1,0.3-0.1,0.4c-0.1,0.7,0.4,1.7,0.8,2.3L14.1,42.2z"/>
	<path fill="#010101" d="M18.4,43.5c-0.6-1-1.3-2.4-1-3.8l0-0.1c0.1-0.2,0.1-0.4,0.2-0.6c0.1-0.3,0.2-0.6,0.2-0.8
		c0-0.1-0.1-0.3-0.1-0.5c-0.1-0.4-0.3-0.8-0.3-1.4c0-0.8,0.5-1.2,0.7-1.5c0.1-0.1,0.1-0.1,0.2-0.2c0.2-0.3,0.2-0.6,0.2-0.7
		c0-0.2-0.1-0.3-0.1-0.4c-0.1-0.3-0.4-0.9-0.1-1.6c0-0.1,0.1-0.3,0.1-0.4c0.1-0.2,0.1-0.4,0.1-0.6c0,0,0-0.1-0.1-0.2
		c-0.1-0.4-0.4-1.2,0.3-1.8l1.4,1.4c0.2-0.2,0.2-0.4,0.2-0.4c0,0.1,0,0.2,0.1,0.2c0.1,0.2,0.1,0.5,0.1,0.8c0,0.5-0.1,0.9-0.2,1.2
		c0,0.1-0.1,0.2-0.1,0.3c0,0.1,0,0.1,0.1,0.3c0.1,0.2,0.2,0.5,0.3,0.9c0.1,0.8-0.1,1.6-0.6,2.2c-0.1,0.2-0.3,0.3-0.4,0.4
		c0,0-0.1,0.1-0.1,0.1c0,0.2,0.1,0.4,0.2,0.6c0.1,0.3,0.3,0.7,0.3,1.2c0,0.6-0.2,1.1-0.4,1.6c0,0.1-0.1,0.3-0.1,0.4
		c-0.1,0.7,0.4,1.7,0.8,2.3L18.4,43.5z"/>
	<path fill="#010101" d="M22.4,44.9c-0.6-1-1.3-2.4-1-3.8l0-0.1c0.1-0.2,0.1-0.4,0.2-0.6c0.1-0.3,0.2-0.6,0.2-0.8
		c0-0.1-0.1-0.3-0.1-0.5c-0.1-0.4-0.3-0.8-0.3-1.4c0-0.8,0.5-1.2,0.7-1.5c0.1-0.1,0.1-0.1,0.2-0.2c0.2-0.3,0.2-0.6,0.2-0.7
		c0-0.2-0.1-0.3-0.1-0.4c-0.1-0.3-0.4-0.9-0.1-1.6l0.1-0.2c0.2-0.4,0.3-0.6,0.3-0.9c0,0,0-0.1-0.1-0.2c-0.1-0.4-0.4-1.2,0.3-1.8
		l1.4,1.4c0.2-0.2,0.2-0.4,0.2-0.4c0,0.1,0,0.2,0.1,0.2c0.1,0.2,0.1,0.5,0.1,0.8c0,0.7-0.2,1.2-0.5,1.6c0,0,0,0.1,0.1,0.2
		c0.1,0.2,0.2,0.5,0.3,0.9c0.1,0.8-0.1,1.6-0.6,2.2c-0.1,0.2-0.3,0.3-0.4,0.4c0,0-0.1,0.1-0.1,0.1c0,0.2,0.1,0.4,0.2,0.6
		c0.1,0.3,0.3,0.7,0.3,1.2c0,0.6-0.2,1.1-0.4,1.6c0,0.1-0.1,0.3-0.1,0.4c-0.1,0.7,0.4,1.7,0.8,2.3L22.4,44.9z"/>
	<path fill="#010101" d="M26.7,46.2c-0.6-1-1.3-2.4-1-3.8l0-0.1c0.1-0.2,0.1-0.4,0.2-0.6c0.1-0.3,0.2-0.6,0.2-0.8
		c0-0.1-0.1-0.3-0.1-0.5c-0.1-0.4-0.3-0.8-0.3-1.4c0-0.8,0.5-1.2,0.7-1.5c0.1-0.1,0.1-0.1,0.2-0.2c0.2-0.3,0.2-0.6,0.2-0.7
		c0-0.2-0.1-0.3-0.1-0.4c-0.1-0.3-0.4-0.9-0.1-1.6c0-0.1,0.1-0.3,0.1-0.4c0.1-0.2,0.1-0.4,0.1-0.6c0,0,0-0.1-0.1-0.2
		c-0.1-0.4-0.4-1.2,0.3-1.8l1.4,1.4c0.2-0.2,0.2-0.4,0.2-0.4c0,0.1,0,0.2,0.1,0.2c0.1,0.2,0.1,0.5,0.1,0.8c0,0.5-0.1,0.9-0.2,1.2
		c0,0.1-0.1,0.2-0.1,0.3c0,0.1,0,0.1,0.1,0.3c0.1,0.2,0.2,0.5,0.3,0.9c0.1,0.8-0.1,1.6-0.6,2.2c-0.1,0.2-0.3,0.3-0.4,0.4
		c0,0-0.1,0.1-0.1,0.1c0,0.2,0.1,0.3,0.2,0.6c0.1,0.3,0.3,0.7,0.3,1.2c0,0.6-0.2,1.1-0.4,1.6c0,0.1-0.1,0.3-0.1,0.4
		c-0.1,0.7,0.4,1.7,0.8,2.3L26.7,46.2z"/>
	<path fill="#010101" d="M30.7,47.5c-0.6-1-1.3-2.4-1-3.8l0-0.1c0.1-0.2,0.1-0.4,0.2-0.6c0.1-0.3,0.2-0.6,0.2-0.8
		c0-0.1-0.1-0.3-0.1-0.5c-0.1-0.4-0.3-0.8-0.3-1.4c0-0.8,0.5-1.2,0.7-1.5c0.1-0.1,0.1-0.1,0.2-0.2c0.2-0.3,0.2-0.6,0.2-0.7
		c0-0.2-0.1-0.3-0.1-0.4c-0.1-0.3-0.4-0.9-0.1-1.6l0.1-0.2c0.2-0.4,0.3-0.6,0.3-0.9c0,0,0-0.1-0.1-0.2c-0.1-0.4-0.4-1.2,0.3-1.8
		l1.4,1.4c0.2-0.2,0.2-0.4,0.2-0.4c0,0.1,0,0.2,0.1,0.2c0.1,0.2,0.1,0.5,0.1,0.8c0,0.7-0.2,1.2-0.5,1.6c0,0,0,0.1,0.1,0.2
		c0.1,0.2,0.2,0.5,0.3,0.9c0.1,0.8-0.1,1.6-0.6,2.2c-0.1,0.2-0.3,0.3-0.4,0.4c0,0-0.1,0.1-0.1,0.1c0,0.2,0.1,0.3,0.2,0.6
		c0.1,0.3,0.3,0.7,0.3,1.2c0,0.6-0.2,1.1-0.4,1.6c-0.1,0.1-0.1,0.3-0.1,0.4c-0.1,0.7,0.4,1.7,0.8,2.3L30.7,47.5z"/>
</g>
</svg>
