<?xml version="1.0" encoding="utf-8"?>
<!-- Generator: Adobe Illustrator 16.0.0, SVG Export Plug-In . SVG Version: 6.00 Build 0)  -->
<!DOCTYPE svg PUBLIC "-//W3C//DTD SVG 1.1//EN" "http://www.w3.org/Graphics/SVG/1.1/DTD/svg11.dtd">
<svg version="1.1" id="Layer_1" xmlns="http://www.w3.org/2000/svg" xmlns:xlink="http://www.w3.org/1999/xlink" x="0px" y="0px"
	 width="48px" height="48px" viewBox="0 0 48 48" enable-background="new 0 0 48 48" xml:space="preserve">
<g>
	<path d="M35.3,11.655c-2.485,0-4.507-2.022-4.507-4.507s2.021-4.507,4.507-4.507s4.507,2.022,4.507,4.507
		S37.785,11.655,35.3,11.655z M35.3,4.641c-1.382,0-2.507,1.125-2.507,2.507s1.125,2.507,2.507,2.507s2.507-1.125,2.507-2.507
		S36.682,4.641,35.3,4.641z"/>
	<path d="M10.708,12.724c-2.485,0-4.507-2.022-4.507-4.507c0-2.485,2.022-4.507,4.507-4.507s4.507,2.022,4.507,4.507
		C15.215,10.702,13.193,12.724,10.708,12.724z M10.708,5.71c-1.382,0-2.507,1.125-2.507,2.507s1.125,2.507,2.507,2.507
		s2.507-1.125,2.507-2.507S12.09,5.71,10.708,5.71z"/>
	<path d="M40.047,29.658h-8.984c-0.553,0-1-0.447-1-1V12.705c0-0.552,0.447-1,1-1h8.984c0.553,0,1,0.448,1,1v15.953
		C41.047,29.211,40.6,29.658,40.047,29.658z M32.063,27.658h6.984V13.705h-6.984V27.658z"/>
	<g>
		<path d="M32.047,44.27c-0.553,0-1-0.447-1-1V29.33c0-0.553,0.447-1,1-1s1,0.447,1,1V43.27C33.047,43.822,32.6,44.27,32.047,44.27z
			"/>
		<path d="M39.063,44.27c-0.553,0-1-0.447-1-1V29.33c0-0.553,0.447-1,1-1s1,0.447,1,1V43.27
			C40.063,43.822,39.615,44.27,39.063,44.27z"/>
	</g>
	<path d="M21.061,24.227c-0.25,0-0.5-0.093-0.694-0.28c-0.397-0.383-0.409-1.017-0.025-1.414l9.235-9.573
		c0.384-0.396,1.017-0.407,1.414-0.025c0.397,0.383,0.409,1.017,0.025,1.414l-9.235,9.573
		C21.584,24.125,21.323,24.227,21.061,24.227z"/>
	<path d="M46.999,23.304c-0.539,0-0.983-0.429-0.999-0.972c-0.083-2.966-0.826-5.126-2.208-6.418
		c-1.4-1.309-2.983-1.267-3.041-1.258c-0.541,0.021-1.017-0.403-1.042-0.952c-0.026-0.548,0.391-1.015,0.938-1.045
		c0.1-0.003,2.436-0.114,4.469,1.756C46.93,16.082,47.9,18.727,48,22.276c0.015,0.552-0.42,1.012-0.972,1.027
		C47.019,23.304,47.009,23.304,46.999,23.304z"/>
	<path d="M18.216,26.277c-0.552,0-1-0.447-1-1v-6.672c0-1.684-1.37-3.053-3.053-3.053H7.154c-1.683,0-3.053,1.37-3.053,3.053v6.672
		c0,0.553-0.448,1-1,1s-1-0.447-1-1v-6.672c0-2.786,2.267-5.053,5.053-5.053h7.009c2.786,0,5.053,2.267,5.053,5.053v6.672
		C19.216,25.83,18.768,26.277,18.216,26.277z"/>
	<path d="M30.559,26.971H1c-0.552,0-1-0.447-1-1s0.448-1,1-1h29.559c0.553,0,1,0.447,1,1S31.111,26.971,30.559,26.971z"/>
	<path d="M26.359,45.359h-15.65c-0.552,0-1-0.447-1-1V32.521c0-0.553,0.448-1,1-1h15.65c0.553,0,1,0.447,1,1v11.838
		C27.359,44.912,26.912,45.359,26.359,45.359z M11.709,43.359h13.65v-9.838h-13.65V43.359z"/>
	<path d="M19.978,30.33h-4.199c-0.552,0-1-0.447-1-1s0.448-1,1-1h4.199c0.552,0,1,0.447,1,1S20.53,30.33,19.978,30.33z"/>
</g>
</svg>
