<?xml version="1.0" encoding="utf-8"?>
<!-- Generator: Adobe Illustrator 18.0.0, SVG Export Plug-In . SVG Version: 6.00 Build 0)  -->
<!DOCTYPE svg PUBLIC "-//W3C//DTD SVG 1.1//EN" "http://www.w3.org/Graphics/SVG/1.1/DTD/svg11.dtd">
<svg version="1.1" id="Layer_1" xmlns="http://www.w3.org/2000/svg" xmlns:xlink="http://www.w3.org/1999/xlink" x="0px" y="0px"
	 viewBox="0 0 48 48" enable-background="new 0 0 48 48" xml:space="preserve">
<g>
	<path fill="#010101" d="M40,41.7H8c-2,0-3.5-1.5-3.5-3.5V6.8C4.5,3.1,7.6,0,11.3,0h25.3c3.8,0,6.8,3.1,6.8,6.8v31.4
		c0.1,0.9-0.2,1.7-0.9,2.4C41.9,41.3,41,41.7,40,41.7z M11.3,2C8.7,2,6.5,4.2,6.5,6.8v31.4c0,0.8,0.7,1.5,1.5,1.5h32
		c0.4,0,0.8-0.2,1.1-0.4c0.2-0.2,0.4-0.5,0.3-1l0-31.5c0-2.6-2.2-4.8-4.8-4.8H11.3z"/>
	<rect x="5.5" y="25.4" fill="#010101" width="37" height="2"/>
	<rect x="20.6" y="4.5" fill="#010101" width="6.8" height="2"/>
	<g>
		<rect x="10" y="34.3" fill="#010101" width="3.8" height="2"/>
		<rect x="34.2" y="34.3" fill="#010101" width="3.8" height="2"/>
	</g>
	<g>
		<rect y="9.9" fill="#010101" width="2" height="8.3"/>
		<rect x="46" y="9.9" fill="#010101" width="2" height="8.3"/>
	</g>
	<g>
		<rect x="10.7" y="40.7" fill="#010101" width="2" height="6.3"/>
		<rect x="35.3" y="40.7" fill="#010101" width="2" height="6.3"/>
	</g>
</g>
</svg>
