<?xml version="1.0" encoding="utf-8"?>
<!-- Generator: Adobe Illustrator 16.0.0, SVG Export Plug-In . SVG Version: 6.00 Build 0)  -->
<!DOCTYPE svg PUBLIC "-//W3C//DTD SVG 1.1//EN" "http://www.w3.org/Graphics/SVG/1.1/DTD/svg11.dtd">
<svg version="1.1" id="Layer_1" xmlns="http://www.w3.org/2000/svg" xmlns:xlink="http://www.w3.org/1999/xlink" x="0px" y="0px"
	 width="48px" height="48px" viewBox="0 0 48 48" enable-background="new 0 0 48 48" xml:space="preserve">
<g>
	<path d="M37.529,45.749H10.469c-0.552,0-1-0.447-1-1V1c0-0.552,0.448-1,1-1h27.061c0.553,0,1,0.448,1,1v43.749
		C38.529,45.302,38.082,45.749,37.529,45.749z M11.469,43.749h25.061V2H11.469V43.749z"/>
	<path d="M37.027,16.591H10.974c-0.552,0-1-0.448-1-1s0.448-1,1-1h26.053c0.553,0,1,0.448,1,1S37.58,16.591,37.027,16.591z"/>
	<path d="M32.771,32.641c-0.553,0-1-0.447-1-1v-5.469c0-0.553,0.447-1,1-1s1,0.447,1,1v5.469
		C33.771,32.193,33.324,32.641,32.771,32.641z"/>
	<g>
		<path d="M33.867,48c-0.553,0-1-0.447-1-1v-1.688c0-0.553,0.447-1,1-1s1,0.447,1,1V47C34.867,47.553,34.42,48,33.867,48z"/>
		<path d="M14.133,48c-0.552,0-1-0.447-1-1v-1.688c0-0.553,0.448-1,1-1s1,0.447,1,1V47C15.133,47.553,14.685,48,14.133,48z"/>
	</g>
</g>
</svg>
