<?xml version="1.0" encoding="utf-8"?>
<!-- Generator: Adobe Illustrator 16.0.0, SVG Export Plug-In . SVG Version: 6.00 Build 0)  -->
<!DOCTYPE svg PUBLIC "-//W3C//DTD SVG 1.1//EN" "http://www.w3.org/Graphics/SVG/1.1/DTD/svg11.dtd">
<svg version="1.1" id="Layer_1" xmlns="http://www.w3.org/2000/svg" xmlns:xlink="http://www.w3.org/1999/xlink" x="0px" y="0px"
	 width="48px" height="48px" viewBox="0 0 48 48" enable-background="new 0 0 48 48" xml:space="preserve">
<g>
	<g>
		<circle cx="17.485" cy="23.006" r="1.42"/>
		<circle cx="30.516" cy="23.006" r="1.42"/>
	</g>
	<g>
		<path d="M24,48C15.216,48,8.712,26.838,8.712,21.245c0-5.708,6.859-10.352,15.289-10.352c8.43,0,15.287,4.644,15.287,10.352
			C39.288,26.838,32.784,48,24,48z M24.001,12.893c-7.328,0-13.289,3.747-13.289,8.352C10.712,26.789,17.149,46,24,46
			c6.852,0,13.288-19.211,13.288-24.755C37.288,16.64,31.327,12.893,24.001,12.893z"/>
		<g>
			<path d="M3.799,30.31c-0.445,0-0.874-0.076-1.274-0.227c-0.949-0.356-1.676-1.09-2.106-2.122
				c-0.679-1.633-0.522-3.855,0.419-5.946c1.294-2.876,3.689-4.81,5.96-4.81c0.446,0,0.875,0.076,1.278,0.228
				c0.947,0.354,1.674,1.088,2.104,2.12c0.68,1.632,0.524,3.854-0.417,5.945C8.47,28.376,6.073,30.31,3.799,30.31z M6.799,19.206
				c-1.244,0-3.065,1.247-4.137,3.63c-0.708,1.573-0.86,3.241-0.396,4.356c0.215,0.517,0.538,0.859,0.961,1.018
				c1.241,0.466,3.465-0.757,4.713-3.532c0.708-1.573,0.859-3.242,0.395-4.355c-0.215-0.517-0.538-0.858-0.961-1.017
				C7.197,19.239,7.003,19.206,6.799,19.206z"/>
			<path d="M44.201,30.309c-2.237,0-4.69-1.978-5.967-4.81c-0.94-2.093-1.096-4.315-0.416-5.947c0.43-1.032,1.157-1.765,2.104-2.12
				c0.401-0.151,0.832-0.227,1.277-0.227c2.271,0,4.668,1.933,5.962,4.81c0.941,2.091,1.098,4.313,0.418,5.945
				c-0.43,1.032-1.157,1.767-2.104,2.122C45.073,30.233,44.646,30.309,44.201,30.309z M41.2,19.206c-0.205,0-0.398,0.034-0.575,0.1
				c-0.423,0.158-0.746,0.5-0.961,1.016c-0.464,1.114-0.313,2.783,0.395,4.356c1.249,2.774,3.469,3.997,4.715,3.532
				c0.422-0.158,0.745-0.501,0.96-1.018c0.464-1.114,0.313-2.783-0.396-4.356C44.266,20.453,42.445,19.206,41.2,19.206z"/>
		</g>
		<g>
			<path d="M21.805,12.893c-0.472,0-0.893-0.336-0.982-0.817c-0.377-2.024-2.207-2.336-2.576-2.379
				C11.539,9.869,6.868,8.554,4.362,5.789C2.255,3.464,2.54,0.98,2.553,0.875c0.068-0.549,0.577-0.94,1.117-0.868
				c0.545,0.068,0.933,0.564,0.869,1.108C4.529,1.205,4.383,2.868,5.884,4.49c1.458,1.575,4.796,3.404,12.372,3.206l0.05-0.001
				l0.05,0.004c1.292,0.095,3.882,1.056,4.433,4.011c0.102,0.543-0.257,1.065-0.8,1.166C21.927,12.888,21.866,12.893,21.805,12.893z
				"/>
			<path d="M12.668,9.424c-0.139,0-0.279-0.029-0.413-0.09C8.043,7.42,8.913,1.123,8.952,0.855c0.08-0.546,0.584-0.926,1.132-0.844
				c0.546,0.079,0.925,0.586,0.847,1.132c-0.007,0.051-0.692,5.078,2.152,6.37c0.503,0.229,0.725,0.821,0.497,1.324
				C13.412,9.206,13.048,9.424,12.668,9.424z"/>
			<path d="M18.057,9.424c-0.139,0-0.279-0.029-0.413-0.09c-4.211-1.914-3.342-8.211-3.303-8.479
				c0.08-0.546,0.584-0.926,1.132-0.844c0.546,0.079,0.925,0.586,0.847,1.132c-0.007,0.051-0.692,5.078,2.151,6.371
				c0.503,0.229,0.725,0.821,0.497,1.324C18.8,9.206,18.437,9.424,18.057,9.424z"/>
			<path d="M26.196,12.893c-0.061,0-0.122-0.005-0.184-0.017c-0.543-0.101-0.901-0.623-0.801-1.166
				c0.55-2.956,3.139-3.917,4.431-4.012l0.05-0.004l0.05,0.001c7.589,0.201,10.915-1.631,12.373-3.206
				c1.51-1.632,1.353-3.305,1.346-3.375c-0.058-0.545,0.334-1.04,0.879-1.103c0.552-0.06,1.038,0.321,1.106,0.864
				c0.013,0.104,0.298,2.589-1.81,4.914c-2.504,2.765-7.17,4.084-13.886,3.908c-0.353,0.04-2.194,0.346-2.572,2.378
				C27.089,12.557,26.669,12.893,26.196,12.893z"/>
			<path d="M35.332,9.424c-0.381,0-0.744-0.218-0.911-0.587c-0.229-0.503-0.007-1.096,0.496-1.324
				c2.813-1.278,2.159-6.318,2.152-6.368c-0.08-0.547,0.298-1.055,0.845-1.134c0.547-0.08,1.055,0.298,1.134,0.844
				c0.039,0.268,0.909,6.565-3.303,8.479C35.61,9.395,35.47,9.424,35.332,9.424z"/>
			<path d="M29.942,9.424c-0.381,0-0.744-0.218-0.911-0.587c-0.229-0.503-0.007-1.096,0.496-1.324
				c2.813-1.278,2.16-6.318,2.153-6.369c-0.08-0.546,0.298-1.054,0.845-1.134c0.547-0.08,1.055,0.298,1.134,0.845
				c0.039,0.267,0.908,6.565-3.304,8.479C30.221,9.395,30.08,9.424,29.942,9.424z"/>
		</g>
	</g>
	<path d="M26.193,42.604h-4.386c-0.552,0-1-0.447-1-1s0.448-1,1-1h4.386c0.553,0,1,0.447,1,1S26.746,42.604,26.193,42.604z"/>
</g>
</svg>
