<?xml version="1.0" encoding="utf-8"?>
<!-- Generator: Adobe Illustrator 16.0.0, SVG Export Plug-In . SVG Version: 6.00 Build 0)  -->
<!DOCTYPE svg PUBLIC "-//W3C//DTD SVG 1.1//EN" "http://www.w3.org/Graphics/SVG/1.1/DTD/svg11.dtd">
<svg version="1.1" id="Layer_1" xmlns="http://www.w3.org/2000/svg" xmlns:xlink="http://www.w3.org/1999/xlink" x="0px" y="0px"
	 width="48px" height="48px" viewBox="0 0 48 48" enable-background="new 0 0 48 48" xml:space="preserve">
<g>
	<g>
		<ellipse cx="18.115" cy="9.568" rx="1.213" ry="1.205"/>
		<ellipse cx="24" cy="9.568" rx="1.213" ry="1.205"/>
		<ellipse cx="29.884" cy="9.568" rx="1.214" ry="1.205"/>
	</g>
	<g>
		<ellipse cx="18.115" cy="16.588" rx="1.213" ry="1.205"/>
		<ellipse cx="24" cy="16.588" rx="1.213" ry="1.205"/>
		<ellipse cx="29.884" cy="16.588" rx="1.214" ry="1.205"/>
	</g>
	<path d="M37.334,48H10.666c-0.552,0-1-0.447-1-1V1c0-0.552,0.448-1,1-1h26.668c0.553,0,1,0.448,1,1v46
		C38.334,47.553,37.887,48,37.334,48z M11.666,46h24.668V2H11.666V46z"/>
	<g>
		<g>
			<path d="M27.114,28.023c-0.183,0-0.367-0.05-0.533-0.154c-1.539-0.975-3.615-0.977-5.165-0.002
				c-0.466,0.296-1.084,0.155-1.379-0.313c-0.294-0.468-0.154-1.085,0.313-1.379c2.191-1.38,5.121-1.374,7.3,0.002
				c0.467,0.296,0.606,0.913,0.312,1.38C27.771,27.858,27.446,28.023,27.114,28.023z"/>
			<path d="M23.996,40.936c-1.292,0-2.553-0.364-3.646-1.053c-0.467-0.294-0.607-0.911-0.313-1.379
				c0.294-0.468,0.912-0.608,1.379-0.313c1.55,0.975,3.626,0.972,5.164-0.003c0.467-0.297,1.085-0.157,1.38,0.31
				c0.296,0.466,0.157,1.084-0.31,1.38C26.56,40.569,25.296,40.936,23.996,40.936z"/>
		</g>
		<g>
			<path d="M17.995,37.145c-0.332,0-0.656-0.165-0.846-0.466c-0.69-1.092-1.055-2.354-1.055-3.651c0-1.294,0.364-2.556,1.052-3.648
				c0.293-0.468,0.912-0.607,1.379-0.313c0.468,0.294,0.608,0.911,0.313,1.379c-0.487,0.773-0.745,1.666-0.745,2.582
				c0,0.918,0.258,1.812,0.746,2.583c0.295,0.467,0.156,1.084-0.311,1.38C18.363,37.095,18.178,37.145,17.995,37.145z"/>
			<path d="M30.003,37.145c-0.184,0-0.368-0.05-0.534-0.155c-0.467-0.296-0.605-0.914-0.31-1.38
				c0.489-0.771,0.747-1.663,0.747-2.582c0-0.917-0.258-1.81-0.746-2.581c-0.295-0.467-0.155-1.084,0.312-1.38
				c0.469-0.294,1.085-0.154,1.38,0.312c0.689,1.092,1.055,2.354,1.055,3.649c0,1.299-0.366,2.562-1.058,3.652
				C30.658,36.98,30.334,37.145,30.003,37.145z"/>
		</g>
	</g>
</g>
</svg>
