<?xml version="1.0" encoding="utf-8"?>
<!-- Generator: Adobe Illustrator 16.0.0, SVG Export Plug-In . SVG Version: 6.00 Build 0)  -->
<!DOCTYPE svg PUBLIC "-//W3C//DTD SVG 1.1//EN" "http://www.w3.org/Graphics/SVG/1.1/DTD/svg11.dtd">
<svg version="1.1" id="Layer_1" xmlns="http://www.w3.org/2000/svg" xmlns:xlink="http://www.w3.org/1999/xlink" x="0px" y="0px"
	 width="48px" height="48px" viewBox="0 0 48 48" enable-background="new 0 0 48 48" xml:space="preserve">
<g>
	<path d="M45.021,24.763H28.881c-0.553,0-1-0.448-1-1s0.447-1,1-1h16.141c0.54,0,0.979-0.439,0.979-0.979v-6.214
		c0-0.54-0.439-0.979-0.979-0.979H2.979C2.439,14.59,2,15.029,2,15.569v6.214c0,0.539,0.439,0.978,0.979,0.978h16.096
		c0.552,0,1,0.448,1,1s-0.448,1-1,1H2.979C1.336,24.761,0,23.425,0,21.783v-6.214c0-1.643,1.336-2.979,2.979-2.979h42.042
		c1.643,0,2.979,1.336,2.979,2.979v6.214C48.001,23.426,46.664,24.763,45.021,24.763z"/>
	<path d="M41.809,48H6.192c-1.643,0-2.979-1.336-2.979-2.979V25.74c0-1.643,1.336-2.979,2.979-2.979h13.256c0.552,0,1,0.448,1,1
		s-0.448,1-1,1H6.192c-0.54,0-0.979,0.439-0.979,0.979v19.281c0,0.54,0.439,0.979,0.979,0.979h35.617
		c0.54,0,0.979-0.438,0.979-0.979V25.74c0-0.54-0.439-0.979-0.979-0.979H28.552c-0.553,0-1-0.448-1-1s0.447-1,1-1h13.257
		c1.643,0,2.979,1.336,2.979,2.979v19.281C44.788,46.664,43.451,48,41.809,48z"/>
	<g>
		<path d="M24.779,14.272c-0.279,0-0.535-0.059-0.769-0.192c-0.389-0.221-0.632-0.617-0.667-1.085
			c-0.007-0.089-0.001-0.177,0.014-0.261c-0.025-0.132-0.024-0.271,0.008-0.411c0.964-4.188,2.495-7.227,4.966-9.855
			c0.998-1.06,3.415-2.666,5.656-2.449c1.119,0.106,2.024,0.657,2.619,1.593c1.467,2.313,1.112,6.019,0.163,8.484
			c-0.908,2.356-3.721,2.502-5.98,2.619c-1.043,0.054-2.027,0.105-2.702,0.332c-0.113,0.041-0.31,0.143-0.551,0.262
			C26.428,13.858,25.52,14.272,24.779,14.272z M33.572,1.999c-1.342,0-3.027,1.035-3.783,1.839
			c-2.074,2.206-3.416,4.763-4.301,8.219c0.429-0.177,0.915-0.417,1.16-0.54c0.354-0.175,0.646-0.313,0.803-0.366
			c0.934-0.313,2.052-0.372,3.235-0.433c2.211-0.115,3.808-0.278,4.217-1.341c0.781-2.026,1.052-5.061,0.016-6.694
			C34.657,2.271,34.302,2.057,33.8,2.01C33.726,2.002,33.649,1.999,33.572,1.999z"/>
		<path d="M23.22,14.272c-0.741,0-1.649-0.414-2.758-0.963c-0.241-0.12-0.438-0.222-0.551-0.262c-0.672-0.226-1.657-0.277-2.7-0.331
			c-2.261-0.117-5.074-0.263-5.981-2.619c-0.95-2.465-1.305-6.172,0.163-8.484c0.594-0.937,1.5-1.487,2.618-1.594
			c2.251-0.218,4.661,1.389,5.658,2.449c2.471,2.628,4.002,5.667,4.966,9.855c0.032,0.139,0.033,0.279,0.008,0.411
			c0.017,0.084,0.021,0.172,0.015,0.261c-0.035,0.468-0.278,0.864-0.667,1.085C23.756,14.213,23.5,14.272,23.22,14.272z
			 M14.427,1.999c-0.077,0-0.153,0.003-0.228,0.011c-0.501,0.047-0.857,0.262-1.119,0.674c-1.036,1.633-0.766,4.667,0.015,6.693
			c0.409,1.063,2.006,1.226,4.218,1.341c1.184,0.061,2.301,0.119,3.235,0.433c0.157,0.053,0.447,0.19,0.8,0.365
			c0.246,0.122,0.733,0.363,1.161,0.54c-0.885-3.457-2.226-6.013-4.3-8.219C17.455,3.034,15.769,1.999,14.427,1.999z"/>
	</g>
	<g>
		<path d="M19.448,47.501c-0.552,0-1-0.447-1-1V13.59c0-0.552,0.448-1,1-1s1,0.448,1,1v32.911
			C20.448,47.054,20,47.501,19.448,47.501z"/>
		<path d="M28.552,47.501c-0.553,0-1-0.447-1-1V13.59c0-0.552,0.447-1,1-1s1,0.448,1,1v32.911
			C29.552,47.054,29.104,47.501,28.552,47.501z"/>
	</g>
</g>
</svg>
