<?xml version="1.0" encoding="utf-8"?>
<!-- Generator: Adobe Illustrator 18.0.0, SVG Export Plug-In . SVG Version: 6.00 Build 0)  -->
<!DOCTYPE svg PUBLIC "-//W3C//DTD SVG 1.1//EN" "http://www.w3.org/Graphics/SVG/1.1/DTD/svg11.dtd">
<svg version="1.1" id="Layer_1" xmlns="http://www.w3.org/2000/svg" xmlns:xlink="http://www.w3.org/1999/xlink" x="0px" y="0px"
	 viewBox="0 0 48 48" enable-background="new 0 0 48 48" xml:space="preserve">
<g>
	<path fill="#010101" d="M24,48c-8.2,0-14.9-6.7-14.9-14.9S15.8,18.2,24,18.2s14.9,6.7,14.9,14.9S32.2,48,24,48z M24,20.2
		c-7.1,0-12.9,5.8-12.9,12.9C11.1,40.2,16.9,46,24,46c7.1,0,12.9-5.8,12.9-12.9C36.9,26,31.1,20.2,24,20.2z"/>
	<g>
		<path fill="#010101" d="M28.4,16.1h-9.5c-0.3,0-0.7-0.2-0.8-0.5L9,1.5c-0.2-0.3-0.2-0.7,0-1C9.1,0.2,9.4,0,9.8,0h9.5
			c0.3,0,0.7,0.2,0.8,0.5l9.1,14.1c0.2,0.3,0.2,0.7,0,1C29.1,15.9,28.8,16.1,28.4,16.1z M19.4,14.1h7.1L18.8,2h-7.1L19.4,14.1z"/>
		<path fill="#010101" d="M29.1,15.9l-1.6-1.1L36.3,2h-7l-4.1,6.3l-1.7-1.1l4.4-6.8C28,0.2,28.4,0,28.7,0h9.5c0.4,0,0.7,0.2,0.9,0.5
			c0.2,0.3,0.1,0.7-0.1,1L29.1,15.9z"/>
	</g>
	<polygon fill="#010101" points="25,40.3 23,40.3 23,28 20.8,30 19.4,28.6 25,23.6 	"/>
	<rect x="20.6" y="39.3" fill="#010101" width="6.8" height="2"/>
</g>
</svg>
