<?xml version="1.0" encoding="utf-8"?>
<!-- Generator: Adobe Illustrator 18.0.0, SVG Export Plug-In . SVG Version: 6.00 Build 0)  -->
<!DOCTYPE svg PUBLIC "-//W3C//DTD SVG 1.1//EN" "http://www.w3.org/Graphics/SVG/1.1/DTD/svg11.dtd">
<svg version="1.1" id="Layer_1" xmlns="http://www.w3.org/2000/svg" xmlns:xlink="http://www.w3.org/1999/xlink" x="0px" y="0px"
	 viewBox="0 0 48 48" enable-background="new 0 0 48 48" xml:space="preserve">
<g>
	<path fill="#010101" d="M23.9,48c-7.4,0-13.5-6-13.5-13.4s6.1-13.4,13.5-13.4s13.5,6,13.5,13.4S31.3,48,23.9,48z M23.9,23.2
		c-6.3,0-11.5,5.1-11.5,11.4S17.6,46,23.9,46s11.5-5.1,11.5-11.4S30.2,23.2,23.9,23.2z"/>
	<path fill="#010101" d="M23.9,42.7c-4.5,0-8.1-3.6-8.1-8.1c0-4.5,3.6-8.1,8.1-8.1s8.1,3.6,8.1,8.1C32,39.1,28.4,42.7,23.9,42.7z
		 M23.9,28.5c-3.4,0-6.1,2.7-6.1,6.1c0,3.4,2.7,6.1,6.1,6.1S30,38,30,34.6C30,31.2,27.3,28.5,23.9,28.5z"/>
	<polygon fill="#010101" points="11.5,30.1 -0.5,0 12.9,0 21.4,22.2 19.6,23 11.5,2 2.5,2 13.3,29.3 	"/>
	<polygon fill="#010101" points="36.5,30.1 34.7,29.3 45.5,2 36.5,2 28.4,23 26.6,22.2 35.1,0 48.5,0 	"/>
</g>
</svg>
