<?xml version="1.0" encoding="utf-8"?>
<!-- Generator: Adobe Illustrator 16.0.0, SVG Export Plug-In . SVG Version: 6.00 Build 0)  -->
<!DOCTYPE svg PUBLIC "-//W3C//DTD SVG 1.1//EN" "http://www.w3.org/Graphics/SVG/1.1/DTD/svg11.dtd">
<svg version="1.1" id="Layer_1" xmlns="http://www.w3.org/2000/svg" xmlns:xlink="http://www.w3.org/1999/xlink" x="0px" y="0px"
	 width="48px" height="48px" viewBox="0 0 48 48" enable-background="new 0 0 48 48" xml:space="preserve">
<g>
	<path d="M11.496,44.924c-0.072,0-0.144-0.008-0.217-0.023c-0.54-0.119-0.88-0.653-0.761-1.192l3.72-16.822L1.669,1.444
		C1.425,0.949,1.628,0.349,2.123,0.104c0.493-0.245,1.095-0.042,1.339,0.454l12.725,25.756c0.101,0.204,0.129,0.437,0.08,0.659
		L12.472,44.14C12.368,44.606,11.955,44.924,11.496,44.924z"/>
	<path d="M37.543,44.924c-0.459,0-0.872-0.317-0.976-0.784l-3.796-17.166c-0.119-0.539,0.222-1.073,0.761-1.192
		c0.536-0.117,1.072,0.221,1.192,0.761l3.796,17.166c0.119,0.539-0.222,1.073-0.761,1.192
		C37.688,44.916,37.614,44.924,37.543,44.924z"/>
	<path d="M39.184,27.758H15.291c-0.552,0-1-0.447-1-1s0.448-1,1-1h23.893c0.553,0,1,0.447,1,1S39.736,27.758,39.184,27.758z"/>
	<path d="M25.039,47.951c-13.863,0-24.45-7.172-24.608-7.281c-0.454-0.314-0.567-0.938-0.253-1.392
		c0.315-0.453,0.938-0.566,1.391-0.253c0.227,0.156,22.935,15.491,44.854,0.006c0.452-0.319,1.076-0.212,1.394,0.239
		c0.319,0.451,0.212,1.075-0.239,1.394C39.844,46.129,32.025,47.951,25.039,47.951z"/>
</g>
</svg>
