<?xml version="1.0" encoding="utf-8"?>
<!-- Generator: Adobe Illustrator 16.0.0, SVG Export Plug-In . SVG Version: 6.00 Build 0)  -->
<!DOCTYPE svg PUBLIC "-//W3C//DTD SVG 1.1//EN" "http://www.w3.org/Graphics/SVG/1.1/DTD/svg11.dtd">
<svg version="1.1" id="Layer_1" xmlns="http://www.w3.org/2000/svg" xmlns:xlink="http://www.w3.org/1999/xlink" x="0px" y="0px"
	 width="48px" height="48px" viewBox="0 0 48 48" enable-background="new 0 0 48 48" xml:space="preserve">
<g>
	<path d="M1,36.891c-0.552,0-1-0.447-1-1V12.109c0-0.552,0.448-1,1-1s1,0.448,1,1v23.782C2,36.443,1.552,36.891,1,36.891z"/>
	<path d="M47,36.891c-0.553,0-1-0.447-1-1V19.676c0-0.552,0.447-1,1-1s1,0.448,1,1v16.215C48,36.443,47.553,36.891,47,36.891z"/>
	<path d="M11.217,31.988H1c-0.552,0-1-0.447-1-1s0.448-1,1-1h10.217c0.552,0,1,0.447,1,1S11.769,31.988,11.217,31.988z"/>
	<path d="M47,31.988h-6.082c-0.553,0-1-0.447-1-1s0.447-1,1-1H47c0.553,0,1,0.447,1,1S47.553,31.988,47,31.988z"/>
	<path d="M47,23.438H1c-0.552,0-1-0.448-1-1s0.448-1,1-1h46c0.553,0,1,0.448,1,1S47.553,23.438,47,23.438z"/>
	<path d="M13.315,20.723L13.315,20.723c-0.385,0-0.771-0.05-1.148-0.148l-5.984-1.566c-2.214-0.58-3.589-2.685-3.066-4.691
		c0.423-1.612,1.994-2.738,3.821-2.738c0.385,0,0.771,0.05,1.148,0.149l5.985,1.566c1.046,0.273,1.942,0.897,2.523,1.755
		c0.609,0.899,0.801,1.942,0.541,2.937C16.715,19.597,15.144,20.723,13.315,20.723z M6.938,13.58c-0.918,0-1.694,0.512-1.886,1.244
		c-0.241,0.923,0.509,1.954,1.637,2.25l5.983,1.566c0.211,0.055,0.428,0.083,0.643,0.083l0,0c0.919,0,1.695-0.511,1.886-1.243
		c0.113-0.429,0.02-0.893-0.262-1.309c-0.309-0.457-0.797-0.791-1.374-0.942l-5.985-1.566C7.369,13.608,7.153,13.58,6.938,13.58z"/>
	<path d="M40.918,35.248H11.217c-0.552,0-1-0.447-1-1v-11.81c0-0.552,0.448-1,1-1h29.701c0.553,0,1,0.448,1,1v11.81
		C41.918,34.801,41.471,35.248,40.918,35.248z M12.217,33.248h27.701v-9.81H12.217V33.248z"/>
</g>
</svg>
