<?xml version="1.0" encoding="utf-8"?>
<!-- Generator: Adobe Illustrator 18.0.0, SVG Export Plug-In . SVG Version: 6.00 Build 0)  -->
<!DOCTYPE svg PUBLIC "-//W3C//DTD SVG 1.1//EN" "http://www.w3.org/Graphics/SVG/1.1/DTD/svg11.dtd">
<svg version="1.1" id="Layer_1" xmlns="http://www.w3.org/2000/svg" xmlns:xlink="http://www.w3.org/1999/xlink" x="0px" y="0px"
	 viewBox="0 0 48 48" enable-background="new 0 0 48 48" xml:space="preserve">
<g>
	<path fill="#010101" d="M42.6,36.1H5c-2.8,0-5-2.3-5-5.2V1c0-0.6,0.4-1,1-1h19.3c0.3,0,0.5,0.1,0.7,0.3c0.2,0.2,0.3,0.5,0.3,0.7
		l-0.5,17.5C33,19.3,44.2,23,47,27.5c1.1,1.7,1.2,3.9,0.3,5.8C46.3,35,44.6,36.1,42.6,36.1z M2,2v28.9c0,1.8,1.3,3.2,3,3.2h37.6
		c1.2,0,2.3-0.7,2.9-1.8c0.6-1.2,0.6-2.6-0.2-3.7c-2.2-3.5-12.4-7.5-25.6-8.1c-0.5,0-1-0.5-1-1L19.3,2H2z"/>
	<path fill="#010101" d="M6.4,48c-3,0-5.5-2.5-5.5-5.5S3.4,37,6.4,37s5.5,2.5,5.5,5.5S9.4,48,6.4,48z M6.4,39
		c-1.9,0-3.5,1.6-3.5,3.5S4.5,46,6.4,46s3.5-1.6,3.5-3.5S8.3,39,6.4,39z"/>
	<path fill="#010101" d="M17.6,48c-3,0-5.5-2.5-5.5-5.5s2.5-5.5,5.5-5.5s5.5,2.5,5.5,5.5S20.6,48,17.6,48z M17.6,39
		c-1.9,0-3.5,1.6-3.5,3.5s1.6,3.5,3.5,3.5s3.5-1.6,3.5-3.5S19.5,39,17.6,39z"/>
	<path fill="#010101" d="M28.9,48c-3,0-5.5-2.5-5.5-5.5s2.5-5.5,5.5-5.5s5.5,2.5,5.5,5.5S31.9,48,28.9,48z M28.9,39
		c-1.9,0-3.5,1.6-3.5,3.5S27,46,28.9,46s3.5-1.6,3.5-3.5S30.8,39,28.9,39z"/>
	<path fill="#010101" d="M40.1,48c-3,0-5.5-2.5-5.5-5.5s2.5-5.5,5.5-5.5s5.5,2.5,5.5,5.5S43.1,48,40.1,48z M40.1,39
		c-1.9,0-3.5,1.6-3.5,3.5s1.6,3.5,3.5,3.5s3.5-1.6,3.5-3.5S42,39,40.1,39z"/>
	<path fill="#010101" d="M40.1,43.5H6.4c-0.6,0-1-0.4-1-1s0.4-1,1-1h33.7c0.6,0,1,0.4,1,1S40.7,43.5,40.1,43.5z"/>
</g>
</svg>
