<?xml version="1.0" encoding="utf-8"?>
<!-- Generator: Adobe Illustrator 18.0.0, SVG Export Plug-In . SVG Version: 6.00 Build 0)  -->
<!DOCTYPE svg PUBLIC "-//W3C//DTD SVG 1.1//EN" "http://www.w3.org/Graphics/SVG/1.1/DTD/svg11.dtd">
<svg version="1.1" id="Layer_1" xmlns="http://www.w3.org/2000/svg" xmlns:xlink="http://www.w3.org/1999/xlink" x="0px" y="0px"
	 viewBox="0 0 48 48" enable-background="new 0 0 48 48" xml:space="preserve">
<g>
	<path fill="#010101" d="M5.2,42c-1.4,0-2.8-0.6-3.7-1.8c-1-1.1-1.5-2.6-1.5-4.1V11.9C0,8.6,2.4,6,5.4,6h37.1c3,0,5.4,2.6,5.4,5.9
		v23.8C48,35.8,48,36,48,36.1c0,3.3-2.4,5.9-5.4,5.9L5.2,42z M5.4,8C3.6,8,2,9.8,2,11.9v24.2c0,1.1,0.4,2.1,1,2.8
		C3.6,39.6,4.4,40,5.2,40l0.1,0l37.2,0c1.7,0,3.2-1.6,3.4-3.5c-0.1-0.1-0.1-0.2-0.1-0.4V11.9c0-2.1-1.6-3.9-3.4-3.9H5.4z"/>
	<rect x="1.9" y="23" fill="#010101" width="44.2" height="2"/>
	<rect x="1.9" y="31" fill="#010101" width="44.2" height="2"/>
	<rect x="22.9" y="35.4" fill="#010101" width="7.1" height="2"/>
	<rect x="33.4" y="35.4" fill="#010101" width="7.1" height="2"/>
	<rect x="21.1" y="11.1" fill="#010101" width="20.6" height="2"/>
	<rect x="21.1" y="16.5" fill="#010101" width="20.6" height="2"/>
</g>
</svg>
