<?xml version="1.0" encoding="utf-8"?>
<!-- Generator: Adobe Illustrator 16.0.0, SVG Export Plug-In . SVG Version: 6.00 Build 0)  -->
<!DOCTYPE svg PUBLIC "-//W3C//DTD SVG 1.1//EN" "http://www.w3.org/Graphics/SVG/1.1/DTD/svg11.dtd">
<svg version="1.1" id="Layer_1" xmlns="http://www.w3.org/2000/svg" xmlns:xlink="http://www.w3.org/1999/xlink" x="0px" y="0px"
	 width="48px" height="48px" viewBox="0 0 48 48" enable-background="new 0 0 48 48" xml:space="preserve">
<g>
	<path d="M43.83,28.646H4.17c-0.552,0-1-0.447-1-1C3.17,16.672,12.514,7.744,24,7.744c11.485,0,20.83,8.928,20.83,19.902
		C44.83,28.199,44.383,28.646,43.83,28.646z M5.199,26.646h37.602C42.254,17.238,34.03,9.744,24,9.744
		C13.97,9.744,5.747,17.238,5.199,26.646z"/>
	<path d="M24,9.744c-2.792,0-5.063-2.186-5.063-4.873S21.208-0.002,24-0.002c2.791,0,5.063,2.186,5.063,4.873S26.791,9.744,24,9.744
		z M24,1.998c-1.689,0-3.063,1.289-3.063,2.873S22.311,7.744,24,7.744c1.688,0,3.063-1.289,3.063-2.873S25.688,1.998,24,1.998z"/>
	<path d="M15.42,48H3.07c-0.357,0-0.687-0.19-0.866-0.499c-0.179-0.309-0.179-0.689-0.001-0.999
		c0.267-0.465,6.609-11.4,12.351-12.325c4.536-0.729,12.417-0.779,15.384-0.798c0.5-0.003,0.825-0.005,0.922-0.01
		c0.017-0.001,0.091-0.004,0.108-0.004c1.122,0,2.291,1.17,2.406,2.407c0.063,0.671-0.103,2.29-2.974,2.828
		c-0.683,0.127-1.428,0.258-2.186,0.385c1.704,0.021,2.656-0.239,3.099-0.459c0.893-0.443,1.744-0.814,2.495-1.143
		c1.716-0.748,3.071-1.339,3.871-2.305c0.655-0.791,1.829-1.073,2.709-1.073c1.13,0,2.007,0.429,2.407,1.176
		c0.273,0.51,0.433,1.368-0.359,2.56c-0.021,0.032-0.045,0.063-0.069,0.092c-0.256,0.303-6.326,7.411-12.078,7.411l-0.236-0.004
		c-0.87-0.029-1.79-0.087-2.729-0.146c-1.401-0.089-2.85-0.18-4.221-0.18c-3.895,0-5.983,0.771-6.772,2.501
		C16.167,47.771,15.812,48,15.42,48z M4.851,46h9.97c1.664-2.721,5.265-3.086,8.282-3.086c1.434,0,2.916,0.093,4.347,0.184
		c0.92,0.058,1.82,0.115,2.672,0.145l0.168,0.002c4.616,0,10.011-6.08,10.514-6.658c0.22-0.346,0.216-0.502,0.216-0.504
		c0.001,0.037-0.195-0.076-0.63-0.076c-0.574,0-1.047,0.202-1.168,0.349c-1.104,1.334-2.729,2.042-4.612,2.863
		c-0.766,0.333-1.557,0.678-2.404,1.1c-0.906,0.45-2.138,0.67-3.765,0.67l0,0c-3.347,0-7.182-0.949-7.343-0.99
		c-0.464-0.115-0.781-0.545-0.756-1.022c0.025-0.479,0.386-0.871,0.86-0.938c0.052-0.008,5.293-0.741,8.833-1.403
		c0.97-0.181,1.343-0.491,1.351-0.645c0.012-0.241-0.318-0.584-0.475-0.63c0.001,0.012-0.372,0.016-0.959,0.02
		c-2.646,0.017-10.695,0.068-15.079,0.772C11.442,36.703,7.082,42.511,4.851,46z"/>
	<path d="M47,31.863H1c-0.552,0-1-0.447-1-1s0.448-1,1-1h46c0.553,0,1,0.447,1,1S47.553,31.863,47,31.863z"/>
</g>
</svg>
