<?xml version="1.0" encoding="utf-8"?>
<!-- Generator: Adobe Illustrator 16.0.0, SVG Export Plug-In . SVG Version: 6.00 Build 0)  -->
<!DOCTYPE svg PUBLIC "-//W3C//DTD SVG 1.1//EN" "http://www.w3.org/Graphics/SVG/1.1/DTD/svg11.dtd">
<svg version="1.1" id="Layer_1" xmlns="http://www.w3.org/2000/svg" xmlns:xlink="http://www.w3.org/1999/xlink" x="0px" y="0px"
	 width="48px" height="48px" viewBox="0 0 48 48" enable-background="new 0 0 48 48" xml:space="preserve">
<g>
	<path d="M11.979,19.98c-4.112,0-7.457-3.526-7.457-7.861c0-4.335,3.345-7.861,7.457-7.861s7.457,3.526,7.457,7.861
		C19.436,16.454,16.091,19.98,11.979,19.98z M11.979,6.258c-3.009,0-5.457,2.629-5.457,5.861c0,3.231,2.448,5.861,5.457,5.861
		s5.457-2.629,5.457-5.861C17.436,8.887,14.988,6.258,11.979,6.258z"/>
	<path d="M45.264,15.805H29.299c-0.553,0-1-0.448-1-1c0-5.227,4.029-9.479,8.982-9.479s8.982,4.252,8.982,9.479
		C46.264,15.357,45.816,15.805,45.264,15.805z M30.361,13.805h13.84c-0.457-3.653-3.387-6.479-6.92-6.479
		S30.818,10.152,30.361,13.805z"/>
	<path d="M47,19.99H27.563c-0.553,0-1-0.448-1-1s0.447-1,1-1H47c0.553,0,1,0.448,1,1S47.553,19.99,47,19.99z"/>
	<path d="M39.498,4.356c-0.553,0-1-0.448-1-1C38.498,2.608,37.952,2,37.281,2c-0.672,0-1.219,0.608-1.219,1.356c0,0.552-0.447,1-1,1
		s-1-0.448-1-1C34.063,1.505,35.507,0,37.281,0c1.773,0,3.217,1.505,3.217,3.356C40.498,3.908,40.051,4.356,39.498,4.356z"/>
	<path d="M22.957,48H1c-0.552,0-1-0.447-1-1V30.615c0-5.215,4.02-9.458,8.961-9.458h6.033c1.317,0,4.405,1.022,4.96,1.472
		l9.503,7.703l5.501-7.963c0.637-0.92,1.667-1.47,2.755-1.47c0.736,0,1.438,0.243,2.028,0.703c1.477,1.152,1.8,3.356,0.722,4.913
		l-7.556,10.938c-0.535,0.773-1.359,1.295-2.263,1.432c-0.884,0.141-1.848-0.118-2.572-0.705l-4.114-3.336v12.143
		c0,0.035-0.002,0.077-0.006,0.112C23.952,47.65,23.509,48,22.957,48z M2,46h19.962l-0.004-13.254c0-0.386,0.222-0.736,0.57-0.902
		c0.348-0.165,0.761-0.117,1.06,0.126l5.743,4.656c0.289,0.232,0.659,0.337,1.01,0.282c0.369-0.056,0.695-0.267,0.921-0.592
		l7.556-10.939c0.479-0.689,0.338-1.695-0.306-2.197c-0.595-0.464-1.468-0.313-1.908,0.326l-6.114,8.852
		c-0.159,0.229-0.405,0.382-0.682,0.422c-0.273,0.039-0.555-0.038-0.771-0.214l-10.342-8.382c-0.314-0.176-2.774-1.026-3.7-1.026
		H8.963c-1.839,0-3.578,0.771-4.896,2.17C2.734,26.744,2,28.621,2,30.615V46z"/>
</g>
</svg>
