<?xml version="1.0" encoding="utf-8"?>
<!-- Generator: Adobe Illustrator 16.0.0, SVG Export Plug-In . SVG Version: 6.00 Build 0)  -->
<!DOCTYPE svg PUBLIC "-//W3C//DTD SVG 1.1//EN" "http://www.w3.org/Graphics/SVG/1.1/DTD/svg11.dtd">
<svg version="1.1" id="Layer_1" xmlns="http://www.w3.org/2000/svg" xmlns:xlink="http://www.w3.org/1999/xlink" x="0px" y="0px"
	 width="48px" height="48px" viewBox="0 0 48 48" enable-background="new 0 0 48 48" xml:space="preserve">
<g>
	<path d="M21.568,31.219L21.568,31.219c-1.131,0-2.272-0.841-2.272-2.719v-8.999c0-1.879,1.142-2.72,2.273-2.72
		c0.557,0,1.131,0.19,1.707,0.566l6.464,4.226c0.926,0.604,1.458,1.488,1.458,2.425s-0.531,1.823-1.458,2.427l-6.464,4.226
		C22.7,31.028,22.125,31.219,21.568,31.219z M21.569,18.781c-0.27,0-0.273,0.69-0.273,0.72V28.5c0,0.029,0.003,0.719,0.272,0.719
		l0,0c0.074,0,0.28-0.023,0.614-0.241l6.465-4.226c0.351-0.229,0.552-0.504,0.552-0.753s-0.201-0.523-0.551-0.751l-6.465-4.226
		C21.849,18.805,21.642,18.781,21.569,18.781z"/>
	<path d="M40.075,48H7.925C3.555,48,0,44.445,0,40.075V7.925C0,3.555,3.555,0,7.925,0h32.15C44.445,0,48,3.555,48,7.925v32.15
		C48,44.445,44.445,48,40.075,48z M7.925,2C4.658,2,2,4.658,2,7.925v32.15C2,43.342,4.658,46,7.925,46h32.15
		C43.342,46,46,43.342,46,40.075V7.925C46,4.658,43.342,2,40.075,2H7.925z"/>
	<path d="M41.26,37.297H6.74c-0.552,0-1-0.447-1-1V11.704c0-0.552,0.448-1,1-1h34.52c0.553,0,1,0.448,1,1v24.593
		C42.26,36.85,41.813,37.297,41.26,37.297z M7.74,35.297h32.52V12.704H7.74V35.297z"/>
	<g>
		<g>
			<rect x="6.004" y="5.233" width="2.538" height="2"/>
			<rect x="11.58" y="5.233" width="2.537" height="2"/>
			<rect x="17.155" y="5.233" width="2.538" height="2"/>
			<rect x="22.73" y="5.233" width="2.54" height="2"/>
			<rect x="28.307" y="5.233" width="2.539" height="2"/>
			<rect x="33.883" y="5.233" width="2.537" height="2"/>
			<rect x="39.458" y="5.233" width="2.538" height="2"/>
		</g>
		<g>
			<rect x="6.004" y="40.768" width="2.538" height="2"/>
			<rect x="11.58" y="40.768" width="2.537" height="2"/>
			<rect x="17.155" y="40.768" width="2.538" height="2"/>
			<rect x="22.73" y="40.768" width="2.54" height="2"/>
			<rect x="28.307" y="40.768" width="2.539" height="2"/>
			<rect x="33.883" y="40.768" width="2.537" height="2"/>
			<rect x="39.458" y="40.768" width="2.538" height="2"/>
		</g>
	</g>
</g>
</svg>
