<?xml version="1.0" encoding="utf-8"?>
<!-- Generator: Adobe Illustrator 16.0.0, SVG Export Plug-In . SVG Version: 6.00 Build 0)  -->
<!DOCTYPE svg PUBLIC "-//W3C//DTD SVG 1.1//EN" "http://www.w3.org/Graphics/SVG/1.1/DTD/svg11.dtd">
<svg version="1.1" id="Layer_1" xmlns="http://www.w3.org/2000/svg" xmlns:xlink="http://www.w3.org/1999/xlink" x="0px" y="0px"
	 width="48px" height="48px" viewBox="0 0 48 48" enable-background="new 0 0 48 48" xml:space="preserve">
<g>
	<path d="M25.572,5.594c-0.553,0-1-0.448-1-1c0-1.43-1.164-2.594-2.593-2.594s-2.593,1.164-2.593,2.594c0,0.552-0.448,1-1,1
		s-1-0.448-1-1C17.386,2.061,19.446,0,21.979,0s4.593,2.061,4.593,4.594C26.572,5.146,26.125,5.594,25.572,5.594z"/>
	<path d="M37.682,44.167h-0.505c-0.312,0-0.605-0.146-0.795-0.393l-0.918-1.202H21.972c-0.192,0-0.381-0.056-0.543-0.16
		l-10.92-7.057c-0.038-0.024-0.075-0.052-0.109-0.082c-0.806-0.692-1.328-1.94-0.569-3.045c0.462-0.672,1.166-1.042,1.982-1.042
		c0.764,0,1.382,0.318,1.499,0.383c2.552,1.202,7.19,3.198,8.54,3.315c0.772,0.065,2.346,0.15,3.869,0.135
		c-0.876-0.249-1.833-0.497-2.724-0.706c-0.037-0.009-0.073-0.02-0.109-0.032c-1.22-0.437-1.509-1.415-1.387-2.12
		c0.171-0.983,1.107-1.784,2.087-1.784c1.403,0,3.298,0,7.13,0.029c2.206,0.018,9.309,1.855,9.309,3.354
		c0,0.047-0.003,0.095-0.01,0.142l-1.344,9.407C38.602,43.801,38.18,44.167,37.682,44.167z M22.267,40.572h13.691
		c0.312,0,0.605,0.146,0.795,0.393l0.196,0.258l0.981-6.871c-1.352-0.605-4.592-1.925-7.229-1.945
		c-3.824-0.029-5.715-0.029-7.114-0.029c-0.005,0.002-0.014,0.008-0.023,0.016c6.237,1.47,6.639,2.233,6.832,2.602
		c0.187,0.356,0.174,0.771-0.031,1.11c-0.325,0.536-0.853,0.915-4.709,0.915c-1.594,0-3.146-0.071-3.975-0.143
		c-2.151-0.186-8.555-3.186-9.278-3.527c-0.12-0.062-0.364-0.163-0.589-0.163c-0.16,0-0.244,0.044-0.334,0.175
		c-0.014,0.08,0.082,0.247,0.194,0.365L22.267,40.572z"/>
	<path d="M45.695,48c-0.076,0-0.153-0.009-0.229-0.026l-8.078-1.902c-0.503-0.119-0.833-0.603-0.761-1.114l1.748-12.293
		c0.038-0.266,0.181-0.505,0.397-0.664c0.216-0.159,0.488-0.226,0.752-0.183l6.33,1.02c0.484,0.078,0.841,0.496,0.841,0.987V47
		c0,0.306-0.14,0.595-0.379,0.784C46.138,47.925,45.918,48,45.695,48z M38.736,44.334l5.959,1.403V34.676l-4.483-0.722
		L38.736,44.334z"/>
	<path d="M35.77,29.066H8.19c-0.552,0-1-0.447-1-1v-0.174H5.567c-0.552,0-1-0.447-1-1v-0.908H2.304c-0.552,0-1-0.447-1-1V21.55
		c0-0.552,0.448-1,1-1h39.352c0.553,0,1,0.448,1,1v3.435c0,0.553-0.447,1-1,1h-2.264v0.908c0,0.553-0.447,1-1,1H36.77v0.174
		C36.77,28.619,36.322,29.066,35.77,29.066z M9.19,27.066h25.58v-0.174c0-0.553,0.447-1,1-1h1.623v-0.908c0-0.552,0.447-1,1-1h2.264
		V22.55H3.304v1.435h2.263c0.552,0,1,0.448,1,1v0.908H8.19c0.552,0,1,0.447,1,1V27.066z"/>
	<path d="M5.01,22.55L5.01,22.55c-0.553,0-1-0.448-1-1c0.007-9.901,8.068-17.956,17.969-17.956c9.902,0,17.962,8.055,17.968,17.956
		c0,0.552-0.447,1-0.999,1c-0.001,0-0.001,0-0.001,0c-0.552,0-1-0.447-1-1c-0.006-8.798-7.169-15.957-15.968-15.957
		S6.016,12.752,6.01,21.55C6.009,22.103,5.562,22.55,5.01,22.55z"/>
</g>
</svg>
