<?xml version="1.0" encoding="utf-8"?>
<!-- Generator: Adobe Illustrator 16.0.0, SVG Export Plug-In . SVG Version: 6.00 Build 0)  -->
<!DOCTYPE svg PUBLIC "-//W3C//DTD SVG 1.1//EN" "http://www.w3.org/Graphics/SVG/1.1/DTD/svg11.dtd">
<svg version="1.1" id="Layer_1" xmlns="http://www.w3.org/2000/svg" xmlns:xlink="http://www.w3.org/1999/xlink" x="0px" y="0px"
	 width="48px" height="48px" viewBox="0 0 48 48" enable-background="new 0 0 48 48" xml:space="preserve">
<g>
	<g>
		<path d="M9.708,43.061c-0.427,0-0.823-0.276-0.955-0.706c-0.163-0.527,0.134-1.087,0.662-1.25
			c9.957-3.064,11.907-18.777,11.926-18.935c0.064-0.548,0.568-0.936,1.109-0.877c0.548,0.064,0.941,0.56,0.877,1.108
			C23.246,23.1,21.21,39.567,10.003,43.017C9.905,43.047,9.806,43.061,9.708,43.061z"/>
		<path d="M38.29,43.061c-0.097,0-0.196-0.014-0.294-0.044C26.789,39.567,24.753,23.1,24.672,22.4
			c-0.063-0.548,0.329-1.044,0.877-1.108c0.57-0.059,1.046,0.329,1.109,0.877c0.019,0.158,1.97,15.871,11.926,18.935
			c0.528,0.163,0.824,0.723,0.662,1.25C39.113,42.784,38.718,43.061,38.29,43.061z"/>
	</g>
	<path d="M47,6.941H1c-0.552,0-1-0.448-1-1s0.448-1,1-1h46c0.553,0,1,0.448,1,1S47.553,6.941,47,6.941z"/>
	<path d="M24,22.278c-0.552,0-1-0.448-1-1V7.077c0-0.552,0.448-1,1-1c0.553,0,1,0.448,1,1v14.201C25,21.83,24.553,22.278,24,22.278z
		"/>
</g>
</svg>
