<?xml version="1.0" encoding="utf-8"?>
<!-- Generator: Adobe Illustrator 18.0.0, SVG Export Plug-In . SVG Version: 6.00 Build 0)  -->
<!DOCTYPE svg PUBLIC "-//W3C//DTD SVG 1.1//EN" "http://www.w3.org/Graphics/SVG/1.1/DTD/svg11.dtd">
<svg version="1.1" id="Layer_1" xmlns="http://www.w3.org/2000/svg" xmlns:xlink="http://www.w3.org/1999/xlink" x="0px" y="0px"
	 viewBox="0 0 48 48" enable-background="new 0 0 48 48" xml:space="preserve">
<g>
	<path fill="#010101" d="M10.1,48c-1.4,0-2.7-0.6-3.8-1.6l-4.7-4.7c-2.1-2.1-2.1-5.5,0-7.6l22.9-22.9c1-1,2.3-1.6,3.8-1.6
		s2.7,0.6,3.8,1.6l0.6,0.6L44.8-0.4l3.6,3.6L36.2,15.4l0.5,0.6c1,1,1.5,2.3,1.5,3.8c0,1.4-0.6,2.8-1.6,3.8L13.8,46.4
		C12.8,47.4,11.5,48,10.1,48z M28.3,11.6c-0.9,0-1.7,0.3-2.3,1L3,35.5c-1.3,1.3-1.3,3.5,0,4.8L7.7,45c1.3,1.3,3.4,1.3,4.7,0
		l22.9-22.8c0.6-0.6,1-1.5,1-2.4c0-0.9-0.3-1.8-1-2.4l-1.9-2L45.6,3.2l-0.8-0.8L32.6,14.6l-2-2C30,12,29.1,11.6,28.3,11.6z"/>
	<path fill="#010101" d="M41.3,48c-3.7,0-6.7-3-6.7-6.7s3-6.7,6.7-6.7s6.7,3,6.7,6.7S45,48,41.3,48z M41.3,36.6
		c-2.6,0-4.7,2.1-4.7,4.7s2.1,4.7,4.7,4.7s4.7-2.1,4.7-4.7S43.9,36.6,41.3,36.6z"/>
</g>
</svg>
