<?xml version="1.0" encoding="utf-8"?>
<!-- Generator: Adobe Illustrator 18.0.0, SVG Export Plug-In . SVG Version: 6.00 Build 0)  -->
<!DOCTYPE svg PUBLIC "-//W3C//DTD SVG 1.1//EN" "http://www.w3.org/Graphics/SVG/1.1/DTD/svg11.dtd">
<svg version="1.1" id="Layer_1" xmlns="http://www.w3.org/2000/svg" xmlns:xlink="http://www.w3.org/1999/xlink" x="0px" y="0px"
	 viewBox="0 0 48 48" enable-background="new 0 0 48 48" xml:space="preserve">
<g>
	<path d="M47,44.6H1c-0.6,0-1-0.4-1-1V0.5c0-0.6,0.4-1,1-1h46c0.6,0,1,0.4,1,1v43.1C48,44.2,47.6,44.6,47,44.6z M2,42.6h44V1.5H2
		V42.6z"/>
	<path d="M39.3,37.4H8.8c-0.6,0-1-0.4-1-1V7.8c0-0.6,0.4-1,1-1h30.5c0.6,0,1,0.4,1,1v28.6C40.3,37,39.9,37.4,39.3,37.4z M9.8,35.4
		h28.5V8.8H9.8V35.4z"/>
	<g>
		<path d="M24,22c-2.5,0-4.5-1.9-4.5-4.3s2-4.3,4.5-4.3s4.5,1.9,4.5,4.3S26.5,22,24,22z M24,15.4c-1.4,0-2.5,1-2.5,2.3
			c0,1.3,1.1,2.3,2.5,2.3c1.4,0,2.5-1,2.5-2.3C26.5,16.4,25.4,15.4,24,15.4z"/>
		<rect x="23" y="21.7" width="2" height="8.1"/>
	</g>
	<g>
		<rect x="6.6" y="43.9" width="2" height="3.6"/>
		<rect x="39.4" y="43.9" width="2" height="3.6"/>
	</g>
</g>
</svg>
