<?xml version="1.0" encoding="utf-8"?>
<!-- Generator: Adobe Illustrator 18.0.0, SVG Export Plug-In . SVG Version: 6.00 Build 0)  -->
<!DOCTYPE svg PUBLIC "-//W3C//DTD SVG 1.1//EN" "http://www.w3.org/Graphics/SVG/1.1/DTD/svg11.dtd">
<svg version="1.1" id="Layer_1" xmlns="http://www.w3.org/2000/svg" xmlns:xlink="http://www.w3.org/1999/xlink" x="0px" y="0px"
	 viewBox="0 0 48 48" enable-background="new 0 0 48 48" xml:space="preserve">
<g>
	<path fill="#010101" d="M39.6,44.7H8.4c-4.6,0-8.4-3.5-8.4-7.9V7.9C0,3.5,3.8,0,8.4,0h31.2C44.2,0,48,3.5,48,7.9v28.9
		C48,41.2,44.2,44.7,39.6,44.7z M8.4,2C4.9,2,2,4.6,2,7.9v28.9c0,3.3,2.9,5.9,6.4,5.9h31.2c3.5,0,6.4-2.6,6.4-5.9V7.9
		C46,4.6,43.1,2,39.6,2H8.4z"/>
	<path fill="#010101" d="M39.5,37.7H8.4c-0.6,0-1-0.4-1-1V7.9c0-0.6,0.4-1,1-1h31.1c0.6,0,1,0.4,1,1v28.8
		C40.5,37.3,40.1,37.7,39.5,37.7z M9.4,35.7h29.1V8.9H9.4V35.7z"/>
	<path fill="#010101" d="M15.8,27c-2.3,0-4.2-1.9-4.2-4.3s1.9-4.3,4.2-4.3s4.2,1.9,4.2,4.3S18.1,27,15.8,27z M15.8,20.4
		c-1.2,0-2.2,1-2.2,2.3c0,1.3,1,2.3,2.2,2.3c1.2,0,2.2-1,2.2-2.3C18,21.4,17,20.4,15.8,20.4z"/>
	<g>
		<rect x="27.9" y="15.5" fill="#010101" width="7.6" height="2"/>
		<rect x="27.9" y="21.3" fill="#010101" width="7.6" height="2"/>
		<rect x="27.9" y="27.1" fill="#010101" width="7.6" height="2"/>
	</g>
	<rect x="8.4" y="46" fill="#010101" width="6.2" height="2"/>
	<rect x="31.7" y="46" fill="#010101" width="6.1" height="2"/>
</g>
</svg>
