<?xml version="1.0" encoding="utf-8"?>
<!-- Generator: Adobe Illustrator 18.0.0, SVG Export Plug-In . SVG Version: 6.00 Build 0)  -->
<!DOCTYPE svg PUBLIC "-//W3C//DTD SVG 1.1//EN" "http://www.w3.org/Graphics/SVG/1.1/DTD/svg11.dtd">
<svg version="1.1" id="Layer_1" xmlns="http://www.w3.org/2000/svg" xmlns:xlink="http://www.w3.org/1999/xlink" x="0px" y="0px"
	 viewBox="0 0 48 48" enable-background="new 0 0 48 48" xml:space="preserve">
<g>
	<rect x="15.5" y="33.3" fill="#010101" width="19.1" height="2"/>
	<path fill="#010101" d="M45.2,35.3H43v-2h2.2c0.4,0,0.8-0.4,0.8-0.8v-9.1c0-0.4-0.3-0.6-0.5-0.7l-3.2-1.3c-0.3-0.2-0.8-0.5-1.1-1
		l-6.5-10c-0.1-0.2-0.4-0.3-0.7-0.3H2.8c-0.4,0-0.8,0.4-0.8,0.8v21.6c0,0.4,0.4,0.8,0.8,0.8h3.9v2H2.8C1.3,35.3,0,34,0,32.5V10.9
		c0-1.5,1.3-2.8,2.8-2.8h31.3c1,0,1.9,0.5,2.4,1.3l6.5,10c0.1,0.1,0.2,0.2,0.4,0.4l2.9,1.2c1.1,0.5,1.7,1.4,1.7,2.5v9.1
		C48,34,46.7,35.3,45.2,35.3z"/>
	<path fill="#010101" d="M26.5,21H3.9v-9.4h22.6V21z M5.9,19h18.6v-5.4H5.9V19z"/>
	<path fill="#010101" d="M38.8,21H27.9v-9.4h6.3L38.8,21z M29.9,19h5.7L33,13.6h-3.1V19z"/>
	<path fill="#010101" d="M10.9,39.9c-3.1,0-5.6-2.5-5.6-5.6s2.5-5.6,5.6-5.6s5.6,2.5,5.6,5.6S14,39.9,10.9,39.9z M10.9,30.7
		c-2,0-3.6,1.6-3.6,3.6c0,2,1.6,3.6,3.6,3.6s3.6-1.6,3.6-3.6C14.5,32.3,12.9,30.7,10.9,30.7z"/>
	<path fill="#010101" d="M38.8,39.9c-3.1,0-5.6-2.5-5.6-5.6s2.5-5.6,5.6-5.6s5.6,2.5,5.6,5.6S41.9,39.9,38.8,39.9z M38.8,30.7
		c-2,0-3.6,1.6-3.6,3.6c0,2,1.6,3.6,3.6,3.6c2,0,3.6-1.6,3.6-3.6C42.4,32.3,40.8,30.7,38.8,30.7z"/>
</g>
</svg>
