<?xml version="1.0" encoding="utf-8"?>
<!-- Generator: Adobe Illustrator 16.0.0, SVG Export Plug-In . SVG Version: 6.00 Build 0)  -->
<!DOCTYPE svg PUBLIC "-//W3C//DTD SVG 1.1//EN" "http://www.w3.org/Graphics/SVG/1.1/DTD/svg11.dtd">
<svg version="1.1" id="Layer_1" xmlns="http://www.w3.org/2000/svg" xmlns:xlink="http://www.w3.org/1999/xlink" x="0px" y="0px"
	 width="48px" height="48px" viewBox="0 0 48 48" enable-background="new 0 0 48 48" xml:space="preserve">
<g>
	<g>
		<path d="M45,48H3c-1.654,0-3-1.346-3-3v-8.02c0-1.654,1.346-3,3-3h42c1.654,0,3,1.346,3,3V45C48,46.654,46.654,48,45,48z M3,35.98
			c-0.551,0-1,0.448-1,1V45c0,0.552,0.449,1,1,1h42c0.552,0,1-0.448,1-1v-8.02c0-0.552-0.448-1-1-1H3z"/>
	</g>
	<path d="M42.5,35.451c-0.497,0-0.928-0.37-0.991-0.876c-1.634-13.037-15.297-21.343-19.278-23.502
		C17.846,27.531,8.908,34.915,8.52,35.229c-0.429,0.346-1.057,0.28-1.405-0.147c-0.348-0.429-0.282-1.059,0.146-1.406
		C7.353,33.6,16.518,25.99,20.603,9.369c0.072-0.291,0.27-0.535,0.541-0.664S21.729,8.576,22,8.703
		c0.793,0.373,19.45,9.316,21.494,25.625c0.068,0.548-0.32,1.048-0.868,1.116C42.583,35.448,42.541,35.451,42.5,35.451z"/>
	<path d="M20.853,10.609c-2.821,0-5.116-2.381-5.116-5.308C15.737,2.378,18.032,0,20.853,0c2.815,0,5.105,2.378,5.105,5.301
		C25.958,8.228,23.668,10.609,20.853,10.609z M20.853,2c-1.718,0-3.116,1.481-3.116,3.301c0,1.824,1.398,3.308,3.116,3.308
		c1.712,0,3.105-1.484,3.105-3.308C23.958,3.481,22.565,2,20.853,2z"/>
</g>
</svg>
