<?xml version="1.0" encoding="utf-8"?>
<!-- Generator: Adobe Illustrator 18.0.0, SVG Export Plug-In . SVG Version: 6.00 Build 0)  -->
<!DOCTYPE svg PUBLIC "-//W3C//DTD SVG 1.1//EN" "http://www.w3.org/Graphics/SVG/1.1/DTD/svg11.dtd">
<svg version="1.1" id="Layer_1" xmlns="http://www.w3.org/2000/svg" xmlns:xlink="http://www.w3.org/1999/xlink" x="0px" y="0px"
	 viewBox="0 0 48 48" enable-background="new 0 0 48 48" xml:space="preserve">
<g>
	<g>
		<path d="M17.1,27.7H1.8c-0.4,0-0.8-0.2-0.9-0.6S0.8,26.3,1.1,26l7.7-7.7C9,18.1,9.2,18,9.5,18c0,0,0,0,0,0c0.3,0,0.5,0.1,0.7,0.3
			l7.6,7.7c0.3,0.3,0.4,0.7,0.2,1.1C17.9,27.5,17.5,27.7,17.1,27.7z M4.2,25.7h10.5l-5.2-5.3L4.2,25.7z"/>
		<path d="M21.5,20h-18c-0.6,0-1-0.4-1-1V1c0-0.4,0.2-0.8,0.6-0.9C3.5-0.1,3.9,0,4.2,0.3l18,18c0.3,0.3,0.4,0.7,0.2,1.1
			C22.3,19.8,21.9,20,21.5,20z M4.5,18h14.6L4.5,3.4V18z"/>
		<path d="M15.1,13.5c-0.2,0-0.3,0-0.4-0.1c-0.5-0.2-0.7-0.9-0.4-1.3l3.6-7.1l-7.2,3.7c-0.5,0.3-1.1,0.1-1.3-0.4
			C9.1,7.7,9.3,7.1,9.7,6.8l9.9-5.1c0.4-0.2,0.9-0.1,1.2,0.2c0.3,0.3,0.4,0.8,0.2,1.2L16,13C15.8,13.3,15.5,13.5,15.1,13.5z"/>
		<path d="M21.6,2.6c0,0.8-0.7,1.5-1.5,1.5s-1.5-0.7-1.5-1.5s0.7-1.5,1.5-1.5C20.9,1.1,21.6,1.8,21.6,2.6z"/>
	</g>
	<g>
		<path d="M46.1,42.6H23.9c-0.6,0-1-0.4-1-1V25.5c0-0.6,0.4-1,1-1h22.2c0.6,0,1,0.4,1,1v16.1C47.1,42.2,46.7,42.6,46.1,42.6z
			 M24.9,40.6h20.2V26.5H24.9V40.6z"/>
		<path d="M35,47.9c-0.6,0-1-0.4-1-1v-5.3c0-0.6,0.4-1,1-1s1,0.4,1,1v5.3C36,47.5,35.6,47.9,35,47.9z"/>
		<path d="M39,48h-8c-0.6,0-1-0.4-1-1s0.4-1,1-1h8c0.6,0,1,0.4,1,1S39.6,48,39,48z"/>
	</g>
	<path d="M19.3,45H4.4c-0.6,0-1-0.4-1-1V31.3c0-0.6,0.4-1,1-1s1,0.4,1,1V43h13.9c0.6,0,1,0.4,1,1S19.9,45,19.3,45z"/>
	<path d="M43.1,20.6c-0.6,0-1-0.4-1-1V5.4H26.3c-0.6,0-1-0.4-1-1s0.4-1,1-1h16.8c0.6,0,1,0.4,1,1v15.2
		C44.1,20.2,43.7,20.6,43.1,20.6z"/>
</g>
</svg>
