<?xml version="1.0" encoding="utf-8"?>
<!-- Generator: Adobe Illustrator 16.0.0, SVG Export Plug-In . SVG Version: 6.00 Build 0)  -->
<!DOCTYPE svg PUBLIC "-//W3C//DTD SVG 1.1//EN" "http://www.w3.org/Graphics/SVG/1.1/DTD/svg11.dtd">
<svg version="1.1" id="Layer_1" xmlns="http://www.w3.org/2000/svg" xmlns:xlink="http://www.w3.org/1999/xlink" x="0px" y="0px"
	 width="48px" height="48px" viewBox="0 0 48 48" enable-background="new 0 0 48 48" xml:space="preserve">
<g>
	<path d="M38.757,48c-0.368,0-0.736-0.038-1.094-0.113C13.554,42.801,5.052,28.924,4.702,28.336c-1.496-2.504-0.675-5.76,1.83-7.257
		c2.49-1.487,5.735-0.679,7.239,1.796c0.072,0.115,1.973,3.112,6.601,6.468c0.447,0.324,0.547,0.949,0.223,1.396
		c-0.325,0.446-0.95,0.547-1.396,0.223c-4.856-3.521-6.912-6.688-7.13-7.038c-0.942-1.551-2.961-2.054-4.51-1.128
		c-1.559,0.932-2.069,2.958-1.138,4.516c0.333,0.559,8.396,13.711,31.655,18.618c0.223,0.047,0.452,0.07,0.683,0.07
		c1.545,0,2.899-1.1,3.22-2.615c0.374-1.775-0.768-3.525-2.545-3.9c-3.954-0.834-7.689-1.99-11.101-3.435
		c-0.509-0.216-0.746-0.803-0.531-1.311c0.216-0.511,0.806-0.744,1.311-0.531c3.294,1.395,6.905,2.512,10.734,3.319
		c2.856,0.604,4.69,3.416,4.089,6.271C43.418,46.233,41.241,48,38.757,48z"/>
	<g>
		<path d="M29.371,23.742c-0.152,0-0.307-0.035-0.452-0.108c-0.492-0.25-0.688-0.853-0.438-1.345L39.532,0.547
			c0.25-0.493,0.851-0.689,1.345-0.438c0.492,0.25,0.688,0.853,0.438,1.345L30.264,23.195
			C30.087,23.542,29.735,23.742,29.371,23.742z"/>
		<g>
			<path d="M27.052,39.348c-0.152,0-0.307-0.035-0.452-0.108c-0.492-0.25-0.688-0.853-0.438-1.345l4.533-8.92
				c0.25-0.492,0.851-0.688,1.345-0.438c0.492,0.25,0.688,0.853,0.438,1.345l-4.533,8.92C27.768,39.147,27.416,39.348,27.052,39.348
				z"/>
			<path d="M22.593,37.082c-0.152,0-0.307-0.035-0.452-0.108c-0.492-0.25-0.688-0.853-0.438-1.345l6.906-13.592
				c0.25-0.493,0.85-0.689,1.345-0.438c0.492,0.25,0.688,0.852,0.438,1.345l-6.906,13.592
				C23.309,36.882,22.958,37.082,22.593,37.082z"/>
			<path d="M18.132,34.813c-0.152,0-0.307-0.035-0.452-0.108c-0.493-0.251-0.688-0.853-0.438-1.345l4.535-8.918
				c0.251-0.492,0.854-0.688,1.345-0.438c0.493,0.25,0.688,0.853,0.438,1.345l-4.535,8.918
				C18.848,34.613,18.497,34.813,18.132,34.813z"/>
		</g>
		<path d="M31.585,30.43c-0.152,0-0.307-0.034-0.451-0.108c-0.493-0.25-0.689-0.852-0.439-1.344
			c0.988-1.947,0.191-4.344-1.775-5.343c-1.965-0.998-4.371-0.232-5.359,1.713c-0.25,0.492-0.852,0.688-1.345,0.438
			c-0.492-0.25-0.688-0.853-0.438-1.345c1.488-2.926,5.097-4.088,8.049-2.59c2.949,1.499,4.14,5.102,2.652,8.03
			C32.302,30.229,31.95,30.43,31.585,30.43z"/>
	</g>
</g>
</svg>
