<?xml version="1.0" encoding="utf-8"?>
<!-- Generator: Adobe Illustrator 18.0.0, SVG Export Plug-In . SVG Version: 6.00 Build 0)  -->
<!DOCTYPE svg PUBLIC "-//W3C//DTD SVG 1.1//EN" "http://www.w3.org/Graphics/SVG/1.1/DTD/svg11.dtd">
<svg version="1.1" id="Layer_1" xmlns="http://www.w3.org/2000/svg" xmlns:xlink="http://www.w3.org/1999/xlink" x="0px" y="0px"
	 viewBox="0 0 48 48" enable-background="new 0 0 48 48" xml:space="preserve">
<g>
	<path fill="#010101" d="M38.3,34H26.4c-5.3,0-9.7-4.4-9.7-9.7v-1H48v1C48,29.6,43.6,34,38.3,34z M18.8,25.3
		c0.5,3.8,3.7,6.7,7.6,6.7h11.9c3.9,0,7.1-2.9,7.6-6.7H18.8z"/>
	
		<rect x="0.2" y="21.5" transform="matrix(0.9122 0.4097 -0.4097 0.9122 10.0588 -1.8513)" fill="#010101" width="18.3" height="2"/>
	<rect x="18.7" y="36.2" fill="#010101" width="27.3" height="2"/>
	<g>
		<rect x="35.8" y="14.6" fill="#010101" width="2" height="5.7"/>
		<rect x="31.3" y="10.8" fill="#010101" width="2" height="9.5"/>
		<rect x="26.9" y="14.6" fill="#010101" width="2" height="5.7"/>
	</g>
</g>
</svg>
