<?xml version="1.0" encoding="utf-8"?>
<!-- Generator: Adobe Illustrator 18.0.0, SVG Export Plug-In . SVG Version: 6.00 Build 0)  -->
<!DOCTYPE svg PUBLIC "-//W3C//DTD SVG 1.1//EN" "http://www.w3.org/Graphics/SVG/1.1/DTD/svg11.dtd">
<svg version="1.1" id="Layer_1" xmlns="http://www.w3.org/2000/svg" xmlns:xlink="http://www.w3.org/1999/xlink" x="0px" y="0px"
	 viewBox="0 0 48 48" enable-background="new 0 0 48 48" xml:space="preserve">
<g>
	<path fill="#010101" d="M42.2,48H5.8C2.5,48,0,45.5,0,42.2V5.8C0,2.5,2.5,0,5.8,0h36.4C45.5,0,48,2.5,48,5.8v36.4
		C48,45.5,45.5,48,42.2,48z M5.8,2C3.7,2,2,3.7,2,5.8v36.4C2,44.3,3.7,46,5.8,46h36.4c2.1,0,3.8-1.7,3.8-3.8V5.8
		C46,3.7,44.3,2,42.2,2H5.8z"/>
	<path fill="#010101" d="M30.4,15.6H17.6c-2,0-3.8-1.3-4.5-3.3L11.3,7c-0.6-1.6-0.4-3.5,0.6-4.9C12.8,0.8,14.3,0,15.8,0h16.5
		c1.5,0,2.9,0.7,3.8,2c1.1,1.5,1.4,3.4,0.8,5.1l-1.9,5.1C34.2,14.3,32.5,15.6,30.4,15.6z M15.8,2c-0.9,0-1.7,0.5-2.3,1.2
		c-0.6,0.9-0.8,2.1-0.4,3.1l1.8,5.2c0.5,1.2,1.5,2,2.7,2h12.8c1.2,0,2.2-0.8,2.7-2L35,6.5c0.4-1.1,0.2-2.4-0.5-3.3
		C33.9,2.4,33.1,2,32.3,2H15.8z"/>
	<g>
		<g>
			<polygon fill="#010101" points="23.3,7.1 21.3,7.1 21.3,5 18.8,5 18.8,7.1 16.8,7.1 16.8,3 23.3,3 			"/>
			<polygon fill="#010101" points="23.3,12.7 16.8,12.7 16.8,8.6 18.8,8.6 18.8,10.7 21.3,10.7 21.3,8.6 23.3,8.6 			"/>
		</g>
		<g>
			<polygon fill="#010101" points="31.2,7.1 29.2,7.1 29.2,5 26.7,5 26.7,7.1 24.7,7.1 24.7,3 31.2,3 			"/>
			<polygon fill="#010101" points="31.2,12.7 24.7,12.7 24.7,8.6 26.7,8.6 26.7,10.7 29.2,10.7 29.2,8.6 31.2,8.6 			"/>
		</g>
	</g>
	<g>
		<path fill="#010101" d="M16.3,45.8c-0.6,0-1.2-0.1-1.9-0.2c-0.8-0.2-2-0.5-2.9-1.3c-1.4-1.2-1.8-3.1-2.1-4.8l0-0.2
			c-0.2-1.7-0.5-3.3-0.8-4.8l-0.6-3.8c-0.3-1.7-0.6-3.3-0.5-5c0.1-2.2,0.7-3.9,1.7-5.3c1.2-1.7,3.4-2.9,6.2-3.3c0.3,0,0.6,0,0.9,0
			c1.4,0,2.6,0.4,3.5,1.1c1.4,1.3,1.6,3.1,1.6,5c-0.1,2.6-0.5,4.8-1.1,6.9c-0.1,0.2-0.1,0.5-0.2,0.7c-0.2,0.8-0.5,1.6-0.5,2.4
			c-0.1,0.8,0.1,1.6,0.3,2.4c0.1,0.6,0.2,1.2,0.4,1.8c0.1,0.6,0.3,1.2,0.4,1.8c0.4,1.9,0.5,4-0.8,5.4C18.7,45.4,17.6,45.8,16.3,45.8
			z M16.1,19.1c-0.2,0-0.4,0-0.7,0c-2.1,0.3-3.9,1.2-4.8,2.5c-0.8,1-1.2,2.4-1.3,4.2c-0.1,1.5,0.2,3,0.4,4.6l0.6,3.8
			c0.3,1.6,0.6,3.2,0.8,4.9c0.3,1.4,0.5,2.9,1.4,3.6c0.5,0.4,1.1,0.7,2.1,0.9c1.5,0.3,2.6,0.2,3.1-0.4c0.8-0.8,0.6-2.3,0.4-3.7
			c-0.1-0.6-0.2-1.2-0.3-1.7c-0.1-0.6-0.3-1.2-0.4-1.8c-0.2-0.9-0.4-1.9-0.3-3c0.1-1,0.4-1.9,0.6-2.8c0.1-0.3,0.1-0.5,0.2-0.7
			c0.6-1.9,1-4,1.1-6.4c0-1.2-0.1-2.7-0.9-3.4C17.9,19.3,17.1,19.1,16.1,19.1z"/>
		<path fill="#010101" d="M31.7,45.8c-1.4,0-2.4-0.4-3.2-1.2c-1.4-1.5-1.2-3.5-0.8-5.5c0.1-0.6,0.2-1.2,0.4-1.8
			c0.1-0.6,0.2-1.1,0.3-1.7c0.2-0.9,0.4-1.7,0.3-2.4c-0.1-0.8-0.3-1.6-0.5-2.5c-0.1-0.3-0.2-0.5-0.2-0.8c-0.6-2-1-4.3-1.1-6.8
			c0-1.9,0.2-3.8,1.5-5c0.9-0.7,2.1-1.1,3.5-1.1c0.3,0,0.6,0,0.8,0c2.8,0.4,5,1.6,6.2,3.3c1,1.3,1.6,3,1.7,5.2
			c0.1,1.8-0.2,3.3-0.5,5l-0.6,3.8c-0.3,1.6-0.6,3.2-0.8,4.9l0,0.1c-0.3,1.7-0.7,3.6-2.1,4.8c-0.9,0.8-2.1,1.1-2.9,1.3
			C32.9,45.7,32.3,45.8,31.7,45.8z M31.9,19.1c-1,0-1.7,0.2-2.2,0.6c-0.7,0.7-0.8,2-0.8,3.4c0.1,2.3,0.5,4.4,1.1,6.3
			c0.1,0.3,0.2,0.5,0.2,0.8c0.3,0.9,0.5,1.8,0.6,2.8c0.1,1-0.1,2-0.3,3c-0.1,0.6-0.2,1.2-0.4,1.8c-0.1,0.6-0.2,1.1-0.3,1.7
			c-0.3,1.5-0.4,2.9,0.4,3.8c0.5,0.6,1.6,0.7,3.2,0.4c1-0.2,1.6-0.5,2.1-0.9c0.9-0.8,1.2-2.2,1.5-3.6c0.2-1.7,0.5-3.4,0.8-5l0.6-3.8
			c0.3-1.6,0.5-3.1,0.5-4.6c-0.1-1.8-0.5-3.2-1.3-4.1c-0.9-1.3-2.7-2.2-4.8-2.5C32.3,19.1,32.1,19.1,31.9,19.1z"/>
	</g>
</g>
</svg>
