<?xml version="1.0" encoding="utf-8"?>
<!-- Generator: Adobe Illustrator 16.0.0, SVG Export Plug-In . SVG Version: 6.00 Build 0)  -->
<!DOCTYPE svg PUBLIC "-//W3C//DTD SVG 1.1//EN" "http://www.w3.org/Graphics/SVG/1.1/DTD/svg11.dtd">
<svg version="1.1" id="Layer_1" xmlns="http://www.w3.org/2000/svg" xmlns:xlink="http://www.w3.org/1999/xlink" x="0px" y="0px"
	 width="48px" height="48px" viewBox="0 0 48 48" enable-background="new 0 0 48 48" xml:space="preserve">
<g>
	<path d="M19.106,32.961c-0.602,0-1.604-0.327-3.81-1.151c-0.54-0.202-0.995-0.374-1.224-0.44l-2.125-0.629
		c-1.065-0.317-2.139-0.637-3.249-0.956c-2.216-0.637-4.446-0.908-7.458-0.908c-0.04,0-0.079-0.002-0.118-0.007
		c-0.04,0.004-0.081,0.007-0.118,0.007c-0.539,0-0.983-0.429-0.999-0.971c-0.172-5.793,3.002-12.145,4.375-14.607
		c2.311-4.144,5.092-8.014,9.767-8.279c3.916-0.219,7.538,1.27,10.198,4.199c0.349,0.384,0.685,0.78,1.019,1.174
		c1.381,1.629,2.572,3.036,4.532,3.477c1.863,0.419,3.443-0.219,5.27-0.961c0.854-0.346,1.735-0.705,2.691-0.965
		c1.894-0.518,5.417-1.481,7.723,0.54c3.053,2.68,2.509,6.973,2.072,10.422c-0.135,1.067-0.262,2.075-0.28,2.95
		c-0.016,0.748-0.007,1.499,0.002,2.251c0.012,0.98,0.023,1.995-0.019,3c-0.021,0.515-0.432,0.93-0.946,0.957
		c-1.521,0.08-3.092,0.064-4.612,0.05c-1.974-0.016-4.017-0.037-5.874,0.158c-0.271,0.031-0.546-0.055-0.756-0.234
		c-0.208-0.179-0.335-0.436-0.349-0.71c-0.072-1.436-0.053-2.892-0.034-4.301c0.008-0.639,0.017-1.277,0.017-1.913
		c0-0.376,0.017-0.776,0.034-1.189c0.068-1.642,0.14-3.34-0.823-4.252c-1.17-1.109-2.749-0.92-4.583-0.701
		c-1.948,0.233-4.156,0.498-5.786-1.188c-1.936-2.003-4.227-3.368-6.13-3.652c-0.367-0.055-0.574-0.01-0.645,0.05
		c-0.278,0.242-0.267,1.352-0.26,2.014l0.003,0.429c0,3.103,0.193,5.012,1.292,7.47c0.713,1.597,1.138,3.325,1.549,4.996
		l0.288,1.155c0.109,0.433,0.232,0.923,0.39,1.267c0.202,0.443,0.056,0.968-0.346,1.242C19.591,32.886,19.395,32.961,19.106,32.961z
		 M2.013,26.882c2.802,0.047,5.061,0.354,7.238,0.98c1.117,0.32,2.196,0.642,3.267,0.961l2.117,0.626
		c0.254,0.075,0.761,0.263,1.361,0.486c0.445,0.167,1.139,0.426,1.765,0.642l-0.251-1.01c-0.39-1.585-0.793-3.224-1.433-4.657
		c-1.357-3.039-1.465-5.45-1.465-8.286l-0.003-0.409c-0.013-1.263-0.027-2.695,0.947-3.543c0.558-0.485,1.316-0.659,2.253-0.52
		c3.349,0.5,6.202,3.132,7.273,4.241c0.877,0.908,2.138,0.829,4.109,0.592c2.038-0.244,4.344-0.521,6.196,1.234
		c1.624,1.538,1.525,3.895,1.446,5.788c-0.017,0.384-0.032,0.756-0.032,1.105c0,0.645-0.009,1.292-0.017,1.939
		c-0.014,1.034-0.027,2.094-0.005,3.139c1.654-0.11,3.369-0.093,5.037-0.077c1.177,0.009,2.389,0.023,3.564-0.012
		c0.009-0.658,0.001-1.323-0.007-1.974c-0.009-0.772-0.018-1.544-0.002-2.314c0.021-0.981,0.154-2.04,0.297-3.16
		c0.416-3.289,0.846-6.689-1.408-8.668c-1.313-1.151-3.6-0.735-5.877-0.113c-0.841,0.229-1.667,0.564-2.466,0.889
		c-1.958,0.795-3.982,1.616-6.461,1.059c-2.612-0.587-4.141-2.391-5.619-4.135c-0.319-0.376-0.64-0.755-0.974-1.123
		c-2.246-2.474-5.303-3.737-8.604-3.547c-3.71,0.21-6.102,3.611-8.133,7.255C3.666,18.688,2.167,23.313,2.013,26.882z"/>
	<path d="M2.373,38.537c-0.475,0-0.896-0.34-0.983-0.823l-1.374-7.658c-0.098-0.544,0.264-1.063,0.808-1.161
		c0.544-0.1,1.063,0.265,1.161,0.808l1.374,7.658c0.098,0.544-0.264,1.063-0.808,1.161C2.491,38.532,2.432,38.537,2.373,38.537z"/>
	<path d="M6.723,39.652c-0.475,0-0.896-0.34-0.983-0.823l-1.373-7.658c-0.097-0.544,0.264-1.063,0.808-1.161
		c0.542-0.099,1.063,0.265,1.161,0.808l1.373,7.658c0.097,0.544-0.264,1.063-0.808,1.161C6.841,39.647,6.782,39.652,6.723,39.652z"
		/>
	<path d="M11.073,40.77c-0.475,0-0.896-0.34-0.983-0.823l-1.374-7.658c-0.098-0.544,0.264-1.063,0.808-1.161
		c0.547-0.1,1.063,0.265,1.161,0.808l1.374,7.658c0.098,0.544-0.264,1.063-0.808,1.161C11.191,40.765,11.132,40.77,11.073,40.77z"/>
	<path d="M15.423,41.886c-0.475,0-0.896-0.34-0.983-0.823l-1.374-7.659c-0.098-0.544,0.264-1.063,0.808-1.161
		c0.547-0.099,1.063,0.265,1.161,0.808l1.374,7.659c0.098,0.544-0.264,1.063-0.808,1.161C15.541,41.881,15.481,41.886,15.423,41.886
		z"/>
	<path d="M19.773,43.002c-0.475,0-0.896-0.34-0.983-0.823l-1.374-7.659c-0.098-0.544,0.264-1.063,0.808-1.161
		c0.547-0.099,1.063,0.265,1.161,0.808l1.374,7.659c0.098,0.544-0.264,1.063-0.808,1.161C19.891,42.997,19.832,43.002,19.773,43.002
		z"/>
	<path d="M35.906,37.902c-0.553,0-1-0.447-1-1v-3.195c0-0.553,0.447-1,1-1s1,0.447,1,1v3.195
		C36.906,37.455,36.459,37.902,35.906,37.902z"/>
	<path d="M39.234,37.902c-0.553,0-1-0.447-1-1v-3.195c0-0.553,0.447-1,1-1s1,0.447,1,1v3.195
		C40.234,37.455,39.787,37.902,39.234,37.902z"/>
	<path d="M42.564,37.902c-0.553,0-1-0.447-1-1v-3.195c0-0.553,0.447-1,1-1s1,0.447,1,1v3.195
		C43.564,37.455,43.117,37.902,42.564,37.902z"/>
	<path d="M45.895,37.902c-0.553,0-1-0.447-1-1v-3.195c0-0.553,0.447-1,1-1s1,0.447,1,1v3.195
		C46.895,37.455,46.447,37.902,45.895,37.902z"/>
</g>
</svg>
