<?xml version="1.0" encoding="utf-8"?>
<!-- Generator: Adobe Illustrator 18.0.0, SVG Export Plug-In . SVG Version: 6.00 Build 0)  -->
<!DOCTYPE svg PUBLIC "-//W3C//DTD SVG 1.1//EN" "http://www.w3.org/Graphics/SVG/1.1/DTD/svg11.dtd">
<svg version="1.1" id="Layer_1" xmlns="http://www.w3.org/2000/svg" xmlns:xlink="http://www.w3.org/1999/xlink" x="0px" y="0px"
	 viewBox="0 0 48 48" enable-background="new 0 0 48 48" xml:space="preserve">
<g>
	<path fill="#010101" d="M6.8,43.2c-3.7,0-6.8-3.1-6.8-6.8c0-3.8,3.1-6.8,6.8-6.8s6.8,3.1,6.8,6.8C13.6,40.1,10.5,43.2,6.8,43.2z
		 M6.8,31.6c-2.6,0-4.8,2.2-4.8,4.8c0,2.6,2.2,4.8,4.8,4.8c2.6,0,4.8-2.2,4.8-4.8C11.6,33.8,9.4,31.6,6.8,31.6z"/>
	<path fill="#010101" d="M41.2,43.2c-3.7,0-6.8-3.1-6.8-6.8c0-3.8,3.1-6.8,6.8-6.8s6.8,3.1,6.8,6.8C48,40.1,44.9,43.2,41.2,43.2z
		 M41.2,31.6c-2.6,0-4.8,2.2-4.8,4.8c0,2.6,2.2,4.8,4.8,4.8S46,39,46,36.4C46,33.8,43.8,31.6,41.2,31.6z"/>
	<path fill="#010101" d="M40.3,36.7L30.9,9.8c0-0.1-0.6-2.3-5.4-3l0.3-2c5.7,0.8,6.9,3.9,7,4.5l9.3,26.8L40.3,36.7z"/>
	<path fill="#010101" d="M28.3,15.1l-0.4-2c1.8-0.4,3-1,3.3-1.7c0.3-0.6-0.1-1.3-0.1-1.3l1.7-1.1c0.4,0.6,0.8,1.8,0.3,3.1
		C32.4,13.6,30.8,14.6,28.3,15.1z"/>
	<path fill="#010101" d="M31.4,37.4H6.8v-2h23c1.5-5,6.9-10,7.1-10.2l1.4,1.5c-0.1,0.1-5.7,5.4-6.7,10L31.4,37.4z"/>
	<path fill="#010101" d="M14.6,36.6c-2.2-8.6-8.9-8.2-9-8.1l-0.2-2c0.1,0,8.5-0.5,11,9.7L14.6,36.6z"/>
</g>
</svg>
