<?xml version="1.0" encoding="utf-8"?>
<!-- Generator: Adobe Illustrator 16.0.0, SVG Export Plug-In . SVG Version: 6.00 Build 0)  -->
<!DOCTYPE svg PUBLIC "-//W3C//DTD SVG 1.1//EN" "http://www.w3.org/Graphics/SVG/1.1/DTD/svg11.dtd">
<svg version="1.1" id="Layer_1" xmlns="http://www.w3.org/2000/svg" xmlns:xlink="http://www.w3.org/1999/xlink" x="0px" y="0px"
	 width="48px" height="48px" viewBox="0 0 48 48" enable-background="new 0 0 48 48" xml:space="preserve">
<g>
	<g>
		<path d="M5.022,40.301c-0.197,0-0.396-0.059-0.571-0.18c-0.452-0.315-0.564-0.937-0.25-1.39c0.089-0.13,2.11-3.139,0.648-6.414
			c-1.627-3.637,0.145-6.197,1.309-7.043c0.171-0.125,0.377-0.191,0.588-0.191h20.607c0.553,0,1,0.447,1,1s-0.447,1-1,1H7.119
			c-0.501,0.502-1.553,1.94-0.444,4.419c1.931,4.326-0.718,8.208-0.832,8.371C5.649,40.151,5.338,40.301,5.022,40.301z"/>
		<path d="M46.965,40.301c-0.316,0-0.627-0.149-0.821-0.428c-0.113-0.163-2.764-4.045-0.83-8.371
			c1.104-2.473,0.062-3.91-0.446-4.419H24.633c-0.552,0-1-0.447-1-1s0.448-1,1-1h20.609c0.211,0,0.417,0.067,0.588,0.191
			c1.163,0.846,2.935,3.406,1.31,7.044c-1.478,3.305,0.623,6.38,0.645,6.41c0.315,0.453,0.205,1.076-0.248,1.393
			C47.361,40.242,47.162,40.301,46.965,40.301z"/>
	</g>
	<path d="M45.488,23.315H6.746c-0.515,0-0.946-0.391-0.995-0.903c-0.741-7.638-4.913-9.271-5.09-9.337
		c-0.515-0.191-0.784-0.763-0.597-1.279c0.186-0.516,0.75-0.787,1.267-0.606c0.058,0.02,0.447,0.163,1.009,0.514
		c0.063-0.131,0.155-0.251,0.276-0.349C2.801,11.206,7.232,7.7,14.381,7.7c3.677,0,9.317,1.651,14.771,3.248
		c4.894,1.432,9.954,2.914,12.808,2.914c3.884,0,5.237,1.915,5.698,3.057c0.895,2.216-0.064,4.754-1.476,6.116
		C45.996,23.214,45.747,23.315,45.488,23.315z M7.636,21.315h37.417c0.771-0.935,1.236-2.447,0.751-3.647
		c-0.603-1.492-2.423-1.806-3.844-1.806c-3.141,0-8.109-1.455-13.369-2.994c-5.32-1.557-10.82-3.167-14.21-3.167
		c-6.451,0-10.47,3.18-10.51,3.212c-0.001,0.001-0.003,0.003-0.005,0.004C5.346,14.369,7.036,16.935,7.636,21.315z"/>
</g>
</svg>
