<?xml version="1.0" encoding="utf-8"?>
<!-- Generator: Adobe Illustrator 18.0.0, SVG Export Plug-In . SVG Version: 6.00 Build 0)  -->
<!DOCTYPE svg PUBLIC "-//W3C//DTD SVG 1.1//EN" "http://www.w3.org/Graphics/SVG/1.1/DTD/svg11.dtd">
<svg version="1.1" id="Layer_1" xmlns="http://www.w3.org/2000/svg" xmlns:xlink="http://www.w3.org/1999/xlink" x="0px" y="0px"
	 viewBox="0 0 48 48" enable-background="new 0 0 48 48" xml:space="preserve">
<g>
	<path fill="#010101" d="M33.1,42.7c-4.9,0-5.3-0.1-5.6-0.2c-0.6-0.2-6.5-1.7-10.8-2.7v2.7H1.5l-0.2-0.6c-2.8-7.3-0.1-17.2,0-17.6
		l0.2-0.9l0.9,0.2c2.7,0.6,5.3,0.9,7.5,0.9c7,0,8.8-2.9,8.8-3l0.9-1.5l0.9,1.5c4.4,7.8,17.3,11.5,22.8,12.1c1.9,0.2,3.3,1,4.1,2.3
		c1.4,2.5-0.2,6-0.3,6.2l-0.3,0.6l-0.6,0C46.1,42.5,38.5,42.7,33.1,42.7z M14.7,37.2l1.2,0.3c1.9,0.4,11.3,2.6,12.3,3
		c0.1,0,0.8,0.1,4.8,0.1c4.4,0,10.5-0.1,12.4-0.2c0.3-1,0.7-2.7,0.1-3.8c-0.4-0.7-1.3-1.1-2.5-1.3c-5.6-0.6-18.3-4.2-23.6-11.9
		c-1.3,1.2-4.1,2.8-9.6,2.8c-2.1,0-4.4-0.2-6.9-0.7c-0.5,2.5-1.8,9.4,0,14.8h11.8V37.2z"/>
	<path fill="#010101" d="M32.5,37.4c-3.4,0-6.7-1.8-6.9-1.9l-8.4-5.2c-6.4,2.5-15.8,0-16.2-0.2l0.5-1.9c0.1,0,9.6,2.6,15.3,0.1
		l0.5-0.2l9.2,5.7c0,0,4.5,2.4,7.6,1.4c1.1-0.3,1.9-1.1,2.4-2.2l1.8,0.8c-0.8,1.6-2,2.7-3.6,3.3C34.1,37.3,33.3,37.4,32.5,37.4z"/>
	<rect x="21.5" y="26" transform="matrix(0.7476 0.6641 -0.6641 0.7476 23.7423 -8.0782)" fill="#010101" width="2" height="2.4"/>
	
		<rect x="24.6" y="28.1" transform="matrix(0.7474 0.6644 -0.6644 0.7474 25.9324 -9.6068)" fill="#010101" width="2" height="2.4"/>
	<rect x="27.8" y="30" transform="matrix(0.8194 0.5733 -0.5733 0.8194 23.0881 -10.8742)" fill="#010101" width="2" height="2.4"/>
	
		<rect x="30.8" y="31.6" transform="matrix(0.9102 0.4141 -0.4141 0.9102 16.4371 -10.2238)" fill="#010101" width="2" height="2.4"/>
	<g>
		<path fill="#010101" d="M44.9,24.2L16.5,9.3L17,8.4c1.1-2,3.1-3.2,5.3-3.2c1,0,1.9,0.2,2.7,0.7l17.6,9.2c2.9,1.5,4.1,5.1,2.6,8.1
			L44.9,24.2z M19.4,8.5l24.5,12.8c0.4-1.8-0.4-3.6-2.1-4.5L24.1,7.7C22.6,6.8,20.6,7.3,19.4,8.5z"/>
		<g>
			<rect x="16.4" y="10.5" transform="matrix(0.8895 0.457 -0.457 0.8895 7.6631 -6.5869)" fill="#010101" width="2" height="4.2"/>
			
				<rect x="18.4" y="11.6" transform="matrix(0.8897 0.4566 -0.4566 0.8897 8.3776 -7.3744)" fill="#010101" width="2" height="4.2"/>
			
				<rect x="20.4" y="12.6" transform="matrix(0.8897 0.4566 -0.4566 0.8897 9.0548 -8.1773)" fill="#010101" width="2" height="4.2"/>
			
				<rect x="22.5" y="13.6" transform="matrix(0.8797 0.4755 -0.4755 0.8797 10.3157 -9.2797)" fill="#010101" width="2" height="4.2"/>
			
				<rect x="24.5" y="14.7" transform="matrix(0.8849 0.4659 -0.4659 0.8849 10.7628 -9.9452)" fill="#010101" width="2" height="4.3"/>
			
				<rect x="26.5" y="15.8" transform="matrix(0.8895 0.457 -0.457 0.8895 11.2011 -10.6163)" fill="#010101" width="2" height="4.2"/>
			
				<rect x="28.5" y="16.9" transform="matrix(0.8895 0.457 -0.457 0.8895 11.9247 -11.4087)" fill="#010101" width="2" height="4.2"/>
			
				<rect x="30.5" y="17.9" transform="matrix(0.8895 0.457 -0.457 0.8895 12.6027 -12.2121)" fill="#010101" width="2" height="4.2"/>
			
				<rect x="32.6" y="18.9" transform="matrix(0.8797 0.4755 -0.4755 0.8797 14.0507 -13.4445)" fill="#010101" width="2" height="4.2"/>
			
				<rect x="34.6" y="19.9" transform="matrix(0.8798 0.4753 -0.4753 0.8798 14.7588 -14.2708)" fill="#010101" width="2" height="4.2"/>
			
				<rect x="36.6" y="21.1" transform="matrix(0.8895 0.457 -0.457 0.8895 14.7391 -14.6459)" fill="#010101" width="2" height="4.2"/>
			
				<rect x="38.6" y="22.1" transform="matrix(0.8944 0.4472 -0.4472 0.8944 15.0084 -15.1771)" fill="#010101" width="2" height="4.2"/>
			
				<rect x="40.6" y="23.2" transform="matrix(0.8895 0.457 -0.457 0.8895 16.1407 -16.2416)" fill="#010101" width="2" height="4.2"/>
		</g>
	</g>
</g>
</svg>
