<?xml version="1.0" encoding="utf-8"?>
<!-- Generator: Adobe Illustrator 18.0.0, SVG Export Plug-In . SVG Version: 6.00 Build 0)  -->
<!DOCTYPE svg PUBLIC "-//W3C//DTD SVG 1.1//EN" "http://www.w3.org/Graphics/SVG/1.1/DTD/svg11.dtd">
<svg version="1.1" id="Layer_1" xmlns="http://www.w3.org/2000/svg" xmlns:xlink="http://www.w3.org/1999/xlink" x="0px" y="0px"
	 viewBox="0 0 48 48" enable-background="new 0 0 48 48" xml:space="preserve">
<g>
	<path fill="#010101" d="M41.5,48h-35c-0.6,0-1-0.4-1-1V15.6c0-0.6,0.4-1,1-1s1,0.4,1,1V46h33V15.6c0-0.6,0.4-1,1-1s1,0.4,1,1V47
		C42.5,47.6,42.1,48,41.5,48z"/>
	<path fill="#010101" d="M47,20.9c-0.2,0-0.4-0.1-0.6-0.2L24,2.3L1.6,20.7C1.2,21,0.6,21,0.2,20.5c-0.4-0.4-0.3-1.1,0.1-1.4l23-18.9
		c0.4-0.3,0.9-0.3,1.3,0l23,18.9c0.4,0.4,0.5,1,0.1,1.4C47.6,20.8,47.3,20.9,47,20.9z"/>
	<path fill="#010101" d="M9.5,13.5c-0.6,0-1-0.4-1-1V4.4c0-0.6,0.4-1,1-1s1,0.4,1,1v8.1C10.5,13.1,10.1,13.5,9.5,13.5z"/>
	<g>
		<path fill="#010101" d="M10.6,24.4c0.5,0.3,1.2,0.5,1.9,0.5c1.1,0,1.7-0.6,1.7-1.4s-0.4-1.2-1.5-1.6c-1.3-0.5-2.1-1.2-2.1-2.3
			c0-1.3,1-2.2,2.6-2.2c0.8,0,1.4,0.2,1.8,0.4l-0.3,0.9c-0.3-0.1-0.8-0.4-1.5-0.4c-1.1,0-1.5,0.7-1.5,1.2c0,0.8,0.5,1.1,1.6,1.6
			c1.4,0.5,2.1,1.2,2.1,2.4c0,1.2-0.9,2.3-2.8,2.3c-0.8,0-1.6-0.2-2.1-0.5L10.6,24.4z"/>
		<path fill="#010101" d="M17.7,17.6V21h3.9v-3.4h1.1v8.1h-1.1v-3.8h-3.9v3.8h-1v-8.1H17.7z"/>
		<path fill="#010101" d="M31.4,21.5c0,2.8-1.7,4.3-3.8,4.3S24,24.1,24,21.7c0-2.6,1.6-4.2,3.8-4.2C29.9,17.4,31.4,19.1,31.4,21.5z
			 M25.1,21.7c0,1.7,0.9,3.3,2.6,3.3s2.6-1.5,2.6-3.4c0-1.6-0.8-3.3-2.6-3.3C26,18.3,25.1,19.9,25.1,21.7z"/>
		<path fill="#010101" d="M32.7,17.7c0.5-0.1,1.2-0.2,2-0.2c1,0,1.8,0.2,2.3,0.7c0.4,0.4,0.7,1,0.7,1.7s-0.2,1.3-0.6,1.7
			c-0.6,0.6-1.5,0.9-2.5,0.9c-0.3,0-0.6,0-0.8-0.1v3.2h-1v-7.9H32.7z M33.8,21.6c0.2,0.1,0.5,0.1,0.9,0.1c1.3,0,2-0.6,2-1.7
			s-0.8-1.6-1.9-1.6c-0.5,0-0.8,0-1,0.1V21.6z"/>
	</g>
	<path fill="#010101" d="M30.1,48H17.9c-0.6,0-1-0.4-1-1V28.7c0-0.6,0.4-1,1-1h12.2c0.6,0,1,0.4,1,1V47C31.1,47.6,30.7,48,30.1,48z
		 M18.9,46h10.2V29.7H18.9V46z"/>
</g>
</svg>
