<?xml version="1.0" encoding="utf-8"?>
<!-- Generator: Adobe Illustrator 16.0.0, SVG Export Plug-In . SVG Version: 6.00 Build 0)  -->
<!DOCTYPE svg PUBLIC "-//W3C//DTD SVG 1.1//EN" "http://www.w3.org/Graphics/SVG/1.1/DTD/svg11.dtd">
<svg version="1.1" id="Layer_1" xmlns="http://www.w3.org/2000/svg" xmlns:xlink="http://www.w3.org/1999/xlink" x="0px" y="0px"
	 width="48px" height="48px" viewBox="0 0 48 48" enable-background="new 0 0 48 48" xml:space="preserve">
<g>
	<path d="M38.652,38.133c-5.154,0-9.348-4.193-9.348-9.348c0-5.155,4.193-9.348,9.348-9.348S48,23.63,48,28.785
		C48,33.939,43.807,38.133,38.652,38.133z M38.652,21.437c-4.052,0-7.348,3.296-7.348,7.348s3.296,7.348,7.348,7.348
		S46,32.837,46,28.785S42.704,21.437,38.652,21.437z"/>
	<path d="M9.348,38.133C4.193,38.133,0,33.939,0,28.785c0-5.155,4.193-9.348,9.348-9.348c5.154,0,9.348,4.193,9.348,9.348
		C18.696,33.939,14.502,38.133,9.348,38.133z M9.348,21.437C5.296,21.437,2,24.733,2,28.785s3.296,7.348,7.348,7.348
		c4.051,0,7.348-3.296,7.348-7.348S13.399,21.437,9.348,21.437z"/>
	<path d="M9.348,29.785c-0.13,0-0.262-0.025-0.389-0.079c-0.509-0.215-0.747-0.802-0.531-1.311l7.582-17.917
		c0.157-0.37,0.519-0.61,0.921-0.61h3.992c0.552,0,1,0.448,1,1s-0.448,1-1,1h-3.329l-7.324,17.307
		C10.108,29.557,9.737,29.785,9.348,29.785z"/>
	<path d="M25.005,31.738c-0.324,0-0.633-0.158-0.822-0.431l-9.87-14.244c-0.212-0.306-0.237-0.704-0.064-1.033
		c0.172-0.33,0.514-0.536,0.886-0.536h15.17c0.326,0,0.631,0.159,0.818,0.425l8.348,11.884c0.197,0.28,0.236,0.643,0.105,0.959
		c-0.132,0.316-0.416,0.543-0.754,0.602l-13.647,2.359C25.118,31.733,25.062,31.738,25.005,31.738z M17.044,17.494l8.418,12.15
		l11.464-1.982l-7.142-10.168H17.044z"/>
	<path d="M24.835,31.492c-0.125,0-0.252-0.023-0.374-0.072c-0.512-0.207-0.76-0.79-0.553-1.302l7.7-19.08
		c0.207-0.513,0.794-0.76,1.302-0.553c0.513,0.207,0.76,0.79,0.554,1.301l-7.7,19.08C25.605,31.256,25.23,31.492,24.835,31.492z"/>
	<path d="M35.076,12.412h-5.354c-0.553,0-1-0.448-1-1s0.447-1,1-1h5.354c0.553,0,1,0.448,1,1S35.629,12.412,35.076,12.412z"/>
	<path d="M15.135,13.863h-3.469c-0.552,0-1-0.448-1-1s0.448-1,1-1h3.469c0.552,0,1,0.448,1,1S15.687,13.863,15.135,13.863z"/>
</g>
</svg>
