<?xml version="1.0" encoding="utf-8"?>
<!-- Generator: Adobe Illustrator 18.0.0, SVG Export Plug-In . SVG Version: 6.00 Build 0)  -->
<!DOCTYPE svg PUBLIC "-//W3C//DTD SVG 1.1//EN" "http://www.w3.org/Graphics/SVG/1.1/DTD/svg11.dtd">
<svg version="1.1" id="Layer_1" xmlns="http://www.w3.org/2000/svg" xmlns:xlink="http://www.w3.org/1999/xlink" x="0px" y="0px"
	 viewBox="0 0 48 48" enable-background="new 0 0 48 48" xml:space="preserve">
<g>
	<path fill="#010101" d="M16.5,41.6H0v-6.5l2.2-2.5V17.9l-2-1.4v-6.3h16.1v6.3l-2,1.4v14.7l2.2,2.5V41.6z M2,39.6h12.5v-3.7
		l-2.2-2.5V16.9l2-1.4v-3.3H2.2v3.3l2,1.4v16.5L2,35.9V39.6z"/>
	<path fill="#010101" d="M48,41.6H31.5v-6.5l2.2-2.5V17.9l-2-1.4v-6.3h16.1v6.3l-2,1.4v14.7l2.2,2.5V41.6z M33.5,39.6H46v-3.7
		l-2.2-2.5V16.9l2-1.4v-3.3H33.7v3.3l2,1.4v16.5l-2.2,2.5V39.6z"/>
	<rect x="13.3" y="18.3" fill="#010101" width="21.4" height="2"/>
	<path fill="#010101" d="M31,41.7H17V31.2c0-3.9,3.1-7,7-7c3.9,0,7,3.1,7,7V41.7z M19,39.7h10v-8.5c0-2.8-2.2-5-5-5
		c-2.8,0-5,2.2-5,5V39.7z"/>
	<rect x="15.5" y="39.6" fill="#010101" width="17" height="2"/>
	<g>
		<rect x="0.2" y="7.4" fill="#010101" width="2" height="4.3"/>
		<rect x="14.3" y="7.4" fill="#010101" width="2" height="4.3"/>
		<rect x="7.2" y="7.4" fill="#010101" width="2" height="4.3"/>
	</g>
	<g>
		<rect x="31.7" y="7.4" fill="#010101" width="2" height="4.3"/>
		<rect x="45.8" y="7.4" fill="#010101" width="2" height="4.3"/>
		<rect x="38.8" y="7.4" fill="#010101" width="2" height="4.3"/>
	</g>
</g>
</svg>
