<?xml version="1.0" encoding="utf-8"?>
<!-- Generator: Adobe Illustrator 18.0.0, SVG Export Plug-In . SVG Version: 6.00 Build 0)  -->
<!DOCTYPE svg PUBLIC "-//W3C//DTD SVG 1.1//EN" "http://www.w3.org/Graphics/SVG/1.1/DTD/svg11.dtd">
<svg version="1.1" id="Layer_1" xmlns="http://www.w3.org/2000/svg" xmlns:xlink="http://www.w3.org/1999/xlink" x="0px" y="0px"
	 viewBox="0 0 48 48" enable-background="new 0 0 48 48" xml:space="preserve">
<g>
	<polygon points="39.3,32.8 16.7,32.8 16.7,30.8 37.9,30.8 39.9,25.3 15.2,25.3 7.1,2 1,2 1,0 8.5,0 16.6,23.3 42.7,23.3 	"/>
	<path d="M20,48c-3,0-5.5-2.4-5.5-5.4s2.5-5.4,5.5-5.4s5.5,2.4,5.5,5.4S23,48,20,48z M20,39.2c-1.9,0-3.5,1.5-3.5,3.4
		c0,1.9,1.6,3.4,3.5,3.4s3.5-1.5,3.5-3.4C23.5,40.7,21.9,39.2,20,39.2z"/>
	<path d="M35.8,48c-3,0-5.5-2.4-5.5-5.4s2.5-5.4,5.5-5.4s5.5,2.4,5.5,5.4S38.8,48,35.8,48z M35.8,39.2c-1.9,0-3.5,1.5-3.5,3.4
		c0,1.9,1.6,3.4,3.5,3.4s3.5-1.5,3.5-3.4C39.3,40.7,37.7,39.2,35.8,39.2z"/>
	<polygon points="42.2,24.6 40.4,24 45.6,8.5 10.1,8.5 10.1,6.5 48.4,6.5 	"/>
	<rect x="12.4" y="12.1" width="32.7" height="2"/>
	<rect x="14.2" y="17.8" width="28.9" height="2"/>
</g>
</svg>
