<?xml version="1.0" encoding="utf-8"?>
<!-- Generator: Adobe Illustrator 16.0.0, SVG Export Plug-In . SVG Version: 6.00 Build 0)  -->
<!DOCTYPE svg PUBLIC "-//W3C//DTD SVG 1.1//EN" "http://www.w3.org/Graphics/SVG/1.1/DTD/svg11.dtd">
<svg version="1.1" id="Layer_1" xmlns="http://www.w3.org/2000/svg" xmlns:xlink="http://www.w3.org/1999/xlink" x="0px" y="0px"
	 width="48px" height="48px" viewBox="0 0 48 48" enable-background="new 0 0 48 48" xml:space="preserve">
<g>
	<path d="M1,41.896c-0.552,0-1-0.447-1-1V1c0-0.552,0.448-1,1-1h18.626c0.268,0,0.525,0.107,0.713,0.299l2.378,2.418
		c0.387,0.394,0.382,1.027-0.012,1.414c-0.395,0.387-1.027,0.382-1.414-0.012L19.207,2H2v38.896C2,41.449,1.552,41.896,1,41.896z"/>
	<path d="M18.315,9.005c-0.197,0-0.396-0.058-0.571-0.18c-0.452-0.315-0.564-0.937-0.25-1.389c1.546-2.227,5.88-5.799,11.219-3.387
		c0.503,0.228,0.727,0.82,0.499,1.323C28.984,5.875,28.392,6.1,27.89,5.872c-5.146-2.324-8.609,2.5-8.754,2.707
		C18.941,8.857,18.63,9.005,18.315,9.005z"/>
	<path d="M22.67,13.94c-0.407,0-0.789-0.25-0.938-0.654l-0.666-1.805c-0.191-0.518,0.074-1.093,0.592-1.284
		c0.518-0.192,1.093,0.073,1.284,0.592l0.666,1.805c0.191,0.518-0.074,1.093-0.592,1.284C22.902,13.92,22.785,13.94,22.67,13.94z"/>
	<path d="M27.443,12.135c-0.406,0-0.789-0.25-0.938-0.654l-0.666-1.805c-0.19-0.518,0.074-1.093,0.592-1.284
		c0.518-0.193,1.094,0.074,1.285,0.592l0.666,1.805c0.19,0.518-0.074,1.093-0.592,1.284C27.676,12.115,27.559,12.135,27.443,12.135z
		"/>
	<path d="M27.443,18.284c-0.407,0-0.789-0.25-0.938-0.654l-0.666-1.805c-0.19-0.518,0.074-1.093,0.593-1.284
		c0.514-0.193,1.092,0.074,1.284,0.592l0.666,1.805c0.19,0.518-0.074,1.093-0.593,1.284C27.676,18.264,27.559,18.284,27.443,18.284z
		"/>
	<path d="M38.697,48H9.304C4.174,48,0,43.764,0,38.557v-6.393c0-5.207,4.174-9.443,9.304-9.443h29.394
		c5.13,0,9.303,4.236,9.303,9.443v6.393C48,43.764,43.826,48,38.697,48z M9.304,24.722C5.277,24.722,2,28.06,2,32.164v6.393
		C2,42.661,5.277,46,9.304,46h29.393C42.724,46,46,42.661,46,38.557l0.001-6.393c0-4.104-3.276-7.442-7.303-7.442H9.304z"/>
</g>
</svg>
