<?xml version="1.0" encoding="utf-8"?>
<!-- Generator: Adobe Illustrator 18.0.0, SVG Export Plug-In . SVG Version: 6.00 Build 0)  -->
<!DOCTYPE svg PUBLIC "-//W3C//DTD SVG 1.1//EN" "http://www.w3.org/Graphics/SVG/1.1/DTD/svg11.dtd">
<svg version="1.1" id="Layer_1" xmlns="http://www.w3.org/2000/svg" xmlns:xlink="http://www.w3.org/1999/xlink" x="0px" y="0px"
	 viewBox="0 0 48 48" enable-background="new 0 0 48 48" xml:space="preserve">
<g>
	<rect x="17.2" y="32.8" fill="#010101" width="17.6" height="2"/>
	<polygon fill="#010101" points="48,34.8 43,34.8 43,32.8 46,32.8 46,26.7 39.2,15.4 5.9,15.4 5.7,23.1 5.7,32.8 9.1,32.8 9.1,34.8 
		3.7,34.8 3.7,23.1 3.9,13.4 40.4,13.4 48,26.1 	"/>
	<path fill="#010101" d="M17.7,26.9H7.9V16.8h9.8V26.9z M9.9,24.9h5.8v-6.1H9.9V24.9z"/>
	<path fill="#010101" d="M29.7,26.9h-9.8V16.8h9.8V26.9z M21.9,24.9h5.8v-6.1h-5.8V24.9z"/>
	<path fill="#010101" d="M43.2,26.9H31.7V16.8h5.8L43.2,26.9z M33.7,24.9h6.1l-3.5-6.1h-2.6V24.9z"/>
	<path fill="#010101" d="M13.2,39.6c-3,0-5.4-2.4-5.4-5.4s2.4-5.4,5.4-5.4c3,0,5.4,2.4,5.4,5.4S16.2,39.6,13.2,39.6z M13.2,30.8
		c-1.9,0-3.4,1.5-3.4,3.4c0,1.9,1.5,3.4,3.4,3.4c1.9,0,3.4-1.5,3.4-3.4C16.6,32.3,15.1,30.8,13.2,30.8z"/>
	<path fill="#010101" d="M38.9,39.6c-3,0-5.4-2.4-5.4-5.4s2.4-5.4,5.4-5.4s5.4,2.4,5.4,5.4S41.9,39.6,38.9,39.6z M38.9,30.8
		c-1.9,0-3.4,1.5-3.4,3.4c0,1.9,1.5,3.4,3.4,3.4c1.9,0,3.4-1.5,3.4-3.4C42.3,32.3,40.8,30.8,38.9,30.8z"/>
	<path fill="#010101" d="M34.3,15.3H8.7V8.4h25.6V15.3z M10.7,13.3h21.6v-2.9H10.7V13.3z"/>
	<path fill="#010101" d="M5.7,30.8H0V20.3h5.7V30.8z M2,28.8h1.7v-6.5H2V28.8z"/>
</g>
</svg>
