<?xml version="1.0" encoding="utf-8"?>
<!-- Generator: Adobe Illustrator 18.0.0, SVG Export Plug-In . SVG Version: 6.00 Build 0)  -->
<!DOCTYPE svg PUBLIC "-//W3C//DTD SVG 1.1//EN" "http://www.w3.org/Graphics/SVG/1.1/DTD/svg11.dtd">
<svg version="1.1" id="Layer_1" xmlns="http://www.w3.org/2000/svg" xmlns:xlink="http://www.w3.org/1999/xlink" x="0px" y="0px"
	 viewBox="0 0 48 48" enable-background="new 0 0 48 48" xml:space="preserve">
<g>
	<path d="M24,48C10.8,48,0,37.2,0,24S10.8,0,24,0s24,10.8,24,24S37.2,48,24,48z M24,2C11.9,2,2,11.9,2,24s9.9,22,22,22s22-9.9,22-22
		S36.1,2,24,2z"/>
	<g>
		<path d="M5.6,29.4v-1.2l1.5-1.5c3.6-3.4,5.2-5.3,5.3-7.4c0-1.4-0.7-2.8-2.8-2.8c-1.3,0-2.3,0.7-3,1.2L6,16.5c1-0.8,2.4-1.4,4-1.4
			c3,0,4.3,2.1,4.3,4.1c0,2.6-1.9,4.7-4.9,7.6l-1.1,1l0,0h6.4v1.6C14.7,29.4,5.6,29.4,5.6,29.4z"/>
		<path d="M22.7,29.4v-3.9h-6.6v-1.3l6.3-9h2.1V24h2v1.5h-2v3.9H22.7z M22.7,24.1v-4.7c0-0.7,0-1.5,0.1-2.2h-0.1
			c-0.4,0.8-0.8,1.4-1.2,2.1L18.1,24l0,0h4.6V24.1z"/>
		<path d="M30.3,13.1v21.8h-1.5V13.1H30.3z"/>
		<path d="M42.4,15.3v1.3l-6.2,12.9h-2L40.3,17l0,0h-6.9v-1.6L42.4,15.3L42.4,15.3z"/>
	</g>
</g>
</svg>
