<?xml version="1.0" encoding="utf-8"?>
<!-- Generator: Adobe Illustrator 18.0.0, SVG Export Plug-In . SVG Version: 6.00 Build 0)  -->
<!DOCTYPE svg PUBLIC "-//W3C//DTD SVG 1.1//EN" "http://www.w3.org/Graphics/SVG/1.1/DTD/svg11.dtd">
<svg version="1.1" id="Layer_1" xmlns="http://www.w3.org/2000/svg" xmlns:xlink="http://www.w3.org/1999/xlink" x="0px" y="0px"
	 viewBox="0 0 48 48" enable-background="new 0 0 48 48" xml:space="preserve">
<g>
	<rect x="46" y="9" fill="#010101" width="2" height="30"/>
	<rect x="1" y="28" fill="#010101" width="44.9" height="2"/>
	<rect y="24.7" fill="#010101" width="2" height="14.3"/>
	<path fill="#010101" d="M39.4,25.6c-2.7,0-4.9-2.2-4.9-4.9c0-2.7,2.2-4.9,4.9-4.9c2.7,0,4.9,2.2,4.9,4.9
		C44.3,23.4,42.1,25.6,39.4,25.6z M39.4,17.8c-1.6,0-2.9,1.3-2.9,2.9c0,1.6,1.3,2.9,2.9,2.9c1.6,0,2.9-1.3,2.9-2.9
		C42.3,19.1,41,17.8,39.4,17.8z"/>
	<path fill="#010101" d="M33.1,25.7H3.5v-1c0-8.5,16.2-9.7,25.9-9.7c1.7,0,2.8,0,2.8,0l1,0V25.7z M5.6,23.7h25.5V17
		c-0.4,0-1,0-1.7,0c-3.3,0-9.5,0.2-14.8,1.4C9.2,19.5,6.3,21.3,5.6,23.7z"/>
</g>
</svg>
