<?xml version="1.0" encoding="utf-8"?>
<!-- Generator: Adobe Illustrator 16.0.0, SVG Export Plug-In . SVG Version: 6.00 Build 0)  -->
<!DOCTYPE svg PUBLIC "-//W3C//DTD SVG 1.1//EN" "http://www.w3.org/Graphics/SVG/1.1/DTD/svg11.dtd">
<svg version="1.1" id="Layer_1" xmlns="http://www.w3.org/2000/svg" xmlns:xlink="http://www.w3.org/1999/xlink" x="0px" y="0px"
	 width="48px" height="48px" viewBox="0 0 48 48" enable-background="new 0 0 48 48" xml:space="preserve">
<g>
	<path d="M33.883,44.883H14.117c-1.718,0-3.116-1.48-3.116-3.3v-8.396c0-1.82,1.398-3.301,3.116-3.301h19.766
		c1.718,0,3.115,1.48,3.115,3.301v8.396C36.998,43.402,35.601,44.883,33.883,44.883z M14.117,31.887
		c-0.605,0-1.116,0.596-1.116,1.301v8.396c0,0.704,0.511,1.3,1.116,1.3h19.766c0.604,0,1.115-0.596,1.115-1.3v-8.396
		c0-0.705-0.511-1.301-1.115-1.301H14.117z"/>
	<path d="M24,44.275c-0.552,0-1-0.447-1-1V31.494c0-0.553,0.448-1,1-1c0.553,0,1,0.447,1,1v11.781
		C25,43.828,24.553,44.275,24,44.275z"/>
	<path d="M12.001,48c-0.552,0-1-0.447-1-1v-7.275c0-0.553,0.448-1,1-1s1,0.447,1,1V47C13.001,47.553,12.553,48,12.001,48z"/>
	<path d="M35.998,48c-0.553,0-1-0.447-1-1v-7.275c0-0.553,0.447-1,1-1s1,0.447,1,1V47C36.998,47.553,36.551,48,35.998,48z"/>
	<g>
		<path d="M6.34,48H1c-0.552,0-1-0.447-1-1V19.712c0-0.552,0.448-1,1-1h5.34c0.552,0,1,0.448,1,1V47C7.34,47.553,6.892,48,6.34,48z
			 M2,46h3.34V20.712H2V46z"/>
		<path d="M47,48h-5.341c-0.553,0-1-0.447-1-1V19.712c0-0.552,0.447-1,1-1H47c0.553,0,1,0.448,1,1V47C48,47.553,47.553,48,47,48z
			 M42.659,46H46V20.712h-3.341V46z"/>
	</g>
	<path d="M37.434,19.586H10.566c-0.552,0-1-0.448-1-1V1c0-0.552,0.448-1,1-1h26.868c0.553,0,1,0.448,1,1v17.586
		C38.434,19.138,37.986,19.586,37.434,19.586z M11.566,17.586h24.868V2H11.566V17.586z"/>
	<path d="M19.414,39.079c-0.552,0-1-0.447-1-1v-1.3c0-0.553,0.448-1,1-1s1,0.447,1,1v1.3C20.414,38.632,19.966,39.079,19.414,39.079
		z"/>
	<path d="M28.186,39.079c-0.553,0-1-0.447-1-1v-1.3c0-0.553,0.447-1,1-1s1,0.447,1,1v1.3C29.186,38.632,28.738,39.079,28.186,39.079
		z"/>
</g>
</svg>
