<?xml version="1.0" encoding="utf-8"?>
<!-- Generator: Adobe Illustrator 18.0.0, SVG Export Plug-In . SVG Version: 6.00 Build 0)  -->
<!DOCTYPE svg PUBLIC "-//W3C//DTD SVG 1.1//EN" "http://www.w3.org/Graphics/SVG/1.1/DTD/svg11.dtd">
<svg version="1.1" id="Layer_1" xmlns="http://www.w3.org/2000/svg" xmlns:xlink="http://www.w3.org/1999/xlink" x="0px" y="0px"
	 viewBox="0 0 48 48" enable-background="new 0 0 48 48" xml:space="preserve">
<g>
	<g>
		<path fill="#010101" d="M28.3,10.8c-2.9,0-5.3-2.4-5.3-5.4S25.4,0,28.3,0s5.3,2.4,5.3,5.4S31.2,10.8,28.3,10.8z M28.3,2
			C26.5,2,25,3.5,25,5.4s1.5,3.4,3.3,3.4s3.3-1.5,3.3-3.4S30.1,2,28.3,2z"/>
		<path fill="#010101" d="M6.2,40.4c-1.1,0-2.2-0.7-2.6-1.7c-0.3-0.7-0.4-1.5-0.1-2.2c0.3-0.8,0.8-1.4,1.5-1.7l8.7-4.2l4.7-6.5
			l1.6-6.3c-2.4,0.4-5.6,1.2-8.9,2.9c-0.1,0-0.1,0.1-0.1,0.1c-0.4,0.3-1,0.5-1.4,0.5c-0.9,0-1.8-0.5-2.4-1.4c-0.8-1.5-0.3-3.3,1-4
			l0,0c0,0,7.3-4.4,17.3-4c3.4,0.1,5.5,0.7,7.7,1.5c1.3,0.4,2.3,0.8,3.6,0.8c1.7,0,3.9-0.6,7.1-2c1.6-0.7,3.3,0.1,3.8,1.5
			c0.3,0.6,0.4,1.4,0.1,2.1c-0.3,0.7-0.9,1.3-1.6,1.6c-3.9,1.7-6.8,2.5-9.4,2.5h0c-1.9,0-3.5-0.4-5.2-1l-1,3.2
			c2,0.7,4.6,2.1,5.5,4.7c1.3,3.3-0.5,7-5.4,11.4c-1.2,1-3.1,0.9-4.1-0.3c-1.1-1.2-0.9-3,0.3-4.1c3.9-3.5,3.7-5,3.7-5
			c-0.3-0.7-3-1.8-6.9-2.1l-5.8,8c-0.2,0.3-0.5,0.7-1.1,0.9l-9.7,4.6C6.9,40.3,6.6,40.4,6.2,40.4z M22.7,15.5l-2.4,9.5l-5.3,7.3
			l-9.2,4.4c-0.2,0.1-0.4,0.3-0.5,0.5c-0.1,0.1-0.1,0.4,0,0.7c0.2,0.4,0.5,0.5,0.8,0.5c0.1,0,0.1,0,0.3-0.1l0.1,0l9.6-4.5
			c0,0,0.1,0,0.2-0.2l6.4-9l0.5,0c0.8,0,8,0.6,9.2,3.4c0.3,0.8,0.5,2.9-4.2,7.2c-0.2,0.2-0.3,0.4-0.3,0.6c0,0.2,0.1,0.5,0.2,0.7
			c0.2,0.2,0.4,0.3,0.7,0.3c0.2,0,0.4,0,0.6-0.2c4.1-3.7,5.7-6.8,4.8-9.2c-0.6-1.7-2.4-3-5.1-3.8l-1-0.3l2.2-7.2l1,0.3
			c0.2,0.1,0.3,0.1,0.5,0.2c0.1,0,0.2,0.1,0.3,0.1c1.6,0.5,3,0.9,4.7,0.9c2.3,0,4.9-0.7,8.6-2.4c0.3-0.1,0.5-0.3,0.6-0.5
			c0.1-0.1,0.1-0.4,0-0.6c-0.2-0.6-0.7-0.7-1.2-0.5c-3.4,1.5-5.8,2.2-7.8,2.2c-1.6,0-2.9-0.4-4.3-0.9c-1.6-0.5-3.8-1.3-7.1-1.3
			c-0.4,0-0.9,0-1.3,0c-8.7,0-14.9,3.7-14.9,3.8c-0.5,0.3-0.6,0.8-0.4,1.3c0.2,0.3,0.5,0.5,0.7,0.5c0.1,0,0.2,0,0.2-0.1l0.3-0.3
			l0.2,0c4.3-2.3,8.4-3,11-3.3L22.7,15.5z"/>
	</g>
	<polygon fill="#010101" points="19.5,48.1 0.5,37.4 1.5,35.6 19.7,45.9 24.9,44.2 25.5,46.2 	"/>
	<polygon fill="#010101" points="40.8,38.9 16,38.9 16,36.9 40.2,36.9 45,34.2 46,36 	"/>
</g>
</svg>
