<?xml version="1.0" encoding="utf-8"?>
<!-- Generator: Adobe Illustrator 16.0.0, SVG Export Plug-In . SVG Version: 6.00 Build 0)  -->
<!DOCTYPE svg PUBLIC "-//W3C//DTD SVG 1.1//EN" "http://www.w3.org/Graphics/SVG/1.1/DTD/svg11.dtd">
<svg version="1.1" id="Layer_1" xmlns="http://www.w3.org/2000/svg" xmlns:xlink="http://www.w3.org/1999/xlink" x="0px" y="0px"
	 width="48px" height="48px" viewBox="0 0 48 48" enable-background="new 0 0 48 48" xml:space="preserve">
<g>
	<path d="M35.875,36.398H8.828C3.96,36.398,0,32.438,0,27.57v-0.42c0-4.867,3.96-8.827,8.828-8.827c0.552,0,1,0.448,1,1
		s-0.448,1-1,1C5.063,20.323,2,23.386,2,27.15v0.42c0,3.765,3.063,6.828,6.828,6.828h27.047c3.766,0,6.829-3.063,6.829-6.828v-0.42
		c0-0.553,0.447-1,1-1s1,0.447,1,1v0.42C44.704,32.438,40.743,36.398,35.875,36.398z"/>
	<path d="M9.473,31.318c-1.876,0-3.59-0.92-4.583-2.461c-0.939-1.459-1.058-3.224-0.323-4.841c0.228-0.503,0.82-0.726,1.324-0.497
		c0.503,0.229,0.725,0.821,0.497,1.324C5.934,25.845,6,26.885,6.572,27.774c0.623,0.967,1.707,1.544,2.901,1.544
		c2.481,0,4.499-2.017,4.499-4.496c0-2.48-2.018-4.498-4.499-4.498c-0.552,0-1-0.448-1-1s0.448-1,1-1
		c3.583,0,6.499,2.915,6.499,6.498C15.972,28.404,13.057,31.318,9.473,31.318z"/>
	<g>
		<path d="M19.156,36.398c-0.115,0-0.231-0.02-0.346-0.062c-0.518-0.191-0.784-0.766-0.593-1.284l2.347-6.371
			c0.19-0.519,0.765-0.784,1.284-0.593c0.518,0.191,0.784,0.766,0.593,1.284l-2.347,6.371
			C19.946,36.148,19.563,36.398,19.156,36.398z"/>
		<path d="M36.41,36.398c-0.407,0-0.79-0.25-0.938-0.654l-2.346-6.371c-0.19-0.519,0.074-1.094,0.593-1.284
			c0.517-0.191,1.094,0.074,1.284,0.593l2.346,6.371c0.19,0.519-0.074,1.094-0.593,1.284C36.642,36.379,36.525,36.398,36.41,36.398z
			"/>
	</g>
	<path d="M36.555,29.48H18.568c-0.302,0-0.588-0.137-0.778-0.371c-0.19-0.235-0.263-0.544-0.2-0.839
		c0.768-3.574,0.363-6.437-1.203-8.507c-2.436-3.22-6.959-3.544-7.005-3.547c-0.42-0.027-0.78-0.314-0.897-0.718
		c-0.118-0.405,0.029-0.839,0.37-1.088c2.557-1.865,5.294-2.811,8.134-2.811c5.858,0,10.504,3.975,12.25,5.707
		c3.083-2.93,6.64-4.415,10.587-4.415c4.355,0,7.548,1.857,7.682,1.936c0.38,0.224,0.567,0.671,0.462,1.1
		c-0.104,0.428-0.479,0.737-0.919,0.76c-6.017,0.312-9.502,11.956-9.536,12.074C37.39,29.188,36.999,29.48,36.555,29.48z
		 M19.769,27.48h16.054c0.776-2.322,3.493-9.483,8.17-11.952c-1.125-0.341-2.562-0.636-4.167-0.636c-3.699,0-7.023,1.526-9.88,4.537
		c-0.195,0.205-0.431,0.313-0.75,0.311c-0.282-0.007-0.549-0.133-0.733-0.347c-0.05-0.058-5.074-5.792-11.474-5.792
		c-1.645,0-3.259,0.381-4.82,1.136c1.801,0.537,4.143,1.622,5.802,3.805C19.723,20.847,20.326,23.85,19.769,27.48z"/>
</g>
</svg>
