<?xml version="1.0" encoding="utf-8"?>
<!-- Generator: Adobe Illustrator 16.0.0, SVG Export Plug-In . SVG Version: 6.00 Build 0)  -->
<!DOCTYPE svg PUBLIC "-//W3C//DTD SVG 1.1//EN" "http://www.w3.org/Graphics/SVG/1.1/DTD/svg11.dtd">
<svg version="1.1" id="Layer_1" xmlns="http://www.w3.org/2000/svg" xmlns:xlink="http://www.w3.org/1999/xlink" x="0px" y="0px"
	 width="48px" height="48px" viewBox="0 0 48 48" enable-background="new 0 0 48 48" xml:space="preserve">
<g>
	<path d="M46.402,31.34H5.08L0.064,18.012c-0.194-0.517,0.067-1.093,0.584-1.288c0.516-0.194,1.094,0.067,1.288,0.584L6.464,29.34
		h39.938c0.553,0,1,0.447,1,1S46.955,31.34,46.402,31.34z"/>
	<g>
		<path d="M20.36,31.255c-0.19,0-0.381-0.055-0.551-0.168c-0.217-0.145-5.302-3.632-3.796-11.492
			c0.104-0.542,0.632-0.895,1.17-0.794c0.542,0.104,0.898,0.627,0.794,1.17c-1.247,6.511,2.773,9.337,2.945,9.455
			c0.455,0.31,0.576,0.93,0.269,1.387C20.997,31.099,20.681,31.255,20.36,31.255z"/>
		<path d="M39.476,31.255c-0.323,0-0.641-0.156-0.833-0.445c-0.306-0.458-0.183-1.077,0.273-1.384
			c0.182-0.125,4.184-2.952,2.937-9.454c-0.104-0.542,0.252-1.066,0.794-1.17c0.54-0.104,1.067,0.251,1.171,0.793
			c1.507,7.859-3.571,11.348-3.788,11.492C39.859,31.2,39.666,31.255,39.476,31.255z"/>
	</g>
	<path d="M47,20.207H12.828c-0.552,0-1-0.448-1-1s0.448-1,1-1H47c0.553,0,1,0.448,1,1S47.553,20.207,47,20.207z"/>
</g>
</svg>
