<?xml version="1.0" encoding="utf-8"?>
<!-- Generator: Adobe Illustrator 16.0.0, SVG Export Plug-In . SVG Version: 6.00 Build 0)  -->
<!DOCTYPE svg PUBLIC "-//W3C//DTD SVG 1.1//EN" "http://www.w3.org/Graphics/SVG/1.1/DTD/svg11.dtd">
<svg version="1.1" id="Layer_1" xmlns="http://www.w3.org/2000/svg" xmlns:xlink="http://www.w3.org/1999/xlink" x="0px" y="0px"
	 width="48px" height="48px" viewBox="0 0 48 48" enable-background="new 0 0 48 48" xml:space="preserve">
<g>
	<path d="M45.709,38.777h-40.7L0.064,25.644c-0.194-0.517,0.067-1.094,0.583-1.289c0.516-0.194,1.094,0.067,1.289,0.583
		l4.457,11.839h39.316c0.553,0,1,0.447,1,1S46.262,38.777,45.709,38.777z"/>
	<g>
		<path d="M20.06,38.691c-0.19,0-0.382-0.055-0.552-0.168c-0.214-0.143-5.227-3.586-3.744-11.333
			c0.104-0.543,0.628-0.896,1.17-0.795c0.542,0.104,0.898,0.628,0.794,1.17c-1.225,6.4,2.726,9.182,2.895,9.297
			c0.454,0.311,0.575,0.931,0.267,1.387C20.696,38.536,20.381,38.691,20.06,38.691z"/>
		<path d="M38.883,38.691c-0.323,0-0.64-0.156-0.833-0.444c-0.306-0.458-0.184-1.077,0.272-1.385c0.174-0.118,4.113-2.9,2.891-9.297
			c-0.104-0.542,0.252-1.066,0.795-1.17c0.541-0.101,1.065,0.252,1.17,0.795c1.48,7.746-3.526,11.189-3.74,11.333
			C39.267,38.637,39.073,38.691,38.883,38.691z"/>
	</g>
	<path d="M45.709,28.378H12.587c-0.427,0-0.807-0.271-0.945-0.675C8.155,17.577,8.903,16.528,9.185,16.134
		c0.392-0.549,1.145-0.674,1.796-0.232c0.419,0.284,0.831,0.642,1.308,1.057c1.674,1.456,3.966,3.449,8.333,3.449
		c0.506,0,1.036-0.027,1.574-0.081c5.498-0.545,9.364-2.799,14.258-5.653c2.854-1.664,6.088-3.55,10.137-5.363
		c0.321-0.144,0.694-0.108,0.984,0.094c0.288,0.203,0.448,0.542,0.422,0.894l-1.291,17.155
		C46.667,27.975,46.232,28.378,45.709,28.378z M13.303,26.378h31.479l1.094-14.534c-3.257,1.55-5.976,3.136-8.413,4.557
		c-4.903,2.859-9.138,5.328-15.068,5.916c-0.603,0.06-1.199,0.09-1.771,0.09c-5.044,0-7.766-2.306-9.57-3.875
		C11.418,20.366,12.34,23.517,13.303,26.378z"/>
</g>
</svg>
