<?xml version="1.0" encoding="utf-8"?>
<!-- Generator: Adobe Illustrator 18.0.0, SVG Export Plug-In . SVG Version: 6.00 Build 0)  -->
<!DOCTYPE svg PUBLIC "-//W3C//DTD SVG 1.1//EN" "http://www.w3.org/Graphics/SVG/1.1/DTD/svg11.dtd">
<svg version="1.1" id="Layer_1" xmlns="http://www.w3.org/2000/svg" xmlns:xlink="http://www.w3.org/1999/xlink" x="0px" y="0px"
	 viewBox="0 0 48 48" enable-background="new 0 0 48 48" xml:space="preserve">
<g>
	<g>
		<path d="M36.9,48H11.1c-1,0-2-1-2-2V2c0-1,1-2,2-2h25.7c1.1,0,2,0.9,2,2v43.6c0.1,0.1,0.1,0.3,0.1,0.4C38.9,47.1,38,48,36.9,48z
			 M11.1,2v44h25.7V2H11.1z"/>
	</g>
	<path d="M26,42.9c0,1.1-0.9,2-2,2s-2-0.9-2-2s0.9-2,2-2S26,41.8,26,42.9z"/>
	<g>
		<path d="M33.9,43.9H30c-0.6,0-1-0.4-1-1s0.4-1,1-1h3.9c0.6,0,1,0.4,1,1S34.5,43.9,33.9,43.9z"/>
		<path d="M18,43.9h-3.9c-0.6,0-1-0.4-1-1s0.4-1,1-1H18c0.6,0,1,0.4,1,1S18.6,43.9,18,43.9z"/>
	</g>
	<g>
		<path d="M26.7,5.4h-5.4c-0.6,0-1-0.4-1-1s0.4-1,1-1h5.4c0.6,0,1,0.4,1,1S27.3,5.4,26.7,5.4z"/>
	</g>
	<path d="M37.7,8.6H10.3c-0.6,0-1-0.4-1-1s0.4-1,1-1h27.4c0.6,0,1,0.4,1,1S38.3,8.6,37.7,8.6z"/>
	<path d="M37.7,40.2H10.3c-0.6,0-1-0.4-1-1s0.4-1,1-1h27.4c0.6,0,1,0.4,1,1S38.3,40.2,37.7,40.2z"/>
</g>
</svg>
