<?xml version="1.0" encoding="utf-8"?>
<!-- Generator: Adobe Illustrator 18.0.0, SVG Export Plug-In . SVG Version: 6.00 Build 0)  -->
<!DOCTYPE svg PUBLIC "-//W3C//DTD SVG 1.1//EN" "http://www.w3.org/Graphics/SVG/1.1/DTD/svg11.dtd">
<svg version="1.1" id="Layer_1" xmlns="http://www.w3.org/2000/svg" xmlns:xlink="http://www.w3.org/1999/xlink" x="0px" y="0px"
	 viewBox="0 0 48 48" enable-background="new 0 0 48 48" xml:space="preserve">
<g>
	<path fill="#010101" d="M26.7,32.2H10.5C4.6,32.2,0,27.6,0,21.7c0-5.8,4.7-10.5,10.5-10.5h16.2c5.8,0,10.5,4.7,10.5,10.5
		C37.2,27.5,32.5,32.2,26.7,32.2z M10.5,13.2C5.8,13.2,2,17,2,21.7c0,4.8,3.7,8.5,8.5,8.5h16.2c4.7,0,8.5-3.8,8.5-8.5
		c0-4.7-3.8-8.5-8.5-8.5H10.5z"/>
	<path fill="#010101" d="M30,48c-6.9,0-12.5-5.4-12.5-12v-0.3h2V36c0,5.5,4.7,10,10.5,10s10.5-4.5,10.5-10V1h2v35
		C42.5,42.6,36.9,48,30,48z"/>
	<rect x="13.1" y="34.3" fill="#010101" width="11" height="2"/>
	<rect x="13.1" y="25.9" fill="#010101" width="11" height="2"/>
	<rect x="36" y="20.7" fill="#010101" width="11" height="2"/>
</g>
</svg>
