<?xml version="1.0" encoding="utf-8"?>
<!-- Generator: Adobe Illustrator 18.0.0, SVG Export Plug-In . SVG Version: 6.00 Build 0)  -->
<!DOCTYPE svg PUBLIC "-//W3C//DTD SVG 1.1//EN" "http://www.w3.org/Graphics/SVG/1.1/DTD/svg11.dtd">
<svg version="1.1" id="Layer_1" xmlns="http://www.w3.org/2000/svg" xmlns:xlink="http://www.w3.org/1999/xlink" x="0px" y="0px"
	 viewBox="0 0 48 48" enable-background="new 0 0 48 48" xml:space="preserve">
<g>
	<path fill="#010101" d="M11.4,33c-0.3,0-0.5-0.1-0.7-0.3c-1.8-1.9-2.9-4.5-2.9-7c-0.6,0.4-1.2,1-1.7,1.7c-0.2,0.3-0.7,0.5-1.1,0.4
		s-0.7-0.5-0.7-0.9c-0.2-2.5,1-5,3-6.4c-1.2-1.2-2.5-2.2-3.9-3c-0.4-0.2-0.6-0.6-0.5-1.1c0.1-0.4,0.4-0.8,0.9-0.8
		c0.8-0.1,1.7-0.2,2.5-0.2c0.7-0.1,1.5-0.2,2.1,0c0.2,0,0.3,0.1,0.5,0.1c0.5-1.9,1.7-3.7,3.3-4.9c0.3-0.2,0.6-0.3,1-0.2
		c0.3,0.1,0.6,0.4,0.6,0.8c0.2,1.2,0.4,2.3,0.5,3.3c1.7-0.8,3.5-1.3,5.2-1.6c0.5-0.1,0.9,0.2,1.1,0.7c0.1,0.5-0.1,1-0.5,1.2
		c-0.6,0.3-1.1,0.8-1.4,1.4c2.3-0.2,4.6,0.8,6.2,2.5c0.2,0.3,0.3,0.6,0.2,0.9s-0.3,0.6-0.7,0.7c-1.2,0.4-2.4,0.6-3.6,0.7
		c0.4,0.5,0.8,1.2,1.1,1.8c0.7,1.6,0.9,3.3,0.9,5c0,0.1,0,0.1,0,0.2c0,0.6-0.4,1-1,1c-0.3,0-0.6-0.1-0.8-0.4
		c-1.8-2.2-4.5-3.4-7.1-4.3c-0.8,1.2-1,2.8-1.1,4.3l-0.3,3.4c0,0.4-0.3,0.7-0.7,0.9C11.6,33,11.5,33,11.4,33z M8.9,23
		c0.2,0,0.5,0.1,0.7,0.2c0.3,0.2,0.4,0.6,0.3,0.9c-0.3,1.7,0,3.5,0.8,5l0.1-0.7c0.2-1.9,0.4-4,1.7-5.6c0,0,0.1-0.1,0.1-0.1l0.3-0.3
		c0.1-0.1,0.2-0.1,0.3-0.2c0.5-0.3,1.1-0.1,1.3,0.1c2,0.7,4.3,1.6,6.2,3.1c-0.1-0.6-0.3-1.3-0.5-1.8c-0.6-1.4-1.6-2.4-2.8-2.8
		c-0.5-0.2-0.8-0.7-0.7-1.2c0.1-0.5,0.6-0.8,1.1-0.8c1.4,0.2,2.8,0.2,4.2-0.1c-1.4-0.8-3.2-0.9-4.7-0.3c-0.5,0.2-1,0-1.2-0.4
		c-0.2-0.4-0.1-1,0.2-1.3c0.1-0.1,0.2-0.4,0.3-0.7c0.1-0.2,0.1-0.3,0.2-0.5c-1,0.4-2,0.8-2.9,1.3c-0.3,0.2-0.7,0.2-1,0
		c-0.3-0.2-0.5-0.5-0.5-0.9c0-0.8-0.1-1.7-0.2-2.6c-0.9,1.2-1.5,2.6-1.5,4c0,0.5-0.4,0.9-0.9,0.9c-0.5,0.1-0.9-0.2-1.1-0.7
		c-0.1-0.2-0.3-0.4-0.6-0.4c-0.1,0-0.1,0-0.2,0c-0.3-0.1-0.6-0.1-1,0c1,0.8,2,1.7,2.8,2.7c0.2,0.2,0.3,0.6,0.2,0.9
		c-0.1,0.3-0.3,0.6-0.5,0.7c-1,0.5-1.8,1.3-2.3,2.2c0.5-0.3,1.1-0.6,1.7-0.8C8.7,23,8.8,23,8.9,23z"/>
	<path fill="#010101" d="M31.5,22.7c-0.3,0-0.5-0.1-0.7-0.3c-1.8-1.9-2.9-4.5-2.9-7c-0.6,0.4-1.2,1-1.7,1.7
		c-0.2,0.3-0.7,0.5-1.1,0.4c-0.4-0.1-0.7-0.5-0.7-0.9c-0.2-2.5,1-5,3-6.4c-1.2-1.2-2.5-2.2-3.9-3C23,7,22.8,6.5,22.9,6.1
		c0.1-0.4,0.4-0.8,0.9-0.8c0.2,0,0.5-0.1,0.7-0.1c0.6-0.1,1.3-0.2,1.9-0.1c0.7-0.1,1.4-0.2,2.1,0c0.2,0,0.3,0.1,0.5,0.1
		c0.5-1.9,1.7-3.7,3.3-4.9c0.3-0.2,0.6-0.3,1-0.2c0.3,0.1,0.6,0.4,0.6,0.8c0.2,1.2,0.4,2.3,0.5,3.3c1.7-0.8,3.5-1.3,5.2-1.6
		c0.5-0.1,0.9,0.2,1.1,0.7c0.1,0.5-0.1,1-0.5,1.2c-0.6,0.3-1.1,0.8-1.4,1.4c2.3-0.2,4.6,0.8,6.2,2.5c0.2,0.3,0.3,0.6,0.2,0.9
		c-0.1,0.3-0.3,0.6-0.7,0.7c-1.2,0.4-2.4,0.6-3.6,0.7c0.4,0.5,0.8,1.2,1.1,1.8c0.7,1.6,0.9,3.3,0.9,5c0,0.1,0,0.1,0,0.2
		c0,0.6-0.4,1-1,1c0,0,0,0,0,0c-0.3,0-0.6-0.1-0.8-0.4c-1.8-2.2-4.5-3.4-7.1-4.3c-0.8,1.2-1,2.8-1.1,4.3l-0.3,3.4
		c0,0.4-0.3,0.7-0.7,0.9C31.7,22.7,31.6,22.7,31.5,22.7z M29,12.7c0.2,0,0.5,0.1,0.7,0.2c0.3,0.2,0.4,0.6,0.3,0.9
		c-0.3,1.7,0,3.5,0.8,5l0.1-0.7c0.2-1.9,0.4-4,1.7-5.6c0,0,0.1-0.1,0.1-0.1l0.3-0.3c0.1-0.1,0.2-0.1,0.3-0.2
		c0.5-0.3,1.1-0.1,1.3,0.1c2,0.7,4.3,1.6,6.2,3.1c-0.1-0.6-0.3-1.3-0.5-1.8c-0.6-1.4-1.6-2.4-2.8-2.8c-0.5-0.2-0.8-0.7-0.7-1.2
		c0.1-0.5,0.6-0.8,1.1-0.8c1.4,0.2,2.8,0.2,4.2-0.1c-1.4-0.8-3.2-0.9-4.7-0.3c-0.5,0.2-1,0-1.2-0.4s-0.1-1,0.2-1.3
		c0.1-0.1,0.2-0.4,0.3-0.7c0.1-0.2,0.1-0.3,0.2-0.5c-1,0.4-2,0.8-2.9,1.3c-0.3,0.2-0.7,0.2-1,0c-0.3-0.2-0.5-0.5-0.5-0.9
		c0-0.8-0.1-1.7-0.2-2.6c-0.9,1.2-1.5,2.6-1.5,4c0,0.5-0.4,0.9-0.9,0.9c-0.5,0.1-0.9-0.2-1.1-0.7c-0.1-0.2-0.3-0.4-0.6-0.4
		c-0.1,0-0.1,0-0.2,0c-0.3-0.1-0.6-0.1-1,0c1,0.8,2,1.7,2.8,2.7c0.2,0.2,0.3,0.6,0.2,0.9c-0.1,0.3-0.3,0.6-0.5,0.7
		c-1,0.5-1.8,1.3-2.3,2.2c0.5-0.3,1.1-0.6,1.7-0.8C28.8,12.7,28.9,12.7,29,12.7z"/>
	<path fill="#010101" d="M16.5,41.5c-0.1,0-0.2,0-0.3-0.1c-0.5-0.2-0.8-0.7-0.6-1.3c3.1-9.2-2.2-16.3-2.2-16.4
		c-0.3-0.4-0.3-1.1,0.2-1.4c0.4-0.3,1.1-0.3,1.4,0.2c0.2,0.3,6,7.9,2.6,18.2C17.3,41.2,16.9,41.5,16.5,41.5z"/>
	<path fill="#010101" d="M9.1,48L9.1,48c-1.6,0-3.1-0.5-4.3-1.4c-0.4-0.3-0.5-0.9-0.2-1.4C5.4,44,6.8,43.3,8,42.8
		c1-0.5,2-0.9,2.9-1.3c1-0.5,2-0.9,3-1.4l0.4-0.2c0.8-0.4,1.7-0.8,2.7-1c0.8-0.2,1.7-0.2,2.4-0.2c0.3,0,0.5,0,0.8,0
		c0.2,0,0.5,0,0.7,0c2.2,0.1,4.4,0.3,6.6,0.5c2,0.2,4.2,0.4,5.9,1.5c0.6,0.4,1.1,0.9,1.6,1.3c0.3,0.3,0.7,0.6,1,0.9
		c1.1,0.7,2.4,1.2,3.5,1.4c0.4,0.1,0.8,0.4,0.9,0.9s-0.2,0.9-0.6,1c-0.7,0.3-1.3,0.3-1.8,0.3c-0.2,0-0.5,0-0.7,0
		c-0.6,0-1.1,0-1.5,0.1c-0.1,0-0.3,0.1-0.5,0.2c-0.2,0.1-0.5,0.2-0.7,0.2c-1.2,0.4-2.8,0.3-4.5-0.2c-0.2,0-0.4-0.1-0.5-0.2
		c-0.5-0.1-0.9-0.3-1.3-0.3c-0.4,0-1,0.3-1.6,0.5c-0.9,0.4-1.9,0.7-3,0.6c-0.7-0.1-1.3-0.4-1.8-0.7c-0.2-0.1-0.4-0.2-0.6-0.3
		c-0.4-0.2-0.9-0.2-1.2-0.1c0,0,0,0,0,0c-0.1,0.1-0.3,0.3-0.6,0.5c-0.9,0.7-2.2,0.7-3.7,0c-0.7-0.3-1.5-0.6-2-0.5L13,46.8
		C11.9,47.6,10.5,48,9.1,48z M7,45.6c1.5,0.6,3.5,0.5,4.8-0.4l0.9-0.6c0.1,0,0.2-0.1,0.2-0.1c0.3-0.1,0.6-0.2,1-0.2
		c0.9,0,1.7,0.3,2.5,0.7c1,0.4,1.6,0.3,1.8,0.2c0,0,0.1,0,0.1-0.1c0,0,0,0,0.1-0.1c0.1-0.1,0.2-0.2,0.2-0.3c0,0,0.1-0.1,0.2-0.1
		c0.8-0.5,2-0.6,3.1-0.1c0.3,0.1,0.5,0.2,0.8,0.4c0.4,0.2,0.7,0.4,1.1,0.4c0.1,0,0.1,0,0.2,0c0.5,0,1.2-0.2,1.8-0.5
		c0.7-0.3,1.5-0.6,2.3-0.6c0,0,0,0,0,0c0.7,0,1.4,0.2,1.9,0.4c0.2,0.1,0.3,0.1,0.5,0.2c1.4,0.4,2.5,0.5,3.4,0.2
		c0.2-0.1,0.4-0.1,0.5-0.2c0.2-0.1,0.3-0.1,0.5-0.2c-0.1,0-0.2-0.1-0.2-0.1c-0.5-0.4-0.8-0.7-1.2-1c-0.4-0.4-0.9-0.8-1.3-1.1
		c-1.4-0.8-3.2-1-5-1.2c-2.2-0.2-4.4-0.4-6.5-0.5c-0.2,0-0.4,0-0.7,0c-0.8,0-1.8-0.1-2.7,0.2c-0.8,0.2-1.6,0.5-2.3,0.9l-0.4,0.2
		c-1,0.4-2,0.9-2.9,1.3c-1,0.5-2,0.9-3,1.4C8.2,44.9,7.5,45.2,7,45.6z"/>
	<path fill="#010101" d="M30.6,41.5c-0.2,0-0.4-0.1-0.6-0.2c-0.4-0.3-0.5-1-0.2-1.4c8.8-11,3.5-26.5,3.4-26.6
		c-0.2-0.5,0.1-1.1,0.6-1.3c0.5-0.2,1.1,0.1,1.3,0.6c0.2,0.7,5.7,16.7-3.8,28.6C31.2,41.4,30.9,41.5,30.6,41.5z"/>
</g>
</svg>
