<?xml version="1.0" encoding="utf-8"?>
<!-- Generator: Adobe Illustrator 16.0.0, SVG Export Plug-In . SVG Version: 6.00 Build 0)  -->
<!DOCTYPE svg PUBLIC "-//W3C//DTD SVG 1.1//EN" "http://www.w3.org/Graphics/SVG/1.1/DTD/svg11.dtd">
<svg version="1.1" id="Layer_1" xmlns="http://www.w3.org/2000/svg" xmlns:xlink="http://www.w3.org/1999/xlink" x="0px" y="0px"
	 width="48px" height="48px" viewBox="0 0 48 48" enable-background="new 0 0 48 48" xml:space="preserve">
<g>
	<path d="M24,48c-0.552,0-1-0.447-1-1V1c0-0.552,0.448-1,1-1c0.553,0,1,0.448,1,1v46C25,47.553,24.553,48,24,48z"/>
	<g>
		<g>
			<path d="M24,12.464c-0.272,0-0.543-0.11-0.741-0.328l-7.161-7.891c-0.371-0.409-0.34-1.041,0.069-1.413
				c0.41-0.371,1.042-0.34,1.413,0.069l7.161,7.891c0.371,0.409,0.341,1.041-0.068,1.413C24.48,12.378,24.24,12.464,24,12.464z"/>
			<path d="M24,12.464c-0.24,0-0.48-0.085-0.671-0.259c-0.409-0.371-0.44-1.004-0.069-1.413l7.161-7.891
				c0.373-0.41,1.005-0.439,1.412-0.069c0.409,0.371,0.439,1.004,0.068,1.413l-7.16,7.891C24.543,12.354,24.272,12.464,24,12.464z"
				/>
		</g>
		<g>
			<path d="M31.16,45.427c-0.272,0-0.543-0.11-0.74-0.328l-7.161-7.892c-0.371-0.409-0.34-1.041,0.069-1.412
				c0.41-0.371,1.042-0.341,1.412,0.068l7.16,7.892c0.371,0.409,0.341,1.041-0.068,1.412C31.641,45.341,31.4,45.427,31.16,45.427z"
				/>
			<path d="M16.838,45.427c-0.24,0-0.48-0.086-0.671-0.26c-0.409-0.371-0.44-1.003-0.069-1.412l7.161-7.892
				c0.372-0.409,1.004-0.44,1.413-0.068c0.409,0.371,0.439,1.003,0.068,1.412l-7.161,7.892
				C17.382,45.316,17.111,45.427,16.838,45.427z"/>
		</g>
	</g>
	<path d="M47,25H1c-0.552,0-1-0.447-1-1c0-0.552,0.448-1,1-1h46c0.553,0,1,0.448,1,1C48,24.553,47.553,25,47,25z"/>
	<g>
		<g>
			<path d="M36.535,25c-0.271,0-0.543-0.11-0.74-0.328c-0.371-0.409-0.341-1.042,0.068-1.413l7.892-7.161
				c0.408-0.37,1.041-0.341,1.412,0.069c0.371,0.409,0.341,1.042-0.068,1.413l-7.892,7.161C37.016,24.914,36.775,25,36.535,25z"/>
			<path d="M44.427,32.159c-0.24,0-0.48-0.086-0.672-0.26l-7.892-7.159c-0.409-0.371-0.439-1.003-0.068-1.412
				c0.37-0.41,1.003-0.441,1.412-0.069l7.892,7.16c0.409,0.371,0.439,1.003,0.068,1.412C44.97,32.049,44.698,32.159,44.427,32.159z"
				/>
		</g>
		<g>
			<path d="M3.575,32.159c-0.272,0-0.543-0.11-0.741-0.328c-0.371-0.409-0.34-1.041,0.069-1.412l7.89-7.16
				c0.41-0.371,1.042-0.34,1.413,0.069s0.34,1.042-0.069,1.412l-7.89,7.159C4.055,32.073,3.814,32.159,3.575,32.159z"/>
			<path d="M11.463,25c-0.24,0-0.48-0.086-0.671-0.26l-7.89-7.161c-0.409-0.371-0.44-1.003-0.068-1.412
				c0.371-0.409,1.003-0.44,1.412-0.068l7.89,7.161c0.409,0.371,0.44,1.003,0.068,1.412C12.007,24.89,11.736,25,11.463,25z"/>
		</g>
	</g>
	<path d="M7.735,41.264c-0.256,0-0.512-0.098-0.707-0.293c-0.391-0.391-0.391-1.023,0-1.414L39.557,7.029
		c0.391-0.391,1.023-0.391,1.414,0s0.391,1.023,0,1.414L8.442,40.971C8.247,41.166,7.991,41.264,7.735,41.264z"/>
	<g>
		<g>
			<path d="M33.021,15.98c-0.017,0-0.033,0-0.05-0.001c-0.552-0.027-0.977-0.496-0.95-1.048l0.527-10.832
				c0.027-0.552,0.506-0.974,1.048-0.95c0.552,0.027,0.977,0.496,0.95,1.048l-0.527,10.832C33.992,15.563,33.55,15.98,33.021,15.98z
				"/>
			<path d="M33.019,15.98c-0.53,0-0.972-0.417-0.998-0.952c-0.026-0.551,0.398-1.021,0.95-1.047l10.832-0.527
				c0.54-0.026,1.021,0.398,1.048,0.951c0.026,0.551-0.398,1.021-0.95,1.047l-10.832,0.527C33.052,15.979,33.035,15.98,33.019,15.98
				z"/>
		</g>
		<g>
			<path d="M14.454,44.85c-0.017,0-0.033,0-0.05-0.001c-0.551-0.027-0.977-0.496-0.95-1.048l0.527-10.83
				c0.027-0.552,0.501-0.988,1.048-0.95c0.551,0.027,0.977,0.496,0.95,1.048l-0.527,10.83C15.426,44.434,14.984,44.85,14.454,44.85z
				"/>
			<path d="M4.147,34.547c-0.53,0-0.972-0.416-0.998-0.951c-0.027-0.552,0.399-1.021,0.95-1.048l10.832-0.527
				c0.546-0.039,1.021,0.397,1.048,0.95c0.027,0.552-0.399,1.021-0.95,1.048L4.197,34.546C4.18,34.547,4.164,34.547,4.147,34.547z"
				/>
		</g>
	</g>
	<path d="M40.264,41.264c-0.256,0-0.512-0.098-0.707-0.293L7.029,8.443c-0.391-0.391-0.391-1.023,0-1.414s1.023-0.391,1.414,0
		l32.528,32.528c0.391,0.391,0.391,1.023,0,1.414C40.775,41.166,40.52,41.264,40.264,41.264z"/>
	<g>
		<g>
			<path d="M43.851,34.546c-0.017,0-0.033,0-0.05-0.001l-10.83-0.526c-0.552-0.027-0.977-0.496-0.95-1.048
				c0.027-0.552,0.513-0.969,1.048-0.95l10.83,0.526c0.552,0.027,0.977,0.496,0.95,1.048C44.822,34.13,44.381,34.546,43.851,34.546z
				"/>
			<path d="M33.545,44.85c-0.53,0-0.972-0.416-0.998-0.951l-0.526-10.83c-0.026-0.552,0.398-1.021,0.95-1.048
				c0.547-0.03,1.021,0.398,1.048,0.95l0.526,10.83c0.026,0.552-0.398,1.021-0.95,1.048C33.578,44.85,33.562,44.85,33.545,44.85z"/>
		</g>
		<g>
			<path d="M14.981,15.98c-0.017,0-0.033,0-0.049-0.001L4.101,15.453c-0.552-0.027-0.977-0.496-0.951-1.047
				c0.027-0.552,0.5-0.969,1.047-0.951l10.831,0.526c0.552,0.027,0.977,0.496,0.951,1.047C15.953,15.563,15.511,15.98,14.981,15.98z
				"/>
			<path d="M14.979,15.98c-0.53,0-0.972-0.417-0.998-0.952L13.455,4.197c-0.026-0.551,0.399-1.021,0.951-1.047
				c0.525-0.031,1.02,0.398,1.047,0.951l0.526,10.831c0.026,0.551-0.399,1.021-0.951,1.047C15.012,15.979,14.996,15.98,14.979,15.98
				z"/>
		</g>
	</g>
	<g>
		<g>
			<path d="M28.647,20.351c-0.017,0-0.033,0-0.05-0.001c-0.552-0.027-0.977-0.496-0.95-1.048l0.272-5.581
				c0.027-0.552,0.494-0.978,1.048-0.95c0.552,0.027,0.977,0.496,0.95,1.048L29.646,19.4C29.619,19.935,29.177,20.351,28.647,20.351
				z"/>
			<path d="M28.646,20.351c-0.53,0-0.972-0.417-0.998-0.952c-0.026-0.551,0.398-1.021,0.95-1.047l5.582-0.271
				c0.545-0.021,1.021,0.399,1.048,0.951c0.026,0.551-0.398,1.021-0.95,1.047l-5.582,0.271
				C28.679,20.351,28.662,20.351,28.646,20.351z"/>
		</g>
		<g>
			<path d="M19.08,35.229c-0.017,0-0.033,0-0.05-0.001c-0.551-0.027-0.977-0.496-0.95-1.048l0.272-5.582
				c0.027-0.552,0.501-0.986,1.048-0.95c0.551,0.027,0.977,0.496,0.95,1.048l-0.272,5.582C20.052,34.813,19.61,35.229,19.08,35.229z
				"/>
			<path d="M13.769,29.919c-0.53,0-0.972-0.416-0.998-0.951c-0.027-0.552,0.398-1.021,0.95-1.048l5.581-0.272
				c0.546-0.037,1.021,0.398,1.048,0.95c0.027,0.552-0.398,1.021-0.95,1.048l-5.581,0.272
				C13.802,29.919,13.786,29.919,13.769,29.919z"/>
		</g>
	</g>
	<g>
		<g>
			<path d="M34.229,29.919c-0.017,0-0.033,0-0.05-0.001l-5.582-0.272c-0.552-0.027-0.977-0.496-0.95-1.048
				c0.027-0.552,0.493-0.987,1.048-0.95l5.582,0.272c0.552,0.027,0.977,0.496,0.95,1.048C35.201,29.503,34.759,29.919,34.229,29.919
				z"/>
			<path d="M28.918,35.229c-0.529,0-0.972-0.416-0.998-0.951l-0.272-5.582c-0.026-0.552,0.398-1.021,0.95-1.048
				c0.535-0.04,1.021,0.397,1.048,0.95l0.272,5.582c0.026,0.552-0.398,1.021-0.95,1.048C28.951,35.229,28.935,35.229,28.918,35.229z
				"/>
		</g>
		<g>
			<path d="M19.352,20.351c-0.017,0-0.033,0-0.049-0.001l-5.58-0.271c-0.552-0.027-0.977-0.496-0.951-1.047
				c0.027-0.552,0.488-0.966,1.047-0.951l5.58,0.271c0.552,0.027,0.977,0.496,0.951,1.047
				C20.324,19.935,19.882,20.351,19.352,20.351z"/>
			<path d="M19.35,20.351c-0.53,0-0.972-0.417-0.998-0.952l-0.271-5.581c-0.026-0.551,0.399-1.021,0.951-1.047
				c0.527-0.026,1.02,0.398,1.047,0.951l0.271,5.581c0.026,0.551-0.399,1.021-0.951,1.047C19.383,20.351,19.367,20.351,19.35,20.351
				z"/>
		</g>
	</g>
</g>
</svg>
