<?xml version="1.0" encoding="utf-8"?>
<!-- Generator: Adobe Illustrator 16.0.0, SVG Export Plug-In . SVG Version: 6.00 Build 0)  -->
<!DOCTYPE svg PUBLIC "-//W3C//DTD SVG 1.1//EN" "http://www.w3.org/Graphics/SVG/1.1/DTD/svg11.dtd">
<svg version="1.1" id="Layer_1" xmlns="http://www.w3.org/2000/svg" xmlns:xlink="http://www.w3.org/1999/xlink" x="0px" y="0px"
	 width="48px" height="48px" viewBox="0 0 48 48" enable-background="new 0 0 48 48" xml:space="preserve">
<g>
	<g>
		<circle cx="20.944" cy="9.378" r="1.135"/>
		<circle cx="27.055" cy="9.378" r="1.134"/>
	</g>
	<g>
		<circle cx="24" cy="24.8" r="1.135"/>
		<circle cx="24" cy="31.444" r="1.135"/>
		<circle cx="24" cy="38.086" r="1.135"/>
	</g>
	<path d="M24,48c-8.544,0-15.496-7.23-15.496-16.118c0-6.466,3.613-12.15,9.168-14.713c-2.033-1.703-3.238-4.169-3.238-6.793
		c0-2.5,1.05-4.827,2.957-6.554c0.41-0.372,1.042-0.339,1.413,0.07c0.371,0.409,0.339,1.042-0.07,1.413
		c-1.483,1.343-2.299,3.145-2.299,5.072c0,2.538,1.476,4.895,3.85,6.151c0.357,0.188,0.565,0.573,0.529,0.975
		c-0.037,0.402-0.312,0.742-0.696,0.863c-5.66,1.777-9.613,7.336-9.613,13.517C10.504,39.667,16.558,46,24,46
		c7.441,0,13.496-6.333,13.496-14.117c0-6.182-3.952-11.739-9.612-13.517c-0.385-0.121-0.659-0.461-0.696-0.863
		c-0.036-0.401,0.172-0.786,0.528-0.975c2.375-1.256,3.851-3.613,3.851-6.151c0-1.983-0.901-3.887-2.473-5.224
		c-0.421-0.358-0.472-0.989-0.114-1.41c0.358-0.421,0.991-0.471,1.409-0.114c2.02,1.717,3.178,4.177,3.178,6.748
		c0,2.624-1.204,5.09-3.237,6.793c5.555,2.563,9.167,8.246,9.167,14.713C39.496,40.77,32.545,48,24,48z"/>
	<path d="M35.063,5.223H13.665c-0.552,0-1-0.448-1-1s0.448-1,1-1h21.397c0.553,0,1,0.448,1,1S35.615,5.223,35.063,5.223z"/>
	<path d="M27.943,2h-7.161c-0.552,0-1-0.448-1-1s0.448-1,1-1h7.161c0.553,0,1,0.448,1,1S28.496,2,27.943,2z"/>
	<g>
		<path d="M3.127,23.239c-0.203,0-0.408-0.062-0.585-0.189c-0.447-0.324-0.548-0.949-0.225-1.396
			c2.242-3.101,8.184-7.851,14.627-3.633c0.462,0.303,0.591,0.922,0.289,1.385c-0.302,0.461-0.923,0.591-1.385,0.289
			c-6.474-4.239-11.692,2.828-11.911,3.131C3.743,23.096,3.437,23.239,3.127,23.239z"/>
		<path d="M44.873,23.238c-0.31,0-0.614-0.143-0.811-0.412c-0.221-0.302-5.467-7.352-11.913-3.132
			c-0.463,0.302-1.082,0.173-1.385-0.29c-0.303-0.462-0.173-1.082,0.289-1.384c6.445-4.218,12.387,0.533,14.629,3.633
			c0.323,0.447,0.223,1.071-0.224,1.395C45.281,23.177,45.076,23.238,44.873,23.238z"/>
	</g>
</g>
</svg>
