<?xml version="1.0" encoding="utf-8"?>
<!-- Generator: Adobe Illustrator 18.0.0, SVG Export Plug-In . SVG Version: 6.00 Build 0)  -->
<!DOCTYPE svg PUBLIC "-//W3C//DTD SVG 1.1//EN" "http://www.w3.org/Graphics/SVG/1.1/DTD/svg11.dtd">
<svg version="1.1" id="Layer_1" xmlns="http://www.w3.org/2000/svg" xmlns:xlink="http://www.w3.org/1999/xlink" x="0px" y="0px"
	 viewBox="0 0 48 48" enable-background="new 0 0 48 48" xml:space="preserve">
<g>
	<g>
		<g>
			<rect x="23" fill="#010101" width="2" height="48"/>
			<polygon fill="#010101" points="24,11.2 16,3.2 17.4,1.8 24,8.4 30.6,1.8 32,3.2 			"/>
			<polygon fill="#010101" points="30.6,46.2 24,39.6 17.4,46.2 16,44.8 24,36.8 32,44.8 			"/>
		</g>
		<g>
			<rect y="23" fill="#010101" width="48" height="2"/>
			<polygon fill="#010101" points="44.8,32 36.8,24 44.8,16 46.2,17.4 39.6,24 46.2,30.6 			"/>
			<polygon fill="#010101" points="3.2,32 1.8,30.6 8.4,24 1.8,17.4 3.2,16 11.2,24 			"/>
		</g>
	</g>
	<g>
		<g>
			<rect x="23" y="0" transform="matrix(0.7071 0.7071 -0.7071 0.7071 24 -9.9411)" fill="#010101" width="2" height="48.1"/>
			<polygon fill="#010101" points="44.4,15 33,15 33,3.6 35,3.6 35,13 44.4,13 			"/>
			<polygon fill="#010101" points="15,44.4 13,44.4 13,35 3.6,35 3.6,33 15,33 			"/>
		</g>
		<g>
			<rect x="0" y="23" transform="matrix(0.7071 0.7071 -0.7071 0.7071 24 -9.9411)" fill="#010101" width="48.1" height="2"/>
			<polygon fill="#010101" points="35,44.4 33,44.4 33,33 44.4,33 44.4,35 35,35 			"/>
			<polygon fill="#010101" points="15,15 3.6,15 3.6,13 13,13 13,3.6 15,3.6 			"/>
		</g>
	</g>
</g>
</svg>
