<?xml version="1.0" encoding="utf-8"?>
<!-- Generator: Adobe Illustrator 18.0.0, SVG Export Plug-In . SVG Version: 6.00 Build 0)  -->
<!DOCTYPE svg PUBLIC "-//W3C//DTD SVG 1.1//EN" "http://www.w3.org/Graphics/SVG/1.1/DTD/svg11.dtd">
<svg version="1.1" id="Layer_1" xmlns="http://www.w3.org/2000/svg" xmlns:xlink="http://www.w3.org/1999/xlink" x="0px" y="0px"
	 viewBox="0 0 48 48" enable-background="new 0 0 48 48" xml:space="preserve">
<g>
	<path fill="#010101" d="M10.3,47.9c-2.8,0-5.4-1-7.4-2.9c-2-2-3-4.8-2.9-7.7c0.1-2.9,1.2-5.5,3.2-7.3C13,21,22.1,11.9,30.1,3.1
		c1.8-2,4.6-3.2,7.6-3.2c2.8,0,5.4,1,7.4,2.9c2,2.1,3.1,5,3,7.9c-0.1,2.8-1.3,5.4-3.2,7c-9.9,9-18.9,18.1-26.9,26.9
		C16.1,46.8,13.3,47.9,10.3,47.9z M37.6,2c-2.4,0-4.7,0.9-6.1,2.5c-8,8.9-17.1,18-27.1,27.1C3,32.9,2,35.1,2,37.4
		c-0.1,2.4,0.8,4.6,2.4,6.2c1.5,1.5,3.7,2.3,5.9,2.3c2.4,0,4.7-0.9,6.1-2.5c8-8.9,17.1-18,27.1-27.1c1.5-1.3,2.4-3.4,2.5-5.6
		c0.1-2.5-0.7-4.7-2.4-6.4C42,2.8,39.9,2,37.6,2z"/>
	
		<rect x="3.5" y="34.7" transform="matrix(0.8269 0.5623 -0.5623 0.8269 22.2554 -0.9064)" fill="#010101" width="18.1" height="2"/>
	
		<rect x="6.7" y="31.6" transform="matrix(0.8244 0.5661 -0.5661 0.8244 21.2002 -3.2267)" fill="#010101" width="18.2" height="2"/>
	
		<rect x="22.8" y="15.5" transform="matrix(0.8243 0.5661 -0.5661 0.8243 14.9155 -15.1689)" fill="#010101" width="18.2" height="2"/>
	<rect x="26" y="12.3" transform="matrix(0.8226 0.5686 -0.5686 0.8226 13.752 -17.5794)" fill="#010101" width="18.1" height="2"/>
</g>
</svg>
