<?xml version="1.0" encoding="utf-8"?>
<!-- Generator: Adobe Illustrator 16.0.0, SVG Export Plug-In . SVG Version: 6.00 Build 0)  -->
<!DOCTYPE svg PUBLIC "-//W3C//DTD SVG 1.1//EN" "http://www.w3.org/Graphics/SVG/1.1/DTD/svg11.dtd">
<svg version="1.1" id="Layer_1" xmlns="http://www.w3.org/2000/svg" xmlns:xlink="http://www.w3.org/1999/xlink" x="0px" y="0px"
	 width="48px" height="48px" viewBox="0 0 48 48" enable-background="new 0 0 48 48" xml:space="preserve">
<g>
	<g>
		<g>
			<path d="M24.002,25.688L24.002,25.688c-0.552,0-1-0.448-1-1l0.002-23.689c0-0.552,0.448-1,1-1l0,0c0.553,0,1,0.448,1,1
				l-0.002,23.689C25.002,25.24,24.554,25.688,24.002,25.688z"/>
			<g>
				<path d="M24,9.529c-0.239,0-0.479-0.085-0.671-0.259l-6.706-6.073c-0.409-0.371-0.44-1.003-0.07-1.413
					c0.371-0.409,1.003-0.44,1.413-0.07l6.706,6.073c0.41,0.371,0.441,1.003,0.07,1.413C24.545,9.418,24.273,9.529,24,9.529z"/>
				<path d="M24.001,9.529c-0.273,0-0.544-0.111-0.742-0.329c-0.371-0.409-0.339-1.042,0.07-1.412l6.706-6.071
					c0.409-0.371,1.042-0.339,1.412,0.07c0.371,0.409,0.339,1.042-0.07,1.412L24.672,9.27C24.481,9.443,24.241,9.529,24.001,9.529z"
					/>
			</g>
		</g>
		<g>
			<path d="M24.001,48.003L24.001,48.003c-0.552,0-1-0.448-1-1l0.003-22.164c0-0.552,0.448-1,1-1l0,0c0.553,0,1,0.448,1,1
				l-0.003,22.164C25.001,47.556,24.553,48.003,24.001,48.003z"/>
			<g>
				<path d="M30.709,46.544c-0.239,0-0.479-0.085-0.671-0.259l-6.708-6.069c-0.41-0.37-0.441-1.003-0.071-1.412
					c0.371-0.408,1.002-0.442,1.413-0.07l6.708,6.069c0.409,0.37,0.441,1.003,0.07,1.412C31.253,46.433,30.981,46.544,30.709,46.544
					z"/>
				<path d="M17.296,46.54c-0.273,0-0.544-0.111-0.742-0.329c-0.371-0.409-0.339-1.042,0.071-1.412l6.705-6.065
					c0.41-0.373,1.042-0.337,1.412,0.07c0.371,0.409,0.339,1.042-0.07,1.412l-6.705,6.065C17.775,46.455,17.535,46.54,17.296,46.54z
					"/>
			</g>
		</g>
	</g>
	<g>
		<g>
			<path d="M47,25.003L47,25.003l-22.156-0.004c-0.552,0-1-0.448-1-1c0-0.552,0.448-1,1-1l0,0L47,23.003c0.553,0,1,0.448,1,1
				C48,24.556,47.552,25.003,47,25.003z"/>
			<g>
				<path d="M39.475,25.001c-0.239,0-0.479-0.085-0.671-0.259c-0.409-0.37-0.441-1.002-0.07-1.412l6.068-6.707
					c0.37-0.411,1.003-0.44,1.412-0.071c0.409,0.371,0.441,1.003,0.07,1.413l-6.068,6.707C40.019,24.89,39.747,25.001,39.475,25.001
					z"/>
				<path d="M45.546,31.707c-0.272,0-0.544-0.11-0.741-0.329l-6.071-6.706c-0.371-0.409-0.34-1.042,0.07-1.412
					c0.41-0.371,1.041-0.34,1.412,0.07l6.071,6.707c0.371,0.409,0.34,1.042-0.07,1.412C46.025,31.622,45.785,31.707,45.546,31.707z"
					/>
			</g>
		</g>
		<g>
			<path d="M1,25.001c-0.552,0-1-0.447-1-1c0-0.552,0.448-1,1-1l22.162-0.004c0.552,0,1,0.448,1,1c0,0.552-0.448,1-1,1L1,25.001z"/>
			<g>
				<path d="M2.458,31.705c-0.239,0-0.479-0.085-0.671-0.259c-0.409-0.37-0.44-1.003-0.07-1.412l6.07-6.705
					c0.37-0.408,1.003-0.44,1.413-0.07s0.44,1.003,0.07,1.412L3.2,31.376C3.003,31.595,2.731,31.705,2.458,31.705z"/>
				<path d="M8.529,25.001c-0.273,0-0.544-0.111-0.742-0.329l-6.071-6.708c-0.371-0.409-0.339-1.042,0.07-1.412
					c0.41-0.372,1.042-0.34,1.412,0.07L9.27,23.33c0.371,0.409,0.339,1.042-0.07,1.412C9.008,24.916,8.769,25.001,8.529,25.001z"/>
			</g>
		</g>
	</g>
	<g>
		<path d="M4.36,44.643c-0.256,0-0.512-0.098-0.707-0.293c-0.391-0.391-0.391-1.023,0-1.414L42.939,3.648
			c0.391-0.391,1.023-0.391,1.414,0s0.391,1.023,0,1.414L5.067,44.35C4.872,44.545,4.616,44.643,4.36,44.643z"/>
		<path d="M43.646,44.646c-0.256,0-0.512-0.098-0.707-0.293L3.647,5.061c-0.391-0.391-0.391-1.023,0-1.414s1.023-0.391,1.414,0
			l39.292,39.292c0.391,0.391,0.391,1.023,0,1.414C44.158,44.549,43.902,44.646,43.646,44.646z"/>
	</g>
</g>
</svg>
