<?xml version="1.0" encoding="utf-8"?>
<!-- Generator: Adobe Illustrator 16.0.0, SVG Export Plug-In . SVG Version: 6.00 Build 0)  -->
<!DOCTYPE svg PUBLIC "-//W3C//DTD SVG 1.1//EN" "http://www.w3.org/Graphics/SVG/1.1/DTD/svg11.dtd">
<svg version="1.1" id="Layer_1" xmlns="http://www.w3.org/2000/svg" xmlns:xlink="http://www.w3.org/1999/xlink" x="0px" y="0px"
	 width="48px" height="48px" viewBox="0 0 48 48" enable-background="new 0 0 48 48" xml:space="preserve">
<g>
	<path d="M23.999,31.857c-4.333,0-7.858-3.524-7.858-7.857s3.525-7.858,7.858-7.858s7.858,3.525,7.858,7.858
		S28.332,31.857,23.999,31.857z M23.999,18.142c-3.23,0-5.858,2.628-5.858,5.858c0,3.229,2.628,5.857,5.858,5.857
		c3.23,0,5.858-2.628,5.858-5.857C29.857,20.77,27.229,18.142,23.999,18.142z"/>
	<g>
		<g>
			<path d="M24,16.489c-0.552,0-1-0.448-1-1V0.998c0-0.552,0.448-1,1-1c0.553,0,1,0.448,1,1v14.491
				C25,16.042,24.553,16.489,24,16.489z"/>
			<g>
				<path d="M24,9.527c-0.239,0-0.479-0.085-0.671-0.259l-6.705-6.072c-0.409-0.371-0.44-1.003-0.07-1.413
					c0.371-0.408,1.003-0.441,1.413-0.07l6.705,6.072c0.41,0.371,0.441,1.003,0.07,1.413C24.544,9.416,24.272,9.527,24,9.527z"/>
				<path d="M24,9.527c-0.273,0-0.544-0.111-0.742-0.329c-0.371-0.41-0.339-1.042,0.07-1.413l6.707-6.072
					c0.409-0.371,1.041-0.339,1.412,0.07c0.371,0.41,0.34,1.042-0.07,1.413l-6.706,6.072C24.48,9.441,24.24,9.527,24,9.527z"/>
			</g>
		</g>
		<g>
			<path d="M24,48.002c-0.552,0-1-0.447-1-1v-14.5c0-0.553,0.448-1,1-1c0.553,0,1,0.447,1,1v14.5C25,47.555,24.553,48.002,24,48.002
				z"/>
			<g>
				<path d="M30.706,46.541c-0.239,0-0.479-0.085-0.671-0.259l-6.706-6.068c-0.41-0.37-0.441-1.003-0.071-1.412
					c0.371-0.408,1.002-0.443,1.413-0.07l6.706,6.068c0.409,0.37,0.441,1.003,0.07,1.412C31.25,46.43,30.979,46.541,30.706,46.541z"
					/>
				<path d="M17.295,46.541c-0.273,0-0.544-0.111-0.742-0.329c-0.371-0.409-0.339-1.042,0.07-1.412l6.705-6.068
					c0.41-0.373,1.042-0.338,1.412,0.07c0.371,0.409,0.339,1.042-0.07,1.412l-6.705,6.068
					C17.774,46.456,17.535,46.541,17.295,46.541z"/>
			</g>
		</g>
	</g>
	<g>
		<g>
			<path d="M47,25H32.512c-0.553,0-1-0.447-1-1c0-0.552,0.447-1,1-1H47c0.553,0,1,0.448,1,1C48,24.553,47.553,25,47,25z"/>
			<g>
				<path d="M39.473,25c-0.239,0-0.479-0.085-0.671-0.259c-0.409-0.37-0.441-1.003-0.07-1.412l6.07-6.708
					c0.37-0.41,1.003-0.44,1.412-0.071c0.409,0.371,0.441,1.003,0.07,1.413l-6.07,6.708C40.017,24.889,39.745,25,39.473,25z"/>
				<path d="M45.543,31.705c-0.272,0-0.544-0.11-0.741-0.329l-6.07-6.705c-0.371-0.409-0.339-1.042,0.07-1.412
					c0.409-0.371,1.042-0.34,1.412,0.07l6.07,6.705c0.371,0.409,0.339,1.042-0.07,1.412C46.022,31.62,45.782,31.705,45.543,31.705z"
					/>
			</g>
		</g>
		<g>
			<path d="M15.494,25H1c-0.552,0-1-0.447-1-1c0-0.552,0.448-1,1-1h14.494c0.552,0,1,0.448,1,1C16.494,24.553,16.046,25,15.494,25z"
				/>
			<g>
				<path d="M2.46,31.705c-0.239,0-0.479-0.085-0.67-0.259c-0.41-0.37-0.441-1.003-0.071-1.412l6.067-6.705
					c0.371-0.41,1.003-0.441,1.413-0.071c0.41,0.371,0.441,1.003,0.071,1.413l-6.067,6.705C3.005,31.594,2.733,31.705,2.46,31.705z"
					/>
				<path d="M8.528,25c-0.273,0-0.545-0.111-0.742-0.329l-6.067-6.708c-0.371-0.41-0.339-1.042,0.071-1.413s1.043-0.338,1.413,0.071
					l6.067,6.708c0.371,0.41,0.339,1.042-0.071,1.412C9.007,24.915,8.767,25,8.528,25z"/>
			</g>
		</g>
	</g>
</g>
</svg>
