<?xml version="1.0" encoding="utf-8"?>
<!-- Generator: Adobe Illustrator 16.0.0, SVG Export Plug-In . SVG Version: 6.00 Build 0)  -->
<!DOCTYPE svg PUBLIC "-//W3C//DTD SVG 1.1//EN" "http://www.w3.org/Graphics/SVG/1.1/DTD/svg11.dtd">
<svg version="1.1" id="Layer_1" xmlns="http://www.w3.org/2000/svg" xmlns:xlink="http://www.w3.org/1999/xlink" x="0px" y="0px"
	 width="48px" height="48px" viewBox="0 0 48 48" enable-background="new 0 0 48 48" xml:space="preserve">
<g>
	<path d="M23.995,34.963c-2.929,0-5.682-1.14-7.75-3.21c-2.071-2.071-3.211-4.825-3.211-7.754c0-2.93,1.14-5.683,3.209-7.752
		c2.071-2.071,4.824-3.212,7.751-3.212c2.929,0,5.683,1.142,7.754,3.214c4.274,4.274,4.274,11.229,0,15.505
		C29.678,33.823,26.924,34.963,23.995,34.963z M23.994,15.034c-2.394,0-4.644,0.933-6.337,2.626
		c-1.692,1.692-2.624,3.943-2.624,6.338c0,2.395,0.933,4.647,2.625,6.34c1.691,1.692,3.942,2.624,6.336,2.624
		c2.395,0,4.647-0.932,6.339-2.624c3.494-3.495,3.494-9.182,0-12.677C28.641,15.967,26.389,15.034,23.994,15.034z"/>
	<g>
		<g>
			<path d="M33.336,15.661c-0.256,0-0.512-0.098-0.707-0.293c-0.391-0.391-0.391-1.023,0-1.414l9.215-9.215
				c0.391-0.391,1.023-0.391,1.414,0s0.391,1.023,0,1.414l-9.215,9.215C33.848,15.563,33.592,15.661,33.336,15.661z"/>
			<g>
				<path d="M36.478,12.521c-0.529,0-0.971-0.416-0.998-0.95L34.966,1.26c-0.027-0.552,0.397-1.021,0.949-1.048
					c0.539-0.043,1.021,0.397,1.049,0.949l0.514,10.311c0.027,0.552-0.397,1.021-0.949,1.048
					C36.512,12.521,36.494,12.521,36.478,12.521z"/>
				<path d="M46.788,13.032c-0.017,0-0.033,0-0.051-0.001L36.429,12.52c-0.552-0.027-0.977-0.497-0.949-1.048
					c0.027-0.552,0.464-0.993,1.049-0.949l10.309,0.511c0.552,0.027,0.977,0.497,0.949,1.048
					C47.76,12.617,47.317,13.032,46.788,13.032z"/>
			</g>
		</g>
		<g>
			<path d="M5.441,43.557c-0.256,0-0.512-0.098-0.707-0.293c-0.391-0.391-0.391-1.023,0-1.414l9.223-9.224
				c0.391-0.391,1.023-0.391,1.414,0s0.391,1.023,0,1.414l-9.223,9.224C5.953,43.459,5.697,43.557,5.441,43.557z"/>
			<g>
				<path d="M12.029,47.789c-0.529,0-0.971-0.415-0.998-0.95L10.517,36.53c-0.028-0.552,0.397-1.021,0.949-1.049
					c0.553-0.031,1.021,0.396,1.048,0.949l0.515,10.309c0.028,0.552-0.397,1.021-0.949,1.049
					C12.063,47.789,12.046,47.789,12.029,47.789z"/>
				<path d="M11.516,37.48c-0.017,0-0.034,0-0.051-0.001L1.158,36.966c-0.552-0.027-0.977-0.497-0.949-1.049
					c0.027-0.551,0.505-0.968,1.048-0.949l10.307,0.514c0.552,0.027,0.977,0.497,0.949,1.049
					C12.487,37.064,12.045,37.48,11.516,37.48z"/>
			</g>
		</g>
	</g>
	<g>
		<g>
			<path d="M42.551,43.557c-0.256,0-0.512-0.098-0.707-0.293l-9.215-9.216c-0.391-0.391-0.391-1.023,0-1.414s1.023-0.391,1.414,0
				l9.215,9.216c0.391,0.391,0.391,1.023,0,1.414C43.063,43.459,42.807,43.557,42.551,43.557z"/>
			<g>
				<path d="M36.474,37.479c-0.529,0-0.972-0.416-0.998-0.95c-0.027-0.552,0.398-1.021,0.949-1.049l10.313-0.511
					c0.571-0.039,1.021,0.397,1.049,0.949s-0.398,1.021-0.949,1.049l-10.313,0.511C36.507,37.479,36.49,37.479,36.474,37.479z"/>
				<path d="M35.968,47.788c-0.017,0-0.033,0-0.05-0.001c-0.552-0.027-0.978-0.497-0.95-1.048l0.508-10.31
					c0.027-0.552,0.5-0.983,1.048-0.95c0.552,0.027,0.978,0.497,0.95,1.048l-0.508,10.31C36.939,47.372,36.497,47.788,35.968,47.788
					z"/>
			</g>
		</g>
		<g>
			<path d="M14.662,15.666c-0.256,0-0.512-0.098-0.707-0.293l-9.221-9.22c-0.391-0.391-0.391-1.023,0-1.414s1.023-0.391,1.414,0
				l9.221,9.22c0.391,0.391,0.391,1.023,0,1.414C15.174,15.568,14.918,15.666,14.662,15.666z"/>
			<g>
				<path d="M1.211,13.033c-0.529,0-0.971-0.416-0.998-0.95c-0.028-0.552,0.397-1.021,0.949-1.048l10.303-0.513
					c0.553-0.018,1.021,0.397,1.048,0.949c0.028,0.552-0.397,1.021-0.949,1.048L1.262,13.032
					C1.245,13.033,1.228,13.033,1.211,13.033z"/>
				<path d="M11.516,12.52c-0.017,0-0.034,0-0.051-0.001c-0.551-0.027-0.976-0.497-0.948-1.049l0.517-10.306
					c0.027-0.551,0.515-0.979,1.049-0.948c0.551,0.027,0.976,0.497,0.948,1.049L12.514,11.57
					C12.487,12.104,12.045,12.52,11.516,12.52z"/>
			</g>
		</g>
	</g>
	<g>
		<g>
			<path d="M46.805,25L46.805,25l-11.326-0.002c-0.553,0-1-0.448-1-1c0-0.552,0.448-1,1-1l0,0L46.805,23c0.553,0,1,0.448,1,1
				C47.805,24.553,47.356,25,46.805,25z"/>
			<g>
				<path d="M39.344,25.001c-0.239,0-0.479-0.085-0.671-0.258c-0.409-0.371-0.441-1.003-0.071-1.413l6.012-6.648
					c0.373-0.41,1.004-0.44,1.413-0.071c0.409,0.371,0.441,1.003,0.071,1.413l-6.012,6.648
					C39.888,24.89,39.616,25.001,39.344,25.001z"/>
				<path d="M45.354,31.652c-0.272,0-0.545-0.111-0.742-0.329l-6.01-6.651c-0.37-0.41-0.338-1.042,0.071-1.413
					c0.409-0.37,1.042-0.338,1.413,0.072l6.01,6.651c0.37,0.41,0.338,1.043-0.071,1.413C45.833,31.567,45.593,31.652,45.354,31.652z
					"/>
			</g>
		</g>
		<g>
			<path d="M1.196,25c-0.552,0-1-0.447-1-1c0-0.552,0.448-1,1-1l11.329-0.002c0.552,0,1,0.448,1,1c0,0.552-0.448,1-1,1L1.196,25z"/>
			<g>
				<path d="M2.642,31.648c-0.239,0-0.479-0.085-0.671-0.259c-0.409-0.371-0.44-1.003-0.07-1.412l6.02-6.649
					c0.371-0.409,1.003-0.44,1.413-0.07c0.409,0.371,0.44,1.003,0.07,1.412l-6.02,6.648C3.186,31.538,2.915,31.648,2.642,31.648z"/>
				<path d="M8.663,25c-0.273,0-0.544-0.11-0.742-0.329l-6.02-6.648c-0.371-0.41-0.339-1.042,0.07-1.413
					c0.409-0.371,1.042-0.339,1.413,0.07l6.02,6.649c0.371,0.41,0.339,1.042-0.07,1.413C9.142,24.915,8.902,25,8.663,25z"/>
			</g>
		</g>
	</g>
	<g>
		<g>
			<path d="M24,47.805L24,47.805c-0.552,0-1-0.448-1-1l0.002-11.33c0-0.553,0.448-1,1-1l0,0c0.553,0,1,0.448,1,1L25,46.805
				C25,47.357,24.552,47.805,24,47.805z"/>
			<g>
				<path d="M30.65,46.357c-0.239,0-0.479-0.085-0.671-0.259l-6.648-6.017c-0.41-0.37-0.441-1.003-0.071-1.412
					c0.371-0.408,1.002-0.442,1.413-0.07l6.648,6.017c0.409,0.37,0.441,1.003,0.07,1.412C31.194,46.246,30.923,46.357,30.65,46.357z
					"/>
				<path d="M17.351,46.357c-0.273,0-0.545-0.111-0.742-0.329c-0.371-0.41-0.339-1.042,0.071-1.412l6.652-6.017
					c0.41-0.372,1.042-0.338,1.412,0.07c0.371,0.41,0.339,1.042-0.07,1.412l-6.652,6.017C17.83,46.272,17.589,46.357,17.351,46.357z
					"/>
			</g>
		</g>
		<g>
			<path d="M24.002,13.521c-0.552,0-1-0.448-1-1L23,1.196c0-0.552,0.448-1,1-1c0.552,0,1,0.448,1,1l0.002,11.325
				C25.002,13.073,24.555,13.521,24.002,13.521z"/>
			<g>
				<path d="M24.001,9.66c-0.239,0-0.479-0.085-0.67-0.258l-6.656-6.014c-0.41-0.371-0.442-1.003-0.072-1.413
					c0.371-0.409,1.002-0.442,1.413-0.072l6.656,6.014c0.409,0.371,0.441,1.003,0.071,1.413C24.547,9.549,24.274,9.66,24.001,9.66z"
					/>
				<path d="M24.002,9.66c-0.273,0-0.544-0.111-0.742-0.329c-0.371-0.409-0.339-1.042,0.07-1.412l6.646-6.016
					c0.409-0.371,1.042-0.339,1.412,0.07c0.371,0.409,0.339,1.042-0.07,1.412l-6.646,6.016C24.481,9.575,24.242,9.66,24.002,9.66z"
					/>
			</g>
		</g>
	</g>
</g>
</svg>
