<?xml version="1.0" encoding="utf-8"?>
<!-- Generator: Adobe Illustrator 18.0.0, SVG Export Plug-In . SVG Version: 6.00 Build 0)  -->
<!DOCTYPE svg PUBLIC "-//W3C//DTD SVG 1.1//EN" "http://www.w3.org/Graphics/SVG/1.1/DTD/svg11.dtd">
<svg version="1.1" id="Layer_1" xmlns="http://www.w3.org/2000/svg" xmlns:xlink="http://www.w3.org/1999/xlink" x="0px" y="0px"
	 viewBox="0 0 48 48" enable-background="new 0 0 48 48" xml:space="preserve">
<g>
	<path fill="#010101" d="M33.2,48H8.3c-0.6,0-1-0.4-1-1V18.3c0-5.3,4.4-9.7,9.7-9.7h7.5c5.3,0,9.7,4.4,9.7,9.7V47
		C34.2,47.6,33.8,48,33.2,48z M9.3,46h22.9V18.3c0-4.2-3.5-7.7-7.7-7.7H17c-4.2,0-7.7,3.5-7.7,7.7V46z"/>
	<path fill="#010101" d="M23.6,7.8h-6.7c-0.6,0-1-0.4-1-1V2c0-0.5,0.3-0.9,0.8-1C16.9,1,21.5,0,26.9,0c6,0,10.5,1.2,13.4,3.7
		c0.3,0.3,0.4,0.7,0.3,1.1c-0.2,0.4-0.6,0.7-1,0.6c0,0-3.6-0.3-7.3-0.3c-4.6,0-6.7,0.4-7.7,0.7v0.9C24.6,7.4,24.2,7.8,23.6,7.8z
		 M17.9,5.8h4.7V5.2c0-0.4,0.2-0.7,0.5-0.9c1.4-0.8,4.4-1.2,9.2-1.2c1.1,0,2.2,0,3.1,0.1C33.1,2.4,30.3,2,26.9,2
		c-3.9,0-7.5,0.6-9,0.9V5.8z"/>
	<path fill="#010101" d="M26.2,43.3C26.2,43.3,26.2,43.3,26.2,43.3c-0.5,0-1-0.4-1-0.9L23.8,22H8.3c-0.6,0-1-0.4-1-1s0.4-1,1-1h16.4
		c0.5,0,1,0.4,1,0.9l0.8,11.2l1.4-11.2c0.1-0.5,0.5-0.9,1-0.9h4.3c0.6,0,1,0.4,1,1s-0.4,1-1,1h-3.4l-2.6,20.4
		C27.1,42.9,26.7,43.3,26.2,43.3z"/>
</g>
</svg>
