<?xml version="1.0" encoding="utf-8"?>
<!-- Generator: Adobe Illustrator 18.0.0, SVG Export Plug-In . SVG Version: 6.00 Build 0)  -->
<!DOCTYPE svg PUBLIC "-//W3C//DTD SVG 1.1//EN" "http://www.w3.org/Graphics/SVG/1.1/DTD/svg11.dtd">
<svg version="1.1" id="Layer_1" xmlns="http://www.w3.org/2000/svg" xmlns:xlink="http://www.w3.org/1999/xlink" x="0px" y="0px"
	 viewBox="0 0 48 48" enable-background="new 0 0 48 48" xml:space="preserve">
<g>
	<path fill="#010101" d="M24,48C10.8,48,0,37.2,0,24S10.8,0,24,0s24,10.8,24,24S37.2,48,24,48z M24,2C11.9,2,2,11.9,2,24
		s9.9,22,22,22s22-9.9,22-22S36.1,2,24,2z"/>
	<path fill="#010101" d="M15,22.4c-0.3,0-0.7-0.2-0.9-0.5l-3.9-6.6c-0.2-0.4-0.2-0.9,0.1-1.2l6-6.6c0.3-0.3,0.7-0.4,1-0.3l7.9,2.4
		c0.5,0.1,0.8,0.6,0.7,1.1l-1,8.4c0,0.4-0.3,0.7-0.7,0.8l-9,2.4C15.2,22.4,15.1,22.4,15,22.4z M12.3,14.9l3.1,5.3l7.6-2l0.8-6.9
		l-6.5-2L12.3,14.9z"/>
	<path fill="#010101" d="M19,43.8c0,0-0.1,0-0.1,0l-7.9-1c-0.4,0-0.7-0.3-0.8-0.7l-2.9-8c-0.2-0.5,0-1,0.5-1.2l5-2.7
		c0.4-0.2,0.8-0.1,1.1,0.1l7,6.2c0.3,0.2,0.4,0.6,0.3,1L20,43C19.9,43.5,19.5,43.8,19,43.8z M11.8,40.9l6.4,0.8l0.9-4l-6-5.3l-3.6,2
		L11.8,40.9z"/>
	<path fill="#010101" d="M35.8,38.8c-0.2,0-0.4-0.1-0.6-0.2l-5.9-3.9c-0.3-0.2-0.5-0.6-0.4-1l1.3-9.1c0.1-0.4,0.4-0.8,0.8-0.8
		l7.9-1.6c0.5-0.1,1,0.2,1.1,0.7l2.7,8.1c0.1,0.3,0,0.7-0.2,1l-6,6.5C36.3,38.7,36.1,38.8,35.8,38.8z M31,33.4l4.7,3.1l5-5.4
		l-2.2-6.7l-6.3,1.3L31,33.4z"/>
	<path fill="#010101" d="M40.6,15.8c-0.3,0-0.5-0.1-0.7-0.3l-7.1-7c-0.2-0.2-0.3-0.4-0.3-0.7V3.1h2v4.3l6.4,6.3l3.6-0.6l0.3,2
		l-4.1,0.7C40.7,15.8,40.7,15.8,40.6,15.8z"/>
	<rect x="5.8" y="11" transform="matrix(0.1157 0.9933 -0.9933 0.1157 21.21 6.7747)" fill="#010101" width="2" height="8.7"/>
	
		<rect x="-0.5" y="29.1" transform="matrix(0.7022 0.7119 -0.7119 0.7022 22.8349 5.7026)" fill="#010101" width="10.3" height="2"/>
	<rect x="13.1" y="21.3" transform="matrix(0.9832 0.1826 -0.1826 0.9832 5.0297 -2.1332)" fill="#010101" width="2" height="9.9"/>
	<rect x="24" y="30.6" transform="matrix(0.3698 0.9291 -0.9291 0.3698 49.0641 -0.6348)" fill="#010101" width="2" height="10.5"/>
	<rect x="23" y="20.9" transform="matrix(0.7788 0.6272 -0.6272 0.7788 19.8411 -12.4683)" fill="#010101" width="9.2" height="2"/>
	<rect x="38.8" y="14.7" transform="matrix(0.9844 0.1758 -0.1758 0.9844 3.9606 -6.7093)" fill="#010101" width="2" height="8.5"/>
	
		<rect x="28.3" y="4.7" transform="matrix(0.3126 0.9499 -0.9499 0.3126 28.8466 -21.4601)" fill="#010101" width="2" height="8.9"/>
	
		<rect x="13.6" y="4.3" transform="matrix(0.1863 0.9825 -0.9825 0.1863 18.6733 -11.9477)" fill="#010101" width="5.9" height="2"/>
	
		<rect x="34.5" y="37.8" transform="matrix(0.9968 8.005565e-002 -8.005565e-002 0.9968 3.3884 -2.7147)" fill="#010101" width="2" height="6.2"/>
	<rect x="41.8" y="30.3" fill="#010101" width="4" height="2"/>
	<rect x="18" y="43.9" transform="matrix(0.6508 0.7593 -0.7593 0.6508 41.3545 -0.1129)" fill="#010101" width="5.5" height="2"/>
</g>
</svg>
