<?xml version="1.0" encoding="utf-8"?>
<!-- Generator: Adobe Illustrator 16.0.0, SVG Export Plug-In . SVG Version: 6.00 Build 0)  -->
<!DOCTYPE svg PUBLIC "-//W3C//DTD SVG 1.1//EN" "http://www.w3.org/Graphics/SVG/1.1/DTD/svg11.dtd">
<svg version="1.1" id="Layer_1" xmlns="http://www.w3.org/2000/svg" xmlns:xlink="http://www.w3.org/1999/xlink" x="0px" y="0px"
	 width="48px" height="48px" viewBox="0 0 48 48" enable-background="new 0 0 48 48" xml:space="preserve">
<g>
	<g>
		<path fill="none" stroke="#000000" stroke-width="2" stroke-miterlimit="10" d="M43.816,32.053H4.183
			C2.425,32.053,1,30.627,1,28.87v-8.242c0-1.758,1.425-3.183,3.183-3.183s3.183,1.425,3.183,3.183v5.059h33.268v-5.059
			c0-1.758,1.425-3.183,3.183-3.183c1.759,0,3.184,1.425,3.184,3.183v8.242C47,30.627,45.575,32.053,43.816,32.053z"/>
	</g>
	<path fill="none" stroke="#000000" stroke-width="2" stroke-miterlimit="10" d="M40.652,20.382v-4.038
		c0-2.918-2.388-5.305-5.306-5.305H12.654c-2.918,0-5.306,2.387-5.306,5.305v4.038"/>
	<g>
		
			<line fill="none" stroke="#000000" stroke-width="2" stroke-linecap="round" stroke-linejoin="round" stroke-miterlimit="10" x1="7.113" y1="32.765" x2="7.113" y2="36.961"/>
		
			<line fill="none" stroke="#000000" stroke-width="2" stroke-linecap="round" stroke-linejoin="round" stroke-miterlimit="10" x1="40.887" y1="32.765" x2="40.887" y2="36.961"/>
	</g>
</g>
</svg>
