<?xml version="1.0" encoding="utf-8"?>
<!-- Generator: Adobe Illustrator 16.0.0, SVG Export Plug-In . SVG Version: 6.00 Build 0)  -->
<!DOCTYPE svg PUBLIC "-//W3C//DTD SVG 1.1//EN" "http://www.w3.org/Graphics/SVG/1.1/DTD/svg11.dtd">
<svg version="1.1" id="Layer_1" xmlns="http://www.w3.org/2000/svg" xmlns:xlink="http://www.w3.org/1999/xlink" x="0px" y="0px"
	 width="48px" height="48px" viewBox="0 0 48 48" enable-background="new 0 0 48 48" xml:space="preserve">
<g>
	<path d="M39.066,48H8.934c-0.552,0-1-0.447-1-1V1c0-0.552,0.448-1,1-1h30.132c0.553,0,1,0.448,1,1v46
		C40.066,47.553,39.619,48,39.066,48z M9.934,46h28.132V2H9.934V46z"/>
	<g>
		<path d="M24,19.251c-4.066,0-7.375-3.336-7.375-7.438S19.934,4.375,24,4.375s7.375,3.336,7.375,7.438S28.066,19.251,24,19.251z
			 M24,6.375c-2.964,0-5.375,2.439-5.375,5.438s2.411,5.438,5.375,5.438s5.375-2.439,5.375-5.438S26.964,6.375,24,6.375z"/>
		<path d="M24,43.625c-5.824,0-10.563-4.78-10.563-10.656S18.176,22.313,24,22.313s10.563,4.78,10.563,10.656
			S29.824,43.625,24,43.625z M24,24.313c-4.722,0-8.563,3.883-8.563,8.656c0,4.773,3.841,8.656,8.563,8.656s8.563-3.883,8.563-8.656
			C32.563,28.196,28.722,24.313,24,24.313z"/>
	</g>
</g>
</svg>
