<?xml version="1.0" encoding="utf-8"?>
<!-- Generator: Adobe Illustrator 16.0.0, SVG Export Plug-In . SVG Version: 6.00 Build 0)  -->
<!DOCTYPE svg PUBLIC "-//W3C//DTD SVG 1.1//EN" "http://www.w3.org/Graphics/SVG/1.1/DTD/svg11.dtd">
<svg version="1.1" id="Layer_1" xmlns="http://www.w3.org/2000/svg" xmlns:xlink="http://www.w3.org/1999/xlink" x="0px" y="0px"
	 width="48px" height="48px" viewBox="0 0 48 48" enable-background="new 0 0 48 48" xml:space="preserve">
<g>
	<path d="M27.504,48c-0.178,0-0.355-0.048-0.514-0.143L6.61,35.645c-0.301-0.181-0.486-0.506-0.486-0.857V13.213
		c0-0.352,0.185-0.677,0.486-0.858L26.99,0.142c0.311-0.185,0.693-0.189,1.007-0.012c0.313,0.178,0.507,0.51,0.507,0.87v46
		c0,0.36-0.193,0.692-0.507,0.87C27.844,47.957,27.674,48,27.504,48z M8.124,34.221l18.38,11.015V2.765L8.124,13.779V34.221z"/>
	<path d="M28.037,32.736c-0.402,0-0.782-0.245-0.935-0.644c-0.196-0.516,0.062-1.094,0.578-1.291c2.806-1.071,4.69-3.805,4.69-6.803
		c0-2.997-1.885-5.731-4.69-6.803c-0.517-0.197-0.774-0.775-0.578-1.291c0.198-0.516,0.779-0.772,1.291-0.577
		c3.575,1.366,5.978,4.851,5.978,8.671c0,3.821-2.402,7.307-5.978,8.672C28.276,32.716,28.156,32.736,28.037,32.736z"/>
	<path d="M32.289,36.736c-0.402,0-0.781-0.244-0.934-0.643c-0.197-0.516,0.061-1.094,0.576-1.291
		c4.454-1.705,7.447-6.046,7.447-10.804s-2.993-9.099-7.447-10.803c-0.516-0.197-0.773-0.775-0.576-1.292
		c0.198-0.516,0.775-0.772,1.291-0.577c5.223,1.998,8.732,7.09,8.732,12.671c0,5.58-3.51,10.673-8.732,12.671
		C32.529,36.715,32.408,36.736,32.289,36.736z"/>
	<path d="M36.248,40.293c-0.402,0-0.781-0.244-0.934-0.643c-0.197-0.517,0.061-1.094,0.576-1.291
		c5.921-2.265,9.898-8.035,9.898-14.36c0-6.324-3.978-12.095-9.898-14.359c-0.516-0.197-0.773-0.775-0.576-1.292
		c0.197-0.515,0.774-0.773,1.291-0.577c6.689,2.559,11.184,9.08,11.184,16.227c0,7.148-4.494,13.67-11.184,16.228
		C36.487,40.271,36.367,40.293,36.248,40.293z"/>
	<path d="M7.132,35.777H1.211c-0.552,0-1-0.447-1-1V13.195c0-0.552,0.448-1,1-1h5.921c0.552,0,1,0.448,1,1s-0.448,1-1,1H2.211
		v19.583h4.921c0.552,0,1,0.447,1,1S7.684,35.777,7.132,35.777z"/>
</g>
</svg>
