<?xml version="1.0" encoding="utf-8"?>
<!-- Generator: Adobe Illustrator 18.0.0, SVG Export Plug-In . SVG Version: 6.00 Build 0)  -->
<!DOCTYPE svg PUBLIC "-//W3C//DTD SVG 1.1//EN" "http://www.w3.org/Graphics/SVG/1.1/DTD/svg11.dtd">
<svg version="1.1" id="Layer_1" xmlns="http://www.w3.org/2000/svg" xmlns:xlink="http://www.w3.org/1999/xlink" x="0px" y="0px"
	 viewBox="0 0 48 48" enable-background="new 0 0 48 48" xml:space="preserve">
<g>
	<g>
		<path fill="#010101" d="M31.6,48H16.4c-1.7,0-3-1.3-3-3V13.1c0-1.7,1.3-3,3-3h15.3c1.7,0,3,1.3,3,3V45C34.7,46.7,33.3,48,31.6,48z
			 M16.4,12.1c-0.6,0-1,0.4-1,1V45c0,0.6,0.4,1,1,1h15.2c0.6,0,1.1-0.4,1.1-1V13.1c0-0.6-0.4-1-1-1H16.4z"/>
	</g>
	<path fill="#010101" d="M31,12.1H16.3v-7H31V12.1z M18.3,10.1H29v-3H18.3V10.1z"/>
	<path fill="#010101" d="M31.2,7.1h-15l7.5-7.5L31.2,7.1z M21,5.1h5.4l-2.7-2.7L21,5.1z"/>
	<path fill="#010101" d="M30.4,9.7l-0.7-1.9c0.6-0.2,2.3-1.2,2.8-2.4c0.2-0.5,0.2-1-0.1-1.6c-0.4-0.8-0.9-1.3-1.6-1.5
		c-1.7-0.5-4,0.7-4.7,1.2L24.9,2c0.1-0.1,3.5-2.3,6.4-1.5c1.3,0.4,2.3,1.2,2.9,2.6c0.5,1.1,0.5,2.2,0.1,3.2
		C33.4,8.5,30.7,9.6,30.4,9.7z"/>
</g>
</svg>
