<?xml version="1.0" encoding="utf-8"?>
<!-- Generator: Adobe Illustrator 16.0.0, SVG Export Plug-In . SVG Version: 6.00 Build 0)  -->
<!DOCTYPE svg PUBLIC "-//W3C//DTD SVG 1.1//EN" "http://www.w3.org/Graphics/SVG/1.1/DTD/svg11.dtd">
<svg version="1.1" id="Layer_1" xmlns="http://www.w3.org/2000/svg" xmlns:xlink="http://www.w3.org/1999/xlink" x="0px" y="0px"
	 width="48px" height="48px" viewBox="0 0 48 48" enable-background="new 0 0 48 48" xml:space="preserve">
<g>
	<path d="M44.303,48H2.025c-0.552,0-1-0.447-1-1v-6.025c0-0.553,0.448-1,1-1H9.01v-5.027c0-0.553,0.448-1,1-1h7.573v-5.026
		c0-0.553,0.448-1,1-1h7.571v-5.026c0-0.552,0.447-1,1-1h7.574v-5.028c0-0.552,0.447-1,1-1h8.574c0.553,0,1,0.448,1,1V47
		C45.303,47.553,44.855,48,44.303,48z M3.025,46h40.278V17.867h-6.574v5.028c0,0.552-0.447,1-1,1h-7.574v5.026c0,0.553-0.447,1-1,1
		h-7.571v5.026c0,0.553-0.448,1-1,1H11.01v5.027c0,0.553-0.448,1-1,1H3.025V46z"/>
	<path d="M29.436,23.522c-0.553,0-1-0.448-1-1V7.312c0-0.552,0.447-1,1-1s1,0.448,1,1v15.21
		C30.436,23.074,29.988,23.522,29.436,23.522z"/>
	<path d="M21.072,29.921c-0.552,0-1-0.447-1-1V13.487c0-0.552,0.448-1,1-1s1,0.448,1,1v15.434
		C22.072,29.474,21.624,29.921,21.072,29.921z"/>
	<path d="M12.709,35.947c-0.552,0-1-0.447-1-1V19.661c0-0.552,0.448-1,1-1s1,0.448,1,1v15.286
		C13.709,35.5,13.261,35.947,12.709,35.947z"/>
	<path d="M4.346,41.975c-0.552,0-1-0.447-1-1V25.834c0-0.553,0.448-1,1-1s1,0.447,1,1v15.141
		C5.346,41.527,4.898,41.975,4.346,41.975z"/>
	<path d="M37.799,17.867c-0.553,0-1-0.448-1-1V1c0-0.552,0.447-1,1-1H47c0.553,0,1,0.448,1,1s-0.447,1-1,1h-8.201v14.867
		C38.799,17.419,38.352,17.867,37.799,17.867z"/>
	<path d="M1.001,29.48c-0.302,0-0.601-0.137-0.798-0.396c-0.333-0.44-0.248-1.067,0.192-1.401l36.229-27.48
		c0.44-0.334,1.066-0.247,1.401,0.192c0.334,0.44,0.247,1.067-0.192,1.401L1.604,29.277C1.424,29.414,1.211,29.48,1.001,29.48z"/>
</g>
</svg>
