<?xml version="1.0" encoding="utf-8"?>
<!-- Generator: Adobe Illustrator 18.0.0, SVG Export Plug-In . SVG Version: 6.00 Build 0)  -->
<!DOCTYPE svg PUBLIC "-//W3C//DTD SVG 1.1//EN" "http://www.w3.org/Graphics/SVG/1.1/DTD/svg11.dtd">
<svg version="1.1" id="Layer_1" xmlns="http://www.w3.org/2000/svg" xmlns:xlink="http://www.w3.org/1999/xlink" x="0px" y="0px"
	 viewBox="0 0 48 48" enable-background="new 0 0 48 48" xml:space="preserve">
<g>
	<path d="M24,47.1C11.3,47.1,0.9,36.7,0.9,24S11.3,0.9,24,0.9S47.1,11.3,47.1,24S36.7,47.1,24,47.1z M24,2.9
		C12.4,2.9,2.9,12.4,2.9,24S12.4,45.1,24,45.1S45.1,35.6,45.1,24S35.6,2.9,24,2.9z"/>
	<path d="M24,47.1C16.5,47.1,10.7,37,10.7,24S16.5,0.9,24,0.9S37.3,11,37.3,24S31.5,47.1,24,47.1z M24,2.9
		c-6.2,0-11.3,9.5-11.3,21.1S17.8,45.1,24,45.1c6.2,0,11.3-9.5,11.3-21.1S30.2,2.9,24,2.9z"/>
	<rect x="23" y="1" width="2" height="46"/>
	<rect x="4.6" y="34.3" width="38.8" height="2"/>
	<rect x="1" y="23" width="46" height="2"/>
	<rect x="4.6" y="11.7" width="38.8" height="2"/>
</g>
</svg>
