<?xml version="1.0" encoding="utf-8"?>
<!-- Generator: Adobe Illustrator 16.0.0, SVG Export Plug-In . SVG Version: 6.00 Build 0)  -->
<!DOCTYPE svg PUBLIC "-//W3C//DTD SVG 1.1//EN" "http://www.w3.org/Graphics/SVG/1.1/DTD/svg11.dtd">
<svg version="1.1" id="Layer_1" xmlns="http://www.w3.org/2000/svg" xmlns:xlink="http://www.w3.org/1999/xlink" x="0px" y="0px"
	 width="48px" height="48px" viewBox="0 0 48 48" enable-background="new 0 0 48 48" xml:space="preserve">
<g>
	<path d="M38.215,46.874c-0.185,0-0.37-0.051-0.533-0.154L24,38.098L10.318,46.72c-0.345,0.22-0.79,0.203-1.121-0.037
		c-0.331-0.24-0.482-0.658-0.381-1.055l3.973-15.675L0.36,19.604c-0.314-0.262-0.438-0.688-0.311-1.078s0.477-0.662,0.885-0.689
		l16.136-1.064l6.001-15.018c0.152-0.38,0.52-0.629,0.929-0.629l0,0c0.409,0,0.776,0.249,0.929,0.629l6,15.018l16.137,1.064
		c0.408,0.027,0.759,0.3,0.886,0.689c0.126,0.389,0.003,0.816-0.312,1.078l-12.428,10.35l3.925,15.489
		c0.063,0.131,0.098,0.277,0.098,0.432c0,0.553-0.447,1-1,1C38.23,46.874,38.223,46.875,38.215,46.874z M24,35.916
		c0.185,0,0.37,0.052,0.533,0.154l12.098,7.623l-3.513-13.859c-0.094-0.374,0.034-0.769,0.33-1.015l10.988-9.151l-14.268-0.941
		c-0.385-0.025-0.721-0.27-0.863-0.627L24,4.821L18.694,18.1c-0.143,0.357-0.479,0.602-0.863,0.627L3.563,19.668l10.99,9.151
		c0.296,0.246,0.424,0.641,0.329,1.015L11.37,43.693l12.097-7.623C23.63,35.968,23.815,35.916,24,35.916z"/>
</g>
</svg>
