<?xml version="1.0" encoding="utf-8"?>
<!-- Generator: Adobe Illustrator 16.0.0, SVG Export Plug-In . SVG Version: 6.00 Build 0)  -->
<!DOCTYPE svg PUBLIC "-//W3C//DTD SVG 1.1//EN" "http://www.w3.org/Graphics/SVG/1.1/DTD/svg11.dtd">
<svg version="1.1" id="Layer_1" xmlns="http://www.w3.org/2000/svg" xmlns:xlink="http://www.w3.org/1999/xlink" x="0px" y="0px"
	 width="48px" height="48px" viewBox="0 0 48 48" enable-background="new 0 0 48 48" xml:space="preserve">
<g>
	<path d="M24,48c-5.975,0-10.655-10.542-10.655-24S18.025,0,24,0s10.654,10.542,10.654,24S29.975,48,24,48z M24,2
		c-4.18,0-8.655,8.84-8.655,22c0,13.16,4.475,22,8.655,22s8.654-8.84,8.654-22C32.654,10.84,28.18,2,24,2z"/>
	<path d="M37.282,39.22c-5.232,0-12.017-2.184-18.611-5.991c-5.433-3.137-10.038-6.987-12.966-10.842
		C2.595,18.293,1.711,14.604,3.215,12c1.216-2.107,3.811-3.22,7.501-3.22c5.233,0,12.017,2.184,18.611,5.991
		C40.982,21.5,47.771,30.824,44.784,36C43.567,38.106,40.973,39.22,37.282,39.22z M10.717,10.779c-2.894,0-4.942,0.789-5.769,2.22
		c-1.06,1.835-0.204,4.816,2.35,8.177c2.771,3.648,7.166,7.313,12.374,10.319c6.207,3.584,12.791,5.724,17.611,5.724
		c2.894,0,4.942-0.788,5.77-2.22c2.09-3.621-3.328-11.917-14.724-18.497C22.121,12.919,15.537,10.779,10.717,10.779z"/>
	<path d="M10.716,39.22c-3.691,0-6.285-1.114-7.501-3.221c-1.504-2.604-0.62-6.293,2.49-10.387
		c2.929-3.855,7.534-7.706,12.966-10.842c6.596-3.808,13.379-5.991,18.611-5.991c3.69,0,6.285,1.113,7.502,3.22
		c2.986,5.175-3.802,14.5-15.456,21.229C22.732,37.036,15.949,39.22,10.716,39.22z M37.282,10.779c-4.82,0-11.403,2.14-17.611,5.724
		c-5.208,3.006-9.602,6.671-12.374,10.32c-2.554,3.361-3.41,6.342-2.35,8.177c0.827,1.432,2.875,2.221,5.769,2.221
		c4.82,0,11.404-2.14,17.612-5.724c11.396-6.58,16.813-14.876,14.724-18.497C42.225,11.567,40.176,10.779,37.282,10.779z"/>
</g>
</svg>
