<?xml version="1.0" encoding="utf-8"?>
<!-- Generator: Adobe Illustrator 18.0.0, SVG Export Plug-In . SVG Version: 6.00 Build 0)  -->
<!DOCTYPE svg PUBLIC "-//W3C//DTD SVG 1.1//EN" "http://www.w3.org/Graphics/SVG/1.1/DTD/svg11.dtd">
<svg version="1.1" id="Layer_1" xmlns="http://www.w3.org/2000/svg" xmlns:xlink="http://www.w3.org/1999/xlink" x="0px" y="0px"
	 viewBox="0 0 48 48" enable-background="new 0 0 48 48" xml:space="preserve">
<g>
	<path fill="#010101" d="M5.1,37.7c-1.6,0-2.8-0.5-3.7-1.3c-1.9-1.9-1.8-5.6,0.5-10.3c2.1-4.4,5.8-9.4,10.3-13.9
		C19.6,4.8,27.6,0,32.7,0c1.6,0,2.8,0.5,3.7,1.3c4.4,4.4-2.3,15.8-10.8,24.3C18.2,33,10.2,37.7,5.1,37.7z M32.7,2
		c-4.5,0-12.2,4.7-19.1,11.6C9.2,18,5.7,22.7,3.7,26.9c-1.8,3.8-2.1,6.8-0.9,8c0.5,0.5,1.3,0.8,2.3,0.8c4.5,0,12.2-4.7,19.1-11.6
		C33.7,14.7,37.5,5.3,35,2.7C34.5,2.2,33.8,2,32.7,2z"/>
	<path fill="#010101" d="M15.7,26.5c-1.3,0-2.4-0.4-3.2-1.2c-1.2-1.2-1.5-3-1-5c0.5-1.9,1.7-3.8,3.3-5.5c2.2-2.2,5-3.6,7.3-3.6
		c1.3,0,2.4,0.4,3.2,1.2c1.2,1.2,1.5,3,1,5c-0.5,1.9-1.7,3.8-3.3,5.5C20.8,25.2,18.1,26.5,15.7,26.5z M22.1,13.2
		c-1.8,0-4.1,1.1-5.9,3c-1.4,1.4-2.4,3-2.8,4.6c-0.2,0.8-0.4,2.2,0.5,3.1c0.4,0.4,1,0.6,1.8,0.6c1.8,0,4.1-1.1,5.9-3
		c1.4-1.4,2.4-3,2.8-4.6c0.2-0.8,0.4-2.2-0.5-3.1C23.5,13.4,22.9,13.2,22.1,13.2z"/>
	<path fill="#010101" d="M19.8,25.1c-0.3,0-0.5-0.1-0.7-0.3l-6.2-6.3c-0.4-0.4-0.4-1,0-1.4c0.4-0.4,1-0.4,1.4,0l6.2,6.3
		c0.4,0.4,0.4,1,0,1.4C20.3,25,20.1,25.1,19.8,25.1z"/>
	<g>
		<path fill="#010101" d="M22.3,38.4c-0.3,0-0.5-0.1-0.7-0.3c-0.4-0.4-0.4-1,0-1.4l15.1-15.1c0.4-0.4,1-0.4,1.4,0s0.4,1,0,1.4
			L23,38.1C22.8,38.3,22.6,38.4,22.3,38.4z"/>
		<path fill="#010101" d="M16.4,48c-0.7,0-1.3-0.3-1.7-0.8l-2.1-2.1c-0.5-0.5-0.8-1.2-0.7-1.8c0-0.6,0.3-1.2,0.8-1.6l4.8-4.8
			c0.5-0.5,1-0.7,1.7-0.7h2.2c1.3,0,2.4,1.1,2.4,2.4v2.2c0,0.6-0.3,1.2-0.6,1.6c0,0.1-0.1,0.1-0.1,0.2l-4.9,4.9
			C17.6,47.8,17,48,16.4,48z M19.1,38.1c-0.2,0-0.2,0-0.3,0.1l-4.9,4.9c-0.1,0.1-0.2,0.2-0.2,0.2c0,0.1,0.1,0.2,0.2,0.3l2.2,2.2
			c0.3,0.3,0.4,0.2,0.6,0l4.8-4.8c0.1-0.2,0.2-0.3,0.2-0.4l0-2.2c0-0.2-0.2-0.4-0.4-0.4H19.1z"/>
		<path fill="#010101" d="M40.6,23.6h-2.2c-1.3,0-2.4-1.1-2.4-2.4V19c0-0.7,0.2-1.2,0.7-1.7l4.9-4.9c1-1,2.6-0.9,3.5,0.1l2.1,2.1
			c0.5,0.5,0.8,1.2,0.7,1.8c0,0.6-0.3,1.2-0.8,1.6l-4.8,4.8C41.8,23.4,41.3,23.6,40.6,23.6z M43.3,13.6c-0.1,0-0.2,0.1-0.3,0.2
			l-4.9,4.9C38,18.8,38,18.8,38,19v2.2c0,0.2,0.2,0.4,0.4,0.4h2.2c0.2,0,0.2,0,0.3-0.1l4.9-4.9c0.1-0.1,0.2-0.2,0.2-0.2
			c0-0.1-0.1-0.2-0.2-0.3l-2.2-2.2C43.5,13.7,43.4,13.6,43.3,13.6z"/>
	</g>
</g>
</svg>
