<?xml version="1.0" encoding="utf-8"?>
<!-- Generator: Adobe Illustrator 16.0.0, SVG Export Plug-In . SVG Version: 6.00 Build 0)  -->
<!DOCTYPE svg PUBLIC "-//W3C//DTD SVG 1.1//EN" "http://www.w3.org/Graphics/SVG/1.1/DTD/svg11.dtd">
<svg version="1.1" id="Layer_1" xmlns="http://www.w3.org/2000/svg" xmlns:xlink="http://www.w3.org/1999/xlink" x="0px" y="0px"
	 width="48px" height="48px" viewBox="0 0 48 48" enable-background="new 0 0 48 48" xml:space="preserve">
<g>
	<path d="M21.199,36.327H6.963l-7.118-12.326l7.118-12.328h14.236l7.115,12.328L21.199,36.327z M8.117,34.327h11.926l5.961-10.326
		l-5.961-10.328H8.117L2.155,24.001L8.117,34.327z"/>
	<path d="M41.039,25.001H26.804l-7.118-12.328l7.118-12.328h14.235l7.115,12.328L41.039,25.001z M27.958,23.001h11.927l5.961-10.328
		L39.885,2.345H27.958l-5.962,10.328L27.958,23.001z"/>
	<path d="M41.039,47.654H26.804l-7.118-12.327l7.118-12.326h14.235l7.115,12.326L41.039,47.654z M27.958,45.654h11.927l5.961-10.327
		l-5.961-10.326H27.958l-5.962,10.326L27.958,45.654z"/>
</g>
</svg>
