<?xml version="1.0" encoding="utf-8"?>
<!-- Generator: Adobe Illustrator 16.0.0, SVG Export Plug-In . SVG Version: 6.00 Build 0)  -->
<!DOCTYPE svg PUBLIC "-//W3C//DTD SVG 1.1//EN" "http://www.w3.org/Graphics/SVG/1.1/DTD/svg11.dtd">
<svg version="1.1" id="Layer_1" xmlns="http://www.w3.org/2000/svg" xmlns:xlink="http://www.w3.org/1999/xlink" x="0px" y="0px"
	 width="48px" height="48px" viewBox="0 0 48 48" enable-background="new 0 0 48 48" xml:space="preserve">
<g>
	<path d="M36.598,48c-0.305,0-0.602-0.006-0.888-0.014c-3.009-0.088-5.87-1.532-8.638-2.929c-1.058-0.534-2.056-1.038-3.026-1.446
		c-1.202-0.507-2.582-0.662-4.042-0.827c-0.729-0.082-1.482-0.167-2.212-0.3c-2.75-0.501-4.798-1.147-6.846-2.161
		C4.022,36.897,2.479,28.02,4.021,20.742c0.115-0.541,0.644-0.884,1.186-0.771c0.54,0.115,0.885,0.646,0.771,1.186
		C4.596,27.679,5.87,35.58,11.833,38.53c1.872,0.927,3.762,1.521,6.318,1.987c0.663,0.12,1.35,0.197,2.077,0.279
		c1.538,0.174,3.128,0.353,4.595,0.971c1.034,0.436,2.063,0.955,3.15,1.504c2.572,1.299,5.232,2.641,7.797,2.715
		c1.435,0.043,3.481,0.019,4.69-0.68c1.049-0.605,2.226-1.332,2.921-2.302c1.578-2.206,1.99-5.058,1.262-8.717
		c-0.794-3.984-1.59-7.079-2.581-10.033c-0.313-0.932-0.502-1.863-0.685-2.764c-0.077-0.379-0.155-0.761-0.243-1.146
		c-0.221-0.974-0.216-1.933-0.211-2.859c0.004-0.817,0.008-1.588-0.143-2.312c-0.473-2.269-1.439-5.423-3.361-7.557
		c-0.646-0.72-1.812-1.382-3.281-1.864c-1.263-0.414-4.86-1.071-7.327-0.332c-0.532,0.158-1.087-0.143-1.245-0.671
		s0.143-1.086,0.671-1.245c2.946-0.881,7.016-0.147,8.524,0.347c1.271,0.417,3.023,1.177,4.146,2.427
		c2.22,2.465,3.31,5.977,3.832,8.488c0.193,0.929,0.188,1.844,0.185,2.728c-0.005,0.852-0.009,1.656,0.162,2.407
		c0.091,0.399,0.171,0.796,0.252,1.19c0.179,0.88,0.348,1.711,0.621,2.526c1.02,3.037,1.835,6.207,2.646,10.278
		c0.844,4.23,0.321,7.591-1.597,10.271c-0.928,1.294-2.316,2.159-3.546,2.869C40.085,47.834,38.234,48,36.598,48z"/>
	<path d="M13.668,31.08c-0.349,0-0.681-0.183-0.863-0.495c-0.326-0.558-0.695-1.121-1.07-1.694c-0.74-1.132-1.505-2.303-2.054-3.562
		c-0.699-1.601-0.926-3.377-0.696-5.069c-0.352,0.187-0.707,0.338-1.039,0.48c-0.178,0.076-0.355,0.151-0.529,0.231
		c-1.618,0.743-3.524,1.618-5.245,1.905c-0.311,0.051-0.63-0.046-0.858-0.266s-0.338-0.534-0.299-0.847
		c0.063-0.492,0.316-0.939,0.54-1.333c0.085-0.15,0.17-0.295,0.228-0.43c0.079-0.183,0.154-0.371,0.23-0.559
		c0.137-0.339,0.275-0.682,0.432-1.014c0.582-1.243,1.242-2.652,2.388-3.952c0.624-0.708,1.392-1.212,2.135-1.7
		c0.247-0.162,0.491-0.322,0.723-0.487c1.061-0.756,1.994-1.226,3.365-1.229c0,0,0.001,0,0.002,0c0.551,0,0.999,0.446,1,0.998
		c0.001,0.552-0.445,1.001-0.998,1.002c-0.854,0.002-1.414,0.291-2.21,0.858c-0.253,0.18-0.518,0.354-0.785,0.529
		c-0.661,0.434-1.286,0.844-1.732,1.351c-0.888,1.007-1.421,2.077-2.078,3.479c-0.141,0.299-0.265,0.607-0.387,0.912
		c-0.021,0.053-0.042,0.105-0.063,0.158c0.928-0.344,1.869-0.775,2.692-1.153c0.275-0.126,0.469-0.209,0.664-0.292
		c0.553-0.236,1.075-0.459,1.472-0.785c0.178-0.146,0.35-0.307,0.522-0.469c0.379-0.354,0.809-0.754,1.326-1.047
		c0.394-0.225,0.888-0.154,1.206,0.169c0.317,0.323,0.378,0.819,0.148,1.208c-1.127,1.912-1.25,4.422-0.321,6.552
		c0.395,0.904,0.948,1.806,1.518,2.687c0.13-0.416,0.296-0.818,0.503-1.222c0.329-0.644,0.732-1.223,1.122-1.782
		c0.415-0.596,0.806-1.158,1.089-1.761c0.541-1.155,0.564-2.267,0.592-3.555c0.011-0.484,0.021-0.979,0.058-1.494
		c0.027-0.385,0.274-0.719,0.633-0.86c0.358-0.141,0.766-0.063,1.048,0.202c0.151,0.142,0.265,0.272,0.371,0.395
		c0.129,0.15,0.17,0.196,0.263,0.247c0.532,0.293,1.169,0.554,1.701,0.694c1.25,0.333,2.47-0.098,3.603-0.612
		c0.711-0.323,1.399-0.765,2.127-1.232c0.969-0.622,1.971-1.265,3.1-1.661c0.551-0.192,1.132-0.229,1.645-0.222
		c-0.198-0.295-0.497-0.672-0.94-1.126c-0.602-0.62-1.757-1.307-2.943-1.75c-1.013-0.378-2.243-0.57-3.657-0.57
		c-0.25,0-0.541-0.013-0.851-0.028c-0.726-0.035-1.824-0.087-2.281,0.143c-0.406,0.203-0.897,0.108-1.198-0.23
		c-0.301-0.34-0.335-0.839-0.084-1.217c0.361-0.542,0.959-0.729,1.396-0.865c0.115-0.036,0.229-0.067,0.322-0.111
		c0.469-0.221,0.908-0.583,1.373-0.965l0.321-0.262c0.878-0.706,1.68-1.468,2.452-2.332c0.688-0.771,1.229-1.558,1.601-2.315
		c-0.072,0.014-0.144,0.028-0.213,0.042c-0.171,0.033-0.332,0.064-0.473,0.098c-0.634,0.152-1.268,0.23-1.88,0.306
		c-0.726,0.09-1.412,0.175-2.044,0.371c-1.104,0.342-2.224,0.923-3.422,1.775c-1.255,0.892-2.135,2.258-2.77,4.302
		c-0.164,0.527-0.724,0.821-1.252,0.658c-0.527-0.164-0.822-0.725-0.658-1.252c0.772-2.483,1.891-4.18,3.521-5.338
		c1.374-0.977,2.678-1.649,3.988-2.055c0.802-0.25,1.61-0.349,2.391-0.446c0.583-0.072,1.134-0.14,1.657-0.265
		c0.164-0.04,0.355-0.078,0.558-0.117c0.365-0.072,1.222-0.239,1.384-0.434c0.281-0.339,0.756-0.458,1.162-0.287
		c0.405,0.172,0.655,0.584,0.608,1.022C28.729,3.24,27.38,5.147,26.29,6.371c-0.84,0.94-1.712,1.771-2.667,2.54
		c1.541,0.024,2.912,0.258,4.08,0.695c0.558,0.208,2.469,0.984,3.678,2.229c1.481,1.521,2.072,2.761,1.805,3.789
		c-0.11,0.423-0.482,0.726-0.919,0.747c-0.301,0.013-0.614,0.005-0.932-0.004c-0.541-0.017-1.053-0.033-1.432,0.098
		c-0.907,0.318-1.769,0.871-2.68,1.456c-0.757,0.486-1.539,0.988-2.383,1.371c-1.398,0.635-3.081,1.219-4.941,0.724
		c-0.5-0.132-1.051-0.337-1.574-0.582c-0.035,1.234-0.134,2.511-0.769,3.868c-0.355,0.757-0.814,1.417-1.258,2.054
		c-0.368,0.528-0.716,1.028-0.983,1.551c-0.485,0.949-0.667,1.835-0.647,3.159c0.007,0.454-0.293,0.855-0.731,0.978
		C13.848,31.068,13.757,31.08,13.668,31.08z"/>
	<path d="M15.946,15.288c-0.233,0-0.467-0.081-0.657-0.247C8.763,9.349,7.823,2.643,7.786,2.36c-0.071-0.548,0.315-1.05,0.862-1.121
		C9.191,1.164,9.697,1.553,9.769,2.1c0.013,0.095,0.921,6.276,6.835,11.435c0.417,0.363,0.459,0.995,0.096,1.411
		C16.502,15.172,16.225,15.288,15.946,15.288z"/>
	<path d="M35.115,23.944c-0.467,0-0.884-0.328-0.979-0.803l-0.351-1.744c0,0,0,0,0,0l0,0l0,0c-0.108-0.542,0.242-1.071,0.783-1.18
		c0.979-0.195,1.053,0.167,1.528,2.53c0.108,0.542-0.242,1.069-0.783,1.178C35.247,23.938,35.181,23.944,35.115,23.944z"/>
	<path d="M25.746,27.197c-0.306,0-0.607-0.14-0.804-0.403c0,0-0.904-1.218-1.004-1.352c-0.006-0.008-0.012-0.016-0.018-0.024
		c-0.324-0.444-0.229-1.07,0.215-1.396c0.54-0.396,0.829-0.376,1.375,0.24l0.027-0.02c0.039,0.053,0.071,0.109,0.098,0.166
		c0.242,0.291,0.535,0.684,0.913,1.193c0.329,0.443,0.237,1.07-0.206,1.399C26.162,27.133,25.953,27.197,25.746,27.197z"/>
	<path d="M19.246,34.614c-0.222,0-0.446-0.073-0.631-0.225l-1.313-1.07c-0.004-0.003-0.007-0.006-0.011-0.009
		c-0.426-0.35-0.491-0.98-0.141-1.407c0.425-0.52,0.709-0.57,1.389-0.111l0.022-0.026c0.053,0.043,0.1,0.091,0.142,0.142
		c0.306,0.223,0.685,0.532,1.176,0.932c0.428,0.35,0.492,0.979,0.143,1.407C19.823,34.488,19.536,34.614,19.246,34.614z"/>
	<path d="M25.233,38.583c-0.222,0-0.445-0.073-0.631-0.225c-0.49-0.399-0.87-0.709-1.148-0.963c-0.058-0.03-0.114-0.066-0.167-0.109
		l0.021-0.026c-0.589-0.573-0.596-0.862-0.173-1.383c0.347-0.43,0.978-0.492,1.407-0.147c0.004,0.003,0.009,0.007,0.013,0.011
		l1.311,1.067c0.428,0.349,0.492,0.979,0.144,1.407C25.813,38.457,25.524,38.583,25.233,38.583z"/>
	<path d="M32.903,42.07c-0.222,0-0.445-0.073-0.631-0.225l-1.319-1.075l0,0V40.77h-0.001c-0.427-0.35-0.493-0.98-0.145-1.408
		c0.425-0.52,0.706-0.573,1.386-0.115l0.022-0.027c0.054,0.044,0.103,0.093,0.145,0.146c0.306,0.222,0.686,0.531,1.176,0.931
		c0.428,0.349,0.492,0.979,0.144,1.407C33.481,41.944,33.194,42.07,32.903,42.07z"/>
	<path d="M30.964,33.537c-0.306,0-0.607-0.14-0.804-0.403c0,0-0.886-1.192-1-1.344c-0.01-0.012-0.019-0.024-0.027-0.037
		c-0.32-0.445-0.222-1.068,0.222-1.392c0.542-0.395,0.83-0.373,1.377,0.246l0.026-0.019c0.037,0.05,0.067,0.104,0.093,0.157
		c0.242,0.29,0.535,0.685,0.915,1.194c0.329,0.443,0.237,1.069-0.206,1.399C31.38,33.473,31.171,33.537,30.964,33.537z"/>
	<path d="M37.304,31.08c-0.467,0-0.885-0.328-0.979-0.804c0,0-0.309-1.546-0.345-1.723c-0.003-0.011-0.005-0.021-0.007-0.033
		c-0.103-0.54,0.251-1.064,0.791-1.169c0.659-0.127,0.905-0.005,1.141,0.806l0.033-0.006c0.013,0.064,0.019,0.129,0.018,0.192
		c0.098,0.379,0.198,0.882,0.33,1.54c0.108,0.542-0.243,1.068-0.784,1.177C37.435,31.074,37.368,31.08,37.304,31.08z"/>
	<path d="M38.664,38.989c-0.133-0.659-0.233-1.162-0.289-1.55c-0.024-0.058-0.044-0.118-0.058-0.182l0.033-0.008
		c-0.096-0.84,0.085-1.048,0.74-1.184c0.547-0.114,1.067,0.235,1.182,0.771c0.003,0.013,0.005,0.024,0.007,0.036
		c0.036,0.181,0.346,1.721,0.346,1.721L38.664,38.989z"/>
</g>
</svg>
