<?xml version="1.0" encoding="utf-8"?>
<!-- Generator: Adobe Illustrator 18.0.0, SVG Export Plug-In . SVG Version: 6.00 Build 0)  -->
<!DOCTYPE svg PUBLIC "-//W3C//DTD SVG 1.1//EN" "http://www.w3.org/Graphics/SVG/1.1/DTD/svg11.dtd">
<svg version="1.1" id="Layer_1" xmlns="http://www.w3.org/2000/svg" xmlns:xlink="http://www.w3.org/1999/xlink" x="0px" y="0px"
	 viewBox="0 0 48 48" enable-background="new 0 0 48 48" xml:space="preserve">
<g>
	<path fill="#010101" d="M18.7,31.5H4c-1.1,0-2-0.9-2-2v-11c0-1.1,0.9-2,2-2h14.7c1.1,0,2,0.9,2,2v10.9
		C20.7,30.5,19.8,31.5,18.7,31.5z M4,18.5v11h14.6c0,0,0.1-0.1,0.1-0.1V18.5H4z"/>
	<path fill="#010101" d="M15.7,18.5H6.9v-3.1c0-1.5,1.1-2.6,2.6-2.6h3.6c1.5,0,2.6,1.1,2.6,2.6V18.5z M8.9,16.5h4.8v-1.1
		c0-0.3-0.3-0.6-0.6-0.6H9.5c-0.3,0-0.6,0.3-0.6,0.6V16.5z"/>
	<rect x="1" y="32.2" fill="#010101" width="42.2" height="2"/>
	<path fill="#010101" d="M48,48H3.8v-5.6H48V48z M5.8,46H46v-1.6H5.8V46z"/>
	<rect x="1" y="37.3" transform="matrix(0.5855 0.8107 -0.8107 0.5855 32.8531 12.3506)" fill="#010101" width="6.7" height="2"/>
	<rect x="5.9" y="37.3" transform="matrix(0.5952 0.8036 -0.8036 0.5952 34.5414 8.0307)" fill="#010101" width="6.7" height="2"/>
	<rect x="10.9" y="37.3" transform="matrix(0.5855 0.8107 -0.8107 0.5855 36.9552 4.3232)" fill="#010101" width="6.7" height="2"/>
	
		<rect x="15.8" y="37.3" transform="matrix(0.5952 0.8036 -0.8036 0.5952 38.5491 7.492030e-002)" fill="#010101" width="6.7" height="2"/>
	
		<rect x="20.8" y="37.3" transform="matrix(0.5854 0.8107 -0.8107 0.5854 41.0637 -3.7004)" fill="#010101" width="6.7" height="2"/>
	<rect x="25.7" y="37.3" transform="matrix(0.5952 0.8036 -0.8036 0.5952 42.5564 -7.88)" fill="#010101" width="6.7" height="2"/>
	
		<rect x="30.7" y="37.3" transform="matrix(0.5855 0.8107 -0.8107 0.5855 45.1622 -11.728)" fill="#010101" width="6.7" height="2"/>
	
		<rect x="35.6" y="37.3" transform="matrix(0.5952 0.8036 -0.8036 0.5952 46.5641 -15.8358)" fill="#010101" width="6.7" height="2"/>
	
		<rect x="40.6" y="37.3" transform="matrix(0.5855 0.8107 -0.8107 0.5855 49.2659 -19.754)" fill="#010101" width="6.7" height="2"/>
	<rect x="2.9" y="23.3" fill="#010101" width="7.7" height="2"/>
	<rect x="12" y="23.3" fill="#010101" width="7.7" height="2"/>
	<rect x="10.3" y="18" fill="#010101" width="2" height="8.6"/>
	<path fill="#010101" d="M37.4,30H26.8c-2.3,0-4.1-1.8-4.1-4.1v-16c0-2.3,1.8-4.1,4.1-4.1h10.6c2.3,0,4.1,1.8,4.1,4.1V26
		C41.5,28.2,39.6,30,37.4,30z M26.8,7.8c-1.1,0-2.1,1-2.1,2.1v16c0,1.1,1,2.1,2.1,2.1h10.6c1.1,0,2.1-0.9,2.1-2V9.9
		c0-1.1-1-2.1-2.1-2.1H26.8z"/>
	<path fill="#010101" d="M35.8,7.8h-7.4V0h7.4V7.8z M30.4,5.8h3.4V2h-3.4V5.8z"/>
	<rect x="27.3" fill="#010101" width="9.5" height="2"/>
	<rect x="27.5" y="29.8" fill="#010101" width="2" height="1.8"/>
	<rect x="34.6" y="29.8" fill="#010101" width="2" height="1.8"/>
</g>
</svg>
