<?xml version="1.0" encoding="utf-8"?>
<!-- Generator: Adobe Illustrator 18.0.0, SVG Export Plug-In . SVG Version: 6.00 Build 0)  -->
<!DOCTYPE svg PUBLIC "-//W3C//DTD SVG 1.1//EN" "http://www.w3.org/Graphics/SVG/1.1/DTD/svg11.dtd">
<svg version="1.1" id="Layer_1" xmlns="http://www.w3.org/2000/svg" xmlns:xlink="http://www.w3.org/1999/xlink" x="0px" y="0px"
	 viewBox="0 0 48 48" enable-background="new 0 0 48 48" xml:space="preserve">
<g>
	<path fill="#010101" d="M47,32.4H17.7c-0.4,0-0.8-0.3-1-0.7L9.1,5.9H1v-2h8.8c0.4,0,0.8,0.3,1,0.7l7.7,25.8H47V32.4z"/>
	<path fill="#010101" d="M23.9,44.1c-3,0-5.4-2.4-5.4-5.4s2.4-5.4,5.4-5.4c3,0,5.4,2.4,5.4,5.4S26.9,44.1,23.9,44.1z M23.9,35.3
		c-1.9,0-3.4,1.5-3.4,3.4c0,1.9,1.5,3.4,3.4,3.4s3.4-1.5,3.4-3.4C27.3,36.8,25.8,35.3,23.9,35.3z"/>
	<path fill="#010101" d="M40.9,44.1c-3,0-5.4-2.4-5.4-5.4s2.4-5.4,5.4-5.4s5.4,2.4,5.4,5.4S43.9,44.1,40.9,44.1z M40.9,35.3
		c-1.9,0-3.4,1.5-3.4,3.4c0,1.9,1.5,3.4,3.4,3.4c1.9,0,3.4-1.5,3.4-3.4C44.3,36.8,42.8,35.3,40.9,35.3z"/>
	<path fill="#010101" d="M42.8,28.5H22.5c-2,0-3.5-1.5-3.5-3.5V12.3c0-2,1.5-3.5,3.5-3.5h20.3c2,0,3.5,1.5,3.5,3.5V25
		C46.3,27,44.8,28.5,42.8,28.5z M22.5,10.8c-0.8,0-1.5,0.7-1.5,1.5V25c0,0.8,0.7,1.5,1.5,1.5h20.3c0.8,0,1.5-0.7,1.5-1.5V12.3
		c0-0.8-0.7-1.5-1.5-1.5H22.5z"/>
	<path fill="#010101" d="M39.2,9.8h-2V7.1h-9v2.7h-2V6.1c0-0.6,0.4-1,1-1h11c0.6,0,1,0.4,1,1V9.8z"/>
	<rect x="23.9" y="12.7" fill="#010101" width="2" height="11.6"/>
	<rect x="39.2" y="12.7" fill="#010101" width="2" height="11.6"/>
</g>
</svg>
