<?xml version="1.0" encoding="utf-8"?>
<!-- Generator: Adobe Illustrator 18.0.0, SVG Export Plug-In . SVG Version: 6.00 Build 0)  -->
<!DOCTYPE svg PUBLIC "-//W3C//DTD SVG 1.1//EN" "http://www.w3.org/Graphics/SVG/1.1/DTD/svg11.dtd">
<svg version="1.1" id="Layer_1" xmlns="http://www.w3.org/2000/svg" xmlns:xlink="http://www.w3.org/1999/xlink" x="0px" y="0px"
	 viewBox="0 0 48 48" enable-background="new 0 0 48 48" xml:space="preserve">
<g>
	<path fill="#010101" d="M34.3,41.8H13.8c-1.2,0-2.3-0.5-3.1-1.3c-0.7-0.8-1.1-1.8-1-2.9l1.5-25.8c0-1.8,1.7-3.2,3.9-3.2h17.6
		c2.1,0,3.9,1.4,4,3.2l1.6,25.8c0.1,1.1-0.3,2.1-1,2.9C36.5,41.4,35.5,41.8,34.3,41.8z M15.1,10.6c-1,0-1.9,0.6-1.9,1.3l-1.5,25.9
		c0,0.5,0.1,1,0.5,1.4c0.4,0.4,1,0.7,1.6,0.7h20.5c0.6,0,1.1-0.2,1.5-0.6c0.4-0.4,0.5-0.9,0.5-1.4L34.7,12c-0.1-0.7-1-1.4-2-1.4
		H15.1z"/>
	<path fill="#010101" d="M33.2,35.7H14.8l0.9-13.3h16.6L33.2,35.7z M17,33.7H31l-0.6-9.3H17.6L17,33.7z"/>
	<rect x="16.7" y="14.1" fill="#010101" width="14.6" height="2"/>
	<polygon fill="#010101" points="16.8,46 13.5,46 13.6,40.8 15.6,40.8 15.5,44 16.8,44 	"/>
	<polygon fill="#010101" points="31.1,9.7 30.6,2 17.3,2 16.9,9.7 14.9,9.5 15.5,0 32.4,0 33.1,9.5 	"/>
	<path fill="#010101" d="M19.4,48c-2,0-3.6-1.3-3.6-3c0-1.6,1.6-2.9,3.6-2.9c2,0,3.6,1.3,3.6,2.9C23,46.7,21.4,48,19.4,48z
		 M19.4,44.1c-0.9,0-1.6,0.4-1.6,0.9c0,0.5,0.6,1,1.6,1s1.6-0.5,1.6-1C21,44.6,20.3,44.1,19.4,44.1z"/>
	<polygon fill="#010101" points="34.8,46 31.6,46 31.6,44 32.8,44 32.6,40.8 34.6,40.8 	"/>
	<path fill="#010101" d="M29.1,48c-2,0-3.7-1.3-3.7-3c-0.1-0.6,0.2-1.3,0.6-1.8c0.7-0.7,1.7-1.1,2.9-1.1c2,0,3.5,1.2,3.7,2.8
		c0.1,0.7-0.2,1.4-0.7,2C31.3,47.6,30.2,48,29.1,48z M28.9,44.1c-0.7,0-1.2,0.3-1.4,0.5c-0.1,0.1-0.2,0.2-0.1,0.3l0,0.1
		c0,0.5,0.8,1,1.7,1c0.6,0,1.1-0.2,1.3-0.5c0.2-0.2,0.2-0.4,0.2-0.4C30.6,44.6,29.8,44.1,28.9,44.1z"/>
</g>
</svg>
