<?xml version="1.0" encoding="utf-8"?>
<!-- Generator: Adobe Illustrator 18.0.0, SVG Export Plug-In . SVG Version: 6.00 Build 0)  -->
<!DOCTYPE svg PUBLIC "-//W3C//DTD SVG 1.1//EN" "http://www.w3.org/Graphics/SVG/1.1/DTD/svg11.dtd">
<svg version="1.1" id="Layer_1" xmlns="http://www.w3.org/2000/svg" xmlns:xlink="http://www.w3.org/1999/xlink" x="0px" y="0px"
	 viewBox="0 0 48 48" enable-background="new 0 0 48 48" xml:space="preserve">
<g>
	<path fill="#010101" d="M24,34.3c-5.7,0-10.3-4.6-10.3-10.3c0-5.7,4.6-10.3,10.3-10.3c5.7,0,10.3,4.6,10.3,10.3
		C34.3,29.7,29.7,34.3,24,34.3z M24,15.7c-4.6,0-8.3,3.7-8.3,8.3c0,4.6,3.7,8.3,8.3,8.3c4.6,0,8.3-3.7,8.3-8.3
		C32.3,19.4,28.6,15.7,24,15.7z"/>
	<g>
		<g>
			<rect x="23" fill="#010101" width="2" height="11.5"/>
			<rect x="23" y="36.5" fill="#010101" width="2" height="11.5"/>
		</g>
		<g>
			<rect x="36.5" y="23" fill="#010101" width="11.5" height="2"/>
			<rect y="23" fill="#010101" width="11.5" height="2"/>
		</g>
	</g>
	<g>
		<g>
			
				<rect x="5.3" y="10.1" transform="matrix(0.7071 0.7071 -0.7071 0.7071 11.1001 -4.5978)" fill="#010101" width="11.6" height="2"/>
			
				<rect x="31.1" y="35.9" transform="matrix(0.7071 0.7071 -0.7071 0.7071 36.8999 -15.2844)" fill="#010101" width="11.6" height="2"/>
		</g>
		<g>
			
				<rect x="35.9" y="5.3" transform="matrix(0.7071 0.7071 -0.7071 0.7071 18.6567 -22.841)" fill="#010101" width="2" height="11.6"/>
			
				<rect x="10.1" y="31.1" transform="matrix(0.7071 0.7071 -0.7071 0.7071 29.3433 2.9588)" fill="#010101" width="2" height="11.6"/>
		</g>
	</g>
</g>
</svg>
