<?xml version="1.0" encoding="utf-8"?>
<!-- Generator: Adobe Illustrator 18.0.0, SVG Export Plug-In . SVG Version: 6.00 Build 0)  -->
<!DOCTYPE svg PUBLIC "-//W3C//DTD SVG 1.1//EN" "http://www.w3.org/Graphics/SVG/1.1/DTD/svg11.dtd">
<svg version="1.1" id="Layer_1" xmlns="http://www.w3.org/2000/svg" xmlns:xlink="http://www.w3.org/1999/xlink" x="0px" y="0px"
	 viewBox="0 0 48 48" enable-background="new 0 0 48 48" xml:space="preserve">
<g>
	<path fill="#010101" d="M14,41.7H3.2l-3.3-27.6h17.5L14,41.7z M5,39.7h7.2l2.9-23.6H2.1L5,39.7z"/>
	<path fill="#010101" d="M15.1,24H3c-0.6,0-1-0.4-1-1s0.4-1,1-1h12.1c0.6,0,1,0.4,1,1S15.7,24,15.1,24z"/>
	<path fill="#010101" d="M42.6,41.7H24.7l-6.9-10.4h31L42.6,41.7z M25.7,39.7h15.7l3.8-6.4H21.5L25.7,39.7z"/>
	<polygon fill="#010101" points="9.9,23.4 8.1,22.6 15.7,5.9 22.5,9.3 21.7,11.1 16.7,8.7 	"/>
	<path fill="#010101" d="M32,33.4c-2.3,0-4.1-1.8-4.1-4.1s1.8-4.1,4.1-4.1s4.1,1.8,4.1,4.1S34.3,33.4,32,33.4z M32,27.2
		c-1.2,0-2.1,0.9-2.1,2.1s0.9,2.1,2.1,2.1s2.1-0.9,2.1-2.1S33.2,27.2,32,27.2z"/>
	<path fill="#010101" d="M33,26.2L31,26c0-0.4,0.9-9.2,6.1-12.5l1.1,1.7C33.8,18,33,26.1,33,26.2z"/>
</g>
</svg>
