<?xml version="1.0" encoding="utf-8"?>
<!-- Generator: Adobe Illustrator 18.0.0, SVG Export Plug-In . SVG Version: 6.00 Build 0)  -->
<!DOCTYPE svg PUBLIC "-//W3C//DTD SVG 1.1//EN" "http://www.w3.org/Graphics/SVG/1.1/DTD/svg11.dtd">
<svg version="1.1" id="Layer_1" xmlns="http://www.w3.org/2000/svg" xmlns:xlink="http://www.w3.org/1999/xlink" x="0px" y="0px"
	 viewBox="0 0 48 48" enable-background="new 0 0 48 48" xml:space="preserve">
<g>
	<path fill="#010101" d="M15.8,8.6c-2.4,0-4.3-1.9-4.3-4.3S13.4,0,15.8,0s4.3,1.9,4.3,4.3S18.2,8.6,15.8,8.6z M15.8,2
		c-1.3,0-2.3,1-2.3,2.3c0,1.3,1,2.3,2.3,2.3c1.3,0,2.3-1,2.3-2.3C18.1,3,17.1,2,15.8,2z"/>
	<path fill="#010101" d="M13.5,40.9c-1.2,0-2.3-0.8-2.7-2l-2-6.7c-0.2-0.6-0.2-1.2,0-1.7l3.5-10.9L12,17.9c-1.5,2.6-1.5,6-1.5,6.2
		c0,1.7-1.3,3-2.9,3H7.5c-1.6,0-2.9-1.3-2.9-2.9c0-2,0.3-11.7,8.6-14.6c0.4-0.2,0.7-0.2,1-0.2h4.5c1.7-0.5,6-2.6,7.6-6.7
		c0.5-1.2,1.5-1.9,2.7-1.9c0.4,0,0.7,0.1,1.1,0.2c1.5,0.6,2.2,2.2,1.8,3.8c-2.2,5.9-7.4,8.8-10.1,9.9v8.5l2.6,13.1
		c0.3,1.6-0.7,3.2-2.3,3.5c-0.2,0.1-0.4,0.1-0.7,0.1c-1.4,0-2.5-1-2.8-2.4L16.4,26l-1.7,5.4l1.7,5.7c0.2,0.7,0.1,1.5-0.2,2.2
		c-0.4,0.7-0.9,1.2-1.7,1.4C14.1,40.9,13.7,40.9,13.5,40.9z M12.8,14.4c0.1,0,0.3,0,0.4,0.1c0.3,0.1,0.6,0.5,0.6,0.8l0.4,4.3
		c0,0.1,0,0.3,0,0.4l-3.5,11c0,0.2,0,0.4,0,0.7l2,6.6c0.2,0.4,0.6,0.7,0.9,0.7c0,0,0.1,0,0.1,0c0.1,0,0.1,0,0.1-0.1
		c0.2-0.1,0.4-0.2,0.5-0.5c0.1-0.2,0.2-0.5,0.1-0.7l-1.8-6c-0.1-0.2-0.1-0.4,0-0.6l2.5-7.9c0.1-0.4,0.5-0.7,1-0.7h0.8
		c0.5,0,0.9,0.3,1,0.8l2.7,13.8c0.1,0.6,0.5,0.9,1.1,0.7c0.6-0.1,0.9-0.6,0.8-1.2l-2.6-13.2c0-0.1,0-0.1,0-0.2V14
		c0-0.4,0.3-0.8,0.6-0.9c2.2-0.8,7.4-3.3,9.5-8.9c0.1-0.5-0.1-1.1-0.6-1.3c-0.5-0.2-1,0.1-1.2,0.5c-2.3,6.1-9,8-9.1,8
		c-0.1,0-0.2,0-0.3,0h-4.6c-0.1,0-0.1,0-0.2,0c-7.2,2.5-7.4,11.1-7.4,12.7c0,0.6,0.5,1,0.9,1h0.1c0.6,0,0.9-0.5,0.9-1
		c0-0.6,0.1-6.4,3.7-9.5C12.3,14.5,12.6,14.4,12.8,14.4z"/>
	<path fill="#010101" d="M39,41l-1.8-0.8c6.6-15.5,1.3-30.5-0.7-35.1c-10.1,13-9.3,25.7-6.8,34.2l-1.9,0.6
		c-2.7-9.2-3.5-23.2,8.2-37.3c0.2-0.3,0.5-0.4,0.9-0.4c0.3,0,0.6,0.2,0.8,0.5C38,3.5,47.3,21.6,39,41z"/>
	<path fill="#010101" d="M47,48H1c-0.6,0-1-0.4-1-1v-9.9c0-0.6,0.4-1,1-1c0.7,0,1.4,0.1,1.9,0.2c1.1,0.3,1.8,0.9,2.4,1.4
		c0.4,0.3,0.7,0.6,1.1,0.8c1.6,0.7,4.2,0.7,7.6-0.2c2.9-0.7,6.2-0.9,8.8-0.6c1.6,0.2,3.3,0.4,4.8,0.8c0.6,0.1,1.3,0.4,2,0.6
		c0.7,0.3,1.5,0.5,2.1,0.6c0.5,0.1,1.1,0.1,1.7,0.1c3.1,0,6.9-1.4,9.7-3.4c1.2-0.9,2.1-1.8,3.1-2.8l0.2-0.2c0.3-0.3,0.7-0.4,1.1-0.2
		c0.4,0.2,0.6,0.5,0.6,0.9V47C48,47.6,47.6,48,47,48z M2,46h44v-9.4c-0.6,0.5-1.2,1-1.8,1.5c-2.4,1.9-6.6,3.8-10.9,3.8
		c-0.7,0-1.4-0.1-2-0.2c-0.8-0.1-1.6-0.4-2.4-0.7c-0.6-0.2-1.3-0.4-1.9-0.5c-1.5-0.4-3.1-0.6-4.6-0.8c-2.3-0.3-5.4,0-8.1,0.6
		c-3.9,1-6.9,1-8.9,0c-0.7-0.3-1.2-0.8-1.6-1.2c-0.5-0.4-0.9-0.8-1.5-1c-0.1,0-0.3,0-0.4-0.1V46z"/>
</g>
</svg>
