<?xml version="1.0" encoding="utf-8"?>
<!-- Generator: Adobe Illustrator 18.0.0, SVG Export Plug-In . SVG Version: 6.00 Build 0)  -->
<!DOCTYPE svg PUBLIC "-//W3C//DTD SVG 1.1//EN" "http://www.w3.org/Graphics/SVG/1.1/DTD/svg11.dtd">
<svg version="1.1" id="Layer_1" xmlns="http://www.w3.org/2000/svg" xmlns:xlink="http://www.w3.org/1999/xlink" x="0px" y="0px"
	 viewBox="0 0 48 48" enable-background="new 0 0 48 48" xml:space="preserve">
<g>
	<path fill="#010101" d="M41.1,26.2c-0.3,0-0.6,0-0.8-0.1c-0.8-0.2-1.5-0.8-1.9-1.7c-1-1.9-1-5,0-8.1C39.6,12,42.2,9,44.6,9
		c0.3,0,0.6,0,0.8,0.1c2.5,0.8,3.3,5,2,9.8C46.1,23.2,43.5,26.2,41.1,26.2z M44.6,11c-1.1,0-3.2,2.1-4.3,5.8c-0.9,3-0.7,5.5-0.1,6.6
		c0.2,0.4,0.5,0.6,0.8,0.7c0.1,0,0.2,0,0.2,0c1.1,0,3.2-2.1,4.3-5.8c1.2-4.1,0.4-7-0.6-7.4C44.7,11,44.7,11,44.6,11z"/>
	<path fill="#010101" d="M42.2,21.5c-0.2,0-0.3,0-0.4-0.1c-0.5-0.1-0.9-0.4-1.1-0.9c-0.5-0.9-0.5-2.2-0.1-3.7c0.5-1.6,1.6-3.2,3-3.2
		c0.2,0,0.3,0,0.4,0.1c0.3,0.1,0.8,0.3,1.1,0.9c0.5,0.9,0.5,2.3,0.1,3.6C44.7,19.9,43.5,21.5,42.2,21.5z M43.4,15.8
		c-0.2,0.2-0.6,0.8-0.9,1.7c-0.3,0.9-0.2,1.6-0.2,1.9c0.3-0.2,0.7-0.8,1-1.7C43.5,16.8,43.5,16.2,43.4,15.8z"/>
	<path fill="#010101" d="M16.1,10.3l-1.9-0.5C16.6,0.3,22.7,0,23,0c0.1,0,0.2,0,0.3,0l22.9,6.4l-0.5,1.9L22.9,2
		C22.1,2.1,18,3,16.1,10.3z"/>
	<path fill="#010101" d="M37.3,16.2l-1.9-0.6c0.1-0.4,3.5-10.8,10.8-9.2l-0.4,2C40.2,7.2,37.3,16.1,37.3,16.2z"/>
	<polygon fill="#010101" points="9.5,48 0,48 0,27.3 9.5,27.3 9.5,34.8 23.5,31.7 23.9,33.7 7.5,37.2 7.5,29.3 2,29.3 2,46 7.5,46 
		7.5,39.5 23.5,36 23.9,38 9.5,41.1 	"/>
	<path fill="#010101" d="M28.1,38.6h-5.5V28.5L20.9,28v-5.7l-4.3-1.2c-0.3-0.1-4.3-1.7-3-9.6l0.2-1.1L37,16.9l-0.1,0.9
		c-0.3,1.7-0.6,6.8,1.6,7.4l-0.5,1.9L30,24.9v6l-1.9-0.6V38.6z M24.6,36.6h1.5v-9.1l1.9,0.6v-5.8l7.2,2c-0.7-2-0.6-4.6-0.4-5.9
		L15.4,13c-0.5,4.9,1.5,6.1,1.8,6.3l5.7,1.6v5.7l1.7,0.5V36.6z"/>
</g>
</svg>
