<?xml version="1.0" encoding="utf-8"?>
<!-- Generator: Adobe Illustrator 18.0.0, SVG Export Plug-In . SVG Version: 6.00 Build 0)  -->
<!DOCTYPE svg PUBLIC "-//W3C//DTD SVG 1.1//EN" "http://www.w3.org/Graphics/SVG/1.1/DTD/svg11.dtd">
<svg version="1.1" id="Layer_1" xmlns="http://www.w3.org/2000/svg" xmlns:xlink="http://www.w3.org/1999/xlink" x="0px" y="0px"
	 viewBox="0 0 48 48" enable-background="new 0 0 48 48" xml:space="preserve">
<g>
	<path fill="#010101" d="M31.2,33.8L6.1,14.9L17.3-0.4l27.5,20.8L31.2,33.8z M8.9,14.5L31,31.2l10.8-10.6L17.7,2.4L8.9,14.5z"/>
	<polygon fill="#010101" points="40.1,37.5 32.2,31.5 33.4,29.9 39.7,34.7 45.6,26.5 40.9,23 42.1,21.4 48.4,26.1 	"/>
	<path fill="#010101" d="M6.8,48H0V22.3h6.8V48z M2,46h2.8V24.3H2V46z"/>
	<path fill="#010101" d="M9.8,39.2c-2.4,0-4.1-0.5-4.3-0.6l0.6-1.9c0.1,0,5.1,1.5,9.7-1c3.1-1.7,5.3-4.8,6.6-9.3l1.9,0.5
		c-1.4,5-4,8.6-7.6,10.5C14.3,38.8,11.8,39.2,9.8,39.2z"/>
</g>
</svg>
