<?xml version="1.0" encoding="utf-8"?>
<!-- Generator: Adobe Illustrator 18.0.0, SVG Export Plug-In . SVG Version: 6.00 Build 0)  -->
<!DOCTYPE svg PUBLIC "-//W3C//DTD SVG 1.1//EN" "http://www.w3.org/Graphics/SVG/1.1/DTD/svg11.dtd">
<svg version="1.1" id="Layer_1" xmlns="http://www.w3.org/2000/svg" xmlns:xlink="http://www.w3.org/1999/xlink" x="0px" y="0px"
	 viewBox="0 0 48 48" enable-background="new 0 0 48 48" xml:space="preserve">
<g>
	<path fill="#010101" d="M48.2,43.9H26.9L24,38.1l-2.9,5.8H-0.2L6.1,4.1h35.7L48.2,43.9z M28.1,41.9h17.7L40.1,6.1H7.9L2.2,41.9
		h17.7l4.1-8.4L28.1,41.9z"/>
	<rect x="6.3" y="9.9" fill="#010101" width="35.4" height="2"/>
	<g>
		<path fill="#010101" d="M4,26.7l-0.7-1.9c8.7-3.1,10.2-14,10.2-14.1l2,0.3C15.5,11.5,13.9,23.2,4,26.7z"/>
		<path fill="#010101" d="M44,26.7C34.1,23.2,32.5,11.5,32.4,11l2-0.3c0,0.1,1.5,10.9,10.2,14.1L44,26.7z"/>
	</g>
</g>
</svg>
