<?xml version="1.0" encoding="utf-8"?>
<!-- Generator: Adobe Illustrator 18.0.0, SVG Export Plug-In . SVG Version: 6.00 Build 0)  -->
<!DOCTYPE svg PUBLIC "-//W3C//DTD SVG 1.1//EN" "http://www.w3.org/Graphics/SVG/1.1/DTD/svg11.dtd">
<svg version="1.1" id="Layer_1" xmlns="http://www.w3.org/2000/svg" xmlns:xlink="http://www.w3.org/1999/xlink" x="0px" y="0px"
	 viewBox="0 0 48 48" enable-background="new 0 0 48 48" xml:space="preserve">
<g>
	<path fill="#010101" d="M24,48C10.8,48,0,37.2,0,24S10.8,0,24,0s24,10.8,24,24S37.2,48,24,48z M24,2C11.9,2,2,11.9,2,24
		s9.9,22,22,22s22-9.9,22-22S36.1,2,24,2z"/>
	<path fill="#010101" d="M24,37.7c-7.6,0-13.7-6.1-13.7-13.7c0-7.6,6.1-13.7,13.7-13.7c7.6,0,13.7,6.1,13.7,13.7
		C37.7,31.6,31.6,37.7,24,37.7z M24,12.3c-6.5,0-11.7,5.2-11.7,11.7c0,6.5,5.2,11.7,11.7,11.7c6.5,0,11.7-5.2,11.7-11.7
		C35.7,17.5,30.5,12.3,24,12.3z"/>
	<g>
		<g>
			<path fill="#010101" d="M20.8,12.2l-1.9-0.5c1.6-6.6-2.8-8.4-3-8.4l0.7-1.9C16.6,1.5,22.8,4,20.8,12.2z"/>
			<path fill="#010101" d="M29.7,12.9l-1.4-1.5c5-4.7,2.3-8.7,2.3-8.7l1.6-1.1C32.3,1.7,35.9,7.1,29.7,12.9z"/>
		</g>
		<g>
			<path fill="#010101" d="M31.9,46.7c-0.1,0-6.2-2.5-4.2-10.8l1.9,0.5c-1.6,6.5,2.8,8.4,3,8.4L31.9,46.7z"/>
			<path fill="#010101" d="M16.3,46.6c0-0.1-3.7-5.5,2.5-11.3l1.4,1.5c-5,4.6-2.4,8.5-2.3,8.7L16.3,46.6z"/>
		</g>
	</g>
	<g>
		<g>
			<path fill="#010101" d="M3.4,32.6l-1.9-0.7c0-0.1,2.5-6.2,10.8-4.2l-0.5,1.9C5.4,28,3.5,32.4,3.4,32.6z"/>
			<path fill="#010101" d="M11.6,20.1c-4.7-5-8.7-2.3-8.7-2.3l-1.1-1.6c0.1,0,5.5-3.7,11.3,2.5L11.6,20.1z"/>
		</g>
		<g>
			<path fill="#010101" d="M39.3,21c-0.9,0-2-0.1-3.1-0.4l0.5-1.9c6.6,1.6,8.4-2.8,8.4-3l1.9,0.7C46.9,16.4,45.1,21,39.3,21z"/>
			<path fill="#010101" d="M42.7,33.1c-2,0-4.6-0.8-7.3-3.7l1.5-1.4c4.6,5,8.5,2.4,8.7,2.3l1.1,1.6C46.7,32,45.1,33.1,42.7,33.1z"/>
		</g>
	</g>
</g>
</svg>
