<?xml version="1.0" encoding="utf-8"?>
<!-- Generator: Adobe Illustrator 18.0.0, SVG Export Plug-In . SVG Version: 6.00 Build 0)  -->
<!DOCTYPE svg PUBLIC "-//W3C//DTD SVG 1.1//EN" "http://www.w3.org/Graphics/SVG/1.1/DTD/svg11.dtd">
<svg version="1.1" id="Layer_1" xmlns="http://www.w3.org/2000/svg" xmlns:xlink="http://www.w3.org/1999/xlink" x="0px" y="0px"
	 viewBox="0 0 48 48" enable-background="new 0 0 48 48" xml:space="preserve">
<g>
	<g>
		<path fill="#010101" d="M38.6,18.8H9.5v-5.3c0-2.2,1.8-4,4-4h21.1c2.2,0,4,1.8,4,4V18.8z M11.5,16.8h25.1v-3.3c0-1.1-0.9-2-2-2
			H13.5c-1.1,0-2,0.9-2,2V16.8z"/>
		<rect x="23" y="17.8" fill="#010101" width="2" height="19.6"/>
		<path fill="#010101" d="M32.8,37.5h-2c0-2.8-3.1-5-6.8-5c-3.7,0-6.8,2.2-6.8,5h-2c0-3.9,3.9-7,8.8-7
			C28.9,30.5,32.8,33.6,32.8,37.5z"/>
	</g>
	<g>
		<polygon fill="#010101" points="35.5,37.4 33.5,37.4 33.5,24.5 46,24.5 46,10.5 48,10.5 48,26.5 35.5,26.5 		"/>
		<rect x="46" y="25.5" fill="#010101" width="2" height="11.9"/>
		<g>
			<polygon fill="#010101" points="14.5,37.4 12.5,37.4 12.5,26.5 0,26.5 0,10.5 2,10.5 2,24.5 14.5,24.5 			"/>
			<rect y="25.5" fill="#010101" width="2" height="11.9"/>
		</g>
	</g>
</g>
</svg>
