<?xml version="1.0" encoding="utf-8"?>
<!-- Generator: Adobe Illustrator 16.0.0, SVG Export Plug-In . SVG Version: 6.00 Build 0)  -->
<!DOCTYPE svg PUBLIC "-//W3C//DTD SVG 1.1//EN" "http://www.w3.org/Graphics/SVG/1.1/DTD/svg11.dtd">
<svg version="1.1" id="Layer_1" xmlns="http://www.w3.org/2000/svg" xmlns:xlink="http://www.w3.org/1999/xlink" x="0px" y="0px"
	 width="48px" height="48px" viewBox="0 0 48 48" enable-background="new 0 0 48 48" xml:space="preserve">
<g>
	<path d="M39.368,33.68c-0.314,0-0.623-0.147-0.817-0.423c-0.319-0.451-0.212-1.075,0.239-1.394
		c0.098-0.069,2.377-1.701,1.488-2.969c-0.787-1.123-2.905-2.439-3.654-2.853c-0.291-0.159-0.483-0.453-0.514-0.783
		c-0.031-0.33,0.104-0.654,0.359-0.865l2.431-2.001c0.026-0.062,0.049-0.128,0.06-0.18c-0.031-0.014-0.077-0.03-0.141-0.046
		c-1.156-0.29-2.877-0.249-3.442-0.208c-0.347,0.021-0.662-0.123-0.866-0.39c-0.205-0.268-0.261-0.62-0.15-0.938l0.547-1.565
		c0.004-0.01,0.008-0.02,0.011-0.029c-0.051-0.044-0.133-0.105-0.262-0.178c-1.173-0.661-3.136-1.418-3.155-1.426
		c-0.511-0.197-0.77-0.767-0.58-1.28c0.002-0.005,0.395-1.171-0.226-1.565c-0.709-0.451-3.159-0.745-4.871-0.832
		c-0.851,0.564-1.998,0.874-2.847,0.126c-1.113-0.983-2.108-1.37-2.962-1.142c-1.709,0.453-2.667,3.125-2.676,3.152
		c-0.179,0.522-0.746,0.801-1.27,0.623c-0.522-0.179-0.801-0.747-0.623-1.27c0.052-0.151,1.296-3.707,4.057-4.438
		c1.516-0.399,3.103,0.107,4.721,1.509c0.16-0.033,0.462-0.19,0.667-0.354c0.187-0.148,0.441-0.231,0.661-0.22
		c0.778,0.028,4.732,0.213,6.217,1.158c1.166,0.742,1.371,1.988,1.253,2.989c0.73,0.303,1.813,0.774,2.615,1.227
		c0.738,0.415,1.176,0.938,1.3,1.555c0.092,0.456-0.018,0.87-0.178,1.159l-0.036,0.104c0.783,0.015,1.75,0.084,2.58,0.293
		c0.963,0.24,1.365,0.793,1.532,1.216c0.388,0.982-0.189,1.955-0.309,2.14c-0.056,0.086-0.125,0.164-0.204,0.229l-1.494,1.23
		c1.003,0.655,2.352,1.655,3.087,2.704c1.411,2.014,0.026,4.339-1.972,5.75C39.769,33.62,39.567,33.68,39.368,33.68z"/>
	<path d="M38.677,37.325c-0.667,0-1.322-0.087-1.949-0.266c-2.816-0.805-14.952-1.393-23.813-1.821
		c-3.691-0.18-6.879-0.334-9.146-0.483c-1.258-0.082-2.211-0.212-3.013-1.148c-0.991-1.155-0.769-2.386-0.636-3.121
		C2.806,15.51,13.816,14.607,18.433,14.913c8.157,0.538,12.982,8.299,16.175,13.434l0.056,0.09c2.018,3.243,4.265,3.3,4.415,3.3
		c0.004-0.001,0.008,0,0.015,0c0.542,0,0.993,0.432,1.008,0.975c0.014,0.546-0.405,1.002-0.951,1.024
		c-0.156,0.005-3.49,0.089-6.185-4.242l-0.057-0.09c-3.155-5.075-7.476-12.024-14.608-12.494c-5.06-0.337-13.898,1.021-16.2,13.859
		c-0.135,0.749-0.183,1.122,0.173,1.536c0.245,0.286,0.488,0.381,1.625,0.454c2.251,0.148,5.43,0.303,9.112,0.481
		c9.458,0.458,21.227,1.028,24.265,1.896c2.191,0.625,5.008-0.358,6.851-2.392c1.883-2.078,2.367-4.773,1.33-7.396
		c-2.718-6.87-9.87-11.97-15.609-11.147c-0.547,0.076-1.054-0.301-1.133-0.847c-0.078-0.547,0.301-1.054,0.848-1.132
		c6.585-0.944,14.722,4.725,17.754,12.39c1.328,3.357,0.706,6.812-1.708,9.475C43.743,36.146,41.136,37.325,38.677,37.325z"/>
	<circle cx="9.212" cy="26.676" r="0.944"/>
	<circle cx="14.222" cy="22.842" r="1.569"/>
	<circle cx="14.222" cy="28.955" r="2.261"/>
</g>
</svg>
