<?xml version="1.0" encoding="utf-8"?>
<!-- Generator: Adobe Illustrator 16.0.0, SVG Export Plug-In . SVG Version: 6.00 Build 0)  -->
<!DOCTYPE svg PUBLIC "-//W3C//DTD SVG 1.1//EN" "http://www.w3.org/Graphics/SVG/1.1/DTD/svg11.dtd">
<svg version="1.1" id="Layer_1" xmlns="http://www.w3.org/2000/svg" xmlns:xlink="http://www.w3.org/1999/xlink" x="0px" y="0px"
	 width="48px" height="48px" viewBox="0 0 48 48" enable-background="new 0 0 48 48" xml:space="preserve">
<g>
	<g>
		<ellipse cx="10.042" cy="31.164" rx="2.677" ry="2.684"/>
		<ellipse cx="37.958" cy="31.164" rx="2.677" ry="2.684"/>
	</g>
	<g>
		<path d="M10.042,48c-0.552,0-1-0.447-1-1v-6.063c0-0.553,0.448-1,1-1s1,0.447,1,1V47C11.042,47.553,10.594,48,10.042,48z"/>
		<path d="M37.958,48c-0.553,0-1-0.447-1-1v-6.063c0-0.553,0.447-1,1-1s1,0.447,1,1V47C38.958,47.553,38.511,48,37.958,48z"/>
	</g>
	<path d="M43.432,41.146H4.568C2.049,41.146,0,39.093,0,36.568V24.695c0-2.524,2.049-4.577,4.568-4.577h1.443l2.114-7.104
		c0.082-2.453,2.098-4.423,4.565-4.423h22.62c2.467,0,4.483,1.97,4.564,4.423l2.115,7.104h1.441c1.217,0,2.363,0.478,3.229,1.345
		c0.864,0.867,1.34,2.015,1.339,3.233v11.872C47.999,39.093,45.95,41.146,43.432,41.146z M4.568,22.118
		C3.152,22.118,2,23.274,2,24.695v11.873c0,1.422,1.152,2.578,2.568,2.578h38.864c1.416,0,2.567-1.156,2.567-2.578V24.695
		c0-0.685-0.268-1.332-0.755-1.82c-0.487-0.488-1.131-0.757-1.813-0.757h-2.188c-0.442,0-0.832-0.291-0.958-0.715l-2.366-7.95
		c-0.028-0.092-0.042-0.188-0.042-0.285c0-1.421-1.151-2.577-2.567-2.577h-22.62c-1.416,0-2.568,1.156-2.568,2.577
		c0,0.097-0.014,0.193-0.042,0.285l-2.366,7.95c-0.126,0.424-0.516,0.715-0.958,0.715H4.568z"/>
	<path d="M34.878,22.126H13.122c-0.316,0-0.613-0.149-0.802-0.402c-0.188-0.253-0.247-0.581-0.157-0.883l1.501-5.042
		c0.083-1.716,1.502-3.086,3.235-3.086h14.2c1.733,0,3.152,1.371,3.235,3.086l1.501,5.042c0.091,0.302,0.032,0.63-0.156,0.883
		C35.491,21.977,35.193,22.126,34.878,22.126z M14.463,20.126h19.074l-1.156-3.884c-0.028-0.092-0.042-0.188-0.042-0.285
		c0-0.687-0.556-1.245-1.239-1.245H16.9c-0.683,0-1.239,0.559-1.239,1.245c0,0.097-0.014,0.193-0.042,0.285L14.463,20.126z"/>
	<path d="M32.742,10.591H15.258c-0.552,0-1-0.448-1-1V1c0-0.552,0.448-1,1-1h17.484c0.553,0,1,0.448,1,1v8.591
		C33.742,10.143,33.295,10.591,32.742,10.591z M16.258,8.591h15.484V2H16.258V8.591z"/>
</g>
</svg>
