<?xml version="1.0" encoding="utf-8"?>
<!-- Generator: Adobe Illustrator 18.0.0, SVG Export Plug-In . SVG Version: 6.00 Build 0)  -->
<!DOCTYPE svg PUBLIC "-//W3C//DTD SVG 1.1//EN" "http://www.w3.org/Graphics/SVG/1.1/DTD/svg11.dtd">
<svg version="1.1" id="Layer_1" xmlns="http://www.w3.org/2000/svg" xmlns:xlink="http://www.w3.org/1999/xlink" x="0px" y="0px"
	 viewBox="0 0 48 48" enable-background="new 0 0 48 48" xml:space="preserve">
<g>
	<path fill="#010101" d="M28.3,48H11.2C8.3,48,6,45.7,6,42.8V14.5h27.4v28.4c0.1,1.3-0.4,2.5-1.4,3.5C31.1,47.4,29.7,48,28.3,48z
		 M8,16.5v26.3c0,1.7,1.5,3.2,3.2,3.2h17.1c0.9,0,1.7-0.4,2.3-1c0.6-0.6,0.8-1.3,0.8-2.1l0-26.4H8z"/>
	<path fill="#010101" d="M37.9,33.9h-6.4V18.1h6.4c2.2,0,4,1.8,4,4v7.8C41.9,32.1,40.1,33.9,37.9,33.9z M33.5,31.9h4.4
		c1.1,0,2-0.9,2-2v-7.8c0-1.1-0.9-2-2-2h-4.4V31.9z"/>
	<g>
		<rect x="12.5" y="5.1" fill="#010101" width="2" height="7.8"/>
		<rect x="18.8" y="1" fill="#010101" width="2" height="11.9"/>
		<rect x="25" y="5.1" fill="#010101" width="2" height="7.8"/>
	</g>
	<rect x="15.6" y="15.5" fill="#010101" width="2" height="10.5"/>
	<path fill="#010101" d="M22.5,39.8H10.6V27.2l5.9-4.1l6,4.1V39.8z M12.6,37.8h7.9v-9.6l-4-2.7l-3.9,2.7V37.8z"/>
</g>
</svg>
