<?xml version="1.0" encoding="utf-8"?>
<!-- Generator: Adobe Illustrator 18.0.0, SVG Export Plug-In . SVG Version: 6.00 Build 0)  -->
<!DOCTYPE svg PUBLIC "-//W3C//DTD SVG 1.1//EN" "http://www.w3.org/Graphics/SVG/1.1/DTD/svg11.dtd">
<svg version="1.1" id="Layer_1" xmlns="http://www.w3.org/2000/svg" xmlns:xlink="http://www.w3.org/1999/xlink" x="0px" y="0px"
	 viewBox="0 0 48 48" enable-background="new 0 0 48 48" xml:space="preserve">
<g>
	<g>
		<path fill="#010101" d="M33.3,44.7H18.8v-2.2c-0.5-0.3-1.2-0.8-1.8-1.3C13.6,41.2,4.2,40.2,2.9,31c-0.6-4.7-2-7.1-2.6-8l-0.2-0.2
			l0-0.5c0-0.4,0.3-0.8,0.4-0.9l0.1-0.1l4.5-2.1l0.5,0.5c0.2,0.1,1.6,1.5,2.7,6c0.3,1.2,0.8,1.7,1.4,1.9c0-0.3,0-0.6,0-0.9
			c0-3.2,0.8-6.3,2.3-9l0.3-0.5h27.5l0.3,0.5c1.5,2.7,2.3,5.8,2.3,9c0,5.4-4.9,11.5-9,15.7V44.7z M20.8,42.7h10.5v-0.6
			c-0.1-0.5,0.3-0.8,0.6-1.1c5.4-5.5,8.4-10.6,8.4-14.3c0-2.6-0.6-5.2-1.8-7.5H13.4c-1.2,2.3-1.8,4.9-1.8,7.5c0,0.3,0,0.7,0.1,1
			c0,0.3,0,0.7,0,1v0.8l-0.8,0.2c0,0-0.2,0-0.6,0c-0.7,0-3.2-0.3-4-3.6c-0.6-2.5-1.3-3.8-1.7-4.5l-2.2,1c0.8,1.4,1.9,4,2.5,8.1
			c1.1,7.9,9.8,8.5,12.4,8.5h0.3l0.3,0.2c0.9,0.7,2.4,1.6,2.4,1.6l0.5,0.3V42.7z"/>
	</g>
	<path fill="#010101" d="M40.6,37.7c-0.4,0-0.7,0-1.1-0.1c-1.2-0.3-2.2-0.9-3-1.7l1.5-1.3c0.4,0.5,1.1,0.9,1.9,1.1
		c2.4,0.5,4.9-1.8,5.6-5.1l0.4-2c0.6-3.3-0.9-6.4-3.3-6.9c-0.6-0.1-1.2-0.1-1.8,0.1l-0.5-1.9c1-0.3,2-0.3,2.8-0.1
		c3.5,0.7,5.6,4.8,4.8,9.2l-0.4,2C46.7,34.9,43.7,37.7,40.6,37.7z"/>
	<path fill="#010101" d="M38.8,15.1H12.9l1-1.5c2-3.1,5.1-5.4,8.7-6.2c0-0.2-0.1-0.4-0.1-0.5c0-1.8,1.6-3.4,3.4-3.4s3.4,1.6,3.4,3.4
		c0,0.2,0,0.4,0,0.5c3.6,0.9,6.7,3.1,8.6,6.2L38.8,15.1z M16.7,13.1h18.4c-1.8-2.1-4.4-3.6-7.3-4l-1.6-0.3l1-1.3
		c0.1-0.2,0.2-0.3,0.2-0.7c0-0.7-0.7-1.4-1.4-1.4c-0.7,0-1.4,0.7-1.4,1.4c0,0.3,0.1,0.6,0.2,0.7l0.9,1.3l-1.5,0.2
		C21.2,9.5,18.6,11,16.7,13.1z"/>
</g>
</svg>
