<?xml version="1.0" encoding="utf-8"?>
<!-- Generator: Adobe Illustrator 16.0.0, SVG Export Plug-In . SVG Version: 6.00 Build 0)  -->
<!DOCTYPE svg PUBLIC "-//W3C//DTD SVG 1.1//EN" "http://www.w3.org/Graphics/SVG/1.1/DTD/svg11.dtd">
<svg version="1.1" id="Layer_1" xmlns="http://www.w3.org/2000/svg" xmlns:xlink="http://www.w3.org/1999/xlink" x="0px" y="0px"
	 width="48px" height="48px" viewBox="0 0 48 48" enable-background="new 0 0 48 48" xml:space="preserve">
<g>
	<g>
		<path d="M40.615,45.318H33.65c-0.301,0-0.585-0.136-0.775-0.368c-1.748-2.146-2.751-5.449-2.751-9.063
			c0-1.051,0.088-2.096,0.262-3.104c0.082-0.48,0.498-0.831,0.985-0.831h11.523c0.487,0,0.904,0.352,0.986,0.833
			c0.172,1.017,0.26,2.061,0.26,3.103c0,3.612-1.002,6.915-2.75,9.063C41.201,45.183,40.916,45.318,40.615,45.318z M34.146,43.318
			h5.975c1.271-1.791,2.021-4.525,2.021-7.432c0-0.647-0.038-1.296-0.112-1.936h-9.792c-0.074,0.636-0.112,1.284-0.112,1.936
			C32.124,38.795,32.874,41.528,34.146,43.318z"/>
		<path d="M42.199,42.449c-0.315,0-0.626-0.148-0.82-0.427c-0.316-0.452-0.207-1.075,0.246-1.393
			c1.574-1.103,4.897-4.991,4.331-5.899c-0.185-0.296-0.361-0.361-0.495-0.385c-0.542-0.09-1.381,0.39-1.699,0.64
			c-0.434,0.339-1.062,0.267-1.403-0.165s-0.272-1.058,0.158-1.4c0.17-0.136,1.699-1.314,3.279-1.046
			c0.767,0.132,1.409,0.58,1.856,1.298c1.903,3.052-4.81,8.547-4.881,8.597C42.598,42.391,42.397,42.449,42.199,42.449z"/>
	</g>
	<g>
		<path d="M15.088,29.97c-0.01,0-0.1-0.001-0.11-0.002c-0.208-0.007-0.487-0.08-0.652-0.206L0.468,19.175
			c-0.191-0.146-0.323-0.355-0.372-0.59c-0.024-0.111-0.038-0.179-0.048-0.247c-0.121-0.852-0.005-1.86,0.346-2.998
			C1.002,12.505,8,4.996,9.759,4.187c0.508-0.21,0.964-0.337,1.391-0.395c1.745-0.237,4.162,0.489,6.757,1.968
			c0.109-0.322,0.271-0.629,0.484-0.908c0.605-0.792,1.525-1.247,2.523-1.247c0.701,0,1.367,0.225,1.924,0.652
			c1.389,1.063,1.655,3.058,0.593,4.446c-0.195,0.256-0.423,0.476-0.676,0.658c1.594,1.525,3.568,3.869,3.631,6.168
			c0.036,1.369-0.492,3.208-1.461,5.178c1.847-2.027,3.751-2.453,5.025-2.453c1.731,0,2.93,0.746,3.061,0.831
			c0.318,0.207,0.492,0.575,0.449,0.952c-0.042,0.376-0.294,0.697-0.65,0.827l-0.349,0.128c0.15,0.175,0.241,0.403,0.241,0.652
			c0,0.555-0.441,0.988-1.009,1c-0.003,0-0.007,0-0.011,0c-0.163,0-0.328-0.04-0.479-0.122c-0.096-0.052-0.207-0.078-0.338-0.078
			c-1.188,0-3.408,1.876-5.399,4.563c-0.915,1.235-2.204,1.89-3.726,1.89c-1.093,0-2.089-0.343-2.708-0.615
			c-1.374,1.077-2.669,1.644-3.858,1.688C15.165,29.969,15.101,29.97,15.088,29.97z M2.007,17.834l13.252,10.123
			c0.835-0.095,1.884-0.664,2.99-1.62c0.33-0.285,0.807-0.324,1.178-0.095c0.015,0.009,0.029,0.019,0.043,0.028
			c0.234,0.128,1.216,0.625,2.271,0.625c0.887,0,1.58-0.354,2.118-1.08c1.073-1.448,3.655-4.613,6.145-5.257
			c-0.01-0.101-0.005-0.204,0.017-0.304c-1.287,0.01-2.521,0.589-3.634,1.817c-1.246,1.374-2.13,1.959-2.958,1.959
			c-0.867,0-1.335-0.638-1.511-0.877c-0.245-0.334-0.259-0.784-0.035-1.132c1.584-2.465,2.544-4.932,2.503-6.438
			c-0.042-1.513-1.667-3.76-4.242-5.864c-0.336-0.274-0.457-0.734-0.299-1.138c0.158-0.404,0.558-0.666,0.992-0.634
			c0.438-0.016,0.781-0.166,1.004-0.458c0.393-0.514,0.294-1.251-0.219-1.644c-0.5-0.381-1.261-0.277-1.642,0.22
			c-0.245,0.32-0.304,0.74-0.16,1.124c0.153,0.406,0.025,0.865-0.315,1.135c-0.34,0.27-0.816,0.288-1.177,0.047
			c-2.679-1.793-5.302-2.814-6.912-2.598c-0.257,0.035-0.547,0.118-0.86,0.247c-1.208,0.565-7.755,7.626-8.229,9.827
			C2.082,16.653,1.978,17.314,2.007,17.834z"/>
		<path d="M2.204,14.819c-0.509,0-0.945-0.387-0.995-0.904L1.131,13.13C0.732,9.244,0.066,2.739,4.159,0.762
			c1.51-0.729,2.604-0.436,3.255-0.061C9.416,1.853,9.72,5.125,9.748,5.495c0.042,0.55-0.37,1.029-0.919,1.072
			C8.274,6.606,7.798,6.198,7.754,5.648C7.688,4.812,7.272,2.925,6.415,2.434C6.288,2.361,5.901,2.139,5.029,2.563
			C2.198,3.93,2.775,9.562,3.121,12.926l0.08,0.797c0.053,0.55-0.35,1.038-0.9,1.091C2.268,14.817,2.236,14.819,2.204,14.819z"/>
	</g>
	<path d="M38.392,31.818c-0.021,0-0.042-0.001-0.063-0.002c-0.551-0.034-0.97-0.51-0.936-1.061c0.294-4.69-3.718-6.789-3.759-6.81
		c-0.492-0.25-0.688-0.853-0.438-1.345c0.251-0.492,0.852-0.69,1.346-0.438c0.213,0.108,5.222,2.729,4.847,8.717
		C39.355,31.411,38.915,31.818,38.392,31.818z"/>
	<path d="M47,47.689H1c-0.552,0-1-0.447-1-1s0.448-1,1-1h46c0.553,0,1,0.447,1,1S47.553,47.689,47,47.689z"/>
</g>
</svg>
