<?xml version="1.0" encoding="utf-8"?>
<!-- Generator: Adobe Illustrator 16.0.0, SVG Export Plug-In . SVG Version: 6.00 Build 0)  -->
<!DOCTYPE svg PUBLIC "-//W3C//DTD SVG 1.1//EN" "http://www.w3.org/Graphics/SVG/1.1/DTD/svg11.dtd">
<svg version="1.1" id="Layer_1" xmlns="http://www.w3.org/2000/svg" xmlns:xlink="http://www.w3.org/1999/xlink" x="0px" y="0px"
	 width="48px" height="48px" viewBox="0 0 48 48" enable-background="new 0 0 48 48" xml:space="preserve">
<g>
	<path d="M20.557,35.246c-11.459,0-20.435-4.832-20.435-11c0-6.168,8.976-11,20.435-11c11.458,0,20.435,4.832,20.435,11
		C40.992,30.414,32.016,35.246,20.557,35.246z M20.557,15.246c-9.993,0-18.435,4.122-18.435,9c0,4.879,8.442,9,18.435,9
		s18.435-4.121,18.435-9C38.992,19.368,30.55,15.246,20.557,15.246z"/>
	<path d="M20.557,48C9.222,48,0,37.493,0,24.578c0-0.552,0.448-1,1-1s1,0.448,1,1C2,36.391,10.325,46,20.557,46
		c10.232,0,18.556-9.609,18.556-21.422c0-0.552,0.447-1,1-1s1,0.448,1,1C41.113,37.493,31.892,48,20.557,48z"/>
	<g>
		<path d="M26.546,11.778c-0.553,0-1-0.448-1-1V5.89c0-0.552,0.447-1,1-1s1,0.448,1,1v4.888
			C27.546,11.33,27.099,11.778,26.546,11.778z"/>
		<path d="M20.558,11.778c-0.552,0-1-0.448-1-1V1c0-0.552,0.448-1,1-1s1,0.448,1,1v9.778C21.558,11.33,21.11,11.778,20.558,11.778z"
			/>
		<path d="M14.569,11.778c-0.552,0-1-0.448-1-1V5.89c0-0.552,0.448-1,1-1s1,0.448,1,1v4.888
			C15.569,11.33,15.121,11.778,14.569,11.778z"/>
	</g>
	<path d="M34.944,40.766c-0.51,0-0.946-0.389-0.994-0.906c-0.053-0.55,0.352-1.037,0.901-1.089c2.755-0.26,6.13-2.417,8.597-5.495
		c1.781-2.223,2.726-4.489,2.526-6.063c-0.105-0.832-0.43-0.977-0.536-1.023c-1.006-0.448-3.504,0.762-4.873,1.718
		c-0.454,0.318-1.076,0.207-1.393-0.246s-0.206-1.076,0.246-1.393c0.723-0.505,4.44-2.965,6.831-1.907
		c0.667,0.296,1.505,0.987,1.709,2.602c0.27,2.131-0.806,4.887-2.95,7.563c-2.219,2.77-6.004,5.862-9.97,6.235
		C35.007,40.765,34.976,40.766,34.944,40.766z"/>
</g>
</svg>
