<?xml version="1.0" encoding="utf-8"?>
<!-- Generator: Adobe Illustrator 18.0.0, SVG Export Plug-In . SVG Version: 6.00 Build 0)  -->
<!DOCTYPE svg PUBLIC "-//W3C//DTD SVG 1.1//EN" "http://www.w3.org/Graphics/SVG/1.1/DTD/svg11.dtd">
<svg version="1.1" id="Layer_1" xmlns="http://www.w3.org/2000/svg" xmlns:xlink="http://www.w3.org/1999/xlink" x="0px" y="0px"
	 viewBox="0 0 48 48" enable-background="new 0 0 48 48" xml:space="preserve">
<g>
	<path fill="#010101" d="M16.1,43.6C16.1,43.6,16.1,43.6,16.1,43.6c-4.3,0-7.8-1.2-9.8-3.4c-0.2-0.2-0.3-0.5-0.2-0.7
		c0-0.3,0.1-0.5,0.4-0.7l7.9-6.7c0.4-0.4,1-0.3,1.4,0.1c1.3,1.5,3.3,2.3,5.6,2.3c3.2,0,6.9-1.6,10.3-4.5c3.7-3.1,5.9-6.7,6.2-10.1
		c0.2-2-0.4-3.7-1.6-5.1C36.1,14.6,36,14.3,36,14c0-0.3,0.1-0.5,0.4-0.7l7.9-6.6c0.4-0.3,1-0.3,1.4,0.1c1.7,2,2.6,5,2.3,8.6
		c-0.5,6.9-4.7,14.6-11,20C30.9,40.6,23.1,43.6,16.1,43.6z M8.6,39.5c1.7,1.3,4.3,2,7.5,2c6.6,0,13.9-2.9,19.5-7.7
		c7.1-6,9.9-13.6,10.3-18.6c0.2-2.6-0.3-4.8-1.2-6.4l-6.4,5.3c1.1,1.6,1.6,3.6,1.5,5.8c-0.3,3.9-2.8,8-6.9,11.4
		c-3.8,3.2-7.9,5-11.6,5c-2.5,0-4.7-0.8-6.4-2.3L8.6,39.5z"/>
	<path fill="#010101" d="M34,11.4c-0.3,0-0.5-0.1-0.7-0.3l-2.4-2.7c-0.2-0.2-0.3-0.5-0.3-0.7c0-0.3,0.1-0.5,0.3-0.7l7.8-6.7
		C39,0.1,39.2,0,39.5,0c0.3,0,0.5,0.1,0.7,0.3l2.4,2.8c0.2,0.2,0.3,0.5,0.2,0.7c0,0.3-0.1,0.5-0.4,0.7l-7.8,6.6
		C34.5,11.3,34.2,11.4,34,11.4z M33,7.8L34.1,9l6.3-5.3l-1.1-1.3L33,7.8z"/>
	<path fill="#010101" d="M4.1,36.8c-0.3,0-0.6-0.1-0.7-0.3L1,33.8c-0.2-0.2-0.3-0.5-0.3-0.7s0.1-0.5,0.4-0.7L9,25.6
		c0.4-0.4,1-0.3,1.4,0.1l2.4,2.8c0.2,0.2,0.3,0.5,0.2,0.7c0,0.3-0.2,0.5-0.4,0.7l-7.9,6.6C4.6,36.7,4.3,36.8,4.1,36.8z M3.1,33.2
		l1.1,1.2l6.4-5.3l-1.1-1.3L3.1,33.2z"/>
	<path fill="#010101" d="M4.2,47.7c-0.9-1-1.8-2-2.7-3.2c-1-1.3-1.5-2.9-1.5-4.4c0-1.3,0.4-2.4,0.8-3.6l0.1-0.3
		c0.2-0.4,0.3-0.7,0.4-1.1c0.1-0.4,0.3-0.7,0.4-1.1l1.8,0.8c-0.1,0.3-0.3,0.7-0.4,1C3,36.3,2.9,36.6,2.7,37l-0.1,0.2
		c-0.4,1.1-0.7,2-0.7,2.9c0,1.1,0.4,2.2,1.1,3.2c0.8,1.1,1.6,2,2.5,3L4.2,47.7z"/>
</g>
</svg>
