<?xml version="1.0" encoding="utf-8"?>
<!-- Generator: Adobe Illustrator 18.0.0, SVG Export Plug-In . SVG Version: 6.00 Build 0)  -->
<!DOCTYPE svg PUBLIC "-//W3C//DTD SVG 1.1//EN" "http://www.w3.org/Graphics/SVG/1.1/DTD/svg11.dtd">
<svg version="1.1" id="Layer_1" xmlns="http://www.w3.org/2000/svg" xmlns:xlink="http://www.w3.org/1999/xlink" x="0px" y="0px"
	 viewBox="0 0 48 48" enable-background="new 0 0 48 48" xml:space="preserve">
<g>
	<g>
		<path fill="#010101" d="M43.1,15.6c1.1,0,1.9,0.9,1.9,2V43c0,1.1-0.9,2-1.9,2H4.9c-1,0-1.9-0.9-1.9-2V17.6c0-1.1,0.9-2,1.9-2H43.1
			 M43.1,13.6H4.9c-2.1,0-3.9,1.8-3.9,4V43c0,2.2,1.8,4,3.9,4h38.2c2.1,0,3.9-1.8,3.9-4V17.6C47,15.4,45.2,13.6,43.1,13.6L43.1,13.6
			z"/>
	</g>
	<path fill="#010101" d="M34.6,42H5.8V18.6h28.8V42z M7.8,40h24.8V20.6H7.8V40z"/>
	<rect x="37.3" y="39" fill="#010101" width="5.7" height="2"/>
	<rect x="37.3" y="34.2" fill="#010101" width="5.7" height="2"/>
	<rect x="37.3" y="29.3" fill="#010101" width="5.7" height="2"/>
	<path fill="#010101" d="M40.2,27.3c-2.2,0-3.9-1.7-3.9-3.9c0-2.2,1.8-3.9,3.9-3.9s3.9,1.7,3.9,3.9C44.1,25.6,42.4,27.3,40.2,27.3z
		 M40.2,21.5c-1,0-1.9,0.9-1.9,1.9c0,1,0.9,1.9,1.9,1.9c1,0,1.9-0.9,1.9-1.9C42.1,22.4,41.2,21.5,40.2,21.5z"/>
	<polygon fill="#010101" points="18.4,15.4 11.9,3.8 13.7,2.8 18.6,11.8 27.4,0.4 29,1.6 	"/>
</g>
</svg>
