<?xml version="1.0" encoding="utf-8"?>
<!-- Generator: Adobe Illustrator 18.0.0, SVG Export Plug-In . SVG Version: 6.00 Build 0)  -->
<!DOCTYPE svg PUBLIC "-//W3C//DTD SVG 1.1//EN" "http://www.w3.org/Graphics/SVG/1.1/DTD/svg11.dtd">
<svg version="1.1" id="Layer_1" xmlns="http://www.w3.org/2000/svg" xmlns:xlink="http://www.w3.org/1999/xlink" x="0px" y="0px"
	 viewBox="0 0 48 48" enable-background="new 0 0 48 48" xml:space="preserve">
<g>
	<path fill="#010101" d="M28.9,31.3c-3.4,0-6.6-1.2-8.8-3.4c-2.6-2.6-3.8-6.4-3.3-10.6c0.5-4.1,2.5-8.1,5.7-11.3
		c3.7-3.7,8.5-5.8,13.1-5.8c3.4,0,6.6,1.2,8.8,3.4c2.6,2.6,3.8,6.4,3.3,10.6c-0.5,4.1-2.5,8.1-5.7,11.3
		C38.4,29.1,33.6,31.3,28.9,31.3z M35.7,2.1C31.6,2.1,27.3,4,24,7.3c-2.9,2.9-4.7,6.5-5.2,10.2c-0.4,3.6,0.6,6.7,2.8,8.9
		c1.9,1.9,4.4,2.9,7.4,2.9c4.1,0,8.4-1.9,11.7-5.3c2.9-2.9,4.7-6.5,5.2-10.2c0.4-3.6-0.6-6.7-2.8-8.9C41.2,3.1,38.7,2.1,35.7,2.1z"
		/>
	<path fill="#010101" d="M5.1,48.3l-5.4-5.4l11.4-11.4c3.9-3.9,5.8-10.3,5.8-10.4l1.9,0.6c-0.1,0.3-2.1,7-6.4,11.2l-10,10l2.6,2.6
		l10-10c4.2-4.2,10.9-6.3,11.2-6.4l0.6,1.9c-0.1,0-6.5,2-10.4,5.8L5.1,48.3z"/>
	<rect x="28.5" y="8" transform="matrix(0.7071 0.7071 -0.7071 0.7071 17.7857 -24.9404)" fill="#010101" width="20.9" height="2"/>
	
		<rect x="21.8" y="13" transform="matrix(0.7071 0.7071 -0.7071 0.7071 19.9539 -20.2739)" fill="#010101" width="25.3" height="2"/>
	
		<rect x="17.1" y="17.7" transform="matrix(0.7071 0.7071 -0.7071 0.7071 21.8139 -15.362)" fill="#010101" width="24.7" height="2"/>
	
		<rect x="31.3" y="-0.5" transform="matrix(0.7054 0.7088 -0.7088 0.7054 20.6588 -18.3049)" fill="#010101" width="2" height="32.3"/>
	
		<rect x="26.4" y="-3" transform="matrix(0.7091 0.7052 -0.7052 0.7091 15.5314 -16.2431)" fill="#010101" width="2" height="27.4"/>
	
		<rect x="36.4" y="7.6" transform="matrix(0.7071 0.7071 -0.7071 0.7071 25.7326 -20.3243)" fill="#010101" width="2" height="26.6"/>
	
		<rect x="15.3" y="22.5" transform="matrix(0.7071 0.7071 -0.7071 0.7071 23.8427 -10.4618)" fill="#010101" width="18.5" height="2"/>
</g>
</svg>
