<?xml version="1.0" encoding="utf-8"?>
<!-- Generator: Adobe Illustrator 18.0.0, SVG Export Plug-In . SVG Version: 6.00 Build 0)  -->
<!DOCTYPE svg PUBLIC "-//W3C//DTD SVG 1.1//EN" "http://www.w3.org/Graphics/SVG/1.1/DTD/svg11.dtd">
<svg version="1.1" id="Layer_1" xmlns="http://www.w3.org/2000/svg" xmlns:xlink="http://www.w3.org/1999/xlink" x="0px" y="0px"
	 viewBox="0 0 48 48" enable-background="new 0 0 48 48" xml:space="preserve">
<g>
	<g>
		<path fill="#010101" d="M24,48c-3.9,0-7.5-1.5-10.1-4.2c-2.7-2.7-4.1-6.3-4.1-10.1c0-5.5,3-10.3,7.9-12.7V6.3
			C17.7,2.8,20.5,0,24,0s6.3,2.8,6.3,6.3V21c4.9,2.4,8,7.3,8,12.7C38.3,41.6,31.9,48,24,48z M24,2c-2.3,0-4.3,2-4.3,4.3v15.3
			c0,0.4-0.2,0.8-0.6,0.9c-4.5,2-7.3,6.3-7.3,11.2c0,3.3,1.2,6.3,3.5,8.7c2.3,2.3,5.4,3.6,8.7,3.6c6.8,0,12.3-5.5,12.3-12.3
			c0-4.9-2.9-9.3-7.4-11.2c-0.4-0.2-0.6-0.5-0.6-0.9V6.3C28.3,4,26.3,2,24,2z"/>
		<path fill="#010101" d="M24,43.9c-5.6,0-10.2-4.6-10.2-10.2c0-4.1,2.4-7.7,6.1-9.3l1.8-0.8V6.3C21.7,5.1,22.8,4,24,4
			c1.2,0,2.3,1.1,2.3,2.3v17.3l1.8,0.8c3.7,1.7,6.1,5.3,6.1,9.3C34.2,39.3,29.6,43.9,24,43.9z M24,6c-0.1,0-0.3,0.2-0.3,0.3v17.9
			c0,0.4-0.2,0.7-0.6,0.9l-2.4,1.1c-3,1.3-4.9,4.2-4.9,7.5c0,4.5,3.7,8.2,8.2,8.2s8.2-3.7,8.2-8.2c0-3.2-1.9-6.1-4.9-7.5l-2.4-1.1
			c-0.4-0.2-0.6-0.5-0.6-0.9V6.3C24.3,6.2,24.1,6,24,6z"/>
	</g>
	<path fill="#010101" d="M37.3,6.5h-4.5c-0.6,0-1-0.4-1-1s0.4-1,1-1h4.5c0.6,0,1,0.4,1,1S37.9,6.5,37.3,6.5z"/>
	<path fill="#010101" d="M37.3,10.7h-4.5c-0.6,0-1-0.4-1-1s0.4-1,1-1h4.5c0.6,0,1,0.4,1,1S37.9,10.7,37.3,10.7z"/>
	<path fill="#010101" d="M37.3,14.9h-4.5c-0.6,0-1-0.4-1-1s0.4-1,1-1h4.5c0.6,0,1,0.4,1,1S37.9,14.9,37.3,14.9z"/>
	<path fill="#010101" d="M37.3,19.1h-4.5c-0.6,0-1-0.4-1-1s0.4-1,1-1h4.5c0.6,0,1,0.4,1,1S37.9,19.1,37.3,19.1z"/>
</g>
</svg>
