<?xml version="1.0" encoding="utf-8"?>
<!-- Generator: Adobe Illustrator 16.0.0, SVG Export Plug-In . SVG Version: 6.00 Build 0)  -->
<!DOCTYPE svg PUBLIC "-//W3C//DTD SVG 1.1//EN" "http://www.w3.org/Graphics/SVG/1.1/DTD/svg11.dtd">
<svg version="1.1" id="Layer_1" xmlns="http://www.w3.org/2000/svg" xmlns:xlink="http://www.w3.org/1999/xlink" x="0px" y="0px"
	 width="48px" height="48px" viewBox="0 0 48 48" enable-background="new 0 0 48 48" xml:space="preserve">
<g>
	<path d="M38.5,48h-29c-0.552,0-1-0.447-1-1V1c0-0.552,0.448-1,1-1h29c0.553,0,1,0.448,1,1v46C39.5,47.553,39.053,48,38.5,48z
		 M10.5,46h27V2h-27V46z"/>
	<path d="M24,25c-5.307,0-9.625-4.318-9.625-9.625S18.693,5.75,24,5.75c5.308,0,9.625,4.318,9.625,9.625S29.308,25,24,25z M24,7.75
		c-4.205,0-7.625,3.42-7.625,7.625S19.795,23,24,23c4.204,0,7.625-3.42,7.625-7.625S28.204,7.75,24,7.75z"/>
	<path d="M24,43.5c-2.413,0-4.375-1.963-4.375-4.375S21.587,34.75,24,34.75c2.412,0,4.375,1.963,4.375,4.375S26.412,43.5,24,43.5z
		 M24,36.75c-1.31,0-2.375,1.065-2.375,2.375S22.69,41.5,24,41.5s2.375-1.065,2.375-2.375S25.31,36.75,24,36.75z"/>
</g>
</svg>
