<?xml version="1.0" encoding="utf-8"?>
<!-- Generator: Adobe Illustrator 16.0.0, SVG Export Plug-In . SVG Version: 6.00 Build 0)  -->
<!DOCTYPE svg PUBLIC "-//W3C//DTD SVG 1.1//EN" "http://www.w3.org/Graphics/SVG/1.1/DTD/svg11.dtd">
<svg version="1.1" id="Layer_1" xmlns="http://www.w3.org/2000/svg" xmlns:xlink="http://www.w3.org/1999/xlink" x="0px" y="0px"
	 width="48px" height="48px" viewBox="0 0 48 48" enable-background="new 0 0 48 48" xml:space="preserve">
<g>
	<path d="M41.961,46.094H4.392c-0.552,0-1-0.447-1-1V24.483c0-0.552,0.448-1,1-1h37.569c0.553,0,1,0.448,1,1v20.611
		C42.961,45.646,42.514,46.094,41.961,46.094z M5.392,44.094h35.569V25.482H5.392V44.094z"/>
	<path d="M34.122,25.378c-0.553,0-1-0.447-1-1v-7.697c0-0.552,0.447-1,1-1h1.06v-2.147H14.615v2.147h1.06c0.552,0,1,0.448,1,1v7.697
		c0,0.553-0.448,1-1,1s-1-0.447-1-1v-6.697h-1.06c-0.552,0-1-0.448-1-1v-4.147c0-0.552,0.448-1,1-1h22.566c0.553,0,1,0.448,1,1
		v4.147c0,0.552-0.447,1-1,1h-1.06v6.697C35.122,24.931,34.675,25.378,34.122,25.378z"/>
	<path d="M13.392,24.958c-0.287,0-0.572-0.123-0.77-0.361l-7.421-8.933l-0.958,0.569c-0.428,0.254-0.979,0.153-1.291-0.235
		L0.22,12.589c-0.181-0.226-0.255-0.52-0.204-0.805c0.052-0.285,0.225-0.534,0.474-0.681L19.073,0.098
		c0.428-0.253,0.979-0.154,1.291,0.236l2.732,3.415c0.181,0.226,0.255,0.519,0.203,0.804c-0.052,0.285-0.225,0.533-0.474,0.681
		l-0.702,0.416l4.356,5.442c0.346,0.431,0.275,1.061-0.155,1.406c-0.433,0.346-1.062,0.274-1.405-0.156l-5.077-6.341
		c-0.181-0.226-0.255-0.52-0.203-0.804c0.052-0.285,0.225-0.533,0.474-0.681L20.815,4.1l-1.471-1.838L2.501,12.237l1.468,1.832
		l0.946-0.561c0.424-0.25,0.966-0.156,1.279,0.221l7.966,9.59c0.353,0.425,0.295,1.056-0.13,1.409
		C13.843,24.883,13.617,24.958,13.392,24.958z"/>
	<g>
		<path d="M36.548,48.041c-0.553,0-1-0.447-1-1v-1.43c0-0.553,0.447-1,1-1s1,0.447,1,1v1.43
			C37.548,47.594,37.101,48.041,36.548,48.041z"/>
		<path d="M9.805,48.041c-0.552,0-1-0.447-1-1v-1.43c0-0.553,0.448-1,1-1s1,0.447,1,1v1.43
			C10.805,47.594,10.357,48.041,9.805,48.041z"/>
	</g>
	<path d="M33.082,42.32c-2.859,0-5.186-2.325-5.186-5.184c0-2.859,2.326-5.186,5.186-5.186s5.186,2.326,5.186,5.186
		C38.268,39.995,35.941,42.32,33.082,42.32z M33.082,33.951c-1.757,0-3.186,1.429-3.186,3.186c0,1.756,1.429,3.184,3.186,3.184
		s3.186-1.428,3.186-3.184C36.268,35.38,34.839,33.951,33.082,33.951z"/>
	<path d="M47,32.932c-0.553,0-1-0.447-1-1v-5.576c0-0.553,0.447-1,1-1s1,0.447,1,1v5.576C48,32.484,47.553,32.932,47,32.932z"/>
</g>
</svg>
