<?xml version="1.0" encoding="utf-8"?>
<!-- Generator: Adobe Illustrator 18.0.0, SVG Export Plug-In . SVG Version: 6.00 Build 0)  -->
<!DOCTYPE svg PUBLIC "-//W3C//DTD SVG 1.1//EN" "http://www.w3.org/Graphics/SVG/1.1/DTD/svg11.dtd">
<svg version="1.1" id="Layer_1" xmlns="http://www.w3.org/2000/svg" xmlns:xlink="http://www.w3.org/1999/xlink" x="0px" y="0px"
	 viewBox="0 0 48 48" enable-background="new 0 0 48 48" xml:space="preserve">
<g>
	<path fill="#010101" d="M38.2,48H14.8V37.3C6.6,35,1.2,29.2,1.2,22.7v-1h28.1c-0.1-0.7-0.2-1.4-0.2-2H0v-6h29V5c0-2.8,2.4-5,5.4-5
		h8.2c2.9,0,5.4,2.2,5.5,5l0,15.7c0,2.2-1.6,4.1-3.9,4.7c-0.8,3.2-2.9,6.1-6,8.4V48z M16.8,46h19.4V32.8l0.4-0.3
		c3.2-2.2,5.2-5,5.8-8.1l0.1-0.7l0.7-0.1c1.6-0.2,2.8-1.5,2.8-2.9V5c-0.1-1.6-1.6-3-3.5-3h-8.2C32.5,2,31,3.3,31,5v10.7H2v2h29v1
		c0,1,0.2,3,0.4,3.4l1.3,1.6l-2.1-0.1H3.3C3.8,29,8.8,33.7,16,35.5l0.8,0.2V46z"/>
</g>
</svg>
