<?xml version="1.0" encoding="utf-8"?>
<!-- Generator: Adobe Illustrator 18.0.0, SVG Export Plug-In . SVG Version: 6.00 Build 0)  -->
<!DOCTYPE svg PUBLIC "-//W3C//DTD SVG 1.1//EN" "http://www.w3.org/Graphics/SVG/1.1/DTD/svg11.dtd">
<svg version="1.1" id="Layer_1" xmlns="http://www.w3.org/2000/svg" xmlns:xlink="http://www.w3.org/1999/xlink" x="0px" y="0px"
	 viewBox="0 0 48 48" enable-background="new 0 0 48 48" xml:space="preserve">
<g>
	<path fill="#010101" d="M37.7,35.8c-5.8,0-10.3-7.9-10.3-17.9C27.4,7.9,31.9,0,37.7,0S48,7.9,48,17.9C48,27.9,43.5,35.8,37.7,35.8z
		 M37.7,2c-4.5,0-8.3,7.3-8.3,15.9s3.8,15.9,8.3,15.9S46,26.5,46,17.9S42.2,2,37.7,2z"/>
	<path fill="#010101" d="M37.7,24.2c-2.2,0-3.9-2.7-3.9-6.3c0-3.6,1.7-6.3,3.9-6.3c2.2,0,3.9,2.7,3.9,6.3
		C41.6,21.5,39.9,24.2,37.7,24.2z M37.7,13.6c-0.8,0-1.9,1.7-1.9,4.3s1.1,4.3,1.9,4.3s1.9-1.7,1.9-4.3S38.5,13.6,37.7,13.6z"/>
	<path fill="#010101" d="M34.7,48H7.8l-0.3-0.5c-17-28.5,0-47,0.1-47.2L8,0h29.3l-1.8,1.7c-13.1,12.8-3.3,37.3,0,44.5
		c0.2,0.5,0.4,0.8,0.1,1.3L35.2,48H34.7z M9,46h24.2c-3.6-8.3-11.8-30.6-0.6-44H8.8C6.7,4.5-5.8,20.8,9,46z"/>
	<rect x="20" y="11.5" fill="#010101" width="4.7" height="2"/>
	<rect x="13" y="11.5" fill="#010101" width="4.7" height="2"/>
	<rect x="6.1" y="11.5" fill="#010101" width="4.6" height="2"/>
	<rect x="30.1" y="33.7" fill="#010101" width="7.6" height="2"/>
</g>
</svg>
