<?xml version="1.0" encoding="utf-8"?>
<!-- Generator: Adobe Illustrator 16.0.0, SVG Export Plug-In . SVG Version: 6.00 Build 0)  -->
<!DOCTYPE svg PUBLIC "-//W3C//DTD SVG 1.1//EN" "http://www.w3.org/Graphics/SVG/1.1/DTD/svg11.dtd">
<svg version="1.1" id="Layer_1" xmlns="http://www.w3.org/2000/svg" xmlns:xlink="http://www.w3.org/1999/xlink" x="0px" y="0px"
	 width="48px" height="48px" viewBox="0 0 48 48" enable-background="new 0 0 48 48" xml:space="preserve">
<g>
	<path d="M24,48C11.881,48,2.022,39.037,2.022,28.02c0-6.485,3.483-12.591,9.318-16.333c0.466-0.299,1.083-0.164,1.382,0.302
		c0.298,0.465,0.163,1.083-0.302,1.382c-5.259,3.373-8.398,8.85-8.398,14.65C4.022,37.934,12.984,46,24,46
		c11.017,0,19.979-8.066,19.979-17.98c0-6.678-4.08-12.771-10.646-15.9c-0.499-0.238-0.711-0.834-0.473-1.333
		c0.236-0.499,0.832-0.71,1.332-0.473c7.271,3.464,11.787,10.249,11.787,17.706C45.979,39.037,36.119,48,24,48z"/>
	<path d="M24.1,29.02c-0.123,0-0.247-0.022-0.366-0.069c-0.203-0.079-4.462-1.794-5.416-5.374c-1.154,0.425-2.965,0.952-4.841,0.952
		c-0.804,0-1.56-0.098-2.247-0.291c-0.472-0.133-0.778-0.588-0.723-1.075c0.02-0.174,0.469-3.905,3.131-6.9
		c-1.011-0.743-2.382-2.117-3.081-4.409c-0.133-0.437,0.048-0.909,0.438-1.146c0.387-0.236,3.893-2.307,7.629-2.307
		c1.3,0,2.485,0.252,3.532,0.752c0.869-0.528,2.691-1.397,5.265-1.397c2.514,0,5.119,0.818,7.744,2.432
		c0.37,0.227,0.551,0.667,0.448,1.089c-0.103,0.421-0.466,0.729-0.898,0.761c-0.078,0.006-1.748,0.166-2.997,1.536
		c1.288,0.74,3.431,2.352,5.615,5.67c0.224,0.339,0.22,0.779-0.01,1.114c-0.229,0.335-0.64,0.498-1.034,0.414
		c-0.028-0.006-2.921-0.617-5.411-0.617c-1.103,0-1.789,0.119-2.21,0.25c0.03,1.509-0.354,4.936-3.874,8.334
		C24.604,28.922,24.354,29.02,24.1,29.02z M19.13,21.155c0.183,0,0.366,0.05,0.526,0.149c0.293,0.181,0.472,0.5,0.474,0.845
		c0.013,2.479,2.571,4.066,3.751,4.668c3.271-3.483,2.777-6.709,2.753-6.851c-0.064-0.388,0.103-0.786,0.43-1.004
		c0.814-0.543,2.062-0.808,3.814-0.808c1.144,0,2.34,0.113,3.349,0.246c-2.356-2.826-4.286-3.474-4.309-3.481
		c-0.285-0.091-0.52-0.308-0.63-0.586c-0.109-0.278-0.094-0.593,0.052-0.855c0.748-1.343,1.785-2.164,2.738-2.664
		c-1.595-0.703-3.154-1.058-4.657-1.058c-2.867,0-4.558,1.327-4.574,1.34c-0.325,0.26-0.784,0.296-1.142,0.083
		c-0.866-0.516-1.903-0.777-3.081-0.777c-2.377,0-4.734,1.036-5.878,1.624c0.99,2.289,2.803,3.083,2.887,3.119
		c0.316,0.135,0.545,0.423,0.6,0.763s-0.065,0.685-0.324,0.912c-2.079,1.829-2.924,4.341-3.242,5.667
		c0.259,0.03,0.529,0.044,0.809,0.044c2.597,0,5.185-1.258,5.211-1.271C18.828,21.189,18.979,21.155,19.13,21.155z"/>
	<path d="M22.684,15.941c-0.454,0-0.865-0.311-0.973-0.772C19.582,6.056,24.85,0.532,25.074,0.301
		c0.388-0.395,1.02-0.402,1.414-0.017s0.403,1.017,0.02,1.412c-0.197,0.204-4.72,5.011-2.849,13.017
		c0.126,0.538-0.208,1.076-0.746,1.201C22.836,15.933,22.76,15.941,22.684,15.941z"/>
</g>
</svg>
