<?xml version="1.0" encoding="utf-8"?>
<!-- Generator: Adobe Illustrator 18.0.0, SVG Export Plug-In . SVG Version: 6.00 Build 0)  -->
<!DOCTYPE svg PUBLIC "-//W3C//DTD SVG 1.1//EN" "http://www.w3.org/Graphics/SVG/1.1/DTD/svg11.dtd">
<svg version="1.1" id="Layer_1" xmlns="http://www.w3.org/2000/svg" xmlns:xlink="http://www.w3.org/1999/xlink" x="0px" y="0px"
	 viewBox="0 0 48 48" enable-background="new 0 0 48 48" xml:space="preserve">
<g>
	<path fill="#010101" d="M23.8,48C23.8,48,23.8,48,23.8,48H7.1c-0.3,0-0.5-0.1-0.7-0.3c-0.2-0.2-0.3-0.5-0.3-0.8l2.6-36.4
		c0-0.5,0.5-0.9,1-0.9h11.5c0.5,0,1,0.4,1,0.9l2.6,36.2c0,0.1,0,0.2,0,0.3C24.8,47.6,24.4,48,23.8,48z M8.2,46h14.6l-2.5-34.4h-9.6
		L8.2,46z"/>
	<path fill="#010101" d="M20.4,11.6h-9.8c-0.6,0-1-0.4-1-1V1c0-0.6,0.4-1,1-1h9.8c0.6,0,1,0.4,1,1v9.6C21.4,11.2,21,11.6,20.4,11.6z
		 M11.6,9.6h7.8V2h-7.8V9.6z"/>
	<path fill="#010101" d="M34.7,48c-0.1,0-0.1,0-0.2,0c-0.5-0.1-0.9-0.6-0.8-1.1l4.5-27.4c0-0.1,0-0.1,0-0.2l1.6-4.6V1
		c0-0.6,0.4-1,1-1s1,0.4,1,1v13.8c0,0.1,0,0.2-0.1,0.3l-1.7,4.7l-4.5,27.3C35.6,47.7,35.2,48,34.7,48z"/>
	<path fill="#010101" d="M38.4,3.2h-5.5c-0.6,0-1-0.4-1-1s0.4-1,1-1h5.5c0.6,0,1,0.4,1,1S39,3.2,38.4,3.2z"/>
	<path fill="#010101" d="M38.4,5.9h-5.5c-0.6,0-1-0.4-1-1s0.4-1,1-1h5.5c0.6,0,1,0.4,1,1S39,5.9,38.4,5.9z"/>
	<path fill="#010101" d="M38.4,8.5h-5.5c-0.6,0-1-0.4-1-1s0.4-1,1-1h5.5c0.6,0,1,0.4,1,1S39,8.5,38.4,8.5z"/>
	<path fill="#010101" d="M38.4,11.2h-5.5c-0.6,0-1-0.4-1-1s0.4-1,1-1h5.5c0.6,0,1,0.4,1,1S39,11.2,38.4,11.2z"/>
	<path fill="#010101" d="M38.4,13.8h-5.5c-0.6,0-1-0.4-1-1s0.4-1,1-1h5.5c0.6,0,1,0.4,1,1S39,13.8,38.4,13.8z"/>
</g>
</svg>
