<?xml version="1.0" encoding="utf-8"?>
<!-- Generator: Adobe Illustrator 18.0.0, SVG Export Plug-In . SVG Version: 6.00 Build 0)  -->
<!DOCTYPE svg PUBLIC "-//W3C//DTD SVG 1.1//EN" "http://www.w3.org/Graphics/SVG/1.1/DTD/svg11.dtd">
<svg version="1.1" id="Layer_1" xmlns="http://www.w3.org/2000/svg" xmlns:xlink="http://www.w3.org/1999/xlink" x="0px" y="0px"
	 viewBox="0 0 48 48" enable-background="new 0 0 48 48" xml:space="preserve">
<g>
	<path fill="#010101" d="M39.6,45H4.8C2.2,45,0,42.8,0,40.2s2.2-4.8,4.8-4.8h34.8c2.6,0,4.8,2.2,4.8,4.8S42.2,45,39.6,45z M4.8,37.4
		c-1.5,0-2.8,1.3-2.8,2.8S3.3,43,4.8,43h34.8c1.5,0,2.8-1.3,2.8-2.8s-1.3-2.8-2.8-2.8H4.8z"/>
	<polygon fill="#010101" points="39,36.8 37.2,36 45.8,15.5 40.7,9.7 42.1,8.3 48.2,15.1 	"/>
	<path fill="#010101" d="M26.7,8.4c-2.4,0-4.4-1.9-4.4-4.2s2-4.2,4.4-4.2c2.4,0,4.4,1.9,4.4,4.2S29.1,8.4,26.7,8.4z M26.7,2
		c-1.3,0-2.4,1-2.4,2.2c0,1.2,1.1,2.2,2.4,2.2s2.4-1,2.4-2.2C29.1,3,28,2,26.7,2z"/>
	<path fill="#010101" d="M31.1,35c-1.4,0-2.6-0.9-2.9-2.2c0-0.1-0.1-0.2-0.1-0.3c-1.8-4.6-4.3-7.4-6.5-9c-0.9,2.5-2.1,4.3-3.8,5.7
		c-2.3,1.8-5.1,2.5-8.3,2.1c-1.6-0.1-2.8-1.6-2.7-3.3c0.1-1.6,1.7-2.8,3.4-2.6c1.6,0.2,2.8-0.1,3.7-0.8c2-1.5,2.3-4.9,2.3-4.9
		c0-0.4,0.1-0.9,0.4-1.3L19,13c-0.3,0-0.5,0-0.6,0.1c-0.9,0.4-1.5,1.9-1.9,4.3c-0.1,1.4-1.4,2.6-3,2.6h-0.3
		c-0.9-0.1-1.6-0.5-2.1-1.1c-0.5-0.6-0.7-1.4-0.7-2.2c0.7-4.5,2.5-7.5,5.4-8.8C18.7,6.5,22.2,7,26,9.3c0.6,0.4,1.3,0.6,2,0.6
		c2.1,0,3.9-1.8,4.3-2.2l0.1-0.1c1-1.2,3-1.4,4.3-0.4c0.7,0.5,1.1,1.2,1.2,2c0.1,0.7-0.1,1.5-0.6,2c-1.7,2.2-5.2,4.5-8.9,4.6
		l-1.7,4.1c5,4.3,6.9,9.7,7.4,11.3l0,0.2c0.3,1.5-0.6,3-2,3.5C31.7,35,31.3,35,31.1,35z M29.8,31.5h0.1l0.2,0.8
		c0.1,0.4,0.5,0.7,1,0.7h0l0.2-0.1c0.6-0.2,0.9-0.7,0.8-1.2c-0.5-1.7-2.5-6.9-7.4-10.9l-0.6-0.5l2.7-6.7l0.7,0
		c3.3,0.2,6.4-1.9,8-3.8c0.1-0.2,0.2-0.3,0.2-0.5c0-0.1-0.1-0.4-0.4-0.7c-0.2-0.2-0.5-0.2-0.7-0.2c-0.3,0-0.7,0.1-0.9,0.4l0,0
		c-0.6,0.8-2.9,3-5.9,3c-1,0-2-0.3-3-0.8c-3.3-2-6.1-2.5-8.4-1.4c-2.2,1-3.7,3.5-4.2,7.2c0,0.2,0.1,0.5,0.2,0.7
		c0.2,0.2,0.4,0.3,0.7,0.4l0.2,0c0.5,0,1-0.3,1-0.8c0.5-3.2,1.4-5,2.9-5.8c0.8-0.4,2-0.4,3.2-0.1l1.1,0.3l-3.4,7.9
		c-0.1,0.1-0.1,0.2-0.1,0.3c0,0.3-0.4,4.4-3.1,6.4c-1.2,1-3,1.4-5.1,1.2c0,0-0.1,0-0.1,0c-0.5,0-1,0.3-1.1,0.8
		c-0.1,0.6,0.4,1.1,0.9,1.1c0.5,0.1,1,0.1,1.5,0.1c2,0,3.8-0.6,5.3-1.8c1.6-1.3,2.8-3.3,3.6-6l0.4-1.3l1.1,0.7
		C24,22.7,27.5,25.8,29.8,31.5z"/>
	<rect x="5.5" y="46" fill="#010101" width="4.8" height="2"/>
	<rect x="33.3" y="46" fill="#010101" width="4.8" height="2"/>
</g>
</svg>
