<?xml version="1.0" encoding="utf-8"?>
<!-- Generator: Adobe Illustrator 18.0.0, SVG Export Plug-In . SVG Version: 6.00 Build 0)  -->
<!DOCTYPE svg PUBLIC "-//W3C//DTD SVG 1.1//EN" "http://www.w3.org/Graphics/SVG/1.1/DTD/svg11.dtd">
<svg version="1.1" id="Layer_1" xmlns="http://www.w3.org/2000/svg" xmlns:xlink="http://www.w3.org/1999/xlink" x="0px" y="0px"
	 viewBox="0 0 48 48" enable-background="new 0 0 48 48" xml:space="preserve">
<g>
	<path fill="#010101" d="M31.7,34.3c-2.1,0-4-1.1-5.2-2.8C25.8,31.8,25,32,24.2,32c-1.8,0-3.5-0.9-4.5-2.3c-0.5,0.1-1,0.2-1.5,0.2
		c-3.6,0-6.5-2.8-6.5-6.4c0-2.1,1-4,2.7-5.2c-0.3-0.8-0.5-1.6-0.5-2.4c0-2.9,2.1-5.3,4.8-5.9c0.2-2.9,2.7-5.1,5.6-5.1
		c0.2,0,0.4,0,0.6,0c0.4-2.5,2.6-4.3,5.2-4.3c2.9,0,5.2,2.2,5.3,5c0.2,0,0.4,0,0.6,0c2.6,0,4.8,1.8,5.2,4.3c3.5,0,6.2,2.7,6.2,6.2
		c0,1.6-0.7,3.2-1.7,4.3c0.7,1.1,1.1,2.4,1.1,3.7c0,3.9-3.2,7.1-7.2,7.1c-0.9,0-1.7-0.2-2.3-0.4C36.3,32.9,34.1,34.3,31.7,34.3z
		 M27.3,28.5l0.5,1.2c0.7,1.5,2.2,2.6,3.9,2.6c1.9,0,3.5-1.3,4-3.1l0.3-1.1l1.1,0.5c0.7,0.3,1.5,0.6,2.5,0.6c2.9,0,5.2-2.3,5.2-5.1
		c0-1.2-0.5-2.4-1.2-3.2L42.8,20l1-0.6c1-0.7,1.7-2,1.7-3.3c0-2.4-1.8-4.2-4.2-4.2c-0.2,0-0.4,0-0.6,0l-1.3,0.4v-1.5
		c0-1.9-1.4-3.3-3.3-3.3c-0.5,0-0.8,0.1-1.4,0.2l-1.9,0.6l0.6-1.9c0-0.1,0-0.5,0-0.7c0-1.9-1.5-3.3-3.3-3.3S26.8,4,26.8,5.9v1.8
		l-1.4-0.5C25,7,24.7,6.9,24.3,6.9c-2,0-3.6,1.6-3.6,3.6v1.4l-1,0c-2.2,0.1-3.8,1.8-3.8,4c0,0.8,0.2,1.6,0.6,2.3l0.6,0.9l-1,0.5
		c-1.5,0.8-2.4,2.3-2.4,3.9c0,2.5,2,4.4,4.5,4.4c0.6,0,1.1-0.1,1.6-0.3l0.9-0.4l0.4,0.9c0.6,1.2,1.7,1.9,3.1,1.9
		c0.8,0,1.5-0.2,2.1-0.7L27.3,28.5z"/>
	<polygon fill="#010101" points="30.5,46.4 28.5,46.4 28.5,38.6 23,31.5 24.6,30.3 30.5,38 	"/>
	<rect x="31.5" y="30.5" transform="matrix(0.74 0.6726 -0.6726 0.74 31.9924 -12.7597)" fill="#010101" width="2" height="8.9"/>
	<rect x="1.6" y="40.4" fill="#010101" width="22.9" height="2"/>
	<g>
		<rect x="6.1" y="42.1" fill="#010101" width="2" height="4.3"/>
		<rect x="18" y="42.1" fill="#010101" width="2" height="4.3"/>
	</g>
</g>
</svg>
