<?xml version="1.0" encoding="utf-8"?>
<!-- Generator: Adobe Illustrator 18.0.0, SVG Export Plug-In . SVG Version: 6.00 Build 0)  -->
<!DOCTYPE svg PUBLIC "-//W3C//DTD SVG 1.1//EN" "http://www.w3.org/Graphics/SVG/1.1/DTD/svg11.dtd">
<svg version="1.1" id="Layer_1" xmlns="http://www.w3.org/2000/svg" xmlns:xlink="http://www.w3.org/1999/xlink" x="0px" y="0px"
	 viewBox="0 0 48 48" enable-background="new 0 0 48 48" xml:space="preserve">
<g>
	<g>
		<path fill="#010101" d="M24,36.7c-7.6,0-13.6-11.3-13.6-25.8c0-3.8,0.3-7.2,1-10.1L11.6,0h24.8l0.2,0.8c0.7,3.5,1,6.8,1,10.1
			C37.6,25.4,31.6,36.7,24,36.7z M13.2,2c-0.5,2.6-0.8,5.6-0.8,8.9c0,13.1,5.2,23.8,11.6,23.8S35.6,24,35.6,10.9
			c0-2.9-0.3-5.8-0.8-8.9H13.2z"/>
		<rect x="23" y="36.7" fill="#010101" width="2" height="10.3"/>
		<rect x="16.5" y="46" fill="#010101" width="15" height="2"/>
		<g>
			<path fill="#010101" d="M14.6,29.9C-3,17.8,0.1,4.4,0.2,3.9l0.2-0.8h10.8v2H2C1.7,8,1.4,18.4,15.8,28.3L14.6,29.9z"/>
			<path fill="#010101" d="M33.4,29.9l-1.1-1.6C46.4,18.5,46.3,8,46,5.1h-9.2v-2h10.8l0.2,0.8C47.9,4.4,51,17.8,33.4,29.9z"/>
		</g>
	</g>
	<path fill="#010101" d="M24,20.8c-3.3,0-6-2.7-6-6s2.7-6,6-6s6,2.7,6,6S27.3,20.8,24,20.8z M24,10.8c-2.2,0-4,1.8-4,4s1.8,4,4,4
		c2.2,0,4-1.8,4-4S26.2,10.8,24,10.8z"/>
</g>
</svg>
