<?xml version="1.0" encoding="utf-8"?>
<!-- Generator: Adobe Illustrator 16.0.0, SVG Export Plug-In . SVG Version: 6.00 Build 0)  -->
<!DOCTYPE svg PUBLIC "-//W3C//DTD SVG 1.1//EN" "http://www.w3.org/Graphics/SVG/1.1/DTD/svg11.dtd">
<svg version="1.1" id="Layer_1" xmlns="http://www.w3.org/2000/svg" xmlns:xlink="http://www.w3.org/1999/xlink" x="0px" y="0px"
	 width="48px" height="48px" viewBox="0 0 48 48" enable-background="new 0 0 48 48" xml:space="preserve">
<g>
	<path d="M13.335,10.474c-0.481,0-0.906-0.348-0.986-0.838c-0.089-0.545,0.28-1.06,0.825-1.148c4.448-0.728,5.164-4.173,5.191-4.32
		c0.105-0.54,0.626-0.9,1.166-0.797c0.541,0.1,0.899,0.614,0.802,1.155c-0.036,0.203-0.954,4.973-6.836,5.935
		C13.443,10.47,13.388,10.474,13.335,10.474z"/>
	<path d="M15.891,48c-0.042,0-0.085-0.003-0.128-0.008l-9.037-1.158c-0.271-0.035-0.517-0.18-0.679-0.4
		c-0.162-0.221-0.227-0.498-0.178-0.768l7.994-44.841C13.948,0.348,14.363,0,14.847,0h18.305c0.484,0,0.899,0.348,0.984,0.825
		l7.994,44.841c0.048,0.27-0.017,0.547-0.179,0.768s-0.407,0.365-0.679,0.4l-9.037,1.158c-0.506,0.057-0.969-0.254-1.095-0.741
		L24,19.701l-7.142,27.55C16.743,47.696,16.341,48,15.891,48z M8.022,44.983l7.121,0.913l7.889-30.432
		c0.114-0.441,0.512-0.749,0.968-0.749s0.854,0.308,0.968,0.749l7.889,30.432l7.121-0.913L32.314,2l-8.252,0.027
		c-0.041,0.003-0.083,0.003-0.124,0l-0.464-0.029L15.685,2L8.022,44.983z"/>
	<path d="M34.665,10.474c-0.054,0-0.107-0.004-0.162-0.013c-5.882-0.962-6.801-5.732-6.837-5.935
		c-0.098-0.544,0.265-1.063,0.809-1.161c0.54-0.097,1.06,0.262,1.159,0.802c0.029,0.153,0.748,3.592,5.191,4.319
		c0.545,0.089,0.915,0.603,0.826,1.148C35.57,10.126,35.146,10.474,34.665,10.474z"/>
	<path d="M24,10.224c-0.552,0-1-0.448-1-1v-7.87c0-0.552,0.448-1,1-1c0.553,0,1,0.448,1,1v7.87C25,9.776,24.553,10.224,24,10.224z"
		/>
</g>
</svg>
