<?xml version="1.0" encoding="utf-8"?>
<!-- Generator: Adobe Illustrator 18.0.0, SVG Export Plug-In . SVG Version: 6.00 Build 0)  -->
<!DOCTYPE svg PUBLIC "-//W3C//DTD SVG 1.1//EN" "http://www.w3.org/Graphics/SVG/1.1/DTD/svg11.dtd">
<svg version="1.1" id="Layer_1" xmlns="http://www.w3.org/2000/svg" xmlns:xlink="http://www.w3.org/1999/xlink" x="0px" y="0px"
	 viewBox="0 0 48 48" enable-background="new 0 0 48 48" xml:space="preserve">
<g>
	<path fill="#010101" d="M24.3,48C10.9,48,0,37.1,0,23.8C0,12.2,8.4,2.1,19.9-0.1C20.3-0.2,20.8,0,21,0.4c0.2,0.4,0.1,0.9-0.2,1.2
		c-4.3,4.3-6.7,10-6.7,15.9c0,12.2,10,22.2,22.3,22.2c1.4,0,2.8-0.1,4-0.3c0.4-0.1,0.9,0.2,1,0.5c0.2,0.4,0.1,0.9-0.2,1.2
		C36.8,45.6,30.7,48,24.3,48z M17.2,2.7C8.2,5.8,2,14.2,2,23.8C2,36,12,46,24.3,46c4.8,0,9.5-1.5,13.3-4.3c-0.4,0-0.8,0-1.2,0
		c-13.4,0-24.3-10.9-24.3-24.2C12.1,12.1,13.9,7,17.2,2.7z"/>
	<path fill="#010101" d="M35.1,15.9c-0.2,0-0.4-0.1-0.6-0.2c-0.3-0.2-0.5-0.6-0.4-1l0.8-4.5L31.6,7c-0.3-0.3-0.4-0.7-0.3-1
		c0.1-0.4,0.4-0.6,0.8-0.7l4.6-0.6l2-4.1C38.9,0.2,39.2,0,39.6,0c0.4,0,0.7,0.2,0.9,0.6l2.1,4.1l4.6,0.6C47.5,5.4,47.8,5.6,48,6
		c0.1,0.4,0,0.8-0.3,1l-3.3,3.2l0.8,4.5c0.1,0.4-0.1,0.8-0.4,1c-0.3,0.2-0.7,0.3-1.1,0.1l-4.1-2.2l-4,2.2
		C35.4,15.9,35.3,15.9,35.1,15.9z M39.6,11.5c0.2,0,0.3,0,0.5,0.1l2.8,1.5l-0.5-3c-0.1-0.3,0-0.7,0.3-0.9L44.8,7l-3.1-0.4
		c-0.3,0-0.6-0.2-0.8-0.5l-1.4-2.8L38.3,6c-0.1,0.3-0.4,0.5-0.8,0.6L34.5,7l2.2,2.2c0.2,0.2,0.3,0.6,0.3,0.9l-0.5,3l2.7-1.4
		C39.3,11.5,39.4,11.5,39.6,11.5z"/>
	<path fill="#010101" d="M28,31.3c-0.2,0-0.4-0.1-0.6-0.2c-0.3-0.2-0.5-0.6-0.4-1l0.6-3.3l-2.4-2.3c-0.3-0.3-0.4-0.7-0.3-1
		c0.1-0.4,0.4-0.6,0.8-0.7l3.3-0.5l1.6-3c0.2-0.3,0.5-0.5,0.9-0.5c0.4,0,0.7,0.2,0.9,0.6l1.5,3l3.4,0.5c0.4,0.1,0.7,0.3,0.8,0.7
		s0,0.8-0.3,1l-2.4,2.3l0.5,3.3c0.1,0.4-0.1,0.8-0.4,1c-0.3,0.2-0.7,0.2-1,0.1l-2.9-1.6l-3,1.6C28.3,31.3,28.2,31.3,28,31.3z
		 M31.5,27.5c0.2,0,0.3,0,0.5,0.1l1.6,0.9l-0.3-1.8c-0.1-0.3,0.1-0.6,0.3-0.9l1.3-1.3L33,24.2c-0.3,0-0.6-0.3-0.7-0.6l-0.8-1.7
		l-0.9,1.7c-0.1,0.3-0.4,0.5-0.7,0.5L28,24.5l1.4,1.3c0.2,0.2,0.3,0.6,0.3,0.9l-0.3,1.8l1.7-0.9C31.2,27.5,31.3,27.5,31.5,27.5z"/>
</g>
</svg>
