<?xml version="1.0" encoding="utf-8"?>
<!-- Generator: Adobe Illustrator 18.0.0, SVG Export Plug-In . SVG Version: 6.00 Build 0)  -->
<!DOCTYPE svg PUBLIC "-//W3C//DTD SVG 1.1//EN" "http://www.w3.org/Graphics/SVG/1.1/DTD/svg11.dtd">
<svg version="1.1" id="Layer_1" xmlns="http://www.w3.org/2000/svg" xmlns:xlink="http://www.w3.org/1999/xlink" x="0px" y="0px"
	 viewBox="0 0 48 48" enable-background="new 0 0 48 48" xml:space="preserve">
<g>
	<g>
		<path fill="#010101" d="M47.1,26.9h-2c0-11.1-9.5-20.2-21.1-20.2S2.9,15.8,2.9,26.9h-2C0.9,14.7,11.3,4.7,24,4.7
			S47.1,14.7,47.1,26.9z"/>
		<path fill="#010101" d="M36.2,26.9h-2c0-7.9-1.9-17.8-10.8-20.2L24,4.7C32,6.9,36.2,14.6,36.2,26.9z"/>
		<path fill="#010101" d="M13.2,26.9h-2c0-12.3,4.2-20,12.2-22.2L24,6.7C15.1,9.1,13.2,19,13.2,26.9z"/>
		<path fill="#010101" d="M17.7,47.9c-4,0-7.3-3.4-7.3-7.6h2c0,3.1,2.4,5.6,5.3,5.6s5.3-2.5,5.3-5.6v-14h2v14
			C25,44.5,21.7,47.9,17.7,47.9z"/>
		<rect x="23" y="1" fill="#010101" width="2" height="4.7"/>
	</g>
	<rect x="1" y="25.3" fill="#010101" width="46" height="2"/>
</g>
</svg>
