<?xml version="1.0" encoding="utf-8"?>
<!-- Generator: Adobe Illustrator 16.0.0, SVG Export Plug-In . SVG Version: 6.00 Build 0)  -->
<!DOCTYPE svg PUBLIC "-//W3C//DTD SVG 1.1//EN" "http://www.w3.org/Graphics/SVG/1.1/DTD/svg11.dtd">
<svg version="1.1" id="Layer_1" xmlns="http://www.w3.org/2000/svg" xmlns:xlink="http://www.w3.org/1999/xlink" x="0px" y="0px"
	 width="48px" height="48px" viewBox="0 0 48 48" enable-background="new 0 0 48 48" xml:space="preserve">
<g>
	<path d="M37.247,15.218H12.341c-0.469,0-0.875-0.326-0.977-0.784c-0.173-0.78-0.26-1.565-0.26-2.332
		C11.104,5.429,17.245,0,24.793,0c7.55,0,13.691,5.429,13.691,12.102c0,0.763-0.088,1.547-0.261,2.332
		C38.122,14.892,37.716,15.218,37.247,15.218z M13.179,13.218h23.23c0.05-0.377,0.075-0.75,0.075-1.116
		C36.484,6.532,31.239,2,24.793,2c-6.445,0-11.689,4.532-11.689,10.102C13.104,12.469,13.129,12.842,13.179,13.218z"/>
	<path d="M24.793,36.221c-3.954,0-7.171-2.871-7.171-6.4c0-0.553,0.448-1,1-1s1,0.447,1,1c0,2.427,2.32,4.4,5.171,4.4
		c2.853,0,5.173-1.974,5.173-4.4c0-0.553,0.447-1,1-1s1,0.447,1,1C31.966,33.35,28.748,36.221,24.793,36.221z"/>
	<path d="M24.793,48c-0.552,0-1-0.447-1-1V14.218c0-0.552,0.448-1,1-1c0.553,0,1,0.448,1,1V47C25.793,47.553,25.346,48,24.793,48z"
		/>
	<path d="M32.637,48H16.951c-0.552,0-1-0.447-1-1s0.448-1,1-1h15.686c0.553,0,1,0.447,1,1S33.189,48,32.637,48z"/>
	<path d="M32.637,30.82H16.951c-0.552,0-1-0.447-1-1s0.448-1,1-1h15.686c0.553,0,1,0.447,1,1S33.189,30.82,32.637,30.82z"/>
	<path d="M10.518,23.031c-0.312,0-0.618-0.145-0.813-0.417c-0.322-0.449-0.219-1.073,0.229-1.396l4.583-3.29
		c0.17-0.122,0.374-0.188,0.583-0.188h9.693c0.553,0,1,0.448,1,1s-0.447,1-1,1h-9.371L11.1,22.844
		C10.924,22.97,10.72,23.031,10.518,23.031z"/>
</g>
</svg>
