<?xml version="1.0" encoding="utf-8"?>
<!-- Generator: Adobe Illustrator 18.0.0, SVG Export Plug-In . SVG Version: 6.00 Build 0)  -->
<!DOCTYPE svg PUBLIC "-//W3C//DTD SVG 1.1//EN" "http://www.w3.org/Graphics/SVG/1.1/DTD/svg11.dtd">
<svg version="1.1" id="Layer_1" xmlns="http://www.w3.org/2000/svg" xmlns:xlink="http://www.w3.org/1999/xlink" x="0px" y="0px"
	 viewBox="0 0 48 48" enable-background="new 0 0 48 48" xml:space="preserve">
<g>
	<path fill="#010101" d="M24,48C10.8,48,0,37.2,0,24S10.8,0,24,0s24,10.8,24,24S37.2,48,24,48z M24,2C11.9,2,2,11.9,2,24
		s9.9,22,22,22s22-9.9,22-22S36.1,2,24,2z"/>
	<path fill="#010101" d="M24,48c-7.7,0-13.7-10.5-13.7-24S16.3,0,24,0c7.7,0,13.7,10.5,13.7,24S31.7,48,24,48z M24,2
		c-6.5,0-11.7,9.9-11.7,22S17.5,46,24,46c6.5,0,11.7-9.9,11.7-22S30.5,2,24,2z"/>
	<g>
		<path fill="#010101" d="M24,48c-0.6,0-1-0.4-1-1V1c0-0.6,0.4-1,1-1c0.6,0,1,0.4,1,1v46C25,47.6,24.6,48,24,48z"/>
	</g>
	<g>
		<path fill="#010101" d="M44,36.6H4c-0.6,0-1-0.4-1-1s0.4-1,1-1h40c0.6,0,1,0.4,1,1S44.6,36.6,44,36.6z"/>
	</g>
	<g>
		<path fill="#010101" d="M47,25H1c-0.6,0-1-0.4-1-1c0-0.6,0.4-1,1-1h46c0.6,0,1,0.4,1,1C48,24.6,47.6,25,47,25z"/>
	</g>
	<g>
		<path fill="#010101" d="M44,13.4H4c-0.6,0-1-0.4-1-1s0.4-1,1-1h40c0.6,0,1,0.4,1,1S44.6,13.4,44,13.4z"/>
	</g>
</g>
</svg>
