<?xml version="1.0" encoding="utf-8"?>
<!-- Generator: Adobe Illustrator 18.0.0, SVG Export Plug-In . SVG Version: 6.00 Build 0)  -->
<!DOCTYPE svg PUBLIC "-//W3C//DTD SVG 1.1//EN" "http://www.w3.org/Graphics/SVG/1.1/DTD/svg11.dtd">
<svg version="1.1" id="Layer_1" xmlns="http://www.w3.org/2000/svg" xmlns:xlink="http://www.w3.org/1999/xlink" x="0px" y="0px"
	 viewBox="0 0 48 48" enable-background="new 0 0 48 48" xml:space="preserve">
<g>
	<path fill="#010101" d="M48,47.9H0V0h11.7l28.9,33.5H48V47.9z M2,45.9h44V35.5h-6.4L10.7,2H2V45.9z"/>
	<polygon fill="#010101" points="36.3,47.7 7.7,14.5 1,14.5 1,12.5 8.7,12.5 37.9,46.3 	"/>
	<path fill="#010101" d="M41.6,20.8c-0.2-0.1-0.3-0.2-15.5-15.3l1.4-1.4c5.8,5.8,14.6,14.6,15.1,15l-0.6,0.7L41.6,20.8z"/>
	<polygon fill="#010101" points="26.7,10.3 24.7,10.3 24.7,2.7 32.3,2.7 32.3,4.7 26.7,4.7 	"/>
</g>
</svg>
