<?xml version="1.0" encoding="utf-8"?>
<!-- Generator: Adobe Illustrator 16.0.0, SVG Export Plug-In . SVG Version: 6.00 Build 0)  -->
<!DOCTYPE svg PUBLIC "-//W3C//DTD SVG 1.1//EN" "http://www.w3.org/Graphics/SVG/1.1/DTD/svg11.dtd">
<svg version="1.1" id="Layer_1" xmlns="http://www.w3.org/2000/svg" xmlns:xlink="http://www.w3.org/1999/xlink" x="0px" y="0px"
	 width="48px" height="48px" viewBox="0 0 48 48" enable-background="new 0 0 48 48" xml:space="preserve">
<g>
	<g>
		<path d="M7.414,48c-0.552,0-1-0.447-1-1V18.489c0-0.552,0.448-1,1-1s1,0.448,1,1V47C8.414,47.553,7.966,48,7.414,48z"/>
		<g>
			<path d="M1.566,13.696c-0.552,0-1-0.448-1-1V1c0-0.552,0.448-1,1-1s1,0.448,1,1v11.696C2.566,13.248,2.118,13.696,1.566,13.696z"
				/>
			<path d="M7.414,13.696c-0.552,0-1-0.448-1-1V1c0-0.552,0.448-1,1-1s1,0.448,1,1v11.696C8.414,13.248,7.966,13.696,7.414,13.696z"
				/>
			<path d="M13.262,13.696c-0.552,0-1-0.448-1-1V1c0-0.552,0.448-1,1-1s1,0.448,1,1v11.696
				C14.262,13.248,13.814,13.696,13.262,13.696z"/>
		</g>
		<path d="M7.414,19.489c-3.776,0-6.848-3.047-6.848-6.793c0-0.552,0.448-1,1-1s1,0.448,1,1c0,2.643,2.175,4.793,4.848,4.793
			s4.848-2.15,4.848-4.793c0-0.552,0.448-1,1-1s1,0.448,1,1C14.262,16.442,11.19,19.489,7.414,19.489z"/>
	</g>
	<g>
		<path d="M26.826,48c-0.553,0-1-0.447-1-1V18.489c0-0.552,0.447-1,1-1s1,0.448,1,1V47C27.826,47.553,27.379,48,26.826,48z"/>
		<path d="M20.978,13.696c-0.552,0-1-0.448-1-1V6.354c0-0.552,0.448-1,1-1s1,0.448,1,1v6.342
			C21.978,13.248,21.53,13.696,20.978,13.696z"/>
		<path d="M32.674,13.696c-0.553,0-1-0.448-1-1V6.354c0-0.552,0.447-1,1-1s1,0.448,1,1v6.342
			C33.674,13.248,33.227,13.696,32.674,13.696z"/>
		<path d="M26.826,19.489c-3.776,0-6.848-3.047-6.848-6.793c0-0.552,0.448-1,1-1s1,0.448,1,1c0,2.643,2.175,4.793,4.848,4.793
			c2.673,0,4.848-2.15,4.848-4.793c0-0.552,0.447-1,1-1s1,0.448,1,1C33.674,16.442,30.602,19.489,26.826,19.489z"/>
		<path d="M32.674,7.793c-0.553,0-1-0.448-1-1C31.674,4.15,29.499,2,26.826,2c-2.673,0-4.848,2.15-4.848,4.793c0,0.552-0.448,1-1,1
			s-1-0.448-1-1C19.978,3.047,23.05,0,26.826,0c3.775,0,6.848,3.047,6.848,6.793C33.674,7.345,33.227,7.793,32.674,7.793z"/>
	</g>
	<path d="M46.434,48h-5.715c-0.282,0-0.552-0.119-0.741-0.328c-0.189-0.21-0.281-0.489-0.254-0.77l1.249-12.675
		c-0.801-0.211-1.892-0.676-2.649-1.697c-0.899-1.211-1.091-2.835-0.57-4.825c0.345-1.32,0.652-3.699,1.009-6.453
		c1.394-10.777,2.91-19.812,7.374-21.207c0.305-0.094,0.635-0.039,0.891,0.149C47.282,0.383,47.434,0.682,47.434,1v46
		C47.434,47.553,46.986,48,46.434,48z M41.822,46h3.611V2.884c-2.683,3.108-3.913,12.625-4.688,18.624
		c-0.365,2.822-0.68,5.259-1.057,6.703c-0.358,1.368-0.279,2.417,0.232,3.117c0.727,0.99,2.167,1.074,2.182,1.075
		c0.273,0.014,0.532,0.139,0.711,0.347c0.178,0.207,0.268,0.479,0.24,0.75L41.822,46z"/>
</g>
</svg>
