<?xml version="1.0" encoding="utf-8"?>
<!-- Generator: Adobe Illustrator 16.0.0, SVG Export Plug-In . SVG Version: 6.00 Build 0)  -->
<!DOCTYPE svg PUBLIC "-//W3C//DTD SVG 1.1//EN" "http://www.w3.org/Graphics/SVG/1.1/DTD/svg11.dtd">
<svg version="1.1" id="Layer_1" xmlns="http://www.w3.org/2000/svg" xmlns:xlink="http://www.w3.org/1999/xlink" x="0px" y="0px"
	 width="48px" height="48px" viewBox="0 0 48 48" enable-background="new 0 0 48 48" xml:space="preserve">
<g>
	<path d="M37.971,26.913H10.029c-0.552,0-1-0.447-1-1s0.448-1,1-1h27.942c0.553,0,1,0.447,1,1S38.523,26.913,37.971,26.913z"/>
	<path d="M36.087,34.393H11.913c-0.552,0-1-0.447-1-1s0.448-1,1-1h24.174c0.553,0,1,0.447,1,1S36.64,34.393,36.087,34.393z"/>
	<g>
		<path d="M11.913,48c-0.552,0-1-0.447-1-1V25.913c0-0.553,0.448-1,1-1s1,0.447,1,1V47C12.913,47.553,12.465,48,11.913,48z"/>
		<path d="M36.087,48c-0.553,0-1-0.447-1-1V25.913c0-0.553,0.447-1,1-1s1,0.447,1,1V47C37.087,47.553,36.64,48,36.087,48z"/>
	</g>
	<path d="M25.105,30.8h-2.21c-0.552,0-1-0.447-1-1s0.448-1,1-1h2.21c0.553,0,1,0.447,1,1S25.658,30.8,25.105,30.8z"/>
	<path d="M25.54,24.585h-3.08c-5.148,0-9.337-4.188-9.337-9.337V9.337C13.123,4.188,17.312,0,22.46,0h3.08
		c5.148,0,9.337,4.188,9.337,9.337v5.911C34.877,20.396,30.688,24.585,25.54,24.585z M22.46,2c-4.045,0-7.337,3.292-7.337,7.337
		v5.911c0,4.045,3.292,7.337,7.337,7.337h3.08c4.046,0,7.337-3.292,7.337-7.337V9.337C32.877,5.292,29.586,2,25.54,2H22.46z"/>
	<path d="M19.75,13.292c-0.217,0-0.436-0.07-0.62-0.216c-0.434-0.342-0.507-0.971-0.164-1.404l4.834-6.112
		c0.342-0.433,0.971-0.508,1.404-0.164c0.434,0.342,0.507,0.971,0.164,1.404l-4.834,6.112C20.338,13.162,20.045,13.292,19.75,13.292
		z"/>
	<path d="M23.347,13.95c-0.217,0-0.436-0.07-0.62-0.216c-0.434-0.342-0.507-0.971-0.164-1.404l4.834-6.113
		c0.343-0.432,0.971-0.508,1.404-0.164c0.434,0.342,0.507,0.971,0.164,1.404l-4.834,6.113C23.934,13.82,23.642,13.95,23.347,13.95z"
		/>
	<path d="M23.347,19.405c-0.217,0-0.436-0.07-0.62-0.216c-0.434-0.342-0.507-0.971-0.164-1.404l4.834-6.113
		c0.343-0.432,0.971-0.507,1.404-0.164c0.434,0.342,0.507,0.971,0.164,1.404l-4.834,6.113
		C23.934,19.274,23.642,19.405,23.347,19.405z"/>
</g>
</svg>
