<?xml version="1.0" encoding="utf-8"?>
<!-- Generator: Adobe Illustrator 16.0.0, SVG Export Plug-In . SVG Version: 6.00 Build 0)  -->
<!DOCTYPE svg PUBLIC "-//W3C//DTD SVG 1.1//EN" "http://www.w3.org/Graphics/SVG/1.1/DTD/svg11.dtd">
<svg version="1.1" id="Layer_1" xmlns="http://www.w3.org/2000/svg" xmlns:xlink="http://www.w3.org/1999/xlink" x="0px" y="0px"
	 width="48px" height="48px" viewBox="0 0 48 48" enable-background="new 0 0 48 48" xml:space="preserve">
<g>
	<path d="M47,32.035H1c-0.552,0-1-0.447-1-1s0.448-1,1-1h46c0.553,0,1,0.447,1,1S47.553,32.035,47,32.035z"/>
	<path d="M42.488,42.631H5.512c-0.552,0-1-0.447-1-1s0.448-1,1-1h36.976c0.553,0,1,0.447,1,1S43.041,42.631,42.488,42.631z"/>
	<g>
		<path d="M5.512,48c-0.552,0-1-0.447-1-1V31.035c0-0.553,0.448-1,1-1s1,0.447,1,1V47C6.512,47.553,6.064,48,5.512,48z"/>
		<path d="M42.488,48c-0.553,0-1-0.447-1-1V31.035c0-0.553,0.447-1,1-1s1,0.447,1,1V47C43.488,47.553,43.041,48,42.488,48z"/>
	</g>
	<path d="M24,27.57c-6.778,0-12.293-6.184-12.293-13.785c0-7.602,5.515-13.786,12.293-13.786s12.293,6.185,12.293,13.786
		C36.293,21.386,30.778,27.57,24,27.57z M24,1.999c-5.676,0-10.293,5.287-10.293,11.786c0,6.499,4.617,11.785,10.293,11.785
		s10.293-5.287,10.293-11.785C34.293,7.286,29.676,1.999,24,1.999z"/>
	<g>
		<path d="M9.611,31.469c-0.552,0-1-0.447-1-1V1c0-0.552,0.448-1,1-1s1,0.448,1,1v29.469C10.611,31.021,10.163,31.469,9.611,31.469z
			"/>
		<path d="M38.389,31.469c-0.553,0-1-0.447-1-1V1c0-0.552,0.447-1,1-1s1,0.448,1,1v29.469
			C39.389,31.021,38.941,31.469,38.389,31.469z"/>
	</g>
	<path d="M20.613,14.785c-0.18,0-0.362-0.048-0.526-0.15c-0.469-0.292-0.614-0.908-0.322-1.377L23.91,6.58
		c0.291-0.469,0.906-0.615,1.377-0.322c0.47,0.292,0.613,0.908,0.322,1.377l-4.146,6.678C21.274,14.618,20.948,14.785,20.613,14.785
		z"/>
	<path d="M21.926,20.073c-0.18,0-0.362-0.048-0.526-0.15c-0.469-0.292-0.614-0.908-0.322-1.377l4.146-6.677
		c0.292-0.47,0.908-0.614,1.377-0.322c0.47,0.292,0.613,0.908,0.322,1.377l-4.146,6.677C22.587,19.906,22.26,20.073,21.926,20.073z"
		/>
	<path d="M24,42.631c-0.552,0-1-0.447-1-1V31.035c0-0.553,0.448-1,1-1c0.553,0,1,0.447,1,1v10.596
		C25,42.184,24.553,42.631,24,42.631z"/>
	<path d="M18.7,37.333h-1.382c-0.552,0-1-0.447-1-1s0.448-1,1-1H18.7c0.552,0,1,0.447,1,1S19.252,37.333,18.7,37.333z"/>
	<path d="M30.928,37.333h-1.383c-0.553,0-1-0.447-1-1s0.447-1,1-1h1.383c0.553,0,1,0.447,1,1S31.48,37.333,30.928,37.333z"/>
</g>
</svg>
