<?xml version="1.0" encoding="utf-8"?>
<!-- Generator: Adobe Illustrator 16.0.0, SVG Export Plug-In . SVG Version: 6.00 Build 0)  -->
<!DOCTYPE svg PUBLIC "-//W3C//DTD SVG 1.1//EN" "http://www.w3.org/Graphics/SVG/1.1/DTD/svg11.dtd">
<svg version="1.1" id="Layer_1" xmlns="http://www.w3.org/2000/svg" xmlns:xlink="http://www.w3.org/1999/xlink" x="0px" y="0px"
	 width="48px" height="48px" viewBox="0 0 48 48" enable-background="new 0 0 48 48" xml:space="preserve">
<g>
	<g>
		<path d="M38.025,44.042H9.975c-2.787,0-5.054-1.936-5.054-4.315V24.371c0-0.552,0.448-1,1-1s1,0.448,1,1v15.355
			c0,1.255,1.398,2.315,3.054,2.315h28.05c1.655,0,3.054-1.061,3.054-2.315V24.371c0-0.552,0.447-1,1-1s1,0.448,1,1v15.355
			C43.079,42.106,40.813,44.042,38.025,44.042z"/>
		<path d="M47,25.371H1c-0.552,0-1-0.447-1-1c0-0.552,0.448-1,1-1h46c0.553,0,1,0.448,1,1C48,24.924,47.553,25.371,47,25.371z"/>
		<path d="M5.921,48c-0.552,0-1-0.447-1-1v-7.292c0-0.553,0.448-1,1-1s1,0.447,1,1V47C6.921,47.553,6.473,48,5.921,48z"/>
		<path d="M42.079,48c-0.553,0-1-0.447-1-1v-7.292c0-0.553,0.447-1,1-1s1,0.447,1,1V47C43.079,47.553,42.632,48,42.079,48z"/>
		<path d="M42.079,34.643H5.921c-0.552,0-1-0.447-1-1s0.448-1,1-1h36.158c0.553,0,1,0.447,1,1S42.632,34.643,42.079,34.643z"/>
		<path d="M26.534,29.048h-5.068c-0.552,0-1-0.447-1-1s0.448-1,1-1h5.068c0.553,0,1,0.447,1,1S27.087,29.048,26.534,29.048z"/>
		<path d="M26.534,39.504h-5.068c-0.552,0-1-0.447-1-1s0.448-1,1-1h5.068c0.553,0,1,0.447,1,1S27.087,39.504,26.534,39.504z"/>
	</g>
	<path d="M29.323,25.371H18.678c-0.552,0-1-0.447-1-1V1c0-0.552,0.448-1,1-1h10.645c0.553,0,1,0.448,1,1v23.371
		C30.323,24.924,29.876,25.371,29.323,25.371z M19.678,23.371h8.645V2h-8.645V23.371z"/>
	<path d="M18.678,25.371H9.101c-0.552,0-1-0.447-1-1V5.857c0-0.377,0.212-0.722,0.548-0.892l9.577-4.857
		c0.308-0.158,0.679-0.144,0.976,0.04C19.498,0.33,19.678,0.652,19.678,1v23.371C19.678,24.924,19.23,25.371,18.678,25.371z
		 M10.101,23.371h7.577V2.628l-7.577,3.843V23.371z"/>
	<path d="M38.898,25.371h-9.576c-0.553,0-1-0.447-1-1V1c0-0.348,0.181-0.67,0.477-0.852c0.297-0.182,0.666-0.197,0.976-0.04
		l9.576,4.857c0.336,0.17,0.548,0.516,0.548,0.892v18.514C39.898,24.924,39.451,25.371,38.898,25.371z M30.322,23.371h7.576v-16.9
		l-7.576-3.843V23.371z"/>
</g>
</svg>
