<?xml version="1.0" encoding="utf-8"?>
<!-- Generator: Adobe Illustrator 18.0.0, SVG Export Plug-In . SVG Version: 6.00 Build 0)  -->
<!DOCTYPE svg PUBLIC "-//W3C//DTD SVG 1.1//EN" "http://www.w3.org/Graphics/SVG/1.1/DTD/svg11.dtd">
<svg version="1.1" id="Layer_1" xmlns="http://www.w3.org/2000/svg" xmlns:xlink="http://www.w3.org/1999/xlink" x="0px" y="0px"
	 viewBox="0 0 48 48" enable-background="new 0 0 48 48" xml:space="preserve">
<g>
	<path fill="#010101" d="M45.5,48H2.6V0h42.9V48z M4.6,46h38.9V2H4.6V46z"/>
	<path fill="#010101" d="M40,14.9H22.2V5.8H40V14.9z M24.2,12.9H38V7.8H24.2V12.9z"/>
	<rect x="23.9" y="19" fill="#010101" width="3.3" height="2"/>
	<rect x="30.1" y="19" fill="#010101" width="3.2" height="2"/>
	<rect x="36.8" y="19" fill="#010101" width="3.2" height="2"/>
	<rect x="23.9" y="23.9" fill="#010101" width="3.3" height="2"/>
	<rect x="30.1" y="23.9" fill="#010101" width="3.2" height="2"/>
	<rect x="36.8" y="23.9" fill="#010101" width="3.2" height="2"/>
	<rect x="23.9" y="28.8" fill="#010101" width="3.3" height="2"/>
	<rect x="30.1" y="28.8" fill="#010101" width="3.2" height="2"/>
	<rect x="36.8" y="28.8" fill="#010101" width="3.2" height="2"/>
	<rect x="23.9" y="33.7" fill="#010101" width="3.3" height="2"/>
	<rect x="30.1" y="33.7" fill="#010101" width="3.2" height="2"/>
	<rect x="36.8" y="33.7" fill="#010101" width="3.2" height="2"/>
	<rect x="36.8" y="39.2" fill="#010101" width="3.2" height="2"/>
	<path fill="#010101" d="M19.9,43.1H7.4l-0.1-0.9C6,30.1,6,17.9,7.3,5.8l0.1-0.9h12.5L20,5.8c1.4,12.1,1.4,24.3,0,36.4L19.9,43.1z
		 M9.2,41.1h8.9c1.3-11.4,1.3-22.8,0-34.2H9.2C8,18.3,8,29.7,9.2,41.1z"/>
</g>
</svg>
