<?xml version="1.0" encoding="utf-8"?>
<!-- Generator: Adobe Illustrator 16.0.0, SVG Export Plug-In . SVG Version: 6.00 Build 0)  -->
<!DOCTYPE svg PUBLIC "-//W3C//DTD SVG 1.1//EN" "http://www.w3.org/Graphics/SVG/1.1/DTD/svg11.dtd">
<svg version="1.1" id="Layer_1" xmlns="http://www.w3.org/2000/svg" xmlns:xlink="http://www.w3.org/1999/xlink" x="0px" y="0px"
	 width="48px" height="48px" viewBox="0 0 48 48" enable-background="new 0 0 48 48" xml:space="preserve">
<g>
	<path d="M32.334,46.158c-2.699,0-5.067-1.971-7.357-3.878c-2.094-1.743-4.072-3.39-6.015-3.39c-2.039,0-4.488,1.787-6.857,3.515
		c-2.535,1.85-4.93,3.596-7.25,3.597c-0.695,0-1.35-0.161-1.946-0.479c-2.084-1.112-2.669-4.38-2.832-6.229
		c-0.34-3.863,0.485-8.902,2.685-10.629c3.036-2.387,9.071-3.812,16.142-3.812c7.073,0,13.11,1.425,16.148,3.812
		c2.268,1.779,3.074,6.934,2.682,10.879c-0.178,1.789-0.785,4.946-2.851,5.988C34.062,45.948,33.203,46.158,32.334,46.158z
		 M18.962,36.891c2.666,0,5.019,1.959,7.294,3.853c2.018,1.68,4.103,3.415,6.078,3.415c0.562,0,1.1-0.134,1.646-0.41
		c0.86-0.434,1.534-2.12,1.762-4.401c0.373-3.753-0.526-8.01-1.926-9.108c-2.658-2.087-8.373-3.384-14.914-3.384
		c-6.539,0-12.25,1.297-14.906,3.384c-1.374,1.079-2.257,5.146-1.928,8.881c0.21,2.388,0.893,4.165,1.781,4.64
		c1.696,0.899,4.434-1.042,7.077-2.97C13.554,38.873,16.271,36.891,18.962,36.891z"/>
	<g>
		<path d="M31.064,40.352c-0.553,0-1-0.447-1-1v-5.4c0-0.553,0.447-1,1-1s1,0.447,1,1v5.4
			C32.064,39.904,31.617,40.352,31.064,40.352z"/>
		<path d="M33.766,37.652h-5.402c-0.553,0-1-0.447-1-1s0.447-1,1-1h5.402c0.553,0,1,0.447,1,1S34.318,37.652,33.766,37.652z"/>
	</g>
	<path d="M20.375,32.139H17.45c-0.552,0-1-0.447-1-1s0.448-1,1-1h2.925c0.552,0,1,0.447,1,1S20.927,32.139,20.375,32.139z"/>
	<path d="M18.915,26.84c-0.552,0-1-0.447-1-1l0.005-1.052c0.004-0.688,0.009-1.375-0.005-2.061
		c-0.008-0.364-0.075-0.472-0.076-0.473c-0.114-0.031-0.681,0.04-1.058,0.087c-0.412,0.052-0.913,0.135-1.365,0.11l-0.412,0
		c-2.127-0.001-4.326-0.002-6.506-0.141c-2.485-0.157-5.591-0.832-6.276-3.159c-0.353-1.202-0.249-2.213,0.309-3.006
		c1.062-1.509,3.339-1.644,5.169-1.752c0.36-0.021,0.697-0.041,0.991-0.072c0.605-0.063,1.228-0.123,1.861-0.185
		c2.327-0.225,4.733-0.457,6.932-0.899c0.539-0.106,1.068,0.242,1.178,0.783c0.109,0.542-0.242,1.069-0.783,1.178
		c-2.299,0.462-4.757,0.7-7.134,0.929C10.118,16.188,9.5,16.248,8.9,16.311c-0.321,0.034-0.688,0.056-1.081,0.079
		c-1.252,0.074-3.145,0.186-3.652,0.907C3.978,17.565,3.969,18,4.142,18.587c0.267,0.907,1.985,1.569,4.483,1.727
		c2.118,0.134,4.285,0.136,6.381,0.137l0.413,0c0.372,0.018,0.743-0.047,1.113-0.094c0.929-0.118,1.89-0.239,2.633,0.403
		c0.486,0.419,0.731,1.049,0.75,1.925c0.014,0.706,0.009,1.411,0.005,2.116l-0.005,1.038C19.915,26.393,19.467,26.84,18.915,26.84z"
		/>
	<circle cx="5.026" cy="33.631" r="1.021"/>
	<circle cx="10.235" cy="33.631" r="1.021"/>
	<circle cx="5.026" cy="38.303" r="1.022"/>
	<circle cx="10.235" cy="38.303" r="1.022"/>
	<circle cx="36.227" cy="10.297" r="1.022"/>
	<circle cx="36.227" cy="19.887" r="1.022"/>
	<path d="M47,46.158H32.281c-0.553,0-1-0.447-1-1s0.447-1,1-1H46V3.842H26.451v21.641c0,0.553-0.447,1-1,1s-1-0.447-1-1V2.842
		c0-0.552,0.447-1,1-1H47c0.553,0,1,0.448,1,1v42.316C48,45.711,47.553,46.158,47,46.158z"/>
</g>
</svg>
