<?xml version="1.0" encoding="utf-8"?>
<!-- Generator: Adobe Illustrator 16.0.0, SVG Export Plug-In . SVG Version: 6.00 Build 0)  -->
<!DOCTYPE svg PUBLIC "-//W3C//DTD SVG 1.1//EN" "http://www.w3.org/Graphics/SVG/1.1/DTD/svg11.dtd">
<svg version="1.1" id="Layer_1" xmlns="http://www.w3.org/2000/svg" xmlns:xlink="http://www.w3.org/1999/xlink" x="0px" y="0px"
	 width="48px" height="48px" viewBox="0 0 48 48" enable-background="new 0 0 48 48" xml:space="preserve">
<g>
	<path d="M33.549,48c-0.204,0-0.406-0.063-0.579-0.185L13.873,34.259c-0.264-0.188-0.421-0.491-0.421-0.815V14.557
		c0-0.324,0.157-0.628,0.421-0.815L32.97,0.185c0.306-0.217,0.705-0.245,1.038-0.073C34.34,0.283,34.549,0.626,34.549,1v46
		c0,0.374-0.209,0.717-0.541,0.889C33.863,47.963,33.706,48,33.549,48z M15.452,32.927l17.097,12.137V2.937L15.452,15.074V32.927z"
		/>
	<path d="M32.994,25H14.988c-0.552,0-1-0.447-1-1c0-0.552,0.448-1,1-1h18.006c0.553,0,1,0.448,1,1
		C33.994,24.553,33.547,25,32.994,25z"/>
	<path d="M21.942,39.184c-0.552,0-1-0.447-1-1V9.239c0-0.552,0.448-1,1-1s1,0.448,1,1v28.944
		C22.942,38.736,22.494,39.184,21.942,39.184z"/>
</g>
</svg>
