<?xml version="1.0" encoding="utf-8"?>
<!-- Generator: Adobe Illustrator 18.0.0, SVG Export Plug-In . SVG Version: 6.00 Build 0)  -->
<!DOCTYPE svg PUBLIC "-//W3C//DTD SVG 1.1//EN" "http://www.w3.org/Graphics/SVG/1.1/DTD/svg11.dtd">
<svg version="1.1" id="Layer_1" xmlns="http://www.w3.org/2000/svg" xmlns:xlink="http://www.w3.org/1999/xlink" x="0px" y="0px"
	 viewBox="0 0 48 48" enable-background="new 0 0 48 48" xml:space="preserve">
<g>
	<path fill="#010101" d="M24,46.5C11.6,46.5,1.5,36.4,1.5,24C1.5,11.6,11.6,1.5,24,1.5c12.4,0,22.5,10.1,22.5,22.5
		C46.5,36.4,36.4,46.5,24,46.5z M24,3.5C12.7,3.5,3.5,12.7,3.5,24S12.7,44.5,24,44.5S44.5,35.3,44.5,24S35.3,3.5,24,3.5z"/>
	<path fill="#010101" d="M14.3,43.7l-1.2-1.6c0.1-0.1,10.9-8.6,9.9-18l-0.1-0.7l0.6-0.3c0.5-0.3,13-6.5,22.6,1l-1.2,1.6
		c-7.5-5.9-17.3-2.2-19.8-1.1C25.6,34.8,14.8,43.3,14.3,43.7z"/>
	<path fill="#010101" d="M22.7,46.3l-1.1-1.7c15.5-9.9,13.3-22.8,13.3-23l2-0.4C37,21.9,39.4,35.7,22.7,46.3z"/>
	<path fill="#010101" d="M23.5,24.8C12.3,17.9,13.2,5.3,13.2,4.7l2,0.2c0,0.1-0.8,12,9.3,18.3L23.5,24.8z"/>
	<path fill="#010101" d="M19.9,36.6C3.7,28,5.9,10.9,5.9,10.8l2,0.3c-0.1,0.6-2,15.8,13,23.8L19.9,36.6z"/>
	<path fill="#010101" d="M43.5,17c-11.7-9.4-26.7-1.4-26.9-1.3l-1-1.8c0.2-0.1,16.3-8.7,29.1,1.5L43.5,17z"/>
</g>
</svg>
