<?xml version="1.0" encoding="utf-8"?>
<!-- Generator: Adobe Illustrator 18.0.0, SVG Export Plug-In . SVG Version: 6.00 Build 0)  -->
<!DOCTYPE svg PUBLIC "-//W3C//DTD SVG 1.1//EN" "http://www.w3.org/Graphics/SVG/1.1/DTD/svg11.dtd">
<svg version="1.1" id="Layer_1" xmlns="http://www.w3.org/2000/svg" xmlns:xlink="http://www.w3.org/1999/xlink" x="0px" y="0px"
	 viewBox="0 0 48 48" enable-background="new 0 0 48 48" xml:space="preserve">
<g>
	<path fill="#010101" d="M44.8,47.2H4.5c-1.8,0-3.1-1.2-3.1-2.9v-9.7h2v9.7c0,0.6,0.6,0.9,1.1,0.9h40.3c0.6,0,1.1-0.5,1.1-0.9V17
		c0-0.6-0.6-0.9-1.1-0.9H4.5c-0.6,0-1.1,0.5-1.1,0.9v9.6h-2V17c0-1.5,1.4-2.9,3.1-2.9h40.3c1.8,0,3.1,1.2,3.1,2.9v27.3
		C47.9,45.8,46.5,47.2,44.8,47.2z"/>
	<path fill="#010101" d="M15.7,36.2H0V25h15.7V36.2z M2,34.2h11.7V27H2V34.2z"/>
	<path fill="#010101" d="M9.4,33.2c-1.4,0-2.6-1.2-2.6-2.6S8,28,9.4,28s2.6,1.2,2.6,2.6S10.8,33.2,9.4,33.2z M9.4,30
		c-0.3,0-0.6,0.3-0.6,0.6s0.3,0.6,0.6,0.6s0.6-0.3,0.6-0.6S9.7,30,9.4,30z"/>
	<polygon fill="#010101" points="41.4,15.9 40,14.5 41.8,12.5 32.2,3.5 20.9,15.6 19.5,14.2 32.2,0.7 44.6,12.5 	"/>
	<polygon fill="#010101" points="7.6,15.3 6.2,13.9 18.8,0.5 26.7,8 25.3,9.4 18.8,3.3 	"/>
</g>
</svg>
