<?xml version="1.0" encoding="utf-8"?>
<!-- Generator: Adobe Illustrator 18.0.0, SVG Export Plug-In . SVG Version: 6.00 Build 0)  -->
<!DOCTYPE svg PUBLIC "-//W3C//DTD SVG 1.1//EN" "http://www.w3.org/Graphics/SVG/1.1/DTD/svg11.dtd">
<svg version="1.1" id="Layer_1" xmlns="http://www.w3.org/2000/svg" xmlns:xlink="http://www.w3.org/1999/xlink" x="0px" y="0px"
	 viewBox="0 0 48 48" enable-background="new 0 0 48 48" xml:space="preserve">
<g>
	<g>
		<path fill="#010101" d="M43.4,3C44.3,3,45,3.7,45,4.6v38.8c0,0.9-0.7,1.6-1.6,1.6H4.6C3.7,45,3,44.3,3,43.4V4.6C3,3.7,3.7,3,4.6,3
			H43.4 M43.4,1H4.6C2.6,1,1,2.6,1,4.6v38.8c0,2,1.6,3.6,3.6,3.6h38.8c2,0,3.6-1.6,3.6-3.6V4.6C47,2.6,45.4,1,43.4,1L43.4,1z"/>
	</g>
	<path fill="#010101" d="M24,40.8c-6.8,0-12.4-5.6-12.4-12.4C11.6,21.6,17.2,16,24,16c6.8,0,12.4,5.6,12.4,12.4
		C36.4,35.2,30.8,40.8,24,40.8z M24,18c-5.7,0-10.4,4.7-10.4,10.4c0,5.7,4.7,10.4,10.4,10.4s10.4-4.7,10.4-10.4
		C34.4,22.7,29.7,18,24,18z"/>
	<path fill="#010101" d="M31.6,28.4h-2c0-3-2.6-5.6-5.6-5.6v-2C28.1,20.8,31.6,24.3,31.6,28.4z"/>
	<rect x="1.2" y="11" fill="#010101" width="45.6" height="2"/>
	<rect x="7.1" y="5.6" fill="#010101" width="4.6" height="2"/>
	<rect x="20.3" y="5.6" fill="#010101" width="4.6" height="2"/>
	<rect x="28.3" y="5.6" fill="#010101" width="4.6" height="2"/>
	<rect x="36.3" y="5.6" fill="#010101" width="4.6" height="2"/>
</g>
</svg>
