<?xml version="1.0" encoding="utf-8"?>
<!-- Generator: Adobe Illustrator 16.0.0, SVG Export Plug-In . SVG Version: 6.00 Build 0)  -->
<!DOCTYPE svg PUBLIC "-//W3C//DTD SVG 1.1//EN" "http://www.w3.org/Graphics/SVG/1.1/DTD/svg11.dtd">
<svg version="1.1" id="Layer_1" xmlns="http://www.w3.org/2000/svg" xmlns:xlink="http://www.w3.org/1999/xlink" x="0px" y="0px"
	 width="48px" height="48px" viewBox="0 0 48 48" enable-background="new 0 0 48 48" xml:space="preserve">
<g>
	<g>
		<path d="M24,42.387c-13.233,0-24-10.767-24-24c0-0.552,0.448-1,1-1s1,0.448,1,1c0,12.13,9.869,22,22,22s22-9.869,22-22
			c0-0.552,0.447-1,1-1s1,0.448,1,1C48,31.62,37.233,42.387,24,42.387z"/>
		<path d="M34.997,25.891c-0.194,0-0.391-0.057-0.563-0.175l-1.908-1.306c-0.456-0.312-0.572-0.934-0.261-1.39
			c0.312-0.455,0.933-0.572,1.39-0.26l1.908,1.306c0.456,0.312,0.572,0.935,0.261,1.39C35.63,25.738,35.316,25.891,34.997,25.891z"
			/>
		<path d="M27.949,31.582c-0.41,0-0.795-0.254-0.941-0.662l-0.779-2.174c-0.187-0.521,0.084-1.093,0.604-1.279
			c0.522-0.188,1.093,0.083,1.279,0.604l0.779,2.174c0.187,0.521-0.084,1.093-0.604,1.279
			C28.175,31.563,28.062,31.582,27.949,31.582z"/>
		<path d="M18.912,30.498c-0.122,0-0.245-0.022-0.365-0.069c-0.514-0.202-0.767-0.782-0.565-1.296l0.826-2.102
			c0.202-0.515,0.782-0.766,1.296-0.565c0.514,0.202,0.767,0.782,0.565,1.296l-0.826,2.102
			C19.688,30.258,19.311,30.498,18.912,30.498z"/>
		<path d="M10.9,26.494c-0.332,0-0.656-0.164-0.846-0.465c-0.295-0.467-0.157-1.085,0.31-1.38l1.905-1.206
			c0.466-0.298,1.085-0.157,1.379,0.31c0.295,0.466,0.157,1.084-0.31,1.379l-1.905,1.206C11.268,26.444,11.083,26.494,10.9,26.494z"
			/>
		<path d="M24.001,38.592c-11.141,0-20.205-9.063-20.205-20.205c0-0.552,0.448-1,1-1h5.67c0.44,0,0.829,0.288,0.957,0.709
			c0.396,1.304,1.578,2.179,2.941,2.179c0.657,0,1.287-0.208,1.82-0.602c0.442-0.327,1.062-0.234,1.392,0.201
			c0.688,0.911,1.732,1.433,2.864,1.433c1.767,0,3.292-1.318,3.548-3.065c0.072-0.491,0.493-0.855,0.989-0.855h18.228
			c0.553,0,1,0.448,1,1C44.206,29.528,35.143,38.592,24.001,38.592z M5.823,19.387c0.521,9.575,8.475,17.205,18.178,17.205
			c9.702,0,17.656-7.63,18.178-17.205H25.772c-0.72,2.286-2.875,3.921-5.332,3.921c-1.458,0-2.822-0.555-3.855-1.546
			c-0.688,0.338-1.442,0.514-2.221,0.514c-1.994,0-3.752-1.134-4.582-2.889H5.823z"/>
	</g>
	<path d="M27.948,11.355c-0.194,0-0.391-0.056-0.563-0.174c-0.457-0.312-0.574-0.934-0.263-1.39l1.602-2.345
		c0.313-0.456,0.936-0.575,1.39-0.262c0.457,0.312,0.574,0.934,0.263,1.39l-1.602,2.345C28.581,11.203,28.268,11.355,27.948,11.355z
		"/>
	<path d="M21.053,10.409c-0.058,0-0.117-0.005-0.176-0.015c-0.543-0.097-0.906-0.616-0.81-1.16l0.496-2.796
		c0.097-0.543,0.614-0.906,1.16-0.81c0.543,0.097,0.906,0.616,0.81,1.16l-0.496,2.796C21.95,10.068,21.529,10.409,21.053,10.409z"/>
	<path d="M12.642,11.506c-0.392,0-0.763-0.231-0.923-0.615l-1.094-2.62c-0.213-0.509,0.028-1.095,0.538-1.308
		S12.257,6.991,12.47,7.5l1.094,2.62c0.213,0.509-0.028,1.095-0.538,1.308C12.9,11.481,12.77,11.506,12.642,11.506z"/>
</g>
</svg>
