<?xml version="1.0" encoding="utf-8"?>
<!-- Generator: Adobe Illustrator 18.0.0, SVG Export Plug-In . SVG Version: 6.00 Build 0)  -->
<!DOCTYPE svg PUBLIC "-//W3C//DTD SVG 1.1//EN" "http://www.w3.org/Graphics/SVG/1.1/DTD/svg11.dtd">
<svg version="1.1" id="Layer_1" xmlns="http://www.w3.org/2000/svg" xmlns:xlink="http://www.w3.org/1999/xlink" x="0px" y="0px"
	 viewBox="0 0 48 48" enable-background="new 0 0 48 48" xml:space="preserve">
<g>
	<path fill="#010101" d="M33.4,39.2H5l-0.2-0.1C1.2,37.2,0.1,29.3,0,28.4l-0.1-1.2l12,0.3l0.2,0.1c4.3,2,7.3,2.1,9.1,0.1
		C23.5,25.2,23,20,23,20l-0.1-0.7l0.7-0.3c4.2-1.7,6-4.8,6-4.9l0.4-0.7l0.8,0.3c5.5,2,16.5,14.9,16.9,15.5l0.3,0.3L48,29.9
		c-0.9,6-13.1,8.9-14.5,9.2L33.4,39.2z M5.5,37.2h27.7c3.4-0.8,11.6-3.4,12.7-7.1C42.8,26.4,35.1,18,30.9,15.8
		C30,17,28.2,19.1,25,20.5c0.1,1.7-0.1,6-2.4,8.6c-2.4,2.6-6.2,2.8-11.3,0.5l-9.2-0.3C2.7,32.2,3.8,36.1,5.5,37.2z"/>
	<path fill="#010101" d="M25.3,16.6L24.3,15c3.8-2.5,3.7-3.4,3.7-3.5c-0.1-0.3-0.9-0.6-1.7-0.7l0.2-2c0.3,0,3,0.4,3.5,2.2
		C30.2,12.6,28.8,14.4,25.3,16.6z"/>
	<path fill="#010101" d="M21.5,27.4H3.4L9,20.1L22.8,22L21.5,27.4z M7.4,25.4h12.5l0.4-1.8L9.8,22.3L7.4,25.4z"/>
	<path fill="#010101" d="M5.5,35.7c-0.9,0-1.9,0-2.9,0l0-2c30.3,0.3,37.9-4.1,39.7-5.9C43,27,43,26.5,43,26.5l2-0.3
		c0,0.2,0.2,1.3-1,2.6C41.4,32,32.5,35.7,5.5,35.7z"/>
</g>
</svg>
