<?xml version="1.0" encoding="utf-8"?>
<!-- Generator: Adobe Illustrator 18.0.0, SVG Export Plug-In . SVG Version: 6.00 Build 0)  -->
<!DOCTYPE svg PUBLIC "-//W3C//DTD SVG 1.1//EN" "http://www.w3.org/Graphics/SVG/1.1/DTD/svg11.dtd">
<svg version="1.1" id="Layer_1" xmlns="http://www.w3.org/2000/svg" xmlns:xlink="http://www.w3.org/1999/xlink" x="0px" y="0px"
	 viewBox="0 0 48 48" enable-background="new 0 0 48 48" xml:space="preserve">
<g>
	<g>
		<path fill="#010101" d="M35.4,46.6c-0.6,0-1.1-0.1-1.6-0.4C24.3,41.3,22,33.1,21.4,29.8c-0.1-0.5,0.3-1.1,0.8-1.2
			c0.6-0.1,1.1,0.3,1.2,0.8c0.6,3.7,3,10.7,11.3,15c0.8,0.4,1.7,0.1,2-0.6c0,0,0-0.1,0.1-0.1c0.2-0.3,0.2-0.6,0.1-0.9
			c-0.1-0.4-0.4-0.7-0.7-0.9c-7.8-4-9.6-10.9-9.9-13.8c-0.1-0.5,0.3-1.1,0.9-1.1c0.6-0.1,1.1,0.3,1.1,0.9c0.4,3.1,2.2,8.8,8.9,12.2
			c0.9,0.4,1.5,1.2,1.8,2.1c0.2,0.9,0.1,1.7-0.3,2.5C37.9,45.9,36.7,46.6,35.4,46.6z"/>
	</g>
	<path fill="#010101" d="M14.4,10.6c-2.9,0-5.3-2.4-5.3-5.3S11.5,0,14.4,0s5.3,2.4,5.3,5.3S17.3,10.6,14.4,10.6z M14.4,2
		c-1.8,0-3.3,1.5-3.3,3.3c0,1.8,1.5,3.3,3.3,3.3c1.8,0,3.3-1.5,3.3-3.3C17.7,3.5,16.2,2,14.4,2z"/>
	<path fill="#010101" d="M25.6,18.9c-4.9,0-8.8-3.9-8.8-8.8c0-4.9,3.9-8.8,8.8-8.8c4.9,0,8.8,3.9,8.8,8.8
		C34.4,15,30.5,18.9,25.6,18.9z M25.6,3.3c-3.7,0-6.8,3.1-6.8,6.8s3.1,6.8,6.8,6.8c3.8,0,6.8-3.1,6.8-6.8S29.3,3.3,25.6,3.3z"/>
	<path fill="#010101" d="M25.6,14.2c-2.3,0-4.1-1.8-4.1-4.1S23.3,6,25.6,6s4.1,1.8,4.1,4.1S27.9,14.2,25.6,14.2z M25.6,8
		c-1.2,0-2.1,0.9-2.1,2.1s0.9,2.1,2.1,2.1s2.1-0.9,2.1-2.1S26.8,8,25.6,8z"/>
	<path fill="#010101" d="M19.8,48.1c-0.8,0-1.7-0.3-2.3-0.8c-6.1-4.8-8.7-9.7-7.5-14.3c0.9-3.6,4.8-7.8,8.1-9.8
		c-0.9-5,0.2-8.7,0.3-8.9c0.2-0.5,0.7-0.8,1.2-0.7c0.5,0.2,0.8,0.7,0.7,1.2l0,0c0,0-1.1,3.7-0.1,8.6c0.1,0.4-0.1,0.9-0.5,1.1
		c-3,1.5-6.9,5.6-7.7,8.9c-0.9,3.8,1.4,7.9,6.9,12.3c0.3,0.3,0.7,0.4,1.1,0.4c0.5,0,1.1-0.3,1.5-0.7c0.2-0.3,0.4-0.8,0.3-1.2
		c0-0.5-0.3-0.9-0.7-1.2c-4.2-3.4-6.1-6.4-5.6-8.7c0.9-3.9,8.1-6.2,10.6-6.8c0.2-0.1,0.4-0.2,0.5-0.2c0,0,0.1,0,0.1,0
		c0,0,1.3-0.6,1.4-2.4c0.1-0.5-0.1-1.3-0.2-2.1c-0.4-1.9-0.8-4.3,0.6-6.3c0.3-0.4,1-0.5,1.4-0.2c0.4,0.3,0.5,1,0.2,1.4
		c-0.9,1.2-0.6,3-0.3,4.7c0.2,0.9,0.4,1.8,0.3,2.6c-0.2,2.9-2.3,3.9-2.7,4.1c-0.2,0.1-0.5,0.2-0.8,0.3c0,0-0.1,0-0.1,0
		c-3.4,0.7-8.6,3-9.1,5.2c-0.3,1.4,1.6,3.9,5,6.7c0.8,0.7,1.3,1.6,1.4,2.5c0.1,1-0.2,2-0.9,2.8C21.9,47.6,20.8,48.1,19.8,48.1z"/>
	<path fill="#010101" d="M24.8,24.1c-0.8,0-1.6-0.2-2.3-0.7c-3-2-4-7.7-4.1-8.3c-0.1-0.5,0.3-1.1,0.8-1.1c0.5-0.1,1.1,0.3,1.1,0.8
		c0.2,1.5,1.3,5.7,3.3,7c0.5,0.4,1.1,0.5,1.7,0.3c0.7-0.2,1.2-0.5,1.5-1c0.6-1.1,0.4-2.7,0.2-3.3c-0.1-0.5,0.2-1.1,0.7-1.2
		c0.5-0.1,1.1,0.2,1.2,0.7c0,0.1,0.8,2.8-0.4,4.8c-0.6,1-1.5,1.6-2.7,1.9C25.5,24.1,25.2,24.1,24.8,24.1z"/>
</g>
</svg>
