<?xml version="1.0" encoding="utf-8"?>
<!-- Generator: Adobe Illustrator 18.0.0, SVG Export Plug-In . SVG Version: 6.00 Build 0)  -->
<!DOCTYPE svg PUBLIC "-//W3C//DTD SVG 1.1//EN" "http://www.w3.org/Graphics/SVG/1.1/DTD/svg11.dtd">
<svg version="1.1" id="Layer_1" xmlns="http://www.w3.org/2000/svg" xmlns:xlink="http://www.w3.org/1999/xlink" x="0px" y="0px"
	 viewBox="0 0 48 48" enable-background="new 0 0 48 48" xml:space="preserve">
<g>
	<g>
		<path fill="#010101" d="M6.9,15.5H2.7c-1.5,0-2.7-1.2-2.7-2.7v-10C0,1.3,1.2,0,2.7,0h4.2c1.5,0,2.7,1.2,2.7,2.7v10
			C9.6,14.3,8.4,15.5,6.9,15.5z M2.7,2C2.4,2,2,2.3,2,2.8v10c0,0.3,0.2,0.7,0.7,0.7h4.2c0.5,0,0.7-0.4,0.7-0.8v-10
			C7.6,2.4,7.4,2,6.9,2H2.7z"/>
		<path fill="#010101" d="M45.3,15.5h-4.2c-1.5,0-2.7-1.2-2.7-2.7v-10c0-1.5,1.2-2.7,2.7-2.7h4.2c1.5,0,2.7,1.2,2.7,2.7v10
			C48,14.3,46.8,15.5,45.3,15.5z M41.1,2.1c-0.3,0-0.7,0.2-0.7,0.7v10c0,0.3,0.2,0.7,0.7,0.7h4.2c0.3,0,0.7-0.4,0.7-0.7v-10
			c0-0.3-0.2-0.7-0.7-0.7H41.1z"/>
	</g>
	<rect x="8.6" y="6.8" fill="#010101" width="30.8" height="2"/>
	<path fill="#010101" d="M24,17.7c-2.4,0-4.3-2-4.3-4.4s1.9-4.4,4.3-4.4s4.3,2,4.3,4.4S26.4,17.7,24,17.7z M24,10.9
		c-1.3,0-2.3,1.1-2.3,2.4c0,1.3,1,2.4,2.3,2.4c1.3,0,2.3-1.1,2.3-2.4C26.3,12,25.3,10.9,24,10.9z"/>
	<path fill="#010101" d="M33.2,48l-0.4,0c-1.3-0.3-2.2-1.6-2.1-3l0.9-7.1l-6.3-3.5h-2.7l-6.3,3.5l0.9,7.1c0.2,1.5-0.8,2.9-2.2,3
		l-0.3,0c-1.2,0-2.3-1-2.5-2.3l-1.2-9c-0.2-1.1,0.4-2.2,1.3-2.7l6.5-3.6v-6l-8-10.3c-0.8-1.1-0.7-2.8,0.3-3.7c1-1,2.8-0.8,3.6,0.3
		l7.3,9.4h3.4l7.5-9.4c0.4-0.6,1.2-1,1.9-1c0.6,0,1.2,0.2,1.7,0.7c0.9,1.1,1,2.6,0.2,3.7L29,24.1v6.3l6.6,3.6
		c0.9,0.5,1.5,1.6,1.3,2.7l-1.2,9C35.5,47,34.4,48,33.2,48z M33.2,46L33.2,46c0.2,0,0.5-0.2,0.6-0.5l1.2-9c0-0.3-0.1-0.6-0.3-0.7
		L27,31.6v-8.1l8.3-10.6c0.2-0.3,0.2-0.8-0.1-1.1c0,0-0.1,0-0.2,0c-0.1,0-0.2,0-0.3,0.2l-8.1,10.2h-5.4l-7.9-10.2
		c-0.1-0.2-0.3-0.2-0.4-0.2c-0.1,0-0.2,0-0.2,0.1c-0.3,0.3-0.3,0.8-0.1,1.1l8.1,10.4l0.3,0.3v8l-7.6,4.2c-0.2,0.1-0.3,0.4-0.3,0.7
		l1.2,9c0,0.3,0.3,0.5,0.5,0.5h0.1c0.2-0.1,0.4-0.4,0.4-0.8l-1.1-8.5l7.9-4.5h3.7l7.9,4.5l-1.1,8.5C32.7,45.6,32.9,45.9,33.2,46z"/>
</g>
</svg>
