<?xml version="1.0" encoding="utf-8"?>
<!-- Generator: Adobe Illustrator 16.0.0, SVG Export Plug-In . SVG Version: 6.00 Build 0)  -->
<!DOCTYPE svg PUBLIC "-//W3C//DTD SVG 1.1//EN" "http://www.w3.org/Graphics/SVG/1.1/DTD/svg11.dtd">
<svg version="1.1" id="Layer_1" xmlns="http://www.w3.org/2000/svg" xmlns:xlink="http://www.w3.org/1999/xlink" x="0px" y="0px"
	 width="48px" height="48px" viewBox="0 0 48 48" enable-background="new 0 0 48 48" xml:space="preserve">
<g>
	<path d="M27.857,41.44C27.856,41.44,27.856,41.44,27.857,41.44c-4.381-0.001-9.847-4.415-10.077-4.603
		c-0.372-0.304-0.476-0.829-0.248-1.251c0.228-0.423,0.727-0.619,1.183-0.478c0.72,0.229,1.351,0.341,1.929,0.341
		c1.047,0,1.877-0.371,2.929-0.841c1.078-0.481,2.298-1.026,4.06-1.338c0.553-0.098,1.08-0.147,1.565-0.147
		c3.088,0,4.144,2.001,4.271,3.06c0.356,3.168-2.057,4.556-3.611,4.898C29.257,41.32,28.585,41.44,27.857,41.44z M21.978,37.31
		c1.756,1.057,4.003,2.131,5.878,2.131h0.001c0.497,0,0.941-0.08,1.318-0.24v0.001c0.063-0.026,0.129-0.047,0.198-0.061
		c0.395-0.078,2.351-0.576,2.108-2.726c-0.032-0.193-0.314-1.291-2.284-1.291c-0.369,0-0.779,0.039-1.218,0.116
		c-1.519,0.269-2.572,0.74-3.592,1.195C23.6,36.788,22.841,37.127,21.978,37.31z"/>
	<path d="M19.186,32.245C19.186,32.245,19.186,32.245,19.186,32.245c-4.48,0-9.965-5.224-10.196-5.446
		c-0.347-0.333-0.407-0.865-0.145-1.268s0.774-0.561,1.219-0.378c1.941,0.801,3.148,0.515,4.877-0.094
		c1.113-0.391,2.375-0.833,4.158-0.997c0.322-0.03,0.624-0.043,0.906-0.043c3.59,0,4.628,2.242,4.677,3.429
		c0.104,3.237-2.509,4.4-4.002,4.586C20.214,32.174,19.712,32.245,19.186,32.245z M13.142,27.616
		c1.861,1.327,4.191,2.629,6.044,2.629l0,0c0.354,0,0.683-0.049,0.976-0.145c0.071-0.023,0.144-0.038,0.217-0.045
		c0.392-0.043,2.374-0.367,2.304-2.535c-0.021-0.227-0.251-1.501-2.678-1.501c-0.225,0-0.466,0.012-0.723,0.035
		c-1.537,0.141-2.625,0.522-3.678,0.893C14.791,27.232,14.013,27.505,13.142,27.616z"/>
	<path d="M10.501,23.304C10.5,23.304,10.5,23.304,10.501,23.304c-4.505,0-9.977-5.416-10.208-5.646c-0.34-0.34-0.39-0.873-0.12-1.27
		c0.27-0.397,0.786-0.544,1.226-0.354c0.878,0.382,1.62,0.56,2.336,0.56c0.847,0,1.596-0.246,2.546-0.558
		c1.12-0.368,2.389-0.785,4.173-0.914c0.257-0.019,0.5-0.027,0.731-0.027c3.724,0,4.759,2.303,4.786,3.521
		c0.043,3.24-2.593,4.352-4.09,4.507C11.448,23.243,10.984,23.304,10.501,23.304z M4.429,18.555
		c1.862,1.383,4.207,2.749,6.072,2.749h0c0.324,0,0.627-0.042,0.901-0.126c0.071-0.021,0.144-0.035,0.217-0.041
		c0.393-0.035,2.381-0.32,2.352-2.487c-0.017-0.235-0.234-1.557-2.786-1.557c-0.186,0-0.381,0.007-0.587,0.022
		c-1.538,0.111-2.633,0.471-3.693,0.819C6.085,18.204,5.302,18.461,4.429,18.555z"/>
	<path d="M36.046,34.173c-0.189,0-0.388-0.011-0.594-0.035c-0.138-0.018-1.299-0.193-2.154-1.345
		c-0.809-1.089-1.051-2.631-0.72-4.585c0.304-1.793,0.837-3.038,1.307-4.136c0.709-1.656,1.178-2.75,0.492-4.999
		c-0.14-0.461,0.068-0.957,0.496-1.179s0.952-0.107,1.249,0.271c0.61,0.781,5.879,7.72,4.151,12.283
		C40.001,31.797,38.806,34.173,36.046,34.173z M36.564,22.456c-0.181,0.862-0.507,1.624-0.841,2.404
		c-0.447,1.044-0.909,2.124-1.173,3.683c-0.546,3.216,0.988,3.582,1.165,3.613c0.095,0.011,0.215,0.018,0.33,0.018
		c1.879,0,2.262-2.083,2.277-2.172c0.012-0.069,0.031-0.138,0.058-0.203C39.159,27.87,37.927,24.851,36.564,22.456z"/>
	<path d="M27.085,25.165l-0.182-0.004c-0.139-0.006-1.31-0.085-2.256-1.163c-0.893-1.018-1.257-2.535-1.083-4.51
		c0.159-1.814,0.591-3.1,0.972-4.233c0.574-1.709,0.954-2.838,0.091-5.021c-0.177-0.448-0.01-0.958,0.397-1.214
		c0.409-0.254,0.94-0.186,1.268,0.169c0.672,0.729,6.49,7.219,5.113,11.91c-0.051,0.376-0.213,1.154-0.638,1.917
		C29.997,24.401,28.688,25.165,27.085,25.165z M27.079,13.421c-0.111,0.877-0.376,1.664-0.646,2.471
		c-0.363,1.079-0.737,2.194-0.876,3.771c-0.286,3.246,1.268,3.484,1.446,3.501h0.082c2.029,0,2.315-2.1,2.344-2.365
		c0.006-0.072,0.02-0.143,0.042-0.213C30.096,18.598,28.627,15.693,27.079,13.421z"/>
	<path d="M18.331,16.268c-0.004,0-0.07,0-0.075,0c-0.14-0.003-1.314-0.06-2.28-1.121c-0.913-1-1.306-2.51-1.168-4.488
		c0.125-1.816,0.532-3.11,0.892-4.252c0.542-1.72,0.9-2.856-0.003-5.021c-0.186-0.445-0.028-0.958,0.375-1.222
		c0.404-0.263,0.937-0.203,1.27,0.145c0.685,0.714,6.611,7.075,5.342,11.792C22.535,13.603,21.462,16.268,18.331,16.268z
		 M18.207,4.526c-0.094,0.878-0.344,1.67-0.6,2.482c-0.342,1.085-0.696,2.208-0.805,3.788c-0.096,1.392,0.129,2.43,0.651,3.003
		c0.387,0.424,0.835,0.468,0.839,0.468l0.038,1v-1c2.104,0,2.346-2.176,2.367-2.424c0.006-0.067,0.019-0.139,0.037-0.204
		C21.32,9.643,19.797,6.768,18.207,4.526z"/>
	<path d="M35.089,41.303c-0.067,0-0.136-0.007-0.204-0.021c-0.541-0.113-0.889-0.643-0.776-1.183
		c0.037-0.176,0.952-4.319,5.984-6.202c0.517-0.192,1.094,0.069,1.287,0.586c0.193,0.518-0.069,1.094-0.586,1.287
		c-4.012,1.501-4.721,4.703-4.727,4.735C35.969,40.979,35.553,41.303,35.089,41.303z"/>
	<path d="M47,48c-0.26,0-0.519-0.101-0.715-0.301l-7.363-7.52c-0.386-0.395-0.38-1.027,0.016-1.414
		c0.394-0.387,1.026-0.38,1.414,0.016l7.363,7.52c0.386,0.395,0.38,1.027-0.016,1.414C47.505,47.905,47.253,48,47,48z"/>
	<g>
		<path d="M7.94,13.026c-0.289,0-0.575-0.124-0.772-0.364C6.626,12.003,1.882,6.118,2.32,2.196C2.381,1.647,2.876,1.25,3.425,1.313
			c0.549,0.061,0.944,0.556,0.883,1.104c-0.292,2.621,3.08,7.365,4.404,8.972c0.351,0.426,0.29,1.056-0.136,1.408
			C8.39,12.951,8.165,13.026,7.94,13.026z"/>
		<path d="M12.753,8.11c-0.23,0-0.462-0.08-0.651-0.241C10.531,6.52,5.89,3.09,3.354,3.378C2.804,3.453,2.309,3.049,2.245,2.5
			C2.181,1.952,2.574,1.455,3.122,1.392c3.854-0.458,9.638,4.404,10.284,4.96c0.418,0.36,0.466,0.991,0.106,1.41
			C13.314,7.992,13.035,8.11,12.753,8.11z"/>
	</g>
</g>
</svg>
