<?xml version="1.0" encoding="utf-8"?>
<!-- Generator: Adobe Illustrator 16.0.0, SVG Export Plug-In . SVG Version: 6.00 Build 0)  -->
<!DOCTYPE svg PUBLIC "-//W3C//DTD SVG 1.1//EN" "http://www.w3.org/Graphics/SVG/1.1/DTD/svg11.dtd">
<svg version="1.1" id="Layer_1" xmlns="http://www.w3.org/2000/svg" xmlns:xlink="http://www.w3.org/1999/xlink" x="0px" y="0px"
	 width="48px" height="48px" viewBox="0 0 48 48" enable-background="new 0 0 48 48" xml:space="preserve">
<g>
	<path d="M15.827,47.725c-7.779,0-14.108-6.328-14.108-14.107s6.329-14.108,14.108-14.108s14.108,6.329,14.108,14.108
		S23.606,47.725,15.827,47.725z M15.827,21.509c-6.677,0-12.108,5.432-12.108,12.108c0,6.676,5.432,12.107,12.108,12.107
		s12.108-5.432,12.108-12.107C27.936,26.94,22.504,21.509,15.827,21.509z"/>
	<path d="M41.744,47.725c-3.449,0-6.256-2.807-6.256-6.256s2.807-6.256,6.256-6.256S48,38.02,48,41.469S45.193,47.725,41.744,47.725
		z M41.744,37.213c-2.347,0-4.256,1.909-4.256,4.256s1.909,4.256,4.256,4.256S46,43.815,46,41.469S44.091,37.213,41.744,37.213z"/>
	<path d="M15.826,34.617c-0.476,0-0.897-0.34-0.983-0.824L9.208,2.276H1c-0.552,0-1-0.448-1-1s0.448-1,1-1h9.882l5.93,33.166
		c0.097,0.543-0.265,1.063-0.809,1.16C15.944,34.612,15.884,34.617,15.826,34.617z"/>
	<path d="M40.111,37.477c-0.553,0-1-0.447-1-1V17.449c0-5.177-5.345-5.42-5.572-5.428l-21.751,0c-0.552,0-1-0.448-1-1s0.448-1,1-1
		H33.57c2.627,0.074,7.541,1.721,7.541,7.427v19.027C41.111,37.029,40.664,37.477,40.111,37.477z"/>
	<path d="M40.111,31.406H28.537c-0.553,0-1-0.447-1-1s0.447-1,1-1h11.574c0.553,0,1,0.447,1,1S40.664,31.406,40.111,31.406z"/>
</g>
</svg>
