<?xml version="1.0" encoding="utf-8"?>
<!-- Generator: Adobe Illustrator 18.0.0, SVG Export Plug-In . SVG Version: 6.00 Build 0)  -->
<!DOCTYPE svg PUBLIC "-//W3C//DTD SVG 1.1//EN" "http://www.w3.org/Graphics/SVG/1.1/DTD/svg11.dtd">
<svg version="1.1" id="Layer_1" xmlns="http://www.w3.org/2000/svg" xmlns:xlink="http://www.w3.org/1999/xlink" x="0px" y="0px"
	 viewBox="0 0 48 48" enable-background="new 0 0 48 48" xml:space="preserve">
<g>
	<path fill="#010101" d="M47,23.4h-2C45,11.6,35.6,2,24,2C12.4,2,3,11.6,3,23.4H1C1,10.5,11.3,0,24,0C36.7,0,47,10.5,47,23.4z"/>
	<path fill="#010101" d="M41,23.4h-2C39,15,32.3,8.1,24,8.1C15.7,8.1,9,15,9,23.4H7c0-9.5,7.6-17.3,17-17.3S41,13.9,41,23.4z"/>
	<path fill="#010101" d="M35.8,23.4h-2c0-5.5-4.4-10-9.8-10c-5.4,0-9.8,4.5-9.8,10h-2c0-6.6,5.3-12,11.8-12
		C30.5,11.4,35.8,16.8,35.8,23.4z"/>
	<g>
		<path fill="#010101" d="M4.9,47L1,31.4h2.1l1.8,7.9c0.5,1.9,0.9,3.9,1.1,5.4l0,0c0.2-1.6,0.7-3.4,1.2-5.4l2-7.9h2.1l1.9,7.9
			c0.4,1.9,0.8,3.7,1.1,5.3l0,0c0.3-1.7,0.7-3.4,1.2-5.4l2-7.9h2L15.3,47h-2.1l-1.9-8.1c-0.5-2-0.8-3.5-1-5.1l0,0
			c-0.3,1.6-0.6,3.1-1.2,5.1L6.9,47H4.9z"/>
		<path fill="#010101" d="M23.6,31.4V47h-2V31.4H23.6z"/>
		<path fill="#010101" d="M31.6,40v1.5H26V40H31.6z"/>
		<path fill="#010101" d="M34,31.4h8.2v1.7h-6.3v5.2h5.8V40h-5.8v7h-2L34,31.4L34,31.4z"/>
		<path fill="#010101" d="M47,31.4V47h-2V31.4H47z"/>
	</g>
</g>
</svg>
