<?xml version="1.0" encoding="utf-8"?>
<!-- Generator: Adobe Illustrator 18.0.0, SVG Export Plug-In . SVG Version: 6.00 Build 0)  -->
<!DOCTYPE svg PUBLIC "-//W3C//DTD SVG 1.1//EN" "http://www.w3.org/Graphics/SVG/1.1/DTD/svg11.dtd">
<svg version="1.1" id="Layer_1" xmlns="http://www.w3.org/2000/svg" xmlns:xlink="http://www.w3.org/1999/xlink" x="0px" y="0px"
	 viewBox="0 0 48 48" enable-background="new 0 0 48 48" xml:space="preserve">
<g>
	<path fill="#010101" d="M38.3,38.4H9.7c-1.7,0-3.1-1.4-3.1-3.1V21.5c0-1.7,1.4-3.1,3.1-3.1h28.6c1.7,0,3.1,1.4,3.1,3.1v13.8
		C41.4,37,40,38.4,38.3,38.4z M9.7,20.4c-0.6,0-1.1,0.5-1.1,1.1v13.8c0,0.6,0.5,1.1,1.1,1.1h28.6c0.5,0,1.1-0.6,1.1-1.1V21.5
		c0-0.6-0.5-1.1-1.1-1.1H9.7z"/>
	<path fill="#010101" d="M44.9,48H3.1c-1.3,0-2.4-0.7-2.9-1.8c-0.4-0.9-0.2-1.9,0.6-2.6l5.5-6.2c0.7-0.7,1.5-1,2.3-1h30.7
		c0.9,0,1.9,0.5,2.4,1.1l5.5,6.1c0.7,0.7,0.9,1.7,0.5,2.6C47.3,47.3,46.2,48,44.9,48z M8.6,38.4c-0.3,0-0.6,0.2-0.9,0.4L2.2,45
		C2,45.2,2,45.4,2.1,45.5c0.1,0.3,0.5,0.5,1,0.5h41.8c0.6,0,0.9-0.3,1-0.5c0-0.1,0.1-0.3-0.1-0.5l-5.6-6.2c-0.1-0.2-0.5-0.4-0.9-0.4
		H8.6z"/>
	<path fill="#010101" d="M23.7,16.1c-2,0-3.6-1.6-3.6-3.6s1.6-3.6,3.6-3.6c2,0,3.6,1.6,3.6,3.6S25.7,16.1,23.7,16.1z M23.7,10.9
		c-0.9,0-1.6,0.7-1.6,1.6s0.7,1.6,1.6,1.6c0.9,0,1.6-0.7,1.6-1.6S24.6,10.9,23.7,10.9z"/>
	<path fill="#010101" d="M29.2,8.9c-3.1-3-8.1-3-11.1,0l-1.4-1.4c3.8-3.8,10-3.8,13.9,0L29.2,8.9z"/>
	<path fill="#010101" d="M32.5,5.6c-4.9-4.8-12.8-4.8-17.6,0l-1.4-1.4c5.6-5.6,14.7-5.6,20.4,0L32.5,5.6z"/>
</g>
</svg>
