<?xml version="1.0" encoding="utf-8"?>
<!-- Generator: Adobe Illustrator 18.0.0, SVG Export Plug-In . SVG Version: 6.00 Build 0)  -->
<!DOCTYPE svg PUBLIC "-//W3C//DTD SVG 1.1//EN" "http://www.w3.org/Graphics/SVG/1.1/DTD/svg11.dtd">
<svg version="1.1" id="Layer_1" xmlns="http://www.w3.org/2000/svg" xmlns:xlink="http://www.w3.org/1999/xlink" x="0px" y="0px"
	 viewBox="0 0 48 48" enable-background="new 0 0 48 48" xml:space="preserve">
<g>
	<path fill="#010101" d="M27.4,39.2c-0.1,0-0.2,0-0.3-0.1c-0.4-0.2-0.7-0.5-0.7-1C27,23.5,10.4,1.8,10.2,1.6
		C10,1.3,9.9,0.9,10.1,0.5c0.2-0.4,0.6-0.6,1-0.5C48.9,4.2,48,28.6,48,28.9c0,0.3-0.1,0.5-0.4,0.7c-0.2,0.2-0.5,0.3-0.8,0.2
		c-0.7-0.1-1.4-0.2-2.1-0.2c-9.1,0-16.5,9.1-16.5,9.2C28,39.1,27.7,39.2,27.4,39.2z M13.2,2.3C17,7.6,27.4,23.1,28.4,35.7
		c2.9-2.9,9-8,16.4-8c0.4,0,0.8,0,1.3,0.1C45.7,23.2,42.8,6.3,13.2,2.3z"/>
	<path fill="#010101" d="M4.3,22.5c-2.4,0-4.3-1.9-4.3-4.2s1.9-4.2,4.3-4.2s4.3,1.9,4.3,4.2S6.7,22.5,4.3,22.5z M4.3,16.1
		c-1.3,0-2.3,1-2.3,2.2c0,1.2,1,2.2,2.3,2.2c1.3,0,2.3-1,2.3-2.2C6.6,17.1,5.6,16.1,4.3,16.1z"/>
	<path fill="#010101" d="M22.2,42.3c-1.2,0-2.1-0.6-2.6-1.5c-2.4-4.1-6.3-4.9-9.1-4.9C9,35.9,8,36.2,8,36.2l-1.1,0.3
		c-0.3,0.1-0.7,0.1-1.1,0.1C4,36.6,2.5,35.5,2,34l-2-5.7c-0.3-0.9-0.2-1.8,0.2-2.6c0.5-0.9,1.4-1.6,2.5-1.9c0,0,1.1-0.3,2.3-0.3
		c0.3,0,0.7,0,0.9,0.1c0.9,0.1,1.8,0.1,2.6,0.1c5.9,0,6.7-2.6,6.7-2.6c0.3-1.4,1.8-2.3,3.4-2c0.8,0.2,1.5,0.6,1.9,1.3
		c0.3,0.5,0.5,1.2,0.4,1.8c-0.1,1.4-2.3,6.3-10.8,6.8l0.6,1.7c3.1,0.1,10.2,1,14,7.8c0.4,0.6,0.4,1.3,0.2,1.9
		c-0.2,0.7-0.8,1.3-1.5,1.7C23.2,42.1,22.8,42.3,22.2,42.3z M10.5,33.9c2.7,0,7.8,0.8,10.8,6c0.1,0.3,0.5,0.4,0.8,0.4
		c0.1,0,0.2,0,0.4-0.1c0.2-0.1,0.4-0.3,0.4-0.4c0-0.1,0-0.2,0-0.3c-3.4-6-9.4-6.8-12.6-6.8l-0.4,0c-0.4,0-0.8-0.3-1-0.7l-1.2-3.7
		c-0.1-0.3,0-0.6,0.1-0.9c0.2-0.3,0.5-0.4,0.8-0.4c8.8,0,10.1-4.8,10.2-5.1c0,0,0-0.1,0-0.1c0-0.1,0-0.2-0.1-0.3
		c-0.1-0.2-0.4-0.3-0.7-0.4c-0.5-0.1-0.9,0.2-1,0.5c0,0.2-1.1,4.1-8.7,4.1c-0.9,0-1.8-0.1-2.8-0.2c-0.3,0-0.5,0-0.7,0
		c-0.9,0-1.7,0.2-1.8,0.2c-0.6,0.1-1,0.5-1.2,0.9c-0.2,0.3-0.2,0.7-0.1,1l2,5.8c0.3,0.9,1.4,1.4,2.4,1.2l1.1-0.3
		C7.6,34.2,8.8,33.9,10.5,33.9z"/>
	<path fill="#010101" d="M29.5,48c-4.1,0-8.3-0.9-12.3-2.7c-0.4-0.2-0.7-0.6-0.6-1.1c0.1-0.4,0.4-0.8,0.9-0.8l29-3.1
		c0.4,0,0.9,0.2,1,0.6c0.2,0.4,0.1,0.9-0.3,1.2C46.9,42.3,40,48,29.5,48z M22,44.9c2.5,0.7,5,1.1,7.5,1.1c5.5,0,10-1.7,12.9-3.2
		L22,44.9z"/>
</g>
</svg>
