<?xml version="1.0" encoding="utf-8"?>
<!-- Generator: Adobe Illustrator 18.0.0, SVG Export Plug-In . SVG Version: 6.00 Build 0)  -->
<!DOCTYPE svg PUBLIC "-//W3C//DTD SVG 1.1//EN" "http://www.w3.org/Graphics/SVG/1.1/DTD/svg11.dtd">
<svg version="1.1" id="Layer_1" xmlns="http://www.w3.org/2000/svg" xmlns:xlink="http://www.w3.org/1999/xlink" x="0px" y="0px"
	 viewBox="0 0 48 48" enable-background="new 0 0 48 48" xml:space="preserve">
<g>
	<rect x="12.7" y="0.5" fill="#010101" width="2" height="47"/>
	<rect x="10.2" y="46.5" fill="#010101" width="29" height="2"/>
	<path fill="#010101" d="M36.7,47.5h-2c0-38-20.9-41.2-21.1-41.2l0.3-2C14.8,4.4,36.7,7.8,36.7,47.5z"/>
	<rect x="8.8" y="19.2" fill="#010101" width="26.8" height="2"/>
	<path fill="#010101" d="M31,33H16.1V23H29L31,33z M18.1,31h10.5l-1.2-6h-9.3V31z"/>
	<path fill="#010101" d="M32.3,44.3H16.1v-9.9h15.2L32.3,44.3z M18.1,42.3h12l-0.6-5.9H18.1V42.3z"/>
	<path fill="#010101" d="M25.9,17.6H15.8V8.4l1.4,0.7c0.2,0.1,4.9,2.4,7.7,7L25.9,17.6z M17.8,15.6h4.4c-1.5-1.8-3.2-3.1-4.4-3.9
		V15.6z"/>
</g>
</svg>
