<?xml version="1.0" encoding="utf-8"?>
<!-- Generator: Adobe Illustrator 16.0.0, SVG Export Plug-In . SVG Version: 6.00 Build 0)  -->
<!DOCTYPE svg PUBLIC "-//W3C//DTD SVG 1.1//EN" "http://www.w3.org/Graphics/SVG/1.1/DTD/svg11.dtd">
<svg version="1.1" id="Layer_1" xmlns="http://www.w3.org/2000/svg" xmlns:xlink="http://www.w3.org/1999/xlink" x="0px" y="0px"
	 width="48px" height="48px" viewBox="0 0 48 48" enable-background="new 0 0 48 48" xml:space="preserve">
<g>
	<path d="M26.712,6.705h-5.424c-0.552,0-1-0.448-1-1V1c0-0.552,0.448-1,1-1h5.424c0.553,0,1,0.448,1,1v4.705
		C27.712,6.257,27.265,6.705,26.712,6.705z M22.288,4.705h3.424V2h-3.424V4.705z"/>
	<path d="M31.361,48H16.639c-0.552,0-1-0.447-1-1V20.371c-0.012-0.441,0.106-2.438,2.99-4.524c0.726-0.525,1.605-1.161,1.926-1.449
		c-0.003-0.059-0.005-0.114-0.005-0.175V5.706c0-0.552,0.448-1,1-1h4.9c0.553,0,1,0.448,1,1v8.516c0,0.063-0.002,0.122-0.005,0.175
		c0.32,0.288,1.2,0.924,1.925,1.449c3.092,2.235,3.006,4.358,2.985,4.593L32.361,47c0,0.266-0.105,0.52-0.293,0.707
		S31.627,48,31.361,48z M17.639,46h12.722l-0.002-25.646c0.002-0.061-0.016-1.336-2.161-2.887c-2.465-1.784-2.843-2.058-2.756-3.105
		c0.003-0.04,0.008-0.085,0.008-0.139V6.706h-2.9v7.517c0,0.054,0.004,0.099,0.008,0.139c0.087,1.048-0.292,1.322-2.757,3.105
		c-2.145,1.552-2.161,2.826-2.161,2.839L17.639,46z"/>
</g>
</svg>
