<?xml version="1.0" encoding="utf-8"?>
<!-- Generator: Adobe Illustrator 18.0.0, SVG Export Plug-In . SVG Version: 6.00 Build 0)  -->
<!DOCTYPE svg PUBLIC "-//W3C//DTD SVG 1.1//EN" "http://www.w3.org/Graphics/SVG/1.1/DTD/svg11.dtd">
<svg version="1.1" id="Layer_1" xmlns="http://www.w3.org/2000/svg" xmlns:xlink="http://www.w3.org/1999/xlink" x="0px" y="0px"
	 viewBox="0 0 48 48" enable-background="new 0 0 48 48" xml:space="preserve">
<g>
	<path fill="#010101" d="M48,48H30.8V21.6c0-3.2,1.7-6,4.5-7.5V0h8.2v14.1c2.7,1.5,4.5,4.5,4.5,7.5V48z M32.8,46H46V21.6
		c0-2.5-1.6-4.9-3.9-6l-0.6-0.3V2h-4.2v13.4l-0.6,0.3c-2.4,1.1-3.9,3.4-3.9,6V46z"/>
	<g>
		<path fill="#010101" d="M9,38.2c-5,0-9-6.1-9-13.5c0-1,0.1-2.1,0.2-3.1l1,0v-0.9h16.5l0.1,0.9c0.1,0.9,0.2,1.9,0.2,3
			C18,32.1,14,38.2,9,38.2z M2.1,22.8C2,23.4,2,24.1,2,24.7c0,6.2,3.2,11.5,7,11.5s7-5.3,7-11.5c0-0.6,0-1.3-0.1-1.9H2.1z"/>
		<rect x="8" y="37.2" fill="#010101" width="2" height="9.8"/>
		<rect x="2.7" y="46" fill="#010101" width="12.5" height="2"/>
	</g>
	<g>
		<path fill="#010101" d="M20.3,32.3c-1.6,0-3.1-0.6-4.5-1.8l1.3-1.5c1.1,0.9,2.2,1.4,3.3,1.4c3.8,0,7-5.3,7-11.5
			c0-0.6,0-1.3-0.1-1.9H13.5c-0.1,0.6-0.1,1.3-0.1,1.9c0,0.8,0.1,1.7,0.2,2.6l-2,0.2c-0.1-0.9-0.2-1.9-0.2-2.8c0-1.1,0.1-2.1,0.2-3
			l0.1-0.9H29l0.1,0.9c0.1,0.9,0.2,1.9,0.2,3C29.3,26.2,25.3,32.3,20.3,32.3z"/>
		<rect x="19.4" y="31.3" fill="#010101" width="2" height="9.9"/>
		<rect x="14.1" y="40.2" fill="#010101" width="12.5" height="2"/>
	</g>
	<rect x="1.2" y="26.1" fill="#010101" width="15.6" height="2"/>
</g>
</svg>
