<?xml version="1.0" encoding="utf-8"?>
<!-- Generator: Adobe Illustrator 16.0.0, SVG Export Plug-In . SVG Version: 6.00 Build 0)  -->
<!DOCTYPE svg PUBLIC "-//W3C//DTD SVG 1.1//EN" "http://www.w3.org/Graphics/SVG/1.1/DTD/svg11.dtd">
<svg version="1.1" id="Layer_1" xmlns="http://www.w3.org/2000/svg" xmlns:xlink="http://www.w3.org/1999/xlink" x="0px" y="0px"
	 width="48px" height="48px" viewBox="0 0 48 48" enable-background="new 0 0 48 48" xml:space="preserve">
<g>
	<g>
		<path d="M15.205,34.516c-6.531,0-11.845-5.906-11.845-13.166c0-0.456,0.022-0.905,0.062-1.348
			c0.046-0.516,0.479-0.911,0.996-0.911h21.576c0.518,0,0.949,0.395,0.996,0.911c0.04,0.442,0.061,0.892,0.061,1.348
			C27.051,28.609,21.737,34.516,15.205,34.516z M5.363,21.092C5.361,21.178,5.36,21.264,5.36,21.35
			c0,6.157,4.417,11.166,9.845,11.166s9.846-5.009,9.846-11.166c0-0.086-0.001-0.172-0.003-0.258H5.363z"/>
		<path d="M15.205,46.213c-0.552,0-1-0.447-1-1V34.059c0-0.553,0.448-1,1-1s1,0.447,1,1v11.154
			C16.205,45.766,15.757,46.213,15.205,46.213z"/>
		<path d="M20.395,46.213H10.018c-0.552,0-1-0.447-1-1s0.448-1,1-1h10.377c0.552,0,1,0.447,1,1S20.947,46.213,20.395,46.213z"/>
		<path d="M18.422,26.934c-0.498,0-1.016-0.094-1.547-0.342c-0.298-0.139-0.599-0.297-0.902-0.457
			c-0.669-0.353-1.301-0.687-1.911-0.8c-1.026-0.19-2.134,0.074-2.88,0.291l-0.287,0.083c-1.029,0.301-2.19,0.641-3.406,0.592
			c-0.796-0.029-1.541-0.261-2.21-0.689c-0.134-0.086-0.259-0.184-0.382-0.282c-0.087-0.069-0.218-0.174-0.269-0.193
			c-0.538-0.125-0.867-0.661-0.742-1.199c0.125-0.539,0.667-0.869,1.207-0.746c0.466,0.109,0.804,0.377,1.05,0.574
			c0.072,0.057,0.143,0.116,0.219,0.165c0.365,0.233,0.76,0.356,1.204,0.372c0.888,0.045,1.802-0.231,2.769-0.513l0.292-0.085
			c0.939-0.271,2.356-0.603,3.799-0.335c0.91,0.169,1.744,0.609,2.479,0.998c0.273,0.145,0.544,0.287,0.813,0.413
			c0.693,0.322,1.38,0.102,2.442-0.283c0.559-0.203,1.138-0.413,1.768-0.512c1.076-0.165,2.482-0.217,3.852,0.864
			c0.434,0.343,0.508,0.971,0.166,1.404s-0.972,0.509-1.404,0.166c-0.629-0.497-1.255-0.621-2.306-0.458
			c-0.438,0.068-0.901,0.236-1.393,0.415C20.133,26.635,19.311,26.934,18.422,26.934z"/>
	</g>
	<path d="M39.802,48h-7.108c-2.667,0-4.836-2.17-4.836-4.837V20.66c0-1.81,1.029-3.454,2.62-4.278
		c0.12-1.459,0.516-3.297,1.621-4.771c1.449-1.933-0.012-4.822-0.026-4.851c-0.062-0.121-0.101-0.255-0.109-0.391L31.591,1.07
		c-0.02-0.276,0.076-0.549,0.266-0.752C32.046,0.115,32.311,0,32.588,0h7.32c0.277,0,0.542,0.115,0.731,0.318
		c0.189,0.203,0.285,0.475,0.267,0.752l-0.371,5.299c-0.01,0.138-0.048,0.271-0.112,0.394c-0.013,0.026-1.474,2.915-0.023,4.849
		c1.104,1.475,1.499,3.312,1.619,4.771c1.593,0.825,2.622,2.469,2.62,4.279v22.502C44.639,45.83,42.469,48,39.802,48z M33.944,6.038
		c0.393,0.853,1.706,4.17-0.246,6.773c-0.962,1.283-1.216,3.034-1.26,4.277c-0.014,0.412-0.279,0.772-0.668,0.909
		c-1.145,0.401-1.913,1.472-1.913,2.663v22.503c0,1.564,1.272,2.837,2.836,2.837h7.108c1.564,0,2.837-1.272,2.837-2.837V20.66
		c0.001-1.191-0.768-2.261-1.913-2.663c-0.389-0.137-0.654-0.497-0.668-0.909c-0.044-1.243-0.298-2.995-1.259-4.278
		c-1.952-2.603-0.639-5.919-0.246-6.772L38.836,2H33.66L33.944,6.038z"/>
</g>
</svg>
