<?xml version="1.0" encoding="utf-8"?>
<!-- Generator: Adobe Illustrator 18.0.0, SVG Export Plug-In . SVG Version: 6.00 Build 0)  -->
<!DOCTYPE svg PUBLIC "-//W3C//DTD SVG 1.1//EN" "http://www.w3.org/Graphics/SVG/1.1/DTD/svg11.dtd">
<svg version="1.1" id="Layer_1" xmlns="http://www.w3.org/2000/svg" xmlns:xlink="http://www.w3.org/1999/xlink" x="0px" y="0px"
	 viewBox="0 0 48 48" enable-background="new 0 0 48 48" xml:space="preserve">
<g>
	<path fill="#010101" d="M38.4,40.4h-3.5c-5.3,0-9.6-4.3-9.6-9.6V20.3H48v10.5C48,36.1,43.7,40.4,38.4,40.4z M27.3,22.3v8.5
		c0,4.2,3.4,7.6,7.6,7.6h3.5c4.1,0,7.6-3.5,7.6-7.6v-8.5H27.3z"/>
	<rect x="35.6" y="39.4" fill="#010101" width="2" height="7.6"/>
	<rect x="31.9" y="46" fill="#010101" width="9.4" height="2"/>
	<path fill="#010101" d="M14.4,48H6.9C1.9,48,0,21.8,0,21.5v-3.9c0-3.3,3.1-5.9,6.9-5.9V0h7.5v11.7c3.8,0,6.9,2.6,6.9,5.9v3.9
		C21.3,21.8,19.4,48,14.4,48z M6.9,13.7c-2.7,0-4.9,1.7-4.9,3.9v3.9C2,25.4,4.7,44.9,7,46l7.4,0c2.2-1.2,5-20.6,5-24.5v-3.9
		c0-2.2-2.2-3.9-4.9-3.9h-2V2H8.9v11.7H6.9z"/>
	<polygon fill="#010101" points="11.7,36.4 2.8,36.4 2.8,34.4 9.7,34.4 9.7,20.7 1,20.7 1,18.7 11.7,18.7 	"/>
</g>
</svg>
