<?xml version="1.0" encoding="utf-8"?>
<!-- Generator: Adobe Illustrator 18.0.0, SVG Export Plug-In . SVG Version: 6.00 Build 0)  -->
<!DOCTYPE svg PUBLIC "-//W3C//DTD SVG 1.1//EN" "http://www.w3.org/Graphics/SVG/1.1/DTD/svg11.dtd">
<svg version="1.1" id="Layer_1" xmlns="http://www.w3.org/2000/svg" xmlns:xlink="http://www.w3.org/1999/xlink" x="0px" y="0px"
	 viewBox="0 0 48 48" enable-background="new 0 0 48 48" xml:space="preserve">
<g>
	<path fill="#010101" d="M27.4,12.2c-3.4,0-6.1-2.7-6.1-6.1S24,0,27.4,0c3.4,0,6.1,2.7,6.1,6.1S30.8,12.2,27.4,12.2z M27.4,2
		c-2.3,0-4.1,1.8-4.1,4.1s1.8,4.1,4.1,4.1s4.1-1.8,4.1-4.1S29.7,2,27.4,2z"/>
	<path fill="#010101" d="M34.6,47.9c-0.4,0-1,0-1.5-0.3c-1.5-0.7-2.2-2.6-1.4-4.2l3.7-7.5l-6.5-3.2h-3.2L9,45.2
		c-0.5,0.4-1.2,0.7-1.9,0.7c-1,0-1.9-0.5-2.5-1.3c-0.5-0.6-0.8-1.5-0.7-2.3c0.1-0.9,0.6-1.7,1.3-2.2l12-9c0,0-0.1,0-0.1,0
		c-0.4,0.2-0.7,0.2-1,0.2c-1.4,0-2.6-0.9-3-2.2l-3.2-10l13-6.4l9.2,0.7l10.8,9c0.7,0.6,1.1,1.3,1.1,2.2c0.1,0.9-0.2,1.7-0.7,2.4
		c-1.1,1.3-3.3,1.5-4.5,0.4l-5.1-4.3V28l10.1,5l-6.4,13.2C37,47.2,35.8,47.9,34.6,47.9z M25,30.7h4.4l8.7,4.2l-4.5,9.3
		c-0.3,0.6-0.1,1.3,0.5,1.6l0.1,0.1c0,0,0.2,0,0.4,0c0.4,0,0.8-0.3,1-0.6l5.6-11.4l-9.5-4.6V18.9l8.4,7.1c0.3,0.2,0.5,0.3,0.7,0.3
		c0.4,0,0.8-0.2,1-0.5c0.2-0.3,0.3-0.6,0.2-0.8c0-0.3-0.2-0.6-0.5-0.9l-10.3-8.6l-8-0.7l-11,5.4l2.6,8.4c0.2,0.5,0.7,0.8,1.2,0.8
		c0,0,0.1,0,0.1,0c0.4-0.1,0.6-0.4,0.8-0.7c0.1-0.2,0.2-0.5,0.1-0.8l-2.1-6.5l6.5-3.2l0.1,12L6.4,41.8c-0.3,0.2-0.5,0.5-0.5,0.8
		c0,0.3,0.1,0.5,0.2,0.8l0.1,0.1c0.2,0.3,0.5,0.5,0.9,0.5c0.2,0,0.4,0,0.6-0.2L25,30.7z M17.5,22.5l1.5,4.8c0.3,0.8,0.2,1.6-0.2,2.4
		c-0.1,0.2-0.2,0.4-0.3,0.5l1.2-0.9l-0.1-7.8L17.5,22.5z"/>
</g>
</svg>
